<?xml version="1.0" encoding="UTF-8"?>
<!DOCTYPE svg PUBLIC "-//W3C//DTD SVG 1.1//EN" "http://www.w3.org/Graphics/SVG/1.1/DTD/svg11.dtd">
<!-- Creator: CorelDRAW X7 -->
<svg xmlns="http://www.w3.org/2000/svg" xml:space="preserve" width="100%" height="100%" version="1.1" style="shape-rendering:geometricPrecision; text-rendering:geometricPrecision; image-rendering:optimizeQuality; fill-rule:evenodd; clip-rule:evenodd"
viewBox="0 0 1000000 1000000"
 xmlns:xlink="http://www.w3.org/1999/xlink">
 <defs>
  <style type="text/css">
   <![CDATA[
    .fil0 {fill:#2B2A29;fill-rule:nonzero}
   ]]>
  </style>
 </defs>
 <g id="Слой_x0020_1">
  <metadata id="CorelCorpID_0Corel-Layer"/>
  <path class="fil0" d="M528882 281046c0,-8526 -7254,-12633 -22083,-12633l-16016 0 0 48941 16016 0c14829,0 22083,-4113 22083,-12629l0 -23679zm-38099 -96280l0 48920 16016 0c11376,0 18943,-5041 18943,-12619l0 -23686c0,-7567 -7567,-12615 -18943,-12615l-16016 0zm53900 65659c0,0 22094,311 22094,30621l0 23679c0,31559 -19890,47346 -59978,47346l-53894 0 0 -202032 53894 0c33774,0 56807,15783 56807,47342l0 23686c0,22412 -11977,28088 -17033,29037l-1890 321z"/>
  <polygon class="fil0" points="296595,415114 296595,449831 255546,449831 255546,617143 217672,617143 217672,449831 176640,449831 176640,415114 "/>
  <path class="fil0" d="M798739 514858c16316,9126 24621,19689 24621,39151l0 18948c0,31560 -17537,47350 -57630,47350 -40079,0 -57259,-15790 -57259,-47350l0 -22116 37881 0 0 22116c0,8516 4537,12630 19378,12630 14838,0 19748,-4114 19748,-12630l0 -18948c0,-7253 -2063,-10103 -19748,-18937 0,0 -29789,-16422 -34851,-19896 -4720,-3472 -8202,-6943 -10410,-9783 -4107,-5997 -8855,-14933 -8855,-27146l0 -22098c0,-29993 20023,-44189 54116,-44189 34106,0 54469,14196 54469,44189l0 25255 -37857 0 0 -22101c0,-8520 -3986,-12626 -16612,-12626 -12608,0 -16214,4106 -16214,12626l0 18944c0,8837 1373,11366 16214,18933 0,0 24133,12711 33009,17678z"/>
  <polygon class="fil0" points="789431,218732 781804,211101 500281,492625 218750,211101 211119,218732 492650,500255 211119,781778 218750,789409 500281,507886 781804,789409 789431,781778 507911,500255 "/>
  <polygon class="fil0" points="458902,733275 458902,741319 449395,741319 449395,780077 440625,780077 440625,741319 431117,741319 431117,733275 "/>
  <path class="fil0" d="M475745 741320l0 16082 4385 0c2925,0 4389,-946 4389,-2921l0 -10230c0,-1979 -1464,-2931 -4389,-2931l-4385 0zm17551 13891c0,4173 -1831,7091 -5415,8781l5415 14262 0 1821 -8703 0 -5560 -14626 -3288 0 0 14626 -8773 0 0 -46799 13158 0c7899,0 13166,3288 13166,10234l0 11701z"/>
  <path class="fil0" d="M521833 733275l8780 0 0 36565c0,7306 -4617,10964 -13892,10964 -9291,0 -13906,-3658 -13906,-10964l0 -36565 8781 0 0 36565c0,1972 1685,2917 5125,2917 3436,0 5112,-945 5112,-2917l0 -36565z"/>
  <polygon class="fil0" points="566092,741320 550005,741320 550005,752650 564638,752650 564638,760700 550005,760700 550005,772031 566092,772031 566092,780075 541235,780075 541235,733276 566092,733276 "/>
  <path class="fil0" d="M340184 832779c0,-1976 -1679,-2921 -5115,-2921l-5119 0 0 11331 5119 0c3436,0 5115,-949 5115,-2928l0 -5482zm-10234 -22303l0 11332 5119 0c2628,0 4389,-1172 4389,-2921l0 -5483c0,-1756 -1761,-2928 -4389,-2928l-5119 0zm13893 15205c0,0 5118,78 5118,7098l0 5482c0,7313 -4607,10972 -13892,10972l-13892 0 0 -46803 13892 0c7825,0 13159,3661 13159,10974l0 5483c0,5182 -2777,6501 -3948,6724l-437 70z"/>
  <path class="fil0" d="M368217 830219l7606 0 -3073 -19745 -1460 0 -3073 19745zm12136 -27788l7023 44979 0 1824 -8629 0 -1682 -10975 -10093 0 -1754 10975 -8558 0 0 -1824 7020 -44979 16673 0z"/>
  <path class="fil0" d="M404950 810475l0 16084 4385 0c2925,0 4392,-949 4392,-2921l0 -10235c0,-1979 -1467,-2928 -4392,-2928l-4385 0zm17551 13893c0,4173 -1827,7091 -5412,8780l5412 14263 0 1821 -8703 0 -5556 -14620 -3292 0 0 14620 -8773 0 0 -46800 13158 0c7899,0 13166,3288 13166,10234l0 11702z"/>
  <path class="fil0" d="M451407 832779c0,-1976 -1682,-2921 -5115,-2921l-5119 0 0 11331 5119 0c3433,0 5115,-949 5115,-2928l0 -5482zm-10234 -22303l0 11332 5119 0c2628,0 4389,-1172 4389,-2921l0 -5483c0,-1756 -1761,-2928 -4389,-2928l-5119 0zm13893 15205c0,0 5115,78 5115,7098l0 5482c0,7313 -4604,10972 -13889,10972l-13896 0 0 -46803 13896 0c7825,0 13159,3661 13159,10974l0 5483c0,5182 -2780,6501 -3948,6724l-437 70z"/>
  <polygon class="fil0" points="494940,810475 478853,810475 478853,821807 493479,821807 493479,829857 478853,829857 478853,841188 494940,841188 494940,849232 470079,849232 470079,802432 494940,802432 "/>
  <path class="fil0" d="M514336 810475l0 16084 4385 0c2932,0 4396,-949 4396,-2921l0 -10235c0,-1979 -1464,-2928 -4396,-2928l-4385 0zm17565 13893c0,4173 -1838,7091 -5422,8780l5422 14263 0 1821 -8710 0 -5563 -14620 -3292 0 0 14620 -8765 0 0 -46800 13150 0c7906,0 13180,3288 13180,10234l0 11702z"/>
  <path class="fil0" d="M556997 822764c2561,1171 3358,1602 5404,2773 2047,1168 2858,2191 4029,3655 1242,1467 1683,3291 1683,5418l0 4389c0,7313 -4614,10961 -13889,10961 -9296,0 -13903,-3648 -13903,-10961l0 -5126 8781 0 0 5126c0,1968 1672,2917 5122,2917 3433,0 5112,-949 5112,-2917l0 -4389c0,-1686 -1023,-2339 -5112,-4392l-2931 -1390 -3140 -1534c-593,-364 -1478,-882 -2639,-1683 -1090,-801 -1894,-1602 -2420,-2268 -949,-1390 -2046,-3733 -2046,-6294l0 -5108c0,-6950 5270,-10238 13176,-10238 7885,0 13152,3288 13152,10238l0 5849 -8767 0 0 -5122c0,-1972 -1478,-2918 -4385,-2918 -2931,0 -4396,946 -4396,2918l0 4381c0,2060 946,2639 4396,4399l2773 1316z"/>
  <polygon class="fil0" points="596660,802431 605427,802431 605427,849234 596660,849234 596660,829856 586415,829856 586415,849234 577642,849234 577642,802431 586415,802431 586415,821806 596660,821806 "/>
  <path class="fil0" d="M634708 812666c0,-1972 -1686,-2917 -5122,-2917 -3437,0 -5119,945 -5119,2917l0 26332c0,1968 1682,2917 5119,2917 3436,0 5122,-949 5122,-2917l0 -26332zm8770 26332c0,7313 -4614,10961 -13892,10961 -9296,0 -13893,-3648 -13893,-10961l0 -26332c0,-7313 4597,-10960 13893,-10960 9278,0 13892,3647 13892,10960l0 26332z"/>
  <path class="fil0" d="M671285 813404c0,-1983 -1454,-2928 -4382,-2928l-4385 0 0 16083 4385 0c2928,0 4382,-949 4382,-2921l0 -10234zm-4382 -10972c7902,0 13159,3288 13159,10234l0 11699c0,6946 -5257,10248 -13159,10248l-4385 0 0 14619 -8774 0 0 -46800 13159 0z"/>
 </g>
</svg>
