<svg id="logo" xmlns="http://www.w3.org/2000/svg" xmlns:xlink="http://www.w3.org/1999/xlink" viewBox="0 0 283.46 283.46"><defs><style>.cls-1{fill:none;}.cls-2{clip-path:url(#clip-path);}.cls-3{fill:#f05453;}.cls-4,.cls-6{fill:#fff;}.cls-4{opacity:0.7;}.cls-5{opacity:0.9;}</style><clipPath id="clip-path"><rect class="cls-1" width="283.46" height="283.46"/></clipPath></defs><title>belli_denti_logo</title><g class="cls-2"><rect class="cls-3" width="283.46" height="283.46"/><path class="cls-4" d="M169.45,178.13c5.91-5.85,36-41.82,34.18-92.86-.57-16.33-16.19-30.15-32.66-28.75s-20.86,10.89-28.71,10.89-14.54-13-34.4-10.69C91.18,58.64,77.05,75.92,82.08,101s20.51,37,31.11,47.59c7.65,7.65,28.31,22.27,41.87,29.73C157.13,179.5,164.52,183,169.45,178.13Z"/><path class="cls-4" d="M115.3,178.13c-5.91-5.85-36-41.82-34.18-92.86.57-16.33,16.19-30.15,32.66-28.75s20.86,10.89,28.71,10.89,14.54-13,34.4-10.69c16.68,1.92,30.81,19.2,25.79,44.33s-20.51,37-31.11,47.59c-7.65,7.65-28.31,22.27-41.87,29.73C127.63,179.5,120.24,183,115.3,178.13Z"/><g class="cls-5"><path class="cls-6" d="M66.9,221.7a1.53,1.53,0,0,1-1.51-1.51V204.94a1.47,1.47,0,0,1,.43-1.06,1.52,1.52,0,0,1,1.06-.45l5.36,0a5.77,5.77,0,0,1,4.06,1.53A4.93,4.93,0,0,1,78,208.69a5.08,5.08,0,0,1-1.57,3.72,4.9,4.9,0,0,1,1.89,3.95,5,5,0,0,1-1.69,3.78,5.68,5.68,0,0,1-4,1.57Zm1.51-10.62h3.86a2.78,2.78,0,0,0,1.89-.7,2.2,2.2,0,0,0,.79-1.69,2,2,0,0,0-.78-1.61,2.83,2.83,0,0,0-1.9-.66l-3.86,0Zm0,7.61h4.15a2.81,2.81,0,0,0,1.92-.69,2.09,2.09,0,0,0,.79-1.65,2,2,0,0,0-.78-1.6,2.83,2.83,0,0,0-1.9-.66H68.4Z"/><path class="cls-6" d="M93.5,218.67a1.42,1.42,0,0,1,1.06.45,1.46,1.46,0,0,1,.45,1.07,1.53,1.53,0,0,1-1.51,1.51H84.26a1.53,1.53,0,0,1-1.51-1.51V204.88a1.44,1.44,0,0,1,.45-1.07,1.42,1.42,0,0,1,1.06-.45h0l9.23,0a1.46,1.46,0,0,1,1.07.45,1.49,1.49,0,0,1,.43,1.07,1.53,1.53,0,0,1-1.51,1.51h0l-7.71,0V211h5.57a1.48,1.48,0,0,1,1.07.43,1.51,1.51,0,0,1,0,2.15,1.48,1.48,0,0,1-1.07.43H85.78v4.63Z"/><path class="cls-6" d="M100.53,203.39A1.53,1.53,0,0,1,102,204.9v13.79h6.75a1.46,1.46,0,0,1,1.07.45,1.51,1.51,0,0,1,0,2.12,1.46,1.46,0,0,1-1.07.45h-8.26A1.53,1.53,0,0,1,99,220.19V204.9a1.53,1.53,0,0,1,1.51-1.51Z"/><path class="cls-6" d="M115.16,203.39a1.53,1.53,0,0,1,1.51,1.51v13.79h6.75a1.46,1.46,0,0,1,1.07.45,1.51,1.51,0,0,1,0,2.12,1.46,1.46,0,0,1-1.07.45h-8.26a1.53,1.53,0,0,1-1.51-1.51V204.9a1.53,1.53,0,0,1,1.51-1.51Z"/><path class="cls-6" d="M129.77,221.7a1.53,1.53,0,0,1-1.51-1.51V205a1.51,1.51,0,0,1,3,0v15.23a1.53,1.53,0,0,1-1.51,1.51Z"/><path class="cls-6" d="M143.88,221.7a1.5,1.5,0,0,1-1.51-1.51V204.91a1.46,1.46,0,0,1,.45-1.07,1.44,1.44,0,0,1,1.06-.43h3.87a9.12,9.12,0,1,1,0,18.25l-3.84.05Zm1.52-3,2.34,0a6.1,6.1,0,0,0,0-12.21h-2.35Z"/><path class="cls-6" d="M172.26,218.67a1.42,1.42,0,0,1,1.06.45,1.46,1.46,0,0,1,.45,1.07,1.53,1.53,0,0,1-1.51,1.51H163a1.53,1.53,0,0,1-1.51-1.51V204.88a1.44,1.44,0,0,1,.45-1.07,1.42,1.42,0,0,1,1.06-.45h0l9.23,0a1.46,1.46,0,0,1,1.07.45,1.48,1.48,0,0,1,.43,1.07,1.53,1.53,0,0,1-1.51,1.51h0l-7.71,0V211h5.57a1.48,1.48,0,0,1,1.07.43,1.51,1.51,0,0,1,0,2.15,1.48,1.48,0,0,1-1.07.43h-5.57v4.63Z"/><path class="cls-6" d="M190,221.13h0l-9.18-11.81v10.89a1.51,1.51,0,0,1-3,0V204.9a1.5,1.5,0,0,1,1-1.42,1.42,1.42,0,0,1,.92,0,1.47,1.47,0,0,1,.75.52l9.18,11.82V204.9a1.44,1.44,0,0,1,.43-1.06,1.46,1.46,0,0,1,1.07-.45,1.53,1.53,0,0,1,1.51,1.51v15.32a.4.4,0,0,1,0,.08v.06a.4.4,0,0,1,0,.08.19.19,0,0,1,0,.08v.06a.19.19,0,0,1,0,.08.19.19,0,0,1,0,.06l0,.08,0,.06,0,.06,0,.08,0,0-.05.08,0,.05-.05.05-.05.05-.05.05-.06.05h0l-.19.13h0l-.2.09h0l-.22.05h-.45l-.13,0h-.05l-.1,0-.05,0-.1,0-.05,0-.09,0-.05,0-.09-.06-.05,0-.11-.1h0l-.05-.05Z"/><path class="cls-6" d="M201.7,206.38h-3.79a1.46,1.46,0,0,1-1.07-.45,1.51,1.51,0,0,1,0-2.12,1.46,1.46,0,0,1,1.07-.45h10.61a1.51,1.51,0,0,1,0,3h-3.8v13.82a1.46,1.46,0,0,1-.45,1.07,1.51,1.51,0,0,1-2.12,0,1.46,1.46,0,0,1-.45-1.07Z"/><path class="cls-6" d="M214.87,221.7a1.53,1.53,0,0,1-1.51-1.51V205a1.51,1.51,0,0,1,3,0v15.23a1.53,1.53,0,0,1-1.51,1.51Z"/></g></g></svg>