<?xml version="1.0" encoding="UTF-8"?>
<!DOCTYPE svg PUBLIC "-//W3C//DTD SVG 1.1//EN" "http://www.w3.org/Graphics/SVG/1.1/DTD/svg11.dtd">
<!-- Creator: CorelDRAW X7 -->
<svg xmlns="http://www.w3.org/2000/svg" xml:space="preserve" width="100%" height="100%" version="1.1" style="shape-rendering:geometricPrecision; text-rendering:geometricPrecision; image-rendering:optimizeQuality; fill-rule:evenodd; clip-rule:evenodd"
viewBox="0 0 900000 900000"
 xmlns:xlink="http://www.w3.org/1999/xlink">
 <defs>
  <style type="text/css">
   <![CDATA[
    .fil1 {fill:#373736}
    .fil0 {fill:#FDC416}
   ]]>
  </style>
 </defs>
 <g id="Слой_x0020_1">
  <metadata id="CorelCorpID_0Corel-Layer"/>
  <g id="_788563264">
   <g>
    <path class="fil0" d="M590348 278425c-4144,-92401 -73067,-162448 -163527,-165542 -91302,-3085 -161096,78812 -163980,167993 -2935,91125 96976,165963 163718,168218 91321,3116 161112,-78802 163972,-167963 17,-980 -38,-1872 -183,-2706z"/>
    <g>
     <g>
      <path class="fil1" d="M452531 429632c-85975,2529 -151832,-72559 -154219,-154955 -2508,-86250 72337,-152317 154456,-154718 86000,-2523 151857,72568 154237,154959 -2615,86271 -68444,152199 -154474,154714zm248 -323766l0 0c-93720,-2882 -165760,78978 -168516,168801 -2884,94035 78720,166282 168254,169061 93761,2873 165795,-78969 168537,-168800 -2745,-94073 -74497,-166165 -168275,-169062z"/>
      <path class="fil1" d="M301151 139100c-5209,-5200 -10642,-9503 -16620,-13718 -3128,-2219 -7778,-593 -9598,2517 -2060,3515 -609,7431 2519,9639 5578,3929 8206,5975 13766,11517 6419,6413 16351,-3538 9933,-9955z"/>
      <path class="fil1" d="M326331 441309c-6356,8865 -8493,19407 -8630,30177 -103,9074 13928,9088 14039,6 106,-8502 1702,-16095 6711,-23075 5301,-7377 -6877,-14413 -12120,-7108z"/>
      <path class="fil1" d="M476942 465043c3194,12237 9475,23544 18570,32326 6528,6308 16460,-3645 9935,-9957 -7438,-7176 -12361,-16106 -14969,-26096 -2277,-8785 -15830,-5058 -13536,3741l0 -14z"/>
      <path class="fil1" d="M636385 395867c-5378,-4477 -11314,-8022 -17132,-11877 -7580,-5014 -14635,7183 -7091,12154 4786,3173 9857,5986 14297,9677 2936,2445 7011,2918 9919,7 2525,-2520 2966,-7491 7,-9961z"/>
      <path class="fil1" d="M677371 280987c-10735,-157 -20243,-169 -32432,-180 -9129,-12 -9140,14065 -10,14072 12189,10 21573,40 32280,196 9089,126 9181,-13947 162,-14088z"/>
      <path class="fil1" d="M482086 84795c-1560,-12729 -513,-24673 4048,-36718 3228,-8500 -10346,-12150 -13532,-3744 -4948,13057 -6253,26616 -4555,40452 1096,8894 15152,9007 14039,10z"/>
      <path class="fil1" d="M244334 287313c-5646,-229 -10714,1256 -15975,2979 -8561,2827 -4909,16429 3704,13596 4141,-1364 7834,-2672 12261,-2484 9050,367 9022,-13717 10,-14091z"/>
      <path class="fil1" d="M601169 154987c11586,-8406 23913,-15771 36608,-22277 8072,-4128 985,-16284 -7056,-12161 -12723,6507 -25049,13866 -36621,22272 -7262,5266 -289,17499 7069,12166z"/>
     </g>
     <path class="fil1" d="M499439 229321c10,-15281 -23427,-13579 -21549,751 541,4074 4014,10841 14483,7701 4255,-1283 7059,-4268 7066,-8452z"/>
     <path class="fil1" d="M431348 235956c10,-12225 -21587,-12241 -21597,-16 0,0 320,3726 2359,5879 3628,3818 12144,5307 16774,595 1675,-1728 2460,-3389 2464,-6458z"/>
     <path class="fil1" d="M413481 293420c29074,26846 71902,17792 91577,-16387 4537,-7877 -7583,-14974 -12116,-7112 -14863,25817 -47060,34293 -69525,13550 -6639,-6138 -16609,3787 -9939,9949l3 0z"/>
    </g>
   </g>
   <g>
    <path class="fil1" d="M49834 843094c0,376 -17,696 -24,972 -27,275 -69,503 -120,685 -52,190 -128,355 -207,507 -69,141 -248,344 -524,620 -272,269 -730,606 -1385,1020 -661,406 -1402,761 -2225,1085 -803,313 -1699,572 -2667,768 -968,200 -1956,289 -2990,289 -2105,0 -3989,-351 -5643,-1061 -1633,-689 -3004,-1733 -4103,-3066 -1103,-1357 -1940,-3011 -2515,-4981 -589,-1957 -872,-4231 -872,-6787 4,-2925 358,-5430 1072,-7517 713,-2102 1684,-3817 2918,-5154 1240,-1330 2694,-2322 4361,-2980 1685,-645 3497,-961 5433,-961 944,0 1847,86 2742,265 882,176 1702,410 2446,699 731,286 1396,607 1985,985 575,373 995,693 1254,952 268,272 448,468 527,626 110,159 203,338 262,551 62,211 117,438 131,700 24,272 41,603 41,985 0,865 -121,1458 -313,1802 -193,338 -438,507 -714,507 -330,0 -699,-183 -1137,-548 -416,-355 -964,-765 -1612,-1206 -661,-434 -1454,-834 -2384,-1199 -923,-352 -2026,-544 -3300,-544 -2598,0 -4586,1006 -5991,3011 -1378,1998 -2085,4906 -2088,8740 0,1898 172,3572 544,5009 366,1437 889,2636 1585,3607 699,965 1557,1678 2573,2157 1020,472 2178,702 3501,706 1244,0 2325,-193 3283,-589 937,-393 1754,-827 2429,-1296 699,-468 1271,-899 1750,-1281 461,-396 837,-579 1089,-579 168,0 292,45 403,145 113,86 196,234 272,434 76,213 134,475 172,792 17,314 41,689 41,1130z"/>
    <path class="fil1" d="M77715 819626c0,431 -27,807 -79,1110 -41,310 -110,564 -213,764 -90,200 -214,335 -338,441 -138,100 -303,152 -506,152l-8858 -7 -20 25525c0,182 -35,341 -124,458 -90,117 -238,220 -424,296 -193,104 -476,166 -824,207 -351,41 -799,55 -1343,55 -524,0 -965,-14 -1302,-55 -355,-48 -634,-110 -848,-207 -200,-82 -344,-179 -427,-296 -66,-124 -110,-282 -110,-462l20 -25528 -8857 -7c-179,0 -324,-48 -486,-151 -127,-104 -258,-238 -334,-438 -93,-200 -148,-458 -213,-782 -59,-317 -80,-696 -80,-1130 0,-393 21,-747 83,-1047 65,-314 134,-572 238,-786 96,-200 213,-351 334,-454 138,-97 282,-145 461,-145l23117 21c179,0 341,48 486,144 145,104 258,252 348,455 79,214 158,475 213,786 49,330 90,675 86,1081z"/>
    <path class="fil1" d="M96477 848462l-3947 10880c-132,368 -462,626 -1003,819 -527,180 -1344,269 -2443,269 -561,-3 -1033,-28 -1381,-79 -352,-59 -610,-135 -803,-279 -179,-131 -282,-317 -303,-524 -21,-227 38,-489 162,-789l4093 -10304c-214,-83 -393,-227 -572,-434 -169,-193 -296,-400 -351,-620l-10515 -28305c-176,-455 -265,-820 -265,-1086 0,-265 89,-475 269,-620 168,-158 461,-258 861,-313 379,-52 902,-76 1560,-76 665,0 1175,17 1550,45 369,31 665,90 882,176 221,96 373,220 476,386 96,158 196,389 310,675l8410 23764 92 0 8165 -23888c125,-424 272,-686 469,-799 189,-125 472,-207 837,-269 372,-49 903,-76 1609,-73 606,0 1113,24 1505,76 400,59 679,162 868,321 193,144 283,354 283,620 0,265 -58,585 -203,985l-10615 29442z"/>
    <path class="fil1" d="M131569 821673l-9367 -7c-451,3569 -923,6590 -1426,9054 -490,2449 -1010,4513 -1564,6211 -569,1695 -1151,3056 -1771,4124 -610,1061 -1251,2008 -1898,2818l16009 10 17 -22210zm-20398 36742l0 0c0,148 -35,286 -104,375 -61,93 -199,183 -372,245 -200,62 -427,120 -709,155 -283,58 -641,76 -1054,76 -459,0 -834,-21 -1117,-76 -310,-35 -551,-97 -737,-159 -179,-62 -310,-151 -386,-244 -82,-93 -113,-228 -113,-376l10 -13201c0,-552 89,-906 258,-1086 169,-169 503,-258 1013,-258l2102 0c813,-985 1571,-2122 2273,-3390 693,-1268 1334,-2866 1943,-4785 621,-1916 1168,-4220 1671,-6922 500,-2697 972,-5928 1382,-9673 58,-303 103,-589 182,-834 79,-258 183,-458 335,-603 130,-141 306,-251 496,-344 210,-86 427,-121 696,-121l16398 10c527,4 937,166 1240,469 283,327 438,816 438,1471l-21 24743 4110 3c448,0 779,90 968,262 204,179 297,537 297,1089l-11 13198c0,151 -24,282 -93,375 -58,93 -203,183 -379,245 -182,62 -434,121 -747,158 -304,55 -665,76 -1086,76 -427,-3 -792,-21 -1064,-79 -296,-38 -531,-93 -710,-155 -189,-62 -327,-155 -403,-248 -79,-90 -103,-228 -103,-376l7 -9939 -26603 -20 -7 9939z"/>
    <path class="fil1" d="M153752 847676c0,186 -41,341 -134,462 -93,117 -224,217 -427,296 -200,97 -462,165 -813,207 -359,41 -800,55 -1347,55 -521,0 -958,-14 -1299,-58 -359,-45 -651,-107 -841,-207 -213,-80 -361,-183 -448,-300 -69,-117 -100,-276 -100,-458l25 -29611c0,-151 31,-296 99,-427 86,-131 235,-227 448,-324 190,-89 483,-151 841,-200 341,-38 778,-58 1299,-55 548,0 989,21 1347,55 351,52 613,111 813,204 203,93 334,196 427,324 93,134 134,279 134,430l-24 29607zm651 -39611l0 0c0,1271 -238,2146 -720,2597 -475,465 -1371,689 -2659,689 -1265,0 -2140,-224 -2612,-682 -465,-441 -706,-1292 -706,-2542 0,-1268 245,-2143 734,-2601 486,-452 1371,-686 2659,-683 1268,0 2137,221 2612,676 458,451 692,1291 692,2546z"/>
    <path class="fil1" d="M180169 821252c-778,-110 -1591,-179 -2418,-220 -841,-35 -1595,-48 -2291,-48 -1499,-4 -2736,127 -3724,368 -1007,252 -1792,624 -2398,1092 -607,479 -1027,1020 -1275,1657 -248,634 -389,1334 -389,2112 0,786 151,1496 437,2119 296,617 745,1147 1344,1582 606,433 1371,744 2318,985 944,237 2257,348 3938,351l4451 0 7 -9998zm5399 26452l0 0c0,179 -45,337 -110,468 -80,131 -218,234 -417,314 -186,79 -469,138 -814,179 -361,41 -823,55 -1371,55 -530,0 -978,-14 -1329,-58 -348,-49 -627,-104 -845,-180 -189,-82 -337,-182 -410,-316 -82,-128 -123,-283 -123,-469l10 -12458 -3101 -3c-1374,0 -2418,107 -3173,317 -754,224 -1440,589 -2039,1106 -600,516 -1151,1171 -1623,1971 -486,799 -927,1784 -1381,2948l-2398 5795c-110,276 -234,506 -369,686 -127,162 -306,306 -565,410 -251,96 -572,172 -954,193 -372,41 -854,41 -1426,41 -414,0 -779,0 -1099,-28 -314,-17 -579,-55 -793,-117 -230,-55 -396,-144 -496,-262 -113,-124 -172,-268 -172,-441 0,-151 69,-399 179,-744 128,-330 362,-937 751,-1791l2364 -5560c620,-1399 1374,-2612 2273,-3625 896,-1026 1919,-1774 3080,-2260 -2129,-392 -3810,-1247 -5074,-2549 -1254,-1309 -1881,-3039 -1878,-5192 0,-1423 306,-2711 885,-3851 600,-1161 1471,-2133 2619,-2939 1150,-799 2559,-1399 4234,-1836 1667,-421 3579,-645 5753,-645 530,0 1137,21 1823,42 685,20 1391,48 2115,103 744,41 1443,96 2153,145 682,62 1282,100 1785,148 654,65 1143,310 1464,723 341,417 496,938 496,1554l-24 28126z"/>
    <path class="fil1" d="M235725 847742c0,182 -52,341 -128,458 -93,117 -237,220 -434,296 -182,103 -458,166 -816,207 -345,41 -786,55 -1309,55 -538,0 -999,-14 -1351,-55 -358,-48 -627,-110 -834,-207 -220,-82 -351,-179 -447,-296 -83,-124 -124,-282 -124,-462l20 -25859 -14080 -10 -21 25856c0,185 -44,341 -120,461 -93,117 -238,217 -451,296 -211,100 -486,166 -834,207 -348,41 -789,55 -1306,55 -537,0 -968,-14 -1316,-58 -358,-45 -630,-107 -844,-207 -200,-79 -341,-179 -420,-296 -66,-121 -121,-279 -121,-458l24 -28526c0,-651 145,-1144 448,-1468 296,-303 699,-468 1227,-468l21621 21c517,0 930,165 1216,468 283,324 424,813 424,1468l-24 28522z"/>
    <path class="fil1" d="M267620 833003c0,-1608 -138,-3114 -441,-4544 -293,-1433 -789,-2683 -1472,-3755 -696,-1075 -1609,-1915 -2786,-2549 -1161,-627 -2616,-944 -4362,-944 -1619,0 -3004,282 -4162,861 -1147,565 -2112,1365 -2863,2408 -754,1048 -1309,2278 -1667,3697 -362,1419 -541,2990 -541,4678 -3,1623 131,3143 434,4575 300,1420 785,2660 1481,3728 703,1061 1627,1916 2805,2549 1174,610 2629,924 4368,924 1592,3 2960,-272 4134,-841 1168,-579 2129,-1367 2884,-2397 754,-1038 1302,-2257 1657,-3694 351,-1412 527,-2997 531,-4696zm5608 -361l0 0c-3,2418 -324,4637 -961,6670 -630,2015 -1578,3775 -2839,5240 -1240,1471 -2828,2621 -4720,3434 -1894,813 -4096,1227 -6583,1227 -2425,-4 -4537,-366 -6339,-1089 -1809,-730 -3314,-1777 -4520,-3159 -1185,-1388 -2088,-3070 -2684,-5040 -582,-1978 -885,-4210 -885,-6708 3,-2422 317,-4647 947,-6666 634,-2033 1575,-3776 2815,-5247 1275,-1474 2849,-2608 4723,-3421 1885,-806 4076,-1213 6594,-1209 2429,3 4544,362 6339,1085 1812,730 3304,1785 4510,3163 1212,1388 2101,3066 2711,5047 592,1960 892,4193 892,6673z"/>
    <path class="fil1" d="M301629 839615c0,1481 -292,2825 -892,4003 -585,1192 -1443,2205 -2546,3049 -1099,841 -2449,1474 -4055,1919 -1591,434 -3393,651 -5432,647 -1137,0 -2205,-86 -3198,-241 -1012,-175 -1915,-379 -2735,-634 -810,-241 -1495,-523 -2060,-820 -548,-296 -958,-551 -1182,-744 -224,-199 -389,-379 -520,-544 -96,-158 -176,-344 -217,-541 -45,-196 -79,-437 -114,-720 -24,-275 -51,-627 -51,-1026 0,-352 27,-641 68,-876 52,-254 97,-451 173,-603 58,-162 124,-279 231,-340 89,-83 206,-114 351,-114 255,0 572,148 1006,441 417,306 1002,623 1729,988 703,366 1602,703 2663,1007 1055,313 2367,461 3914,461 1099,0 2081,-117 2963,-344 868,-235 1616,-573 2226,-1024 609,-444 1088,-1002 1429,-1691 345,-675 510,-1468 510,-2364 0,-771 -165,-1460 -483,-2077 -337,-617 -857,-1119 -1550,-1560 -699,-428 -1602,-758 -2690,-1014 -1089,-234 -2408,-358 -3969,-358l-3273 0c-224,0 -393,-34 -534,-124 -124,-69 -244,-193 -351,-361 -86,-169 -155,-376 -190,-662 -31,-265 -44,-596 -44,-954 0,-351 24,-675 68,-934 49,-255 114,-458 193,-617 90,-165 204,-275 328,-354 141,-73 303,-100 492,-100l3184 0c1384,0 2566,-124 3555,-331 1003,-220 1836,-544 2504,-975 665,-427 1161,-954 1475,-1567 320,-634 472,-1344 472,-2164 0,-723 -145,-1357 -448,-1902 -303,-558 -723,-1019 -1226,-1371 -524,-365 -1148,-634 -1892,-827 -747,-179 -1550,-289 -2394,-289 -1340,0 -2536,159 -3556,469 -1047,303 -1949,640 -2700,992 -751,379 -1365,699 -1847,992 -482,303 -827,441 -1020,441 -103,0 -220,-14 -306,-76 -114,-58 -183,-158 -266,-293 -79,-148 -130,-348 -169,-596 -30,-255 -51,-554 -51,-902 0,-641 51,-1151 145,-1516 93,-372 296,-689 558,-951 258,-269 720,-575 1364,-920 658,-355 1426,-672 2319,-944 882,-272 1853,-499 2886,-685 1041,-190 2098,-276 3204,-276 1592,0 3067,172 4393,510 1330,341 2477,854 3431,1550 944,689 1678,1550 2205,2573 527,1017 782,2209 779,3559 0,820 -128,1596 -393,2336 -255,720 -641,1395 -1123,2009 -496,616 -1106,1167 -1823,1647 -726,488 -1533,850 -2397,1119l-69 38c854,86 1702,327 2532,734 834,406 1571,937 2225,1584 648,655 1182,1420 1589,2305 403,879 602,1871 602,2953z"/>
    <path class="fil1" d="M335874 847862c0,152 -48,296 -131,427 -90,131 -228,235 -431,314 -196,79 -472,138 -816,179 -362,41 -799,55 -1316,55 -527,0 -962,-14 -1306,-58 -348,-49 -631,-104 -858,-180 -220,-82 -379,-182 -472,-316 -86,-128 -121,-276 -121,-428l14 -17043c0,-864 21,-1719 73,-2614 44,-889 93,-1771 155,-2619 -496,876 -1054,1740 -1657,2577 -596,855 -1206,1692 -1819,2522l-12534 17167c-169,183 -292,331 -417,458 -130,131 -282,231 -461,314 -183,79 -427,138 -703,162 -296,38 -637,41 -1054,41 -482,0 -865,-14 -1175,-55 -307,-48 -544,-103 -740,-179 -193,-83 -324,-186 -404,-317 -72,-131 -110,-276 -110,-427l24 -29676c0,-152 38,-307 110,-431 80,-145 228,-241 438,-334 193,-90 475,-145 837,-179 355,-28 775,-42 1271,-42 1058,0 1778,76 2171,235 396,179 586,413 586,757l-14 17137c0,857 -21,1701 -69,2556 -38,840 -97,1671 -162,2508 503,-837 1002,-1640 1533,-2453 510,-793 1065,-1578 1657,-2343l12698 -17394c125,-176 269,-341 414,-465 138,-131 317,-238 541,-314 193,-75 441,-134 723,-162 283,-27 662,-48 1124,-48 451,0 833,21 1157,48 317,31 565,90 751,179 193,90 324,190 393,335 83,124 124,279 124,454l-24 29652z"/>
    <path class="fil1" d="M366590 819854c0,427 -21,806 -65,1106 -35,313 -110,568 -214,768 -93,200 -214,331 -341,437 -131,100 -303,155 -493,155l-8857 -6 -21 25521c0,186 -44,341 -124,461 -99,118 -237,214 -427,297 -196,96 -479,165 -820,206 -351,42 -799,55 -1354,55 -513,0 -961,-13 -1316,-58 -337,-45 -616,-107 -826,-210 -207,-76 -355,-180 -435,-297 -72,-117 -110,-275 -110,-458l21 -25524 -8857 -7c-173,0 -328,-52 -472,-152 -142,-107 -266,-241 -352,-441 -76,-200 -152,-455 -200,-782 -69,-314 -93,-692 -89,-1126 0,-393 24,-751 93,-1051 48,-314 124,-569 224,-782 96,-204 213,-352 351,-455 121,-96 265,-145 448,-145l23127 21c183,0 327,45 479,141 141,104 251,252 348,458 72,214 151,476 203,783 62,334 79,678 79,1085z"/>
    <path class="fil1" d="M398196 847910c0,152 -49,297 -135,428 -93,131 -224,234 -427,313 -196,79 -468,138 -823,180 -348,44 -782,55 -1303,55 -520,0 -971,-14 -1316,-59 -351,-48 -634,-103 -854,-179 -217,-83 -372,-183 -458,-317 -86,-128 -128,-276 -128,-427l14 -17043c0,-865 14,-1719 66,-2615 41,-889 96,-1771 165,-2618 -506,875 -1054,1743 -1654,2577 -603,854 -1213,1691 -1822,2525l-12554 17163c-145,183 -289,331 -407,458 -117,131 -268,235 -468,314 -179,79 -403,138 -696,162 -279,38 -630,41 -1047,41 -483,0 -882,-14 -1182,-55 -307,-48 -551,-103 -741,-179 -186,-83 -313,-186 -399,-317 -63,-131 -97,-276 -97,-427l24 -29676c0,-152 35,-303 97,-427 86,-145 231,-245 434,-338 200,-89 489,-145 847,-179 345,-28 765,-41 1268,-41 1051,0 1771,75 2157,234 399,179 599,413 599,758l-14 17136c0,857 -24,1701 -72,2556 -41,840 -100,1671 -158,2508 499,-837 1002,-1640 1522,-2453 517,-793 1072,-1578 1654,-2343l12716 -17394c137,-176 269,-341 413,-465 131,-131 310,-238 524,-310 207,-76 448,-138 747,-166 279,-27 641,-48 1103,-48 451,4 840,21 1168,48 313,31 572,90 758,180 182,89 299,189 378,334 76,124 125,279 125,454l-24 29652z"/>
    <path class="fil1" d="M426938 839470c0,-882 -159,-1647 -462,-2308 -313,-676 -799,-1227 -1464,-1678 -665,-424 -1519,-761 -2546,-982 -1040,-220 -2280,-341 -3700,-341l-5267 -3 -7 10507c396,59 837,114 1285,152 448,27 909,62 1371,93 475,34 947,65 1419,86 469,28 896,34 1296,34 1415,0 2635,-123 3645,-375 1002,-252 1832,-617 2497,-1099 665,-489 1151,-1075 1468,-1757 303,-703 465,-1468 465,-2329zm-972 -13842l0 0c4,-731 -144,-1382 -396,-1947 -265,-575 -703,-1058 -1288,-1450 -610,-403 -1395,-689 -2339,-892 -948,-197 -2102,-300 -3463,-300 -1016,-4 -1964,24 -2821,76 -841,65 -1561,117 -2150,192l-7 9206 5505 7c2243,0 3973,-421 5158,-1268 1205,-841 1801,-2053 1801,-3624zm6498 13759l0 0c0,1551 -286,2929 -865,4148 -593,1227 -1481,2246 -2636,3073 -1167,806 -2597,1447 -4330,1861 -1729,434 -3741,647 -6043,647 -709,0 -1405,-17 -2094,-20 -675,-21 -1340,-35 -1964,-69 -648,-38 -1264,-83 -1898,-128 -617,-31 -1226,-93 -1843,-162 -868,-110 -1523,-399 -1929,-868 -424,-468 -631,-1178 -631,-2095l17 -25497c4,-906 210,-1595 631,-2077 375,-475 1002,-772 1832,-848 576,-68 1182,-123 1819,-165 641,-48 1310,-76 1985,-117 686,-31 1381,-62 2105,-76 720,-27 1450,-34 2194,-31 2129,4 3962,183 5519,527 1551,352 2836,869 3866,1544 1027,685 1788,1529 2284,2515 489,968 730,2115 730,3383 -3,1664 -441,3100 -1329,4285 -889,1185 -2199,2019 -3921,2529 2160,465 3796,1358 4875,2660 1095,1319 1629,2980 1626,4981z"/>
    <path class="fil1" d="M466290 847921c0,182 -41,341 -131,458 -89,117 -224,220 -430,296 -196,104 -472,166 -824,207 -341,41 -785,55 -1309,55 -551,0 -992,-14 -1343,-55 -345,-48 -617,-110 -820,-207 -190,-82 -338,-179 -427,-296 -80,-124 -125,-279 -125,-461l11 -12982 -15061 -10 -10 12978c0,186 -49,341 -142,461 -76,117 -213,217 -424,297 -185,99 -461,165 -806,206 -358,42 -802,55 -1354,55 -527,0 -961,-13 -1302,-58 -348,-45 -637,-107 -830,-207 -224,-79 -362,-179 -434,-296 -83,-121 -117,-279 -117,-458l24 -29611c0,-176 34,-331 117,-444 72,-118 210,-228 434,-335 193,-99 482,-158 830,-189 341,-28 775,-41 1302,-41 552,0 996,13 1354,41 345,35 621,93 806,193 211,107 349,217 425,334 92,114 141,265 141,445l-11 12043 15061 14 10 -12044c0,-179 45,-331 125,-448 89,-117 237,-227 427,-330 203,-104 475,-159 820,-193 351,-24 792,-42 1343,-42 524,0 968,18 1310,49 351,27 626,89 823,186 206,110 341,220 430,337 90,110 131,266 131,441l-24 29611z"/>
    <path class="fil1" d="M498181 833186c0,-1612 -148,-3114 -441,-4547 -289,-1433 -781,-2684 -1464,-3755 -689,-1075 -1598,-1916 -2780,-2546 -1171,-631 -2622,-948 -4371,-948 -1606,0 -2991,283 -4162,862 -1147,564 -2102,1364 -2860,2408 -747,1047 -1316,2280 -1667,3696 -358,1423 -558,2990 -558,4679 -4,1622 158,3141 465,4578 279,1416 768,2656 1478,3724 689,1065 1612,1916 2790,2550 1158,609 2618,923 4355,926 1591,0 2969,-275 4151,-844 1161,-578 2119,-1367 2880,-2398 748,-1036 1296,-2256 1657,-3692 352,-1413 524,-2995 527,-4693zm5616 -365l0 0c-3,2418 -313,4637 -968,6670 -627,2019 -1575,3775 -2835,5243 -1261,1468 -2843,2618 -4730,3432 -1892,813 -4083,1226 -6574,1226 -2425,-3 -4547,-365 -6359,-1085 -1785,-734 -3294,-1782 -4496,-3163 -1199,-1388 -2098,-3070 -2684,-5040 -586,-1977 -878,-4210 -875,-6708 0,-2422 310,-4647 941,-6666 609,-2033 1567,-3776 2818,-5243 1264,-1478 2825,-2612 4712,-3425 1885,-803 4076,-1209 6587,-1206 2429,0 4548,359 6360,1086 1798,727 3294,1781 4503,3159 1199,1388 2098,3069 2704,5047 593,1960 896,4192 896,6673z"/>
    <path class="fil1" d="M529391 819943c0,434 -14,813 -83,1116 -59,307 -141,565 -238,769 -103,186 -203,327 -327,430 -110,73 -269,121 -438,121l-11120 -10 -21 25590c0,186 -45,341 -134,461 -90,118 -235,218 -431,297 -190,100 -458,165 -816,206 -352,42 -793,56 -1341,56 -530,0 -957,-14 -1299,-59 -368,-45 -637,-107 -840,-207 -220,-79 -362,-179 -434,-296 -79,-121 -117,-279 -117,-458l24 -28525c0,-652 158,-1145 437,-1468 300,-303 720,-469 1227,-465l14869 10c169,0 327,48 437,145 125,103 224,255 328,455 96,213 179,471 238,761 68,293 82,661 79,1071z"/>
    <path class="fil1" d="M556083 833227c0,-1605 -165,-3114 -430,-4540 -310,-1433 -813,-2687 -1499,-3755 -662,-1079 -1599,-1923 -2766,-2550 -1172,-626 -2636,-944 -4379,-944 -1599,-3 -2983,279 -4155,862 -1157,561 -2102,1364 -2846,2404 -761,1048 -1326,2281 -1691,3700 -348,1420 -531,2991 -531,4675 -3,1623 141,3146 434,4579 290,1419 786,2660 1489,3724 699,1065 1622,1916 2770,2549 1185,610 2652,927 4399,927 1588,0 2959,-275 4134,-840 1168,-583 2129,-1372 2870,-2398 754,-1041 1323,-2260 1657,-3694 362,-1415 541,-2997 544,-4699zm5605 -358l0 0c-3,2412 -330,4634 -954,6670 -627,2012 -1574,3772 -2849,5236 -1247,1475 -2828,2619 -4733,3439 -1878,813 -4080,1226 -6556,1223 -2450,-4 -4562,-362 -6353,-1086 -1805,-733 -3315,-1781 -4503,-3162 -1220,-1388 -2105,-3066 -2687,-5044 -589,-1970 -875,-4203 -872,-6704 0,-2422 303,-4647 917,-6663 640,-2032 1564,-3782 2835,-5250 1250,-1475 2832,-2608 4723,-3421 1891,-803 4059,-1209 6584,-1209 2429,3 4523,361 6335,1088 1809,731 3311,1778 4506,3160 1199,1388 2102,3069 2722,5047 599,1963 885,4189 885,6676z"/>
    <path class="fil1" d="M603540 839608c3,-882 -149,-1647 -449,-2308 -310,-676 -823,-1227 -1460,-1678 -689,-424 -1523,-761 -2557,-982 -1060,-224 -2270,-341 -3703,-341l-5285 -4 -10 10508c438,55 871,114 1316,152 434,27 885,62 1371,93 482,34 944,65 1419,86 455,27 889,34 1296,34 1409,0 2646,-124 3617,-375 1006,-252 1840,-617 2529,-1099 637,-490 1154,-1075 1464,-1757 303,-703 452,-1468 452,-2329zm-965 -13842l0 0c3,-731 -141,-1382 -389,-1947 -279,-575 -717,-1058 -1296,-1450 -606,-404 -1392,-689 -2336,-893 -957,-196 -2101,-299 -3465,-299 -1020,-4 -1971,24 -2808,75 -872,66 -1582,118 -2188,193l-7 9205 5523 8c2253,0 3972,-421 5164,-1268 1196,-841 1802,-2054 1802,-3624zm6511 13759l0 0c0,1550 -286,2928 -899,4148 -579,1227 -1457,2246 -2632,3073 -1144,806 -2601,1447 -4313,1860 -1751,434 -3749,648 -6043,648 -706,-3 -1413,-17 -2102,-21 -668,-20 -1336,-34 -1970,-68 -617,-42 -1275,-83 -1895,-128 -599,-31 -1247,-93 -1854,-162 -854,-110 -1519,-399 -1912,-868 -416,-469 -644,-1178 -640,-2095l17 -25497c3,-906 210,-1595 596,-2077 444,-476 1044,-772 1884,-848 565,-69 1175,-124 1816,-165 641,-48 1316,-79 1998,-117 668,-31 1378,-62 2088,-76 709,-28 1447,-35 2205,-31 2101,3 3938,183 5505,527 1550,351 2835,868 3858,1543 1034,686 1789,1530 2292,2515 496,968 723,2116 723,3384 -3,1664 -434,3100 -1337,4285 -868,1185 -2174,2019 -3900,2529 2164,465 3790,1357 4875,2660 1079,1319 1643,2980 1640,4981z"/>
    <path class="fil1" d="M643286 848100c0,152 -49,300 -131,427 -97,135 -218,234 -438,314 -179,79 -451,138 -803,179 -355,45 -792,55 -1312,55 -531,0 -948,-14 -1296,-55 -375,-48 -640,-103 -878,-179 -207,-83 -369,-186 -462,-317 -96,-131 -120,-276 -120,-427l14 -17047c0,-861 23,-1715 68,-2615 45,-885 104,-1767 162,-2618 -499,878 -1054,1743 -1647,2581 -626,854 -1229,1688 -1836,2521l-12536 17164c-149,182 -297,331 -424,461 -100,131 -265,228 -451,310 -176,80 -424,138 -693,162 -293,38 -644,45 -1071,45 -472,0 -865,-14 -1182,-58 -293,-45 -541,-100 -730,-180 -190,-79 -317,-182 -393,-313 -69,-131 -104,-279 -104,-431l25 -29672c0,-155 34,-307 103,-431 76,-145 227,-245 417,-334 200,-90 506,-148 854,-179 331,-28 775,-45 1272,-42 1071,0 1781,76 2173,235 393,175 579,413 579,754l-14 17139c0,855 0,1702 -72,2553 -38,841 -96,1671 -135,2512 480,-841 996,-1640 1492,-2453 534,-796 1093,-1578 1682,-2343l12698 -17398c131,-175 279,-337 414,-461 134,-131 317,-241 541,-317 199,-73 447,-131 713,-162 292,-28 672,-45 1109,-45 475,0 871,21 1161,48 338,28 586,90 779,176 185,93 313,190 365,334 82,124 131,279 131,455l-24 29652z"/>
    <path class="fil1" d="M675700 847469c169,304 252,562 252,779 0,200 -104,365 -303,496 -197,142 -531,235 -948,293 -416,52 -978,65 -1653,65 -665,0 -1185,-6 -1554,-48 -403,-20 -692,-82 -920,-158 -238,-83 -417,-179 -548,-297 -117,-127 -192,-254 -289,-413l-7076 -11748 -7069 11734c-90,159 -200,290 -311,414 -130,120 -296,213 -530,296 -228,76 -520,138 -889,158 -383,42 -879,49 -1489,45 -626,0 -1147,-14 -1563,-65 -397,-62 -686,-155 -855,-296 -199,-131 -317,-297 -289,-496 27,-218 124,-476 313,-779l9206 -14442 -8682 -13918c-165,-314 -269,-565 -269,-768 -31,-217 83,-397 283,-534 203,-145 527,-235 947,-286 421,-38 1006,-55 1681,-55 627,0 1158,17 1550,44 373,35 662,90 889,149 214,65 376,162 479,261 117,110 210,238 297,397l6725 11024 6817 -11014c121,-135 190,-248 300,-362 104,-110 272,-200 458,-275 186,-76 434,-135 792,-166 331,-27 793,-45 1372,-41 647,0 1150,20 1571,55 393,55 709,131 923,251 176,124 258,293 245,510 -21,224 -138,493 -334,827l-8648 13743 9119 14620z"/>
    <path class="fil1" d="M703230 833345c0,-1613 -151,-3115 -444,-4548 -307,-1429 -782,-2680 -1447,-3751 -710,-1079 -1623,-1920 -2791,-2550 -1167,-627 -2656,-944 -4371,-947 -1620,0 -3012,282 -4179,864 -1144,562 -2085,1365 -2860,2409 -748,1047 -1288,2280 -1667,3693 -369,1422 -548,2993 -548,4678 0,1626 141,3142 437,4579 314,1419 806,2659 1499,3724 710,1064 1626,1915 2784,2549 1174,613 2632,927 4358,927 1612,3 2983,-272 4158,-844 1185,-579 2126,-1365 2873,-2398 755,-1033 1323,-2253 1671,-3690 358,-1416 527,-2997 527,-4695zm5609 -362l0 0c0,2415 -317,4633 -944,6670 -648,2015 -1592,3772 -2856,5239 -1261,1472 -2822,2619 -4723,3432 -1899,813 -4083,1227 -6580,1227 -2429,0 -4527,-362 -6333,-1086 -1801,-734 -3324,-1781 -4506,-3159 -1233,-1392 -2105,-3073 -2708,-5044 -579,-1974 -871,-4206 -868,-6704 0,-2425 314,-4651 937,-6666 634,-2036 1564,-3779 2818,-5247 1275,-1475 2849,-2611 4717,-3424 1871,-803 4089,-1210 6583,-1206 2446,0 4548,358 6360,1085 1798,727 3297,1781 4499,3159 1206,1392 2105,3070 2708,5051 603,1960 896,4189 896,6673z"/>
    <path class="fil1" d="M735504 839711c3,-882 -152,-1647 -469,-2308 -272,-675 -796,-1227 -1440,-1681 -661,-421 -1516,-758 -2583,-979 -993,-224 -2254,-341 -3666,-344l-5295 0 -11 10508c410,55 872,110 1310,151 423,27 899,62 1381,90 461,34 937,68 1406,89 475,28 902,31 1288,31 1433,4 2635,-120 3655,-372 1013,-252 1847,-617 2508,-1099 648,-489 1172,-1075 1444,-1757 317,-703 472,-1468 472,-2329zm-972 -13846l0 0c0,-727 -138,-1378 -410,-1946 -244,-576 -682,-1054 -1268,-1447 -595,-403 -1395,-689 -2332,-893 -951,-196 -2108,-299 -3465,-303 -1041,0 -1978,24 -2839,80 -827,65 -1551,117 -2157,193l-7 9205 5526 7c2246,0 3962,-424 5168,-1268 1185,-841 1781,-2053 1784,-3628zm6525 13764l0 0c0,1550 -293,2928 -895,4147 -586,1227 -1472,2247 -2636,3073 -1168,807 -2608,1447 -4337,1861 -1709,434 -3728,648 -6022,644 -727,0 -1437,-14 -2109,-21 -689,-17 -1333,-31 -1960,-69 -651,-37 -1275,-79 -1898,-124 -603,-34 -1220,-93 -1850,-161 -858,-111 -1520,-400 -1940,-869 -396,-468 -596,-1178 -596,-2094l21 -25497c0,-907 199,-1596 599,-2078 386,-475 1017,-771 1864,-847 572,-69 1171,-124 1812,-166 641,-48 1303,-79 1978,-117 689,-31 1371,-62 2101,-79 738,-24 1454,-31 2191,-31 2122,3 3976,186 5519,530 1537,352 2836,869 3873,1544 1026,686 1777,1526 2280,2515 483,968 744,2115 744,3383 -3,1664 -465,3100 -1354,4282 -885,1189 -2197,2022 -3916,2532 2180,465 3810,1354 4884,2660 1106,1316 1651,2980 1647,4982z"/>
    <path class="fil1" d="M765848 834668l-4630 0c-1488,-4 -2777,124 -3859,378 -1109,245 -2001,610 -2728,1117 -710,503 -1254,1075 -1588,1771 -352,702 -500,1495 -500,2384 0,1532 479,2763 1454,3672 951,902 2308,1371 4062,1371 1419,3 2749,-365 3958,-1085 1220,-720 2491,-1826 3824,-3314l7 -6294zm5382 13532l0 0c0,258 -97,462 -269,592 -186,125 -421,228 -731,293 -293,66 -730,93 -1343,93 -558,0 -1009,-27 -1347,-96 -335,-66 -583,-172 -741,-296 -152,-131 -241,-331 -241,-589l3 -2960c-1288,1378 -2732,2449 -4316,3214 -1606,762 -3266,1151 -5023,1148 -1568,0 -2963,-214 -4234,-600 -1251,-420 -2312,-1009 -3204,-1770 -872,-765 -1582,-1709 -2057,-2829 -475,-1120 -751,-2398 -751,-3821 3,-1670 362,-3121 1023,-4341 693,-1229 1650,-2252 2922,-3059 1291,-820 2835,-1419 4668,-1825 1839,-400 3899,-597 6194,-593l4065 0 4 -2315c0,-1134 -107,-2147 -362,-3025 -224,-865 -620,-1606 -1165,-2177 -537,-596 -1219,-1031 -2080,-1323 -855,-300 -1895,-452 -3149,-452 -1330,-3 -2522,155 -3576,469 -1068,327 -2005,675 -2794,1058 -796,385 -1475,733 -2012,1047 -531,320 -934,482 -1182,479 -193,0 -337,-48 -482,-121 -121,-103 -227,-227 -331,-413 -107,-173 -165,-393 -214,-662 -55,-282 -55,-578 -55,-899 0,-561 21,-989 107,-1305 76,-311 269,-628 565,-910 290,-276 782,-617 1516,-1006 724,-379 1564,-727 2484,-1054 961,-300 1984,-572 3108,-779 1116,-213 2225,-310 3383,-310 2122,4 3913,248 5388,727 1498,489 2708,1192 3600,2132 944,927 1615,2095 2022,3473 414,1378 627,2980 624,4830l-17 19975z"/>
    <path class="fil1" d="M807065 848186c0,183 -69,338 -158,462 -104,117 -221,213 -407,296 -213,96 -482,166 -858,207 -334,41 -751,55 -1288,55 -541,0 -1003,-14 -1354,-59 -338,-48 -606,-107 -820,-210 -179,-76 -337,-179 -413,-296 -83,-117 -145,-276 -145,-458l14 -12978 -15055 -14 -7 12981c0,179 -48,338 -131,458 -83,118 -220,217 -407,297 -220,100 -489,165 -840,207 -358,41 -786,55 -1361,55 -493,0 -954,-14 -1306,-59 -358,-48 -606,-107 -840,-207 -179,-79 -324,-179 -393,-296 -97,-120 -117,-276 -117,-461l24 -29608c0,-179 21,-330 114,-444 69,-117 213,-227 393,-334 241,-100 489,-159 847,-190 351,-24 813,-45 1302,-45 579,0 1006,21 1364,49 352,31 620,89 834,189 190,107 324,217 407,334 86,114 130,269 130,445l-6 12047 15048 10 10 -12047c0,-176 62,-331 145,-441 76,-117 234,-227 417,-338 213,-96 482,-158 820,-185 351,-28 813,-45 1350,-45 538,0 958,17 1289,45 379,34 647,89 854,193 186,103 307,213 410,330 90,117 158,269 158,448l-24 29607z"/>
    <path class="fil1" d="M842956 848214c0,186 -48,341 -124,461 -89,117 -220,217 -434,297 -193,96 -461,165 -813,206 -365,42 -778,55 -1323,55 -537,0 -971,-13 -1347,-58 -341,-45 -606,-107 -809,-207 -193,-79 -338,-182 -428,-299 -75,-118 -144,-276 -144,-459l7 -12977 -15021 -14 -14 12981c0,179 -55,338 -138,458 -82,117 -234,217 -427,296 -200,100 -482,166 -809,207 -383,45 -810,55 -1354,55 -524,0 -972,-14 -1316,-58 -358,-48 -645,-107 -827,-207 -214,-79 -358,-179 -441,-296 -83,-121 -124,-276 -124,-462l24 -29607c0,-179 38,-331 124,-445 79,-117 224,-227 438,-334 185,-100 475,-158 833,-186 345,-27 792,-48 1316,-48 545,0 972,21 1351,48 330,31 613,90 813,190 189,107 338,217 424,334 82,113 137,269 137,444l-10 12048 15028 10 6 -12047c0,-176 69,-331 145,-441 93,-118 238,-228 427,-334 207,-100 476,-159 813,-190 379,-27 813,-45 1351,-41 544,0 958,14 1323,41 351,35 620,90 813,193 207,107 341,217 427,334 79,114 127,265 127,445l-24 29607z"/>
    <path class="fil1" d="M869401 821790c-758,-110 -1578,-179 -2405,-221 -820,-34 -1585,-48 -2294,-48 -1488,-3 -2743,128 -3707,369 -1034,251 -1819,623 -2408,1092 -600,479 -1044,1020 -1295,1657 -249,634 -369,1333 -369,2112 -4,785 165,1495 434,2119 289,616 741,1147 1336,1581 621,434 1372,744 2326,985 933,238 2253,348 3945,351l4430 0 7 -9997zm5429 26451l0 0c0,179 -62,338 -131,469 -82,131 -206,234 -413,313 -190,79 -462,138 -830,179 -338,42 -789,56 -1354,56 -531,0 -968,-18 -1333,-59 -341,-48 -620,-103 -824,-179 -206,-83 -351,-183 -427,-317 -83,-128 -138,-283 -138,-469l10 -12457 -3093 -4c-1361,0 -2398,107 -3177,317 -754,224 -1433,589 -2025,1106 -620,517 -1144,1171 -1616,1971 -475,799 -965,1785 -1392,2949l-2397 5794c-118,273 -228,507 -380,686 -110,162 -310,307 -558,410 -248,93 -589,172 -937,193 -420,38 -847,41 -1440,41 -413,0 -778,0 -1106,-27 -286,-17 -578,-55 -796,-117 -237,-56 -379,-145 -489,-262 -103,-124 -172,-269 -172,-441 0,-152 69,-400 193,-744 100,-331 362,-937 754,-1792l2340 -5560c609,-1399 1381,-2611 2267,-3624 902,-1027 1942,-1775 3076,-2261 -2108,-392 -3796,-1247 -5050,-2552 -1251,-1306 -1875,-3035 -1871,-5189 0,-1422 289,-2711 875,-3851 606,-1161 1471,-2133 2615,-2939 1147,-799 2535,-1399 4230,-1836 1671,-420 3580,-644 5750,-644 524,0 1130,20 1819,41 710,21 1413,48 2115,103 759,42 1468,97 2150,145 696,62 1275,100 1799,148 661,66 1147,310 1484,724 307,416 497,933 497,1553l-25 28126z"/>
    <path class="fil1" d="M254576 699971c-1309,8434 -3607,16116 -6959,23062 -3334,6942 -7665,12822 -12981,17639 -5333,4823 -11782,7861 -19351,9157 -7176,1136 -13739,-145 -19713,-3886 -5950,-3721 -11148,-8965 -15554,-15731 -4427,-6752 -7935,-14510 -10556,-23261 -2632,-8737 -4196,-17567 -4699,-26431 -510,-8495 51,-16881 1653,-25184 1613,-8295 4155,-15747 7614,-22372 3473,-6611 7862,-12044 13191,-16288 5313,-4234 11517,-6553 18566,-6935 7562,-507 14290,981 20195,4461 5891,3469 10952,8241 15179,14291 4220,6049 7548,13097 9987,21132 2433,8037 3935,16336 4496,24880 572,8561 204,17057 -1068,25466zm13020 -64616l0 0c-3639,-9715 -8641,-18077 -14983,-25087 -6343,-7014 -14098,-12234 -23262,-15648 -9160,-3417 -19713,-4169 -31629,-2249 -10518,1674 -19300,5446 -26365,11358 -7056,5919 -12596,13150 -16647,21694 -4045,8564 -6687,18014 -7907,28356 -1229,10356 -1212,20812 83,31358 1388,11840 4262,23227 8606,34154 4351,10945 9829,20361 16423,28281 6604,7914 14156,13773 22686,17574 8526,3799 17659,4354 27405,1660 9616,-2563 17929,-7255 24922,-14063 6987,-6814 12702,-14879 17129,-24212 4434,-9309 7521,-19375 9264,-30172 1743,-10811 2136,-21580 1185,-32319 -975,-10738 -3259,-20970 -6910,-30685z"/>
    <path class="fil1" d="M452027 664831c-1608,-12041 -3926,-22875 -6996,-32518 -3062,-9650 -7083,-17636 -12002,-23940 -4930,-6291 -10993,-10101 -18163,-11400 -3851,-644 -7799,-31 -11827,1836 -4051,1861 -7834,4334 -11351,7414 -3545,3087 -6680,6425 -9447,10029 -2756,3593 -4713,6811 -5873,9643 -259,-4761 -1041,-9230 -2388,-13412 -1333,-4193 -3011,-7851 -4989,-11010 -1987,-3149 -4158,-5716 -6542,-7721 -2363,-1988 -4771,-3238 -7200,-3762 -5647,-1161 -10811,-882 -15479,861 -4695,1733 -8857,4396 -12533,7993 -3638,3597 -6825,7875 -9516,12830 -2690,4940 -4881,10056 -6545,15327l2139 -36667 -20774 383 4655 186759 20780 -3456c-244,-8365 -534,-18190 -840,-29518 -310,-11320 -400,-23088 -258,-35308 137,-12213 620,-24309 1474,-36267 823,-11961 2322,-22772 4444,-32415 2112,-9649 4951,-17580 8489,-23816 3531,-6232 8103,-9673 13756,-10314 4090,-524 7459,96 10091,1843 2622,1736 4644,4151 6060,7231 1405,3087 2370,6635 2863,10618 516,3982 771,7979 771,11968 -3,3979 -172,7779 -492,11383 -327,3597 -617,6490 -865,8674l14411 4069c2439,-10042 5167,-18262 8196,-24691 3014,-6439 6022,-11506 9060,-15234 3001,-3741 5836,-6294 8458,-7717 2629,-1406 4709,-2050 6253,-1915 4489,255 8620,3569 12402,9935 3783,6373 6821,16220 9106,29535 2297,13308 3662,30258 4096,50839 444,20574 -379,45145 -2457,73691l23085 -1523c127,-10673 196,-22310 207,-34923 7,-12599 -304,-25301 -930,-38106 -617,-12788 -1720,-25204 -3329,-37228z"/>
    <path class="fil1" d="M106451 725520c-2567,5078 -6556,9774 -11941,14077 -5388,4310 -12154,8034 -20298,11172 -8138,3149 -17522,5364 -28185,6639l-2804 -82203c7948,537 15727,1443 23362,2731 7613,1296 14510,3225 20656,5802 6167,2580 11266,6029 15286,10335 4041,4314 6384,9684 7011,16120 513,5143 -510,10256 -3087,15327zm-65877 -123038l0 0c3976,-1419 8527,-2763 13656,-4045 5126,-1281 10391,-1994 15782,-2111 7700,-121 14228,1202 19613,3972 5385,2766 9033,6215 10952,10328 1926,4121 1760,8661 -489,13608 -2246,4951 -7211,9605 -14917,13977 -6160,3848 -12992,7290 -20488,10297 -7511,3025 -14914,5299 -22221,6839l-1888 -52865zm70428 76550l0 0c-3001,-2653 -6656,-5058 -10948,-7242 -4304,-2194 -9326,-4061 -15094,-5601 -5770,-1558 -12381,-2519 -19816,-2915 4879,-1413 9815,-3149 14832,-5209 4991,-2046 9732,-4410 14211,-7124 6821,-4238 12009,-8896 15613,-13967 3579,-5078 5801,-10184 6638,-15331 838,-5153 383,-10125 -1340,-14958 -1719,-4820 -4616,-9102 -8644,-12840 -4047,-3728 -9102,-6659 -15186,-8795 -6090,-2109 -12977,-3052 -20673,-2808 -4741,127 -11600,541 -16737,1247 -5136,700 -7741,1630 -17694,2787l0 -3094 -11534 373 2153 188491 19324 803 55 -2519c13215,-1539 24977,-4089 35040,-7686 10056,-3582 18510,-8054 25166,-13387 6684,-5333 11748,-11431 15152,-18308 3393,-6893 5116,-14386 5119,-22482 -885,-7972 -3638,-15110 -8247,-21422 -1933,-2701 -4372,-5374 -7390,-8013z"/>
    <path class="fil1" d="M564561 725878c-2556,5079 -6535,9774 -11916,14077 -5381,4307 -12165,8034 -20302,11169 -8147,3149 -17539,5368 -28191,6642l-2822 -82207c7955,541 15744,1444 23382,2736 7611,1291 14511,3221 20647,5801 6170,2577 11251,6029 15299,10336 4017,4313 6363,9680 6997,16116 514,5147 -513,10259 -3094,15330zm-65859 -123038l0 0c3968,-1419 8526,-2763 13649,-4048 5137,-1281 10401,-1991 15775,-2112 7693,-117 14225,1206 19641,3976 5385,2766 9019,6212 10934,10329 1905,4120 1758,8657 -496,13608 -2259,4947 -7213,9604 -14910,13973 -6153,3851 -12995,7290 -20505,10301 -7483,3021 -14897,5298 -22214,6838l-1874 -52865zm70431 76550l0 0c-3031,-2653 -6670,-5057 -10962,-7241 -4313,-2198 -9333,-4062 -15093,-5602 -5770,-1561 -12378,-2522 -19816,-2918 4874,-1409 9815,-3145 14838,-5206 4988,-2046 9732,-4409 14228,-7124 6808,-4238 11989,-8895 15589,-13970 3604,-5078 5791,-10184 6659,-15327 807,-5154 352,-10129 -1343,-14959 -1736,-4823 -4623,-9102 -8647,-12840 -4038,-3731 -9120,-6659 -15186,-8798 -6088,-2105 -12999,-3053 -20685,-2805 -4740,128 -11551,541 -16681,1244 -5140,703 -7696,1633 -17659,2787l3 -3090 -11579 372 2133 188491 19313 803 51 -2522c13213,-1536 24957,-4086 35016,-7682 10081,-3586 18497,-8055 25177,-13388 6677,-5333 11744,-11434 15145,-18307 3411,-6897 5140,-14387 5147,-22486 -910,-7972 -3662,-15110 -8261,-21418 -1933,-2705 -4365,-5378 -7387,-8014z"/>
    <path class="fil1" d="M874920 735766c-207,-7390 -475,-15396 -761,-24016 -321,-8616 -697,-17167 -1117,-25663 -454,-8488 -944,-16687 -1450,-24591 -493,-7916 -1006,-14900 -1519,-20939 -638,-5664 -1902,-11420 -3824,-17274 -1913,-5856 -4469,-11286 -7676,-16302 -3204,-5023 -6935,-9301 -11241,-12850 -4327,-3538 -9068,-5815 -14349,-6849 -6611,-1295 -12930,-1137 -18838,462 -5898,1605 -11303,4134 -16244,7614 -4943,3458 -9288,7544 -12991,12240 -3711,4696 -6756,9536 -9057,14559l1381 -38978 -21556 2877 7945 185422 20763 785c-1140,-15441 -2156,-28791 -3035,-40039 -909,-11251 -1592,-21063 -2105,-29421 -489,-8365 -765,-15572 -761,-21608 7,-6049 351,-11644 971,-16791 652,-5133 1723,-10153 3204,-15034 1482,-4892 3435,-10360 5847,-16406 2346,-5526 4954,-10411 7834,-14662 2887,-4241 5884,-7738 9057,-10511 3121,-2760 6325,-4737 9591,-5971 3300,-1212 6405,-1619 9336,-1247 3483,517 6780,1940 9919,4265 3124,2309 5942,5333 8433,9078 2505,3724 4606,8141 6246,13205 1685,5092 2828,10721 3466,16885 868,10042 1598,19847 2084,29431 497,9584 782,19423 851,29524 38,10091 -145,20699 -496,31823 -386,11138 -995,23196 -1784,36177l22324 -2880c3,-2694 -55,-6911 -83,-12637 -69,-5719 -193,-12278 -365,-19678z"/>
    <path class="fil1" d="M711950 700326c-1316,8437 -3628,16116 -6956,23065 -3335,6938 -7669,12823 -12992,17639 -5336,4820 -11785,7862 -19330,9154 -7190,1140 -13753,-142 -19720,-3883 -5953,-3724 -11145,-8964 -15578,-15730 -4414,-6753 -7924,-14511 -10549,-23262 -2639,-8740 -4207,-17570 -4689,-26430 -520,-8499 38,-16885 1643,-25188 1620,-8292 4145,-15747 7628,-22369 3459,-6614 7851,-12044 13177,-16292 5323,-4234 11496,-6552 18566,-6934 7572,-504 14304,981 20192,4464 5901,3466 10962,8241 15168,14291 4245,6049 7576,13094 9988,21129 2432,8037 3951,16340 4523,24883 551,8558 200,17054 -1071,25463zm13012 -64613l0 0c-3638,-9715 -8640,-18080 -14976,-25087 -6328,-7018 -14097,-12237 -23272,-15651 -9167,-3414 -19685,-4165 -31619,-2250 -10528,1675 -19306,5451 -26379,11362 -7052,5919 -12599,13147 -16650,21691 -4051,8564 -6670,18017 -7903,28360 -1233,10356 -1206,20808 83,31354 1381,11840 4279,23230 8623,34158 4351,10941 9822,20360 16419,28277 6584,7917 14149,13773 22679,17577 8537,3796 17666,4351 27406,1660 9626,-2566 17932,-7255 24915,-14063 7017,-6814 12705,-14882 17132,-24212 4445,-9312 7528,-19375 9278,-30175 1719,-10811 2132,-21577 1175,-32319 -972,-10735 -3259,-20967 -6911,-30682z"/>
    <path class="fil1" d="M456079 775088l-23085 1523c2078,-28546 2901,-53117 2457,-73691 -434,-20581 -1799,-37531 -4096,-50839 -2285,-13315 -5323,-23158 -9106,-29535 -3782,-6366 -7913,-9680 -12402,-9935 -1544,-135 -3624,509 -6253,1915 -2622,1423 -5457,3976 -8458,7717 -3038,3728 -6046,8795 -9060,15234 -3029,6429 -5757,14656 -8196,24691l-14411 -4069c248,-2184 538,-5067 865,-8674 320,-3604 489,-7404 492,-11383 0,-3989 -255,-7986 -771,-11968 -493,-3983 -1458,-7531 -2863,-10618 -1416,-3080 -3438,-5495 -6060,-7231 -2632,-1747 -6001,-2367 -10091,-1843 -5653,641 -10225,4082 -13756,10314 -3538,6236 -6377,14167 -8489,23816 -2122,9643 -3621,20454 -4444,32415 -854,11958 -1337,24054 -1474,36267 -142,12220 -52,23988 258,35308 306,11328 596,21153 840,29518l-20780 3456 -4655 -186759 20774 -383 -2139 36667c1664,-5275 3855,-10380 6545,-15327 2691,-4955 5878,-9233 9516,-12830 3676,-3597 7838,-6260 12533,-7993 4668,-1743 9832,-2022 15479,-861 2429,524 4837,1774 7200,3762 2384,2005 4555,4572 6542,7721 1978,3159 3656,6817 4989,11010 1347,4179 2129,8651 2388,13412 1160,-2832 3117,-6050 5873,-9643 2767,-3604 5902,-6942 9447,-10029 3517,-3080 7300,-5553 11351,-7414 4028,-1867 7976,-2480 11827,-1836 7170,1299 13233,5109 18163,11400 4919,6304 8940,14290 12002,23940 3070,9643 5388,20477 6996,32518 1609,12024 2712,24440 3329,37228 626,12805 937,25507 930,38106 -11,12613 -80,24250 -207,34923z"/>
    <path class="fil1" d="M853044 770961c789,-12981 1371,-25039 1784,-36177 351,-11124 534,-21732 496,-31823 -48,-10101 -354,-19940 -851,-29524 -486,-9584 -1216,-19389 -2084,-29431 -638,-6164 -1781,-11793 -3466,-16885 -1640,-5064 -3741,-9481 -6246,-13205 -2491,-3745 -5309,-6769 -8433,-9078 -3139,-2325 -6436,-3748 -9919,-4265 -2931,-372 -6036,35 -9336,1247 -3266,1227 -6470,3211 -9591,5971 -3173,2773 -6170,6273 -9057,10511 -2880,4251 -5488,9136 -7834,14662 -2412,6046 -4365,11514 -5847,16406 -1481,4881 -2552,9901 -3204,15034 -620,5147 -964,10742 -971,16791 -4,6036 272,13243 761,21608 513,8358 1196,18170 2105,29421 879,11248 1895,24598 3035,40039l-20763 -785 -7945 -185422 21556 -2877 -1381 38978c2301,-5023 5346,-9863 9057,-14559 3703,-4696 8048,-8782 12991,-12240 4941,-3480 10346,-6009 16244,-7614 5908,-1599 12227,-1757 18838,-462 5281,1034 10022,3311 14349,6849 4306,3549 8037,7827 11241,12850 3207,5016 5763,10446 7676,16302 1922,5854 3186,11610 3824,17274 513,6039 1026,13023 1519,20939 506,7904 996,16103 1450,24591 420,8496 796,17047 1117,25663 286,8620 554,16626 761,24016 172,7400 296,13959 365,19678 28,5726 86,9943 83,12637l-22324 2880z"/>
   </g>
  </g>
 </g>
</svg>
