<?xml version="1.0" encoding="UTF-8"?>
<!DOCTYPE svg PUBLIC "-//W3C//DTD SVG 1.1//EN" "http://www.w3.org/Graphics/SVG/1.1/DTD/svg11.dtd">
<!-- Creator: CorelDRAW X7 -->
<svg xmlns="http://www.w3.org/2000/svg" xml:space="preserve" width="100%" height="100%" version="1.1" style="shape-rendering:geometricPrecision; text-rendering:geometricPrecision; image-rendering:optimizeQuality; fill-rule:evenodd; clip-rule:evenodd"
viewBox="0 0 2100000 2100000"
 xmlns:xlink="http://www.w3.org/1999/xlink">
 <defs>
  <style type="text/css">
   <![CDATA[
    .fil0 {fill:black;fill-rule:nonzero}
   ]]>
  </style>
 </defs>
 <g id="Слой_x0020_1">
  <metadata id="CorelCorpID_0Corel-Layer"/>
  <g id="_543544904">
   <path class="fil0" d="M875700 890066c4251,-3352 8167,-6843 12500,-9699 2374,-1565 5423,-2782 8220,-2903 9090,-394 14118,6390 10552,14790 -2798,6588 -6302,13101 -10642,18767 -14843,19378 -30130,38419 -45367,57492 -16016,20050 -32264,39915 -48194,60035 -3689,4659 -6819,9846 -9635,15095 -4705,8773 -2003,13420 7965,14806 7302,1015 14328,32 21341,-2077 16323,-4906 32020,-11324 45883,-21279 24482,-17579 49223,-34888 72717,-53729 36544,-29309 72005,-59965 108183,-89739 21739,-17891 43943,-35222 65998,-52728 3701,-2940 7622,-5626 11592,-8196 5482,-3551 10974,-3452 15203,-19 4313,3504 6238,10953 3755,16365 -1757,3828 -3952,7505 -6336,10985 -6899,10071 -13982,20015 -21015,29994 -1705,2420 -3491,4784 -4657,7976 1483,-1017 3014,-1971 4441,-3061 11704,-8937 23732,-17360 37259,-23386 8946,-3985 18178,-6932 28112,-6642 17273,506 27150,10284 28181,27491 823,13710 -1943,26725 -7022,39373 -8283,20624 -21056,38372 -35375,55091 -24003,28028 -51012,52539 -83487,70567 -406,224 -707,638 -1855,1708 2208,483 3893,1145 5591,1176 12460,224 24938,743 37375,263 5593,-216 11225,-2141 16630,-3924 18094,-5971 34778,-14805 50511,-25516 31176,-21223 60088,-45322 88209,-70334 18235,-16222 35470,-33563 53280,-50269 4314,-4047 6666,-8169 4934,-14377 -2438,-8740 945,-16045 6681,-22600 11392,-13016 24190,-24449 38596,-33986 3437,-2276 7524,-4160 11538,-4850 7451,-1279 11465,3417 9562,10753 -982,3820 -2725,7464 -4309,11107 -1067,2469 -2467,4796 -3989,7695 4922,697 9268,1219 13588,1941 22132,3697 33609,21165 27287,42709 -2283,7779 -5965,15332 -10090,22352 -11035,18784 -25433,35043 -39954,51171 -16349,18147 -32610,36369 -48803,54651 -2963,3345 -5458,7110 -8114,10722 -2284,3107 -4219,6462 -2029,10315 2028,3569 5757,3711 9269,3379 4689,-443 9369,-1126 13999,-1996 20136,-3792 38661,-11639 55146,-23705 26526,-19431 53321,-38580 78853,-59269 41047,-33257 81381,-67417 121483,-101801 8961,-7684 18498,-10103 29447,-9834 8482,208 13073,4489 12962,13028 -49,4293 -1067,9125 -3252,12740 -6567,10843 -13183,21798 -21113,31641 -19689,24451 -40286,48175 -60183,72459 -10249,12519 -19934,25518 -29607,38504 -2946,3956 -5315,8441 -7340,12954 -2688,5961 -847,10229 5241,12400 3228,1156 6776,1483 10200,2038 1473,237 2996,99 4481,132 2811,62 4824,1288 5474,4111 712,3044 -208,5826 -3240,6708 -13674,3982 -27447,5528 -40532,-1782 -6603,-3691 -8960,-10436 -9782,-17631 -774,-6797 -197,-13582 2737,-19765 5118,-10774 10077,-21701 16203,-31897 15183,-25250 33448,-48332 51860,-71276 2480,-3103 4984,-6200 6825,-10291 -1546,1112 -3167,2142 -4640,3346 -35314,28864 -70506,57868 -105943,86577 -20548,16639 -41918,32170 -64909,45305 -14963,8542 -30273,16426 -47603,18964 -7866,1151 -15827,1682 -23761,2297 -2455,191 -4994,-70 -7438,-471 -15271,-2502 -21961,-10706 -21528,-26278 245,-8852 2684,-17162 6217,-25219 8198,-18700 20022,-35079 33450,-50186 15057,-16940 30953,-33138 46522,-49626 5819,-6161 11747,-12210 17578,-18356 1375,-1441 2749,-2945 3768,-4633 2259,-3730 712,-6952 -3670,-7470 -2197,-261 -4493,-20 -6702,294 -2701,384 -5352,1155 -8052,1633 -16113,2861 -29287,10157 -41318,21832 -37933,36806 -77626,71701 -119919,103513 -19330,14539 -39200,28282 -60779,39353 -11777,6041 -23811,11722 -37091,13264 -21540,2500 -43220,4810 -64444,-1976 -6112,-1956 -11558,-2385 -17949,-709 -5825,1527 -12453,1261 -18512,354 -11233,-1682 -18767,-8645 -22973,-19144 -3195,-7975 -4152,-16374 -4454,-24877 -67,-1903 -9,-3810 -1295,-6362 -2270,2438 -4594,4830 -6804,7320 -45163,50895 -90312,101804 -135466,152706 -19849,22374 -39662,44780 -59600,67075 -2623,2934 -5579,5811 -8923,7811 -6569,3927 -12955,1415 -15530,-5833 -2329,-6551 -2714,-13377 617,-19615 4095,-7671 8178,-15524 13499,-22334 17943,-22965 35501,-46336 54896,-68040 50489,-56496 101870,-112193 152909,-168198 17292,-18975 34628,-37910 51924,-56884 1586,-1740 3026,-3614 3659,-6369 -2023,1598 -4115,3117 -6056,4808 -50943,44419 -104431,85662 -158369,126309 -17525,13205 -36730,23923 -57843,30691 -15143,4855 -30860,5119 -46529,5527 -2681,71 -5454,-660 -8070,-1416 -8238,-2381 -13040,-7829 -14153,-16436 -947,-7340 -35,-14517 2755,-21267 4168,-10082 8825,-19961 13580,-30612 -1477,928 -2831,1575 -3946,2509 -11650,9768 -23231,19618 -34892,29372 -11521,9639 -24030,17758 -37686,24055 -9459,4362 -19295,6426 -29782,5126 -14079,-1745 -23402,-10471 -24897,-24563 -702,-6621 -120,-13377 -120,-21062 -2239,1456 -3841,2392 -5331,3481 -40131,29340 -83495,52346 -131306,66443 -22438,6618 -45523,9352 -68771,6823 -42597,-4638 -75278,-24695 -93949,-64364 -7694,-16347 -9189,-33974 -8055,-51890 2187,-34523 13664,-66124 30145,-96132 18838,-34302 42858,-64795 69478,-93290 80471,-86140 174100,-153866 282234,-201229 2731,-1196 5423,-2486 8096,-3803 350,-173 489,-775 1046,-1727 -5791,-645 -11337,-1636 -16911,-1819 -31131,-1020 -62269,-2450 -93406,-2515 -19395,-41 -38793,2105 -58192,3232 -22547,1307 -43997,8220 -65761,13302 -10571,2468 -20771,7054 -30701,11631 -21455,9891 -43037,19435 -62771,32862 -18602,12658 -36555,26156 -53089,41215 -14125,12867 -26557,27665 -39181,42095 -25277,28898 -44716,61649 -61732,95896 -5650,11369 -11132,22844 -16082,34529 -2897,6839 -4555,14202 -6835,21308 -10361,32293 -18300,65182 -24016,98602 -836,4885 -694,9931 -1176,14886 -1690,17359 -4047,34677 -5039,52072 -1190,20878 -2049,41839 -1557,62729 480,20386 2836,40730 4383,61091 1814,23876 5093,47557 10240,70935 2621,11905 5794,23704 9170,35419 6769,23483 15626,46147 26390,68138 25729,52560 62537,94955 112572,125795 25017,15419 51917,26517 79585,35694 19132,6345 39162,9459 59063,12906 27741,4805 55670,5763 83400,2443 22677,-2716 45005,-8365 66525,-16611 36972,-14167 73833,-28656 111118,-41957 20430,-7288 41783,-11709 63745,-11074 7436,215 14846,1406 22265,2188 6702,707 8745,-583 9685,-7081 5403,-37340 24476,-66902 52149,-91480 23016,-20439 49490,-35452 78199,-45919 26207,-9555 53404,-16080 80968,-20763 19660,-3339 39332,-6824 59350,-6719 12685,66 25372,806 38048,1452 28021,1427 55435,6767 82147,14958 36217,11106 67316,30109 87651,63287 4892,7980 8028,17084 11541,25845 3022,7538 4341,9164 12626,8731 34756,-1817 68364,4106 101874,12840 32516,8476 65474,15269 98296,22557 4800,1064 9894,859 14853,1078 21923,969 43919,2514 65707,-473 13232,-1815 26526,-4862 39144,-9240 65866,-22859 114131,-67484 152084,-124604 20254,-30471 35892,-63213 48068,-97609 4149,-11708 7034,-23856 10679,-35749 2173,-7134 4260,-14350 7157,-21203 5818,-13762 24905,-23660 39598,-21046 9054,1610 14988,8665 15212,17470l0 1008c-22,938 -108,1893 -261,2862 -2848,18023 -8188,35404 -14202,52547 -5671,16194 -11465,32402 -18339,48107 -23359,53363 -55175,100942 -98959,139839 -19603,17411 -40421,33480 -64504,44245 -20229,9039 -40924,17133 -61803,24511 -9268,3272 -19505,3793 -29312,5482 -38249,6587 -76435,4767 -114622,-669 -39022,-5557 -77257,-14921 -115616,-23722 -32025,-7350 -64362,-10646 -97162,-6827 -4404,511 -8717,1922 -13030,3072 -2878,770 -5624,2143 -8533,2675 -9034,1648 -13701,-1777 -15311,-10736 -1276,-7102 -2682,-14181 -4026,-21271 -2498,-13169 -9294,-24121 -18090,-33849 -12270,-13567 -27511,-22697 -44547,-29174 -31300,-11901 -63878,-15149 -96947,-13875 -13384,516 -26674,3345 -40018,5042 -30151,3834 -58897,12893 -86589,24911 -27299,11848 -52950,26647 -74017,48325 -15489,15938 -26042,34489 -30860,56223 -1911,8624 -1842,17308 -476,26010 1791,11410 -2708,15269 -13847,12286 -11772,-3152 -23487,-6885 -35477,-8753 -16277,-2535 -32794,-2144 -49115,549 -36326,5994 -70637,18803 -105168,30993 -30524,10776 -60979,22044 -92139,30660 -38829,10738 -78458,12673 -118394,4404 -22925,-4747 -46004,-8665 -68444,-15526 -47576,-14548 -92240,-34769 -130827,-66891 -47648,-39665 -81636,-88643 -102607,-147118 -14887,-41511 -24652,-84093 -30299,-127642 -6745,-52020 -7202,-104325 -5842,-156714 649,-24999 3206,-49774 7252,-74313 4737,-28726 11639,-57026 20492,-84876 10071,-31683 22178,-62384 38470,-91398 38847,-69177 89751,-127325 156713,-170606 21362,-13806 43605,-26052 67971,-34034 13012,-4263 25656,-9730 38799,-13494 17930,-5134 36207,-9040 54277,-13699 16301,-4202 33061,-4324 49646,-5743 31345,-2683 62767,-1297 94134,-173 26192,939 51986,5347 77604,10830 7779,1665 15693,2838 23604,3699 3882,422 8018,133 11834,-734 13100,-2982 26087,-6457 39158,-9566 20490,-4873 41361,-6125 62337,-6189 8226,-25 16463,272 24675,-66 1195,-50 2386,-75 3576,-80l690 0c10848,34 21485,1826 32040,4058 13656,2887 25749,9466 36378,18293 10319,8569 12720,20596 11342,33256 -1684,15472 -8572,21018 -24256,21423 -23104,598 -45598,-2947 -68006,-8329 -31707,-7616 -63553,-14677 -95445,-21478 -8456,-1803 -17289,-2085 -25975,-2430 -3021,-120 -6270,1335 -9156,2647 -32960,14966 -64112,33189 -94509,52760 -83478,53744 -158820,116995 -224122,191947 -23450,26917 -45181,55113 -62558,86437 -11171,20138 -20230,41109 -24196,63961 -1923,11089 -2660,22228 -778,33467 3088,18433 12848,31573 30233,38714 10256,4213 21067,5876 32102,6216 35021,1076 68140,-7328 100303,-20300 38133,-15380 73274,-36164 105946,-60906 35155,-26624 69365,-54492 104406,-81270 23311,-17814 48649,-32091 77684,-38577 8521,-1903 17157,-3097 25951,-1786 13020,1939 21114,9267 24397,21979 309,1199 634,2394 993,3579 61,204 319,349 1077,1133zm-16922 3470c-50,-11025 -4870,-15511 -13367,-14185 -3860,601 -7839,1876 -11225,3795 -7778,4407 -15665,8823 -22734,14244 -38866,29800 -74222,63391 -106121,100538 -6443,7505 -11780,16034 -17006,24474 -2283,3689 -3684,8250 -4282,12579 -1039,7542 3693,12141 11180,10909 4582,-754 9262,-2278 13329,-4498 7409,-4042 14763,-8370 21498,-13432 38336,-28813 73699,-60946 105528,-96827 7214,-8132 13130,-17489 19035,-26673 2468,-3836 3350,-8691 4165,-10924zm172919 96794c8804,2930 12042,9777 14416,17285 2399,7584 4693,15203 7190,22754 891,2695 2240,5237 3566,8275 3163,-1855 5538,-3163 7829,-4606 20606,-12963 38592,-29010 54685,-47170 18370,-20734 34794,-42955 48553,-67013 3784,-6618 6747,-13916 8786,-21264 2301,-8293 -2464,-13993 -11099,-13258 -6293,536 -13014,1980 -18487,4960 -10881,5926 -21574,12486 -31383,20034 -29080,22377 -55405,47796 -80005,75004 -1290,1427 -2430,2991 -4051,4999zm-125817 -429814c-30,-187 -61,-373 -93,-559 -17786,1973 -35593,3783 -53350,5997 -7383,920 -14696,2533 -21948,4228 -1547,362 -2690,2453 -4018,3747 1322,1250 2444,3128 4005,3628 4008,1279 8254,1788 12329,2882 18976,5090 37939,10224 56881,15438 21201,5837 42778,9108 64758,9585 3192,69 6542,-87 9571,-979 7838,-2310 10992,-9770 6380,-16393 -3626,-5208 -8027,-10356 -13197,-13914 -13385,-9208 -28380,-14150 -44892,-13685 -5471,154 -10950,25 -16426,25zm134899 483567c-5035,-24763 -10020,-39596 -15692,-45600 -1536,2297 -3646,4240 -4247,6571 -2442,9457 -3200,19147 -1070,28740 2447,11009 9771,14524 21009,10289z"/>
   <path class="fil0" d="M1275213 1236546c-23699,-19 -46791,-3575 -69059,-11321 -41605,-14472 -83044,-29428 -124506,-44308 -15452,-5546 -30766,-11472 -46163,-17169 -9436,-3491 -19176,-5776 -29251,-4567 -5082,610 -10187,2147 -14926,4117 -3727,1548 -4660,4909 -3496,7992 1381,3663 6071,6455 9559,5461 1898,-541 3624,-1661 5497,-2322 8735,-3085 18650,1940 21453,10811 2782,8810 -1907,15943 -11421,19339 -16701,5964 -37268,-5688 -42702,-19745 -5903,-15267 2025,-32700 17895,-36635 8748,-2171 17528,-2569 26639,-1574 22335,2440 42840,10999 63843,17907 47532,15630 94932,31667 142572,46960 10328,3317 21369,4779 32204,6039 10365,1207 20892,1480 31341,1369 14461,-151 28864,-1382 42414,-7177 2731,-1167 5440,-2455 7981,-3987 14197,-8560 11756,-22196 5638,-31642 -923,-1425 -2316,-2609 -3673,-3675 -2791,-2190 -5877,-2817 -8957,-650 -2756,1939 -2171,4752 -1518,7480 174,725 443,1427 642,2148 2373,8584 -384,13118 -9159,15077 -14736,3290 -26541,-5310 -27362,-20474 -383,-7055 3491,-12458 9629,-15690 8784,-4625 18055,-7123 28070,-4316 1434,402 2929,586 4392,883 22776,4631 35170,28886 25134,50107 -2153,4551 -5855,8960 -9949,11889 -11473,8206 -24430,13430 -38536,14989 -11369,1255 -22814,1815 -34225,2684z"/>
   <path class="fil0" d="M1688458 778605c20020,-399 29104,12981 23310,29430 -1878,5341 -5254,9582 -9611,13012 -11391,8966 -24280,14387 -38715,16007 -258,29 -503,38 -749,55 -17933,1260 -26955,-10943 -20474,-27883 1043,-2743 2443,-5547 4333,-7748 11894,-13783 26820,-21759 41906,-22873z"/>
  </g>
 </g>
</svg>
