<?xml version="1.0" encoding="UTF-8"?>
<!DOCTYPE svg PUBLIC "-//W3C//DTD SVG 1.1//EN" "http://www.w3.org/Graphics/SVG/1.1/DTD/svg11.dtd">
<!-- Creator: CorelDRAW X7 -->
<svg xmlns="http://www.w3.org/2000/svg" xml:space="preserve" width="100%" height="100%" version="1.1" style="shape-rendering:geometricPrecision; text-rendering:geometricPrecision; image-rendering:optimizeQuality; fill-rule:evenodd; clip-rule:evenodd"
viewBox="0 0 210 210"
 xmlns:xlink="http://www.w3.org/1999/xlink">
 <defs>
  <style type="text/css">
   <![CDATA[
    .fil0 {fill:#5B5B5B;fill-rule:nonzero}
   ]]>
  </style>
 </defs>
 <g id="Слой_x0020_1">
  <metadata id="CorelCorpID_0Corel-Layer"/>
  <path class="fil0" d="M124 152c0,0 0,0 0,0 0,0 0,0 0,0 0,0 0,0 0,0 0,0 0,0 0,0zm-6 -10c0,0 0,0 0,0 0,0 0,0 0,0 0,0 0,0 0,0 0,0 0,0 0,0zm-2 3c0,0 0,0 0,0 0,0 0,0 0,0 0,0 0,0 0,0 0,0 0,0 0,0zm-1 -4c0,0 0,0 0,0 0,0 0,0 0,0 0,0 0,0 0,0 0,0 0,0 0,0 0,0 0,0 0,0zm2 1c1,1 1,1 1,1 0,0 0,0 0,-1 0,0 0,0 -1,0zm0 -1c0,-1 0,-1 -1,-1 0,0 0,0 0,1 0,0 0,0 0,0 0,0 1,0 1,0zm-1 5c-1,1 -1,1 -1,2 1,0 1,0 1,0 0,-1 0,-1 0,-2zm11 -4c0,0 0,0 0,0 0,0 0,1 0,1 0,0 0,0 0,1 0,0 0,0 0,1 -1,1 -1,3 -2,4 0,1 -1,2 -1,3 0,1 0,1 -1,1 0,0 -1,0 -1,0 0,0 0,0 0,0 -1,-2 -2,-4 -2,-5 0,0 0,0 0,0 0,0 0,0 0,0 0,-1 0,-1 -1,-1 1,-1 1,-1 1,-1 0,0 0,0 0,0 -1,0 -1,0 -1,0 -1,-1 -1,-2 -1,-2 -1,-1 -1,-2 -1,-2 0,0 0,0 0,0 0,0 0,0 0,0 0,3 0,5 0,8 0,0 0,1 0,2 0,0 0,1 0,1 -1,0 -2,0 -2,0 0,0 0,-1 0,-1 0,0 0,0 0,0 0,0 0,-1 0,-1 0,-4 0,-7 0,-11 0,-1 0,-1 0,-1 0,0 0,0 0,0 1,0 2,0 2,0 1,0 1,0 1,0 0,2 1,4 2,5 0,1 0,1 0,1 0,1 0,1 0,1 0,0 1,0 0,0 0,0 1,1 1,1 0,0 0,1 1,2 0,0 0,1 1,2 0,-1 0,-1 0,-1 0,0 0,-1 1,-1 0,0 0,0 0,0 0,-1 0,-1 0,-2 1,0 0,0 0,0 0,-1 1,-1 1,-2 0,0 0,0 1,1 0,0 0,-1 0,-1 0,0 0,-1 0,-1 0,0 0,0 0,0 0,-1 0,-1 0,-1 0,-1 0,0 0,0 0,0 0,-1 0,-1 0,0 0,0 1,0 0,0 0,0 0,0 0,0 0,0 0,0z"/>
  <path class="fil0" d="M95 147c0,0 0,0 0,0 0,0 0,0 0,0 0,0 0,0 0,0 0,0 0,0 0,0zm0 1c0,0 0,0 0,0 -1,0 -1,0 -1,0 1,0 1,0 1,0 0,0 0,0 0,0 0,0 0,0 0,0zm-10 -6c0,0 0,0 0,0 -1,1 -1,2 -1,3 0,1 0,2 0,3 1,2 2,3 4,4 1,0 3,0 4,-1 0,0 0,0 0,0 0,0 0,0 0,0 1,1 1,0 1,0 0,0 0,0 0,-1 1,-1 1,-2 1,-3 0,0 0,0 -1,0 0,0 0,-1 0,-1 -1,0 0,1 0,1 -1,0 -3,0 -4,0 0,0 0,0 0,-1 0,0 0,0 0,0 1,-1 2,-1 3,-1 0,0 1,0 2,0 0,0 1,0 2,0 0,1 0,1 0,1 0,2 0,4 0,7 0,0 0,0 0,0 0,0 -1,0 -1,0 0,-1 -1,-1 0,-2 -1,0 -1,0 -2,0 0,0 0,1 0,1 0,0 -1,1 -2,1 -2,0 -3,0 -5,0 -2,-1 -4,-3 -4,-5 0,-2 0,-3 0,-5 1,-1 1,-2 2,-3 1,0 1,0 1,1 0,0 0,0 0,1l0 0z"/>
  <path class="fil0" d="M107 145c0,0 -1,0 -1,0 0,0 0,0 0,0 0,0 0,0 0,0 0,0 1,0 1,0zm1 -1c0,0 0,0 0,0 0,0 0,0 0,0 0,0 0,0 0,0 0,0 0,0 0,0zm-2 5c0,0 0,0 0,0 0,0 0,0 0,0 0,0 0,0 0,1 0,0 0,-1 0,-1zm-1 0c0,1 0,1 -1,1 1,0 1,0 1,0 0,0 0,0 0,-1zm-1 -3c0,1 0,1 0,1 0,-1 0,-1 0,-1 -2,-2 -4,-4 -6,-7 0,0 0,0 0,0 0,0 1,0 1,0 0,0 0,0 0,0 0,0 0,1 0,1 0,0 1,0 1,0 0,-1 0,-1 0,-1 0,0 0,0 0,0 0,0 0,0 1,0 0,0 0,1 1,1 0,1 -1,1 -1,1 0,0 0,0 0,0 0,0 0,0 0,0 0,0 0,1 0,1 1,0 1,-1 1,0 0,0 0,0 1,0 0,0 0,0 0,0 1,1 1,2 2,3 1,0 1,0 1,0 1,-2 2,-4 3,-5 1,-1 1,-1 1,-1 1,0 1,0 2,0 0,1 -1,2 -2,3 0,0 0,0 0,0 0,0 0,0 0,0 -1,0 -1,0 0,1 -1,0 -1,1 -2,2 0,0 0,0 -1,0 0,0 1,0 0,0 0,1 0,1 0,1 0,0 0,0 0,1 -1,0 -1,0 -1,1 0,1 0,2 0,3 0,0 0,1 0,2 0,0 0,0 0,0 0,0 -1,0 -2,0 0,0 0,-1 0,-1 0,-1 0,-3 0,-4 0,-1 0,-1 1,-1 0,0 0,-1 0,-1 0,0 -1,0 -1,0 0,0 0,0 0,0l0 0z"/>
  <path class="fil0" d="M128 143c0,0 0,-1 0,-1 0,0 -1,0 -1,0 0,0 0,0 0,0 0,0 1,-1 0,-1 0,0 0,0 0,-1 0,0 0,-1 0,-1 1,0 3,0 3,0 0,0 0,0 0,0 0,4 0,8 0,12 0,0 0,0 0,0 0,1 0,1 0,2 0,0 -1,0 -1,0 -1,-1 -1,-2 0,-2 0,-1 0,-1 -1,-1 0,-1 0,-1 0,-2 0,0 1,-1 1,-1 0,0 0,0 -1,0 0,-1 0,-2 0,-3 0,-1 0,-2 0,-2 0,0 0,0 0,0 0,0 0,0 0,1l0 0z"/>
  <path class="fil0" d="M91 140c0,0 0,0 0,0 0,0 0,0 0,-1 0,0 0,0 1,0 0,0 1,0 2,1 -1,0 -1,0 -1,0 0,0 1,0 1,0 0,0 0,1 0,0 1,0 1,1 1,1 1,1 1,1 1,2 -1,0 -1,0 -2,0 -1,-2 -1,-2 -3,-3z"/>
  <path class="fil0" d="M85 142c0,-1 0,-1 0,-1 0,0 0,-1 0,-1 0,0 0,0 0,0 1,-1 1,-1 2,-1 1,0 2,-1 3,0 0,0 0,1 1,1 -1,0 -1,0 -1,0 0,0 0,0 -1,0 0,0 0,0 0,0 -1,0 -1,0 -1,0 0,0 0,0 0,-1 0,0 0,0 0,0 0,0 0,0 0,0 -1,0 -1,1 -1,1 0,1 0,1 -1,1 0,0 0,0 0,-1 0,0 0,0 0,0 0,1 0,1 -1,2l0 0z"/>
  <path class="fil0" d="M128 143c0,0 0,0 0,0 0,0 0,0 0,0 0,0 0,0 0,0 0,0 0,0 0,0z"/>
  <path class="fil0" d="M104 146c0,1 0,1 0,1 0,0 0,0 0,0 0,0 0,0 0,-1 0,0 0,0 0,0z"/>
  <path class="fil0" d="M159 140c0,0 0,0 0,0 0,0 0,1 0,1 0,0 1,-1 1,-1 0,0 -1,0 -1,0zm2 1c0,0 0,0 -1,0 0,1 0,1 0,1 0,0 -1,0 -1,0 0,-1 0,-1 -1,-2 0,0 0,0 0,0 0,0 1,0 0,0 0,0 0,0 1,0 0,-1 0,-1 1,-1 0,0 1,1 1,2z"/>
  <path class="fil0" d="M60 125c0,0 0,0 0,0 -1,0 -1,0 -1,0 0,0 0,0 0,0 0,0 1,0 1,0zm-2 0c0,0 0,0 0,0 0,0 0,0 0,0 0,0 0,0 0,0 0,0 0,0 0,0zm1 1c0,-1 0,-1 0,-1 -1,0 -1,1 -1,1 0,0 0,0 1,0 0,0 0,0 0,0zm-2 -3c0,0 0,0 0,0 0,0 0,0 0,0 0,0 0,0 0,0 0,0 0,0 0,0zm4 5c-1,0 -1,0 -1,0 0,0 0,0 0,0 0,0 0,0 0,0 0,0 0,0 1,0zm7 10c0,0 0,0 0,0 0,0 0,0 0,0 0,0 0,0 0,0 0,0 0,0 0,0 0,0 0,0 0,0 0,0 0,0 0,0zm-9 -11c0,0 0,0 0,0 0,0 0,0 0,1 0,-1 0,-1 0,-1zm5 8c1,0 1,0 1,0 0,-1 0,-1 0,-1 0,0 -1,0 -1,1zm3 1c0,0 0,0 -1,0 0,0 1,1 1,1 0,-1 0,-1 0,-1zm-2 -5c0,0 0,0 0,0 0,1 0,1 0,1 0,0 0,0 0,-1zm4 8c0,0 0,0 0,1 0,0 0,0 0,-1 0,0 0,0 0,0zm0 -1c0,0 0,1 0,1 0,0 0,0 1,0 0,0 0,0 0,0 0,0 0,0 0,0 0,0 0,-1 0,-1 0,0 0,0 0,0 0,0 0,0 -1,0zm1 -2c0,0 0,0 0,0 1,1 2,2 2,3 1,0 1,0 1,0 0,0 0,0 0,0 0,1 -1,2 -2,2 0,0 0,0 0,0 0,-1 0,-1 0,-1 0,0 0,0 -1,0 0,1 0,1 0,1 1,0 1,0 1,0 0,0 0,0 0,0 0,1 0,1 -1,1 0,0 0,0 0,-1 -1,-1 -2,-2 -3,-3 -2,-2 -3,-4 -4,-5 -1,-1 -1,-1 -1,-1 0,0 0,0 0,0 0,-1 -1,-1 -1,-1 0,0 0,0 0,-1 0,0 0,0 0,0 0,0 0,-1 0,-1 0,0 0,0 0,0 0,0 0,1 -1,1 0,0 0,0 0,-1 -1,-1 -2,-3 -4,-4 0,0 0,-1 0,-1 0,0 0,0 0,0 0,0 0,0 0,0 0,0 0,0 0,0 0,0 0,0 0,0 0,0 0,0 0,0 0,0 -1,-1 -1,-1 0,0 0,-1 0,-1 0,0 0,0 0,-1 0,1 0,1 -1,1 0,0 0,0 0,0 0,-1 1,-1 2,-2 0,1 0,1 0,1 0,0 0,0 0,0 0,-1 0,-1 1,-2 0,0 0,1 0,1 1,0 1,1 2,1 0,1 0,1 0,1 0,0 0,1 1,1 0,0 0,0 0,0 0,1 1,1 1,2 1,0 1,0 1,0 0,0 0,1 0,1 0,0 0,-1 -1,-1 0,1 0,1 0,1 0,0 0,0 0,0 0,0 0,1 0,1 1,0 1,0 1,0 0,-1 0,-1 0,-1l0 0c0,0 0,1 0,1 0,0 1,0 1,0 0,0 0,-1 -1,-1l0 0c1,0 1,0 1,1 1,1 2,2 2,3 2,2 3,3 5,5 0,0 0,0 0,1 0,0 0,0 0,0 0,0 0,0 0,1 0,0 0,0 0,0 0,-1 0,-1 0,-1z"/>
  <path class="fil0" d="M147 135c0,0 0,0 0,0 0,0 0,0 0,0 0,0 0,0 0,0zm4 -6c0,0 0,0 0,0 0,0 0,0 0,0 0,0 0,0 0,0 0,0 0,0 0,0zm-9 12c0,0 0,0 0,0 0,0 0,0 0,0 0,0 0,0 0,0 0,0 0,0 0,0zm13 -20c0,0 0,0 0,0 0,0 0,0 0,0 0,0 0,0 0,0 0,0 0,0 0,0zm0 0c0,0 0,-1 0,-1 0,0 0,0 0,1 0,0 0,0 0,0 0,0 0,0 0,0zm-6 10c0,0 0,0 0,0 0,0 0,0 0,0 0,0 0,0 0,0 0,0 0,0 0,0 0,0 0,0 0,0zm6 -9c0,0 0,0 0,0 0,0 0,0 0,0 0,0 0,0 0,0 0,0 0,0 0,0zm-7 9c-1,1 -1,1 -1,1 0,0 1,0 1,-1zm6 -7c0,0 0,0 0,0 0,0 0,0 0,0 0,0 0,0 0,0 0,-1 0,-1 0,0 0,0 0,0 0,0zm-3 3c0,0 0,1 0,1 1,0 1,-1 1,-1 0,0 0,0 -1,0 0,0 0,0 0,0zm-5 6c0,1 0,1 1,1 0,0 0,-1 0,-1 -1,0 -1,0 -1,0zm3 -4c0,-1 0,-1 0,-1 0,0 0,0 0,0 0,0 0,0 0,0 0,0 0,1 0,1zm-4 7c0,0 0,0 1,0 -1,0 -1,0 -1,0 0,0 0,0 0,0 0,0 0,0 0,0zm5 -7c0,0 -1,0 -1,0 0,0 0,1 0,1 0,0 0,0 1,0 0,-1 0,-1 0,-1zm-4 4c0,-1 1,-1 1,-1 0,0 -1,0 -1,0 0,0 0,0 0,1zm6 -7c0,0 0,0 0,0 0,0 0,0 0,0 0,0 0,0 0,0zm-2 3c0,0 1,0 1,0 0,0 0,0 0,0 0,0 0,0 0,0 0,0 0,0 0,0 0,0 0,0 -1,0 0,0 0,0 0,0zm6 -5c0,0 0,-1 -1,-1 0,1 0,1 0,1 0,0 1,0 1,0zm-14 15c0,0 -1,0 -1,0 0,0 0,0 1,1 0,0 0,0 0,0 0,0 0,0 0,0 0,0 0,-1 0,-1 0,0 0,0 0,0 0,0 0,0 0,0zm2 -3c1,0 1,0 1,0 0,0 0,-1 0,-1 0,0 0,0 0,0 0,-1 0,-1 -1,-1 0,0 0,0 0,1 0,0 0,0 0,0 0,0 0,0 0,0 0,1 0,1 0,1zm-1 4c0,0 0,1 0,1 0,0 0,0 -1,1 0,0 0,0 0,0 0,0 0,0 0,0 0,-1 0,-1 0,-1 0,0 0,0 -1,0 0,0 0,0 0,0 0,0 0,0 -1,0 0,-1 0,-1 0,-1 0,0 0,0 0,0 0,0 0,0 0,0 0,0 0,0 0,0 0,0 -1,0 -1,0 0,-1 0,-1 0,-1 1,0 1,0 1,0 0,0 0,0 0,0 0,-1 0,-1 0,-1 0,0 0,0 0,0 0,1 1,1 1,1 0,0 0,0 0,0 0,-1 -1,-1 -1,-1 0,0 1,0 1,0 0,0 0,0 0,0 0,0 0,-1 0,-1 0,0 0,0 0,0 0,-1 0,-1 1,-1 1,-2 3,-4 4,-6 1,-1 3,-3 4,-4 0,-1 0,-1 0,-1 0,0 1,0 1,0 0,0 0,0 0,0 0,0 0,0 0,0 0,-1 1,-2 1,-2 1,0 1,0 1,0 0,-1 0,-1 0,-1 0,0 0,0 0,-1 0,0 1,0 1,0 0,1 0,1 0,0 0,0 0,0 0,0 0,-1 1,-1 1,-2 1,1 2,1 2,2 0,0 0,0 0,0 0,0 0,0 0,0 0,0 1,0 1,0 0,0 0,1 0,1 0,0 0,0 0,0 0,0 0,0 0,0 0,0 0,0 -1,0 0,1 0,1 0,1 0,0 0,0 -1,0 0,1 0,1 0,1 0,0 0,0 0,0 0,0 0,0 0,0 0,1 -1,1 -1,2 0,0 0,0 0,0 0,0 -1,1 -1,1 0,0 0,0 0,0 0,0 0,0 0,0 -1,0 -1,0 -1,1 0,0 0,0 0,0 0,0 0,1 -1,1 0,0 0,0 0,0 0,0 0,0 0,0 0,0 0,0 0,0 0,1 0,1 0,1 0,0 0,0 -1,0 0,1 0,1 -1,2 0,-1 0,-1 0,-2 0,1 0,1 0,2 0,0 0,0 0,0 0,0 0,0 0,1 -1,0 -1,0 -1,0 0,0 0,0 0,0 -1,2 -3,4 -4,5 0,0 0,0 -1,0 0,0 0,0 0,1 0,0 0,0 0,0 0,0 0,0 0,1 0,-1 -1,-1 -1,-1 0,1 0,1 0,1 0,0 0,0 0,0l0 0z"/>
  <path class="fil0" d="M82 124c0,0 0,0 0,0 0,0 0,0 0,0 0,0 0,0 0,0 0,0 0,0 0,0zm5 -2c0,0 0,0 0,0 0,0 0,0 0,0 0,0 0,0 0,0 0,0 0,0 0,0zm14 -2c0,0 0,1 0,1 0,0 0,-1 0,-1 0,0 0,0 0,0 0,0 0,0 0,0zm1 1c0,-1 0,-1 0,-1 0,0 0,0 0,0 0,1 0,1 0,1 0,0 0,0 0,0zm-32 7c0,0 0,0 0,0 0,0 0,0 0,0 0,0 0,0 0,0 0,0 0,0 0,0 0,0 0,0 0,0zm-3 1c0,0 0,1 0,1 0,-1 0,-1 0,-1zm36 -8c0,0 0,0 0,0 0,0 0,-1 0,-1 0,0 0,0 0,0 0,0 0,1 0,1 0,0 0,0 0,0zm1 -1c0,0 0,0 0,0 0,0 0,0 0,0 0,0 0,0 0,0zm-20 3c-1,0 -1,0 0,0 0,0 0,0 0,0 0,0 0,0 0,0zm15 -2c-1,0 -1,0 -1,0 0,1 0,0 1,0zm-3 0c0,0 0,0 0,0 -1,0 -1,0 -1,0 0,0 0,0 0,0 0,0 0,0 1,0zm3 -1c0,0 0,0 0,1 0,0 0,0 0,0 0,0 0,-1 0,-1zm-6 1c0,0 0,1 0,1 0,0 0,0 0,0 0,0 0,0 0,0 0,-1 0,-1 0,-1zm-13 2c0,0 0,0 0,1 0,0 0,0 0,0 0,0 0,-1 0,-1 0,0 0,0 0,0zm16 -2c0,0 0,0 0,1 0,-1 0,-1 0,-1 0,0 0,0 0,0zm-10 2c0,0 0,0 0,0 0,0 0,0 0,0 0,-1 0,-1 -1,0 0,0 0,0 1,0zm14 -3c0,0 0,0 0,0 -1,1 0,1 0,1 0,0 0,0 0,0 0,0 0,0 0,-1zm-6 1c0,0 0,0 0,0 0,1 0,1 -1,1 0,0 -1,0 -1,0 0,0 -1,0 -1,0 0,0 0,1 -1,1 0,-1 0,-1 0,-1 0,0 0,0 0,0 0,0 0,0 0,0 0,1 0,1 -1,1 0,0 0,0 0,0 -1,0 -1,0 -1,0 0,0 0,0 -1,0 0,0 0,0 0,0 0,0 0,0 0,0 0,0 0,0 0,0 0,0 -1,0 -1,0 0,0 0,0 0,1 0,0 -1,0 -1,0 0,0 0,-1 0,-1 0,0 0,0 0,0 0,0 0,0 -1,-1 0,0 0,0 0,0 0,0 0,0 0,0 0,0 0,0 0,0 0,0 0,0 0,0 0,0 0,0 0,0 0,1 0,1 0,1 0,0 0,0 0,0 1,1 0,1 0,1 -1,0 -3,1 -5,1 0,0 0,0 0,-1 0,1 0,1 0,1 -1,1 -1,1 -2,1 -1,0 -2,1 -3,1 0,0 -1,0 -1,0 0,0 0,0 0,0 -1,0 -1,0 -1,-1 0,0 0,0 0,0 0,0 0,0 0,0 0,1 0,1 0,1 0,0 0,1 -1,1 0,0 0,0 0,0 0,0 0,0 0,0 0,1 0,1 -1,1 0,0 -1,0 -2,1 0,0 0,-1 0,-1 0,0 0,0 0,0 0,1 0,1 0,1 -1,0 -1,0 -1,0 0,0 -1,-1 -1,-2 0,0 0,0 1,0 0,0 0,0 0,0 1,0 1,0 1,0 0,0 0,0 0,0 0,0 0,-1 0,-1 0,0 1,0 1,0 0,0 0,0 1,0 0,0 0,0 0,0 0,0 0,0 0,0 0,0 0,0 0,-1 0,0 0,0 0,0 0,0 0,0 0,0 0,0 0,0 0,0 0,0 0,1 0,1 1,0 0,-1 1,-1 0,0 0,0 1,0 0,0 0,0 0,-1 0,0 0,0 1,0 0,0 0,1 0,1 0,0 0,0 0,0 0,0 0,0 1,0 -1,0 -1,0 -1,-1 0,0 0,0 0,0 1,0 1,0 1,0 0,0 0,0 0,0 0,0 0,0 0,0 1,0 1,0 1,-1 1,0 2,0 3,-1 0,0 0,0 0,0 0,1 0,1 0,1 0,0 0,0 0,1 0,-1 0,-1 0,-1 0,0 0,0 0,-1 0,0 0,0 0,0 1,0 1,0 2,0 0,0 0,0 0,0 0,0 0,0 1,0 0,-1 0,-1 0,-1 1,0 2,0 3,0 1,-1 1,-1 2,-1 0,0 1,0 1,0 0,0 0,1 0,1 0,0 0,0 0,0 0,0 0,0 1,-1 -1,0 -1,0 -1,0 0,0 0,0 0,0 0,0 0,0 1,0 1,0 2,-1 3,-1 1,0 1,0 1,0 0,0 0,0 0,0 1,0 1,0 1,0 0,0 0,0 1,0 0,0 0,0 0,0 0,0 0,0 0,0 0,0 0,0 0,0 1,0 2,0 3,0 0,0 0,-1 0,0 0,0 1,0 1,0 0,-1 0,-1 1,-1 0,0 1,0 1,0 0,0 0,0 1,0 0,1 0,1 0,1 0,0 0,0 0,-1 1,0 1,1 1,1 0,0 0,0 0,0 0,0 0,0 0,0 0,0 1,0 1,0 0,0 0,0 0,-1 0,0 0,0 0,0 1,0 2,0 3,0 0,0 0,0 0,1 0,0 0,0 -1,1 0,0 0,0 0,0 0,0 0,0 0,0 -1,1 -3,1 -4,1 -2,0 -4,0 -5,0 0,0 -1,0 -1,0 0,0 0,0 0,-1 0,1 0,1 0,1 0,0 0,0 0,0 0,0 -1,0 -1,0 0,0 0,0 0,0 0,0 0,0 0,0 1,-1 1,-1 0,-1 0,0 0,0 0,0 0,0 0,0 0,0 0,0 0,0 -1,0 0,0 0,0 1,0 0,0 0,0 0,0z"/>
  <path class="fil0" d="M61 136c0,0 0,0 0,0 0,0 0,0 0,0 0,0 0,0 0,0 0,0 0,0 0,0zm3 5c0,0 0,0 0,0 0,0 0,0 0,0 0,0 0,0 0,0 1,0 1,0 1,0 0,0 -1,0 -1,0zm-1 -4c0,0 0,0 0,0 0,0 0,0 0,0 0,0 0,0 0,0 0,0 0,0 0,0zm-2 0c0,0 0,0 0,0 0,0 0,0 0,0 0,0 0,0 0,0 0,0 0,0 0,0 0,0 0,0 0,0zm4 4c0,0 0,0 0,0 0,0 0,0 0,0 0,0 0,0 0,0 0,0 0,0 0,0zm-6 -6c0,0 0,0 0,0 -1,-1 -1,-1 -1,-1 0,1 0,1 0,1 0,0 1,0 1,0zm2 3c0,0 0,0 0,-1 0,0 -1,0 -1,0 0,1 0,1 1,1zm-4 -5c0,0 0,0 0,0 0,0 0,0 0,0 0,0 0,0 0,0zm4 2c0,0 0,0 1,0 0,0 0,0 -1,-1 0,1 0,1 0,1zm1 1c0,0 1,1 1,1 0,0 0,0 0,0 0,0 0,-1 0,-1 0,0 0,0 -1,0zm1 2c0,0 0,0 0,0 -1,0 -1,0 -1,0 0,0 0,0 0,0 0,1 1,0 1,0zm-9 -8c0,0 0,0 1,0 0,0 -1,0 -1,-1 0,1 0,1 0,1 0,0 -2,-1 -2,-2 0,0 0,-1 0,-1 1,0 2,-1 3,-2 0,0 0,0 0,0 0,0 0,0 0,1 0,0 0,0 1,0 -1,0 -1,0 -1,0 0,0 0,0 0,0 0,0 0,0 0,0 0,0 -1,0 -1,0 0,1 0,1 1,1 0,0 0,0 -1,0 1,0 1,0 1,0 0,0 0,0 0,0 0,1 0,1 0,1 0,0 0,0 0,0 1,-1 1,-1 1,-2 0,1 0,1 0,1 1,0 1,1 2,1 0,1 0,1 0,1 0,0 0,0 0,0 0,0 0,0 0,0 1,1 1,1 1,1 0,0 0,0 0,0 0,0 0,0 0,1 0,0 0,0 0,0 0,0 0,0 0,0 1,0 1,1 2,1 1,2 2,3 3,5 0,0 0,0 1,0 -1,0 -1,0 -1,0 0,1 0,1 0,2 0,0 0,0 0,0 0,-1 0,-1 1,-1 0,0 0,0 0,0 0,0 0,0 1,1 0,0 0,0 1,1 -1,0 -1,0 -1,0 0,0 0,0 0,0 0,0 0,0 1,0 -1,1 -1,1 -1,1 0,-1 -1,-1 -1,-1 0,0 0,0 0,0 0,0 0,0 0,0 0,1 0,1 1,1 -1,1 -2,1 -2,2 0,0 0,0 0,0 0,0 0,0 0,0 -3,-4 -7,-8 -10,-12 0,0 0,-1 0,-1z"/>
  <path class="fil0" d="M158 126c0,0 0,0 0,0 0,0 0,0 0,0 0,0 0,0 0,0 0,0 0,0 0,0zm-12 14c0,0 0,0 0,0 0,0 0,0 0,0 0,0 0,0 0,0 0,0 0,0 0,0zm4 -2c0,0 0,0 0,0 0,0 0,0 0,0 0,0 0,0 0,0 0,0 0,0 0,0zm8 -10c0,0 0,0 0,-1 0,0 0,0 0,0 0,0 0,0 0,1 0,0 0,0 0,0 0,0 0,0 0,0zm-7 6c0,0 0,-1 0,-1 0,0 0,0 0,1zm5 -4c0,0 0,0 0,0 0,0 0,0 0,1 0,-1 0,-1 0,-1zm-5 8c0,-1 0,-1 0,-1 0,0 0,0 0,1 0,0 0,0 0,0zm5 -11c0,0 0,0 0,1 -1,0 -1,0 -1,0 1,0 1,0 1,0 0,0 0,0 0,-1zm-1 3c0,0 -1,0 -1,0 1,0 1,0 1,0 0,0 0,0 0,0zm2 -2c-1,0 -1,0 -1,0 0,1 0,1 0,1 1,1 1,1 1,0 0,0 0,-1 0,-1zm-5 7c0,0 0,1 0,0 1,0 1,0 1,0 0,0 0,0 0,0 0,-1 0,-1 0,-1 -1,0 -1,0 -1,0 0,0 0,0 0,1 0,0 0,0 0,0 0,0 0,0 0,0 0,0 0,0 0,0zm0 -3c1,0 1,1 1,1 0,0 0,0 0,0 0,0 0,0 0,-1 0,0 0,0 0,0 0,0 0,0 0,0 0,-1 1,-1 1,-1 0,0 0,0 0,0 -1,0 -1,0 -1,0 0,0 0,1 -1,1zm-2 3c1,0 1,-1 1,-1 -1,0 -1,0 -1,0 0,0 3,-3 3,-4 0,0 1,0 1,0 0,0 0,0 0,0 0,0 0,0 0,0 0,0 0,0 0,0 0,-1 0,-1 1,-2 0,0 1,-1 1,-1 0,-1 1,-1 1,-2 0,0 0,0 0,1 0,0 0,0 0,0 0,0 0,1 0,1 1,0 1,-1 1,-1 1,0 2,1 2,2 0,0 0,0 0,0 0,0 -1,1 -1,1 0,1 0,1 -1,1 0,0 0,0 0,0 0,0 0,0 0,0 0,0 0,1 -1,1 0,0 0,0 0,0 0,0 0,1 0,1 0,0 0,0 0,0 -1,1 -1,1 -1,1 -1,1 -1,1 -1,1 0,0 0,1 -1,1 0,0 0,0 0,0 0,0 0,0 0,0 0,0 0,0 0,0 0,0 0,0 0,0 0,0 0,0 0,0 0,0 0,0 0,0 0,0 0,0 0,0 -1,1 -1,2 -2,3 0,0 0,0 0,0 0,-1 0,-1 0,-1 0,0 -1,0 0,0 0,1 0,1 0,1 -1,1 -2,2 -3,3 0,0 0,0 0,0 0,0 0,0 0,1 0,0 0,0 -1,1 0,-1 -1,-1 -1,-1 0,-1 0,-1 0,-1 -1,0 -1,0 -1,0 0,0 -1,-1 -1,-1 0,0 1,-1 1,-1 0,0 0,0 0,0 0,0 0,0 1,-1 0,-1 1,-2 2,-3 0,0 1,0 1,-1 0,1 0,1 0,1 0,0 0,0 0,0 0,0 0,0 0,0 0,0 0,0 0,0 0,0 0,0 0,0z"/>
  <path class="fil0" d="M55 137l0 0 0 0 0 0zm-1 -3c0,0 0,0 -1,0 0,0 0,0 0,0 0,0 0,0 1,0 0,0 0,0 0,0zm4 8c0,-1 0,-1 0,-1 0,0 0,0 0,0 0,1 0,1 0,1 0,0 0,0 0,0zm-3 -5c0,1 0,1 0,1 0,0 0,0 0,0 0,0 0,0 0,0 0,-1 0,-1 0,-1zm2 1c-1,0 -1,0 -1,0 0,0 0,0 0,0 0,0 1,0 1,0 0,0 0,0 0,0zm-2 1c0,0 0,0 1,0 0,0 0,0 0,0 -1,0 -1,0 -1,0zm4 1c0,0 0,0 0,0 0,0 0,0 0,-1 0,1 0,1 0,1 0,0 0,0 0,0zm0 0c-1,0 -1,0 -1,0 0,0 0,1 0,1 0,0 0,-1 1,-1zm1 1c0,1 -1,1 -1,2 0,0 0,0 0,-1 -1,0 -1,0 -1,0 0,1 0,1 0,2 0,-1 0,-1 0,-1 -1,-1 -2,-2 -3,-2 -1,-3 -3,-5 -5,-7 0,0 0,0 0,-1 0,0 0,0 1,0 0,-1 0,0 0,0 0,0 0,0 0,0 0,0 0,0 0,0 0,0 0,0 0,1 1,-1 1,-1 1,-1 0,-1 0,-1 0,-1 0,-1 0,-1 1,-1 0,0 0,0 0,0 1,1 2,2 2,3 1,0 1,0 1,1 0,0 0,0 0,0 0,0 0,0 0,0 0,0 0,0 0,0 1,1 2,2 3,3 0,0 0,1 0,1 0,0 0,0 0,0 1,1 1,1 2,2 0,0 0,0 -1,0 0,0 0,0 0,0 0,0 0,0 0,0 0,0 0,0 0,0 0,0 0,0 0,0z"/>
  <path class="fil0" d="M131 123c0,0 0,0 0,0 0,0 0,0 0,0 0,0 0,0 0,0 0,0 0,0 0,0zm-13 -3c0,0 0,0 0,0 0,0 0,0 0,0 0,0 0,0 0,0 0,0 0,0 0,1 0,0 0,-1 0,-1zm-11 0c0,0 0,0 0,0 0,0 0,0 0,0 0,0 0,0 0,0 0,0 0,0 0,0zm6 0c0,0 -1,1 -1,1 0,0 0,0 1,0 0,0 0,0 0,-1zm-1 0c0,0 0,0 0,0 0,0 0,0 0,0 0,0 0,0 0,0zm10 2c0,0 0,-1 0,-1 -1,0 -1,1 -1,1 0,0 1,0 1,0zm7 1c-1,0 -1,0 -1,0 0,0 0,0 0,1 0,0 0,0 0,0 0,0 0,-1 1,-1zm-4 -1c0,0 0,0 0,0 0,0 0,0 0,0 0,0 0,0 0,0 0,0 0,0 0,0zm-8 -1c0,0 0,0 0,-1 0,0 0,0 0,0 0,0 0,0 0,0 -1,0 -1,0 -1,1 0,0 0,0 0,0 0,0 0,0 1,0zm-2 1c-1,0 -1,0 -1,-1 0,0 0,0 0,0 -1,0 -1,0 -1,0 0,0 0,0 -1,0 0,0 0,0 0,0 0,1 0,1 -1,1 -1,0 -3,-1 -4,-1 -1,0 -1,0 -1,0 0,0 0,0 0,0 0,0 0,0 0,0 0,0 1,0 1,0 0,0 0,0 0,0 1,0 0,0 0,0 0,0 0,0 0,0 0,0 0,0 -1,0 0,0 0,0 0,0 0,-1 0,-1 1,-2 0,0 2,0 3,0 0,0 0,1 0,1 0,0 0,0 0,0 0,0 0,0 0,0 0,0 0,0 0,0 0,0 0,0 0,1 0,0 0,0 0,0 0,0 0,0 0,0 0,0 0,0 0,0 0,-1 0,-1 1,-1 0,1 0,1 -1,1 1,0 1,0 1,-1 0,0 0,0 0,0 0,0 -1,0 -1,-1 1,0 1,0 1,0 0,0 0,0 0,0 0,1 0,1 0,0 1,0 1,0 1,0 0,0 1,0 1,0 2,1 3,1 4,1 0,0 0,0 0,0 0,0 0,0 1,0 0,0 0,0 0,0 1,0 2,0 2,0 0,0 0,0 0,1 0,0 0,0 0,0 0,0 1,0 1,0 0,0 0,0 0,-1 0,0 0,0 0,0 1,1 3,1 4,1 1,0 1,0 2,0 0,0 0,0 0,1 0,0 0,0 0,0 1,-1 2,0 2,0 0,0 0,0 0,0 1,0 1,0 1,0 0,0 1,0 1,0 0,0 1,1 1,1 0,0 0,0 0,0 0,0 0,0 0,1 0,-1 -1,-1 -1,-1 0,0 0,0 0,0 0,0 -1,0 -1,0 0,0 0,0 0,0 0,0 0,0 0,1 0,0 0,0 0,0 -1,0 -1,0 -1,0 0,0 0,0 0,0 -1,0 -1,0 -2,0 0,0 -1,-1 -2,-1 -1,0 -1,0 -1,0 0,0 0,0 0,0 0,0 0,0 0,0 0,0 1,0 1,-1 0,0 0,0 0,0 -1,0 -1,0 -1,0 0,0 0,0 0,0 0,1 -1,0 -1,0 0,1 0,1 0,1 0,0 -1,0 -1,0 0,0 0,-1 0,-1 0,0 0,0 -1,1 0,0 0,0 0,0 -1,-1 -3,-1 -4,-1 0,0 -1,0 -1,0 0,0 0,0 0,0 0,0 -1,0 -1,0 0,0 0,0 -1,0 1,0 1,0 1,0 0,-1 -1,-1 -1,-1 0,0 0,0 0,0 1,0 1,0 1,0 0,0 0,0 0,0 0,0 0,0 0,0 0,0 0,0 1,0 -1,0 -1,0 -1,0 0,-1 0,-1 0,-1 -1,0 -1,0 -1,0 0,0 0,0 0,1 0,0 0,0 0,0 0,0 0,0 0,0 0,0 0,0 1,1z"/>
  <path class="fil0" d="M159 137c0,0 0,0 0,0 0,0 0,0 0,0 0,0 0,0 0,0 0,0 0,0 0,0zm0 -4c0,0 0,0 0,0 0,0 0,0 0,0 0,0 1,0 1,0 -1,0 -1,0 -1,0zm1 2c0,0 0,0 0,0 0,0 0,0 0,0 0,0 0,0 0,0 0,0 0,0 0,0 0,0 0,0 0,0zm-3 1c0,0 0,0 0,0 0,0 0,0 0,0 1,0 1,0 1,0 0,0 -1,0 -1,0zm3 -4c0,0 0,0 0,0 0,0 0,0 0,0 0,0 0,0 0,0zm-2 3c0,0 0,0 0,0 0,0 0,0 0,0 1,0 0,0 0,0 0,0 0,0 0,0zm-3 4c0,1 0,1 0,1 0,0 0,0 0,0 0,0 0,0 0,-1zm0 -1c0,1 0,1 0,1 0,0 0,0 0,0 0,0 0,0 0,0 0,0 0,0 0,0 0,0 0,0 0,-1 0,0 0,0 0,0zm2 -1c0,0 0,0 0,-1 0,0 -1,0 -1,1 0,0 0,0 1,0zm5 -4c0,0 0,0 -1,0 0,0 0,0 0,0 0,0 0,0 0,0 0,0 0,0 1,0zm-5 5c0,0 0,0 0,0 0,0 0,0 -1,0 0,0 0,0 0,0 0,1 0,1 0,1 0,0 0,0 0,0 0,0 0,0 1,0 0,0 0,0 0,0 0,0 0,-1 0,-1zm1 -2c0,0 -1,1 0,1 0,0 0,0 0,0 0,0 1,-1 0,-1zm-3 2c0,0 0,0 0,0 0,0 0,0 0,0 0,0 -1,0 -1,-1 0,1 0,1 1,1zm1 3c0,0 0,0 0,0 0,1 0,1 -1,1 0,0 0,0 0,0 0,0 0,0 0,1 0,0 0,0 0,0 0,0 0,0 0,0 -1,0 -1,0 -1,1 -1,-1 -2,-2 -3,-3 0,0 1,-2 2,-2 0,0 0,0 0,0 0,0 1,0 1,0 0,0 0,0 0,0 0,-1 0,-1 0,-1 0,-1 1,-2 2,-3 0,0 0,0 0,0 0,0 0,0 0,0 0,0 0,0 0,0 1,-2 2,-3 3,-4 0,0 0,0 0,0 0,0 0,0 1,0 -1,0 -1,0 -1,1 0,0 1,0 1,0 0,-1 0,-1 0,-1 0,0 0,1 1,1 0,0 0,0 0,0 0,0 0,0 1,1 0,0 0,0 0,0 0,0 0,0 0,0 0,0 0,1 0,1 -1,1 -1,2 -2,3 0,0 -1,0 -1,0 0,1 0,1 0,1 -1,1 -1,1 -2,2 0,0 0,0 0,0 0,1 0,1 -1,1 0,-1 0,-1 0,-1 0,0 0,0 0,0 0,0 0,0 -1,0 0,0 0,0 0,0 0,0 1,1 1,1 0,0 0,0 0,0 0,0 0,0 0,0z"/>
  <path class="fil0" d="M138 126c0,0 0,0 0,0 0,0 0,0 1,0 0,0 0,0 0,0 0,0 -1,0 -1,0zm2 0c0,0 0,0 0,0 0,0 0,0 0,0 0,0 0,0 0,0 0,0 0,0 0,0zm1 2c0,0 0,-1 0,-1 0,0 0,0 0,0 0,0 -1,0 -1,0 0,0 0,0 1,1zm-3 -2c0,0 0,0 0,0 0,0 0,0 -1,-1 0,1 0,1 0,1 0,0 1,0 1,0zm1 2c-1,-1 -1,-1 -2,-1 0,-1 0,-1 0,-1 0,0 0,0 0,0 0,0 -1,0 -1,0 0,0 0,0 -1,0 0,0 0,0 0,0 0,0 0,0 0,-1 0,0 0,0 0,0 0,0 0,0 0,0 -1,-1 -1,-1 -1,-1 -1,0 -1,0 -1,0 0,0 0,0 0,0 0,0 0,0 -1,0 0,0 1,1 1,1 0,0 0,0 0,0 0,0 0,0 0,0 -1,0 -2,0 -3,-1 0,0 0,0 0,0 0,0 0,0 0,0 0,0 0,0 0,0 1,0 1,0 1,0 1,0 1,0 2,0 0,0 0,-1 -1,-1 1,0 1,0 1,0 2,1 4,1 6,2 0,0 0,0 0,1 0,0 1,0 1,0 0,-1 0,0 0,0 1,0 1,0 2,0 0,1 0,1 0,2 1,0 1,0 2,0 0,0 0,-1 0,-1 1,1 2,1 2,1 0,1 0,1 0,1 0,0 0,0 0,0 0,0 0,0 0,-1 -1,0 -1,0 -1,0 0,0 0,0 0,0 0,0 0,0 0,1 0,0 0,0 0,1 0,0 0,0 0,0 -1,0 -1,0 -2,-1 -1,0 -2,-1 -3,-1 0,0 -1,0 -1,0 0,-1 1,-1 0,-1 0,0 0,0 0,0 0,0 0,0 0,0 0,0 0,0 0,1z"/>
  <path class="fil0" d="M52 141c0,0 0,0 0,0 0,0 0,0 0,0 0,0 0,0 0,0 0,0 0,0 0,0zm1 -2c0,0 1,1 1,1 0,1 -1,1 -1,1 0,1 0,1 -1,1 0,0 -1,-1 -1,-1 0,-1 1,-2 1,-2 0,0 1,0 1,0z"/>
  <path class="fil0" d="M143 127c0,0 0,0 0,0 0,0 0,0 0,0 0,0 0,0 -1,0 0,0 0,0 0,0 0,0 1,0 1,0 0,0 0,0 0,0z"/>
  <path class="fil0" d="M72 128c0,0 0,0 0,0 0,0 0,0 0,-1 0,0 0,0 0,1z"/>
  <path class="fil0" d="M134 126c0,0 0,0 0,-1 0,0 0,0 0,0 0,0 0,0 0,1z"/>
  <path class="fil0" d="M62 126c0,0 0,0 0,0 0,0 0,0 0,0l0 0c0,0 0,0 0,0l0 0z"/>
  <path class="fil0" d="M55 127c0,0 0,0 0,0 0,0 0,0 0,0 0,0 0,0 0,0z"/>
  <path class="fil0" d="M143 140c0,0 0,0 0,0 0,0 0,0 0,0 0,0 0,0 0,0 0,0 0,0 0,0z"/>
  <path class="fil0" d="M18 121c0,-1 0,-1 0,-1 0,0 0,0 0,0 0,0 0,0 0,0 0,0 0,0 0,1zm9 -13c-1,0 -1,0 -1,0 0,0 0,0 0,0 0,0 0,0 0,0 0,0 1,0 1,0zm3 0c0,0 0,0 0,0 0,0 0,0 0,0 0,0 0,0 0,0 0,0 0,0 0,0zm1 4c0,0 0,0 0,0 0,0 0,0 0,0 0,0 0,0 0,0zm-6 -19c0,1 0,1 0,1 1,0 1,0 1,-1 0,0 0,0 0,0 0,0 -1,0 -1,0zm-16 13c0,0 0,0 0,-1 0,1 0,1 0,1 0,0 0,0 0,0 0,0 0,0 0,0zm14 -9c0,-1 0,-1 0,-1 0,0 -1,0 -1,1 0,0 0,0 0,0 1,0 1,0 1,0zm11 9c0,0 1,0 1,0 0,0 0,0 0,0 0,0 0,0 0,0 0,0 0,0 -1,0 0,0 0,0 0,0zm-3 5c0,0 0,0 0,0 0,0 0,0 0,0 0,0 0,0 0,0zm-19 0c0,0 0,0 0,0 0,0 0,0 0,0zm17 -1c0,0 0,0 1,0 0,0 -1,0 -1,0 0,0 0,0 0,0 0,0 0,0 0,0zm7 -5c0,0 0,0 0,0 0,0 0,0 0,0 0,0 0,0 0,0 0,0 0,0 0,0zm-14 -8c0,0 0,0 0,-1 0,0 0,0 0,0 0,0 0,0 0,1 0,0 0,0 0,0zm16 15c0,0 -1,0 -1,0 0,1 1,1 1,1 0,0 0,0 0,-1 0,0 0,0 0,0zm-21 5c0,1 0,1 0,1 0,-1 0,-1 0,-1zm9 -7c0,-1 0,-1 0,-1 0,0 -1,0 -1,0 0,0 0,0 0,1 0,0 1,0 1,0zm-18 2c0,0 0,0 0,0 0,0 0,-1 0,-1 0,0 0,0 0,0 0,0 0,0 0,1zm20 -16c0,0 0,0 0,0 0,0 0,0 0,0 0,0 0,0 0,0zm-8 21c0,1 0,1 0,1 0,0 0,0 0,0 0,0 0,0 0,0 0,0 0,0 0,-1zm14 -9c0,0 0,0 0,0 0,0 0,0 0,1 0,0 0,0 0,0 0,-1 0,-1 0,-1zm-15 9c-1,1 -1,1 -1,1 0,0 1,0 1,0 0,0 0,0 0,-1zm12 0c0,0 0,0 0,-1 0,0 0,0 0,0 0,1 0,1 0,1zm4 -6c0,0 0,0 0,0 0,0 0,0 0,1 0,0 0,0 0,0 0,0 0,-1 0,-1 0,0 0,0 0,0zm-5 -3c0,0 1,0 1,-1 -1,0 -1,0 -1,0 0,1 0,1 0,1zm-14 -10c0,0 -1,-1 -1,-1 0,0 0,1 0,1 0,0 0,0 0,0 0,0 1,0 1,0zm18 6c0,0 0,-1 0,-1 0,0 -1,0 -1,0 0,0 0,0 0,0 0,0 0,1 1,1zm-1 11c0,-1 0,-1 -1,-1 0,0 0,0 0,1 0,0 0,0 0,0 0,0 0,0 0,0 0,0 1,0 1,0zm-23 -14c1,-1 1,-1 1,-2 -1,1 -1,1 -1,1 0,0 0,0 0,1zm6 1c1,0 1,-1 0,-1 0,0 0,0 0,0 0,0 0,0 0,0 0,0 0,0 0,0 0,0 0,0 0,1zm6 -7c0,0 0,0 0,-1 0,0 0,0 -1,0 0,0 0,1 1,1zm2 24c0,0 0,0 0,1 0,-1 1,-1 1,-1 -1,0 -1,0 -1,0zm-8 -7c0,0 0,0 -1,0 0,0 0,0 1,0 0,0 0,0 0,0zm12 -13c0,0 0,1 0,1 0,0 0,0 0,0 1,0 1,-1 1,-1 0,0 0,0 0,0 -1,0 -1,0 -1,0zm-17 2c0,1 0,1 0,1 1,0 1,0 1,0 0,0 0,-1 -1,-1zm17 -6c0,0 0,-1 -1,-1 0,0 0,1 0,1 0,0 0,0 1,0zm-3 19c0,1 0,2 1,2 0,0 0,0 0,0 0,0 0,-1 0,-1 0,0 0,0 -1,-1zm-16 -8c0,0 0,0 0,0 0,0 0,0 0,1 -1,0 -1,0 -1,-1 0,1 0,1 0,1 0,0 1,0 1,0 1,0 0,-1 0,-1zm27 5c0,-1 0,-1 0,-1 0,0 0,0 0,-1 0,0 0,0 0,0 0,0 0,0 -1,0 0,1 0,1 1,2zm-6 -14c0,0 0,-1 0,-1 0,0 0,0 0,0 0,0 -1,0 -1,0 0,1 0,1 1,1 0,1 0,1 0,2 0,0 0,0 0,0 1,-1 1,-1 1,-2 0,0 0,0 -1,0zm-19 15c-1,1 0,2 0,2 0,0 1,1 1,1 0,-1 0,-1 0,-2 0,0 0,0 -1,-1 0,0 0,0 0,0 0,0 0,0 0,0zm2 -12c0,-1 0,-1 0,-1 -1,0 -1,0 -1,0 0,1 1,0 1,1 0,0 0,0 -1,1 1,0 2,0 3,0 0,-1 -1,-1 -1,-1 0,0 0,0 -1,0zm19 10c0,0 0,0 0,0 0,0 0,0 0,0 0,0 0,0 0,0 0,-1 0,-1 0,-1 -1,0 -1,0 -1,0 0,0 0,0 0,0 0,1 0,2 1,2 0,0 0,0 0,0 0,0 0,0 1,0 0,0 0,0 0,0 0,0 0,-1 0,-1 0,0 0,0 -1,0zm-8 -15c-1,0 -1,0 -1,0 0,1 0,1 0,2 1,0 1,0 1,0 0,-1 0,-1 0,-2 0,0 0,0 1,0 -1,0 -1,-1 -1,-1 0,0 0,1 0,1 0,0 0,0 0,0zm-11 15c0,0 0,-1 -1,-1 0,0 0,0 0,1 0,0 0,0 0,0 1,0 1,0 1,0 0,1 -1,1 -1,1 0,1 0,1 1,2 0,0 0,-1 0,-1 0,0 0,0 0,0 0,0 0,-1 0,-2 0,0 0,0 0,0zm11 5c0,0 0,0 0,1 0,0 0,0 0,-1 0,0 0,0 1,0 0,-1 0,-1 0,-1 1,0 1,0 2,-1 0,0 1,-1 1,-1 1,-1 1,-2 1,-2 0,0 0,-1 0,-1 0,0 0,0 -1,0 0,0 0,0 0,0 0,0 0,0 0,1 0,0 0,0 0,0 -1,0 -2,0 -3,1 -1,-1 -1,-2 -1,-3 0,-1 -1,-2 -1,-3 4,-1 8,-2 12,-4 0,0 0,0 1,0 0,0 0,1 0,1 0,1 0,2 1,2 0,1 0,1 0,1 0,1 0,1 0,1 0,0 0,1 0,1 1,1 2,3 2,5 0,0 0,1 -1,1 1,1 1,1 1,1 0,0 0,0 0,0 1,0 1,0 1,0 0,0 0,1 0,1 0,0 -1,0 -1,0 0,0 0,-1 -1,-1 0,0 0,0 0,0 0,0 0,1 -1,1 0,0 0,0 0,1 0,0 0,0 0,0 0,0 0,-1 0,-1 0,0 0,0 -1,-1 0,1 0,1 0,1 0,0 0,0 0,0 -1,0 -1,1 -1,1 1,0 1,0 1,0 0,1 -1,1 -1,1 -1,0 -1,0 -1,0 0,0 0,-1 0,-1 0,0 0,0 -1,-1 0,0 0,0 0,1 -1,1 -2,2 -3,3 -4,2 -7,3 -11,3 -1,0 -1,0 -1,0 -1,-1 -1,-1 -1,-1 -1,0 0,-1 -1,-1 0,0 0,0 0,0 0,1 0,1 0,1 -1,0 -1,0 -2,-1 0,0 -1,0 -1,-1 -1,0 -2,-1 -3,-2 -1,-2 -2,-4 -3,-6 0,-1 0,-1 0,-1 0,0 1,-1 0,-1 0,0 0,0 0,0 0,-2 0,-3 0,-5 0,0 0,0 1,0 -1,-1 -1,-2 0,-2 0,0 0,0 0,0 0,0 0,0 0,0 0,0 0,-1 0,-1 0,-1 1,-2 2,-3 0,0 0,1 0,1 1,0 1,0 1,0 0,0 0,0 0,-1 0,0 0,0 -1,0 0,0 0,0 0,0 1,-1 2,-2 2,-2 3,-2 5,-3 8,-3 1,-1 2,-1 4,-1 0,0 1,0 1,0 1,0 1,0 1,0 1,0 1,0 1,1 3,0 6,2 7,5 0,0 0,0 0,0 0,0 0,0 0,0 -3,1 -6,2 -8,3 0,0 -1,0 -1,0 -1,-2 -3,-2 -4,-2 -1,1 -2,1 -2,1 -2,1 -3,2 -3,4 0,1 0,3 1,4 0,1 0,2 0,2 0,1 0,1 0,1 0,0 1,0 1,1 0,0 0,0 0,0 0,0 0,0 0,0 1,1 2,1 2,2 1,0 1,0 1,0 0,0 -1,1 -1,1 0,0 0,0 0,0 0,-1 0,-1 0,-1 -1,0 -1,1 -1,1 0,0 0,0 0,0 0,1 0,1 0,1 1,0 1,0 1,0 0,0 0,0 0,0 0,0 0,0 0,-1 0,0 0,0 1,0 0,0 0,0 0,0 0,0 0,0 0,-1 1,0 1,1 2,1 0,0 0,0 0,0 0,0 0,1 0,1 0,0 0,-1 1,-1 0,0 0,0 0,0l0 0z"/>
  <path class="fil0" d="M154 92c0,0 0,0 0,0 0,0 0,0 0,0 0,0 0,0 0,0 0,0 0,0 0,0zm-8 13c0,0 0,0 0,0 0,0 0,0 0,0 0,0 0,0 0,0 0,0 0,0 0,0zm1 -12c0,0 0,0 0,0 0,0 0,0 0,-1 0,1 0,1 0,1 0,0 0,0 0,0zm3 11l0 0 0 -1 0 1zm2 -13l0 0 0 0 0 0zm-9 5c0,0 0,0 0,0 0,0 0,0 0,0 0,0 0,0 0,0 0,0 0,0 0,0zm1 9c0,0 0,0 0,0 0,0 0,0 0,0 0,0 0,0 0,0 0,0 0,0 0,0zm17 -16c0,0 0,0 0,0 0,0 0,0 0,0 0,0 0,0 0,0 0,0 0,0 0,0zm2 1c0,0 0,0 0,0 0,0 -1,0 -1,0 0,0 1,0 1,0 0,0 0,0 0,0zm-10 20c0,0 0,0 0,0 0,0 0,0 1,0 0,0 0,0 0,0 0,0 0,0 -1,0zm-6 -7c0,0 0,0 0,0 0,0 0,0 0,0 0,0 0,0 0,0 0,0 0,0 0,0zm9 10c0,0 0,0 0,0 0,0 0,0 0,0 0,0 0,0 0,0 0,0 0,0 0,0zm-2 -24c0,0 0,0 0,0 0,0 0,0 0,0 0,0 0,0 0,0 0,0 0,0 0,0zm-11 8c0,0 0,0 0,0 0,0 0,0 0,0zm9 11c0,0 0,0 0,0 0,0 0,0 0,0 0,0 0,0 0,0zm-3 -1c0,0 0,0 0,0 0,0 0,0 0,0 0,0 0,0 -1,0 0,0 0,0 1,0 0,0 0,0 0,0zm13 5c0,0 0,0 0,0 0,0 0,0 0,-1 0,0 0,0 0,0 0,0 0,1 0,1zm6 -6c0,0 0,0 0,1 0,0 0,0 0,0 0,0 0,0 0,-1 0,0 0,0 0,0zm-20 -16c0,1 0,1 0,1 0,0 0,0 0,0 0,0 0,0 0,0 0,0 0,0 0,0 0,-1 0,-1 0,-1zm14 17c0,0 0,0 0,0 0,0 1,0 1,0 0,0 -1,0 -1,0 0,0 0,0 0,0 0,0 0,0 0,0zm1 -3c0,0 1,0 0,-1 0,0 0,0 0,0 0,1 0,1 0,1zm-15 -12c0,0 0,0 1,0 -1,0 -1,0 -1,0 0,0 0,0 0,0zm18 1c0,0 0,-1 0,-1 0,0 -1,1 -1,1 1,0 1,0 1,0zm4 4c0,0 0,0 0,0 0,0 0,0 0,0 0,0 0,0 0,0 0,0 0,0 0,0zm-14 -6c0,0 0,0 0,0 0,0 0,0 0,0 0,0 0,0 0,0zm14 12c0,0 0,0 -1,0 0,0 0,0 1,0 0,0 0,0 0,0zm-27 -8c0,0 0,0 0,0 0,-1 0,-1 0,-1 0,0 0,0 0,1 0,0 0,0 0,0 0,0 0,0 0,0 0,0 0,0 0,0 0,0 0,0 0,0zm2 0c0,0 0,0 0,0 0,0 0,0 0,0 0,0 0,0 0,0 0,0 0,0 0,0 0,0 0,0 0,0zm5 -5c0,0 0,-1 0,-1 -1,0 -1,0 -1,1 0,0 0,0 0,0 0,0 1,0 1,0zm12 10c0,0 0,1 0,0 0,0 0,0 0,0 0,0 0,0 0,0zm2 9c0,1 0,1 0,1 0,0 1,0 1,0 0,0 0,0 -1,0 0,0 0,-1 0,-1zm4 3c0,0 0,0 0,-1 0,0 0,0 0,0 0,1 0,1 0,1zm-2 -9c0,-1 0,-1 0,-1 0,0 0,0 -1,0 0,0 1,0 1,1zm-19 1c0,0 -1,0 -1,1 1,0 1,0 1,-1 0,0 0,0 0,0zm-1 -11c0,0 0,0 0,1 -1,0 -1,0 0,0 0,0 0,0 0,0 0,0 0,0 0,-1zm-4 9c0,-1 0,0 -1,0 1,0 1,0 1,0 0,0 0,0 0,0zm7 -5c0,0 0,0 0,1 0,0 0,0 1,0 0,-1 0,-1 -1,-1zm-6 -1c0,0 0,0 1,0 0,0 0,0 0,0 1,0 1,0 1,0 -1,-1 -1,-1 -2,0zm24 18c0,0 0,0 -1,0 0,0 0,1 1,1 0,0 0,0 0,-1 0,0 0,0 0,0zm-9 -3c0,-1 0,-1 0,-1 0,0 0,0 0,1 0,0 0,0 0,0zm-11 -5c0,1 0,1 0,1 1,0 1,0 1,0 0,0 0,-1 0,-1 0,0 0,0 -1,0zm1 3c0,0 0,0 0,1 0,0 1,0 1,0 0,-1 -1,-1 -1,-1zm0 -20c0,0 0,0 1,0 0,0 0,0 0,-1 -1,0 -1,1 -1,1zm0 8c-1,0 -1,0 -1,-1 0,0 0,0 0,0 0,1 -1,1 0,1 0,0 0,0 1,0zm9 13c-1,0 -1,0 -1,1 0,0 0,0 0,0 1,0 1,0 1,-1zm5 -20c0,0 0,0 -1,1 0,0 0,0 1,0 0,0 0,0 0,0 0,0 0,-1 0,-1zm-9 20c0,0 -1,1 0,1 0,0 0,0 0,0 0,0 0,-1 0,-1zm13 -18c0,-1 0,-1 0,-1 -1,0 -1,1 -1,1 1,0 1,0 1,0zm-12 -5c0,0 1,0 1,1 0,-1 0,-1 0,-2 0,0 0,0 -1,1zm-3 8c0,0 -1,0 -1,1 1,0 1,0 1,0 0,-1 0,-1 0,-1zm16 17c-1,0 -1,0 -1,0 0,1 -1,1 -1,1 0,0 1,0 1,0 0,0 0,0 0,0 0,-1 1,-1 1,-1zm-7 -13c-1,0 -1,0 -2,0 0,1 0,1 0,1 1,0 1,0 2,0 0,0 0,-1 0,-1zm2 8c-1,0 -1,0 -1,0 0,0 -1,0 -1,0 1,1 1,1 1,1 0,0 1,-1 1,-1zm-12 2c0,0 0,1 1,1 0,0 0,0 0,-1 0,0 0,0 -1,0zm12 -5c0,0 0,-1 1,-1 -1,0 -1,0 -2,0 0,0 0,0 0,0 0,0 1,1 1,1zm4 1c-1,0 -1,0 -2,0 0,0 0,1 1,1 0,0 0,0 1,-1zm-7 -14c0,0 0,0 1,0 0,1 0,1 0,1 1,0 1,0 1,-1 -1,0 -1,0 -2,0 0,0 0,0 0,0 0,0 0,0 0,0zm-11 14c-1,0 -1,0 -1,0 -1,0 -1,0 -1,0 1,0 1,0 1,0 1,0 1,0 2,0 -1,0 -1,0 -1,0 0,-1 0,-1 0,-1 0,0 0,0 0,0 0,0 0,1 0,1zm15 -12c0,0 0,0 0,0 0,0 1,0 1,0 0,0 0,0 0,0 0,-1 1,-1 1,-1 -1,0 -1,0 -1,0 0,0 0,0 0,0 -1,0 -1,0 -1,1zm-17 7c-1,0 -1,1 -1,1 0,0 0,0 0,0 0,1 0,1 1,1 0,0 0,0 0,0 0,-1 0,-1 0,-2zm18 -11c0,0 0,0 0,1 0,0 -1,0 -1,1 0,0 1,0 1,0 0,-1 0,-1 1,-1 0,0 0,0 -1,-1 0,0 0,0 0,0zm4 3c-1,1 -1,2 -1,3 0,0 1,0 1,0 0,0 1,0 1,0 0,-1 -1,-1 -1,-1 0,-1 0,-1 0,-2zm-2 18c0,0 0,0 0,0 0,0 -1,1 -1,1 0,0 0,0 0,0 0,0 0,1 0,1 1,0 1,0 2,0 0,0 0,0 0,0 0,0 0,-1 0,-1 0,0 -1,1 -1,1 0,0 0,-1 0,-1 0,-1 0,-2 1,-3 0,0 0,0 -1,0 0,0 0,-1 0,-1 0,0 0,0 -1,0 0,1 0,1 1,3zm-18 -8c0,0 0,0 0,0 0,0 0,0 0,0 0,0 0,0 0,0 0,0 0,0 0,0 0,1 0,1 0,1 0,0 1,0 1,1 0,-1 0,-2 0,-2 0,-1 0,-1 0,0 0,0 0,0 0,0 -1,0 -1,0 -1,0zm17 2c0,0 0,0 0,-1 0,0 0,0 -1,-1 0,1 0,1 0,1 0,0 0,0 0,0 0,1 0,1 1,1 0,0 0,0 0,0 0,1 0,1 0,1 0,0 0,-1 0,-1 1,0 1,0 1,0 0,0 0,0 0,0 -1,0 -1,0 -1,0zm-17 7c0,0 0,0 0,0 0,0 0,0 0,0 0,0 -1,0 -1,-1 0,0 0,0 0,0 0,0 0,0 0,0 -1,1 -1,1 -1,0 -1,0 -2,-1 -3,-2 0,-1 -1,-2 -1,-3 0,0 1,0 1,0 0,0 0,0 0,0 0,0 0,0 0,-1 -1,1 -1,1 -1,1 0,0 0,0 0,0 -1,-2 -1,-3 -1,-5 0,0 0,-1 1,-1 -1,0 -1,0 -1,-1 1,0 1,0 1,0 -1,-1 0,-1 0,-1 0,-2 0,-3 1,-5 1,-1 2,-3 3,-4 1,0 1,0 1,0 0,0 1,0 1,1 0,0 0,-1 0,-1 0,0 0,0 0,-1 1,-1 5,-2 7,-2 0,1 0,1 0,1 0,0 0,0 1,0 0,0 0,0 -1,-1 1,0 1,0 1,0 1,0 2,1 3,1 1,0 1,0 1,0 0,0 0,0 0,0 3,1 6,2 8,4 1,1 2,2 2,3 0,0 0,0 0,0 0,1 0,1 0,1 1,0 1,0 1,0 0,1 0,3 0,4 0,0 0,0 0,0 -1,0 -1,0 -2,0 0,0 0,-1 -1,-1 0,0 0,0 -1,0 0,0 -1,0 -1,0 0,0 -1,0 -1,0 0,0 0,0 0,0 -1,0 -2,-1 -2,-1 -1,0 -1,-1 -1,-1 -1,-1 -1,-2 -2,-2 -1,-1 -2,-1 -3,-1 0,0 0,0 -1,0 0,0 0,0 0,0 -1,0 -1,0 -1,0 -1,1 -2,2 -2,3 -1,0 -1,1 -1,1 0,1 0,1 -1,1 0,0 0,0 0,0 -1,0 -1,1 -1,2 0,0 1,0 1,0 0,2 0,3 0,4 0,1 0,1 0,1 0,0 0,0 -1,0 0,1 0,1 0,1 0,0 0,0 0,0 0,0 0,0 0,1 0,0 0,0 0,0 0,0 0,0 1,0 0,0 0,0 0,-1 0,0 1,0 1,0 0,1 0,1 0,1 0,0 0,0 0,0 0,0 0,0 -1,0 1,1 1,1 1,1 0,0 0,0 1,0 0,0 0,0 0,-1 0,1 0,1 1,1 0,0 0,0 1,0 0,0 0,0 0,1 0,0 0,-1 0,-1 0,0 1,0 1,0 1,0 1,0 2,0 0,1 0,1 0,2 0,-1 0,-1 0,-1 1,0 1,0 1,-1 0,0 0,0 0,0 1,0 2,-1 2,-1 0,0 0,-1 1,-1 0,0 0,0 0,0 0,0 0,0 0,0 0,0 0,-1 0,0 -1,0 -1,0 -1,0 0,0 0,0 0,0 0,-1 0,-1 0,-1 0,0 0,0 -1,0 0,0 0,0 0,1 -1,0 -2,-1 -3,-1 0,0 0,0 0,0 1,-2 1,-4 1,-5 0,0 0,0 0,0 1,0 2,0 2,0 1,0 2,0 3,0 1,1 1,1 2,1 0,0 0,0 0,0 1,1 1,0 2,1 0,0 0,-1 0,-1 1,0 3,1 4,1 0,0 0,1 0,2 0,0 0,0 0,0 0,0 -1,0 -1,0 0,0 1,0 1,0 0,0 0,0 0,0 0,0 0,1 0,1 0,0 -1,0 -1,0 0,0 0,0 0,0 0,0 0,0 0,-1 0,0 0,1 0,1 0,0 0,0 0,0 0,0 0,0 -1,0 0,1 1,1 1,2 0,-1 0,-1 0,-1 0,0 0,0 0,0 0,1 0,2 0,2 0,1 0,1 0,1 0,1 0,1 0,2 0,0 -1,0 -1,0 0,0 0,1 0,1 0,0 0,1 0,1 0,0 0,1 0,2 0,0 0,0 0,0 0,0 0,1 0,1 -2,0 -4,0 -6,-1 -1,0 0,-1 -1,-2 0,0 0,0 0,0 -1,1 -2,1 -3,1 0,0 0,0 -1,0 0,0 0,0 -1,0 0,1 0,1 0,1 0,0 -1,0 -1,0 -3,0 -5,-1 -7,-2 -1,0 -1,0 -1,-1z"/>
  <path class="fil0" d="M84 92c0,0 0,0 0,0 0,0 0,0 0,0 0,0 -1,0 -1,0 0,0 1,0 1,0zm11 10c0,0 0,0 -1,0 0,0 0,0 0,0 0,0 1,0 1,0 0,0 0,0 0,0zm-10 6c0,0 0,-1 0,-1 0,0 0,0 0,1 0,0 0,0 0,0 0,0 0,0 0,0zm-3 -11c0,0 0,0 0,0 0,0 0,0 0,0 0,0 0,0 0,0 0,0 0,0 0,0zm19 -10l0 0 0 0 0 0zm-23 5c0,0 0,0 0,0 0,0 0,0 0,0 0,0 0,0 0,0 0,0 0,0 0,0zm-1 7c0,0 0,0 0,0 0,0 0,0 0,-1 0,0 0,1 0,1 0,0 0,0 0,0zm20 8c0,0 0,0 0,0 0,0 0,0 0,0 0,0 0,0 0,0 0,0 0,0 0,0zm2 -12l0 0 0 0 0 0zm-3 -5c0,0 0,0 0,0 0,0 0,0 0,0 0,0 0,0 0,0 0,0 0,0 0,0zm-13 2c0,0 0,0 0,0 0,0 0,0 0,0 0,0 0,0 0,0 0,0 0,0 0,0zm6 2c0,0 0,0 0,0 0,0 0,0 0,0 0,0 0,0 0,0 0,0 0,0 0,0zm-7 -4c0,0 0,0 0,0 0,0 0,0 0,0 0,0 0,0 0,0 0,0 0,0 0,0 0,0 0,0 0,0zm19 10c0,0 0,0 0,0 -1,0 -1,0 -1,1 0,0 0,0 0,0 1,0 1,0 1,-1zm-17 -8c0,0 0,0 0,0 0,0 0,0 0,-1 0,0 0,0 0,0 0,1 0,1 0,1 0,0 0,0 0,0zm-6 -1c0,0 0,0 0,0 0,0 -1,0 -1,0 0,0 1,0 1,0 0,0 0,0 0,0zm21 -7c0,0 0,0 0,0 0,0 0,0 0,0 0,0 0,0 0,0 0,0 0,0 0,0 0,0 0,0 0,0zm-20 4c0,0 0,0 0,0 0,0 0,1 0,1 0,0 0,-1 0,-1 0,0 0,0 0,0zm13 -4c0,0 0,0 0,0 0,0 0,0 0,0 0,0 0,0 0,0 0,0 0,0 0,0zm-11 19c0,0 0,0 0,0 0,0 0,0 0,0 0,0 0,0 0,0 0,0 0,0 0,0zm11 -5c-1,0 -1,0 -1,1 1,0 1,0 1,-1 0,0 0,0 0,0zm2 -14c0,0 0,0 1,0 -1,0 -1,0 -1,0zm-16 19c1,0 1,-1 1,-1 0,0 0,0 0,0 0,0 -1,0 -1,0 0,0 0,0 0,0 0,0 0,1 0,1zm11 -3c0,-1 0,-1 0,-1 0,0 0,0 0,0 0,0 0,0 0,0 0,0 0,0 0,0 0,0 0,0 0,1zm2 -16c0,0 0,0 0,0 0,0 0,0 0,0 0,0 0,0 0,0 0,0 0,0 0,0zm-8 20c0,0 0,0 0,-1 -1,1 -1,1 -1,1 1,0 1,0 1,0zm-5 -1c0,-1 0,-1 0,-1 0,0 0,0 0,0 0,0 0,0 0,1zm7 -3c0,0 0,-1 0,-1 0,0 0,1 0,1 0,0 0,0 0,0zm-1 -15c0,0 0,0 0,0 0,0 0,0 -1,0 0,0 0,0 0,0 1,0 1,0 1,0zm16 10c0,-1 0,-1 0,-1 0,0 -1,0 -1,0 0,0 0,0 0,0 1,1 1,1 1,1zm-18 -7c0,1 0,1 0,1 0,0 0,0 0,0 0,0 0,0 0,-1zm14 19c0,1 0,1 0,1 0,0 0,0 0,0 0,0 1,-1 1,-1 -1,0 -1,0 -1,0 0,0 0,0 0,0zm6 -21c-1,0 -1,0 -1,0 0,1 0,1 0,1 0,0 0,0 1,-1zm-2 1c0,0 -1,0 -1,0 1,0 1,0 1,1 0,-1 0,-1 0,-1zm-12 1c0,-1 0,-1 0,-1 0,0 0,-1 0,-1 -1,0 -1,1 -1,1 0,0 0,0 1,1zm4 -1c0,0 0,0 0,-1 0,0 0,0 -1,0 0,1 1,1 1,1zm-12 3c0,0 0,0 0,0 0,0 0,-1 0,-1 0,0 0,0 0,0 0,0 -1,0 -1,0 0,0 0,1 1,1zm16 16c0,0 0,0 1,0 -1,0 -1,-1 -1,-1 0,0 0,1 0,1zm-7 -22c0,1 0,1 0,1 1,0 1,0 1,-1 -1,0 -1,0 -1,0zm12 20c0,0 0,0 0,0 0,-1 0,-1 -1,0 0,0 1,0 1,0zm-19 -12c0,-1 0,-1 0,-1 0,0 0,0 0,0 0,0 0,0 0,0 0,0 0,1 0,1 0,0 0,0 0,0 0,0 0,0 0,0zm-5 -5c1,0 1,0 1,0 0,-1 0,-1 0,-1 -1,0 -1,-1 -1,-1 0,1 0,1 0,2zm5 21c0,0 0,1 0,1 1,-1 1,-1 1,-1 -1,0 -1,0 -1,0zm16 -13c0,0 0,0 1,-1 0,0 -1,0 -1,0 0,0 0,0 0,1zm3 6c1,-1 1,-1 1,-1 -1,0 -1,0 -1,0 0,0 0,0 0,1zm-3 -10c-1,0 -1,0 -1,0 0,1 0,1 0,1 1,0 1,0 1,-1zm-3 -6c0,0 0,0 0,1 0,0 0,0 0,0 0,0 0,0 0,0 0,-1 0,-1 0,-1zm-18 3c0,0 1,0 1,0 0,0 0,-1 0,-1 0,0 0,0 -1,0 0,0 0,0 0,1zm16 10c0,0 0,0 0,1 0,0 0,0 0,0 0,0 0,0 0,-1 0,0 0,0 0,0 0,0 1,0 0,0 0,0 0,0 0,0zm-10 -3c1,0 1,0 1,1 0,-1 0,-1 0,-1 0,0 0,0 -1,0zm16 -8c-1,0 -1,0 -1,0 0,0 0,0 0,0 0,1 0,1 1,1 0,0 0,0 0,0 0,0 0,0 0,-1zm-17 15c0,1 0,1 0,1 0,0 0,1 0,1 0,-1 1,-1 1,-2 -1,0 -1,0 -1,0zm-3 -5c0,1 0,1 0,1 0,0 0,1 1,0 0,0 -1,0 -1,-1zm-1 7c0,0 -1,1 -1,1 1,0 1,0 2,0 0,0 0,0 0,0 0,0 0,-1 -1,-1 0,0 0,0 0,0zm-2 -11c1,0 1,1 1,1 0,0 0,-1 1,-1 -1,0 -1,0 -2,0zm19 -1c1,0 1,0 1,0 1,0 1,0 1,0 0,-1 0,-1 0,-1 -1,0 -1,0 -1,0 0,1 0,1 -1,1zm6 -2c-1,-1 -1,-1 -2,-1 0,1 0,1 1,2 0,-1 1,-1 1,-1zm-5 -1c0,0 0,0 0,0 0,0 1,-1 1,-1 0,0 0,0 0,0 0,0 0,0 0,0 0,0 -1,0 -1,0 0,0 0,0 -1,0 0,1 1,1 1,1zm5 18c0,0 0,0 0,0 0,0 1,1 1,1 0,0 0,0 0,0 1,0 1,-1 1,-1 -1,0 -1,0 -2,0zm-3 -18c0,0 -1,0 -1,0 0,0 0,0 0,0 0,0 0,0 0,0 0,1 -1,1 -1,1 1,0 1,0 1,0 1,0 1,0 1,0 0,-1 0,-1 0,-1zm-17 9c0,1 0,1 0,1 0,1 0,1 0,1 0,0 0,0 0,0 0,-1 0,-1 0,-2 0,0 0,0 0,0 0,-1 0,-1 -1,-1 0,1 0,1 0,1 0,0 0,0 1,0zm17 7c2,1 2,1 2,0 -1,0 -1,0 -2,0 0,0 0,-1 0,-1 0,0 0,0 0,0 0,0 0,0 0,0 0,0 -1,0 -1,0 0,-1 0,-1 0,-1 0,0 0,0 0,1 -1,0 -1,0 -1,-1 0,1 0,1 0,1 0,0 0,0 0,0 0,0 1,1 1,1 0,0 0,0 0,-1 0,0 0,0 0,0 0,0 1,1 1,1zm-19 -10c0,0 0,0 0,0 0,0 0,-1 1,-1 0,0 0,-1 1,-1 0,-1 -1,-1 -1,-1 0,0 -1,0 -1,0 0,0 0,1 0,1 0,0 0,0 -1,0 1,1 1,1 1,2zm1 -11c-1,0 -1,0 -1,0 0,1 0,1 0,2 0,0 0,0 0,1 1,0 1,0 1,0 0,0 0,0 1,-1 0,0 0,1 0,1 0,-1 0,-1 0,-1 0,0 -1,0 -1,-1 0,0 0,0 0,0 0,-1 0,-1 0,-1zm17 14c0,0 0,1 0,2 0,0 0,1 0,1 -1,0 0,0 0,0 0,0 0,0 0,0 0,0 0,0 0,-1 0,0 0,0 0,0 1,0 1,-1 1,-1 0,0 0,-1 -1,-1 0,-1 0,-1 0,-2 1,0 1,0 1,0 0,0 0,-1 0,-1 0,1 -1,0 -1,0 0,0 0,0 -1,0 0,1 1,1 1,1 -1,0 -1,1 -1,1 0,0 1,0 1,1zm-5 -3c0,0 0,0 0,1 0,0 0,0 0,0 0,0 1,0 1,0 0,-1 0,-1 1,-1 0,0 0,0 -1,-1 0,0 0,1 0,1 0,0 0,-1 -1,-1 0,0 0,0 0,0 0,0 0,-1 0,-1 1,0 1,0 2,-1 0,0 0,0 0,0 0,0 1,0 0,0 0,-1 0,-1 0,-1 0,-1 0,-1 0,-2 -1,0 -1,0 -2,0 0,0 0,0 -1,0 0,-1 0,0 -1,-1 0,0 0,0 0,-1 -1,1 0,1 0,2 -1,0 -1,0 -1,0 0,-1 0,-1 0,-1 -1,0 -1,0 -1,0 0,0 0,0 0,0 -1,0 -1,0 -2,0 0,0 0,0 0,0 0,1 -1,1 0,2 0,0 -1,0 -1,0 0,0 0,-1 0,-1 0,1 0,1 0,1 0,0 0,0 1,0 0,1 0,2 0,3 0,0 0,0 0,0 0,0 -1,1 -1,1 0,0 1,0 1,0 0,0 0,1 0,1 0,-1 1,-1 1,-1 0,0 1,0 2,0 0,0 0,0 0,0 1,0 1,0 1,0 0,0 0,0 0,0 1,0 1,0 1,0 1,0 0,0 0,1 0,0 0,0 1,0zm-10 0c-1,0 -1,0 -1,0 0,0 -1,0 -1,0 0,0 0,1 1,1 0,0 0,0 0,0 0,0 0,0 0,0 0,0 0,0 0,0 0,0 1,0 1,0 0,0 1,0 1,1 0,0 0,0 0,0 0,0 0,0 0,-1 0,0 0,0 0,0 0,0 0,0 0,0 0,0 0,0 -1,0 0,0 0,-1 0,-1 0,0 0,0 0,0 0,0 0,0 1,0 -1,-1 -1,-1 -1,-1 0,0 0,1 0,1zm1 -9c0,0 0,0 0,0 0,0 0,0 0,0 0,0 0,0 0,0 0,0 0,0 0,0 0,1 1,1 1,1 0,1 -1,1 -1,1 1,0 1,0 1,0 1,0 1,-1 1,-2 0,0 -1,0 -1,0 0,0 0,0 0,1 0,0 0,-1 -1,-1zm16 18c0,0 0,0 0,1 0,-1 0,-1 0,-1 0,0 0,0 0,-1 0,1 0,1 0,1 0,-1 0,-1 0,-1 0,0 0,0 -1,0 0,0 0,0 0,0 0,0 0,0 0,1 1,0 1,0 1,0zm2 -15c0,0 -1,-1 -1,-1 0,1 0,1 1,1 0,0 0,0 0,0 0,0 0,-1 0,-1 0,0 0,0 0,0 0,0 0,0 0,0 0,0 0,1 0,1zm-20 20c-1,0 -1,0 -2,0 0,0 0,0 1,0 0,0 0,0 0,0 -1,1 -1,1 -2,1 0,-1 0,-1 0,-1 -1,0 -1,0 -1,0 0,0 0,0 0,0 0,1 0,1 0,1 0,-1 0,-1 0,-1 0,-2 0,-3 0,-4 0,-1 0,-1 0,-1 0,0 0,0 0,0 0,-1 0,-2 0,-3 -1,0 -1,-1 -1,-2 0,0 0,-1 0,-2 0,0 0,0 0,0 1,0 1,0 1,0 0,0 0,0 0,1 1,-1 0,-1 1,-1 0,0 1,0 1,0 0,0 1,-1 1,-1 -1,0 -1,0 -1,0 0,0 0,0 0,-1 0,0 0,0 -1,-1 0,1 0,1 0,1 0,0 0,0 -1,0 0,1 0,1 1,1 -1,0 -1,0 -2,0 0,0 0,-1 0,-2 0,-1 0,-1 0,-2 0,0 0,0 1,0 0,0 0,0 0,0 0,0 0,0 0,-1 0,0 0,0 0,0 0,0 0,-1 0,-1 0,0 0,0 -1,0 0,0 0,0 0,0 0,-1 0,-3 0,-4 0,-1 0,-2 0,-3 0,0 1,0 1,0 1,0 1,0 1,0 0,0 0,0 0,0 0,0 1,0 1,0 0,0 0,0 1,0 0,0 0,0 0,0 1,-1 2,-1 3,-1 0,1 1,1 1,1 0,0 1,0 1,0 0,0 0,0 0,1 1,0 2,0 2,0 0,-1 0,-1 0,-1 0,-1 0,-1 0,-1 0,0 1,0 1,0 1,0 1,0 1,1 0,-1 0,-1 1,-1 0,0 1,0 2,0 1,0 1,0 2,0 0,0 1,0 1,0 1,0 2,0 2,1 1,0 2,0 3,1 0,0 0,0 0,0 0,0 1,0 1,0 -1,0 -1,1 -1,1 1,0 1,0 2,0 1,1 1,5 0,8 0,0 0,-1 0,-1 0,0 0,0 -1,0 0,0 0,0 0,0 0,1 0,1 0,2 0,0 0,0 0,0 0,1 -1,1 -2,2 0,0 0,0 0,0 0,0 0,0 0,0 1,1 2,1 3,2 0,0 0,0 0,0 0,0 0,1 0,1 0,0 0,0 0,0 0,0 0,0 0,0 0,0 0,0 0,0 0,0 1,0 1,0 0,0 0,0 0,0 0,0 0,0 0,1 0,0 0,1 0,2 0,0 0,0 0,0 1,1 1,1 1,2 -1,0 -1,0 -1,0 0,0 0,0 0,0 1,1 1,1 1,2 0,0 0,1 0,1 0,1 0,1 0,1 0,0 0,0 0,0 0,0 0,1 0,1 0,0 0,0 -1,0 -1,0 -3,0 -4,0 -1,0 -1,0 -1,0 0,-1 0,-1 0,-1 -1,0 -1,0 -1,0 0,0 0,0 0,1 -1,0 -1,0 -2,0 0,-1 -1,-3 -1,-5 1,1 1,1 1,1 0,-1 0,-1 0,-1 -1,0 -1,-1 -1,-1 0,-1 0,-2 -1,-3 0,0 0,0 0,0 -1,0 -1,0 -1,-1 0,0 0,0 0,0 -1,0 -1,0 -1,0 0,0 0,0 0,0 0,0 0,0 -1,-1 0,0 0,0 0,0 0,0 0,0 0,1 0,0 0,0 0,0 0,1 0,1 -1,1 0,0 -1,0 -2,0 0,0 0,0 0,-1 0,0 0,0 -1,0 0,0 0,0 0,0 0,0 0,1 0,1 0,0 0,1 0,1 -1,0 -1,0 -2,0 0,0 0,0 -1,0 0,0 0,1 0,1 1,0 1,0 2,0 0,0 1,0 1,0 0,0 0,0 0,0 0,0 0,0 0,0 0,0 -1,1 -1,1 1,0 1,0 1,0 0,0 0,0 0,0 0,1 0,2 0,3 0,0 0,1 0,1 0,1 0,1 0,2 0,0 0,0 0,0 0,0 0,0 0,0 -1,0 -1,0 -1,0 0,0 0,0 0,0 -1,0 -1,0 -1,0 -1,0 -2,0 -3,0 0,0 0,0 -1,0 0,0 0,0 0,0 1,0 1,0 1,0 0,0 0,0 1,0 -1,0 -1,0 -1,-1 0,0 0,0 0,0 -1,1 -1,1 0,1z"/>
  <path class="fil0" d="M192 121c0,0 0,0 0,0 0,0 0,0 0,0 0,0 0,0 0,0 0,0 0,0 0,0zm14 -21l0 0c0,0 0,0 0,0 -5,-2 -10,-4 -15,-5 0,0 0,0 0,0 0,0 0,0 0,0 0,0 0,0 0,-1 -2,0 -4,-1 -6,-2 0,0 0,0 0,0 0,0 0,0 0,0 0,1 0,1 0,1 0,0 0,0 0,0 -1,0 -1,-1 -2,-1 0,0 0,0 0,0 -2,5 -3,9 -5,14 0,1 -1,3 -1,4 -1,2 -2,3 -2,5 0,0 0,0 0,0 0,1 0,1 -1,1 0,1 0,1 0,1 1,0 1,0 2,1 0,-1 0,-1 1,-1 0,0 0,1 0,1 0,0 0,0 1,0 0,0 0,0 0,0 0,0 1,0 1,1 0,0 1,0 1,0 0,0 0,0 0,0 0,0 0,0 1,0 0,0 0,0 0,0 0,0 0,-1 0,-1 0,0 0,0 0,0 0,-1 1,-1 1,0 0,0 0,0 0,0 0,0 -1,0 -1,0 0,0 0,1 0,1 0,0 0,0 0,0 0,0 -1,0 -1,0 1,0 1,0 1,0 1,1 2,1 4,2 0,0 0,0 0,0 0,0 0,-1 0,-1 1,0 1,0 1,0 0,0 0,1 0,1 0,0 0,0 1,0 0,1 1,1 2,1 0,0 0,0 0,-1 1,1 1,1 1,2 1,0 1,0 1,0 0,0 0,-1 0,-1 0,0 1,0 1,0 0,0 0,1 0,1 0,0 0,0 0,0 0,0 0,0 0,0 0,0 1,1 1,1 1,0 1,0 1,0 0,-1 0,-1 0,-1 0,0 1,0 1,0 0,0 0,0 0,0 0,1 0,1 0,1 0,1 1,1 1,1 0,0 1,0 1,0 0,0 0,0 0,0 1,-1 1,-2 2,-3 0,-1 0,-2 0,-2 0,-1 0,-1 0,-1 0,0 -1,0 -1,0 0,0 0,0 0,0 -1,-1 -2,-1 -3,-1 0,0 -1,0 -1,0 0,0 0,0 0,-1 0,0 0,0 0,0 -1,0 -1,0 -1,0 0,0 0,0 0,0 0,0 0,0 0,0 0,0 -1,0 -1,0 0,0 0,0 0,0 0,-1 0,-1 -1,-1 -1,0 -2,-1 -3,-1 0,0 -1,0 -1,0 -1,0 -1,-1 -1,-1 -1,0 -1,-1 -1,-1 1,0 1,0 1,0 0,-1 0,-1 0,-2 1,0 1,0 1,0 -1,-1 0,-1 0,-1 0,0 0,0 0,0 0,0 0,0 1,0 0,0 0,0 0,0 0,0 0,0 0,0 0,0 0,-1 0,-1 0,1 1,1 1,1 0,0 -1,0 -1,1 0,0 1,0 1,0 1,0 1,0 2,1 1,0 2,0 3,1 0,0 0,0 0,0 0,0 0,0 0,0 0,-1 0,-1 0,-1 0,0 0,0 0,0 0,1 0,1 0,1 1,0 1,0 1,0 0,-1 0,-1 0,0 0,0 0,0 0,0 1,0 2,1 3,1 1,0 0,0 0,-1 0,0 0,0 0,-1 1,0 1,0 1,0 0,-1 1,-2 1,-3 0,-1 0,-1 0,-1 -1,0 -2,0 -3,-1 -2,-1 -5,-2 -7,-2 0,0 -1,0 -1,-1 0,-1 1,-2 1,-3 1,0 1,0 2,0 0,1 0,0 0,0 0,1 1,1 1,1 0,0 1,0 1,0 3,1 6,3 9,4 0,0 1,0 1,0 0,-1 1,-4 1,-5 0,0 0,0 0,0 0,0 0,0 0,0 1,-1 1,-1 1,-1zm-7 9c0,0 0,0 0,0 0,0 0,0 0,0 0,0 0,0 0,0 0,0 0,0 0,0zm-1 14c0,0 0,0 0,-1 0,1 0,1 0,1 0,0 0,0 0,0 0,0 0,0 0,0zm-20 -6c0,0 0,0 0,0 0,0 0,0 0,0 0,0 0,0 0,0 0,0 0,0 0,0zm20 -9c0,0 0,0 0,0 0,0 0,0 0,0 0,0 0,0 0,0 0,0 0,0 0,0zm-1 13c0,0 0,0 0,0 0,0 0,0 0,0 0,0 0,0 0,0 0,0 0,0 0,0zm-5 -10c0,0 0,0 0,0 0,0 -1,0 -1,0 0,0 1,0 1,0 0,0 0,0 0,0zm-1 -1c0,-1 0,-1 0,-1 0,0 0,0 0,0 0,0 0,0 0,0 0,0 0,0 0,0 0,1 0,1 0,1zm12 -7c0,0 0,0 0,0 0,0 0,0 0,0 0,0 0,0 0,0 0,0 0,0 0,0 0,0 0,0 0,0zm-11 18c1,1 1,1 1,0 0,0 -1,0 -1,0zm-6 -15c0,1 0,1 0,1 0,0 0,0 0,0 0,0 0,0 0,0 0,0 0,0 0,-1zm-6 9c1,0 1,-1 0,-1 0,0 0,0 0,0 0,0 0,1 0,1zm10 7c0,-1 0,-1 0,-1 0,0 0,0 0,1zm-8 -11c0,-1 0,-1 0,-1 0,0 0,0 0,1zm13 8c-1,0 -1,0 -1,0 0,0 0,0 0,0 0,0 0,0 0,0 0,0 0,0 1,0zm-15 -11c0,0 0,0 -1,0 0,0 0,0 0,0 0,0 0,0 0,0 0,0 1,0 1,0zm-1 -3c0,0 0,0 0,0 0,0 0,0 0,0 0,1 0,1 0,1 0,0 0,-1 0,-1 0,0 0,0 0,0zm5 -1c-1,0 -1,1 -1,1 0,0 0,0 0,0 0,0 1,0 1,0 0,0 0,0 0,-1zm0 4c0,0 0,0 0,0 0,0 0,0 0,1 0,-1 0,-1 0,-1zm-1 -11c0,0 0,0 0,0 0,0 0,0 -1,0 1,0 1,0 1,0zm14 12c0,0 0,0 0,0 0,0 0,0 0,0 0,0 1,0 0,0 0,0 0,0 0,0zm-18 5c0,0 0,0 -1,0 0,0 0,0 0,0 0,0 1,0 1,0zm4 -14c0,1 1,1 1,1 0,0 0,0 0,0 0,-1 0,-1 -1,-1zm0 -3c0,1 1,1 1,1 0,0 0,-1 0,-1 0,0 0,0 -1,0zm6 10c0,0 1,0 1,-1 -1,0 -1,0 -1,0 0,1 0,1 0,1zm-5 -9c-1,1 -1,1 0,1 0,0 0,0 0,0 0,0 0,0 0,-1zm17 1c0,0 -1,0 -1,-1 0,1 0,1 0,1 0,0 0,0 1,0zm-6 22c0,-1 0,-1 0,-1 0,0 0,0 0,0 0,0 0,0 0,0 -1,0 -1,0 -1,0 0,0 0,0 0,1 0,0 1,0 1,0zm-6 -2c1,0 1,-1 1,-1 0,0 -1,0 -1,0 0,0 0,0 0,0 0,0 0,0 0,1 0,0 0,0 0,0zm8 3c0,0 0,0 0,0 0,0 0,0 0,1 0,0 0,0 0,0 0,-1 0,-1 0,-1 0,0 0,0 0,0zm5 -21c0,0 0,0 1,0 0,0 0,0 0,-1 0,0 -1,0 -1,1zm-10 18c0,0 0,0 1,0 0,-1 0,-1 0,-1 -1,0 -1,0 -1,0 0,0 0,0 0,1zm-4 -11c0,0 -1,0 -1,0 0,0 0,0 1,0 0,0 0,0 0,0zm-4 2c0,0 0,0 0,-1 0,1 -1,1 -1,1 1,0 1,0 1,0zm12 1c1,0 1,0 2,0 0,0 0,0 0,0 0,-1 0,-1 0,-1 -1,0 -1,0 -2,0 0,0 0,0 0,1zm-10 -12c0,0 0,0 0,0 -1,0 -1,0 -1,-1 0,0 0,0 -1,0 0,1 0,1 1,1 0,0 0,0 1,0zm0 8c0,1 0,1 1,2 0,0 0,0 0,-1 0,0 0,0 0,0 0,-1 0,0 1,-1 0,0 0,0 0,0 -1,0 -1,0 -2,0zm0 -10c0,-1 0,-1 0,-2 -1,1 -1,2 -1,2 0,0 0,0 1,0zm16 6c0,0 0,-1 0,-2 0,0 0,0 0,0 -1,1 -1,1 -2,2 0,0 0,1 1,1 0,0 0,-1 0,-1 0,0 0,0 1,0zm-18 12c0,0 -1,0 -1,0 0,0 0,0 0,1 0,0 0,0 1,0 0,0 0,-1 0,-1 0,0 0,0 0,0 0,0 0,0 1,-1 0,0 0,0 -1,0 0,0 0,0 0,0 0,0 0,0 0,0 0,1 0,1 0,1zm7 -18c0,0 0,0 0,0 0,1 0,1 0,1 0,0 0,1 0,1 0,-1 1,-1 0,-2 1,0 1,0 1,1 0,0 0,-1 0,-1 0,0 0,0 0,0 -1,0 -1,0 -1,0z"/>
  <path class="fil0" d="M133 102l0 0 0 0 0 0zm1 5c0,0 0,0 0,0 0,0 0,0 0,0 0,0 0,0 0,0 0,0 0,0 0,0zm-2 -10c0,0 0,0 0,0 0,0 0,0 0,0 0,0 0,0 0,0 0,0 0,0 0,0zm-2 -7c0,0 -1,0 -1,0 0,0 1,0 1,0 0,0 0,0 0,0 0,0 0,0 0,0zm-4 11c0,0 0,0 0,0 0,0 0,0 0,0 0,0 0,0 0,0 0,0 0,0 0,0zm7 8c0,0 0,0 0,0 0,0 0,0 0,0 0,0 0,0 0,0 0,0 0,0 0,0zm-19 -6c0,0 0,0 0,0 0,0 0,0 0,0 0,0 0,0 0,0zm19 4c0,0 0,0 0,0 0,0 0,0 0,0 0,0 0,0 0,0 0,0 0,0 0,0zm-14 -6c0,0 0,0 0,0 0,0 0,0 0,0 0,0 0,0 0,0 0,0 0,0 0,0zm1 -14c0,0 0,0 0,0 0,0 0,1 0,1 0,0 0,-1 1,-1 0,0 -1,0 -1,0zm12 19c0,0 0,0 0,0 0,-1 0,-1 0,-1 0,1 0,1 0,1 0,0 0,0 0,0zm-3 -9c0,0 0,0 0,0 0,0 0,0 0,0 0,0 0,0 0,0 0,0 0,0 0,0zm-13 6c0,0 0,0 0,1 0,-1 0,-1 0,-1zm12 3c0,0 0,0 0,0 0,0 0,0 0,0 0,0 0,0 0,0 0,0 0,0 0,0zm-2 -4c0,0 0,0 0,0 0,0 0,0 0,0 0,0 0,0 0,0 0,0 0,0 0,0zm-5 -18c0,0 0,0 0,0 0,0 0,0 0,-1 0,0 0,0 0,0 0,1 0,1 0,1 0,0 0,0 0,0zm8 20c0,0 1,0 1,0 0,0 0,-1 -1,-1 0,0 0,1 0,1zm-3 -10c0,0 0,0 0,0 0,0 0,0 0,0 0,0 0,0 0,0 0,0 0,0 0,0 0,0 0,0 0,0 0,0 0,0 0,0 0,0 0,0 0,0zm-17 12c0,0 0,0 0,0 0,0 -1,0 -1,0 0,0 0,0 0,0 0,0 0,0 0,0 0,0 0,0 1,0 0,0 0,0 0,0zm8 -11c0,0 0,0 1,0 0,0 0,0 -1,0zm0 -4c0,0 0,0 0,0 0,0 0,0 0,0 0,0 1,0 1,0 0,0 0,0 0,0 0,0 0,0 -1,0zm-2 1c-1,0 0,0 0,1 0,0 0,0 0,0 0,0 0,-1 0,-1 0,0 0,0 0,0zm4 0c0,1 0,1 0,1 0,0 0,0 0,0 0,0 0,0 0,-1zm0 -7c0,0 0,0 0,0 0,0 1,0 1,0 -1,0 -1,0 -1,0zm-8 22c0,0 1,0 1,0 0,0 0,0 0,0 0,0 0,0 0,0 0,-1 0,-1 -1,0 0,0 0,0 0,0zm1 -3c1,0 1,0 1,-1 0,0 0,0 0,0 0,0 -1,0 -1,1zm4 -2c0,0 0,0 0,0 0,-1 0,-1 0,-1 -1,0 -1,0 -1,0 0,0 1,0 1,1zm2 -5c0,0 0,0 0,-1 0,0 0,0 -1,0 1,1 1,1 1,1zm1 -13c0,-1 0,-1 0,-1 0,0 0,1 0,1 0,0 0,0 0,0zm1 11c0,0 -1,0 -1,0 0,1 0,1 1,1 0,0 0,-1 0,-1zm10 10c0,-1 0,-1 0,-1 0,0 0,0 0,0 0,0 0,0 0,0 0,1 0,1 0,1 0,0 0,0 0,0 0,0 0,0 0,0 0,0 0,0 0,0zm-14 -2c1,0 1,0 1,0 0,-1 0,-1 0,-1 -1,0 -1,0 -1,1zm16 3c0,0 0,1 0,1 0,0 0,0 0,0 0,0 0,0 0,0 0,0 1,0 1,0 0,0 0,-1 -1,-1 0,0 0,0 0,0zm-20 -7c0,0 0,1 1,1 0,0 0,0 0,0 0,0 0,-1 0,-1 0,0 0,0 0,0 0,0 0,0 -1,0zm8 -4c0,-1 0,-1 -1,-1 0,0 0,0 0,1 0,0 0,0 1,0zm7 8c0,0 1,0 1,0 0,0 0,-1 -1,-1 0,0 0,1 0,1zm1 -1c0,-1 0,-1 0,-1 0,0 0,0 -1,0 0,0 0,0 0,1 1,0 1,0 1,0zm-12 -5c-1,0 -1,0 -1,1 0,0 1,0 1,0 0,0 0,-1 0,-1zm9 6c0,0 0,0 0,-1 0,0 0,0 0,0 -1,1 -1,0 -1,1 0,0 0,0 0,0 0,0 1,0 1,0zm1 1c1,0 1,-1 1,-1 0,0 0,0 0,0 -1,0 -1,0 -1,0 0,0 0,0 0,0 0,0 0,1 0,1zm1 -18c0,0 0,0 0,1 0,0 1,0 1,0 0,0 0,-1 -1,-1zm7 18c0,-1 0,-1 0,-1 0,0 -1,0 -1,0 0,0 0,1 0,1 1,0 1,0 1,0zm-16 -3c0,0 0,0 0,0 0,0 0,0 0,0 1,-1 1,-1 1,-1 0,0 0,-1 0,-1 0,0 0,0 0,0 -1,1 -1,1 -1,2zm2 -12c0,0 0,0 0,0 -1,0 -1,0 -1,0 0,0 0,0 -1,0 0,0 0,0 0,0 1,0 1,0 1,0 0,0 0,0 0,0 0,1 0,1 1,1 0,0 0,0 0,-1zm10 10c0,-1 0,-1 0,-1 0,0 0,0 0,-1 0,0 0,0 1,0 0,0 0,0 0,0 0,0 0,0 0,0 0,0 -1,0 -1,0 0,0 0,0 0,0 0,0 -1,0 -1,1 0,0 1,0 1,1zm-13 1c0,-1 -1,-1 -1,-1 0,0 0,0 0,0 0,0 0,0 0,0 -1,0 -1,0 -1,0 0,0 0,0 0,0 0,1 0,1 1,1 0,0 0,0 1,0zm-1 -6c0,1 -1,1 -1,2 0,0 0,0 0,1 0,0 1,-1 2,-1 0,0 0,0 0,0 0,0 0,0 -1,0 0,0 0,0 0,0 0,0 0,0 0,-1 0,0 0,0 0,-1zm11 2c0,0 0,0 0,0 1,0 1,0 1,0 0,-1 0,-1 -1,-2 0,0 0,0 0,0 0,0 0,0 0,-1 0,1 -1,1 -1,2 0,0 1,0 1,1zm-15 6c0,1 0,1 0,1 0,0 0,0 0,0 0,0 0,0 0,0 0,0 0,-1 0,-1 0,0 0,0 0,-1 1,1 1,1 1,1 0,0 0,0 0,-1 0,0 0,0 0,-1 -1,0 -1,0 -1,0 0,1 0,1 0,1 0,0 0,1 -1,1 0,0 0,0 0,0 0,0 0,0 1,0zm1 5c0,0 0,0 1,0 0,0 0,0 0,0 0,-1 0,-1 0,-1 0,0 0,0 0,-1 0,0 0,0 0,0 0,0 0,0 0,-1 0,0 -1,0 -1,0 0,0 0,1 0,1 0,0 0,0 0,0 0,0 0,0 0,0 0,0 0,0 0,0 0,0 0,0 0,0 -1,1 -1,1 0,2 0,0 0,0 0,0zm17 -6c0,-1 0,-1 0,-1 0,0 0,-1 0,-1 -1,0 -1,1 -1,0 -1,1 0,1 0,1 0,0 0,0 0,1 0,0 0,0 0,0 0,1 0,1 0,1 0,1 1,1 2,0 0,0 0,-1 0,-1 -1,0 -1,0 -1,0zm-4 -5c-1,0 -1,0 -2,0 0,0 0,-1 0,-1 0,0 0,-1 0,-1 0,0 -1,-1 0,-2 -1,0 -1,0 -1,0 0,-1 0,-1 0,-1 0,0 0,0 -1,0 0,0 0,0 0,0 0,0 -1,0 -1,0 0,1 0,1 1,2 0,0 0,1 -1,1 0,0 0,0 0,-1 0,1 0,1 0,1 0,0 0,0 0,0 0,2 -1,3 -1,4 -1,0 -1,0 -1,1 0,0 0,0 0,0 0,0 0,1 0,1 1,0 2,0 2,0 1,0 2,0 2,0 1,0 2,0 2,0 0,0 0,-1 0,-1 0,-1 0,-1 0,-1 0,0 1,-1 0,-1 0,0 0,0 1,0 0,0 0,0 0,-1zm-1 -4l0 0c0,0 0,0 0,0 0,1 -1,1 0,1 0,0 0,0 1,0 0,-1 0,-2 -1,-2 0,0 0,0 0,0 0,0 -1,0 -1,0 0,0 0,1 1,1zm2 5c1,1 1,1 1,2 0,0 0,0 1,0 0,0 0,0 0,0 -1,-1 -1,-1 -1,-1 0,-1 0,-1 0,-1 0,0 0,0 0,0 -1,0 -1,0 -1,0 0,0 0,0 0,0 0,0 -1,0 -1,0 0,0 0,1 1,1 0,-1 0,-1 0,-1zm-2 8c0,0 0,0 0,0 0,0 0,1 0,1 -1,0 -2,0 -3,0 -1,-1 -1,-1 -1,-1 0,0 0,0 0,0 -1,0 -1,0 -1,1 -1,0 -2,0 -3,-1 0,1 0,1 0,1 0,1 -1,2 -1,2 0,1 0,1 0,1 0,0 -1,0 -1,0 0,0 0,0 0,0 0,-1 0,-1 0,-1 0,0 1,-1 1,-2 0,0 -1,0 -1,0 0,1 0,1 0,2 0,0 0,0 -1,0 0,0 0,0 0,1 -1,0 -1,0 -1,-1 0,0 0,0 0,0 0,1 0,1 0,1 0,0 -1,0 -1,0 0,0 0,0 0,0 -1,0 -1,0 -2,0 0,0 -1,0 -1,0 0,-1 0,-1 0,-1 -1,0 -1,0 -1,1 0,0 -1,0 -2,-1 1,0 1,0 1,0 1,-3 2,-5 3,-7 2,-4 3,-7 5,-11 1,-2 2,-5 3,-7 0,0 0,-1 0,-1 1,0 1,0 2,0 0,0 1,0 2,0 0,1 0,1 1,1 0,0 0,0 0,0 0,0 0,0 0,-1 0,0 0,0 0,0 0,0 1,0 2,0 -1,1 0,1 -1,2 1,0 1,0 1,0 0,0 0,0 0,-1 0,0 0,0 0,0 0,-1 1,-1 1,0 0,0 0,0 0,0 0,0 0,0 0,0 0,0 1,-1 1,0 0,0 1,0 1,0 0,0 2,4 2,5 0,1 0,1 0,1 0,0 0,0 0,1 0,-1 0,-1 0,-1 1,1 2,4 2,5 0,1 0,1 -1,1 0,-1 0,-1 0,-1 0,0 0,0 0,0 0,0 0,1 0,1 0,0 1,0 1,0 0,1 1,2 2,5 0,0 -1,0 -1,0 0,0 1,0 1,0 0,0 0,0 0,1 0,1 1,2 1,3 0,0 0,0 0,1 0,0 0,0 0,0 1,0 1,0 1,0 0,1 0,1 0,2 0,0 0,0 0,0 0,1 0,1 1,2 0,0 0,0 0,1 0,0 0,0 0,0 -1,0 -2,0 -3,0 0,0 0,0 -1,0 -1,0 -2,0 -3,0 0,-1 0,-1 0,-2 0,0 1,0 1,0 0,0 0,-1 0,-1 -1,0 -1,0 -1,0 -1,0 -1,0 -1,-1 0,0 0,1 0,1 0,0 0,0 0,0 0,1 0,1 1,1 -1,0 -1,0 -1,0 0,1 0,1 0,2 0,0 -1,0 -1,0 -1,-1 -1,-1 0,-2 0,0 -1,0 -1,0 0,0 0,0 1,-1 0,0 0,0 -1,0 0,0 0,-1 0,-1 0,-1 0,-1 0,-1 0,0 -1,0 -1,1 0,0 0,0 0,0 0,0 0,0 -1,-1 1,0 1,1 1,0 0,0 0,0 0,-1 0,0 -1,0 -1,0 0,1 0,1 0,1z"/>
  <path class="fil0" d="M64 108c0,0 0,0 0,0 0,0 0,0 0,0 0,0 0,0 0,0 0,0 0,0 0,0zm-17 -1c0,1 0,1 0,1 0,0 0,0 0,0 0,0 0,0 0,0 0,0 0,0 0,-1zm6 -4c0,0 0,0 0,0 0,0 0,0 0,0 0,0 0,0 0,0 0,0 0,0 0,0zm10 -4c0,0 0,0 0,0 0,0 0,0 0,0 0,0 0,0 0,0 0,0 0,0 0,0zm0 3c0,0 0,0 0,0 0,0 0,0 0,0 0,0 0,0 0,0 0,0 0,0 0,0zm0 3c0,0 0,0 0,0 0,0 0,0 0,0 1,0 1,0 1,0 0,0 -1,0 -1,0zm-8 -19c0,0 0,0 0,0 0,0 0,0 0,0 0,0 0,0 0,0 0,0 0,0 0,0zm1 0c0,0 0,0 0,0 0,0 -1,0 -1,0 0,0 0,0 0,0 1,0 1,0 1,0zm-9 20c0,0 0,0 0,0 0,0 0,0 0,0 0,0 0,0 -1,0 0,0 0,0 0,0 0,0 1,0 1,0zm22 -2c0,0 0,0 0,1 0,0 0,0 0,0 0,0 0,0 0,0 0,0 0,-1 0,-1zm-6 -10c0,0 0,0 0,0 0,0 -1,0 -1,0 0,0 0,0 1,0 0,0 0,0 0,0 0,0 0,0 0,0zm-5 -4c0,1 0,1 0,1 0,0 0,0 0,0 0,0 0,0 0,0 0,0 0,0 0,-1zm8 20c-1,0 -1,0 -1,0 0,0 0,0 0,1 0,0 0,0 0,0 0,0 0,-1 1,-1zm-8 -5c0,0 -1,0 -1,0 0,0 0,0 0,0 0,0 0,0 0,0 0,0 1,0 1,0zm1 -14c0,0 1,0 1,0 0,0 0,-1 0,-1 -1,0 -1,0 -1,0 0,1 0,1 0,1zm-8 13c-1,1 -1,1 -1,1 0,0 1,0 1,0 0,0 0,0 0,0 0,0 0,0 0,-1zm10 -8c0,0 0,0 0,0 0,0 0,0 0,0zm4 10c0,0 0,1 0,1 0,0 0,-1 0,-1 0,0 0,0 0,0zm-1 0c0,0 1,0 1,0 0,-1 0,-1 0,-1 -1,0 -1,0 -1,1zm-2 -6c0,0 0,0 0,0 0,0 0,0 0,0 0,0 0,0 0,0 0,0 0,0 0,0 0,1 0,1 0,1 0,0 0,-1 0,-1zm-9 5c0,0 0,0 0,0 0,0 0,0 0,0 0,0 0,0 0,0zm4 -18c0,0 0,0 0,0 0,0 0,0 0,0 0,0 0,0 0,0 0,0 0,0 0,0 0,0 0,0 0,0zm9 16c0,0 0,0 0,-1 -1,0 -1,0 -1,0 0,1 0,1 0,1 0,0 1,0 1,0zm-9 -7c0,-1 0,-1 0,-1 0,0 0,0 0,0 0,0 0,0 0,0 0,0 0,0 0,1zm-5 0c0,1 0,1 1,1 0,0 0,0 0,0 -1,0 -1,-1 -1,-1zm6 -8c0,0 0,0 0,0 0,0 0,-1 0,-1 0,0 0,0 0,0 0,1 0,1 0,1zm-8 10c0,0 0,0 0,-1 0,0 0,0 0,0 0,1 0,1 0,1zm10 -1c0,0 0,-1 0,-1 -1,1 -1,1 -1,1 0,0 1,0 1,0zm-7 3c0,0 0,0 1,1 0,-1 0,-1 0,-1 0,0 -1,0 -1,0zm-3 1c0,0 0,0 0,1 0,0 0,-1 0,-1 0,0 0,0 0,0zm5 5c-1,0 -1,0 -1,0 0,0 0,1 0,1 0,0 0,-1 1,-1zm4 -15c0,0 0,0 0,0 0,1 0,1 0,1 0,0 0,0 0,0 1,0 1,0 1,0 0,0 -1,-1 -1,-1 0,0 0,0 0,0zm4 17c0,-1 0,-1 0,-1 0,0 0,0 0,0 0,0 -1,0 -1,1 0,0 0,0 0,0 1,0 1,0 1,0zm2 -5c-1,0 -1,0 -1,1 0,0 0,0 0,0 0,0 0,0 0,0 1,0 1,-1 1,-1 0,0 0,0 0,1 0,-1 0,-1 0,-1zm-16 -6c0,-1 0,-1 0,-1 0,0 0,0 0,0 0,0 -1,0 -1,0 0,0 0,0 1,1zm13 -3c0,-1 0,-1 0,-1 -1,0 -1,0 -1,1 1,0 1,0 1,0zm-8 -8c0,0 0,0 0,0 0,0 -1,0 -1,1 0,0 0,0 1,0 0,0 0,0 0,-1zm9 17c0,1 0,1 0,1 0,0 1,0 1,-1 0,0 0,0 0,0 -1,0 -1,0 -1,0zm-16 6c0,0 0,-1 0,-1 0,0 0,0 0,0 -1,0 -1,0 -1,0 0,0 0,0 0,1 0,0 0,0 0,0 0,0 1,0 1,0zm3 -9c1,0 1,0 1,-1 -1,0 -1,0 -1,0 0,1 0,1 0,1zm2 2c0,0 0,0 0,0 0,0 1,0 1,0 0,0 0,0 0,0 0,0 0,0 -1,0 0,0 0,0 0,0zm-3 -9c0,1 0,1 1,1 0,0 0,-1 0,-1 0,0 0,0 -1,0zm12 3c0,-1 0,-1 0,-1 -1,0 -1,0 -1,0 0,0 0,1 1,1zm-5 -9c1,0 1,-1 1,-1 -1,0 -1,0 -1,0 0,0 0,1 0,1zm-5 16c0,-1 0,-1 -1,0 0,0 0,0 0,0 0,0 0,0 0,1 1,-1 1,-1 1,-1zm1 3c0,-1 -1,-2 -1,-2 0,1 0,1 0,2 0,0 1,0 1,0zm14 -4c0,0 1,0 1,0 0,0 0,0 0,0 0,0 0,0 0,0 0,-1 0,-1 0,-1 0,0 -1,0 -1,1 0,0 0,0 0,0zm-16 -3c-1,0 -1,-1 -1,-1 0,0 -1,1 -1,1 0,0 1,0 1,0 0,0 0,0 1,0zm4 -10c-1,0 -1,0 -1,0 0,0 0,1 1,1 0,-1 0,-1 0,-1 0,-1 0,-1 0,-1 0,0 0,0 0,0 0,0 0,-1 0,-1 0,1 0,1 0,1 0,0 0,0 0,1zm-2 21c0,0 0,0 0,0 -1,0 -1,0 -1,0 0,0 0,1 0,1 0,0 0,0 0,0 0,0 1,0 1,0 0,-1 0,-1 0,-2 0,0 0,0 -1,0 0,1 0,1 0,1 1,0 1,0 1,0zm5 -22c0,0 -1,0 -1,1 0,0 0,0 0,1 1,0 1,-1 1,-1 0,0 0,0 0,0 0,-1 0,-1 0,-1zm10 19c0,0 0,0 1,0 0,0 0,0 0,-1 0,0 0,0 0,0 0,0 0,0 0,-1 0,1 0,1 -1,1 0,0 0,0 0,1zm-4 -1c0,-1 -1,-1 -1,-1 0,0 0,0 0,0 0,0 0,0 0,0 -1,1 -1,0 -1,1 0,0 0,0 0,1 1,-1 1,-1 2,-1zm8 -1c-1,1 -1,2 -1,2 1,0 1,0 1,0 0,0 0,0 0,-1 0,0 0,0 0,-1zm-18 -13c0,0 -1,0 -2,-1 0,0 0,0 0,0 0,0 0,1 0,1 0,0 0,0 0,0 0,0 0,0 1,0 0,0 0,1 0,1 0,0 0,-1 1,-1 0,0 0,0 0,0zm16 18c0,-1 0,-1 1,-2 0,0 0,0 0,0 0,0 0,0 0,0 0,0 -1,0 -1,0 -1,1 -1,1 0,2zm-15 -17c0,0 1,1 2,0 0,0 -1,0 -1,0 0,-1 -1,-1 -1,-1 0,0 0,1 0,1zm6 2c-1,0 -1,0 -1,-1 0,0 0,0 -1,0 0,0 0,1 0,1 0,0 0,1 1,1 0,0 0,0 0,0 1,0 1,0 1,-1zm-4 -7c-1,1 -1,1 -2,2 1,0 1,0 1,0 1,0 1,-1 1,-2 0,0 0,0 0,0zm0 16c0,0 0,0 0,0 0,1 0,2 -1,3 0,0 0,0 1,1 0,-1 0,-1 0,-2 0,0 0,0 0,0 0,0 0,0 0,0 0,0 0,0 1,0 0,-1 0,-1 0,-1 0,0 0,0 0,-1 -1,0 -1,0 -1,0zm7 -7c0,-1 -1,-1 -1,-1 0,1 0,1 0,1 0,0 0,1 0,2 0,0 0,0 0,0 0,-1 1,-1 1,-2zm1 2c0,0 0,0 0,1 0,0 0,0 0,0 1,0 1,0 1,0 0,-1 0,-1 0,-1 1,0 1,-1 1,-1 -1,0 -1,0 -1,0 0,0 0,0 1,0 -1,0 -1,0 -1,0 0,0 0,0 0,0 0,0 -1,0 -1,0 0,0 0,0 0,0 0,0 0,0 0,1zm-4 4c1,0 2,0 2,0 0,0 0,-1 0,-1 0,0 0,1 0,1 -1,-1 -1,-2 -1,-3 -1,0 -1,1 -1,1 0,0 0,1 0,2zm0 -3c0,0 -1,0 -1,0 0,0 -1,-1 -1,-1 0,0 1,0 1,0 0,-1 -1,-1 -1,-1 0,0 0,0 0,0 -1,0 -1,-1 -1,-2 -1,-1 -1,-1 -2,-2 0,0 0,0 0,0 0,1 0,1 0,2 0,0 0,1 0,1 0,1 0,1 0,1 0,0 0,0 -1,0 0,0 0,0 0,0 0,0 0,0 0,1 0,0 0,0 1,0 -1,0 -1,1 -1,1 0,1 0,1 0,2 0,0 0,0 0,0 0,1 0,1 0,1 -1,0 0,0 0,1 0,-1 1,-1 1,-1 0,0 0,0 1,0 0,0 0,0 0,0 1,1 1,1 1,0 0,0 1,0 1,0 0,0 0,1 0,1 0,0 0,0 1,0 0,0 -1,-1 -1,-1 1,0 1,0 2,-1 0,0 -1,-1 -1,-1 1,0 1,0 1,-1zm-3 -9c0,1 0,1 0,1 0,-1 0,-1 -1,-1 0,0 0,0 0,1 1,0 0,1 0,1 0,0 0,0 0,0 0,0 0,0 0,0 0,0 0,0 1,0 0,0 0,-1 0,0 0,0 1,0 1,0 0,0 0,0 0,0 0,0 0,0 0,0 0,0 0,0 1,0 0,0 0,0 0,1 0,-1 0,-1 0,-1 0,0 0,0 0,0 0,0 0,0 0,0 0,0 -1,0 -1,-1 0,0 0,0 0,0 0,0 0,0 -1,0 0,0 1,0 1,0 0,0 -1,0 -1,-1zm7 4c0,0 0,1 0,1 1,0 0,-1 0,-1 0,0 0,0 0,0 0,0 0,0 0,0 -1,0 -1,-1 -1,0 -1,0 -1,-1 -1,0 0,0 0,0 0,0 0,0 0,0 0,0 0,0 1,0 1,0 0,0 1,0 1,0zm4 13c-1,0 -1,-1 -1,-1 0,0 0,0 -1,1 0,0 0,0 0,0 1,0 1,0 2,0 0,0 0,0 0,0 0,0 0,0 0,0 0,-1 0,-1 0,-1 0,1 0,1 0,1zm0 -5c0,0 0,0 1,0 0,0 0,0 0,0 0,0 0,0 0,0 2,2 3,4 4,6 0,1 0,1 0,1 0,0 0,0 -1,0 0,-1 0,-1 -1,-1 0,1 0,1 1,1 -1,0 -1,0 -1,0 -1,0 -2,1 -3,1 -1,0 -1,0 -1,-1 0,1 -1,1 -1,1 -1,0 -1,0 -2,0 0,0 0,-1 -1,-1 0,-1 0,-1 -1,-2 0,0 -1,0 -2,0 -1,0 -2,0 -2,1 -1,0 -2,0 -3,0 0,0 0,0 0,0 0,-1 -1,0 -1,0 0,0 0,0 0,0 0,0 -1,0 -1,0 0,2 0,3 -1,4 0,0 -1,0 -1,0 -2,1 -3,1 -5,1 0,0 0,0 0,0 0,0 -1,0 -1,0 0,0 0,0 0,0 -1,0 -1,0 -2,0 0,0 0,0 0,0 0,0 0,-1 0,-1 0,-1 0,-1 1,-1 0,0 0,-1 1,-1 -1,0 -1,0 -1,0 0,-1 0,-1 0,-1 0,-2 1,-4 1,-6 1,-1 1,-2 1,-2 0,-1 0,-1 0,-1 0,0 0,-1 0,-1 0,0 0,0 0,0 1,-2 1,-3 1,-5 1,0 1,0 1,-1 0,0 0,0 0,0 0,-1 0,-2 0,-3 0,0 1,0 1,1 0,-1 0,-1 0,-2 0,0 0,0 -1,1 1,-2 1,-3 1,-5 1,0 2,0 2,0 0,0 1,0 1,0 2,0 3,-1 5,-1 1,0 1,0 2,0 0,0 0,0 0,0 0,1 0,1 0,1 1,0 1,0 1,1 0,0 1,1 1,2 0,0 0,0 -1,0 0,0 1,1 1,1 0,0 0,0 0,0 0,0 0,0 0,0 0,0 0,-1 0,-1 1,0 1,0 1,1 0,0 0,0 0,1 -1,0 -1,0 -1,1 0,0 1,0 1,0 0,0 0,0 0,0 0,-1 0,-1 0,-1 0,0 0,0 0,0 1,1 1,1 1,1 1,1 1,1 1,2 0,0 0,0 0,0 0,0 0,0 1,0 1,2 1,4 2,5 0,1 0,1 0,1 1,0 1,0 1,0 0,1 0,1 1,1 0,1 -1,1 -1,1 0,1 0,1 0,1 0,0 0,0 0,0 0,0 0,0 0,1 0,-1 0,-1 0,-1z"/>
  <path class="fil0" d="M122 92c0,0 0,0 0,0 0,0 0,0 0,0 0,0 0,0 0,0 0,0 0,0 0,0 0,0 0,0 0,0z"/>
  <path class="fil0" d="M125 92c0,0 0,0 0,0 0,-1 0,-1 0,-1 0,0 0,0 0,0 0,0 0,1 0,1 0,0 0,0 0,0z"/>
  <path class="fil0" d="M83 175c0,0 0,0 0,0 0,0 0,0 0,0 0,0 0,0 0,0 0,0 0,0 0,0zm92 -45c0,0 0,0 0,0 0,0 0,0 0,0 0,0 0,0 0,0 0,0 0,0 0,0zm-95 49c0,0 0,0 0,0 0,0 0,0 0,0 0,0 0,0 0,0 0,0 0,0 0,0zm93 -45c-1,0 -1,0 -1,0 0,0 0,0 1,0 0,0 0,0 0,0 0,0 0,0 0,0zm-59 44c1,0 1,0 1,0 0,0 -1,0 -1,-1 0,0 0,1 0,1 0,0 0,0 0,0zm43 -22c0,0 0,0 0,0 0,0 0,0 0,0 0,0 0,0 0,0 0,0 0,0 0,0zm-106 1c0,0 0,0 0,0 0,0 0,0 0,0 0,0 0,0 0,0 0,0 0,0 0,0zm14 12c0,0 0,0 0,0 0,0 0,0 0,0 0,0 0,0 0,1 0,-1 0,-1 0,-1zm-26 -29c0,0 0,0 0,0 0,0 0,0 0,0 0,0 0,0 0,1 0,-1 0,-1 0,-1zm134 -6c0,0 -1,0 -1,0 0,0 0,0 0,0 1,0 1,0 1,0 0,0 0,0 0,0zm-10 23c0,0 0,0 0,0 0,0 0,0 0,0 0,0 0,0 0,0 0,0 0,0 0,0zm-86 20c0,0 0,0 0,0 -1,0 -1,0 -1,0 0,0 0,0 0,0 0,0 0,0 1,0zm-12 -12c0,0 0,0 0,0 0,0 -1,0 -1,0 1,0 1,1 1,1 0,-1 0,-1 0,-1zm-14 -5c0,0 0,0 0,0 0,0 0,0 0,0 0,0 0,0 0,0 0,0 0,0 0,0zm4 -4c0,0 0,1 0,1 0,0 0,0 0,0 0,0 0,0 0,-1 0,0 0,0 0,0zm112 -11c0,0 0,0 0,0 0,0 0,0 0,-1 0,0 0,0 0,0 0,1 0,1 0,1zm4 -10c0,0 0,0 0,0 0,0 0,0 0,0 0,0 0,0 0,0 0,0 0,0 0,0zm-35 41c0,0 0,0 0,0 0,0 0,0 0,0 0,0 0,0 0,0 0,0 0,0 0,0zm25 -18c0,0 0,0 0,0 0,0 0,0 0,0 0,0 0,0 0,0 0,0 0,0 0,0 0,0 0,0 0,0zm13 -28c0,0 0,0 0,0 0,0 0,0 0,0 0,0 0,0 0,0 0,0 0,0 0,0zm-21 30c0,1 0,1 -1,1 0,0 1,0 1,0 0,0 0,0 0,0 0,0 0,0 0,-1zm-66 21c0,0 0,0 0,0 0,0 0,0 0,0 0,0 0,0 0,0 0,0 0,0 0,0zm-22 -13c0,0 0,1 0,1 0,0 0,0 1,0 0,0 0,0 0,0 0,-1 0,-1 -1,-1zm-8 -8c0,0 0,0 0,0 0,0 0,0 0,0 0,0 0,0 0,0 0,0 0,0 0,0 0,0 0,0 0,0zm17 16c0,0 0,0 0,1 0,0 0,-1 0,-1zm96 -35c0,0 0,0 -1,0 0,0 0,0 0,0 0,0 0,0 0,0 1,0 1,0 1,0zm-4 7c0,0 0,0 -1,0 1,0 1,0 1,0zm-20 19c0,0 0,-1 0,-1 0,0 0,0 0,0 0,0 0,0 0,0 0,0 0,0 0,1zm-11 9c0,0 0,0 0,0 0,0 0,0 0,0zm-12 0c0,0 0,0 0,0 0,0 0,1 0,0 0,0 0,0 0,0zm23 -5c0,0 0,0 0,0 0,0 0,1 0,1 0,0 0,-1 0,-1 0,0 0,0 0,0zm26 -28c0,0 0,0 0,0 0,0 0,0 0,0 0,1 0,1 0,0 0,0 0,0 0,0zm-6 7c0,0 0,0 0,1 0,-1 0,-1 0,-1zm-102 17c0,0 -1,0 -1,0 0,0 0,0 1,1 0,-1 0,-1 0,-1zm102 -22c0,0 0,0 0,1 0,0 0,0 0,0 0,-1 0,-1 0,-1zm-26 25c0,0 0,0 0,0 0,0 0,0 0,0 0,0 0,0 0,0zm-108 -42c0,1 0,1 0,1 1,0 1,0 1,-1 -1,0 -1,0 -1,0zm111 44c1,0 1,0 1,-1 0,0 0,0 0,0 -1,1 -1,1 -1,1zm-62 6c0,1 0,1 0,1 0,-1 0,-1 0,-1 0,0 0,0 0,0 0,0 0,0 0,0zm95 -48c0,0 0,0 1,0 0,0 -1,0 -1,0zm-89 47c0,0 0,0 0,-1 0,1 0,1 0,1zm12 5c0,-1 0,-1 -1,-1 0,0 1,1 1,1zm73 -46c0,-1 0,-1 0,-1 0,0 0,1 0,1 0,0 0,0 0,0zm-113 31c0,0 0,-1 0,-1 0,0 0,0 0,0 0,1 0,1 0,1 0,0 0,0 0,0zm15 3c0,0 0,0 -1,0 0,0 0,0 0,0 0,0 0,0 0,0 0,0 0,1 0,1 0,0 0,-1 1,-1zm46 9c0,0 0,0 0,0 -1,1 -1,1 -1,1 0,1 1,1 1,0 0,0 0,0 0,-1zm-77 -32c0,0 -1,0 -1,0 0,0 0,0 1,0 0,0 0,0 0,0 0,0 0,0 0,0zm18 21c-1,0 -1,0 -1,0 0,0 0,0 1,0 0,0 0,0 0,0zm-4 -4c0,0 0,0 0,0 0,0 -1,0 -1,0 0,0 0,0 0,0 0,0 0,0 0,0 0,0 1,0 1,0zm-16 -20c0,0 1,0 1,0 0,0 0,-1 -1,-1 0,0 0,1 0,1zm122 14c-1,0 -1,0 -1,0 0,1 0,1 0,1 1,0 1,0 1,-1zm-63 21c0,0 -1,0 -1,0 0,0 0,0 0,0 1,0 1,0 1,0zm70 -37c0,0 0,0 0,1 1,-1 1,-1 1,-1 0,0 -1,0 -1,0zm-42 36c0,0 1,0 1,0 0,0 0,0 0,0 0,0 0,0 0,0 0,0 0,0 -1,0 0,0 0,0 0,0zm27 -13c0,1 0,1 0,1 0,0 0,0 0,0 0,0 0,0 0,0 1,0 1,-1 0,-1zm-63 17c0,0 0,0 0,-1 0,0 0,0 0,0 0,0 -1,0 -1,0 0,1 0,1 0,1 0,0 1,0 1,0zm69 -22c0,0 0,-1 0,-1 -1,0 -1,1 -1,1 0,0 1,0 1,0zm8 -13c-1,0 -1,0 0,1 0,0 0,0 0,0 0,0 0,0 0,0 0,0 0,-1 0,-1zm-76 33c0,0 0,0 0,-1 0,0 0,1 0,1 0,0 0,0 0,0 0,0 0,0 0,0zm70 -30c0,0 0,0 0,0 0,0 0,-1 0,-1 0,0 0,0 0,0 0,1 0,1 0,1zm-123 -16c0,0 0,0 0,0 0,0 -1,0 0,0 0,0 0,0 1,0 0,0 -1,0 -1,0zm114 28c0,0 0,-1 0,-1 0,0 0,0 0,0 0,0 0,1 0,1zm-23 14c0,0 0,0 0,0 0,0 0,0 0,0 0,0 -1,0 0,0 0,0 0,0 0,0 0,0 0,0 0,0zm-63 -7c0,0 0,0 0,0 0,0 0,-1 0,-1 0,0 0,0 0,0 0,0 0,0 0,0 -1,0 -1,0 0,1zm98 -17c1,0 1,0 1,-1 0,0 0,0 -1,0 0,0 0,0 0,0 0,1 0,1 0,1zm-11 6c0,1 0,1 1,1 0,0 0,0 0,-1 0,0 -1,0 -1,0zm-57 22c0,0 -1,-1 -1,-1 0,0 0,1 0,1 0,0 0,0 1,0zm-19 -7c-1,0 -1,0 -2,0 1,1 1,1 1,1 0,0 1,-1 1,-1zm-36 -22c1,0 1,0 1,-1 0,0 0,0 0,0 0,0 -1,0 -1,0 0,1 0,1 0,1zm135 -18c0,-1 0,-1 -1,-1 0,0 0,0 0,0 0,1 0,1 1,1zm-134 14c0,0 0,-1 0,-1 0,0 0,0 0,0 0,1 0,1 -1,1 1,0 1,0 1,0zm74 36c1,-1 1,-1 1,-2 0,0 -1,0 -1,0 0,1 0,1 0,2zm46 -30c0,0 0,0 0,-1 0,0 0,0 0,0 0,0 -1,1 -1,1 1,0 1,0 1,0zm-77 25c1,0 1,0 1,1 0,0 0,0 0,0 0,0 0,-1 0,-1 0,0 0,0 0,0 0,0 0,0 0,-1 0,0 0,1 -1,1zm-53 -43c0,1 1,1 1,1 0,0 0,0 1,-1 -1,0 -1,0 -2,0zm44 40c0,1 0,1 0,1 1,0 1,0 1,-1 0,0 -1,0 -1,0zm38 2c0,1 0,1 0,1 0,0 0,-1 0,-1 0,0 0,0 0,0zm-54 -10c0,0 0,0 0,0 1,-1 0,-1 0,-1 0,0 0,0 -1,0 1,1 1,1 1,1zm-9 -12c0,1 0,1 0,2 0,0 0,0 0,0 1,-1 1,-1 1,-1 0,-1 0,-1 -1,-1zm124 -24c0,0 0,0 0,0 0,0 0,0 0,0 -1,-1 -1,-1 -2,-1 0,0 0,1 0,1 0,0 0,0 0,0 1,0 1,0 2,0 0,0 0,0 0,0zm-92 48c0,-1 0,-1 -1,-1 0,0 0,-1 0,-1 -1,0 -1,0 -1,0 1,1 0,1 1,1 0,0 0,0 0,1 0,0 0,0 1,0zm92 -44c0,1 0,1 1,0 0,0 0,0 0,0 0,0 0,0 0,0 0,0 0,-1 0,-1 0,0 -1,0 -1,0 0,0 0,1 -1,1 1,0 1,0 1,0zm3 -10c0,0 -1,0 -1,0 0,-1 0,-1 0,-1 0,0 0,0 0,0 0,0 0,1 0,1 -1,0 -1,0 -1,0 0,0 0,1 0,1 1,-1 1,-1 2,-1zm-7 11c1,0 1,0 1,0 0,-1 0,-1 -1,-2 0,1 0,1 0,1 0,1 0,1 0,1zm-97 40c0,-1 1,-1 1,-1 0,0 -1,-1 -1,-1 0,0 0,0 0,0 0,0 0,0 0,0 0,0 0,0 0,0 0,0 -1,0 -1,0 0,0 1,1 1,2zm82 -16c-1,0 -1,0 -1,1 0,0 0,0 0,0 0,0 0,1 1,1 0,0 0,0 0,0 0,-1 0,-1 0,-1 0,0 0,-1 0,-1zm-23 13c-1,0 -1,0 -1,0 0,0 0,0 0,1 0,0 0,0 0,0 0,0 0,0 0,0 0,0 0,0 0,0 0,1 0,1 0,1 0,0 0,0 1,0 0,0 0,0 0,-1 0,0 0,0 0,0 0,0 0,-1 0,-1zm-79 -12c0,-1 0,-1 0,-1 0,0 0,0 0,0 0,-1 0,-1 0,-2 0,0 0,0 0,0 0,0 -1,0 0,0 0,1 0,1 0,2 -1,0 -1,0 -1,1 1,0 1,0 1,0zm70 20c0,0 0,0 0,0 0,-1 1,-1 1,-1 0,0 -1,-1 -1,-1 -1,0 -1,0 -1,0 0,0 0,0 0,0 0,0 0,0 -1,0 0,0 0,0 0,0 1,0 1,1 1,1 0,0 1,0 1,1zm2 -2c0,-1 -1,-1 -1,-1 0,0 0,0 0,-1 0,0 0,0 0,0 -1,0 -1,0 -1,0 0,0 0,1 0,2 0,0 0,0 0,0 1,0 1,0 2,0zm-94 -55c0,1 0,3 0,3 1,0 1,0 1,0 0,-1 0,-2 -1,-3zm129 27c0,0 0,0 0,1 0,0 0,0 0,0 1,0 2,0 2,0 0,0 0,0 0,0 1,0 1,0 1,-1 0,0 0,0 -1,0 0,0 0,0 0,0 0,0 -1,1 -1,0 0,0 0,0 0,0 0,-1 0,-1 1,-2 0,0 0,0 0,0 -1,0 -2,1 -2,2 0,0 0,0 0,0zm12 -15c0,0 0,0 1,0 0,0 0,-1 0,-1 0,0 0,0 0,0 -1,0 -1,0 -1,0 0,0 -1,0 -1,1 0,0 0,0 0,1 1,0 1,1 1,0 0,0 0,-1 0,-1zm-62 42c0,0 0,0 0,0 -1,0 -1,0 -1,0 0,0 0,1 0,1 1,0 1,0 1,0 1,0 1,0 2,0 0,-1 -1,-1 -1,-1 0,0 0,0 0,0 0,0 0,0 -1,0zm9 3c0,0 0,0 0,0 0,0 0,1 1,1 0,-1 1,-2 0,-2 0,-1 -1,-1 -1,-1 0,1 0,1 0,1 0,0 0,0 0,1zm-39 -6c-1,-1 -1,-1 -1,-1 -1,0 -1,-1 -2,-1 0,0 0,1 0,1 0,1 0,1 1,1 0,0 1,0 1,0 0,0 1,0 1,0zm-18 -9c0,1 0,1 0,1 0,0 1,1 1,2 0,0 1,0 1,0 0,0 0,-1 0,-1 0,0 0,0 0,-1 0,0 0,0 0,0 0,0 -1,0 -1,-1 0,0 -1,0 -1,0zm-26 -28c0,1 0,2 1,3 0,-1 0,-1 1,-1 0,-1 0,-1 0,-1 0,0 0,0 0,0 0,-1 0,-1 0,-1 0,0 -1,0 -2,0zm8 15c0,0 -1,0 -1,0 0,0 1,2 1,3 0,0 0,0 0,0 1,0 1,-1 0,-1 0,0 0,-1 0,-1 0,0 0,0 0,-1 0,0 0,0 0,0zm122 -10c0,0 0,0 -1,0 0,0 1,-1 1,-1 -1,0 -1,0 -1,0 0,0 0,1 0,1 0,0 0,0 0,1 0,0 0,0 0,0 -1,0 -1,1 -1,1 1,0 1,0 1,0 0,0 1,1 1,1 0,0 0,-2 0,-2 0,0 0,0 0,0 0,0 0,0 0,-1zm-38 30c0,0 0,0 0,1 0,0 0,0 0,0 0,1 1,1 1,2 0,0 0,0 0,0 1,0 1,-1 1,-1 0,0 0,0 0,0 0,-1 0,-2 -1,-2 0,0 -1,0 -1,0zm-58 0c-1,0 -1,0 -1,0 0,0 0,0 -1,0 0,0 0,0 0,0 0,0 0,0 0,1 0,0 0,-1 0,-1 0,1 0,1 0,1 0,0 0,0 1,1 0,0 0,0 0,-1 0,0 0,0 1,-1 0,1 0,1 0,1 0,0 0,0 1,0 0,0 0,0 0,0 0,0 0,-1 0,-1 0,0 0,0 0,0 0,0 0,0 0,1 0,0 0,0 0,0 0,0 1,0 1,0 0,-1 -1,-2 -1,-2 -1,0 -1,0 -1,1 0,0 0,0 0,0zm59 6c0,0 0,0 0,0 0,-1 0,-1 0,-1 0,0 0,0 0,1 0,-1 -1,-1 -1,-1 0,0 0,0 0,0 0,0 0,0 -1,0 0,0 1,0 1,0 0,0 -1,0 -1,0 0,0 0,1 0,1 1,0 1,0 1,1 0,-1 0,-1 1,-1zm-31 -1c0,1 0,1 0,2 0,0 1,0 1,0 0,0 0,-1 0,-1 -1,0 -1,0 -1,-1 0,0 0,0 0,0 0,0 -1,0 -1,-1 0,1 0,1 0,1 0,1 1,1 1,0zm74 -44c0,0 0,0 0,0 0,0 0,0 0,0 0,0 0,0 0,0 0,-1 0,-1 0,-1 -1,0 -1,0 -1,0 0,0 0,1 1,1 0,0 0,0 0,0zm-115 32c0,0 0,0 0,0 0,0 0,0 0,-1 0,1 0,1 0,1 0,0 0,0 0,0 0,0 0,0 0,0 0,0 0,0 0,0 0,0 0,0 0,0zm-21 -36c1,0 1,1 1,1 -1,0 -1,0 -1,0 0,0 0,0 0,0 0,1 0,1 -1,1 0,0 0,0 1,1 0,0 0,0 0,0 0,0 0,0 1,0 0,0 0,0 0,-1 0,0 0,0 0,0 0,1 1,2 1,3 1,1 1,2 2,3 0,1 1,2 1,3 0,0 0,0 0,0 -1,0 -1,0 -1,-1 0,0 0,0 0,0 0,1 0,1 0,1 0,0 0,0 0,0 0,0 0,0 0,0 1,0 1,0 1,0 0,0 1,0 1,1 2,4 5,7 8,11 1,2 3,4 5,6 1,0 1,0 1,0 0,1 0,1 0,1 0,0 0,0 0,0 0,0 0,0 0,0 1,0 1,0 1,0 2,2 3,3 5,4 0,0 0,0 0,0 0,0 -1,0 -1,0 0,1 0,1 0,1 0,0 0,0 1,0 0,0 0,0 0,-1 0,0 1,1 1,1 1,0 2,1 3,2 1,0 1,0 1,0 0,1 0,1 1,1 0,0 0,0 0,0 1,1 2,1 3,2 1,0 1,0 1,1 0,0 0,0 -1,0 0,0 0,0 0,1 0,0 0,0 0,0 0,1 0,1 1,0 1,0 0,-1 1,-1 1,0 3,1 4,1 2,1 3,1 5,2 1,0 2,1 4,1 2,1 3,1 5,1 1,0 3,1 4,1 0,0 1,0 1,1 0,-1 0,-1 0,-1 0,0 0,0 1,0 0,0 0,0 0,0 0,0 0,0 0,0 0,0 0,0 0,0 0,0 0,0 0,0 0,0 0,0 0,0 2,0 3,0 5,0 2,0 4,0 6,0 0,0 0,0 0,0 0,0 1,0 1,0 0,0 0,0 1,0 2,0 3,-1 5,-1 0,0 0,0 0,0 0,0 0,0 1,0 0,1 0,1 1,0 0,0 0,0 0,0 0,0 0,0 0,0 4,-1 7,-2 10,-3 2,-1 4,-2 7,-3 0,0 0,0 0,0 1,0 1,0 1,1 0,0 0,0 0,0 0,0 0,0 0,0 0,0 0,0 0,0 1,0 1,-1 1,-2 1,-1 3,-1 4,-2 0,0 0,0 0,0 0,0 0,1 0,1 1,0 1,0 1,0 0,-1 0,-1 0,-1 1,0 0,1 0,1 0,0 0,0 0,0 0,0 0,0 0,0 0,0 0,1 0,1 0,0 0,0 0,0 0,0 0,0 0,-1 0,0 0,0 0,0 0,0 1,0 1,0 0,0 0,0 0,0 0,-1 0,-1 0,-1 0,0 0,0 0,-1 0,0 -1,0 -1,0 0,0 0,0 0,0 1,-1 2,-1 3,-2 0,0 1,0 1,1 0,0 0,0 0,0 0,0 0,-1 0,-1 0,0 0,0 -1,0 2,-2 4,-3 6,-5 1,0 1,0 1,0 0,0 0,0 0,-1 0,0 0,0 1,0 1,-1 2,-2 3,-3 0,0 0,0 0,1 1,-1 1,-1 1,-1 0,0 -1,0 -1,0 1,-1 1,-2 2,-3 0,0 0,0 1,0 0,0 0,0 0,0 0,0 0,0 0,0 0,-1 0,-1 0,-1 1,-1 1,-1 1,-2 1,0 1,0 1,-1 3,-4 5,-8 7,-12 1,-2 2,-4 3,-6 0,-1 0,-2 1,-3 0,-1 0,-2 0,-3 0,0 1,0 1,0 0,0 0,0 1,0 0,-1 0,-1 0,-1 0,0 0,0 0,0 0,0 0,0 0,0 0,0 0,0 0,0 1,0 2,0 4,1 0,0 0,0 0,0 0,0 1,0 1,0 0,0 0,0 0,0 0,1 0,2 0,3 0,1 -1,1 -1,2 0,0 0,1 -1,1 1,0 1,1 0,2 0,-1 0,-1 0,-1 -1,1 -1,1 0,1 0,0 0,0 0,0 0,0 0,0 0,0 0,2 -1,3 -2,5 0,0 0,0 0,1 0,-1 0,-1 0,-2 -1,0 -1,0 -1,0 0,1 0,2 1,3 -1,0 -1,1 -1,1 0,0 -1,0 -1,0 0,0 0,0 0,1 0,0 0,0 0,0 0,0 0,0 0,0 -1,3 -6,11 -10,16 -3,3 -9,9 -10,10 0,0 0,-1 0,-1 -1,0 -1,0 -2,0 0,0 0,0 0,-1 0,0 0,0 0,0 0,0 0,0 0,0 -1,0 0,0 0,0 0,0 0,0 0,0 -1,0 -1,0 -1,0 0,1 0,2 0,2 0,0 0,1 0,1 1,-1 1,-1 1,-1 1,0 1,0 1,0 0,0 0,0 0,0 -2,2 -4,3 -6,4 0,1 0,1 0,1 0,-1 0,-1 0,-1 0,0 1,0 1,0 0,0 0,0 0,-1 -1,0 0,0 0,0 0,0 0,-1 0,-1 0,0 0,0 0,0 0,0 -1,0 -1,0 0,1 0,1 0,1 0,0 -1,0 -1,0 0,0 0,1 0,1 0,0 0,0 0,1 1,0 1,0 1,0 0,0 -1,0 -1,1 -1,-1 -1,-1 -1,-1 0,0 0,0 -1,0 0,-1 0,-1 0,-1 0,0 0,0 0,0 -1,0 -1,1 -1,1 0,0 0,0 1,0 0,0 0,0 0,0 0,0 0,1 0,1 0,0 1,0 1,0 0,0 0,0 0,0 -1,1 -2,1 -3,2 -1,0 -1,0 -1,0 0,0 0,-1 0,-1 -1,0 -1,0 -2,0 0,0 0,-1 0,-1 -1,1 -1,1 -1,1 0,1 1,1 1,1 0,0 0,0 1,0 0,0 0,0 0,1 0,0 0,0 -1,0 -3,2 -7,3 -10,4 -3,1 -5,2 -8,2 0,0 0,0 0,0 0,0 0,0 0,-1 0,0 -1,0 -1,0 0,1 0,1 0,1 -2,1 -11,2 -14,2 0,0 0,0 0,-1 -1,0 -1,1 -1,1 -1,0 -1,0 -2,0 0,0 0,0 0,-1 -1,0 -1,1 -1,1 0,0 0,0 0,0 -2,0 -3,0 -5,0 -1,0 -2,-1 -4,-1 0,0 -1,0 -1,-1 0,0 0,0 0,0 0,1 0,1 0,1 -1,0 -2,0 -3,-1 0,0 0,0 0,0 0,0 -1,0 -1,0 0,0 0,0 0,0 -1,0 -2,0 -2,0 -1,0 -1,0 -1,-1 0,0 0,0 0,0 -1,0 -1,0 -1,0 -3,-1 -6,-2 -8,-3 0,0 -1,0 -1,0 0,0 0,0 0,0 -1,0 -1,0 -1,-1 -1,0 -1,0 -1,0 -1,0 -1,0 -1,-1 0,0 0,0 0,0 0,0 0,0 0,0 0,0 0,0 0,0 -1,0 -1,0 -2,-1 0,0 0,1 0,0 -1,0 -1,0 -1,0 -1,0 -1,0 -1,0 0,-1 0,-1 -1,-1 0,0 -1,0 -1,-1 0,0 0,0 0,0 0,0 0,0 0,-1 0,0 0,1 -1,1 0,0 0,0 0,0 -4,-3 -8,-5 -11,-8 -1,-1 -1,-1 -1,-1 0,-1 0,-1 0,-1 -1,0 -1,0 -2,-1 1,0 1,0 0,-1 0,0 0,1 0,1 -1,0 -1,-1 -1,-2 0,0 -1,0 -1,0 0,0 0,-1 -1,-1 0,0 -1,-1 -1,-1 0,0 0,0 0,0 0,0 1,-1 1,-1 -1,0 -1,0 -1,-1 0,0 0,0 0,1 0,0 0,0 0,1 0,0 0,-1 -1,-1 -1,-1 -2,-3 -4,-5 -2,-4 -5,-8 -7,-12 0,-1 0,-1 -1,-2 0,0 0,0 0,-1 0,0 0,0 0,0 0,0 0,0 0,0 0,0 0,0 0,0 0,0 0,0 0,0 0,0 -1,-1 -1,-1 -1,-2 -2,-5 -2,-7 -1,-2 -1,-3 -1,-4 0,0 0,0 0,-1 2,0 4,-1 6,-1 0,0 0,0 0,0 1,2 1,3 2,5 0,0 0,0 0,0 0,0 -1,1 -1,0 0,0 0,0 -1,0 0,0 1,0 1,0 0,0 0,0 0,0 0,0 0,0 0,0 0,0 -1,0 -1,0 0,0 0,0 0,0 0,0 0,0 0,0 0,0 0,0 0,0 0,1 0,1 -1,2 0,0 0,0 0,0 0,0 0,0 0,0 1,0 1,0 1,0 0,-1 0,-1 1,-1 0,0 0,1 0,0 0,0 0,0 1,1 0,0 0,0 0,0 0,1 0,0 0,0l0 0z"/>
  <path class="fil0" d="M127 37c0,0 0,0 0,0 0,0 0,0 0,0 0,0 0,0 0,0 0,0 0,0 0,0zm-21 -8l-1 0c-4,0 -10,1 -13,2 0,0 0,0 0,0 0,0 0,0 0,0 0,0 0,0 0,0 -1,0 -1,0 -1,0 -2,0 -5,1 -7,2 -1,0 -1,0 -1,0 0,0 0,0 0,0 0,0 -1,0 -1,0 -1,0 -2,1 -3,1 -1,0 -2,1 -2,1 -1,0 -2,1 -3,1 -1,1 -2,1 -4,2 0,0 0,0 0,0 0,0 0,1 0,1 0,0 -1,0 -1,0 -1,0 -3,1 -4,2 0,0 1,1 1,1 0,1 0,1 0,1 0,0 0,0 0,0 0,0 0,0 0,0 0,0 0,0 0,0 0,0 0,0 0,0 0,0 0,0 -1,-1 0,0 0,0 0,1 0,0 0,0 0,1 -1,0 -1,0 -1,0 -1,-1 0,-2 0,-2 -1,0 -5,3 -5,4 0,0 0,0 0,0 0,0 -1,0 -1,0 0,0 0,0 0,0 0,0 0,0 -1,0 -7,6 -12,13 -17,20 0,1 0,1 0,1 0,1 -1,1 -1,1 0,0 0,0 0,0 0,1 0,1 0,1 0,0 0,0 0,1 0,0 0,0 0,0 0,0 0,1 0,1 0,-1 0,-1 0,-1 0,0 0,0 -1,0 0,0 0,0 0,0 0,1 0,1 0,1 0,1 0,1 0,1 -1,0 -1,0 0,-1 0,0 0,0 -1,0 0,0 0,0 0,1 -2,2 -3,5 -4,9 -1,1 -1,3 -2,5 0,0 0,0 0,1 3,-1 5,-2 8,-2 0,-1 1,-3 1,-4 0,0 0,0 0,0 -1,-1 0,-1 0,-1 0,0 0,0 0,0 0,0 0,0 0,1 0,-1 0,-1 1,-1 0,0 0,0 0,0 0,-1 -1,-1 -1,-2 1,0 1,0 1,0 0,0 1,0 1,0 1,-3 2,-6 4,-8 0,0 0,-1 0,-1 0,0 0,0 1,-1 1,-1 2,-3 3,-5 0,0 1,0 0,0 0,-1 1,-1 1,-1 0,0 0,0 0,0 0,0 1,0 1,0 0,-1 0,-1 1,-1 0,-1 0,-1 0,-1 0,-1 0,-2 0,-3 0,0 1,0 1,0 0,0 0,1 0,1 0,0 0,0 0,0 0,0 0,0 1,0 0,0 0,0 0,0 2,-3 5,-5 8,-7 0,0 0,-1 1,-1 0,0 0,0 0,0 1,-1 2,-1 3,-2 0,0 0,0 -1,-1 1,0 1,0 1,0 0,0 0,1 0,1 1,-1 2,-2 4,-2 0,0 0,-1 0,-1 0,0 0,0 0,0 0,0 0,0 0,0 0,0 0,0 0,0 2,-1 4,-2 6,-3 0,0 0,0 0,0 0,0 0,0 0,0 0,-1 0,-1 0,-1 0,0 0,0 0,0 0,-1 0,-1 0,-1 0,0 0,0 0,0 0,0 0,0 1,0 0,-1 0,-1 0,-1 0,0 1,0 2,0 0,1 -1,1 0,1 0,0 0,0 0,1l0 0c0,0 0,0 0,0 1,0 2,-1 3,-1 1,-1 3,-1 4,-1 1,-1 2,-1 3,-1 1,0 2,-1 4,-1 -1,0 -1,0 -1,0 0,0 0,0 0,0 0,0 -1,0 -1,0 0,0 0,-1 0,-1 0,0 0,0 0,0 0,0 1,0 1,0 1,0 1,0 1,0 0,1 0,1 0,1 0,0 1,0 1,0 1,0 1,0 2,0 2,-1 4,-1 6,-1 0,0 1,0 1,0 0,0 0,0 0,0 0,0 0,0 0,0 1,0 2,0 3,0 1,0 1,0 1,-1 0,0 1,1 1,1 0,-1 0,0 1,0 0,0 0,0 0,0 1,0 1,0 2,0 0,0 -1,-1 0,-1 0,0 0,0 0,0 0,0 0,1 1,1 0,0 0,0 0,1 0,-1 0,-1 0,-1 0,0 0,0 1,1 0,0 0,0 0,0 1,0 1,0 1,-1 0,0 1,0 1,1 0,0 0,0 0,0 1,0 2,0 3,0 0,0 0,0 0,0 0,-1 0,-1 0,-1 1,1 1,1 0,1 0,0 0,0 0,0 1,0 1,1 1,0 1,0 1,0 1,1 0,0 0,0 1,0 0,-1 0,-1 0,-1 1,0 1,0 1,0 0,0 0,1 -1,1 1,0 3,1 4,1 1,0 2,1 3,1 0,0 0,-1 0,-1 0,1 1,1 1,1 0,0 0,0 0,0 0,0 1,0 1,1 0,0 1,0 1,0 0,0 0,0 0,0 1,0 1,0 2,1 0,0 0,0 0,-1 0,1 0,1 0,1 0,0 1,0 1,0 2,1 4,2 6,3 0,0 0,0 0,0 1,0 2,0 2,0 0,0 0,0 1,0 0,0 0,1 0,1 -1,0 -1,0 -1,0 0,1 0,1 0,1 4,2 8,5 11,8 1,1 1,1 2,2 0,0 1,1 1,1 0,0 0,0 0,0 1,1 1,1 1,1 3,3 5,6 8,10 0,0 0,1 0,1 1,0 1,0 1,0 0,0 0,0 0,0 0,0 0,0 0,1 0,0 0,0 0,0 0,0 0,1 1,1 0,1 1,3 2,4 0,1 1,3 2,4 0,1 0,1 0,1l0 0c0,0 0,0 0,-1 0,0 0,0 0,0 0,0 0,0 0,0 1,1 1,1 1,1 0,0 0,0 0,1 0,0 0,0 0,0 -1,0 -1,0 -1,-1l0 0c0,1 0,2 1,2 0,0 0,0 1,0 0,0 0,0 0,0 1,0 1,0 1,1 0,0 -1,0 -1,0 -1,0 -1,0 -1,0 0,0 0,1 0,1 3,0 5,1 7,1 0,0 1,0 1,0 0,0 -1,-1 -1,-2 -1,0 -1,0 -1,-1 0,0 0,0 0,0 0,0 1,0 1,0 0,-1 -1,-1 -1,-2 0,0 0,-1 0,-1 0,0 -1,-1 -1,-1 0,-1 -1,-2 -1,-3 0,-1 0,-1 0,-1 0,0 -1,1 -1,1 0,0 0,0 0,0 1,1 1,1 1,1 -1,0 -2,0 -2,0 0,-1 0,-1 1,-1 0,-1 0,-1 0,-1 0,0 0,0 1,0 -1,-1 -1,-2 -2,-3 0,0 0,0 0,0 0,0 0,-1 0,-1 -1,-1 -1,-1 -1,-2 -1,0 -2,0 -2,0 -1,-1 -1,-1 -1,-2 -1,0 -1,0 -1,0 -1,0 -1,1 -1,0 0,0 0,0 0,0 1,0 1,0 1,0 0,0 0,0 0,-1 1,1 1,1 1,1 0,0 0,0 0,0 0,0 1,0 0,0 0,0 0,0 0,1 0,0 0,0 1,0 0,0 0,0 0,-1 0,0 0,0 0,-1 -2,-3 -4,-5 -6,-8 0,0 0,1 0,1 0,0 0,0 0,0 -1,0 -1,0 -1,0 0,-1 0,-1 0,-1 0,0 0,0 -1,0 1,0 1,-1 1,-1 0,-1 -1,-1 -1,-2 -3,-3 -7,-6 -10,-9 0,0 -1,0 -1,-1 0,1 0,1 0,1 0,0 -1,0 -1,0 0,-1 0,-1 0,-1 0,-1 0,-1 -1,-1 0,0 -1,-1 -1,-1 0,0 0,0 -1,0 1,0 1,0 1,0 0,0 -1,0 -1,0 -1,-1 -2,-2 -3,-2 0,0 0,-1 0,-1 0,0 -1,0 -1,0 0,0 0,0 0,0 0,0 0,0 0,0 0,0 0,0 0,0 0,1 0,1 0,1 -1,-1 -1,-1 -1,-2 0,0 0,0 0,0 -6,-3 -13,-6 -19,-7 0,0 0,0 -1,0 0,0 0,0 1,1 -1,0 -1,0 -1,-1 0,0 0,0 0,0 -1,0 -1,0 -2,0 1,-1 1,-1 1,0 1,0 1,0 1,0 0,-1 0,-1 0,-1 -1,0 -2,0 -3,0 0,0 0,0 0,0 0,0 0,0 0,0 -1,0 -1,0 -1,-1 -3,0 -5,0 -8,0 0,0 0,-1 -1,-1 0,0 0,1 0,1 0,0 0,0 -1,-1 0,0 0,0 -1,0 0,0 0,0 0,0 0,0 0,0 0,1 -1,0 0,0 0,0 0,0 0,0 0,0 0,0 0,0 0,1 -1,0 -1,0 -2,0 0,-1 0,-1 0,-2 0,0 0,0 -1,0zm-67 44c0,0 0,0 0,0 0,0 0,0 0,0 0,0 0,0 0,0 0,0 0,0 0,0zm90 -37c0,-1 0,-1 0,-1 0,0 0,1 0,1 0,0 0,0 0,0 0,0 0,0 0,0zm-6 -1c0,0 0,0 0,0 0,0 0,0 0,0 0,0 0,0 0,0zm34 20c0,0 0,0 0,0 0,0 0,0 0,0 0,0 0,0 0,0 0,0 0,0 0,0zm-1 -6l0 0 0 0 0 0zm22 31c0,0 0,0 -1,0 0,0 0,0 0,0 0,0 1,0 1,0 0,0 0,0 0,0zm-10 -15c0,0 0,0 0,0 0,0 0,0 0,0 0,0 0,0 0,0 0,0 0,0 0,0zm2 8c0,0 0,0 0,0 0,0 0,0 0,0 0,0 0,0 0,0 0,0 0,0 0,0zm-3 -5c0,0 0,-1 0,-1 0,0 0,1 0,1 0,0 0,0 0,0 0,0 0,0 0,0zm-11 -13c0,0 0,0 0,0 0,0 0,0 0,0 0,0 0,0 0,0 0,0 0,0 0,0zm6 5c0,0 0,0 0,0 0,0 0,0 1,0 0,0 0,0 0,0 -1,0 -1,0 -1,0zm-107 -7c0,0 0,0 0,1 0,0 0,0 0,0 0,0 1,0 0,-1 0,0 0,0 0,0zm27 -19c0,0 0,0 1,0 0,0 0,0 0,0 0,-1 -1,-1 -1,0zm73 19c0,0 0,0 0,0 0,0 0,0 0,0 0,0 0,0 0,1 0,-1 0,-1 0,-1zm5 2c0,0 0,1 0,1 0,0 0,0 0,0 0,0 1,0 1,0 -1,-1 -1,-1 -1,-1zm18 30c0,0 0,0 0,0 0,0 0,0 0,0 0,0 0,0 0,0 0,0 0,0 0,0zm-6 -10c0,0 0,-1 0,-1 0,0 0,0 0,0 0,0 0,0 0,1 0,0 0,0 0,0zm-58 -44c0,0 0,0 0,0 0,0 0,0 0,0 0,0 0,1 0,1 0,-1 0,-1 0,-1 0,0 0,0 0,0zm26 11c0,0 0,0 0,0 0,0 0,1 0,1 0,-1 0,-1 0,-1zm12 9c0,0 0,0 0,0 0,0 1,0 1,0 0,0 0,0 0,0 -1,0 -1,0 -1,0 0,0 0,0 0,0zm-15 -12c0,1 0,1 0,1 0,0 0,0 1,0 -1,0 -1,0 -1,-1zm-57 -1c1,0 1,0 1,0 0,0 -1,0 -1,0zm57 -1c-1,0 -1,0 0,1 0,-1 0,-1 0,-1zm-15 -3c0,0 0,1 -1,1 1,0 1,0 1,0 0,0 0,-1 0,-1 0,0 0,0 0,0zm6 2c0,0 0,0 0,-1 0,0 0,0 0,0 0,0 0,0 0,1 0,0 0,0 0,0zm52 49c0,0 0,0 0,0 0,0 0,0 0,0zm-90 -50c0,0 0,0 0,0 0,0 0,0 0,-1 0,1 0,1 0,1zm27 -3c-1,-1 -1,-1 -1,0 0,0 0,0 1,0zm-59 22c0,0 0,0 0,0 0,0 0,0 0,0 0,-1 0,-1 0,0zm-8 7c1,0 1,0 1,0 0,0 0,0 0,0 0,0 0,0 -1,0zm24 -22c0,0 0,0 0,0 0,1 0,1 0,1 0,0 0,-1 0,-1zm47 -3c0,0 0,0 0,0 0,-1 0,-1 0,-1 0,0 0,0 -1,0 0,0 0,0 0,1 1,0 1,0 1,0zm6 -1c1,0 1,0 1,-1 -1,0 -1,0 -1,0 0,1 0,1 0,1zm-41 -1c0,0 0,0 0,0 0,0 0,0 0,0 0,0 1,0 1,0 0,0 -1,0 -1,0zm64 11c0,0 -1,0 -1,0 0,0 0,0 0,0 0,0 1,0 1,0 0,0 0,0 0,0zm-116 34c0,1 0,1 0,1 0,0 0,0 0,0 0,0 0,0 0,0 1,0 1,0 0,-1zm11 -10c0,0 0,0 0,0 0,0 0,0 0,0 0,0 0,0 0,0zm127 8c-1,0 -1,1 -1,1 1,0 1,0 1,-1zm3 1c1,0 1,0 1,0 0,0 0,0 0,-1 0,0 0,1 -1,1zm-31 -32c0,1 0,1 0,1 1,0 1,0 1,-1 0,0 0,0 0,0 0,0 -1,0 -1,0 0,0 0,0 0,0zm-105 26c0,0 0,0 0,0 0,0 0,0 0,0 1,0 1,0 1,0 0,0 0,0 0,0 0,0 -1,0 -1,0zm59 -39c-1,0 -1,0 -1,1 0,0 0,0 1,0 0,-1 0,-1 0,-1zm70 34c0,0 0,0 0,0 0,1 0,1 0,1 0,0 0,0 0,-1zm-105 -21c0,0 0,0 1,1 0,-1 0,-1 0,-1 0,0 0,0 -1,0zm61 -12c0,0 0,0 0,0 -1,0 -1,0 -1,0 0,0 0,0 1,0zm-57 13c1,0 1,0 1,-1 0,0 0,0 0,0 -1,0 -1,0 -1,1zm35 -14c0,1 1,1 1,1 0,0 0,0 0,0 0,0 0,-1 0,-1 -1,0 -1,0 -1,0zm-22 6c0,0 0,0 0,1 0,0 1,0 1,0 0,-1 0,-1 0,-1 0,0 0,0 -1,0 0,0 0,0 0,0zm83 18c0,0 0,0 0,-1 0,1 0,1 0,1 0,0 0,0 0,0zm-68 -23c1,0 1,0 1,0 0,-1 0,-1 0,-1 0,0 0,0 -1,1zm50 7c0,1 0,1 0,1 0,1 0,1 0,0 0,0 0,0 0,-1zm-86 9c0,0 0,1 0,1 0,0 0,0 0,0 0,0 0,-1 0,-1zm64 -14c0,0 -1,-1 -1,0 0,0 0,0 0,0 0,0 1,0 1,1 0,-1 0,-1 0,-1 0,0 0,0 0,0zm42 28c-1,0 -1,0 -1,1 0,0 0,0 0,0 1,0 1,0 1,0 0,0 0,-1 0,-1zm-132 21c0,0 0,0 0,-1 0,0 0,0 0,0 -1,0 0,1 0,1zm96 -48c0,-1 0,-1 0,-1 0,0 0,0 0,-1 0,0 -1,0 -1,0 0,1 1,1 1,2zm-80 25c0,-1 0,-1 0,-1 -1,0 -1,0 -1,0 0,1 1,1 1,1zm-6 8c0,0 0,0 0,0 -1,0 -1,-1 -1,-1 0,0 0,0 0,0 0,1 0,1 1,1zm66 -35c1,0 1,0 1,-1 0,0 0,0 -1,0 0,0 0,0 0,1zm44 17c0,0 0,1 0,1 0,0 0,0 0,0 0,0 0,0 0,0 0,0 0,-1 0,-1 0,0 0,0 0,0zm-6 -10c0,0 0,0 -1,-1 0,1 0,1 0,1 0,0 0,0 0,1 0,-1 1,-1 1,-1zm8 13c0,0 1,0 1,0 0,-1 -1,-1 -1,-1 0,0 0,0 0,0 0,0 0,0 0,0 0,1 0,1 0,1zm-4 -4c0,-1 0,-1 -1,-1 0,0 0,0 0,1 0,0 0,0 0,0 0,0 1,0 1,0zm-9 -10c-1,1 -1,1 -1,1 1,0 1,0 1,0 0,0 0,0 0,-1zm-72 0c0,0 0,0 1,1 0,-1 0,-1 0,-1 0,-1 0,-1 -1,0zm80 7c0,1 0,1 0,1 0,1 0,1 0,1 1,0 1,0 1,-1 0,0 0,0 -1,-1zm-103 16c0,-1 0,-1 0,-1 0,-1 0,-1 -1,0 0,0 1,0 1,1zm113 -11c-1,-1 -1,-1 -1,-1 0,0 0,0 0,0 0,0 -1,1 -1,1 0,0 1,0 1,0 0,0 0,0 1,0 0,0 0,0 0,0zm-3 -3c0,1 0,1 -1,1 0,0 0,0 0,0 1,0 1,0 1,0 0,0 0,0 0,0 0,0 0,0 0,-1zm-74 -12c0,0 0,0 0,0 0,1 0,1 0,1 1,0 1,-1 1,-1 0,0 0,0 0,-1 -1,0 -1,0 -1,0 0,0 0,0 0,0 0,0 0,1 0,1zm90 38c0,1 -1,1 -1,2 1,0 1,0 1,0 0,-1 0,-1 0,-1 0,0 0,0 0,-1zm-9 -15c0,1 0,1 0,2 0,0 0,0 1,0 -1,-1 -1,-1 -1,-2zm-124 15c0,0 0,0 0,-1 0,0 0,0 0,0 -1,0 -1,1 -1,1 0,0 1,0 1,0zm137 4c0,-1 0,-1 0,-1 0,0 0,0 1,0 -1,-1 -1,-1 -2,-1 0,1 1,1 1,2zm-4 -7c0,0 0,1 0,1 0,-1 0,-1 0,-1 0,0 -1,0 -1,0 -1,0 -1,0 -1,0 1,0 1,0 2,0zm-113 -28c0,0 -1,0 -1,1 0,0 1,0 1,0 0,0 0,-1 0,-1zm76 -7c0,0 -1,-1 -1,0 0,0 0,0 0,1 0,-1 1,-1 1,-1zm36 38c0,-1 0,-1 -1,-1 0,0 0,0 0,1 0,0 0,0 0,0 0,0 1,0 1,0zm-25 -31c-1,1 -1,1 -1,1 0,1 1,1 1,0 0,0 0,0 0,-1zm3 -1c0,1 1,2 1,2 0,-1 0,-1 0,-2 0,0 -1,0 -1,0zm12 17c0,0 -1,1 -1,1 1,0 1,0 1,0 0,0 0,-1 0,-1zm-43 -25c-1,0 -1,-1 -1,0 0,0 0,0 -1,0 1,0 1,1 1,1 0,-1 1,-1 1,-1zm-37 -1c0,1 0,1 0,1 0,1 0,1 0,1 0,0 1,0 1,0 0,0 0,0 0,-1 0,0 -1,0 -1,-1zm78 20c0,0 1,0 1,0 0,0 0,0 0,-1 0,0 0,0 -1,0 0,0 0,0 0,0 0,1 0,1 0,1zm-118 12c0,1 0,1 0,1 0,0 1,0 1,0 0,0 0,0 0,-1 0,0 0,0 0,0 -1,0 -1,0 -1,0zm64 -32c0,0 0,0 0,0 0,0 0,-1 0,-1 0,-1 0,-1 0,-1 0,0 0,0 0,0 0,1 0,1 0,1 0,0 0,0 0,0 -1,0 -1,-1 -1,-1 0,1 1,2 1,2 0,0 0,0 0,0zm27 3c0,0 0,0 0,-1 0,0 0,1 0,1 -1,0 -1,0 -1,0 0,0 0,-1 0,0 -1,0 -1,0 -1,0 0,0 0,0 1,0 0,0 0,1 0,1 0,0 0,0 0,0 0,0 0,0 1,-1 0,0 0,1 0,0zm43 45c0,0 0,0 0,1 0,0 0,0 0,0 0,1 0,1 0,1 1,0 1,0 1,0 0,-1 0,-1 0,-1 0,0 1,0 1,0 0,0 0,-1 0,-1 0,0 -1,0 -1,0 0,0 0,0 -1,-1 0,0 0,0 0,0 0,0 0,0 -1,0 0,0 0,0 0,1 0,0 0,0 0,0 0,0 1,0 1,0zm-24 -33c0,0 1,0 1,0 1,-1 1,-1 0,-1 0,-1 0,-1 0,-1 0,0 0,0 0,0 0,-1 0,-1 0,-1 0,0 0,0 0,0 -1,0 -1,0 -1,1 0,0 0,0 0,0 0,1 0,1 0,1 0,0 0,0 0,1zm-10 -10c0,0 0,0 0,1 0,-1 0,-1 0,-1 0,0 0,0 0,0 0,0 0,0 0,0 0,0 0,0 0,0zm28 29c0,0 0,0 0,0 0,0 0,0 0,0 1,0 1,0 1,0 0,0 0,0 -1,0z"/>
  <path class="fil0" d="M94 64c0,0 0,0 0,0 0,0 0,0 0,0 0,0 0,0 0,0 0,0 0,0 0,0zm0 -4c0,0 0,0 0,0 0,0 0,0 0,0 0,0 0,0 0,0 0,0 0,0 0,0zm1 4c0,0 0,0 0,0 0,0 0,0 0,0 0,0 0,0 0,0 0,0 0,0 0,0zm6 -2c0,0 0,0 0,0 -1,0 0,0 0,0 0,0 0,0 0,0 0,0 0,0 0,0zm-6 4c0,0 0,0 -1,-1 0,0 0,1 0,1 0,0 0,0 0,0 1,0 1,0 1,0zm5 -2c0,0 0,0 0,0 0,0 0,0 0,0 0,0 0,0 0,0 0,0 0,0 0,0 0,0 0,0 0,0zm-6 -4c0,0 0,0 0,0 0,0 0,0 0,0 0,0 0,0 -1,0 0,0 0,0 0,0 0,0 1,0 1,0zm8 -5c1,0 1,0 1,0 0,0 0,0 0,0 0,0 -1,0 -1,0 0,0 0,0 0,0zm-7 7c0,0 0,0 0,0 0,0 0,0 0,0 0,1 0,1 1,0 -1,0 -1,0 -1,0zm6 3c0,0 0,1 0,1 0,0 1,-1 1,-1 0,0 0,0 0,0 -1,0 -1,0 -1,0zm-3 1c-1,1 -1,1 -1,1 0,0 1,0 1,0 0,0 0,1 0,1 0,-1 0,-1 0,-2zm-3 -5c-1,0 -1,0 -1,0 0,0 0,0 0,0 0,1 -1,1 -1,1 1,0 1,0 2,0 0,0 0,0 0,0 0,0 0,0 0,-1zm1 -1c0,-1 -1,-1 -1,-2 -1,1 -1,1 0,2 0,0 1,0 1,0zm-2 -1c0,0 1,-1 1,-1 -1,0 -1,0 -1,0 0,-1 0,-1 -1,-1 0,1 0,1 0,1 0,0 0,0 0,0 0,1 1,1 1,1zm1 6c1,0 1,0 1,0 0,0 0,0 1,1 0,0 0,0 0,0 0,-1 0,-1 0,-2 0,0 0,0 0,0 0,0 0,0 0,-1 -1,0 -1,0 -1,0 0,1 -1,1 -1,2zm8 -3c0,0 0,-1 0,-1 0,0 0,-1 0,-1 0,-1 0,-1 0,-1 0,0 -1,1 -1,1 0,0 0,-1 0,-1 0,0 -1,0 -1,1 0,0 0,0 0,0 1,0 1,1 1,1 0,1 0,1 0,1 1,0 1,0 1,0zm-8 -8c1,1 1,2 1,3 0,1 -1,1 -1,1 1,0 1,0 1,0 1,2 1,4 2,7 1,-2 1,-4 2,-6 1,0 1,0 1,0 0,-1 0,-1 -1,-1 0,-1 1,-2 1,-4 1,0 2,0 2,0 1,0 1,0 2,0 1,0 1,0 2,0 0,1 0,1 0,1 -2,4 -4,9 -5,13 -1,0 -1,0 -2,0 0,0 0,0 -1,1 1,0 2,0 2,0 0,0 0,1 0,1 -1,0 -4,0 -6,0 0,0 0,-1 -1,-2 1,0 1,0 1,0 0,0 0,0 0,0 0,-1 0,-1 -1,-1 0,0 0,0 0,0 0,-1 -1,-2 -1,-3 0,0 0,0 0,-1 0,0 0,0 0,0 -1,0 -1,-1 -1,-1 -1,-2 -1,-5 -2,-7 0,0 0,0 -1,-1 1,0 5,0 6,0z"/>
  <path class="fil0" d="M125 66c0,0 0,0 0,0 0,0 0,0 0,0 0,0 0,0 0,0 0,0 0,0 0,0zm-6 -11c0,0 0,0 0,0 0,0 0,0 0,0 0,0 0,0 0,0 0,0 0,0 0,0zm10 9c0,0 0,0 0,0 0,0 0,0 0,0 0,0 0,0 0,0 0,0 0,0 0,0zm2 -8c0,0 0,0 0,0 0,0 0,0 0,0 0,0 0,0 0,0 0,0 0,0 0,0zm-5 11c0,0 0,0 0,0 0,0 0,0 0,-1 0,0 0,0 0,1 0,0 0,0 0,0 0,0 0,0 0,0zm-1 1c0,0 0,1 0,1 0,0 0,0 1,0 0,0 0,-1 -1,-1zm5 -3c1,0 1,0 1,0 0,0 0,0 0,0 0,0 0,0 -1,0zm-1 -6c0,0 0,0 0,0 1,0 1,-1 1,-1 0,0 0,0 -1,0 0,0 0,0 0,0 0,0 0,0 0,1zm-5 -3c0,0 0,0 0,-1 -1,0 -1,1 -1,1 0,0 0,0 1,0zm0 10c-1,0 -1,0 -1,0 0,0 0,0 0,1 0,-1 0,-1 1,-1zm0 0c0,0 1,0 1,0 0,0 0,0 0,0 0,0 0,0 1,0 0,0 0,-1 0,-1 0,0 0,0 0,0 -1,0 -1,0 -1,0 0,0 -1,0 -1,1zm3 0c0,0 0,-1 0,-1 -1,0 -1,0 -1,1 0,0 1,0 1,0zm3 -4c0,0 0,0 1,0 0,0 0,0 0,0 0,0 0,-1 0,-1 0,0 -1,0 -1,1 0,0 0,0 0,0 0,0 0,0 0,0zm0 2c0,-1 -1,-1 -1,-2 0,1 0,1 0,1 0,1 0,1 1,1zm0 1c0,0 0,0 -1,1 0,0 0,0 0,1 0,0 1,0 1,0 0,-1 1,-1 0,-2zm-9 -6c1,0 1,1 1,1 0,0 0,0 1,0 0,0 0,0 0,-1 0,0 0,-1 0,-1 0,0 0,0 0,-1 0,0 0,1 -1,1 0,-1 0,-1 -1,-1 0,0 0,1 0,1 0,0 1,0 0,1 0,0 0,0 0,0 0,0 0,0 0,1 1,0 0,-1 0,-1zm12 0c0,0 0,0 0,0 0,0 0,0 0,0 0,0 0,0 0,0 0,0 0,0 0,0 1,0 1,0 0,1 0,1 0,2 -1,3 0,0 0,0 0,1 0,0 -1,0 0,0 0,0 0,0 0,1 0,0 -1,1 -1,1 0,0 0,0 0,0 0,0 0,1 -1,1 0,0 0,0 1,1 -1,0 -1,1 -1,2 -1,0 -1,0 -1,0 0,0 0,0 0,0 0,0 0,0 -1,0 1,-1 1,-1 1,-2 0,0 0,0 -1,0 0,0 0,1 0,1 0,0 0,1 0,1 -1,0 -3,0 -4,0 0,0 0,0 0,0 0,0 0,-1 0,-1 0,0 0,0 0,-1 0,0 0,0 0,-1 0,0 0,0 -1,0 0,0 0,1 0,1 0,0 0,0 0,0 0,-1 0,-1 -1,-2 0,-1 0,-1 1,-1 0,0 0,0 1,0 0,0 0,-1 0,-1 0,0 0,0 0,0 0,-1 0,-1 0,-1 0,0 0,0 0,0 -1,0 -1,1 -1,1 0,0 0,0 -1,0 0,0 0,1 0,1 0,0 0,0 0,0 0,-1 -1,-2 -1,-2 0,0 1,0 1,-1 0,0 0,0 -1,-1 0,0 0,1 0,1 0,0 0,0 0,0 0,0 0,0 0,0 -1,-2 -1,-3 -2,-4 0,0 0,0 0,0 1,0 1,0 1,0 0,0 0,0 0,-1 0,0 0,0 0,0 0,-1 0,-1 0,-1 0,0 -1,0 -1,0 0,0 0,0 0,1 0,-1 0,-1 0,-2 0,0 0,0 0,0 -1,0 -1,0 -1,-1 1,0 4,0 5,0 0,0 0,0 0,1 0,0 0,0 0,0 0,0 0,0 0,0 1,0 1,0 1,0 0,0 0,0 0,0 0,2 1,3 1,4 0,0 0,0 0,1 0,0 0,-1 -1,0 1,0 1,0 1,0 0,0 0,0 0,0 0,0 0,0 0,0 1,1 1,2 1,3 0,0 0,0 0,0 0,0 0,1 0,1 0,0 0,0 0,0 0,0 0,0 0,0 1,0 1,0 1,0 0,0 0,-1 1,-2 0,-1 0,-2 0,-3 1,0 1,-1 1,-2 0,-1 1,-2 1,-3 0,0 0,0 0,0 1,0 3,0 4,0 0,1 0,1 0,1 0,0 0,0 1,0 0,0 0,0 0,-1 0,0 0,0 0,0 0,0 0,1 0,1 0,0 0,0 0,0 0,0 0,0 0,0 0,1 0,1 0,1 0,0 0,0 0,0 0,0 0,0 0,0 -1,0 -1,1 -1,1 -1,0 -1,0 -1,0 0,0 0,1 -1,1 1,0 1,0 1,1 -1,0 -1,-1 -1,-1 0,0 -1,0 -1,0 0,0 -1,0 -1,0 0,0 0,1 0,1 0,1 0,1 1,2 0,-1 0,-2 0,-2 1,0 1,0 2,0z"/>
  <path class="fil0" d="M78 64c0,-1 0,-1 0,-1 0,0 0,0 0,0 0,0 0,0 0,1zm2 5c0,0 0,0 0,0 0,0 0,0 0,0 0,0 0,0 0,0 0,0 0,0 0,0zm0 -11c0,-1 0,-1 -1,-1 1,0 1,0 1,1 0,0 0,0 0,0zm0 1c0,0 0,0 0,0 0,0 0,0 0,0 0,0 0,0 1,0 -1,0 -1,0 -1,0zm8 8c1,0 1,0 1,0 0,0 0,-1 0,-1 0,0 -1,0 -1,1zm-9 0c0,0 0,-1 0,-1 -1,0 -1,1 -1,1 0,0 1,0 1,0zm1 -2c-1,0 -1,0 -1,0 0,0 0,0 1,1 0,-1 0,-1 0,-1zm-2 -4c0,0 0,0 -1,-1 0,0 0,1 0,1 0,0 0,0 0,0 0,0 1,1 1,0zm1 -7c0,1 1,1 1,1 0,0 0,0 0,-1 1,0 1,0 2,0 0,0 0,0 0,0 0,1 0,1 0,1 0,1 0,2 0,4 0,0 0,0 0,0 0,1 0,1 0,1 0,0 0,0 0,0 0,0 0,0 0,0 0,0 0,1 0,1 0,0 0,0 0,0 0,0 0,0 0,0 0,1 0,1 0,2 0,0 0,0 0,0 0,0 0,1 0,1 0,0 0,0 0,0 0,0 0,0 0,0 0,0 0,1 0,1 0,1 0,1 0,1 0,0 0,1 0,1 1,0 2,0 2,0 0,0 0,0 0,0 0,-1 0,-1 0,-1 1,0 2,0 3,0 1,0 2,0 3,0 0,1 0,1 -1,1 1,1 1,1 1,2 0,0 -1,0 -1,0 0,0 0,1 0,1 1,0 1,0 1,0 0,0 0,0 0,0 0,0 0,0 0,0 0,0 -1,0 -1,0 -1,0 -2,0 -3,0 0,0 0,0 0,0 -1,0 -3,0 -4,0 0,0 0,0 -1,0 0,0 0,0 0,0 -1,0 -1,0 -1,0 -1,0 -1,0 -1,0 0,0 -1,0 -1,0 0,0 0,0 -1,0 0,0 0,0 0,0 0,0 0,0 0,0 -1,-1 0,-1 0,-2 0,0 0,0 0,0 0,0 1,0 1,-1 -1,0 -1,0 -1,0 -1,0 0,-1 0,-1 0,0 0,-1 0,-1 0,0 0,-1 0,-2 0,0 0,0 0,0 -1,0 -1,0 0,-1 0,0 0,0 0,0 0,0 0,-1 0,-1 0,-2 0,-4 0,-6 0,0 0,0 0,0 0,-1 0,-1 0,-1 1,0 1,0 2,0z"/>
  <path class="fil0" d="M114 70c0,0 0,0 0,0 0,0 0,0 0,0 0,0 0,0 0,0 0,0 0,0 0,0zm-4 -3c0,0 0,0 0,0 0,0 0,0 0,0 0,0 0,0 0,0 0,0 0,0 0,0zm0 -5c0,0 0,0 0,0 0,0 0,0 0,0 0,0 0,0 0,0zm5 4c0,-1 0,-1 -1,-1 0,0 1,0 1,1zm-1 -11c0,0 0,0 -1,0 0,0 0,0 0,0 0,0 0,0 1,0zm0 1c1,0 1,-1 1,-1 0,0 -1,0 -1,0 0,0 0,0 0,1 0,0 0,0 0,0zm-4 3c0,1 0,1 1,1 0,0 0,-1 0,-1 0,0 0,0 0,0 0,0 0,0 0,0 -1,0 -1,0 -1,0zm1 4c-1,1 -1,1 -1,1 0,1 0,1 1,1 0,0 0,0 0,0 0,-1 0,-1 0,-2zm1 0c0,0 -1,0 -1,0 0,0 0,1 0,1 1,0 1,0 1,0 1,-1 0,-1 0,-1zm2 -5c0,0 0,-1 -1,-1 0,0 0,0 -1,1 0,0 0,0 0,0 1,0 2,0 2,0zm-3 9c0,0 1,0 1,0 0,-1 1,-1 1,0 0,0 1,0 1,0 -1,-1 -1,-2 -1,-2 -1,0 -1,0 -1,0 0,0 0,0 -1,0 0,0 0,1 0,1 1,0 1,0 0,0 0,0 0,1 0,1zm2 -4c0,0 0,1 0,1 1,0 2,0 2,0 0,1 0,2 0,3 0,1 0,1 0,2 0,0 0,1 0,1 -1,0 -1,0 -2,0 0,0 0,0 0,0 -1,0 -1,0 -1,0 0,0 -1,0 -1,0 0,0 0,0 0,0 0,0 0,0 -1,-1 1,0 1,0 1,0 0,0 0,0 0,0 1,0 1,0 1,-1 0,1 0,1 0,1 0,0 1,0 0,0 0,-1 0,-1 0,-2 0,0 0,0 -1,0 0,0 0,1 0,1 1,0 1,0 1,0 -1,0 -1,0 -1,0 -1,0 -1,1 -1,1 0,0 0,0 0,0 0,1 0,1 0,1 0,0 0,0 0,0 0,-3 0,-5 0,-7 0,-1 0,-1 0,-2 0,0 0,0 0,-1 0,0 0,-1 0,-1 0,-1 0,-1 0,-1 0,0 0,-1 0,-1 0,-1 -1,-1 0,-2 0,0 -1,0 0,-1 0,0 1,0 1,0 1,0 2,0 2,0 1,0 2,0 2,0 0,1 0,1 0,1 0,2 0,4 0,6 0,1 0,1 -1,2 0,0 0,0 0,0 0,0 -1,0 -1,0l0 0c0,0 0,0 0,0 0,-1 0,-1 0,-1 0,0 0,0 0,0 0,0 0,0 0,0 0,0 0,0 0,0 0,1 0,1 0,1l0 0z"/>
  <path class="fil0" d="M80 41c0,0 0,0 0,0 0,0 0,0 0,0 -1,0 -1,1 -2,1 0,0 0,-1 -1,-1 1,0 1,0 1,0 0,-1 0,-1 1,-1 0,0 0,0 0,0 0,0 0,0 0,0 0,0 1,1 1,1 0,0 0,0 0,0z"/>
  <path class="fil0" d="M173 67c0,1 0,1 0,1 0,1 0,0 -1,0 0,0 0,0 1,-1z"/>
  <path class="fil0" d="M133 59c0,0 0,-1 1,-1 0,0 0,0 0,0 0,0 0,0 0,1 0,0 -1,0 -1,0 0,0 0,0 0,0z"/>
  <path class="fil0" d="M39 130c0,0 0,-1 0,-1 0,0 0,0 0,0 0,0 0,1 0,1 0,0 0,0 0,0z"/>
  <path class="fil0" d="M172 81c0,0 0,0 0,0l0 0c0,0 0,0 0,0l0 0z"/>
  <path class="fil0" d="M166 57c0,0 0,0 0,0 0,0 0,0 0,0 0,0 0,0 0,0z"/>
  <path class="fil0" d="M113 63c0,0 0,0 0,0 0,0 0,0 0,0 0,0 0,0 0,0l0 0z"/>
 </g>
</svg>
