<?xml version="1.0" encoding="UTF-8"?>
<!DOCTYPE svg PUBLIC "-//W3C//DTD SVG 1.1//EN" "http://www.w3.org/Graphics/SVG/1.1/DTD/svg11.dtd">
<!-- Creator: CorelDRAW X7 -->
<svg xmlns="http://www.w3.org/2000/svg" xml:space="preserve" width="100%" height="100%" version="1.1" style="shape-rendering:geometricPrecision; text-rendering:geometricPrecision; image-rendering:optimizeQuality; fill-rule:evenodd; clip-rule:evenodd"
viewBox="0 0 1200000 1200000"
 xmlns:xlink="http://www.w3.org/1999/xlink">
 <defs>
  <style type="text/css">
   <![CDATA[
    .fil0 {fill:#4F7232;fill-rule:nonzero}
   ]]>
  </style>
 </defs>
 <g id="Слой_x0020_1">
  <metadata id="CorelCorpID_0Corel-Layer"/>
  <path class="fil0" d="M355879 683120c-17064,-36028 -42462,-89484 -76964,-160758 -10237,1522 -20093,6831 -29948,16306 -5309,4928 -12892,13641 -22746,26532 -5303,6821 -9856,14784 -14030,23508 -2654,5690 -5682,15556 -9092,29197 -4172,18190 -6446,34496 -6446,48518 0,21244 4924,35647 14783,43229l154298 0c-1900,-6069 -5308,-14784 -9855,-26532zm-186526 -5699c0,-45873 17440,-86820 52319,-123588 14784,-15546 32222,-28808 52696,-39805l-1900 -4557c-12504,-29568 -29946,-47758 -52313,-54208l11754 762 4924 750 43598 0c3793,0 7202,3416 10619,9858 6820,14782 14403,31850 22745,50420l53832 124359c8721,19712 15925,33734 21234,41708 5306,8344 12129,17047 20474,26532l25394 0 -3028 1893c-11756,7201 -18958,18190 -21234,32984l-757 4928c-1897,-2655 -4168,-5680 -7583,-8725 -13266,-12120 -29572,-18199 -48903,-18199l-173633 0c-19336,0 -36017,4177 -50801,12521l-7584 4547 -3030 1892 6067 -9475c9853,-15925 15919,-30329 18573,-42838l1893 1903 2278 1882c7584,6440 16301,10999 25776,13662 -2272,-9865 -3410,-19720 -3410,-29206z"/>
  <path class="fil0" d="M538608 600467c-9478,-15925 -22742,-23889 -39804,-23889 -17818,0 -31090,8344 -40187,24640 -7585,13271 -11375,29578 -11375,48528 0,7202 759,13652 1897,19712 7202,33744 23502,50431 49665,50431 17438,0 30704,-7963 40182,-23888 7583,-13262 11375,-29197 11375,-47767 0,-18580 -3792,-34505 -11753,-47767zm24645 95915c-9864,13651 -23509,22745 -40948,27292 -8338,2275 -16676,3416 -25400,3416 -22366,0 -40564,-7582 -54969,-22366 -14782,-15163 -21991,-34125 -21991,-56490 0,-18580 4931,-34505 14790,-48148 9476,-13652 23122,-22746 40561,-27684 7202,-1883 14783,-3025 23508,-3025 8719,0 16300,1142 23501,3025 17439,4938 31084,14403 40948,27684 9480,13643 14403,29568 14403,48148 0,18570 -4923,34505 -14403,48148z"/>
  <path class="fil0" d="M612721 612596l0 81131c0,5678 6447,11759 18956,18199 2652,1142 4171,1903 4554,2263 9473,3426 17058,4938 22370,4938l2647 0c6445,-760 11753,-2273 15163,-4176 765,-381 4928,-3406 12134,-8703 10235,-7203 15165,-24269 15165,-50433 0,-9104 -765,-17437 -1899,-25400 -1897,-12510 -9097,-23507 -21225,-32982 -10996,-8725 -22365,-12891 -34118,-12891 -4934,0 -9109,760 -12519,2644 -14026,7212 -21228,15554 -21228,25410zm21987 -104257c-14785,9094 -21987,36017 -21987,81131 7202,-5690 14403,-9486 21608,-11370 4929,-1141 10241,-1902 15550,-1902 13266,0 26153,3405 39045,9855 12134,6450 21986,14414 29186,23889 10241,10988 15548,25772 15548,44351 0,15925 -3795,29959 -10995,42469 -7580,13642 -17431,21605 -29570,23889 -18194,3404 -30333,5298 -36769,5298 -5687,0 -12138,-381 -19338,-1132l-18575 -1903c-8724,-1143 -15546,-1503 -19716,-1503l-1893 0c-3412,0 -9102,360 -17821,1122 6446,-7963 9856,-17428 9856,-28425l0 -85688c0,-45103 6065,-75051 18583,-90226 12883,-15925 30319,-23888 51929,-23888 2282,0 4555,0 6831,381 7959,381 15544,6440 22744,17438 7200,10997 15165,16687 23887,16687 5682,0 12129,-1523 19334,-4166l0 760c-1518,13643 -12893,21605 -26165,21605 -6066,0 -11373,-1522 -15912,-4558 -5692,-3785 -11000,-10226 -15169,-19331 -4554,-8713 -7965,-14032 -9857,-15914 -2652,-2284 -6821,-3417 -12513,-3417 -7205,0 -13271,1514 -17821,4548z"/>
  <path class="fil0" d="M857952 601599c-8719,-15165 -21616,-22747 -38668,-22747 -7584,0 -14784,1513 -21235,4547l-9862 4547c-12503,7963 -18954,15175 -18954,22377l0 68239c0,7964 6451,16306 18954,24640l9862 6450c6072,4177 13651,6061 22369,6061 12507,0 22748,-4928 31462,-15165 7584,-8724 12517,-19712 15169,-32983 1138,-6441 1893,-13272 1893,-20092 0,-18200 -3786,-33364 -10990,-45874zm-39047 122837c-19339,0 -34128,-4166 -44359,-12891l-5313 -4557 0 50051c0,13259 4933,23890 14416,31468 -8724,3797 -14786,7206 -18961,10237l-13651 10611c-1133,378 -1887,378 -2646,378 -1897,0 -2662,-1144 -2662,-3406l0 -186909c0,-20473 -7200,-35638 -21235,-45494 2662,-1522 6077,-2274 10246,-2274 6447,0 14410,2655 23117,8334l8345 6821 3410 -2644 3410 -1514c13277,-8723 28447,-12889 45499,-12889 11753,0 21604,1132 29569,3785 15169,4928 27303,13643 36774,26163 9103,12890 13657,27293 13657,43590 0,14784 -3790,29197 -11755,42468 -7963,13641 -18200,23888 -31092,30329 -10994,5678 -23128,8343 -36769,8343z"/>
  <path class="fil0" d="M993290 618286c-8344,0 -15548,1132 -21225,3404 -29200,11761 -43981,27675 -43981,48528 0,10618 3027,19343 9472,26164 6068,7201 14411,10606 24642,10606 2282,-361 3789,-361 4933,-361 12893,-1522 25776,-7222 38667,-16687 4929,-3795 10241,-8723 15919,-15163l-28427 -56491zm51934 104247l-21220 -42457 -4175 4926c-9861,11760 -20852,21246 -32605,28447 -9482,6059 -20093,9465 -31088,10606 -1897,381 -4169,381 -6066,381 -12514,0 -23124,-4166 -31846,-12510 -8713,-8724 -13268,-18961 -13268,-31471 0,-27674 19714,-48147 59145,-61407 10231,-3417 18954,-5700 26538,-6452l-10615 -20853c-4928,-9856 -12893,-14784 -23888,-14784 -4169,0 -7959,762 -11369,2644 5682,-4917 11754,-9464 18575,-13260l4169 -2275c4175,-2273 6821,-7962 7965,-16677l3410 3026 2266 2654c7205,8343 13277,17448 18959,26913l4549 7962 67103 134587 -26539 0z"/>
  <path class="fil0" d="M390739 824458c-9479,-15924 -22744,-23887 -39809,-23887 -17812,0 -31084,8342 -40184,24645 -7582,13271 -11375,29570 -11375,48528 0,7206 762,13642 1900,19704 7202,33742 23502,50430 49659,50430 17444,0 30711,-7964 40189,-23888 7583,-13260 11375,-29188 11375,-47769 0,-18569 -3792,-34493 -11755,-47763zm24646 95913c-9863,13662 -23502,22749 -40946,27302 -8344,2267 -16681,3406 -25396,3406 -22375,0 -40570,-7581 -54973,-22364 -14791,-15165 -21993,-34123 -21993,-56494 0,-18569 4931,-34493 14787,-48143 9479,-13641 23121,-22750 40563,-27678 7202,-1891 14784,-3035 23503,-3035 8725,0 16306,1144 23509,3035 17444,4928 31083,14405 40946,27678 9475,13650 14403,29574 14403,48143 0,18581 -4928,34509 -14403,48150z"/>
  <path class="fil0" d="M584970 913550c-3408,15924 -18192,27302 -43967,34123 -6452,1886 -13274,2647 -21234,2647 -25778,0 -45881,-10606 -59903,-32211 -10992,-16698 -16300,-33744 -16300,-51195 0,-14784 4170,-27673 12509,-39420 7964,-11761 18955,-20473 32983,-26545 10992,-4928 21990,-7199 33739,-7199 23882,0 41326,8343 51937,25399 -6821,6451 -13646,10616 -20847,12507l-7583 1893c756,-2271 1138,-4543 1138,-7199 0,-6062 -1898,-11381 -6069,-15545 -4163,-4168 -9097,-6440 -15167,-6440 -2268,-381 -3790,-381 -4921,-381 -14788,0 -27675,6453 -37918,19713 -9479,12140 -14022,25780 -14022,41325 0,5681 763,11378 2275,17055 5309,20474 14408,35648 27675,45494l8718 5322c8344,4924 17443,7581 26919,7581 12128,0 24263,-4938 36774,-15165l10994 -11381 3034 -3794 -764 3416z"/>
  <path class="fil0" d="M685765 807021c-7205,-5313 -14785,-7965 -23503,-7965 -16303,0 -28056,8334 -35638,25402l-1516 3414 72791 0c-1144,-8344 -4934,-15163 -12134,-20851zm42456 114113c-14783,18580 -34876,28062 -59892,28062 -18584,0 -35636,-7963 -51184,-23887 -15925,-15923 -23878,-34888 -23878,-56870 0,-1905 751,-7967 751,-9869 4550,-33354 26536,-60267 58762,-64820 5688,-766 10616,-1144 14790,-1144 14020,0 26539,3415 37529,10246 12512,7953 18959,18948 18959,32220l-101607 0 -1136 6062c-1512,7965 -2273,17436 -2273,28068 0,7579 381,13641 1512,18184 3416,14406 10616,25784 21616,34507 10989,8725 23882,13262 38667,13262 10990,0 20852,-2646 30334,-7584l2646 -1118 10241 -6463c1133,-1134 3790,-2265 8333,-4167l-4170 5311z"/>
  <path class="fil0" d="M851612 946536l3411 -8344c1133,-2278 1513,-5299 1513,-9099l0 -100471c0,-9473 -3025,-16673 -8718,-21232l-2272 0c-15548,0 -29575,4174 -42462,12138 -13266,7966 -23507,18959 -30713,32602 -5687,10990 -8338,22367 -8338,33738l0 4553c379,1893 759,3406 759,4550 1892,14785 6451,25400 13651,32219 9476,11381 19713,17068 31087,17068 2651,0 4929,-380 7579,-760l-379 2653c-6441,1522 -13272,2288 -20093,2288 -17815,0 -31845,-5705 -42076,-17068 -9483,-11000 -14417,-25401 -14417,-43985 0,-34493 21617,-60658 64837,-78473 1134,-379 19119,-10790 66231,-10790l17170 -198c-4923,4927 -7959,10224 -8718,15916l1138 123976c375,2276 1513,5303 4169,8719l-33359 0z"/>
  <path class="fil0" d="M945418 844171c3410,7199 9857,14031 18954,19707 10611,6450 22365,10250 35258,11000l7579 378 0 -55348c0,-2650 -1129,-4939 -3789,-6821 -7965,-6450 -17062,-9856 -28058,-9856 -4923,0 -9472,1134 -14400,3027 -11754,4928 -17825,13270 -17825,25398 0,4550 763,8725 2281,12515zm-51938 96303c10231,-760 21230,-7200 32226,-19723l14400 -15545 759 -758c14790,-14786 31087,-23498 48907,-25786l-3794 0 -10995 -2640c-13266,-3036 -23883,-6820 -31846,-11758 -17431,-9846 -26154,-21986 -26154,-36392 0,-14785 8344,-25020 25025,-30707 8334,-2656 16298,-4181 24261,-4181 16299,0 31468,5319 44734,16309l7580 -6062c6447,-3425 12892,-4928 19334,-4928 4169,0 7959,375 11000,1503l-4169 3425c-9483,7574 -14037,16297 -14037,26153l0 98571c0,7581 1523,14021 4175,18959l-30703 0 1513 -4938c1134,-3405 1513,-8324 1513,-14405l0 -42088 -8713 0c-3421,763 -6451,2288 -9862,4559 -8344,6072 -15544,12128 -21231,18210l-20476 20463 -2647 2271c-12518,10632 -22364,15928 -29194,15928 -5689,0 -11375,-1144 -16678,-3794l-4928 -2646z"/>
  <path class="fil0" d="M978373 475506c72569,-7933 62708,-117161 60164,-137621 -2554,-20468 6154,-23164 6154,-23164 5210,9014 9943,35112 29123,23588 19180,-11527 -6399,-26404 -13364,-30117 -6969,-3729 -1913,-4514 1743,-4743 3634,-231 15668,-1215 19632,-4515l0 -9c-9232,-393 -17015,-3570 -18662,-7513 -1631,-3939 2641,-10046 16159,-16611 -4169,-2282 -17626,-477 -22138,1986 -4514,2455 -9805,158 -8919,-3473 4313,-10026 1631,-19866 -569,-23251 -477,-733 -1027,-1098 -1640,-1143l-284 0c-2193,174 -5176,4080 -8815,9708 -4851,7502 -7379,8025 -17421,4553 -10040,-3482 -8275,12498 -10004,17242 -1728,4737 -12641,3497 -11304,8267 1355,4778 13094,5471 23175,5875 -14974,10740 -20123,43442 -26769,61565 -6651,18124 -40087,27246 -57175,4082 -17086,-23163 -16287,-90363 -74790,-92175 -58508,-1815 -68016,68913 -68016,68913 0,0 27790,-29908 46657,-38646 18862,-8738 46236,-3369 44677,10627 -44298,-20134 -72242,22379 -75877,69379 15364,-42944 78888,-64025 91513,-18518 -48810,-40072 -68046,22995 -67811,50441 6309,-36881 60349,-58652 73617,3114 13260,61769 60861,62609 60861,62609 0,0 5169,752 10083,-450z"/>
  <polygon class="fil0" points="974680,559361 982350,559361 982350,467313 974680,467313 "/>
  <path class="fil0" d="M997660 512486c0,10356 -8395,18749 -18754,18749 -10359,0 -18743,-8393 -18743,-18749 0,-10358 8384,-18751 18743,-18751 10359,0 18754,8393 18754,18751z"/>
 </g>
</svg>
