<?xml version="1.0" encoding="UTF-8"?>
<!DOCTYPE svg PUBLIC "-//W3C//DTD SVG 1.1//EN" "http://www.w3.org/Graphics/SVG/1.1/DTD/svg11.dtd">
<!-- Creator: CorelDRAW X7 -->
<svg xmlns="http://www.w3.org/2000/svg" xml:space="preserve" width="100%" height="100%" version="1.1" style="shape-rendering:geometricPrecision; text-rendering:geometricPrecision; image-rendering:optimizeQuality; fill-rule:evenodd; clip-rule:evenodd"
viewBox="0 0 2100000 2100000"
 xmlns:xlink="http://www.w3.org/1999/xlink">
 <defs>
  <style type="text/css">
   <![CDATA[
    .fil2 {fill:#FEFEFE}
    .fil8 {fill:#B2B3B3}
    .fil7 {fill:#0571A3}
    .fil5 {fill:#064A81}
    .fil1 {fill:#0571A3;fill-rule:nonzero}
    .fil6 {fill:#00A0E3;fill-rule:nonzero}
    .fil0 {fill:#00A0E3;fill-opacity:0.301961}
    .fil4 {fill:url(#id0)}
    .fil3 {fill:url(#id1)}
   ]]>
  </style>
  <linearGradient id="id0" gradientUnits="userSpaceOnUse" x1="390590" y1="1.14774e+006" x2="78033" y2="1.13123e+006">
   <stop offset="0" style="stop-opacity:1; stop-color:#4DBFEE"/>
   <stop offset="0.34902" style="stop-opacity:1; stop-color:#4CC0EC"/>
   <stop offset="0.6" style="stop-opacity:1; stop-color:#46C0EA"/>
   <stop offset="1" style="stop-opacity:1; stop-color:#0571A3"/>
  </linearGradient>
  <linearGradient id="id1" gradientUnits="userSpaceOnUse" x1="687349" y1="1.15941e+006" x2="341173" y2="1.11956e+006">
   <stop offset="0" style="stop-opacity:1; stop-color:#0571A3"/>
   <stop offset="0.690196" style="stop-opacity:1; stop-color:#0571A3"/>
   <stop offset="1" style="stop-opacity:1; stop-color:#0D3D62"/>
  </linearGradient>
 </defs>
 <g id="Слой_x0020_1">
  <metadata id="CorelCorpID_0Corel-Layer"/>
  <path class="fil0" d="M1186301 719372c126290,921 281930,60790 343318,167717 42442,73919 -60878,8638 -86523,-3351 -138881,-64931 -261709,-70471 -405142,-13770 -15317,6055 -70906,29965 -43881,-9398 35288,-51395 107472,-65392 167582,-72812 86831,-10721 -21200,-32679 -111315,3465 -71121,28530 -158101,105625 -146582,184013 2012,13698 9797,32739 28429,25775 -42470,12306 -28157,-65279 -18930,-86955 41051,-96426 183458,-166163 289672,-142685 72481,16021 -103263,31002 -105078,31380 -29732,6215 -93549,35734 -98855,65493 -3590,20142 77096,-15024 88877,-18530 152299,-45300 266013,-11681 400449,53574 35330,17150 67004,27984 35451,-22084 -64620,-102530 -210669,-161363 -337472,-161832z"/>
  <path class="fil0" d="M1548369 1316302c267652,-64792 486233,-279722 454572,-505239 -6500,-46288 -39031,-142349 -98039,-57526 -92241,132595 -140443,231924 -331753,301978 -89175,32655 -127360,26561 -203537,43666 -57181,12840 83116,21592 87482,21520 54765,-904 233496,-36153 249349,-32920 49159,10033 -53534,84937 -69538,94467 -206714,123103 -552175,62414 -610985,-142270 -43128,-150108 139034,-254777 227721,-157063 108569,119612 318464,57751 409959,-53268 54770,-66455 72793,-101297 71248,-179625 -10717,145501 -111920,302894 -327323,294878 -170444,-6342 -144118,-138549 -282097,-97735 -127745,37787 -132051,176402 -69559,261201 138821,188371 512295,182668 667888,18647 105436,-111149 -96829,-39466 -152734,-31085 -31431,4710 -127455,15454 -40511,-15513 203019,-72299 260397,-146028 364269,-295157 90630,-130118 110851,53598 101969,114869 -28438,196146 -212272,358835 -448381,416175z"/>
  <path class="fil0" d="M756499 739652c-94284,-11744 -193355,6538 -279637,49000l0 701c85213,-43180 183415,-61339 279637,-49701zm-279637 210655c34140,-15982 72782,-28234 120192,-36010 101107,-16588 139917,2169 230220,18732 54176,9939 -2451,-28259 -29315,-37444 -84018,-28735 -134906,-25369 -217778,-29290 -96152,-4545 16839,-52687 52886,-60628 174068,-38340 389501,78477 385068,265902 -1022,43223 -33099,132920 -85754,112592 -23920,-9234 -55566,-84735 -82931,-115426 -34351,-38531 -76058,-61816 -125630,-75248 93460,23817 133340,74165 175229,155265 59286,114782 163582,-37082 99845,-176996 -73458,-161259 -301527,-225473 -449809,-139342 -56444,32786 -44104,46600 14540,43954 38712,-1748 181253,-1444 204062,27711 5293,6764 -78883,-1875 -87038,-1959 -77697,-781 -143381,16193 -203787,45377l0 2810z"/>
  <path class="fil1" d="M1113232 957039c-147,-23392 39377,-18695 49730,-15381 8248,-11400 15311,-21966 16402,-37219l40 -1447c0,-6509 -3566,-11734 -8582,-15483 -5815,-4346 -13358,-6827 -20161,-7314 -670,-47 -1457,-73 -2347,-73 -169249,1224 -110777,244969 -2507,245556 69424,377 -1473,-128403 9371,-167503 -3505,-5807 -30981,-5059 -41946,-1136zm61841 -9247c55043,26144 70500,98408 68943,153671 -1487,52748 -21811,93107 -40660,104214 -5114,3012 -9005,5265 -16697,-2034 3934,776 7150,1118 11199,-2877 9453,-9324 24618,-27225 29864,-72845 7219,-62778 -6677,-129294 -61968,-164936 -2230,11445 7040,37607 10385,49187 5213,18041 17194,35607 16315,71998 -2110,87461 -78297,81045 -127327,27415 -47674,-52150 -75548,-147527 -12007,-212883 26591,-27350 94617,-53537 129717,-27295 9748,7284 16672,17857 16672,31585 0,818 -39,1778 -117,2860 -1985,27719 -13159,27676 -24319,41940z"/>
  <path class="fil2" d="M532660 1086376l53 90c-23090,7729 -42101,21980 -61196,36299 -27564,20670 -55297,41466 -95910,45467l-1209 120 -1264 -258c-28773,-5823 -49533,-22755 -71505,-40673 -22652,-18475 -46685,-38071 -82047,-45882l21367 -6386c28948,10112 50245,27479 70509,44005 20223,16497 39351,32093 63717,37416 35536,-3876 61295,-23189 86896,-42386 16508,-12379 32957,-24711 51979,-33370l18610 5558zm18446 30043l38 63c-25160,8686 -46027,24334 -66987,40049 -31083,23308 -62356,46758 -108365,51291l-1612 160 -1684 -341c-32664,-6611 -56082,-25710 -80866,-45924 -24914,-20320 -51330,-41857 -89844,-50776l27728 -8283c30493,11572 53391,30238 75223,48045 22451,18312 43691,35632 70492,41577 39235,-4373 67871,-25843 96333,-47187 17585,-13186 35114,-26326 55103,-35976l24441 7302zm23931 40712c-28540,9733 -52191,27460 -75945,45271 -35273,26453 -70762,53065 -123132,58224l-2016 200 -2102 -426c-37235,-7538 -63816,-29215 -91948,-52159 -28319,-23096 -58364,-47588 -102359,-57446l34651 -10355c33980,13174 59626,34081 84091,54032 25216,20567 49072,40019 78985,46723 43906,-4961 76092,-29095 108087,-53087 19527,-14643 38989,-29235 61083,-40119l30605 9142z"/>
  <path class="fil3" d="M374621 828990l0 327460c185,41 368,86 554,124 35536,-3876 61295,-23189 86896,-42386 19935,-14949 39781,-29830 64176,-38253l-151626 -246945zm0 339338l0 23812c203,47 405,94 608,140 39235,-4373 67871,-25843 96333,-47187 22083,-16559 44076,-33044 70970,-42637l8612 14026c-25160,8686 -46027,24334 -66987,40049 -31083,23308 -62356,46758 -108365,51291l-1171 117 0 33108c214,51 426,100 641,148 43906,-4961 76092,-29095 108087,-53087 25397,-19044 50682,-38005 81792,-48832l8281 13491 -40709 -66301c-23090,7729 -42101,21980 -61196,36299 -27564,20670 -55297,41466 -95910,45467l-986 96zm0 92431l0 189217 278228 -158863 1050 -8345 -77980 -125936c-28935,9666 -52827,27576 -76827,45570 -35273,26453 -70762,53065 -123132,58224l-1339 133z"/>
  <path class="fil4" d="M374621 1449976l0 -189217 -677 67 -2102 -426c-37235,-7538 -63816,-29215 -91948,-52159 -28414,-23175 -58564,-47755 -102802,-57547l-83090 135327 4677 8881 275942 155074zm0 -208929l0 -33108 -441 43 -1684 -341c-32664,-6611 -56082,-25710 -80866,-45924 -24967,-20364 -51443,-41950 -90092,-50834l-13493 21974c46589,11349 78291,37196 108232,61615 25034,20419 48730,39740 78344,46575zm0 -48907l0 -23812 -223 24 -1264 -258c-28773,-5823 -49533,-22755 -71505,-40673 -22657,-18480 -46697,-38079 -82071,-45890l-9270 15102c40534,10108 68257,32708 94449,54070 22282,18173 43371,35366 69884,41437zm0 -35690l0 -327460 -148485 241830 0 0c36782,8753 61750,29115 85322,48338 20070,16370 39061,31855 63163,37292z"/>
  <polygon class="fil5" points="98679,1294902 94002,1286021 374621,1443115 374621,1449976 "/>
  <polygon class="fil5" points="652849,1291113 653968,1282786 374629,1442962 374621,1449976 "/>
  <path class="fil6" d="M677213 912155l30516 0 0 120850c0,21087 3339,36397 10013,45829 6677,9481 17484,14198 32372,14198 15735,0 27073,-4717 34014,-14198 6941,-9432 10383,-25009 10383,-46626l0 -120053 26703 0 0 115552c0,24900 -2968,42754 -8848,53617 -12503,23045 -33166,34595 -61934,34595 -24901,0 -43339,-6835 -55313,-20449 -11919,-13672 -17906,-34650 -17906,-62996l0 -120319z"/>
  <path class="fil6" d="M873506 1111151l0 -198996 55735 0c23153,0 39259,1909 48265,5723 19231,7999 28874,22093 28874,42280 0,13879 -3337,25428 -10013,34702 -6675,9272 -17802,17905 -33431,25852l68875 90439 -37139 0 -62995 -82649 -27655 0 0 82649 -30516 0zm30516 -105536l16106 0c16477,0 29457,-3656 39100,-10916 9589,-7312 14410,-17112 14410,-29508 0,-11550 -3603,-19497 -10861,-23736 -7205,-4291 -20556,-6413 -40001,-6413l-18754 0 0 70573z"/>
  <path class="fil6" d="M1384660 916501l0 26490c-22411,-8689 -42330,-13034 -59761,-13034 -27550,0 -41325,9324 -41325,28027 0,7578 2596,13670 7736,18278 5138,4609 14728,9324 28610,14198l19548 6836 18544 6356c28768,10122 43178,27340 43178,51552 0,18435 -7363,33166 -22093,44186 -14727,11018 -34489,16529 -59177,16529 -15694,0 -35595,-3056 -59662,-9167 -2258,-574 -4552,-1174 -6883,-1801l0 -8094 0 -22157c27074,12240 49536,18332 67392,18332 15098,0 27126,-2966 36132,-8955 8953,-5985 13458,-13985 13458,-24051 0,-7685 -2650,-13723 -8001,-18175 -5298,-4449 -16318,-9748 -32954,-15840l-20450 -7469c-20397,-7524 -34543,-15313 -42437,-23258 -7895,-8000 -11868,-18599 -11868,-31843 0,-17907 6092,-31788 18224,-41641 12186,-9802 29299,-14731 51393,-14731 17906,0 38039,3128 60396,9432z"/>
  <polygon class="fil6" points="1498940,1111151 1421694,912155 1454012,912155 1517641,1070357 1582861,912155 1608927,912155 1529775,1111151 "/>
  <polygon class="fil6" points="1637696,1111151 1637696,1088263 1691100,1088263 1691100,935042 1637696,935042 1637696,912155 1775021,912155 1775021,935042 1721616,935042 1721616,1088263 1775021,1088263 1775021,1111151 "/>
  <polygon class="fil6" points="1882943,1111151 1882943,935042 1806333,935042 1806333,912155 1990387,912155 1990387,935042 1913459,935042 1913459,1111151 "/>
  <polygon class="fil7" points="686345,1187342 1203316,1187501 1195211,1196878 686345,1196878 "/>
  <polygon class="fil7" points="1235106,1187342 1953121,1187342 1953121,1196878 1228589,1196878 "/>
  <path class="fil1" d="M706665 1289747l0 -48314 9101 0 0 20863 1753 0 18081 -20863 11272 0 -21014 21813c3713,470 6720,1960 9260,4367 2630,2493 4758,5973 6657,10321l788 1973c1169,2963 2611,6613 4368,9729l191 339 -9656 0 -68 -107c-639,-1034 -1372,-2472 -2128,-4134 -783,-1725 -1598,-3703 -2361,-5740 -1621,-3831 -3535,-6631 -6045,-8467 -2503,-1833 -5616,-2713 -9638,-2713l-1460 0 0 21161 -9101 0 0 -228zm52953 -28710l0 -19604 33838 0 0 48542 -9101 0 0 -41230 -16034 0 0 12292c0,6770 -324,12426 -1435,16906 -1118,4508 -3032,7829 -6210,9904 -1207,954 -2496,1711 -4048,2227 -1553,517 -3365,795 -5624,795l-200 0c-314,-2421 -626,-4848 -949,-7269l216 -38c871,-154 1797,-415 2646,-771 765,-316 1468,-711 2016,-1166l11 -9c2183,-1602 3400,-4064 4070,-7448 680,-3423 804,-7782 804,-13131zm56887 -19375l0 48313 -9201 0 0 -48542 9201 0 0 229zm-8663 -17583c1010,-1009 2424,-1620 4063,-1620 1670,0 3047,599 4018,1588 1008,1025 1575,2474 1575,4103l3 194c0,1473 -538,2795 -1503,3763 -962,963 -2345,1578 -4035,1633l-253 3c-1588,2 -2948,-604 -3919,-1595 -993,-1012 -1580,-2429 -1580,-3998 0,-1612 606,-3047 1631,-4071zm22511 65668l0 -48314 9101 0 0 19375 22392 0 0 -19375 9101 0 0 48542 -9101 0 0 -21754 -22392 0 0 21754 -9101 0 0 -228zm63643 -48085l0 48313 -9200 0 0 -48542 9200 0 0 229zm-8662 -17583c1010,-1009 2423,-1620 4063,-1620 1669,0 3046,599 4017,1588 1008,1025 1576,2474 1576,4103l3 194c0,1473 -539,2795 -1504,3763 -962,963 -2345,1578 -4034,1633l-254 3c-1586,2 -2946,-604 -3917,-1595 -995,-1012 -1580,-2429 -1580,-3998 0,-1612 605,-3047 1630,-4071zm22710 65668l0 -48314 9101 0 0 20863 1753 0 18081 -20863 11272 0 -21014 21813c3712,470 6720,1960 9258,4367 2632,2493 4760,5973 6659,10321l786 1973c1171,2963 2613,6613 4370,9729l191 339 -9657 0 -67 -107c-639,-1034 -1372,-2472 -2128,-4134 -783,-1725 -1598,-3703 -2361,-5740 -1621,-3831 -3536,-6631 -6045,-8467 -2505,-1833 -5616,-2713 -9638,-2713l-1460 0 0 21161 -9101 0 0 -228zm82990 -5442c124,1945 322,3774 617,5401l48 269 -8424 0 -692 -6032c-1459,2009 -3613,3896 -6338,5224 -2404,1166 -5251,1902 -8463,1902 -4605,0 -8162,-1516 -10647,-3851 -2847,-2675 -4285,-6419 -4285,-10188l0 -104c31,-5817 2626,-10330 7526,-13384 4868,-3035 12015,-4624 21184,-4624l200 0 0 -765c0,-1954 -268,-4692 -1738,-6927 -1463,-2226 -4137,-3969 -8962,-3969 -2188,0 -4427,336 -6532,939 -2156,614 -4174,1507 -5862,2598l-244 159 -2140 -6205 149 -97c2049,-1331 4567,-2428 7350,-3182 2667,-721 5584,-1127 8570,-1127 6567,0 10947,1984 13790,5047 3591,3862 4720,9421 4720,14851l0 17982c0,2084 49,4142 173,6083zm-9199 -9452c78,-439 124,-881 124,-1299l0 -8121c-4679,-82 -9642,298 -13447,1826 -3813,1528 -6462,4222 -6462,8779 0,2607 817,4564 2136,5901 1471,1488 3581,2215 5880,2215 2828,0 5179,-826 7025,-2103 2169,-1502 3647,-3630 4384,-5789 150,-450 275,-931 360,-1409zm72260 7929c1736,-454 3166,-1046 4399,-1589l254 -112 1590 6998 -155 82c-1310,684 -3519,1496 -6367,2069 -2180,438 -4735,738 -7549,738 -7295,0 -13326,-2471 -17539,-6788 -4236,-4341 -6633,-10545 -6633,-17979 0,-7550 2620,-14053 7257,-18639 4531,-4477 10985,-7121 18803,-7121 2344,0 4569,263 6526,666 2383,488 4372,1181 5697,1841l170 88 -2122 7213 -251 -142c-1125,-644 -2605,-1259 -4489,-1684 -1557,-348 -3392,-572 -5531,-572 -5223,0 -9293,1850 -12109,4863 -3058,3275 -4651,7929 -4651,13090 0,5392 1695,9767 4530,12823 2948,3175 7133,4930 11931,4930 2464,0 4507,-319 6239,-775zm28819 3276l-17911 -44625 10036 0 10586 28564c559,1625 1145,3412 1693,5160 468,1499 910,2969 1277,4282 263,-860 542,-1809 832,-2792 643,-2183 1342,-4558 2125,-6845l9590 -28369 9736 0 -13233 34586c-3131,8254 -5769,14498 -8370,19326 -2609,4843 -5183,8264 -8185,10867 -1818,1606 -3638,2804 -5297,3680 -2278,1202 -4262,1803 -5543,2035l-201 37 -2307 -7762 214 -69c1171,-371 2546,-948 3967,-1742 1198,-668 2433,-1496 3604,-2486l6 -4c1284,-1018 2745,-2472 4129,-4307 1158,-1533 2261,-3330 3156,-5343 195,-440 368,-834 490,-1175 116,-326 184,-600 184,-820 0,-226 -47,-509 -140,-860 -98,-367 -244,-806 -438,-1338zm34555 -27604l0 -17021 9200 0 0 16026c0,2979 558,5489 2044,7240 1484,1751 3913,2764 7663,2764 1812,0 3650,-328 5365,-885 1764,-579 3401,-1404 4738,-2380l0 -22765 9101 0 0 48542 -9101 0 0 -19207c-1644,1064 -3732,1962 -5972,2595 -2280,644 -4721,1015 -7013,1015 -4848,0 -9012,-1303 -11882,-4156 -2609,-2591 -4143,-6456 -4143,-11768zm86370 25851c122,1945 320,3774 616,5401l49 269 -8425 0 -693 -6032c-1459,2009 -3611,3896 -6338,5224 -2402,1166 -5249,1902 -8463,1902 -4604,0 -8162,-1516 -10647,-3851 -2845,-2675 -4285,-6419 -4285,-10188l0 -104c32,-5817 2627,-10330 7527,-13384 4867,-3035 12015,-4624 21184,-4624l200 0 0 -765c0,-1954 -268,-4692 -1738,-6927 -1464,-2226 -4136,-3969 -8962,-3969 -2187,0 -4427,336 -6532,939 -2157,614 -4175,1507 -5861,2598l-246 159 -2140 -6205 151 -97c2048,-1331 4566,-2428 7348,-3182 2667,-721 5584,-1127 8572,-1127 6565,0 10945,1984 13789,5047 3590,3862 4720,9421 4720,14851l0 17982c0,2084 50,4142 174,6083zm-9199 -9452c76,-439 122,-881 122,-1299l0 -8121c-4677,-82 -9640,298 -13445,1826 -3814,1528 -6464,4222 -6464,8779 0,2607 819,4564 2137,5901 1472,1488 3580,2215 5881,2215 2827,0 5179,-826 7025,-2103 2169,-1502 3646,-3630 4382,-5789 150,-450 275,-931 362,-1409zm51197 7929c1736,-454 3166,-1046 4400,-1589l253 -112 1591 6998 -156 82c-1310,684 -3519,1496 -6367,2069 -2180,438 -4735,738 -7549,738 -7296,0 -13326,-2471 -17539,-6788 -4236,-4341 -6633,-10545 -6633,-17979 0,-7550 2618,-14053 7257,-18639 4531,-4477 10985,-7121 18804,-7121 2343,0 4568,263 6525,666 2383,488 4372,1181 5697,1841l170 88 -2122 7213 -251 -142c-1125,-644 -2605,-1259 -4489,-1684 -1557,-348 -3392,-572 -5530,-572 -5224,0 -9294,1850 -12110,4863 -3058,3275 -4651,7929 -4651,13090 0,5392 1696,9767 4530,12823 2948,3175 7134,4930 11931,4930 2464,0 4507,-319 6239,-775zm15787 6965l0 -48314 9101 0 0 19375 22392 0 0 -19375 9101 0 0 48542 -9101 0 0 -21754 -22392 0 0 21754 -9101 0 0 -228zm57572 -42201c4366,-4675 10547,-7204 17466,-7204 6963,0 12805,2529 16908,6915 4106,4390 6469,10635 6469,18049 0,8179 -2590,14261 -6523,18453 -4686,4996 -11273,7310 -17649,7310 -6709,0 -12636,-2512 -16831,-7016 -4018,-4312 -6447,-10450 -6447,-17951 0,-7863 2501,-14157 6607,-18556zm27320 4709c-2270,-2910 -5558,-4899 -10052,-4899 -4644,0 -8084,1959 -10447,4942 -2826,3562 -4128,8592 -4128,13506 0,5247 1517,9846 4100,13111 2536,3210 6106,5140 10276,5140 4113,0 7714,-1945 10280,-5225 2560,-3276 4095,-7883 4095,-13224 0,-4499 -1251,-9663 -4124,-13351zm33293 -10593l0 48313 -9200 0 0 -48542 9200 0 0 229zm-10133 -9835c-893,928 -2140,1521 -3606,1521 -1515,0 -2811,-593 -3743,-1524 -980,-980 -1554,-2335 -1554,-3772 0,-1453 599,-2778 1559,-3737 959,-960 2285,-1560 3738,-1560 1452,0 2727,573 3638,1522 911,947 1458,2273 1458,3775 0,1437 -548,2794 -1490,3775zm18396 22c-881,917 -2122,1499 -3623,1499 -1509,0 -2776,-587 -3682,-1510 -961,-980 -1514,-2343 -1514,-3786 0,-1465 582,-2801 1543,-3763 947,-945 2261,-1534 3751,-1534 1411,0 2664,579 3564,1533 892,948 1435,2265 1435,3764 0,1449 -531,2817 -1474,3797zm32013 22331l0 -12747 32547 0 0 41532 5005 101c-157,7403 -329,14808 -508,22210l-7316 0 -397 -15301 -32855 0 -397 15301 -7301 0c-119,-7402 -267,-14805 -406,-22210l4184 -101c1009,-1498 1900,-3048 2674,-4644 788,-1625 1455,-3305 1998,-5034 930,-2939 1618,-5998 2076,-9153 468,-3224 696,-6550 696,-9954zm23545 -5631l-15338 0 0 7717c0,3153 -220,6261 -635,9245 -423,3053 -1052,5979 -1859,8703 -501,1651 -1101,3228 -1760,4723 -606,1369 -1264,2680 -1947,3926l21539 0 0 -34314zm33144 -6887l0 48313 -9201 0 0 -48542 9201 0 0 229zm-8663 -17583c1009,-1009 2424,-1620 4063,-1620 1670,0 3047,599 4016,1588 1009,1025 1577,2474 1577,4103l2 194c1,1473 -539,2795 -1504,3763 -961,963 -2344,1578 -4033,1633l-253 3c-1588,2 -2948,-604 -3919,-1595 -993,-1012 -1580,-2429 -1580,-3998 0,-1612 606,-3047 1631,-4071zm57120 60226c122,1945 320,3774 616,5401l49 269 -8426 0 -691 -6032c-1460,2009 -3612,3896 -6338,5224 -2403,1166 -5252,1902 -8463,1902 -4604,0 -8163,-1516 -10648,-3851 -2845,-2675 -4285,-6419 -4285,-10188l0 -104c32,-5817 2627,-10330 7528,-13384 4866,-3035 12013,-4624 21183,-4624l200 0 0 -765c0,-1954 -269,-4692 -1737,-6927 -1464,-2226 -4139,-3969 -8962,-3969 -2189,0 -4427,336 -6534,939 -2155,614 -4173,1507 -5860,2598l-246 159 -2140 -6205 150 -97c2048,-1331 4567,-2428 7350,-3182 2666,-721 5584,-1127 8571,-1127 6565,0 10945,1984 13789,5047 3590,3862 4720,9421 4720,14851l0 17982c0,2084 49,4142 174,6083zm-9200 -9452c77,-439 123,-881 123,-1299l0 -8121c-4677,-82 -9641,298 -13445,1826 -3813,1528 -6463,4222 -6463,8779 0,2607 818,4564 2135,5901 1473,1488 3581,2215 5882,2215 2827,0 5178,-826 7025,-2103 2169,-1502 3645,-3630 4382,-5789 150,-450 275,-931 361,-1409zm22477 14894l0 -48314 29964 0 0 7512 -20863 0 0 41030 -9101 0 0 -228zm37554 0l0 -48314 9101 0 0 19375 22392 0 0 -19375 9101 0 0 48542 -9101 0 0 -21754 -22392 0 0 21754 -9101 0 0 -228zm57572 -42201c4365,-4675 10546,-7204 17466,-7204 6962,0 12804,2529 16907,6915 4107,4390 6470,10635 6470,18049 0,8179 -2592,14261 -6523,18453 -4686,4996 -11273,7310 -17650,7310 -6708,0 -12636,-2512 -16831,-7016 -4017,-4312 -6446,-10450 -6446,-17951 0,-7863 2500,-14157 6607,-18556zm27319 4709c-2270,-2910 -5558,-4899 -10052,-4899 -4643,0 -8084,1959 -10447,4942 -2826,3562 -4128,8592 -4128,13506 0,5247 1518,9846 4100,13111 2536,3210 6106,5140 10275,5140 4114,0 7715,-1945 10281,-5225 2560,-3276 4096,-7883 4096,-13224 0,-4499 -1252,-9663 -4125,-13351zm52616 30527c1735,-454 3166,-1046 4399,-1589l253 -112 1591 6998 -156 82c-1309,684 -3518,1496 -6367,2069 -2179,438 -4735,738 -7548,738 -7295,0 -13327,-2471 -17540,-6788 -4236,-4341 -6632,-10545 -6632,-17979 0,-7550 2619,-14053 7257,-18639 4530,-4477 10984,-7121 18803,-7121 2343,0 4569,263 6526,666 2383,488 4372,1181 5697,1841l169 88 -2122 7213 -250 -142c-1125,-644 -2606,-1259 -4488,-1684 -1558,-348 -3393,-572 -5532,-572 -5224,0 -9293,1850 -12110,4863 -3057,3275 -4651,7929 -4651,13090 0,5392 1696,9767 4531,12823 2947,3175 7133,4930 11931,4930 2464,0 4506,-319 6239,-775zm11415 -34166l0 -7183 39104 0 0 7412 -15001 0 0 41130 -9101 0 0 -41130 -15002 0 0 -229zm46099 41131l0 -48314 8704 0 0 20495c0,3813 -26,6920 -101,9941 -72,2917 -191,5738 -379,9018 1373,-2789 2478,-5020 3611,-7202 1181,-2277 2401,-4518 3991,-7299l15071 -24953 10590 0 0 48542 -8802 0 0 -20593c0,-3918 50,-6903 150,-9882 96,-2867 238,-5716 426,-9378 -1475,2950 -2725,5369 -3933,7631 -1259,2354 -2477,4542 -3866,6972l-3 7c-2252,3672 -4675,7781 -7170,12011 -2566,4355 -5213,8843 -7831,13122l-68 110 -10390 0 0 -228zm55238 0l0 -48314 9101 0 0 20863 1752 0 18081 -20863 11272 0 -21015 21813c3714,470 6719,1960 9259,4367 2632,2493 4760,5973 6659,10321l786 1973c1171,2963 2612,6613 4371,9729l190 339 -9656 0 -67 -107c-640,-1034 -1373,-2472 -2128,-4134 -784,-1725 -1599,-3703 -2362,-5740 -1621,-3831 -3537,-6631 -6045,-8467 -2505,-1833 -5616,-2713 -9638,-2713l-1459 0 0 21161 -9101 0 0 -228zm47388 0l0 -48314 8703 0 0 20495c0,3813 -25,6920 -99,9941 -72,2917 -191,5738 -379,9018 1372,-2789 2477,-5020 3610,-7202 1182,-2277 2401,-4518 3992,-7299l15070 -24953 10590 0 0 48542 -8801 0 0 -20593c0,-3918 50,-6903 149,-9882 96,-2867 238,-5716 426,-9378 -1476,2950 -2725,5369 -3932,7631 -1260,2354 -2478,4542 -3867,6972l-3 7c-2253,3672 -4674,7781 -7170,12011 -2567,4355 -5213,8843 -7831,13122l-68 110 -10390 0 0 -228zm-779337 73319l0 -7182 39104 0 0 7411 -15002 0 0 41130 -9101 0 0 -41130 -15001 0 0 -229zm80010 35690c123,1942 322,3772 616,5401l49 268 -8424 0 -694 -6034c-1457,2011 -3611,3899 -6338,5224 -2402,1169 -5249,1902 -8461,1902 -4605,0 -8162,-1516 -10649,-3851 -2845,-2672 -4285,-6416 -4285,-10185l0 -107c32,-5818 2627,-10330 7527,-13381 4868,-3035 12016,-4626 21184,-4626l200 2 0 -765c0,-1957 -267,-4695 -1737,-6930 -1463,-2226 -4137,-3969 -8963,-3969 -2187,0 -4426,339 -6531,939 -2157,616 -4174,1508 -5862,2601l-246 159 -2140 -6206 151 -99c2049,-1329 4566,-2429 7349,-3180 2668,-722 5585,-1129 8571,-1129 6565,0 10945,1986 13790,5046 3589,3866 4719,9425 4719,14855l0 17982c0,2082 50,4138 174,6083zm-9199 -9452c78,-443 124,-884 124,-1301l0 -8122c-4679,-83 -9642,301 -13447,1826 -3813,1531 -6462,4225 -6462,8780 0,2609 817,4566 2136,5900 1471,1491 3579,2215 5880,2215 2828,0 5179,-823 7025,-2102 2169,-1501 3646,-3632 4382,-5789 151,-448 277,-929 362,-1407zm55180 11201l-17911 -44621 10034 0 10588 28564c559,1624 1145,3409 1693,5160 468,1497 908,2966 1278,4282 262,-863 541,-1809 831,-2794 642,-2181 1342,-4560 2125,-6843l9590 -28369 9736 0 -13233 34583c-3133,8254 -5771,14500 -8370,19326 -2609,4843 -5184,8267 -8187,10870 -1816,1606 -3636,2801 -5295,3677 -2279,1202 -4264,1803 -5543,2038l-201 37 -2307 -7763 214 -70c1169,-372 2544,-946 3967,-1740 1198,-672 2432,-1496 3603,-2488l7 -3c1284,-1017 2745,-2475 4128,-4307 1159,-1535 2261,-3329 3157,-5342 195,-441 366,-835 488,-1179 116,-325 186,-600 186,-816 0,-229 -47,-509 -142,-863 -96,-365 -244,-806 -436,-1339zm44223 23592l-8872 0 0 -52287c0,-3092 -51,-5871 -124,-8440 -75,-2573 -174,-4961 -273,-7248l-13 -238 8306 0 388 8027c1821,-2876 4160,-5166 7023,-6732 2835,-1550 6186,-2389 10055,-2389 5949,0 11153,2546 14843,6974 3597,4316 5753,10422 5753,17694 0,8158 -2334,14389 -5990,18709 -4154,4912 -10012,7350 -16095,7350 -3229,0 -6258,-710 -8842,-2029 -2439,-1241 -4483,-3030 -5930,-5269l0 25878 -229 0zm410 -49504c-108,595 -181,1204 -181,1786l0 8245c0,638 48,1248 122,1836 73,592 171,1156 267,1690 786,2989 2480,5511 4747,7278 2255,1759 5079,2777 8146,2777 4471,0 8018,-1795 10467,-4911 2540,-3233 3908,-7887 3908,-13439 0,-4983 -1365,-9588 -3971,-12844 -2367,-2961 -5770,-4810 -10107,-4810 -2969,0 -5840,1081 -8163,2984 -2263,1855 -4009,4493 -4829,7676 -148,538 -296,1129 -406,1732zm50376 -12597c4366,-4675 10545,-7206 17465,-7206 6964,0 12806,2531 16909,6915 4106,4392 6469,10635 6469,18052 0,8179 -2592,14258 -6524,18449 -4685,5000 -11272,7311 -17648,7311 -6709,0 -12636,-2513 -16833,-7016 -4017,-4312 -6446,-10450 -6446,-17948 0,-7865 2500,-14160 6608,-18557zm27318 4710c-2268,-2910 -5558,-4902 -10052,-4902 -4643,0 -8082,1959 -10447,4941 -2824,3565 -4126,8593 -4126,13510 0,5246 1516,9844 4099,13111 2537,3210 6106,5137 10276,5137 4114,0 7715,-1942 10279,-5226 2560,-3272 4096,-7879 4096,-13222 0,-4497 -1250,-9664 -4125,-13349zm27174 8779l0 -19601 33839 0 0 48541 -9101 0 0 -41229 -16034 0 0 12289c0,6773 -325,12425 -1435,16906 -1118,4510 -3032,7832 -6210,9903 -1209,958 -2497,1715 -4050,2231 -1551,517 -3363,795 -5622,795l-200 0c-314,-2426 -626,-4848 -949,-7272l216 -38c871,-153 1796,-416 2646,-768 765,-319 1468,-712 2016,-1170l11 -9c2183,-1599 3398,-4063 4070,-7444 679,-3423 803,-7783 803,-13134zm50817 -13489c4366,-4675 10546,-7206 17466,-7206 6962,0 12804,2531 16908,6915 4106,4392 6469,10635 6469,18052 0,8179 -2592,14258 -6523,18449 -4686,5000 -11273,7311 -17649,7311 -6709,0 -12637,-2513 -16831,-7016 -4018,-4312 -6447,-10450 -6447,-17948 0,-7865 2501,-14160 6607,-18557zm27320 4710c-2270,-2910 -5558,-4902 -10052,-4902 -4644,0 -8085,1959 -10448,4941 -2825,3565 -4127,8593 -4127,13510 0,5246 1517,9844 4100,13111 2535,3210 6104,5137 10275,5137 4114,0 7715,-1942 10281,-5226 2560,-3272 4094,-7879 4094,-13222 0,-4497 -1251,-9664 -4123,-13349zm23894 37489l0 -48311 29964 0 0 7511 -20863 0 0 41030 -9101 0 0 -230zm46952 -48082l0 48312 -9200 0 0 -48541 9200 0 0 229zm-8661 -17583c1009,-1009 2422,-1623 4062,-1623 1670,0 3046,598 4017,1587 1008,1028 1576,2475 1576,4107l3 194c0,1470 -539,2792 -1504,3759 -962,967 -2345,1579 -4034,1634l-254 6c-1587,1 -2947,-608 -3917,-1595 -995,-1016 -1580,-2429 -1580,-3998 0,-1615 605,-3047 1631,-4071zm31908 17583l0 48312 -9199 0 0 -48541 9199 0 0 229zm-10133 -9836c-893,929 -2140,1520 -3605,1520 -1516,0 -2812,-591 -3743,-1522 -979,-980 -1554,-2336 -1554,-3775 0,-1450 598,-2778 1558,-3737 960,-960 2285,-1558 3739,-1558 1453,0 2726,572 3637,1520 911,949 1458,2273 1458,3775 0,1439 -548,2797 -1490,3777zm18397 21c-882,919 -2121,1499 -3623,1499 -1509,0 -2777,-588 -3682,-1511 -962,-979 -1515,-2343 -1515,-3786 0,-1464 582,-2798 1544,-3760 946,-948 2260,-1535 3752,-1535 1409,0 2664,578 3563,1532 891,948 1435,2267 1435,3763 0,1450 -532,2816 -1474,3798z"/>
  <path class="fil8" d="M230071 1077970l9428 -2817c28947,10112 50243,27479 70507,44005 20223,16497 39352,32093 63718,37416 35535,-3876 61295,-23189 86897,-42386 16506,-12379 32956,-24711 51977,-33370l8845 2641c-18797,8112 -35056,20300 -51377,32536 -27564,20672 -55298,41467 -95910,45468l-1209 121 -1264 -257c-28773,-5825 -49534,-22755 -71506,-40675 -20006,-16318 -41093,-33508 -70106,-42682zm329393 74942c-22443,10143 -42098,24877 -61824,39669 -35272,26453 -70762,53066 -123132,58224l-2016 200 -2102 -426c-37235,-7538 -63815,-29217 -91947,-52159 -24510,-19991 -50314,-41025 -85335,-52712l17628 -5265c33979,13171 59624,34076 84089,54029 25216,20567 49072,40019 78986,46723 43905,-4961 76091,-29095 108087,-53087 19527,-14643 38988,-29235 61082,-40119l16484 4923zm-21605 -40016c-20044,9019 -37567,22153 -55154,35342 -31083,23308 -62356,46758 -108365,51290l-1612 157 -1683 -340c-32664,-6610 -56082,-25711 -80867,-45922 -21713,-17710 -44569,-36343 -75580,-46744l13464 -4024c30495,11575 53391,30241 75223,48048 22452,18312 43691,35632 70492,41576 39236,-4371 67870,-25842 96333,-47186 17587,-13186 35114,-26326 55105,-35976l12644 3779z"/>
 </g>
</svg>
