<?xml version="1.0" encoding="UTF-8"?>
<!DOCTYPE svg PUBLIC "-//W3C//DTD SVG 1.1//EN" "http://www.w3.org/Graphics/SVG/1.1/DTD/svg11.dtd">
<!-- Creator: CorelDRAW X7 -->
<svg xmlns="http://www.w3.org/2000/svg" xml:space="preserve" width="100%" height="100%" version="1.1" style="shape-rendering:geometricPrecision; text-rendering:geometricPrecision; image-rendering:optimizeQuality; fill-rule:evenodd; clip-rule:evenodd"
viewBox="0 0 2100000 2100000"
 xmlns:xlink="http://www.w3.org/1999/xlink">
 <defs>
  <style type="text/css">
   <![CDATA[
    .fil3 {fill:none}
    .fil2 {fill:#FEFEFE}
    .fil4 {fill:#FEFEFE}
    .fil0 {fill:#2B2A29;fill-rule:nonzero}
    .fil1 {fill:#EF7F1A;fill-rule:nonzero}
   ]]>
  </style>
 </defs>
 <g id="Слой_x0020_1">
  <metadata id="CorelCorpID_0Corel-Layer"/>
  <g id="Logo_x0020_отправка_x0020_-_x0020_копия.cdr">
   <path class="fil0" d="M827695 688319l23511 0 0 518348 -23511 0 0 -518348zm123363 0l23511 0 0 518348 -23511 0 0 -518348zm125740 272248l22194 0 0 246053 -22194 0 0 -246053zm0 -66844l22194 0 0 34206 -22194 0 0 -34206z"/>
   <path class="fil0" d="M1406363 1101641c0,28943 -8040,52580 -24120,70911 -19295,22190 -48078,33285 -86347,33285l-74771 0 0 141455c0,10291 -4824,15436 -14472,15436 -9647,0 -14471,-5145 -14471,-15436l0 -372520c0,-10291 4824,-15436 14471,-15436l30391 0c45345,0 84418,12703 117221,38108 34732,27014 52098,61746 52098,104197zm-30873 2412c0,-35054 -13588,-63596 -40762,-85625 -27175,-22029 -62791,-33043 -106849,-33043l-6754 0 0 194403 66088 0c23476,0 41807,-3538 54992,-10613 22190,-11899 33285,-33606 33285,-65122zm286944 14157c0,25963 -8276,47059 -24828,63286 -16552,16227 -37485,24341 -62799,24341l-117322 0c-4220,0 -7789,-1136 -10710,-3408 -2921,-2272 -4382,-5517 -4382,-9736 0,-5518 1866,-9088 5599,-10710 3732,-1623 7383,-2434 10953,-2434l117322 0c16877,0 30264,-4950 40163,-14848 9898,-9899 14848,-24098 14848,-42597 0,-18498 -5680,-31967 -17039,-40405 -7140,-5193 -17038,-8763 -29696,-10710l-86166 -12170c-16552,-2597 -29128,-8195 -37728,-16796 -8601,-8600 -12901,-19716 -12901,-33346 0,-17201 5274,-30102 15822,-38702 10547,-8601 25558,-12901 45030,-12901l114889 0c4219,0 7789,1136 10709,3408 2921,2272 4382,5517 4382,9736 0,5517 -1866,9087 -5599,10710 -3732,1623 -7383,2434 -10953,2434l-113428 0c-9087,0 -15416,811 -18986,2434 -7140,3246 -10710,9250 -10710,18012 0,6816 2029,12576 6086,17282 4056,4706 11602,7871 22637,9493l87139 12657c22069,2921 38865,10954 50386,24098 11521,13144 17282,30101 17282,50872zm82785 -39830l180989 0c0,-29457 -9913,-54524 -29740,-75200 -19827,-20676 -43902,-31015 -72226,-31015 -28040,0 -52045,10409 -72013,31227 -19968,20818 -29952,45956 -29952,75412 0,28608 9913,53108 29740,73501 19826,20393 43902,30589 72225,30589l101966 0 0 22943 -101966 0c-34838,0 -64507,-12392 -89007,-37175 -24500,-24784 -36750,-54736 -36750,-89858 0,-35404 12321,-65852 36962,-91344 24642,-25491 54240,-38237 88795,-38237 34555,0 64154,12604 88795,37812 24642,25209 36963,55657 36963,91345l0 22942 -204781 0 0 -22942z"/>
   <path class="fil1" d="M259654 991364l424662 0c0,-69116 -23260,-127930 -69780,-176444 -46520,-48514 -103009,-72771 -169466,-72771 -65793,0 -122115,24423 -168968,73269 -46852,48846 -70278,107827 -70278,176943 0,67121 23260,124607 69780,172456 46520,47849 103009,71774 169466,71774l27999 0 712840 0 0 23157 -735404 0 0 -5 -1539 5 -5433 0 0 6c-58842,-68 -115044,-19887 -161006,-56608 -65138,-52040 -101675,-131131 -101675,-214252 0,-82639 36592,-160965 101041,-212914 46558,-37528 103779,-57950 163619,-57950 59839,0 117061,20422 163618,57950 64450,51949 101041,130275 101041,212914 0,4897 7,9806 -213,14699 -163,3635 -467,7242 -861,10852l-449443 0 0 7668 456311 0 0 -464 434 -3592c569,-4701 1008,-9389 1220,-14121 225,-5008 221,-10030 221,-15042 0,-84959 -37642,-165479 -103898,-218884 -47920,-38626 -106840,-59648 -168430,-59648 -61590,0 -120511,21022 -168431,59648 -66256,53405 -103897,133925 -103897,218884 0,85453 37596,166748 104556,220243 47401,37870 105406,58287 166098,58287 1172,0 1678,4 2858,0l2296 -7 736917 0 0 23004 -740839 0c-81742,0 -151356,-29075 -208842,-87225 -57485,-58150 -86228,-128429 -86228,-210835 0,-83072 28909,-154513 86727,-214325 57817,-59811 127265,-89717 208343,-89717 81078,0 150525,29573 208343,88720 57818,59147 86727,130589 86727,214325l0 53830 -57665 0 -422821 0 0 -53830zm967695 245227l698859 0 0 23081 -698859 0 0 -23081zm698859 30749l0 23081 -698859 0 0 -23081 698859 0z"/>
   <path class="fil0" d="M739182 1333727c0,1150 -76,1878 -230,2185 -153,306 -728,460 -1724,460 -4216,-537 -8068,-1016 -11555,-1438 -3488,-421 -6075,-632 -7761,-632 -1380,0 -4657,422 -9831,1265 -5174,843 -10367,1801 -15579,2874 -690,2146 -1341,6592 -1954,13337 -614,6746 -920,11575 -920,14487 3909,-996 8623,-1992 14142,-2989 7512,-1380 13222,-2069 17131,-2069 1916,0 3258,172 4024,517 767,345 1112,1131 1035,2357 0,1226 -651,2031 -1954,2414 -460,154 -2626,441 -6497,863 -3870,421 -8699,1188 -14487,2299 -5787,1112 -10252,2127 -13394,3047 -77,690 -154,2319 -230,4887 -77,2567 -115,4043 -115,4426l0 10578c0,5749 -269,10214 -805,13395 -537,3181 -1648,4771 -3334,4771 -1150,0 -2012,-479 -2587,-1437 -575,-958 -863,-2242 -863,-3852 0,-1379 58,-2932 173,-4656 115,-1725 172,-2740 172,-3047 0,-4446 0,-8623 0,-12532 0,-3910 39,-7512 115,-10808 -996,383 -1973,709 -2932,977 -958,268 -1820,402 -2587,402 -1992,0 -2989,-498 -2989,-1494 0,-1150 1035,-2300 3104,-3449 1150,-614 2951,-1342 5404,-2185 0,-1533 39,-4216 115,-8048 77,-3833 115,-6861 115,-9083l345 -11153c-1916,-230 -3066,-422 -3449,-575 -1533,-537 -2300,-1456 -2300,-2759 0,-844 729,-1668 2185,-2472 1456,-805 2721,-1284 3794,-1438 0,-1533 364,-2817 1092,-3851 729,-1035 1591,-1553 2587,-1553 1763,0 3066,326 3910,978 843,651 1418,1590 1724,2817 1916,-690 5538,-1323 10865,-1897 5328,-575 9486,-863 12475,-863 4293,0 9294,537 15005,1610 5710,1073 8565,2184 8565,3334zm23714 5864c0,1226 -115,1993 -345,2300 -536,689 -1724,1034 -3564,1034 -1456,0 -2989,-1130 -4599,-3391 -1610,-2262 -2414,-4197 -2414,-5807 0,-996 268,-1897 804,-2702 537,-805 1418,-1207 2645,-1207 1839,0 3545,1150 5116,3449 1572,2300 2357,4408 2357,6324zm37368 50819c0,2300 -3641,5711 -10923,10233 -7972,4906 -15024,7359 -21156,7359 -2606,-307 -5212,-652 -7818,-1035 -2376,-460 -3909,-1188 -4599,-2185 -1073,-1456 -1840,-2836 -2300,-4139 -690,-1916 -1034,-4407 -1034,-7473 0,-2760 0,-5634 0,-8623 0,-2990 38,-6094 114,-9313 0,-2070 -38,-3335 -114,-3795 0,-1839 210,-3391 632,-4656 421,-1265 1322,-1897 2702,-1897 1380,0 2395,498 3047,1494 651,997 977,3105 977,6324 0,1227 -38,4082 -115,8566 -77,4484 -115,7684 -115,9600 0,4216 345,6861 1035,7934 1150,1839 3909,2759 8278,2759 5136,0 10271,-1303 15407,-3909 4369,-2913 8738,-5864 13107,-8853 537,0 1112,0 1725,0 766,153 1150,690 1150,1609zm72463 1265c0,767 -1533,2185 -4599,4254 -2069,1380 -5902,3680 -11497,6899 -3450,1916 -6707,3277 -9773,4082 -3066,804 -6554,1207 -10463,1207 -3526,0 -6247,-2070 -8163,-6209 -2453,-5212 -3680,-13146 -3680,-23800l345 -6324 -18396 460c-1456,0 -2664,-134 -3622,-402 -958,-268 -1437,-748 -1437,-1437 -77,-1150 249,-1955 977,-2415 729,-460 1821,-843 3277,-1150 2530,-306 5538,-613 9026,-919 3487,-307 6918,-460 10290,-460l920 -20121 0 -1610 0 -1265 0 -4369 0 -1264c77,-844 498,-1687 1265,-2530 766,-843 1379,-1265 1839,-1265 3220,0 4829,4714 4829,14142 0,1074 -210,3986 -632,8739 -422,4752 -632,7895 -632,9428 1916,0 4599,95 8048,287 3449,192 5710,288 6784,288l3104 0c3756,0 6362,191 7818,574 2530,690 3794,1993 3794,3910 0,1609 -479,2606 -1437,2989 -958,383 -2510,575 -4656,575 -1610,0 -3469,-230 -5577,-690 -2107,-460 -3832,-767 -5173,-920 -1342,-153 -3335,-268 -5979,-345 -2645,-76 -5002,-115 -7071,-115 0,613 -39,1744 -115,3392 -77,1648 -115,2740 -115,3277 460,5519 920,11038 1379,16556 844,4600 2683,6899 5519,6899 2377,0 5308,-537 8796,-1610 3488,-1073 6879,-2452 10175,-4139 1763,-996 4159,-2395 7186,-4196 3028,-1802 5002,-2702 5922,-2702 766,0 1264,134 1494,402 230,268 307,901 230,1897zm101553 -2529c0,1456 -1801,3794 -5404,7013 -3296,2990 -6707,5557 -10233,7704 -8508,5212 -15866,7818 -22075,7818 -4829,0 -8547,-1303 -11153,-3909 -2146,-2146 -4062,-5826 -5749,-11038 -690,-2376 -1341,-4791 -1954,-7243 -690,-1917 -1687,-2875 -2990,-2875 -843,0 -2338,1227 -4484,3679 -1763,1993 -3832,4714 -6208,8164 -1227,1839 -2147,3181 -2760,4024 -1686,2223 -3143,3334 -4369,3334 -1916,0 -3296,-1303 -4139,-3909 -307,-996 -747,-3468 -1322,-7416 -575,-3947 -1073,-8029 -1495,-12245 -422,-4216 -632,-7397 -632,-9543 0,-1380 249,-2414 747,-3104 498,-690 1629,-1035 3392,-1035 1073,0 1878,901 2414,2702 537,1801 805,4043 805,6726 0,2376 115,4369 345,5979 230,1609 881,4867 1955,9773 1609,-2530 3947,-5672 7013,-9428 1763,-2146 3622,-3929 5577,-5347 1954,-1418 3621,-2127 5001,-2127 2836,0 5021,1418 6554,4254 919,1763 1935,5232 3046,10406 1112,5174 2051,8565 2817,10175 1303,2760 3220,4139 5749,4139 2683,0 5768,-555 9256,-1667 3487,-1111 7186,-2664 11095,-4656 2606,-1304 6899,-4561 12877,-9773 2376,-2070 3833,-3105 4369,-3105 1073,0 1667,134 1783,403 114,268 172,977 172,2127zm74533 1724c0,920 -1916,2683 -5749,5289 -3832,2606 -7665,4791 -11497,6554 -3833,1763 -7838,3085 -12015,3967 -4178,881 -8106,1322 -11785,1322 -4523,0 -8470,-1265 -11843,-3794 -4216,-3143 -6324,-7589 -6324,-13338 0,-1533 -19,-3123 -57,-4771 -38,-1648 -57,-3354 -57,-5117 0,-1609 38,-3161 114,-4656 77,-1495 230,-2855 460,-4082 537,-2683 2070,-4925 4599,-6726 2530,-1801 5213,-2702 8049,-2702 3909,0 7512,920 10808,2760 3755,2146 5633,4867 5633,8163 0,3066 -1073,5557 -3219,7473 -1533,1380 -3909,2607 -7128,3680 -2300,689 -4427,1398 -6382,2127 -1954,728 -4043,1514 -6266,2357 0,2912 920,5519 2760,7818 2299,2913 5518,4369 9658,4369 3602,0 7071,-383 10405,-1150 3334,-766 7109,-1916 11325,-3449 3066,-1150 6554,-2798 10463,-4944 3296,-1839 4982,-2759 5059,-2759 1303,0 2127,95 2472,287 345,192 517,633 517,1322zm-37942 -17131c0,-1456 -862,-2549 -2587,-3277 -1724,-728 -3928,-1092 -6611,-1092 -843,0 -1859,498 -3047,1495 -1188,996 -1859,1935 -2012,2816 -153,882 -307,2645 -460,5289 -153,2645 -230,4197 -230,4657 1303,-307 3143,-920 5519,-1840 2376,-920 4216,-1705 5519,-2357 1303,-651 2280,-1514 2932,-2587 651,-1073 977,-2108 977,-3104zm84536 -6784c0,1763 -115,2913 -345,3450 -230,536 -919,804 -2069,804 -1227,0 -1993,-115 -2300,-344 -306,-230 -766,-805 -1379,-1725 -844,-1227 -1572,-2108 -2185,-2645 -1073,-919 -2261,-1379 -3564,-1379 -1687,0 -2875,728 -3564,2184 -690,1457 -1035,3411 -1035,5864 0,1456 383,3143 1150,5059 766,1916 2299,4599 4599,8048 1609,2453 3219,4868 4829,7244 1609,2759 2414,5365 2414,7818 0,2376 -517,3986 -1552,4829 -1035,843 -2587,1265 -4657,1265 -2682,0 -5193,-517 -7531,-1552 -2337,-1035 -4235,-2549 -5691,-4542 -996,-1303 -1954,-2798 -2874,-4484 -920,-1686 -1380,-3028 -1380,-4024 0,-2070 728,-3104 2185,-3104 843,76 1724,1034 2644,2874 460,1073 1016,2204 1667,3392 652,1188 1878,2433 3679,3737 1802,1303 3316,1954 4542,1954 1226,0 1840,-498 1840,-1495 0,-996 -575,-2472 -1725,-4426 -1150,-1955 -2261,-3814 -3334,-5576 -537,-1074 -1802,-3182 -3795,-6324 -2606,-4139 -3909,-7704 -3909,-10693 0,-4062 939,-7531 2817,-10405 1878,-2875 4657,-4312 8336,-4312 3526,0 6515,1035 8968,3104 2146,1763 3219,3565 3219,5404zm58207 0c0,1763 -115,2913 -345,3450 -230,536 -920,804 -2070,804 -1226,0 -1992,-115 -2299,-344 -307,-230 -767,-805 -1380,-1725 -843,-1227 -1571,-2108 -2184,-2645 -1073,-919 -2261,-1379 -3565,-1379 -1686,0 -2874,728 -3564,2184 -690,1457 -1035,3411 -1035,5864 0,1456 384,3143 1150,5059 767,1916 2300,4599 4599,8048 1610,2453 3220,4868 4829,7244 1610,2759 2415,5365 2415,7818 0,2376 -518,3986 -1552,4829 -1035,843 -2587,1265 -4657,1265 -2683,0 -5193,-517 -7531,-1552 -2338,-1035 -4235,-2549 -5691,-4542 -997,-1303 -1955,-2798 -2875,-4484 -919,-1686 -1379,-3028 -1379,-4024 0,-2070 728,-3104 2184,-3104 843,76 1725,1034 2645,2874 460,1073 1015,2204 1667,3392 651,1188 1878,2433 3679,3737 1801,1303 3315,1954 4542,1954 1226,0 1839,-498 1839,-1495 0,-996 -575,-2472 -1724,-4426 -1150,-1955 -2262,-3814 -3335,-5576 -536,-1074 -1801,-3182 -3794,-6324 -2606,-4139 -3909,-7704 -3909,-10693 0,-4062 939,-7531 2817,-10405 1878,-2875 4656,-4312 8336,-4312 3525,0 6515,1035 8968,3104 2146,1763 3219,3565 3219,5404zm180570 -34722c-2223,7511 -4177,14736 -5864,21673 -1686,6936 -2529,12934 -2529,17993 0,3066 153,6899 460,11498 690,10348 1034,15637 1034,15867l0 2414c0,1303 -153,2204 -459,2702 -307,498 -1073,747 -2300,747 -1533,0 -2644,-1379 -3334,-4139 -230,-996 -652,-4177 -1265,-9543 -307,-3219 -536,-5998 -690,-8336 -153,-2337 -230,-4886 -230,-7645 -3219,919 -7914,1820 -14084,2701 -6171,882 -11900,1323 -17189,1323 -3986,0 -7263,-77 -9831,-230 -2568,-154 -4388,-498 -5461,-1035 0,767 -383,4216 -1150,10348 -766,6132 -1150,10233 -1150,12302 0,1150 -325,2166 -977,3047 -651,882 -1514,1322 -2587,1322 -766,0 -1341,-824 -1725,-2472 -383,-1648 -574,-3736 -574,-6266 0,-2683 172,-6400 517,-11153 345,-4752 517,-7358 517,-7818 -1073,0 -2088,-96 -3046,-287 -959,-192 -1706,-288 -2243,-288 -1073,0 -1992,-383 -2759,-1150 -766,-766 -1150,-1648 -1150,-2644 0,-1073 729,-1916 2185,-2529 1993,-844 4752,-1265 8278,-1265 920,-3296 1840,-7665 2760,-13107 1303,-7742 1954,-14602 1954,-20581 0,-843 383,-1974 1150,-3392 766,-1418 1533,-2127 2299,-2127 1533,0 2530,556 2990,1667 460,1112 690,2740 690,4887l0 3449c0,2913 -690,8393 -2070,16441 -920,5519 -1801,10195 -2644,14028 3985,689 6649,1130 7990,1322 1342,191 3661,287 6957,287l5633 0c6746,0 11862,-57 15350,-172 3487,-115 6572,-479 9255,-1092 1533,-12035 2683,-19968 3450,-23801 2452,-12417 5173,-18626 8163,-18626 920,0 1763,345 2529,1035 767,690 1150,1571 1150,2645zm98104 57948c0,689 -1150,2107 -3450,4254 -2759,2529 -5710,4714 -8853,6553 -4829,2760 -9428,4810 -13797,6151 -4369,1342 -8623,2013 -12762,2013 -3680,0 -6477,-1859 -8394,-5577 -1916,-3717 -2874,-9332 -2874,-16844 -2376,4753 -4484,8393 -6324,10923 -3909,5442 -7588,8163 -11037,8163 -3143,0 -5232,-881 -6267,-2644 -1034,-1763 -1552,-4638 -1552,-8623 0,-5289 1840,-11306 5519,-18052 4599,-8355 10080,-12532 16442,-12532 2376,0 4100,230 5173,690 1074,460 2338,1418 3795,2874 843,-153 1648,441 2414,1782 767,1342 1150,2856 1150,4542 0,2069 -115,5250 -345,9543 -230,4292 -345,7013 -345,8163 0,3603 268,6017 805,7244 920,2146 2836,3219 5749,3219 2836,0 5327,-230 7473,-690 3756,-766 7780,-2376 12073,-4829 2682,-1456 6055,-3909 10118,-7358 1686,-1380 2606,-2070 2759,-2070 1916,307 2759,1342 2530,3105zm-50820 -15177c230,-614 345,-1188 345,-1725 0,-2070 -881,-3104 -2644,-3104 -3143,0 -6458,2663 -9946,7990 -3487,5328 -5231,9639 -5231,12935 0,1687 134,3143 402,4369 268,1227 709,1840 1322,1840 1917,0 5404,-4369 10463,-13107 1763,-3066 3526,-6132 5289,-9198zm119489 14142c0,766 -2108,2529 -6324,5289 -3219,2069 -7703,4790 -13452,8163 -3449,1993 -6688,3373 -9715,4139 -3028,767 -6535,1150 -10521,1150 -4522,0 -7741,-3488 -9658,-10463 -1379,-5059 -2069,-11574 -2069,-19546 0,-5366 134,-10693 402,-15982 268,-5289 594,-10884 977,-16786l0 -1725 0 -1264 0 -4255 0 -1379c0,-844 384,-1687 1150,-2530 767,-843 1418,-1265 1955,-1265 3142,0 4714,4753 4714,14258 0,2069 -153,5327 -460,9772 -690,10042 -1035,16059 -1035,18052 0,8815 268,14947 805,18396 920,5749 2836,8623 5749,8623 2529,0 5519,-537 8968,-1610 3449,-1073 6784,-2491 10003,-4254 2376,-1226 5940,-3257 10693,-6093 3372,-1993 5404,-2990 6093,-2990 690,0 1150,115 1380,345 230,230 345,882 345,1955zm67175 0c0,766 -2108,2529 -6324,5289 -3219,2069 -7703,4790 -13452,8163 -3449,1993 -6688,3373 -9716,4139 -3027,767 -6534,1150 -10520,1150 -4522,0 -7742,-3488 -9658,-10463 -1380,-5059 -2069,-11574 -2069,-19546 0,-5366 134,-10693 402,-15982 268,-5289 594,-10884 977,-16786l0 -1725 0 -1264 0 -4255 0 -1379c0,-844 384,-1687 1150,-2530 767,-843 1418,-1265 1955,-1265 3142,0 4714,4753 4714,14258 0,2069 -154,5327 -460,9772 -690,10042 -1035,16059 -1035,18052 0,8815 268,14947 805,18396 920,5749 2836,8623 5749,8623 2529,0 5518,-537 8968,-1610 3449,-1073 6783,-2491 10003,-4254 2376,-1226 5940,-3257 10692,-6093 3373,-1993 5404,-2990 6094,-2990 690,0 1150,115 1380,345 230,230 345,882 345,1955z"/>
   <path class="fil2" d="M709096 1014445c395,-3610 699,-7217 862,-10852 220,-4893 213,-9802 213,-14699 0,-82639 -36591,-160965 -101041,-212914 -46557,-37528 -103779,-57950 -163618,-57950 -59840,0 -117061,20422 -163619,57950 -64449,51949 -101041,130275 -101041,212914 0,83121 36537,162212 101675,214252 45962,36721 102164,56540 161006,56608l0 3832 0 3831 5459 0 -2296 7c-1180,4 -1686,0 -2858,0 -60692,0 -118697,-20417 -166098,-58287 -66960,-53495 -104556,-134790 -104556,-220243 0,-84959 37641,-165479 103897,-218884 47920,-38626 106841,-59648 168431,-59648 61590,0 120510,21022 168430,59648 66256,53405 103898,133925 103898,218884 0,5012 4,10034 -221,15042 -212,4732 -651,9420 -1220,14121l-434 3592 0 -7204 -3011 0c1000,-9244 1052,-15149 1052,-25551 0,-151711 -120209,-274698 -268494,-274698 -148285,0 -268494,122987 -268494,274698 0,151607 118373,274523 266515,274692 -148142,-169 -266515,-123085 -266515,-274692 0,-151711 120209,-274698 268494,-274698 148285,0 268494,122987 268494,274698 0,10402 -52,16307 -1052,25551l-3858 0zm-260130 245303l1539 -5 0 5 -1539 0z"/>
   <path class="fil3" d="M712954 1014445c1000,-9244 1052,-15149 1052,-25551 0,-151711 -120209,-274698 -268494,-274698 -148285,0 -268494,122987 -268494,274698 0,151607 118373,274523 266515,274692"/>
   <polygon class="fil4" points="1926208,1267340 1227349,1267340 1227349,1259672 1926208,1259672 "/>
   <polygon class="fil4" points="1185909,1267417 443533,1267417 443533,1259748 1185909,1259748 "/>
   <rect class="fil4" x="259654" y="1014445" width="456310" height="7668"/>
  </g>
 </g>
</svg>
