<?xml version="1.0" encoding="UTF-8"?>
<!DOCTYPE svg PUBLIC "-//W3C//DTD SVG 1.1//EN" "http://www.w3.org/Graphics/SVG/1.1/DTD/svg11.dtd">
<!-- Creator: CorelDRAW X7 -->
<svg xmlns="http://www.w3.org/2000/svg" xml:space="preserve" width="100%" height="100%" version="1.1" style="shape-rendering:geometricPrecision; text-rendering:geometricPrecision; image-rendering:optimizeQuality; fill-rule:evenodd; clip-rule:evenodd"
viewBox="0 0 2100000 2100000"
 xmlns:xlink="http://www.w3.org/1999/xlink">
 <defs>
  <style type="text/css">
   <![CDATA[
    .fil0 {fill:#1F1B20}
   ]]>
  </style>
 </defs>
 <g id="Слой_x0020_1">
  <metadata id="CorelCorpID_0Corel-Layer"/>
  <path class="fil0" d="M519075 1206508l-62499 0 0 -187492 62499 0 0 187492zm-156242 -312490l0 0 249979 0 0 62493 -249979 0 0 -62493zm624894 0l0 0 249979 0 0 312490 -249979 0 0 -312490zm62510 250528l0 0 124964 0 0 -187452 -124964 0 0 187452zm562298 -250528l0 0 62499 0 0 312490 -62499 0 0 -312490zm124981 312490l0 0 0 -249997 62511 0 0 249997 -62511 0zm249985 -249997l0 0 62499 0 0 249997 -62499 0 0 -249997zm-187474 -62493l0 0 0 62493 64630 0 0 187498 60356 0 0 -187498 62488 0 0 -62493 -187474 0zm-1500019 -583l0 0 0 62493 -187514 0 0 62505 187497 0 0 62494 -187497 0 0 62499 187497 0 0 62499 -249991 0 0 -312490 250008 0zm562732 63076l0 0 62499 0 0 249997 -62499 0 0 -249997zm0 -62493l0 0 -187492 0 0 312490 62499 0 0 -249997 124993 0 0 -62493zm624837 62l0 0 0 62500 62487 0 0 187497 -62487 0 0 62488 -187498 0 0 -312485 187498 0zm-124976 62517l0 0 0 187457 124959 0 0 -187457 -124959 0z"/>
 </g>
</svg>
