<?xml version="1.0" encoding="UTF-8"?>
<!DOCTYPE svg PUBLIC "-//W3C//DTD SVG 1.1//EN" "http://www.w3.org/Graphics/SVG/1.1/DTD/svg11.dtd">
<!-- Creator: CorelDRAW X7 -->
<svg xmlns="http://www.w3.org/2000/svg" xml:space="preserve" width="100%" height="100%" version="1.1" style="shape-rendering:geometricPrecision; text-rendering:geometricPrecision; image-rendering:optimizeQuality; fill-rule:evenodd; clip-rule:evenodd"
viewBox="0 0 2100000 2100000"
 xmlns:xlink="http://www.w3.org/1999/xlink">
 <defs>
  <style type="text/css">
   <![CDATA[
    .fil1 {fill:#2B2A29;fill-rule:nonzero}
    .fil0 {fill:#353331;fill-rule:nonzero}
    .fil3 {fill:#252422;fill-rule:nonzero}
    .fil2 {fill:#14693C;fill-rule:nonzero}
   ]]>
  </style>
 </defs>
 <g id="Слой_x0020_1">
  <metadata id="CorelCorpID_0Corel-Layer"/>
  <path class="fil0" d="M1050013 844497c-102532,0 -185644,-86367 -185644,-192901 0,-106542 83112,-192903 185644,-192903 102540,0 185658,86361 185658,192903 0,106534 -83118,192901 -185658,192901zm10949 -391546l-21896 0c-109642,5452 -196801,92304 -196801,198645 0,109856 93016,198909 207748,198909 114740,0 207756,-89053 207756,-198909 0,-106341 -87157,-193193 -196807,-198645z"/>
  <path class="fil0" d="M1108930 638582c1241,-136 2437,-527 3597,-1193 1154,-660 2148,-1690 2987,-3097 832,-1401 1250,-3379 1250,-5919 0,-420 212,-633 644,-633l1937 0c432,0 646,213 646,633l0 29553c0,260 -82,432 -241,515 -164,76 -294,117 -405,117l-1937 0c-266,0 -445,-76 -527,-241 -76,-150 -117,-288 -117,-391 0,-2864 -418,-5075 -1250,-6634 -839,-1565 -1820,-2719 -2946,-3453 -1133,-749 -2307,-1181 -3516,-1312 -1208,-138 -2189,-198 -2945,-198l-31806 0c-647,0 -1133,198 -1456,590 -323,399 -481,920 -481,1551l0 61641c0,1429 282,2638 845,3613 570,981 1347,1826 2341,2540 997,714 2163,1339 3510,1869 1345,527 2828,1035 4441,1510 812,267 1669,500 2583,714 919,213 1668,316 2258,316 323,0 516,95 571,282 48,185 81,302 81,356l0 1902c0,111 -41,241 -122,405 -82,159 -255,233 -530,233l-44069 0c-274,0 -446,-74 -529,-233 -82,-164 -123,-294 -123,-405l0 -1902c0,-109 27,-239 82,-399 54,-158 241,-239 570,-239 590,0 1353,-117 2301,-357 940,-233 1654,-461 2135,-673 2314,-1002 4210,-2342 5693,-4010 1476,-1670 2217,-3694 2217,-6078l0 -106602c0,-2013 -562,-3599 -1695,-4767 -1127,-1160 -2412,-2038 -3833,-2622 -1428,-576 -2773,-948 -4036,-1113 -1264,-158 -2062,-234 -2383,-234l-323 0c-269,0 -440,-82 -522,-239 -83,-158 -124,-288 -124,-399l0 -1902c0,-109 41,-239 124,-397 82,-166 253,-241 522,-241l76129 0c646,109 1127,247 1450,432 321,192 486,652 486,1393l0 19227c0,633 -95,1030 -280,1189 -192,158 -529,240 -1010,240l-967 0c-111,-55 -263,-516 -448,-1394 -193,-872 -446,-1902 -769,-3097 -323,-1187 -714,-2382 -1168,-3577 -459,-1187 -981,-2130 -1578,-2817 -750,-796 -1476,-1454 -2176,-1983 -701,-530 -1478,-954 -2342,-1271 -858,-323 -1855,-528 -2988,-639 -1125,-103 -2499,-157 -4113,-157l-30597 0c-1079,0 -1614,529 -1614,1586l0 36784c0,1216 646,1820 1937,1820l31641 0c755,0 1752,-63 2988,-193z"/>
  <path class="fil0" d="M994092 638775l31641 0c1291,0 1937,-604 1937,-1820l0 -36784c0,-1057 -535,-1586 -1614,-1586l-30597 0c-1614,0 -2988,54 -4113,157 -1133,111 -2130,316 -2988,639 -864,317 -1641,741 -2342,1271 -698,529 -1426,1187 -2181,1983 -592,687 -1114,1630 -1573,2817 -454,1195 -845,2390 -1168,3577 -323,1195 -576,2225 -769,3097 -193,878 -337,1339 -446,1394l-969 0c-481,0 -817,-82 -1008,-240 -187,-159 -282,-556 -282,-1189l0 -19227c0,-741 157,-1201 486,-1393 323,-185 804,-323 1450,-432l76129 0c269,0 440,75 522,241 83,158 124,288 124,397l0 1902c0,111 -41,241 -124,399 -82,157 -253,239 -522,239l-323 0c-321,0 -1119,76 -2382,234 -1264,165 -2609,537 -4037,1113 -1429,584 -2706,1462 -3833,2622 -1133,1168 -1695,2754 -1695,4767l0 106602c0,2384 741,4408 2219,6078 1483,1668 3377,3008 5691,4010 481,212 1201,440 2135,673 948,240 1711,357 2309,357 321,0 508,81 562,239 49,160 82,290 82,399l0 1902c0,111 -41,241 -123,405 -83,159 -255,233 -521,233l-44085 0c-267,0 -440,-74 -522,-233 -81,-164 -122,-294 -122,-405l0 -1902c0,-54 27,-171 82,-356 54,-187 239,-282 562,-282 598,0 1347,-103 2266,-316 915,-214 1773,-447 2583,-714 1613,-475 3096,-983 4436,-1510 1352,-530 2518,-1155 3515,-1869 996,-714 1771,-1559 2341,-2540 563,-975 845,-2184 845,-3613l0 -61641c0,-631 -165,-1152 -481,-1551 -323,-392 -809,-590 -1456,-590l-31806 0c-755,0 -1736,60 -2945,198 -1215,131 -2383,563 -3515,1312 -1127,734 -2108,1888 -2947,3453 -831,1559 -1250,3770 -1250,6634 0,103 -41,241 -117,391 -81,165 -261,241 -527,241l-1937 0c-111,0 -247,-41 -405,-117 -165,-83 -241,-255 -241,-515l0 -29553c0,-420 214,-633 646,-633l1937 0c432,0 644,213 644,633 0,2540 419,4518 1250,5919 839,1407 1833,2437 2987,3097 1161,666 2356,1057 3592,1193 1241,130 2238,193 2993,193z"/>
  <path class="fil0" d="M1037607 621596c-3442,0 -19632,0 -20045,0 -589,0 -1029,253 -1290,548 -255,296 -331,549 -364,845 -35,294 -111,1655 -111,1655 0,0 -109,1578 -1174,1578 -1070,0 -1358,-1578 -1358,-1578 0,0 -372,-2535 -592,-2795 -220,-253 -886,-405 -1470,-405 -589,0 -918,152 -1214,371 -296,218 -736,843 -736,843l-2094 2390c0,0 -810,1174 -1908,1174 -1105,0 -1985,-1323 -1985,-1323 0,0 -2608,-2975 -3021,-3194 -399,-220 -693,-220 -1394,-152 -695,76 -920,187 -1140,447 -220,253 -253,473 -296,845 -33,364 -144,1655 -144,1655 0,0 -33,1722 -1250,1722 -1214,0 -1325,-1798 -1325,-1798l-466 -4855 -7 0 0 -68 7 0 466 -4854c0,0 111,-1801 1325,-1801 1217,0 1250,1725 1250,1725 0,0 111,1290 144,1654 43,370 76,590 296,845 220,261 445,370 1140,440 701,74 995,74 1394,-144 413,-220 3021,-3200 3021,-3200 0,0 880,-1320 1985,-1320 1098,0 1908,1176 1908,1176l2094 2388c0,0 440,625 736,845 296,220 625,372 1214,372 584,0 1250,-152 1470,-407 220,-261 592,-2793 592,-2793 0,0 288,-1581 1358,-1581 1065,0 1174,1581 1174,1581 0,0 76,1358 111,1654 33,296 109,549 364,845 261,294 701,549 1290,549 413,0 16706,0 20132,0l-87 4121z"/>
  <path class="fil0" d="M1062332 617475c3426,0 19714,0 20134,0 582,0 1022,-255 1283,-549 260,-296 331,-549 371,-845 34,-296 109,-1654 109,-1654 0,0 111,-1581 1174,-1581 1065,0 1361,1581 1361,1581 0,0 364,2532 589,2793 220,255 880,407 1470,407 584,0 921,-152 1209,-372 296,-220 735,-845 735,-845l2101 -2388c0,0 804,-1176 1909,-1176 1106,0 1984,1320 1984,1320 0,0 2610,2980 3015,3200 404,218 700,218 1393,144 701,-70 921,-179 1141,-440 220,-255 261,-475 296,-845 33,-364 150,-1654 150,-1654 0,0 35,-1725 1243,-1725 1215,0 1326,1801 1326,1801l473 4854 6 0 -6 33 6 35 -6 0 -473 4855c0,0 -111,1798 -1326,1798 -1208,0 -1243,-1722 -1243,-1722 0,0 -117,-1291 -150,-1655 -35,-372 -76,-592 -296,-845 -220,-260 -440,-371 -1141,-447 -693,-68 -989,-68 -1393,152 -405,219 -3015,3194 -3015,3194 0,0 -878,1323 -1984,1323 -1105,0 -1909,-1174 -1909,-1174l-2101 -2390c0,0 -439,-625 -735,-843 -288,-219 -625,-371 -1209,-371 -590,0 -1250,152 -1470,405 -225,260 -589,2795 -589,2795 0,0 -296,1578 -1361,1578 -1063,0 -1174,-1578 -1174,-1578 0,0 -75,-1361 -109,-1655 -40,-296 -111,-549 -371,-845 -261,-295 -701,-548 -1283,-548 -413,0 -16611,0 -20052,0l-82 -4121z"/>
  <path class="fil1" d="M56098 875774c21,23410 19063,42471 42471,42471 3677,0 7147,-736 10464,-1820 158,0 292,131 483,90 237,-90 2569,-728 6182,-3029 2987,-1752 5699,-3873 8052,-6373 5199,-4963 11289,-12332 17452,-23489 9477,-17154 22325,-28167 32809,-28161l270 -6c1777,33 3385,508 4870,1222 -3209,954 -5572,3798 -5572,7313 0,4278 3462,7731 7745,7739 4262,-8 7725,-3461 7725,-7739 12,-1078 -214,-2102 -611,-3036 -31,-82 11,-136 -16,-191 -2964,-5789 -7965,-9057 -14071,-9168 -126,-6 -231,-6 -340,-6 -12047,0 -25894,11521 -36204,30151 -1872,3406 -3764,6462 -5606,9154 475,-2246 754,-4609 754,-7019 11,-15367 -12520,-27871 -27891,-27871 -12519,0 -22693,10170 -22693,22674 0,10225 8323,18553 18545,18546 8395,0 15200,-6825 15200,-15210 16,-33 0,-41 0,-68 0,-54 37,-130 22,-171 0,-4292 -3463,-7747 -7753,-7753 -4269,0 -7723,3461 -7723,7759 0,4264 3454,7731 7723,7731 415,0 784,-172 1152,-226 -2071,2466 -5158,4080 -8621,4066 -8087,0 -14658,-6579 -14666,-14674 8,-10363 8430,-18822 18814,-18822 13238,0 24021,10787 24013,24019 8,7788 -3028,14839 -7859,20237 -3323,3171 -6231,5246 -8421,6550 -784,418 -1514,948 -2345,1277 0,0 -21,13 -21,35 -3654,1559 -7652,2382 -11862,2382 -21284,0 -38588,-17304 -38588,-38584 0,-26888 21872,-48745 48737,-48745l121338 0c660,5458 3813,9633 7617,9633 4284,-5 7754,-5183 7754,-11618 0,-6413 -3470,-11610 -7754,-11610 -3848,0 -7008,4194 -7617,9730l-121338 0c-28988,0 -52620,23593 -52620,52610zm1987803 1612l0 -3436c-965,-28176 -24210,-50786 -52583,-50786l-121340 0c-611,-5536 -3768,-9730 -7615,-9730 -4284,0 -7758,5197 -7758,11610 0,6435 3474,11613 7758,11618 3798,0 6957,-4175 7615,-9633l121340 0c26861,0 48731,21857 48731,48745 0,21280 -17296,38584 -38582,38584 -4210,0 -8206,-823 -11866,-2382 0,-22 -21,-35 -21,-35 -831,-329 -1559,-859 -2347,-1277 -2184,-1304 -5096,-3379 -8419,-6550 -4827,-5398 -7863,-12449 -7855,-20237 -8,-13232 10773,-24019 24011,-24019 10382,0 18808,8459 18816,18822 -8,8095 -6579,14674 -14668,14674 -3461,14 -6550,-1600 -8617,-4066 364,54 734,226 1146,226 4271,0 7726,-3467 7726,-7731 0,-4298 -3455,-7759 -7726,-7759 -4292,6 -7752,3461 -7752,7753 -14,41 21,117 21,171 0,27 -14,35 0,68 0,8385 6805,15210 15202,15210 10224,7 18547,-8321 18547,-18546 0,-12504 -10176,-22674 -22695,-22674 -15373,0 -27898,12504 -27891,27871 0,2410 281,4773 756,7019 -1842,-2692 -3736,-5748 -5612,-9154 -10306,-18630 -24155,-30151 -36200,-30151 -109,0 -212,0 -336,6 -6112,111 -11111,3379 -14077,9168 -27,55 21,109 -14,191 -397,934 -617,1958 -611,3036 0,4278 3461,7731 7726,7739 4284,-8 7744,-3461 7744,-7739 0,-3515 -2361,-6359 -5574,-7313 1489,-714 3097,-1189 4874,-1222l268 6c10478,-6 23332,11007 32809,28161 6159,11157 12257,18526 17454,23489 2349,2500 5061,4621 8048,6373 3613,2301 5947,2939 6186,3029 187,41 323,-90 481,-90 3317,1084 6785,1820 10466,1820 22869,0 41564,-18193 42434,-40859zm-1243907 -26661c228,-4134 -508,-12167 -8068,-19493 -7793,-7587 -23415,-8220 -34333,-8220l-398537 0c-843,-3358 -3755,-5927 -7391,-5927 -4264,0 -7735,3490 -7735,7747 0,4284 3471,7758 7735,7758 3566,0 6447,-2458 7350,-5732l395345 0c10266,-70 27418,-187 34896,7093 350,337 603,693 913,1030 4895,6701 1208,13259 -2836,13224 -2828,-55 -5129,-2095 -5129,-4662 0,-646 165,-1263 418,-1820 -5823,1312 -10141,6044 -10141,11729 0,6715 5988,12140 13369,12140 4620,0 8638,-2012 10917,-5158 1771,-2306 3007,-5849 3227,-9709zm-535233 -25893c0,-6400 -3457,-11599 -7747,-11599 -4282,0 -7735,5199 -7735,11599 0,6419 3453,11618 7735,11618 4290,0 7747,-5199 7747,-11618zm38896 -31511c0,0 -6591,6599 -17477,3103 1938,15163 -14383,20992 -14383,20992 0,0 26431,-782 31860,-24095zm0 63049c-5429,-23318 -31860,-24103 -31860,-24103 0,0 16321,5845 14383,20993 10886,-3488 17477,3110 17477,3110zm30706 -31538c0,0 -18639,-2404 -21362,-11371 -2413,5925 -22551,8486 -42877,9524 7,296 70,562 70,858 0,968 -113,1915 -226,2850 20393,1037 40598,3583 43033,9529 2723,-8973 21362,-11390 21362,-11390zm968904 35602c2279,3146 6297,5158 10910,5158 7388,0 13378,-5425 13378,-12140 0,-5685 -4320,-10417 -10143,-11729 255,557 418,1174 418,1820 0,2567 -2300,4607 -5129,4662 -4044,35 -7731,-6523 -2836,-13224 310,-337 563,-693 913,-1030 7478,-7280 24625,-7163 34896,-7093l395343 0c907,3274 3784,5732 7348,5732 4265,0 7739,-3474 7739,-7758 0,-4257 -3474,-7747 -7739,-7747 -3632,0 -6544,2569 -7389,5927l-398543 0c-10910,0 -26532,633 -34325,8220 -7560,7326 -8296,15359 -8068,19493 212,3860 1448,7403 3227,9709zm539753 -23984c4286,0 7739,-5199 7739,-11618 0,-6400 -3453,-11599 -7739,-11599 -4292,0 -7753,5199 -7753,11599 0,6419 3461,11618 7753,11618zm-14783 -19034c0,0 -16323,-5829 -14386,-20992 -10883,3496 -17475,-3103 -17475,-3103 5432,23313 31861,24095 31861,24095zm-14386 35844c-1937,-15148 14386,-20993 14386,-20993 0,0 -26429,785 -31861,24103 0,0 6592,-6598 17475,-3110zm-26820 -17038c2437,-5946 22639,-8492 43031,-9529 -109,-935 -220,-1882 -220,-2850 0,-296 57,-562 71,-858 -20325,-1038 -40465,-3599 -42882,-9524 -2719,8967 -21362,11371 -21362,11371 0,0 18643,2417 21362,11390zm-736309 660360c-6422,0 -11626,5199 -11626,11612 0,6404 5204,11611 11626,11611 6419,0 11624,-5207 11624,-11611 0,-6413 -5205,-11612 -11624,-11612zm23894 43849c-5658,-5493 -11281,-11694 -16445,-18771 -1147,650 -2389,1152 -3681,1495 5074,7051 10651,13280 16247,18835 -5651,2081 -11708,3284 -17991,3496 -728,-5049 -1421,-10262 -2024,-15864 -606,5602 -1279,10815 -2005,15864 -6291,-212 -12354,-1415 -17991,-3496 5588,-5555 11151,-11784 16231,-18835 -1304,-343 -2513,-845 -3679,-1495 -5136,7077 -10789,13278 -16447,18771 -9818,-4436 -18230,-11480 -24258,-20284 10526,-15355 28172,-25447 48149,-25447 19980,0 37647,10092 48160,25447 -6034,8804 -14433,15848 -24266,20284zm256647 -55173l-222135 0 0 1944c0,10725 -2953,20772 -8041,29409 -11322,-15587 -29671,-25777 -50365,-25777 -20705,0 -39030,10190 -50354,25777 -5081,-8637 -8033,-18684 -8033,-29409l0 -1944 -222127 0c-5425,-1752 -13267,-4997 -18520,-10231 -8693,8685 -24626,11934 -24626,11934 0,0 15933,3256 24626,11941 4827,-4819 11811,-7924 17113,-9763l219695 0c337,11357 3804,21930 9475,30962 -4854,7729 -8067,16568 -9119,26070 -5204,-7667 -17233,-19630 -41776,-19630l0 185c-144,-48 -266,-185 -446,-185 0,0 -111423,0 -112556,0 -10925,0 -26539,615 -34341,8205 -7552,7353 -8293,15382 -8081,19507 220,3848 1462,7396 3268,9697 2273,3157 6256,5177 10904,5177 7375,0 13348,-5438 13348,-12149 0,-5670 -4311,-10406 -10140,-11739 260,554 426,1179 426,1839 0,2567 -2287,4613 -5131,4644 -4051,39 -7723,-6497 -2828,-13214 282,-335 562,-685 893,-1016 7490,-7293 24644,-7182 34902,-7112l109336 0c180,0 302,-133 446,-181l0 206c33078,0 41179,22353 41488,23312 316,880 1250,1513 2143,1285 948,-164 1628,-969 1628,-1923 0,-10719 2952,-20737 8033,-29387 6035,8342 14097,15077 23464,19561 -13398,12387 -26402,20420 -32671,23910 -8921,4746 -20772,10168 -29197,7800 -480,-131 -872,-286 -1298,-446 -7519,-3599 -7402,-11104 -3819,-12979 2500,-1337 5515,-625 6731,1629 308,555 473,1180 500,1812 4463,-3933 6009,-10148 3317,-15162 -3214,-5890 -11062,-7819 -17551,-4279 -4050,2214 -6612,5873 -7106,9744 -489,2871 122,6573 1757,10063 1779,3728 6221,10601 16424,13298 13590,3605 34100,-9235 34100,-9235 7196,-4174 19816,-12374 32616,-24424 6380,2575 13286,4052 20504,4334 -3426,21300 -8905,36693 -21265,42475 -9016,4236 -17284,4608 -17284,4608 6771,9689 21802,10376 30494,0 3991,-4746 6634,-10390 8288,-14857 -2012,-921 -3460,-2936 -3460,-5318 0,-3192 2602,-5800 5810,-5800 3233,0 5808,2608 5808,5800 0,2382 -1429,4397 -3461,5318 1662,4467 4319,10111 8302,14857 8679,10376 23717,9689 30508,0 0,0 -8280,-372 -17310,-4608 -12360,-5782 -17819,-21175 -21272,-42475 7229,-282 14144,-1759 20531,-4334 12792,12050 25412,20250 32600,24424 0,0 20518,12840 34129,9235 10162,-2697 14626,-9570 16389,-13298 1641,-3490 2246,-7192 1779,-10063 -522,-3871 -3062,-7530 -7128,-9744 -6474,-3540 -14343,-1611 -17537,4279 -2711,5014 -1160,11229 3324,15162 34,-632 185,-1257 481,-1812 1228,-2254 4230,-2966 6735,-1629 3577,1875 3694,9380 -3796,12979 -453,160 -844,315 -1298,446 -8426,2368 -20284,-3054 -29204,-7800 -6289,-3490 -19274,-11523 -32671,-23910 9339,-4484 17407,-11219 23484,-19561 5060,8650 8013,18668 8013,29387 0,954 687,1759 1620,1931 934,124 1841,-413 2129,-1293 82,-239 8302,-23312 41480,-23312l0 -206c187,48 290,181 481,181l109331 0c10244,-70 27382,-181 34888,7112 344,331 605,681 934,1016 4876,6717 1201,13253 -2849,13214 -2858,-31 -5129,-2077 -5129,-4644 0,-660 150,-1285 391,-1839 -5796,1333 -10116,6069 -10116,11739 0,6711 5982,12149 13357,12149 4621,0 8624,-2020 10904,-5177 1798,-2301 3028,-5849 3240,-9697 242,-4125 -500,-12154 -8054,-19507 -7807,-7590 -23421,-8205 -34347,-8205 -1125,0 -112550,0 -112550,0 -191,0 -294,137 -481,185l0 -185c-24519,0 -36542,11963 -41741,19630 -1065,-9502 -4292,-18341 -9119,-26070 5645,-9032 9119,-19605 9462,-30962l219689 0c5316,1839 12306,4944 17111,9763 8722,-8685 24646,-11941 24646,-11941 0,0 -15924,-3249 -24646,-11934 -5232,5234 -13080,8479 -18496,10231zm-280541 112180c-3303,6303 -11599,11124 -13590,14935 -2005,3811 3316,10100 6956,17249 3667,7134 6634,17427 6634,17427 0,0 2985,-10293 6631,-17427 3661,-7149 8983,-13438 6998,-17249 -2005,-3811 -10313,-8632 -13629,-14935zm733514 -228616c-2280,-3167 -6289,-5170 -10898,-5170 -7381,0 -13369,5437 -13369,12140 0,5692 4320,10437 10141,11749 -280,-572 -418,-1189 -418,-1828 0,-2583 2287,-4634 5129,-4669 4044,-39 7733,6503 2830,13239 -310,322 -570,687 -913,1009 -7486,7271 -24624,7170 -34898,7094l-248397 0c-1065,0 -1910,859 -1910,1921 0,1059 845,1931 1910,1931 0,0 250486,0 251619,0 10939,0 26545,-624 34352,-8212 7554,-7342 8304,-15380 8062,-19501 -212,-3873 -1442,-7389 -3240,-9703zm-1186591 32616l-248407 0c-10256,69 -27406,172 -34882,-7114 -354,-331 -603,-673 -915,-1016 -4895,-6715 -1208,-13259 2836,-13210 2826,35 5123,2065 5123,4640 0,646 -155,1279 -412,1834 5812,-1326 10135,-6044 10135,-11743 0,-6700 -5989,-12130 -13365,-12130 -4622,0 -8636,2010 -10909,5167 -1795,2301 -3025,5846 -3235,9692 -245,4124 506,12157 8062,19513 7799,7579 23421,8204 34345,8204 1129,0 251624,0 251624,0 1053,0 1916,-862 1916,-1937 0,-1057 -863,-1900 -1916,-1900z"/>
  <path class="fil2" d="M664719 1254870c-784,4349 -3556,16991 -4735,20938l-60445 0 0 -3819c11058,-788 12247,-1709 12247,-12901l0 -52283c0,-11186 -924,-11846 -11589,-12770l0 -3819 35421 0 0 3819c-10271,796 -11583,1454 -11583,12770l0 51886c0,6972 656,9481 3155,10797 2499,1452 6856,1581 12119,1581 6976,0 11451,-660 14483,-4076 2373,-2638 4740,-6850 6846,-13041l4081 918z"/>
  <path class="fil2" d="M791370 1254870c-652,4609 -3418,16858 -4477,20938l-64252 0 0 -3819c11844,-920 13033,-1977 13033,-12770l0 -52015c0,-11715 -1189,-12245 -11190,-13169l0 -3819 59258 0c0,3165 652,12112 1181,19088l-4086 666c-1181,-5401 -2629,-8554 -4346,-11198 -1972,-2892 -5522,-3813 -14612,-3813l-9346 0c-4216,0 -4608,401 -4608,4349l0 29628 11846 0c11722,0 12640,-1057 14221,-9882l3955 0 0 25415 -3955 0c-1711,-9345 -2762,-10141 -14221,-10141l-11846 0 0 24363c0,6192 783,9220 3152,10797 2501,1581 7122,1581 13438,1581 9477,0 13302,-1057 16192,-4339 2369,-2774 4745,-7251 6723,-12512l3940 652z"/>
  <path class="fil2" d="M924622 1275808l0 -3819c10534,-1049 11056,-1845 10926,-15402l-392 -53202 -521 0 -31606 71508 -2768 0 -28963 -69661 -399 0 -1840 36870c-535,10791 -535,16725 -404,21722 274,6188 3295,7245 12118,8037l0 3947 -30810 0 0 -3947c7498,-792 10135,-2373 11062,-7774 652,-4477 1580,-10404 2499,-24226l1977 -27131c1190,-16718 392,-17510 -11452,-18695l0 -3819 22638 0 29107 64393 29623 -64393 23174 0 0 3819c-11445,1185 -12243,1584 -11844,14617l1312 47805c261,13687 790,14483 11988,15532l0 3819 -35425 0z"/>
  <path class="fil2" d="M1045474 1259088c0,9481 2507,12113 10665,11981 10142,0 19487,-5534 19487,-19218 0,-13179 -8953,-19234 -24754,-19234l-5398 0 0 26471zm5528 -30948c14221,0 20147,-5658 20147,-16728 0,-9475 -5405,-16719 -16980,-16719 -3167,0 -5927,527 -7109,1319 -1187,796 -1586,2367 -1586,6453l0 25675 5528 0zm15149 1579c13423,1977 23696,7774 23696,20943 0,8685 -4868,15535 -12512,19747 -6707,3821 -15799,5399 -26203,5399l-29889 0 0 -3819c11062,-788 11858,-1709 11858,-12642l0 -52674c0,-10922 -528,-11714 -10932,-12638l0 -3819 34629 0c10005,0 15938,1578 20276,4477 4608,3164 7375,8829 7375,15016 0,12512 -10540,17643 -18298,19618l0 392z"/>
  <path class="fil2" d="M1219666 1254870c-660,4609 -3420,16858 -4477,20938l-64257 0 0 -3819c11844,-920 13033,-1977 13033,-12770l0 -52015c0,-11715 -1189,-12245 -11186,-13169l0 -3819 59251 0c0,3165 660,12112 1182,19088l-4080 666c-1180,-5401 -2636,-8554 -4347,-11198 -1977,-2892 -5525,-3813 -14617,-3813l-9347 0c-4216,0 -4607,401 -4607,4349l0 29628 11846 0c11727,0 12640,-1057 14226,-9882l3950 0 0 25415 -3950 0c-1717,-9345 -2766,-10141 -14226,-10141l-11846 0 0 24363c0,6192 790,9220 3159,10797 2499,1581 7114,1581 13438,1581 9475,0 13294,-1057 16190,-4339 2371,-2774 4746,-7251 6723,-12512l3942 652z"/>
  <path class="fil2" d="M1309577 1234065c6455,0 10809,-1049 14096,-3687 4870,-3941 6978,-9214 6978,-16192 0,-14226 -9086,-19493 -18561,-19493 -3825,0 -5927,527 -6984,1319 -920,796 -1312,2237 -1312,5664l0 32389 5783 0zm48595 42800c-1442,0 -2898,0 -4477,-136 -11194,-524 -16453,-3551 -22378,-12107 -4346,-6194 -8954,-14228 -12778,-20677 -2371,-3825 -4609,-5403 -10933,-5403l-3812 0 0 20677c0,11061 1182,11982 11586,12770l0 3819 -35556 0 0 -3819c10665,-788 11852,-1709 11852,-12770l0 -52546c0,-11054 -1187,-11714 -11322,-12638l0 -3819 33439 0c10011,0 16465,1187 21471,4615 5398,3418 8824,9214 8824,17247 0,11324 -7121,18170 -16726,22378 2238,4216 7642,13047 11583,18966 4745,6986 7511,10534 10534,13830 3426,3688 6324,5267 9222,6057l-529 3556z"/>
  <path class="fil2" d="M1500495 1239729c-7628,1183 -8294,1849 -8294,9736l0 11071c0,4608 136,8824 927,12382 -8035,1975 -19097,4868 -29500,4868 -29360,0 -48718,-17915 -48718,-44112 0,-30417 24486,-45436 50565,-45436 11055,0 21068,2906 25414,3817 391,4477 1051,11729 2108,20813l-3955 791c-3167,-15802 -13033,-20545 -25675,-20545 -19225,0 -33845,14748 -33845,38843 0,19225 10931,41089 35692,41089 4080,0 8021,-794 10664,-2238 2500,-1320 3950,-3163 3950,-8296l0 -11459c0,-9475 -798,-10273 -13830,-11324l0 -3817 34497 0 0 3817z"/>
  <path class="fil3" d="M555274 976753c-1787,-8899 -3117,-13123 -6233,-17796 -3558,-6229 -8453,-8006 -25362,-8006l-16909 0c-6450,0 -7118,438 -7118,6892l0 52951 22912 0c20248,0 21136,-1995 24027,-16235l6234 0 0 42716 -6234 0c-2891,-15130 -3779,-17808 -24027,-17808l-22912 0 0 40276c0,19135 1777,20470 22024,21798l0 6234 -60514 0 0 -6234c17798,-1328 19577,-2663 19577,-21798l0 -88545c0,-19361 -1779,-20467 -18910,-21806l0 -6229 97892 0c0,8006 1110,22250 2227,32708l-6674 882z"/>
  <path class="fil3" d="M716549 1017250c11346,0 18688,-1785 24247,-6234 8681,-6667 12239,-15576 12239,-27583 0,-24031 -15798,-32930 -32706,-32930 -6451,0 -10235,886 -12014,2225 -1557,1113 -2450,3792 -2450,9785l0 54737 10684 0zm81867 72308c-2671,0 -5116,0 -7780,-222 -16687,-893 -26038,-5788 -36042,-20249 -7788,-10905 -15801,-24698 -22474,-35602 -3780,-6222 -7564,-8899 -19133,-8899l-7122 0 0 35379c0,18913 2005,20248 19805,21576l0 6234 -58512 0 0 -6234c18242,-1328 20247,-2663 20247,-21576l0 -89435c0,-18913 -1781,-19579 -19135,-21138l0 -6229 55175 0c16241,0 27137,1999 35598,7568 8899,5789 14680,15797 14680,29142 0,19135 -11789,30921 -28248,38045 3776,7338 13121,22247 19795,32256 8013,11564 12683,17352 18026,23137 6001,6680 11116,9123 16013,10458l-893 5789z"/>
  <path class="fil3" d="M894507 1087775l0 -6234c18244,-1328 20023,-2663 20023,-21576l0 -88989c0,-18914 -1779,-20245 -20023,-21584l0 -6229 58963 0 0 6229c-18251,1339 -20030,2670 -20030,21584l0 88989c0,19133 1779,20248 20030,21576l0 6234 -58963 0z"/>
  <path class="fil3" d="M1135440 976977c-4002,-14240 -9785,-29590 -29142,-29590 -17138,0 -24698,12463 -24698,24470 0,16247 10684,23805 28256,32928 17345,8909 38487,19356 38487,44276 0,23361 -19803,42046 -49391,42046 -9119,0 -16239,-1771 -21802,-3332 -5561,-2007 -8899,-3560 -10890,-4673 -1785,-4674 -4683,-23805 -6014,-34485l6446 -1551c3558,13570 13569,36036 36482,36036 16693,0 26705,-10458 26705,-26694 0,-16468 -12243,-24250 -28922,-33149 -14242,-7570 -36710,-18688 -36710,-43832 0,-21364 17133,-39600 45829,-39600 10238,0 19583,2443 28036,5115 886,8014 2005,16691 3777,30707l-6449 1328z"/>
  <path class="fil3" d="M1277812 1010794c0,41825 22913,72308 54287,72308 24699,0 46941,-20695 46941,-63411 0,-46942 -24473,-71858 -53623,-71858 -24918,0 -47605,21358 -47605,62961zm123921 2900c0,48044 -33597,77413 -74303,77413 -40279,0 -72312,-31364 -72312,-74081 0,-40049 28029,-77199 74749,-77199 37821,0 71866,29364 71866,73867z"/>
  <path class="fil3" d="M1556114 1017250c11344,0 18692,-1785 24253,-6234 8673,-6667 12237,-15576 12237,-27583 0,-24031 -15794,-32930 -32706,-32930 -6454,0 -10238,886 -12010,2225 -1559,1113 -2452,3792 -2452,9785l0 54737 10678 0zm81877 72308c-2677,0 -5116,0 -7794,-222 -16679,-893 -26024,-5788 -36034,-20249 -7794,-10905 -15801,-24698 -22468,-35602 -3791,-6222 -7573,-8899 -19137,-8899l-7122 0 0 35379c0,18913 2007,20248 19805,21576l0 6234 -58518 0 0 -6234c18238,-1328 20249,-2663 20249,-21576l0 -89435c0,-18913 -1785,-19579 -19137,-21138l0 -6229 55173 0c16247,0 27151,1999 35604,7568 8899,5789 14680,15797 14680,29142 0,19135 -11797,30921 -28248,38045 3776,7338 13121,22247 19795,32256 8008,11564 12683,17352 18026,23137 6007,6680 11116,9123 16011,10458l-885 5789z"/>
  <path class="fil1" d="M693805 1409658c-354,142 -847,314 -1476,502 -632,199 -1319,376 -2092,547 -763,179 -1547,339 -2369,467 -829,131 -1598,201 -2336,201 -2403,0 -4330,-294 -5765,-880 -1434,-590 -2540,-1353 -3320,-2293 -777,-934 -1293,-2012 -1540,-3207 -255,-1209 -378,-2410 -378,-3619l0 -9668 4142 0 0 9320c0,704 57,1461 172,2244 122,796 410,1524 885,2205 467,670 1156,1228 2065,1674 911,434 2157,650 3739,650 1966,0 3648,-177 5042,-547 1393,-364 2468,-733 3231,-1121l0 -14425 4181 0 0 31416 -4181 0 0 -13466z"/>
  <path class="fil1" d="M740147 1420350c1902,0 3549,-378 4929,-1121 1374,-748 2507,-1744 3385,-2972 879,-1236 1526,-2624 1936,-4164 405,-1536 611,-3102 611,-4679 0,-1581 -206,-3147 -611,-4691 -410,-1538 -1057,-2925 -1936,-4156 -878,-1228 -2011,-2222 -3385,-2966 -1380,-753 -3027,-1127 -4929,-1127 -1909,0 -3550,374 -4926,1127 -1388,744 -2511,1738 -3397,2966 -875,1231 -1524,2618 -1932,4156 -411,1544 -615,3110 -615,4691 0,1577 204,3143 615,4679 408,1540 1057,2928 1932,4164 886,1228 2009,2224 3397,2972 1376,743 3017,1121 4926,1121zm0 3472c-2501,0 -4683,-443 -6561,-1337 -1874,-901 -3449,-2108 -4703,-3632 -1261,-1532 -2213,-3278 -2843,-5232 -635,-1972 -944,-4041 -944,-6207 0,-2139 309,-4204 944,-6180 630,-1985 1582,-3745 2843,-5269 1254,-1524 2829,-2733 4703,-3646 1878,-905 4060,-1366 6561,-1366 2494,0 4676,461 6550,1366 1880,913 3453,2122 4716,3646 1258,1524 2206,3284 2836,5269 633,1976 942,4041 942,6180 0,2166 -309,4235 -942,6207 -630,1954 -1578,3700 -2836,5232 -1263,1524 -2836,2731 -4716,3632 -1874,894 -4056,1337 -6550,1337z"/>
  <path class="fil1" d="M781859 1423563c-445,0 -905,-42 -1385,-118 -481,-66 -880,-177 -1168,-321l0 -3790c562,177 1160,269 1806,269 1318,0 2355,-688 3097,-2048 749,-1361 1304,-3284 1648,-5740 357,-2468 576,-5413 666,-8833 90,-3402 130,-7167 130,-11274l19722 0 0 31416 -4183 0 0 -27899 -11447 0c-27,2492 -82,4913 -158,7276 -76,2365 -206,4596 -391,6690 -185,2100 -473,4023 -858,5789 -378,1765 -900,3281 -1538,4560 -646,1269 -1456,2258 -2423,2963 -970,708 -2143,1060 -3518,1060z"/>
  <path class="fil1" d="M848528 1420350c1902,0 3551,-378 4923,-1121 1380,-748 2507,-1744 3385,-2972 880,-1236 1524,-2624 1937,-4164 412,-1536 611,-3102 611,-4679 0,-1581 -199,-3147 -611,-4691 -413,-1538 -1057,-2925 -1937,-4156 -878,-1228 -2005,-2222 -3385,-2966 -1372,-753 -3021,-1127 -4923,-1127 -1917,0 -3550,374 -4930,1127 -1388,744 -2507,1738 -3392,2966 -880,1231 -1525,2618 -1937,4156 -411,1544 -617,3110 -617,4691 0,1577 206,3143 617,4679 412,1540 1057,2928 1937,4164 885,1228 2004,2224 3392,2972 1380,743 3013,1121 4930,1121zm0 3472c-2507,0 -4683,-443 -6565,-1337 -1874,-901 -3447,-2108 -4702,-3632 -1266,-1532 -2212,-3278 -2844,-5232 -631,-1972 -940,-4041 -940,-6207 0,-2139 309,-4204 940,-6180 632,-1985 1578,-3745 2844,-5269 1255,-1524 2828,-2733 4702,-3646 1882,-905 4058,-1366 6565,-1366 2492,0 4670,461 6544,1366 1881,913 3453,2122 4717,3646 1263,1524 2205,3284 2836,5269 632,1976 942,4041 942,6180 0,2166 -310,4235 -942,6207 -631,1954 -1573,3700 -2836,5232 -1264,1524 -2836,2731 -4717,3632 -1874,894 -4052,1337 -6544,1337z"/>
  <path class="fil1" d="M905327 1419603c1855,0 3297,-497 4341,-1501 1037,-1001 1559,-2373 1559,-4132 0,-1030 -193,-1877 -570,-2554 -386,-674 -894,-1211 -1524,-1608 -633,-397 -1353,-671 -2171,-837 -831,-158 -1676,-241 -2561,-241l-9544 0 0 10873 10470 0zm-2114 -14394c2377,0 4092,-419 5129,-1258 1044,-837 1559,-2086 1559,-3756 0,-1083 -171,-1958 -521,-2622 -351,-652 -839,-1162 -1456,-1518 -611,-349 -1326,-578 -2135,-680 -804,-105 -1663,-150 -2576,-150l-8356 0 0 9984 8356 0zm-12531 -13501l11391 0c673,0 1401,0 2184,14 769,13 1537,54 2300,132 763,74 1484,191 2157,335 679,150 1236,356 1674,652 1032,619 1904,1470 2624,2556 714,1092 1070,2421 1070,4009 0,1668 -397,3109 -1201,4333 -817,1215 -1964,2114 -3460,2706l0 81c1936,417 3419,1297 4441,2644 1032,1352 1540,2985 1540,4930 0,1141 -201,2258 -611,3346 -413,1082 -1016,2046 -1828,2875 -802,839 -1804,1518 -2994,2028 -1187,520 -2561,775 -4112,775l-15175 0 0 -31416z"/>
  <polygon class="fil1" points="942991,1423124 947174,1423124 947174,1391708 942991,1391708 "/>
  <path class="fil1" d="M994119 1409658c-350,142 -844,314 -1475,502 -633,199 -1320,376 -2088,547 -761,179 -1552,339 -2369,467 -831,131 -1600,201 -2342,201 -2396,0 -4325,-294 -5761,-880 -1435,-590 -2540,-1353 -3317,-2293 -782,-934 -1296,-2012 -1543,-3207 -255,-1209 -378,-2410 -378,-3619l0 -9668 4140 0 0 9320c0,704 62,1461 171,2244 125,796 413,1524 886,2205 467,670 1160,1228 2067,1674 913,434 2157,650 3735,650 1972,0 3654,-177 5047,-547 1394,-364 2466,-733 3227,-1121l0 -14425 4183 0 0 31416 -4183 0 0 -13466z"/>
  <polygon class="fil1" points="1027347,1423124 1031528,1423124 1031528,1391708 1027347,1391708 "/>
  <path class="fil1" d="M1120643 1423822c-1874,0 -3605,-218 -5191,-659 -1586,-438 -2958,-1118 -4113,-2025 -1160,-907 -2067,-2051 -2705,-3425 -646,-1380 -970,-3027 -970,-4933l4004 0c35,1404 302,2605 810,3588 516,981 1189,1777 2026,2376 839,594 1812,1036 2926,1295 1119,262 2306,399 3569,399 1079,0 2095,-158 3029,-466 948,-303 1758,-743 2445,-1319 687,-578 1236,-1264 1635,-2066 391,-805 590,-1703 590,-2707 0,-1145 -226,-2073 -660,-2795 -438,-720 -1022,-1277 -1736,-1674 -723,-391 -1560,-660 -2507,-812 -962,-142 -1964,-218 -3021,-218 -440,0 -935,6 -1491,28 -555,5 -1003,27 -1318,62l0 -3434c350,53 817,88 1401,88 590,0 1057,0 1408,0 1002,0 1923,-95 2760,-286 831,-189 1545,-510 2156,-950 598,-440 1065,-1016 1402,-1734 335,-717 508,-1608 508,-2659 0,-969 -187,-1779 -551,-2431 -370,-639 -872,-1160 -1497,-1557 -631,-392 -1353,-682 -2155,-859 -811,-175 -1656,-262 -2528,-262 -2320,0 -4140,508 -5466,1518 -1317,1016 -2094,2662 -2327,4949l-4002 0c54,-1675 405,-3131 1029,-4381 631,-1242 1476,-2264 2535,-3083 1056,-796 2292,-1407 3721,-1826 1413,-405 2967,-611 4640,-611 1491,0 2893,171 4203,508 1306,337 2439,858 3414,1565 967,695 1730,1588 2285,2659 557,1068 839,2341 839,3811 0,845 -152,1641 -446,2369 -296,733 -681,1393 -1162,1983 -487,592 -1043,1084 -1674,1518 -632,425 -1271,740 -1917,948l0 131c1024,204 1931,547 2727,1035 796,481 1456,1065 1983,1738 530,674 921,1413 1190,2245 266,819 397,1656 397,2507 0,967 -226,2018 -666,3166 -432,1147 -1147,2212 -2128,3214 -988,1000 -2253,1828 -3791,2484 -1532,659 -3412,988 -5610,988z"/>
  <path class="fil1" d="M1176317 1410143l-5238 -14657 -89 0 -5322 14657 10649 0zm-7525 -18435l4621 0 12278 31416 -4623 0 -3431 -9464 -13289 0 -3521 9464 -4264 0 12229 -31416z"/>
  <path class="fil1" d="M1228668 1409658c-350,142 -845,314 -1475,502 -633,199 -1320,376 -2089,547 -763,179 -1551,339 -2369,467 -831,131 -1600,201 -2333,201 -2404,0 -4333,-294 -5770,-880 -1434,-590 -2540,-1353 -3316,-2293 -783,-934 -1297,-2012 -1544,-3207 -255,-1209 -377,-2410 -377,-3619l0 -9668 4140 0 0 9320c0,704 62,1461 171,2244 123,796 413,1524 886,2205 467,670 1160,1228 2067,1674 913,434 2156,650 3743,650 1962,0 3645,-177 5039,-547 1394,-364 2464,-733 3227,-1121l0 -14425 4181 0 0 31416 -4181 0 0 -13466z"/>
  <polygon class="fil1" points="1261896,1423124 1266077,1423124 1266077,1391708 1261896,1391708 "/>
  <path class="fil1" d="M1308100 1423822c-2437,0 -4559,-416 -6378,-1249 -1820,-837 -3331,-1984 -4532,-3453 -1208,-1472 -2108,-3202 -2705,-5199 -606,-1991 -900,-4134 -900,-6419 0,-2293 316,-4444 960,-6449 654,-2011 1594,-3762 2844,-5259 1244,-1497 2795,-2677 4634,-3535 1855,-872 3996,-1306 6427,-1306 1641,0 3200,220 4670,660 1464,444 2768,1082 3914,1937 1141,850 2100,1909 2863,3192 763,1275 1258,2754 1491,4422l-4183 0c-467,-2223 -1496,-3901 -3096,-5014 -1600,-1117 -3502,-1676 -5700,-1676 -1874,0 -3482,352 -4819,1059 -1333,701 -2431,1647 -3303,2836 -858,1187 -1497,2540 -1909,4066 -413,1524 -619,3116 -619,4759 0,1783 206,3480 619,5080 412,1598 1051,2994 1909,4181 872,1187 1978,2130 3330,2836 1345,707 2959,1059 4833,1059 1353,0 2570,-228 3662,-681 1076,-460 2010,-1092 2787,-1894 775,-810 1386,-1773 1826,-2887 440,-1117 708,-2312 796,-3605l4183 0c-413,3993 -1772,7074 -4080,9265 -2299,2188 -5472,3274 -9524,3274z"/>
  <polygon class="fil1" points="1348895,1391708 1353076,1391708 1353076,1406931 1369000,1391708 1374411,1391708 1359457,1405689 1374940,1423124 1369660,1423124 1356284,1408249 1353076,1411245 1353076,1423124 1348895,1423124 "/>
  <polygon class="fil1" points="1400244,1391708 1404425,1391708 1404425,1418322 1420224,1391708 1425505,1391708 1425505,1423124 1421324,1423124 1421324,1396411 1405476,1423124 1400244,1423124 "/>
 </g>
</svg>
