<?xml version="1.0" encoding="UTF-8"?>
<!DOCTYPE svg PUBLIC "-//W3C//DTD SVG 1.1//EN" "http://www.w3.org/Graphics/SVG/1.1/DTD/svg11.dtd">
<!-- Creator: CorelDRAW X7 -->
<svg xmlns="http://www.w3.org/2000/svg" xml:space="preserve" width="100%" height="100%" version="1.1" style="shape-rendering:geometricPrecision; text-rendering:geometricPrecision; image-rendering:optimizeQuality; fill-rule:evenodd; clip-rule:evenodd"
viewBox="0 0 1000000 1000000"
 xmlns:xlink="http://www.w3.org/1999/xlink">
 <defs>
  <style type="text/css">
   <![CDATA[
    .fil1 {fill:#007336;fill-rule:nonzero}
    .fil0 {fill:#0DB02B;fill-rule:nonzero}
   ]]>
  </style>
 </defs>
 <g id="Слой_x0020_1">
  <metadata id="CorelCorpID_0Corel-Layer"/>
  <g id="_645173440">
   <path class="fil0" d="M386177 350384l-16759 14715 -23178 76891 9882 -140992 -6059 -8329 -25795 -883 -19888 124551 -6335 -138378 -11804 -8457 -27027 21540 -1704 145569 -9356 3253 -29158 -145596 -19695 -4597 -19080 25204 9030 184665c4057,-3358 8349,-6534 12840,-9508 29143,-19322 66571,-29970 105425,-29970 41790,0 62783,3259 84213,8688l20066 -98362 -25618 -20004zm-198569 -35365l0 0 9906 -12063 371 3835 -10028 12042 -249 -3814zm667 10417l0 0 10316 -12058 402 4122 -10455 12014 -263 -4078zm976 15466l0 0 -279 -4357 10718 -11916 457 4430 -10896 11843zm472 7600l0 0 11168 -11786 472 4727 -11368 11710 -272 -4651zm798 12771l0 0 11671 -11555 488 5101 -11871 11496 -288 -5042zm845 13793l0 0 12204 -11356 551 5552 -12415 11208 -340 -5404zm935 14850l0 0 12796 -10970 586 5993 -13040 10820 -342 -5843zm976 16064l0 0 13461 -10500 649 6609 -13692 10251 -418 -6360zm1070 17485l0 0 14180 -9920 713 7191 -14421 9632 -472 -6903zm1672 26587l0 0 -449 -7545 14915 -9160 782 7904 -15248 8801zm173026 -79270l0 0 12245 -10287 -310 1576 -12290 10122 355 -1411zm-1068 3936l0 0 12423 -9727 -349 1785 -12530 9556 456 -1614zm-1254 4395l0 0 12685 -9073 -411 2079 -12778 8774 504 -1780zm-1365 4947l0 0 12910 -8173 -487 2331 -12971 7857 548 -2015zm-1571 5589l0 0 13151 -7086 -551 2779 -13234 6584 634 -2277zm-1789 6357l0 0 13382 -5629 -650 3271 -13445 4945 713 -2587zm-2059 7313l0 0 13638 -3725 -767 3904 -13701 2835 830 -3014zm-2356 8470l0 0 13802 -1099 -946 4711 -13861 -71 1005 -3541zm-2826 10021l0 0 13962 2332 -1169 5936 -13962 -4104 1169 -4164zm-3329 11903l0 0 13930 7421 -1454 7434 -13901 -9817 1425 -5038zm-72992 -28484l0 0 -7474 3509 0 -6265 7373 -3585 101 6341zm-604 -43030l0 0 -6901 4217 0 -5384 6854 -4327 47 5494zm-488 -37139l0 0 -6429 4732 0 -4702 6382 -4789 47 4759zm-9255 100507l0 0 -7256 2931 117 -6431 7177 -3064 -38 6564zm54 -15482l0 0 -7063 3215 133 -6095 6977 -3349 -47 6229zm79 -14733l0 0 -6902 3498 86 -5805 6816 -3626 0 5933zm45 -13971l0 0 -6699 3745 63 -5537 6636 -3846 0 5638zm54 -13290l0 0 -6560 3927 79 -5280 6481 -4063 0 5416zm47 -12735l0 0 -6398 4125 47 -5047 6367 -4217 -16 5139zm16 -12134l0 0 -6234 4304 61 -4860 6188 -4336 -15 4892zm45 -11607l0 0 -6086 4445 54 -4615 6072 -4496 -40 4666zm56 -11073l0 0 -5980 4575 70 -4436 5923 -4613 -13 4474zm45 -10660l0 0 -5847 4728 31 -4260 5816 -4753 0 4285zm0 -10149l0 0 -5683 4815 54 -4087 5660 -4860 -31 4132zm2356 -6155l0 0 6008 -5139 32 4192 -6040 5087 0 -4140zm6116 5010l0 0 70 4368 -6186 5004 0 -4294 6116 -5078zm-6087 15545l0 0 6236 -4950 69 4570 -6305 4903 0 -4523zm52267 111551l0 0 -13978 -4388 1068 -6765 13755 4063 -845 7090zm2154 -18393l0 0 -13376 -3626 962 -6187 13196 3381 -782 6432zm1998 -16721l0 0 -12856 -2958 890 -5665 12632 2768 -666 5855zm1774 -15250l0 0 -12306 -2356 758 -5165 12197 2178 -649 5343zm1657 -13903l0 0 -11856 -1936 735 -4703 11716 1693 -595 4946zm1510 -12841l0 0 -11431 -1472 666 -4379 11300 1331 -535 4520zm1394 -11788l0 0 -11058 -1102 634 -4071 10927 1012 -503 4161zm1301 -10891l0 0 -10671 -794 571 -3819 10550 755 -450 3858zm1201 -10150l0 0 -10347 -495 557 -3518 10208 463 -418 3550zm1115 -9401l0 0 -10031 -299 504 -3215 9923 124 -396 3390zm-59841 25510l0 0 77 4999 -6591 4588 -16 -4950 6530 -4637zm-6514 16630l0 0 6692 -4509 47 5215 -6739 4433 0 -5139zm15 25686l0 0 7048 -4105 54 5766 -7117 4010 15 -5671zm7196 9913l0 0 85 6079 -7296 3724 15 -5936 7196 -3867zm-7180 40266l0 0 0 -6603 7582 -3318 117 6715 -7699 3206z"/>
   <path class="fil0" d="M139863 581825c5112,-24984 16086,-47171 32227,-65650l-59340 -83215 -36025 0 -16 17067 62698 134167c132,-805 294,-1587 456,-2369zm9790 -71667l0 0 -7016 6984 -3244 -5328 7061 -6512 3199 4856zm-53839 -70236l0 0 6722 -838 1402 2088 -6784 937 -1340 -2187zm3671 6083l0 0 6838 -1200 1486 2250 -6869 1347 -1455 -2397zm4051 6625l0 0 6937 -1576 1643 2482 -6970 1731 -1610 -2637zm4428 7342l0 0 7073 -2048 1789 2702 -7088 2266 -1774 -2920zm4926 8101l0 0 7180 -2591 1967 2974 -7156 2884 -1991 -3267zm5476 9058l0 0 7240 -3280 2192 3345 -7193 3590 -2239 -3655zm6157 10145l0 0 7256 -4114 2478 3734 -7257 4507 -2477 -4127zm6946 11466l0 0 7209 -5145 2822 4255 -7189 5584 -2842 -4694z"/>
   <path class="fil1" d="M388755 483411c-19741,-5015 -40232,-8412 -81239,-8412 -70125,0 -137991,36660 -153046,109885 -8295,39535 929,79830 20655,99740 26463,26773 72038,13243 91523,5157 14072,-5831 26935,-16091 26935,-16091l-9502 26670 67819 0 21218 -103968 -24550 0c-3452,12105 -9021,22823 -16587,31147 -9680,10649 -22846,18186 -38157,21801 -5661,1365 -11431,2021 -17161,2021 -3617,0 -7243,-270 -10750,-820 -3145,-488 -6265,-1217 -9378,-1936 -4206,-969 -8172,-1897 -12052,-2129 -564,-24 -1153,0 -1719,-31 -17517,-953 -20345,11919 -20345,11919 0,0 -7481,-16815 9534,-36872 -960,-573 -1821,-1301 -2572,-2176 -1926,-2299 -2756,-5305 -2268,-8295 1527,-9093 4042,-17835 7374,-26022 6002,-14681 27926,-55511 86180,-55511 23410,0 45373,6242 55992,13150 0,0 -5352,-14357 -2378,-29724 3671,-18969 14474,-29503 14474,-29503z"/>
   <path class="fil0" d="M222419 658364l120945 -109359c-130,-776 -487,-1318 -1432,-1628l-224 -76c-18022,-5306 -38157,-5220 -56116,76 -9689,2851 -18688,7212 -26052,14196 -7769,7342 -13414,16768 -17487,26580 -3199,7751 -5476,15945 -6870,24231 -263,1602 1394,2850 2889,2169 618,-286 1232,-567 1819,-852 2596,-1270 5276,-2464 7924,-3586 4383,-1852 8881,-3401 13359,-4963 4397,-1565 8837,-3138 12987,-5352 5134,-2741 10098,-5800 14877,-9116 12368,-8596 23844,-18865 33393,-30568l846 -1045c1216,-1369 3360,-1479 4576,31 1509,1875 102,3608 -1038,5081 -3361,4305 -6994,8409 -10750,12391 -13002,13816 -28034,26750 -45445,34663 -5644,2556 -11608,4307 -17237,6924 -5290,2464 -10440,5359 -15149,8830 -7776,5755 -14646,13645 -15992,23550 -355,2594 -355,5282 263,7823 -504,-2984 1472,-11092 3601,-13756 5391,-6744 11833,-7874 18881,-6319 7405,1682 14731,3006 22180,4168 8217,1270 16689,836 24759,-1093 12942,-3052 24984,-9432 33983,-19330 8798,-9695 14110,-22073 16603,-34834 2442,-12362 2696,-25357 900,-37856l-48 -279 0 -60 -120945 109359z"/>
  </g>
  <path class="fil1" d="M670427 521588c659,-3237 1509,-7658 6366,-7658 4739,0 3878,4421 3229,7658l-6924 33410 23071 0 8225 -40093c2268,-10889 2572,-18444 -11872,-18444 -7645,0 -15621,3133 -20586,11001l-216 0 2169 -9695 -21778 0 -11703 57231 23095 0 6924 -33410z"/>
  <polygon class="fil1" points="770826,497767 748382,497767 733622,534631 733397,534631 734155,497767 710427,497767 715312,554998 742000,554998 "/>
  <polygon class="fil1" points="834848,473080 811802,473080 795088,554998 818175,554998 "/>
  <polygon class="fil1" points="865647,473080 842569,473080 825858,554998 848936,554998 "/>
  <path class="fil1" d="M635600 540795l-21947 0c-6002,-557 -10247,-2635 -9347,-8434l33422 0 1938 -7861c3763,-18973 1828,-28039 -19951,-28039 -22744,0 -34128,9902 -37909,28767 -3786,17914 1697,28237 20872,29770l30024 0 2898 -14203zm-19448 -31397l0 0c6151,0 5508,6800 4640,11107l-14117 0c641,-4424 3228,-11107 9477,-11107z"/>
  <path class="fil1" d="M913942 540795l-21940 0c-6002,-557 -10246,-2635 -9354,-8434l33432 0 1929 -7861c3772,-18973 1827,-28039 -19951,-28039 -22736,0 -34128,9902 -37901,28767 -3778,17914 1695,28237 20864,29770l30026 0 2895 -14203zm-19438 -31397l0 0c6148,0 5499,6800 4640,11107l-14126 0c649,-4424 3244,-11107 9486,-11107z"/>
  <path class="fil1" d="M573466 540795l-21925 0c-6002,-557 -10246,-2635 -9356,-8434l33434 0 1927 -7861c3781,-18973 1830,-28039 -19949,-28039 -22738,0 -34130,9902 -37900,28767 -3779,17914 1688,28237 20870,29770l30026 0 2873 -14203zm-19423 -31397l0 0c6149,0 5499,6800 4638,11107l-14124 0c650,-4424 3244,-11107 9486,-11107z"/>
  <path class="fil1" d="M528363 499718c906,-713 1859,-1378 2850,-1998 -1783,-756 -5847,-1925 -13375,-1088 -15232,1708 -19227,12163 -19227,12163l2376 -11028 -21598 0 -11679 57231 23078 0 4485 -21453c1726,-8301 9376,-14868 16918,-14868 1254,0 2704,115 3765,263 2471,-8317 6560,-14636 12407,-19222z"/>
  <path class="fil1" d="M472690 480282c-6800,-1724 -13864,-2897 -27981,-2897 -24154,0 -47535,12629 -52708,37846 -2859,13614 308,27500 7102,34354 9122,9223 24819,4561 31534,1773 4840,-2005 9277,-5545 9277,-5545l-3275 9191 23356 0c2433,-11932 4881,-23898 7304,-35810 -3741,-92 -16860,-161 -16860,-161 0,0 -3392,5035 -4653,6676 -15336,19919 -29197,6211 -27223,-5359 3114,-18231 16480,-24199 30669,-24199 8070,0 15637,2149 19292,4527l4166 -20396z"/>
  <polygon class="fil1" points="799047,497767 775967,497767 764282,554998 787359,554998 "/>
  <polygon class="fil1" points="780685,474620 803763,474620 800703,489598 777633,489598 "/>
  <g id="_645169744">
   <polygon class="fil0" points="463140,566939 499856,566939 480133,662551 443417,662551 450540,628167 426022,628167 418896,662551 382189,662551 401913,566939 438622,566939 431777,599955 456295,599955 "/>
   <path class="fil0" d="M542163 664195c-33425,0 -49453,-16851 -42871,-49449 6564,-32053 29720,-49448 63139,-49448 33425,0 49866,17395 43291,49448 -6575,32598 -30141,49449 -63559,49449zm4793 -23008l0 0c14521,0 18215,-16163 20407,-26441 1919,-8897 4523,-26431 -9449,-26431 -13559,0 -18222,17534 -20274,26431 -2052,10278 -3833,26441 9316,26441z"/>
   <path class="fil0" d="M649942 623653c-1774,9037 -542,15884 8225,15884 9587,0 12872,-6436 14791,-15752l11780 -56846 35888 0 -11509 56163c-6436,30963 -27664,41093 -56566,41093 -26717,0 -45343,-10959 -39588,-39171l12051 -58085 36716 0 -11788 56714z"/>
   <path class="fil0" d="M806085 593101c-7535,-2873 -16851,-4786 -27259,-4786 -5755,0 -15754,130 -17125,6296 -2601,12461 50139,688 42464,37537 -5064,25611 -31914,32047 -53142,32047 -14110,0 -25348,-1363 -38498,-4523l5204 -24791c8906,4112 20555,6306 31512,6306 8627,0 16846,-1783 17804,-6575 2603,-12879 -49997,-1239 -42323,-38360 5337,-26299 33558,-30954 55334,-30954 10278,0 21506,1232 31096,3284l-5067 24519z"/>
   <polygon class="fil0" points="826755,566939 909628,566939 904836,589956 857849,589956 854969,603509 899901,603509 895248,626526 850314,626526 847713,639537 895657,639537 890865,662551 807031,662551 "/>
  </g>
  <g id="_645167584">
   <path class="fil1" d="M390576 688149l409 0c782,0 1441,-31 2239,-697 843,-721 1331,-1913 1673,-2897 380,-1100 750,-2293 1200,-3238 340,-696 773,-1447 1594,-2014 683,-440 1558,-728 2378,-728 403,0 713,70 953,126l-589 2081c-782,-92 -1067,0 -1416,225 -744,497 -868,1007 -1099,1628 -962,2740 -1216,3345 -1311,3563 -447,1068 -881,1571 -1200,1857 -558,503 -1479,852 -2214,946l-39 92c859,92 1534,535 1913,1007 596,789 495,1828 425,2448 -114,944 -323,1610 -472,2338 -132,564 -371,1765 -402,2044 -70,566 -178,1472 1571,1225l-595 2075c-434,186 -814,256 -1286,256 -565,0 -1277,-70 -1742,-598 -634,-697 -542,-1765 -450,-2525 101,-811 279,-1533 465,-2261 131,-596 279,-1223 355,-1888 149,-1223 -38,-2015 -393,-2385 -535,-544 -1627,-574 -1983,-574l-589 0 -2920 10105 -2446 0 2918 -10105 -589 0c-757,0 -1749,153 -2385,542 -1153,681 -1758,2293 -2198,3617 -295,937 -697,2138 -1248,3329 -348,760 -712,1511 -1695,2113 -712,443 -1463,630 -2277,630 -465,0 -776,-70 -1093,-256l598 -2075c796,123 1408,0 1882,-497 355,-387 656,-1039 1075,-2462 512,-1674 921,-2929 1643,-3934 1131,-1605 2718,-2077 3770,-2169l40 -92c-342,-31 -1077,-164 -1479,-946 -333,-634 -295,-1480 -250,-1857 79,-636 203,-1133 428,-2201 193,-852 287,-1362 341,-1796 45,-411 61,-789 -177,-1099 -335,-412 -931,-380 -1466,-320l589 -2081c225,-56 643,-126 922,-126 658,0 1548,187 2020,728 583,627 527,1603 450,2201 -63,573 -171,1169 -371,2075 -209,913 -364,1641 -449,2369 -54,434 -95,1007 170,1441 441,789 1169,760 1952,760l402 0 2702 -9387 2439 0 -2693 9387z"/>
   <polygon class="fil1" points="419384,678762 421794,678762 417626,693274 416875,695351 417974,693755 428803,679930 429126,678762 431543,678762 425316,700360 422909,700360 427130,685694 427888,683579 426741,685314 415953,699067 415573,700360 413157,700360 "/>
   <polygon class="fil1" points="450098,700360 447690,700360 453368,680722 449201,680722 449742,678762 460492,678762 459980,680722 455776,680722 "/>
   <path class="fil1" d="M487652 680877l-4856 0c-1324,4251 -2315,7272 -3275,10012 -674,1891 -1371,3804 -2308,5600 -535,1007 -1100,2014 -2262,2857 -1207,884 -2673,1333 -4042,1014l603 -2145c683,32 1463,-123 2030,-433 944,-542 1463,-1518 1843,-2237 1023,-2023 1749,-4098 2524,-6391 969,-2833 2439,-7396 3393,-10392l9371 0 -6227 21598 -2409 0 5615 -19483z"/>
   <path class="fil1" d="M519874 680126c1077,1470 1061,3678 852,5343 -395,3276 -1587,7434 -3151,10231 -2363,4219 -5175,4948 -6987,4948 -2106,0 -3228,-1077 -3747,-1920 -976,-1549 -875,-3905 -668,-5609 380,-3142 1472,-7016 3347,-10035 2563,-4120 5227,-4633 6636,-4633 2008,0 3129,852 3718,1675zm-8418 4058l0 0c-1486,2895 -2493,6550 -2797,9061 -269,2237 32,3336 203,3779 380,1007 975,1511 2167,1511 1162,0 2843,-443 4509,-4060 1099,-2392 2392,-6605 2680,-8976 92,-751 240,-2478 -180,-3453 -207,-542 -821,-1488 -2424,-1488 -2068,0 -3338,1982 -4158,3626z"/>
   <path class="fil1" d="M546299 678762c1214,0 2833,132 3871,890 868,627 1650,1884 1378,4120 -184,1511 -710,2803 -1812,3811 -697,627 -1634,1137 -2486,1418 481,184 915,463 1349,1036 782,1039 883,2014 719,3401 -402,3298 -1967,4840 -2756,5445 -1906,1416 -4608,1477 -5647,1477l-4792 0 6227 -21598 3949 0zm-7288 19516l0 0 2098 0c1162,0 2758,0 3895,-813 1372,-1008 1650,-2772 1752,-3586 107,-883 215,-2300 -722,-3113 -821,-729 -2360,-697 -3336,-697l-1317 0 -2370 8209zm2927 -10160l0 0 1255 0c1317,0 2571,-63 3756,-789 1324,-823 1913,-2015 2084,-3424 200,-1643 -371,-2340 -783,-2619 -636,-441 -1704,-441 -2486,-441l-1720 0 -2106 7273z"/>
   <polygon class="fil1" points="572870,678762 575278,678762 571112,693274 570361,695351 571461,693755 582287,679930 582613,678762 585029,678762 578802,700360 576393,700360 580614,685694 581374,683579 580225,685314 569440,699067 569060,700360 566643,700360 "/>
   <path class="fil1" d="M604924 678762l2407 0 -4165 14512 -751 2077 1099 -1596 10827 -13825 325 -1168 2417 0 -6227 21598 -2410 0 4222 -14666 760 -2115 -1147 1735 -10788 13753 -379 1293 -2417 0 6227 -21598zm11431 -5065l0 0c-364,1169 -1084,2176 -1891,2835 -728,604 -1796,1162 -3082,1162 -1254,0 -2075,-405 -2562,-1102 -535,-751 -706,-1888 -551,-2895l2131 0c-54,449 -63,1270 193,1735 178,380 488,603 1021,603 443,0 1092,-162 1735,-881 373,-450 681,-976 875,-1457l2131 0z"/>
   <path class="fil1" d="M659979 678762l2409 0 -2695 9387 1317 0c781,0 1531,-31 2399,-760 985,-814 1308,-1983 1596,-2803 558,-1720 845,-2540 1192,-3331 388,-882 845,-1572 1688,-2075 512,-317 1232,-605 2147,-605 402,0 712,70 953,126l-598 2081c-704,-123 -1131,63 -1410,225 -672,405 -975,1131 -1162,1628 -362,912 -393,1207 -1245,3563 -248,697 -520,1385 -1039,1888 -463,434 -1277,915 -2252,915l-39 92c774,32 1610,403 2053,944 596,760 485,1920 409,2581 -85,656 -256,1261 -463,2237 -187,751 -326,1378 -405,1982 -85,751 -92,1565 1542,1318l-604 2075c-434,186 -814,256 -1255,256 -658,0 -1207,-126 -1672,-630 -636,-665 -627,-1353 -519,-2230 85,-696 233,-1106 456,-2430 218,-1038 380,-1602 465,-2261 77,-668 77,-1425 -596,-2046 -620,-573 -1301,-634 -2061,-634l-1502 0 -2920 10105 -2416 0 6227 -21598z"/>
   <path class="fil1" d="M698702 680126c1075,1470 1061,3678 852,5343 -396,3276 -1589,7434 -3154,10231 -2360,4219 -5172,4948 -6991,4948 -2100,0 -3221,-1077 -3743,-1920 -973,-1549 -874,-3905 -665,-5609 380,-3142 1472,-7016 3345,-10035 2565,-4120 5228,-4633 6638,-4633 2005,0 3129,852 3718,1675zm-8419 4058l0 0c-1485,2895 -2495,6550 -2796,9061 -272,2237 38,3336 202,3779 380,1007 976,1511 2167,1511 1163,0 2844,-443 4501,-4060 1108,-2392 2401,-6605 2686,-8976 94,-751 241,-2478 -178,-3453 -215,-542 -820,-1488 -2423,-1488 -2068,0 -3338,1982 -4159,3626z"/>
   <polygon class="fil1" points="729935,700360 727703,700360 733211,681317 723290,700360 721222,700360 722267,681412 717016,700360 714887,700360 721114,678762 724367,678762 723351,696736 732646,678762 736153,678762 "/>
   <polygon class="fil1" points="767240,678762 761020,700360 758604,700360 764228,680877 757868,680877 752246,700360 749830,700360 756057,678762 "/>
   <path class="fil1" d="M796165 680877l-4856 0c-1324,4251 -2315,7272 -3275,10012 -675,1891 -1371,3804 -2309,5600 -535,1007 -1099,2014 -2261,2857 -1207,884 -2673,1333 -4042,1014l605 -2145c681,32 1463,-123 2027,-433 947,-542 1464,-1518 1844,-2237 1022,-2023 1751,-4098 2524,-6391 969,-2833 2439,-7396 3386,-10392l9378 0 -6227 21598 -2410 0 5616 -19483z"/>
   <polygon class="fil1" points="828205,680845 820933,680845 818795,688118 824936,688118 824379,690192 818228,690192 815906,698215 823774,698215 823170,700360 812854,700360 819080,678762 828792,678762 "/>
   <path class="fil1" d="M847409 678762l2410 0 -2695 9387 1317 0c780,0 1533,-31 2401,-760 982,-814 1308,-1983 1594,-2803 557,-1720 845,-2540 1193,-3331 387,-882 843,-1572 1689,-2075 510,-317 1232,-605 2144,-605 403,0 713,70 953,126l-598 2081c-703,-123 -1128,63 -1407,225 -674,405 -975,1131 -1162,1628 -364,912 -396,1207 -1248,3563 -247,697 -519,1385 -1038,1888 -463,434 -1277,915 -2253,915l-38 92c773,32 1610,403 2052,944 596,760 488,1920 410,2581 -86,656 -254,1261 -463,2237 -187,751 -326,1378 -405,1982 -83,751 -92,1565 1542,1318l-605 2075c-434,186 -811,256 -1254,256 -659,0 -1207,-126 -1673,-630 -633,-665 -627,-1353 -519,-2230 86,-696 232,-1106 457,-2430 218,-1038 379,-1602 465,-2261 79,-668 79,-1425 -596,-2046 -620,-573 -1301,-634 -2059,-634l-1504 0 -2920 10105 -2414 0 6224 -21598z"/>
   <path class="fil1" d="M883849 694313c-598,1796 -1713,3500 -2851,4570 -1232,1160 -2587,1765 -4284,1765 -1812,0 -2927,-666 -3637,-2053 -374,-751 -992,-2392 -544,-6078 373,-3053 1301,-6600 3423,-9882 1185,-1821 3168,-4184 6274,-4184 1439,0 2734,729 3415,1828 868,1387 789,3563 510,5314l-2369 193c240,-1231 225,-3151 -140,-4028 -317,-751 -890,-1200 -1773,-1200 -2100,0 -3440,2045 -4127,3376 -1549,2929 -2417,6135 -2759,8969 -317,2610 -92,3617 155,4182 443,1007 1264,1450 2145,1450 659,0 1666,-320 2698,-1543 726,-883 1431,-2299 1787,-3369l2077 690z"/>
  </g>
 </g>
</svg>
