<?xml version="1.0" encoding="UTF-8"?>
<!DOCTYPE svg PUBLIC "-//W3C//DTD SVG 1.1//EN" "http://www.w3.org/Graphics/SVG/1.1/DTD/svg11.dtd">
<!-- Creator: CorelDRAW X7 -->
<svg xmlns="http://www.w3.org/2000/svg" xml:space="preserve" width="100%" height="100%" version="1.1" style="shape-rendering:geometricPrecision; text-rendering:geometricPrecision; image-rendering:optimizeQuality; fill-rule:evenodd; clip-rule:evenodd"
viewBox="0 0 16008 3536"
 xmlns:xlink="http://www.w3.org/1999/xlink">
 <defs>
  <style type="text/css">
   <![CDATA[
    .fil2 {fill:#2B2A29;fill-rule:nonzero}
    .fil1 {fill:#F9C18B;fill-rule:nonzero}
    .fil3 {fill:#F39314;fill-rule:nonzero}
    .fil0 {fill:#EF7F1A;fill-rule:nonzero}
   ]]>
  </style>
 </defs>
 <g id="Слой_x0020_1">
  <metadata id="CorelCorpID_0Corel-Layer"/>
  <g id="_582864256">
   <path class="fil0" d="M1236 592c130,0 237,-106 237,-237 0,-131 -107,-237 -237,-237 -131,0 -237,106 -237,237 0,131 106,237 237,237z"/>
   <path class="fil1" d="M5458 133c123,0 223,99 223,222 0,123 -100,223 -223,223 -122,0 -222,-100 -222,-223 0,-123 100,-222 222,-222zm575 1984l949 0 0 -959c0,-620 -507,-1128 -1127,-1128l-1157 0c20,20 41,38 61,58 625,625 1057,1340 1274,2029z"/>
   <path class="fil1" d="M6067 2231c130,462 161,909 87,1305 475,-133 828,-566 828,-1082l0 -223 -915 0z"/>
   <path class="fil1" d="M1075 2117c-240,-710 -246,-1434 -246,-2086 -476,132 -829,565 -829,1081l0 1005 1075 0z"/>
   <path class="fil1" d="M1948 515l0 475 19 756 0 371 369 0c21,-418 200,-627 537,-627 116,0 219,30 312,92 92,60 160,140 203,237 23,63 39,163 49,298l379 0 0 -371 19 -756 0 -752 19 -202 -202 9 -207 -14 4 212 33 484 0 974 -66 -103c-156,-239 -387,-358 -691,-358 -110,0 -215,19 -315,57 -39,14 -75,30 -108,49l0 -619 32 -484 5 -212 -207 14 -203 -9 19 202 0 277z"/>
   <path class="fil1" d="M2348 3377c-1,-10 -2,-20 -3,-31l-6 -126 -5 -231 0 -465c0,-70 -1,-133 -2,-192l2 -101 -367 0 0 817 -19 263 0 141 -9 40c-4,-4 -9,-9 -14,-13 -395,-396 -648,-818 -809,-1248l-1116 0 0 178c0,620 507,1127 1128,1127l858 0c0,0 -1,-1 -2,-2l158 -7 225 9 0 -4 0 0 -19 -155z"/>
   <path class="fil1" d="M3835 3311l-19 -263 0 -817 -372 0c3,86 5,184 5,293l0 500c0,153 -4,271 -14,353l-19 155 217 -5 221 9 -19 -84 0 -141z"/>
   <path class="fil2" d="M10471 2526l106 0 86 240c13,36 33,94 44,132l1 0c11,-37 38,-112 58,-164l76 -208 107 0 34 477 -83 0 -11 -228c-2,-52 -6,-112 -8,-170l-3 0c-13,43 -26,81 -53,155l-92 240 -62 0 -85 -236c-16,-45 -36,-114 -48,-158l-4 0c-2,56 -4,119 -7,171l-13 226 -80 0 37 -477z"/>
   <path class="fil2" d="M11149 2765c0,105 60,184 144,184 83,0 145,-78 145,-185 0,-81 -40,-183 -143,-183 -101,0 -146,95 -146,184zm378 -4c0,176 -123,253 -237,253 -129,0 -229,-95 -229,-246 0,-158 105,-252 236,-252 138,0 230,100 230,245z"/>
   <path class="fil2" d="M11718 2727l65 0c64,0 130,-19 130,-76 0,-47 -41,-70 -128,-70 -30,0 -48,2 -67,4l0 142zm-1 220c24,2 42,3 69,3 59,0 146,-13 146,-83 0,-69 -70,-84 -152,-84l-63 0 0 164zm-83 -415c34,-6 96,-11 152,-11 81,0 213,14 213,119 0,59 -46,97 -100,109l0 2c70,10 121,48 121,117 0,125 -157,141 -251,141 -53,0 -110,-4 -135,-6l0 -471z"/>
   <polygon class="fil2" points="12214,2526 12214,2718 12440,2718 12440,2526 12527,2526 12527,3003 12440,3003 12440,2787 12214,2787 12214,3003 12127,3003 12127,2526 "/>
   <path class="fil2" d="M12920 2760c-95,-2 -202,14 -202,107 0,57 37,83 81,83 63,0 103,-39 117,-80 3,-10 4,-20 4,-28l0 -82zm84 129c0,41 2,82 7,114l-78 0 -7 -60 -3 0c-27,38 -78,71 -146,71 -97,0 -146,-68 -146,-137 0,-115 103,-179 287,-178l0 -9c0,-39 -11,-111 -108,-110 -46,0 -92,13 -126,36l-19 -59c39,-24 97,-41 157,-41 146,0 182,100 182,194l0 179z"/>
   <polygon class="fil2" points="13436,2526 13436,2935 13602,2935 13602,2526 13688,2526 13688,2935 13853,2935 13853,2526 13939,2526 13939,3003 13350,3003 13350,2526 "/>
   <path class="fil2" d="M14167 2526l0 207 21 0 178 -207 106 0 -207 215c77,9 123,60 160,146 13,31 29,78 51,116l-91 0c-13,-20 -29,-58 -44,-97 -33,-77 -77,-113 -157,-113l-17 0 0 210 -86 0 0 -477 86 0z"/>
   <path class="fil2" d="M14602 2765c0,105 59,184 144,184 83,0 145,-78 145,-185 0,-81 -40,-183 -143,-183 -102,0 -146,95 -146,184zm378 -4c0,176 -123,253 -238,253 -128,0 -229,-95 -229,-246 0,-158 106,-252 237,-252 137,0 230,100 230,245z"/>
   <path class="fil2" d="M15452 2526l0 477 -86 0 0 -409 -164 0 0 122c0,134 -13,224 -75,265 -24,18 -51,29 -95,29l-9 -68c17,-3 36,-10 47,-20 45,-32 50,-99 50,-206l0 -190 332 0z"/>
   <path class="fil2" d="M15845 2760c-95,-2 -202,14 -202,107 0,57 37,83 81,83 63,0 103,-39 117,-80 3,-10 4,-20 4,-28l0 -82zm84 129c0,41 2,82 7,114l-78 0 -7 -60 -3 0c-27,38 -78,71 -146,71 -97,0 -146,-68 -146,-137 0,-115 102,-179 287,-178l0 -9c0,-39 -11,-111 -109,-110 -45,0 -91,13 -125,36l-20 -59c40,-24 98,-41 158,-41 146,0 182,100 182,194l0 179z"/>
   <polygon class="fil3" points="6982,2231 9358,2231 9358,2117 6982,2117 "/>
   <path class="fil3" d="M7647 1780l0 -67 9 -126 0 -619 -9 -359 0 -359 -9 -95 95 3 100 -5 -2 100 -16 230 0 465 30 -50c75,-114 185,-171 330,-171 52,0 102,9 150,27 69,26 121,66 159,119 39,55 58,121 58,201l0 112 -5 118 -1 142 4 220 4 94 10 57 -97 -1 -112 4 9 -60 5 -90 1 -110 4 -205 -4 -170c0,-226 -84,-339 -255,-339 -56,0 -104,14 -149,43 -44,30 -76,68 -96,114 -20,56 -29,166 -29,335l0 238c0,73 2,129 5,167l9 74 -103 -1 -104 4 9 -40z"/>
   <polygon class="fil2" points="8936,1757 8936,1532 8942,1258 8936,1040 8936,810 8925,751 9028,757 9133,751 9122,813 9122,1044 9117,1258 9122,1530 9122,1757 9133,1817 9034,1816 8925,1820 "/>
   <path class="fil2" d="M9664 1068c0,173 72,259 217,259 72,0 129,-25 172,-79 41,-44 60,-104 60,-183 0,-76 -24,-140 -68,-192 -35,-42 -86,-63 -157,-63 -72,0 -130,25 -171,76 -35,51 -53,112 -53,182zm-85 902c0,77 34,135 104,174 53,30 123,46 212,46 98,0 179,-20 241,-56 85,-46 127,-113 127,-199 0,-135 -112,-203 -338,-203 -52,0 -101,5 -146,14 -134,26 -200,101 -200,224zm25 -278c-54,-25 -82,-71 -82,-135 0,-75 59,-136 173,-183l-75 -27c-109,-45 -163,-136 -163,-272 0,-125 54,-217 159,-279 22,-12 45,-24 66,-33 23,-9 46,-15 71,-19 27,-4 54,-7 82,-11 27,-2 57,-2 90,-2l92 0 139 5 126 0 127 -15 0 119 -112 -18 -96 0c78,64 116,142 116,237 0,40 -8,79 -24,116 -10,23 -22,44 -33,62 -13,20 -31,37 -52,56 -85,77 -184,115 -298,115l-99 0c-98,0 -147,30 -147,92 0,60 52,89 156,89l248 0c102,0 183,19 245,59 79,48 119,117 119,208 0,126 -62,232 -183,315 -98,68 -219,101 -362,101 -29,0 -59,0 -87,0 -22,-4 -38,-7 -47,-9 -92,-13 -164,-41 -217,-82 -72,-57 -108,-123 -108,-199 0,-114 87,-201 258,-258 -30,-7 -58,-16 -82,-32z"/>
   <path class="fil2" d="M10632 1780l0 -67 10 -126 0 -619 -10 -359 0 -359 -8 -95 96 3 99 -5 -2 100 -16 230 0 465 31 -50c74,-114 184,-171 328,-171 53,0 103,9 151,27 68,26 122,66 160,119 38,55 57,121 57,201l0 112 -3 118 -4 142 4 220 6 94 7 57 -95 -1 -112 4 8 -60 6 -90 2 -110 1 -205 -1 -170c0,-226 -86,-339 -256,-339 -56,0 -106,14 -149,43 -43,30 -76,68 -97,114 -19,56 -28,166 -28,335l0 238c0,73 2,129 6,167l9 74 -104 -1 -104 4 8 -40z"/>
   <polygon class="fil3" points="12023,1817 11916,1817 11928,1740 11928,1487 11931,1157 11931,736 11928,464 11928,308 11921,217 11916,155 12021,158 12124,153 12110,217 12110,736 12106,931 12110,1159 12110,1750 12124,1820 "/>
   <polygon class="fil2" points="12544,1757 12544,1532 12550,1258 12544,1040 12544,810 12533,751 12637,757 12741,751 12730,813 12730,1044 12725,1258 12730,1530 12730,1757 12741,1817 12641,1816 12533,1820 "/>
   <path class="fil2" d="M13272 1068c0,173 73,259 218,259 71,0 128,-25 172,-79 39,-44 60,-104 60,-183 0,-76 -24,-140 -70,-192 -34,-42 -85,-63 -155,-63 -73,0 -129,25 -171,76 -37,51 -54,112 -54,182zm-85 902c0,77 35,135 106,174 51,30 122,46 209,46 99,0 180,-20 242,-56 85,-46 128,-113 128,-199 0,-135 -112,-203 -338,-203 -53,0 -102,5 -146,14 -134,26 -201,101 -201,224zm27 -278c-56,-25 -83,-71 -83,-135 0,-75 57,-136 172,-183l-73 -27c-110,-45 -164,-136 -164,-272 0,-125 52,-217 159,-279 22,-12 43,-24 65,-33 23,-9 46,-15 73,-19 25,-4 53,-7 80,-11 28,-2 58,-2 91,-2l91 0 139 5 126 0 127 -15 0 119 -111 -18 -98 0c78,64 117,142 117,237 0,40 -8,79 -25,116 -9,23 -21,44 -33,62 -11,20 -29,37 -52,56 -84,77 -183,115 -296,115l-100 0c-97,0 -147,30 -147,92 0,60 52,89 156,89l249 0c102,0 183,19 244,59 80,48 119,117 119,208 0,126 -61,232 -184,315 -96,68 -218,101 -360,101 -30,0 -59,0 -87,0 -22,-4 -39,-7 -47,-9 -94,-13 -165,-41 -219,-82 -70,-57 -106,-123 -106,-199 0,-114 86,-201 258,-258 -32,-7 -57,-16 -81,-32z"/>
   <path class="fil2" d="M14241 1780l0 -67 8 -126 0 -619 -8 -359 0 -359 -8 -95 96 3 98 -5 -1 100 -17 230 0 465 31 -50c75,-114 184,-171 329,-171 53,0 102,9 150,27 70,26 123,66 160,119 38,55 57,121 57,201l0 112 -5 118 -1 142 5 220 3 94 10 57 -97 -1 -111 4 9 -60 4 -90 2 -110 3 -205 -3 -170c0,-226 -85,-339 -256,-339 -55,0 -105,14 -148,43 -45,30 -76,68 -97,114 -19,56 -28,166 -28,335l0 238c0,73 1,129 5,167l9 74 -102 -1 -105 4 8 -40z"/>
   <path class="fil2" d="M15386 749l52 8 59 0 0 -123 -11 -66 -7 -36 108 -40 101 -52 -10 54 -6 103 0 159 159 1 51 -5 28 -13 -4 60 4 70 -45 -12 -49 0 -144 -6 0 679c0,75 6,128 20,159 27,47 72,71 136,71 24,0 44,-3 59,-10l23 -15 0 65 -31 16c-34,18 -76,26 -130,26 -49,0 -93,-9 -134,-28 -51,-22 -85,-56 -99,-103 -8,-17 -11,-38 -14,-63 -3,-27 -5,-57 -5,-87l0 -710 -62 6 -46 0 -32 12 4 -73 -4 -57 29 10z"/>
   <path class="fil3" d="M8951 289c25,-25 53,-36 85,-36 77,0 116,38 116,114 0,75 -39,113 -116,113 -33,0 -61,-12 -83,-33 -22,-22 -33,-49 -33,-80 0,-31 11,-57 31,-78z"/>
   <path class="fil3" d="M12560 289c24,-25 52,-36 84,-36 76,0 116,38 116,114 0,75 -40,113 -116,113 -33,0 -60,-12 -84,-33 -20,-22 -32,-49 -32,-80 0,-31 11,-57 32,-78z"/>
   <polygon class="fil3" points="10432,2231 12950,2231 12950,2117 10432,2117 "/>
   <polygon class="fil3" points="14040,2231 16008,2231 16008,2117 14040,2117 "/>
   <path class="fil0" d="M207 3057c204,289 541,479 921,479l858 0c-20,-19 -41,-37 -61,-57 -394,-394 -646,-815 -808,-1244 -340,263 -645,539 -910,822z"/>
   <path class="fil0" d="M6982 2117l0 -959c0,-537 -380,-989 -884,-1101 -171,34 -343,72 -516,113 60,40 99,108 99,185 0,123 -100,223 -223,223 -122,0 -222,-100 -222,-223 0,-37 9,-72 25,-103 -91,25 -183,50 -275,77 504,564 858,1186 1047,1788l949 0z"/>
   <path class="fil0" d="M6067 2231c130,462 161,909 87,1305 475,-133 828,-566 828,-1082l0 -223 -915 0z"/>
   <polygon class="fil0" points="4117,475 4117,2117 4527,2117 4527,765 4542,466 4542,198 4565,0 4313,15 4083,0 4100,202 "/>
   <polygon class="fil0" points="5682,3200 5439,3221 4542,3221 4542,3003 4528,2231 4117,2231 4117,3125 4100,3317 4083,3504 4313,3479 4735,3469 5584,3469 5778,3492 5840,3504 5825,3362 5840,3171 "/>
   <path class="fil0" d="M1948 503l0 475 19 757 0 382 369 0c18,-426 197,-639 537,-639 116,0 219,31 312,92 92,61 160,140 203,238 23,65 40,168 50,309l378 0 0 -382 19 -757 0 -752 19 -202 -202 10 -207 -15 4 212 33 485 0 974 -66 -104c-156,-238 -387,-357 -691,-357 -110,0 -215,19 -315,56 -39,14 -75,31 -108,49l0 -618 32 -485 5 -212 -207 15 -203 -10 19 202 0 277z"/>
   <path class="fil0" d="M3835 3299l-19 -263 0 -805 -372 0c4,84 5,178 5,282l0 499c0,154 -4,271 -14,353l-19 155 217 -5 221 10 -19 -85 0 -141z"/>
   <path class="fil0" d="M2348 3365c-1,-9 -2,-20 -3,-30l-6 -126 -5 -231 0 -465c0,-70 -1,-134 -2,-193l2 -89 -367 0 0 805 -19 263 0 141 -17 79 -2 1 1 0 -1 5 213 -9 225 9 0 -5 0 0 -19 -155z"/>
  </g>
 </g>
</svg>
