<?xml version="1.0" encoding="UTF-8"?>
<!DOCTYPE svg PUBLIC "-//W3C//DTD SVG 1.1//EN" "http://www.w3.org/Graphics/SVG/1.1/DTD/svg11.dtd">
<!-- Creator: CorelDRAW X7 -->
<svg xmlns="http://www.w3.org/2000/svg" xml:space="preserve" width="100%" height="100%" version="1.1" style="shape-rendering:geometricPrecision; text-rendering:geometricPrecision; image-rendering:optimizeQuality; fill-rule:evenodd; clip-rule:evenodd"
viewBox="0 0 2100000 2100000"
 xmlns:xlink="http://www.w3.org/1999/xlink">
 <defs>
  <style type="text/css">
   <![CDATA[
    .fil3 {fill:none}
    .fil0 {fill:#DE362F}
    .fil1 {fill:#4F4A4B;fill-rule:nonzero}
    .fil2 {fill:#FEFEFE;fill-rule:nonzero}
   ]]>
  </style>
 </defs>
 <g id="Слой_x0020_1">
  <metadata id="CorelCorpID_0Corel-Layer"/>
  <polygon class="fil0" points="339047,131407 1760954,131407 1760954,1553309 339047,1553309 "/>
  <polygon class="fil1" points="803693,1786673 803693,1826143 666919,1826143 666919,1631551 801230,1631551 801230,1671011 711860,1671011 711860,1708840 788604,1708840 788604,1745292 711860,1745292 711860,1786673 "/>
  <polygon class="fil1" points="974726,1786673 974726,1826143 837951,1826143 837951,1631551 972262,1631551 972262,1671011 882893,1671011 882893,1708840 959645,1708840 959645,1745292 882893,1745292 882893,1786673 "/>
  <polygon class="fil1" points="1005570,1826151 1005570,1631526 1050512,1631526 1050512,1715416 1121784,1631526 1172229,1631526 1099330,1718425 1177164,1826151 1125915,1826151 1070819,1747763 1050512,1768876 1050512,1826151 "/>
  <polygon class="fil1" points="1342140,1786673 1342140,1826143 1205366,1826143 1205366,1631551 1339677,1631551 1339677,1671011 1250307,1671011 1250307,1708840 1327059,1708840 1327059,1745292 1250307,1745292 1250307,1786673 "/>
  <polygon class="fil1" points="1421356,1714863 1421356,1826143 1376415,1826143 1376415,1631551 1411487,1631551 1502207,1745838 1502207,1631551 1547172,1631551 1547172,1826143 1510979,1826143 "/>
  <path class="fil1" d="M1715180 1728569c0,-8575 -1146,-16404 -3438,-23430 -2268,-7031 -5593,-13111 -9983,-18243 -4382,-5104 -9781,-9031 -16170,-11788 -6399,-2723 -13626,-4097 -21658,-4097l-27674 0 0 115662 27674 0c8235,0 15520,-1462 21910,-4389 6398,-2921 11763,-6969 16040,-12186 4300,-5221 7593,-11327 9861,-18357 2292,-7057 3438,-14773 3438,-23172zm-123897 97566l0 -194592 72648 0c16064,0 30145,2552 42218,7657 12048,5139 22145,12072 30283,20852 8121,8773 14259,19040 18357,30829 4105,11788 6170,24349 6170,37688 0,14796 -2293,28195 -6853,40154 -4560,11983 -11105,22195 -19593,30713 -8488,8487 -18730,15057 -30714,19732 -11958,4650 -25267,6967 -39868,6967l-72648 0z"/>
  <polygon class="fil1" points="523925,1825834 487870,1691636 451278,1825834 395694,1825834 339047,1631753 389442,1631753 427441,1774518 464586,1631753 512819,1631753 550825,1774518 588248,1631753 636433,1631753 579215,1825834 "/>
  <polygon class="fil2" points="650321,504922 806153,504922 806153,1179758 650321,1179758 "/>
  <polygon class="fil2" points="1481275,641809 1275996,641809 1275996,1179702 1120075,1179702 1120075,641809 913809,641809 913809,504950 1481275,504950 "/>
  <path class="fil1" d="M1328491 1898652l0 58112c0,9487 -2959,16658 -8894,21535 -5910,4877 -13821,7284 -23658,7284 -9585,0 -17243,-2407 -22974,-7284 -5708,-4877 -8577,-12048 -8577,-21535l0 -58112 10959 0 0 58112c0,6705 1861,11721 5561,15056 3699,3325 8722,5015 15031,5015 6626,0 11902,-1690 15796,-5015 3903,-3335 5854,-8351 5854,-15056l0 -58112 10902 0z"/>
  <polygon class="fil1" points="1368993,1945512 1358636,1945512 1358636,1984371 1347742,1984371 1347742,1898652 1358636,1898652 1358636,1936732 1367985,1936732 1399130,1898652 1411608,1898652 1377879,1940202 1414016,1984371 1400650,1984371 "/>
  <path class="fil1" d="M1436015 1938269l18730 0c6854,0 11755,-1262 14683,-3756 2926,-2520 4390,-6398 4390,-11619 0,-4959 -1431,-8773 -4301,-11438 -2837,-2641 -7431,-3959 -13651,-3959l-19851 0 0 30772zm0 8780l0 37307 -10895 0 0 -85639 30746 0c9520,0 16715,2042 21561,6082 4854,4073 7292,10128 7292,18241 0,4471 -1211,8294 -3560,11529 -2407,3211 -5878,5795 -10471,7773 4853,1577 8260,4016 10325,7372 2064,3357 3096,7628 3096,12820l0 8057c0,2724 318,5140 895,7204 601,2065 1602,3780 3040,5163l0 1398 -11219 0c-1577,-1374 -2576,-3350 -3007,-5903 -431,-2584 -659,-5220 -659,-7976l0 -7829c0,-4787 -1373,-8601 -4105,-11388 -2748,-2806 -6561,-4211 -11415,-4211l-21624 0z"/>
  <path class="fil1" d="M1519368 1952756l29681 0 -14739 -40616 -14942 40616zm32836 8772l-36071 0 -8406 22828 -11130 0 33072 -85696 9405 0 32576 85696 -11121 0 -8325 -22828z"/>
  <polygon class="fil1" points="1596389,1984356 1585487,1984356 1585487,1898660 1596389,1898660 "/>
  <polygon class="fil1" points="1683077,1984356 1672182,1984356 1629624,1916847 1629445,1916847 1629445,1984356 1618551,1984356 1618551,1898660 1629445,1898660 1672012,1966122 1672182,1966122 1672182,1898660 1683077,1898660 "/>
  <polygon class="fil1" points="1754935,1944446 1715384,1944446 1715384,1975599 1760959,1975599 1760959,1984371 1704491,1984371 1704491,1898652 1760358,1898652 1760358,1907481 1715384,1907481 1715384,1935616 1754935,1935616 "/>
  <rect class="fil3" x="-1" y="2" width="2100002" height="2099995"/>
 </g>
</svg>
