<?xml version="1.0" encoding="UTF-8"?>
<!DOCTYPE svg PUBLIC "-//W3C//DTD SVG 1.1//EN" "http://www.w3.org/Graphics/SVG/1.1/DTD/svg11.dtd">
<!-- Creator: CorelDRAW X7 -->
<svg xmlns="http://www.w3.org/2000/svg" xml:space="preserve" width="100%" height="100%" version="1.1" style="shape-rendering:geometricPrecision; text-rendering:geometricPrecision; image-rendering:optimizeQuality; fill-rule:evenodd; clip-rule:evenodd"
viewBox="0 0 2100000 2100000"
 xmlns:xlink="http://www.w3.org/1999/xlink">
 <defs>
  <style type="text/css">
   <![CDATA[
    .fil1 {fill:#5ABABE;fill-rule:nonzero}
    .fil2 {fill:#1E6BB2;fill-rule:nonzero}
    .fil0 {fill:#2F4088;fill-rule:nonzero}
   ]]>
  </style>
 </defs>
 <g id="Слой_x0020_1">
  <metadata id="CorelCorpID_0Corel-Layer"/>
  <path class="fil0" d="M1041108 1757063c-8404,0 -12350,3943 -12350,9767 0,6693 4633,10809 12865,10809 13551,0 20931,-6693 20931,-19381l0 -1195 -21446 0zm-15783 -46842c5833,-1708 11673,-2571 18701,-2571 23153,0 37396,12011 37396,32770l0 50256c0,1201 -689,1892 -1884,1892l-8581 0c-1198,0 -1890,-514 -2229,-1545l-1372 -5318c-1037,-2406 -2061,-2406 -4287,-345 -5318,5834 -13042,9087 -23501,9087 -19046,0 -29681,-9773 -29681,-25894 0,-16128 10983,-26416 31221,-26416l21446 0 0 -1037c0,-10459 -6693,-16118 -19385,-16118 -4976,0 -9264,515 -13380,1717l-6174 1887c-1205,338 -2062,-177 -2406,-1372l-3773 -12707c-338,-1191 171,-2055 1376,-2393l6513 -1893z"/>
  <path class="fil0" d="M1129113 1679691c0,7379 -4123,11667 -11329,11667 -7202,0 -11489,-4288 -11489,-11667 0,-7208 4287,-11496 11489,-11496 7206,0 11329,4288 11329,11496zm162 110985c0,1201 -677,1892 -1879,1892l-15267 0c-1202,0 -1891,-691 -1891,-1892l0 -64322 -8404 0c-1202,0 -1887,-692 -1887,-1887l0 -13210c0,-1198 685,-1891 1887,-1891l25562 0c1202,0 1879,693 1879,1891l0 79419z"/>
  <path class="fil0" d="M1201840 1722921c0,1201 -689,1887 -1884,1887 -18698,854 -26934,13896 -26934,45459l0 20409c0,1201 -683,1892 -1884,1892l-15274 0c-1195,0 -1882,-691 -1882,-1892l0 -79419c0,-1198 687,-1891 1882,-1891l8581 0c1197,0 1890,516 2229,1546l2747 9782c1024,1882 1888,2227 3434,516 6860,-8922 14574,-13212 27101,-13560 1195,0 1884,686 1884,1894l0 13377z"/>
  <path class="fil0" d="M1247299 1774209c4116,2056 8919,2915 14066,2915 13213,0 20757,-9779 20757,-26245 0,-16292 -7544,-26071 -20247,-26071 -12853,0 -19723,10636 -19723,25562l0 21437 5147 2402zm-9605 -56094c686,1888 2055,1717 3262,171 6687,-7544 14746,-10636 24016,-10636 22468,0 36019,16643 36019,43229 0,26937 -14408,43568 -38425,43568 -6171,0 -10635,-1030 -15612,-3253l-4631 -2065 0 38424c0,1207 -686,1894 -1882,1894l-15274 0c-1195,0 -1884,-687 -1884,-1894l0 -116296c0,-1198 689,-1891 1884,-1891l8581 0c1201,0 1884,516 2055,1546l1891 7203z"/>
  <path class="fil0" d="M1336328 1750879c0,16466 7718,26245 20753,26245 12698,0 20586,-9779 20586,-26245 0,-16292 -7888,-26071 -20586,-26071 -13035,0 -20753,9779 -20753,26071zm60208 0c0,26760 -15091,43568 -39455,43568 -24531,0 -39622,-16808 -39622,-43568 0,-26412 15091,-43229 39622,-43229 24364,0 39455,16817 39455,43229z"/>
  <path class="fil0" d="M1464980 1722921c0,1201 -687,1887 -1891,1887 -18701,854 -26928,13896 -26928,45459l0 20409c0,1201 -686,1892 -1891,1892l-15261 0c-1202,0 -1887,-691 -1887,-1892l0 -79419c0,-1198 685,-1891 1887,-1891l8572 0c1207,0 1887,516 2231,1546l2748 9782c1031,1882 1885,2227 3430,516 6858,-8922 14585,-13212 27099,-13560 1204,0 1891,686 1891,1894l0 13377z"/>
  <path class="fil0" d="M1530676 1709366c1207,0 1894,693 1894,1891l0 13210c0,1195 -687,1887 -1894,1887l-19208 0 0 41684c0,5830 2577,9086 6687,9086 1547,0 3087,-168 4465,-682 1192,-516 2062,-348 2570,859l5486 11666c515,1025 177,1879 -853,2571 -3087,1717 -7551,2909 -11668,2909 -16292,0 -25732,-9773 -25732,-26409l0 -41684 -8404 0c-1202,0 -1885,-692 -1885,-1887l0 -13210c0,-1198 683,-1891 1885,-1891l8404 0 0 -19722c0,-1031 515,-1723 1546,-2061l15268 -5144c1369,-345 2231,164 2231,1539l0 25388 19208 0z"/>
  <path class="fil0" d="M623864 1269135c1199,0 1885,686 1885,1887l0 13558c0,1195 -686,1880 -1885,1880l-71877 0c-1204,0 -1885,-685 -1885,-1880l0 -116135c0,-1201 681,-1890 1885,-1890l15609 0c1199,0 1885,689 1885,1890l0 100690 54383 0z"/>
  <path class="fil0" d="M691724 1245978c-5153,13207 -10294,27962 -13212,38940 -345,1027 -1030,1542 -2232,1542l-18183 0c-1201,0 -1884,-515 -2232,-1542 -2909,-10978 -8056,-25563 -13207,-38940l-16974 -40485c-516,-1368 161,-2229 1539,-2229l15951 0c1030,0 1717,516 2232,1376l12182 28819c3772,10120 6857,20582 8227,28296 347,1894 2232,1894 2747,0 1201,-7714 4287,-18353 8233,-28296l12182 -28819c509,-860 1201,-1376 2232,-1376l15954 0c1369,0 2055,861 1539,2229l-16978 40485z"/>
  <path class="fil0" d="M750398 1173589c0,7376 -4116,11667 -11312,11667 -7209,0 -11496,-4291 -11496,-11667 0,-7199 4287,-11490 11496,-11490 7196,0 11312,4291 11312,11490zm177 110991c0,1195 -692,1880 -1890,1880l-15268 0c-1201,0 -1881,-685 -1881,-1880l0 -64335 -8411 0c-1197,0 -1884,-679 -1884,-1884l0 -13206c0,-1205 687,-1891 1884,-1891l25560 0c1198,0 1890,686 1890,1891l0 79425z"/>
  <path class="fil0" d="M830909 1245978c-5154,13207 -10294,27962 -13213,38940 -344,1027 -1030,1542 -2231,1542l-18184 0c-1201,0 -1884,-515 -2231,-1542 -2910,-10978 -8057,-25563 -13207,-38940l-16975 -40485c-515,-1368 161,-2229 1540,-2229l15950 0c1032,0 1717,516 2233,1376l12182 28819c3771,10120 6858,20582 8227,28296 347,1894 2231,1894 2747,0 1201,-7714 4287,-18353 8233,-28296l12181 -28819c510,-860 1202,-1376 2233,-1376l15953 0c1370,0 2055,861 1540,2229l-16978 40485z"/>
  <path class="fil0" d="M447346 1513945c0,56976 -31135,91646 -82601,91646 -14569,0 -25623,-1757 -39315,-6401l-12138 -3970c-2656,-1106 -3753,-3096 -2656,-5750l8840 -25829c1104,-2437 3093,-3536 5518,-2658l11927 3760c9065,3313 15680,4191 27824,4191 26065,0 42851,-18105 42851,-54989l0 -214893c0,-2875 1546,-4414 4415,-4414l30920 0c2869,0 4415,1539 4415,4414l0 214893z"/>
  <path class="fil0" d="M527881 1390261c13914,-4197 29378,-6616 47700,-6616 56765,0 91879,31579 91879,85018l0 127882c0,2863 -1540,4414 -4415,4414l-17894 0c-2868,0 -4408,-1328 -5076,-3971l-2430 -16782c-1987,-5966 -5082,-5960 -9937,-673 -15057,16388 -35562,26058 -65377,26058 -46821,0 -73541,-24729 -73541,-65143 0,-39976 27601,-66256 79067,-66479l60950 0 0 -4203c0,-32237 -19210,-50351 -54542,-50351 -14145,0 -26510,1558 -37325,4858l-15680 4638c-2875,884 -4869,-223 -5750,-3092l-7286 -24947c-879,-2869 224,-4862 3098,-5749l16559 -4862zm39976 115287c-27608,0 -40414,12812 -40414,31807 0,20980 13911,33566 38641,33566 40197,0 62723,-21644 62723,-60947l0 -4426 -60950 0z"/>
  <path class="fil0" d="M758712 1658817c9052,2654 26723,5088 40855,5088 36667,0 65568,-15445 69129,-53893 2487,-26854 1255,-21859 1991,-34015 198,-3310 -2463,-5098 -5744,-1103 -14733,17991 -36440,30697 -64715,30697 -56982,0 -91870,-42841 -91870,-110425 0,-70008 37324,-111521 100487,-111521 18773,0 37993,3760 54770,10825l35554 15231c2435,885 3542,2430 3542,4862l0 188827c0,61400 -36005,96070 -101598,96070 -16783,0 -37102,-2651 -49246,-6187l-20543 -5740c-2874,-885 -3976,-2868 -3091,-5750l7947 -25168c882,-2424 2874,-3535 5306,-2650l17226 4852zm89448 -231229c-10381,-5295 -25189,-8648 -39975,-8611 -38654,109 -61174,27604 -61174,75310 0,44826 20312,75755 57414,75755 38871,0 59410,-30702 59410,-77745l0 -57420 -15675 -7289z"/>
  <path class="fil0" d="M1091925 1599408c-15681,4426 -30923,6183 -46384,6183 -63824,0 -100708,-42841 -100708,-111080 0,-68248 37321,-110866 99609,-110866 51453,0 82597,25395 82597,67798 0,32470 -20095,51236 -62058,57858l-77741 12367c5302,30256 26061,48374 58081,48374 13693,0 27170,-1552 37989,-5082l16345 -4412c2868,-667 4858,435 5736,3304l7069 25400c668,2872 -440,4862 -3308,5523l-17227 4633zm-33131 -121245c19440,-3315 29598,-11924 29598,-26065 0,-21197 -16342,-33121 -44611,-33121 -35117,0 -57426,22969 -59851,71557l74864 -12371z"/>
  <path class="fil0" d="M1205784 1556122c0,8621 3535,13920 10160,13920 1329,0 2434,18 3536,-230 2664,-599 4415,-223 5517,2438l10381 24295c1105,2645 254,4936 -2207,5954 -5232,2167 -11484,3092 -17227,3092 -30697,0 -49028,-18105 -49028,-49469l0 -265238c0,-2872 1546,-4424 4414,-4424l30039 0c2868,0 4415,1552 4415,4424l0 265238z"/>
  <path class="fil0" d="M1307519 1556122c0,8621 3536,13920 10170,13920 1322,0 2431,18 3530,-230 2661,-605 4412,-223 5522,2438l10382 24295c1096,2645 255,4936 -2213,5954 -5229,2167 -11484,3092 -17221,3092 -30700,0 -49035,-18105 -49035,-49469l0 -265238c0,-2872 1546,-4424 4421,-4424l30039 0c2865,0 4405,1552 4405,4424l0 265238z"/>
  <path class="fil0" d="M1556775 1494287c0,68463 -37769,111304 -98945,111304 -61396,0 -99165,-42841 -99165,-111304 0,-67800 37769,-110642 99165,-110642 61176,0 98945,42842 98945,110642zm-159457 0c0,47483 22526,75755 60512,75755 37545,0 60515,-28272 60515,-75755 0,-47041 -22970,-75310 -60515,-75310 -37986,0 -60512,28269 -60512,75310z"/>
  <path class="fil0" d="M1630260 1414563c1984,4637 4827,4578 8389,437 17977,-20846 39762,-31355 65823,-31355 49463,0 79502,32023 79502,84581l0 128319c0,2863 -1547,4414 -4421,4414l-30042 0c-2862,0 -4414,-1551 -4414,-4414l0 -124566c0,-33131 -17003,-53002 -45269,-53002 -38207,0 -60515,28269 -60515,77735l0 99833c0,2863 -1546,4414 -4411,4414l-30045 0c-2869,0 -4402,-1551 -4402,-4414l0 -204071c0,-2868 1533,-4414 4402,-4414l17891 0c2874,0 4420,1322 4647,4190l2865 22313z"/>
  <path class="fil1" d="M789524 496361c20545,-18065 37495,-31861 57833,-45852 -1062,533 -131334,91844 -131334,148708 0,241411 254651,535749 349045,506236 15088,-4716 29620,-10425 43577,-17053 5516,-2623 6116,-3039 1164,-615 -3548,1742 -6633,3148 -8360,3642 -144819,51655 -390167,-430025 -311925,-595066zm389275 -270931c1313,2297 15575,3427 28710,-5008 211,392 435,786 649,1174 2188,3930 4358,7584 6476,11126l9708 -5259c-1938,-3778 -4027,-7655 -6271,-11685 -559,-999 -1121,-1996 -1674,-2974 11121,-12406 15159,-29651 13843,-31942 -1354,-2322 -11939,3959 -24497,14349 -8168,-12585 -14721,-20467 -16578,-19381 -1946,1142 1742,11726 8739,26176 -12111,11006 -20427,21089 -19105,23424zm-126313 308430c1366,-1128 2753,-2223 4166,-3300 -31,24 -56,43 -80,61 -68041,-79914 -123856,-101267 -156992,-93940 -6427,5430 -12115,11946 -17081,19422 59226,-15831 118941,27166 169987,77757zm177202 -296630l-10180 5339c198356,372568 18729,747858 -101090,824929 4852,-270 10698,-1869 17347,-4790 70555,-39399 169034,-187460 205689,-382961 8357,-142829 -26612,-300849 -111766,-442517z"/>
  <path class="fil2" d="M1339278 311469l-10928 3161c34782,129468 33780,254837 13104,365117 -36655,195501 -135134,343562 -205689,382961 36056,-15799 95950,-70136 150669,-159870 29746,-48790 57972,-108041 80002,-177248 26902,-114486 25095,-252770 -27158,-414121zm-222465 765715c-4706,-22 -9428,-407 -14153,-1124 -160575,-24447 -327311,-442604 -238303,-613202 4687,-8994 10085,-17295 16226,-24815 8349,-10216 18080,-18992 29293,-26085 569,-364 1152,-709 1721,-1047 -15035,8115 -39278,22426 -64240,39598 -20338,13991 -38169,29119 -57833,45852 -78242,165041 167106,646721 311925,595066 3800,-1043 41789,-19841 46378,-22306 -1087,395 -10764,4338 -11826,4679 -6984,2266 -13423,3408 -19188,3384zm203748 -786651c133,425 273,848 409,1279 1392,4278 2816,8280 4204,12163l10540 -3293c-1171,-4083 -2475,-8289 -3899,-12672 -360,-1093 -718,-2174 -1069,-3245 13303,-10030 20580,-26186 19729,-28682 -884,-2540 -12477,1587 -26810,9369 -5585,-13920 -10502,-22920 -12532,-22203 -2124,748 -547,11837 3545,27366 -14008,8469 -24113,16767 -23259,19303 847,2512 14626,6362 29142,615zm-420981 146148c33136,-7327 88951,14026 156992,93940 24,-18 49,-37 80,-61 1611,-1224 3263,-2416 4929,-3571 -164,115 -329,227 -490,342 -33708,-51593 -88889,-121449 -137021,-104654 -8211,2865 -15624,6978 -22271,12204 -745,583 -1484,1185 -2219,1800z"/>
  <path class="fil0" d="M1410745 408335c2307,121666 -15823,227775 -44309,317255 -22030,69207 -50256,128458 -80002,177248 -54719,89734 -114613,144071 -150669,159870 -6649,2921 -12495,4520 -17347,4790 -764,44 -1496,56 -2213,30 -172878,-5680 -325722,-473017 -233706,-611425 4966,-7476 10654,-13992 17081,-19422 735,-615 1474,-1217 2219,-1800 6647,-5226 14060,-9339 22271,-12204 48132,-16795 103313,53061 137021,104654 161,-115 326,-227 490,-342 315,-221 624,-438 945,-652 -37524,-60086 -88453,-128415 -134746,-121259 -4300,664 -8555,1981 -12756,4007 -1145,559 -2291,1162 -3427,1826 -569,338 -1152,683 -1721,1047 -11213,7093 -20944,15869 -29293,26085 -6141,7520 -11539,15821 -16226,24815 -89008,170598 77728,588755 238303,613202 4725,717 9447,1102 14153,1124 5765,24 12204,-1118 19188,-3384 1062,-341 2130,-720 3217,-1115 17698,-6454 38653,-19794 61058,-39435 14392,-12633 29393,-27879 44492,-45580 93939,-110102 192008,-315315 177225,-579335l-11248 0zm9770 -48526c-1367,-14933 -3499,-24966 -5644,-24860 -2251,104 -3918,11182 -4452,27231 -15845,4098 -27902,9152 -27813,11835 90,2647 12188,10285 27735,8931 10,450 16,901 29,1348 105,4491 335,8738 546,12855l11042 -130c41,-4247 6,-8649 -102,-13263 -32,-1148 -68,-2284 -105,-3408 15627,-5805 27231,-19192 27129,-21828 -121,-2685 -12405,-2052 -28365,1289zm-325542 249647c17764,0 32184,-14402 32184,-32178 0,-17773 -14420,-32184 -32184,-32184 -17772,0 -32181,14411 -32181,32184 0,17776 14409,32178 32181,32178z"/>
 </g>
</svg>
