<?xml version="1.0" encoding="UTF-8"?>
<!DOCTYPE svg PUBLIC "-//W3C//DTD SVG 1.1//EN" "http://www.w3.org/Graphics/SVG/1.1/DTD/svg11.dtd">
<!-- Creator: CorelDRAW X7 -->
<svg xmlns="http://www.w3.org/2000/svg" xml:space="preserve" width="100%" height="100%" version="1.1" style="shape-rendering:geometricPrecision; text-rendering:geometricPrecision; image-rendering:optimizeQuality; fill-rule:evenodd; clip-rule:evenodd"
viewBox="0 0 2100000 2100000"
 xmlns:xlink="http://www.w3.org/1999/xlink">
 <defs>
  <style type="text/css">
   <![CDATA[
    .fil2 {fill:#005B5C}
    .fil1 {fill:#007FBE;fill-rule:nonzero}
    .fil0 {fill:#3AB911;fill-rule:nonzero}
   ]]>
  </style>
 </defs>
 <g id="Слой_x0020_1">
  <metadata id="CorelCorpID_0Corel-Layer"/>
  <polygon class="fil0" points="714926,1107985 784015,1107985 784015,1276654 838437,1196759 910227,1196759 844226,1287461 915631,1398621 838437,1398621 784015,1310234 784015,1398621 714926,1398621 "/>
  <path class="fil0" d="M1033354 1327988l0 -12351 -18141 0c-27790,0 -40141,5404 -40141,22001 0,11579 7719,18913 23931,18913 19684,0 34351,-11194 34351,-28563zm-126598 14667c0,-47474 40140,-66001 107300,-66001l19298 0 0 -4632c0,-19298 -4632,-32035 -26632,-32035 -18913,0 -25860,11193 -27404,23931l-64843 0c3087,-48633 41299,-72563 96493,-72563 55580,0 91088,22772 91088,76422l0 130844 -67158 0 0 -23544c-9650,14667 -27404,28176 -59826,28176 -36281,0 -68316,-17755 -68316,-60598z"/>
  <path class="fil0" d="M1122126 1196759l69088 0 0 40140c12737,-30106 33966,-43229 65229,-42842l0 64457c-42071,-1158 -65229,11965 -65229,44387l0 95720 -69088 0 0 -201862z"/>
  <path class="fil0" d="M1422743 1299041l0 -3088c0,-35509 -15439,-52492 -39755,-52492 -25088,0 -40141,18140 -40141,52106l0 3087c0,34352 15053,51721 40141,51721 25861,0 39755,-18141 39755,-51334zm-147054 -102282l69089 0 0 30106c11579,-19299 32421,-35510 62912,-35510 47089,0 85300,35510 85300,104598l0 3088c0,69474 -38211,104212 -85686,104212 -30491,0 -52492,-14281 -62526,-34351l0 97264 -69089 0 0 -269407z"/>
  <path class="fil0" d="M1631221 1327988l0 -12351 -18141 0c-27789,0 -40141,5404 -40141,22001 0,11579 7720,18913 23931,18913 19684,0 34351,-11194 34351,-28563zm-126598 14667c0,-47474 40141,-66001 107300,-66001l19298 0 0 -4632c0,-19298 -4632,-32035 -26632,-32035 -18912,0 -25860,11193 -27404,23931l-64843 0c3088,-48633 41299,-72563 96493,-72563 55580,0 91089,22772 91089,76422l0 130844 -67159 0 0 -23544c-9649,14667 -27404,28176 -59826,28176 -36281,0 -68316,-17755 -68316,-60598z"/>
  <path class="fil0" d="M1736980 1333778l0 -89932 -24316 0 0 -47087 24316 0 0 -66994 69088 0 0 66994 39755 0 0 47087 -39755 0 0 83370c0,14667 7334,21229 20457,21229 7719,0 13509,-1158 19684,-3474l0 52492c-8877,2316 -22000,5790 -38211,5790 -45544,0 -71018,-22000 -71018,-69475z"/>
  <polygon class="fil0" points="1931508,1378164 1850841,1196759 1925719,1196759 1967404,1304444 2006000,1196759 2072000,1196759 2072000,1196763 1963930,1466166 1897928,1466166 "/>
  <path class="fil1" d="M845770 1483883l69088 0 0 40140c12737,-30105 33966,-43228 65229,-42842l0 64457c-42071,-1158 -65229,11965 -65229,44388l0 95720 -69088 0 0 -201863z"/>
  <path class="fil1" d="M1114461 1615113l0 -12351 -18141 0c-27789,0 -40141,5403 -40141,22000 0,11579 7719,18913 23931,18913 19684,0 34351,-11194 34351,-28562zm-126598 14666c0,-47474 40141,-66000 107300,-66000l19298 0 0 -4632c0,-19299 -4632,-32035 -26632,-32035 -18913,0 -25860,11192 -27404,23930l-64843 0c3088,-48632 41299,-72563 96493,-72563 55580,0 91088,22772 91088,76422l0 130845 -67158 0 0 -23544c-9649,14666 -27404,28175 -59826,28175 -36281,0 -68316,-17755 -68316,-60598z"/>
  <polygon class="fil1" points="1189670,1483883 1263391,1483883 1305462,1613954 1346760,1483883 1412761,1483883 1339041,1685746 1263777,1685746 "/>
  <path class="fil1" d="M1544869 1561849c-1158,-24316 -13123,-37825 -35510,-37825 -20842,0 -35123,13509 -38596,37825l74106 0zm-144739 25474l0 -3088c0,-64842 48246,-105755 109229,-105755 55194,0 102669,31649 102669,104212l0 18140 -142037 0c1929,26632 17368,42071 42070,42071 22773,0 32422,-10422 35123,-23930l64844 0c-6176,45544 -41300,71404 -102282,71404 -63300,0 -109616,-37053 -109616,-103054z"/>
  <polygon class="fil1" points="1631221,1416890 1699924,1416890 1699924,1685746 1631221,1685746 "/>
  <path class="fil1" d="M714540 1620902l0 -89931 -24316 0 0 -47088 24316 0 0 -66993 69089 0 0 66993 39755 0 0 47088 -39755 0 0 83370c0,14666 7333,21228 20456,21228 7720,0 13509,-1158 19684,-3473l0 52491c-8876,2317 -21999,5790 -38210,5790 -45545,0 -71019,-22000 -71019,-69475z"/>
  <polygon class="fil1" points="1033873,747757 745739,459623 527937,677426 310135,459623 22000,747758 92333,818091 310135,600289 527935,818089 745737,600287 963540,818090 "/>
  <polygon class="fil0" points="1251675,965560 963542,677426 745740,895228 527937,677426 239803,965560 310136,1035893 527938,818091 745738,1035892 963540,818090 1181343,1035892 "/>
  <polygon class="fil2" points="527938,818091 457605,747759 527937,677426 598268,747757 "/>
  <polygon class="fil2" points="963543,818091 893210,747759 963542,677426 1033873,747757 "/>
 </g>
</svg>
