<?xml version="1.0" encoding="UTF-8"?>
<!DOCTYPE svg PUBLIC "-//W3C//DTD SVG 1.1//EN" "http://www.w3.org/Graphics/SVG/1.1/DTD/svg11.dtd">
<!-- Creator: CorelDRAW X7 -->
<svg xmlns="http://www.w3.org/2000/svg" xml:space="preserve" width="100%" height="100%" version="1.1" style="shape-rendering:geometricPrecision; text-rendering:geometricPrecision; image-rendering:optimizeQuality; fill-rule:evenodd; clip-rule:evenodd"
viewBox="0 0 2100000 2100000"
 xmlns:xlink="http://www.w3.org/1999/xlink">
 <defs>
  <style type="text/css">
   <![CDATA[
    .str1 {stroke:#493428;stroke-width:10583}
    .str0 {stroke:#493428;stroke-width:42333}
    .fil0 {fill:none;fill-rule:nonzero}
    .fil2 {fill:#FEFEFE;fill-rule:nonzero}
    .fil1 {fill:#493428;fill-rule:nonzero}
   ]]>
  </style>
 </defs>
 <g id="Слой_x0020_1">
  <metadata id="CorelCorpID_0Corel-Layer"/>
  <polygon class="fil0 str0" points="1637093,1711532 466015,1711532 466015,455657 1637093,455657 "/>
  <polygon class="fil0 str1" points="1575187,1567916 527508,1567916 527508,516903 1575187,516903 "/>
  <path class="fil1" d="M444833 1276491c-9070,-1344 -17957,-3644 -26183,-7225 -8227,-3560 -15625,-8721 -21322,-15328 -5740,-6576 -9638,-14598 -12030,-23135 -2385,-8559 -3521,-17576 -3814,-26688 -303,-9116 166,-18337 1016,-27566 791,-9225 1990,-18475 3391,-27714 1411,-9250 3030,-18496 4737,-27753l5119 -27845c3429,-18620 7031,-37306 9772,-56254 2759,-18944 4971,-38097 5895,-57492 483,-9702 586,-19459 176,-29260 -370,-9789 -1277,-19621 -2804,-29404 -1545,-9761 -3531,-19064 -5775,-28582 -2286,-9447 -4900,-18863 -8089,-28109 -6453,-18450 -14831,-36386 -25679,-52624 -10767,-16284 -23774,-30924 -38333,-43413 -14541,-12534 -30536,-23018 -47269,-31690 -8343,-4360 -16873,-8361 -25618,-11835 -8784,-3426 -17770,-6319 -26924,-8502 -18306,-4354 -37292,-5825 -56028,-3934 -18726,1933 -37077,7292 -54152,15406 -34177,16432 -62946,43667 -83654,76193 -20697,32558 -33849,70700 -36167,110285 -1178,19773 512,39822 5094,59270 4618,19435 12305,38196 22680,55238 10372,17050 23368,32382 38143,45403 7373,6537 15176,12506 23273,17974 8128,5426 16404,10403 25301,14852 17723,8897 37444,14460 57707,15247 20204,794 41003,-3500 59105,-13568 18157,-9888 33478,-25241 43479,-43642 10153,-18341 14764,-39592 14083,-60293 -631,-20754 -6350,-40912 -15423,-58773 -4502,-8957 -9800,-17399 -15635,-25330 -5768,-7831 -12323,-15733 -20049,-22309 -7711,-6611 -16601,-12136 -26409,-15494 -9772,-3376 -20408,-4442 -30582,-2847 -10192,1531 -19801,5641 -28092,11412 -8300,5779 -15363,13187 -20845,21636 -5493,8428 -9352,17985 -11081,27979 -1739,9969 -1242,20415 1789,30025 3023,9620 8498,18207 15285,25086 6820,6911 14884,12167 23291,16263l1016 -1979c-7871,-4752 -15124,-10559 -20930,-17533 -5835,-6922 -10129,-15078 -12136,-23739 -2078,-8636 -1901,-17716 187,-26257 2078,-8558 6004,-16595 11134,-23608 10244,-14040 25872,-23802 42125,-25407 8110,-839 16277,402 23844,3440 7585,3023 14566,7803 20750,13649 6262,5828 11600,12619 16634,20154 4981,7436 9391,15208 13017,23283 7222,16133 11607,33433 11547,50663 39,17183 -4392,34082 -12714,48545 -8326,14475 -20652,26311 -35098,34015 -14475,7680 -30949,11335 -47537,10714 -16630,-518 -33168,-5313 -48743,-12626 -31479,-15296 -59969,-38534 -78970,-68418 -19180,-29820 -28359,-66015 -27463,-102220 797,-36224 10862,-72567 28882,-104380 17949,-31743 44111,-59362 76471,-75840 32135,-16800 70235,-20888 105280,-11653 17603,4371 34202,12224 50126,21227 15811,9165 30625,20041 43674,32734 13038,12693 24320,27115 33408,42831 9070,15727 16161,32579 21311,50126 5327,17438 8869,35751 11589,53933 2536,17935 2977,36325 2409,54804 -617,18471 -2487,37049 -4921,55626 -2455,18577 -5210,37214 -8149,55922 -2946,18715 -5761,37557 -7754,56642 -1997,19064 -3306,38478 -1450,58103 960,9786 2671,19667 6149,29125 3432,9426 8696,18429 15889,25453 7147,7084 16016,11850 25075,14806 9102,2970 18511,4096 27771,4434l198 -2229z"/>
  <path class="fil1" d="M1654744 1294743c9070,-1468 17960,-3948 26190,-7786 8231,-3821 15632,-9335 21340,-16383 5747,-7014 9659,-15558 12061,-24645 2396,-9106 3542,-18694 3849,-28381 318,-9691 -141,-19495 -977,-29299 -776,-9803 -1958,-19628 -3348,-29446 -1397,-9828 -3002,-19646 -4695,-29478l-5077 -29580c-3404,-19777 -6978,-39628 -9691,-59757 -2730,-20126 -4914,-40475 -5810,-61087 -473,-10312 -557,-20684 -134,-31105 385,-10407 1305,-20863 2847,-31267 1556,-10382 3556,-20277 5814,-30405 2300,-10051 4924,-20070 8128,-29916 6477,-19639 14880,-38735 25749,-56042 10788,-17353 23812,-32967 38389,-46306 14559,-13384 30565,-24592 47304,-33877 8350,-4671 16884,-8961 25637,-12690 8784,-3676 17772,-6791 26927,-9147 18309,-4706 37296,-6347 56021,-4413 18722,1979 37063,7598 54123,16153 34146,17325 62872,46158 83528,80645 20648,34523 33739,75011 36001,117080 1150,21015 -568,42334 -5179,63027 -4646,20677 -12358,40648 -22754,58809 -10397,18168 -23411,34519 -38203,48422 -7383,6974 -15190,13352 -23294,19198 -8135,5803 -16414,11130 -25319,15893 -17734,9532 -37457,15525 -57717,16446 -20201,928 -40993,-3552 -59073,-14178 -18140,-10435 -33436,-26691 -43413,-46210 -10125,-19456 -14700,-42027 -13991,-64033 663,-22063 6410,-43515 15504,-62537 4516,-9543 9825,-18538 15671,-26991 5778,-8350 12344,-16775 20076,-23798 7719,-7056 16616,-12969 26427,-16577 9775,-3631 20412,-4805 30582,-3154 10185,1587 19788,5916 28067,12015 8294,6107 15343,13953 20814,22913 5475,8936 9321,19078 11035,29697 1725,10587 1214,21696 -1831,31923 -3034,10238 -8523,19385 -15321,26726 -6826,7373 -14894,12997 -23308,17385l-1012 -2102c7877,-5084 15134,-11282 20951,-18719 5846,-7383 10149,-16069 12171,-25283 2088,-9194 1926,-18846 -152,-27916 -2064,-9087 -5979,-17610 -11095,-25043 -10227,-14884 -25837,-25196 -42083,-26836 -8106,-857 -16273,494 -23844,3754 -7588,3249 -14577,8357 -20768,14597 -6269,6220 -11613,13459 -16658,21488 -4992,7927 -9412,16207 -13049,24807 -7243,17177 -11653,35585 -11617,53901 -67,18264 4342,36210 12643,51548 8301,15353 20610,27884 35042,36015 14460,8104 30928,11921 47512,11191 16626,-621 33168,-5786 48750,-13621 31496,-16394 60015,-41208 79054,-73053 19223,-31779 28452,-70291 27609,-108772 -748,-38503 -10757,-77097 -28727,-110836 -17900,-33669 -44020,-62918 -76348,-80299 -32107,-17728 -70192,-21919 -105244,-11953 -17608,4717 -34213,13134 -50148,22769 -15818,9810 -30649,21434 -43713,34978 -13056,13546 -24355,28920 -33461,45663 -9094,16757 -16206,34699 -21381,53372 -5352,18560 -8919,38040 -11667,57379 -2561,19075 -3027,38626 -2487,58265 593,19636 2431,39374 4840,59108 2427,19741 5158,39539 8065,59415 2921,19879 5708,39895 7673,60173 1972,20260 3249,40887 1365,61757 -974,10407 -2695,20920 -6188,30988 -3446,10030 -8720,19625 -15924,27122 -7158,7556 -16030,12661 -25090,15840 -9105,3196 -18513,4427 -27774,4826l-194 -2367z"/>
  <path class="fil1" d="M1067848 228366c-24105,0 -46933,2025 -69232,4953 599,-17868 4653,-39871 16968,-54815 11790,-13815 30261,-20574 56018,-20574 26133,0 44905,6759 57220,21100 12915,15018 17346,37546 18475,55492 -25530,-3831 -51890,-6156 -79449,-6156zm462866 72990l-215590 0c-27333,-22829 -65179,-41604 -110010,-54219 603,-26434 -3228,-71864 -32290,-105657 -23428,-27855 -57520,-41596 -101222,-41596 -43702,0 -77421,14041 -100545,41596 -27337,32593 -31091,75396 -30265,102429 -49562,12915 -90932,32816 -119920,57447l-270178 0c-85683,0 -105883,73060 -105883,107978l1209954 0c0,-42274 -19375,-107978 -124051,-107978z"/>
  <path class="fil2" d="M558648 1634605l1005667 0 0 334370 -1005667 0 0 -334370zm-10891 345271l1027430 0 0 -356168 -1027430 0 0 356168z"/>
  <path class="fil1" d="M1565056 1979886l-1027430 0 0 -356168 1027430 0 0 356168zm-1047680 20229l1067943 0 0 -396643 -1067943 0 0 396643z"/>
  <polygon class="fil1" points="1554183,1634266 548516,1634266 548516,1968636 1554183,1968636 "/>
  <polygon class="fil2" points="611054,1869332 599839,1869343 599737,1764649 619319,1764631 650886,1848518 682057,1764571 701185,1764554 701287,1869247 688196,1869258 688104,1777829 687194,1777829 654378,1869290 645556,1869300 611421,1777899 610962,1777899 "/>
  <path class="fil2" d="M797741 1764456l67 66210c7,6226 -476,11574 -1436,16054 -966,4481 -2960,8541 -5997,12185 -6329,7790 -15815,11684 -28452,11702 -12678,14 -22094,-3238 -28246,-9765 -3348,-4014 -5543,-8389 -6594,-13116 -1044,-4724 -1570,-10386 -1577,-16990l-67 -66206 13035 -21 67 66209c11,9533 1419,16306 4230,20328 3574,5267 10259,7898 20052,7884 8805,-7 15099,-2420 18895,-7246 2311,-2769 3739,-5736 4286,-8908 550,-3175 819,-7207 815,-12107l-67 -66206 10989 -7z"/>
  <path class="fil2" d="M829013 1838314c1450,4707 3651,8619 6614,11720 2964,3115 6544,5433 10739,6974 4198,1528 8759,2290 13695,2286 8121,-7 14347,-1647 18669,-4918 4360,-3379 6540,-7976 6533,-13783 -7,-8502 -6011,-14090 -18009,-16774l-17480 -4368c-8428,-1965 -14732,-4769 -18909,-8406 -5585,-4890 -8382,-11346 -8386,-19350 -10,-9490 3433,-16679 10337,-21583 6903,-4900 15324,-7363 25269,-7366 8918,-14 16655,2180 23206,6579 6551,4396 11200,10746 13942,19054l-11896 3256c-995,-5570 -4046,-10082 -9151,-13511 -5112,-3429 -10622,-5140 -16545,-5133 -5617,3 -10750,1481 -15396,4423 -4646,2946 -6967,7077 -6960,12386 4,5282 1535,8950 4597,11021 3051,2060 7828,3983 14323,5761l15829 3514c9186,2455 15564,5246 19138,8347 6530,5344 9800,12269 9807,20771 14,9871 -3944,17812 -11874,23809 -6559,4978 -15646,7472 -27260,7482 -21710,25 -35930,-9923 -42672,-29845l11840 -2346z"/>
  <polygon class="fil2" points="918825,1869030 918722,1764336 931814,1764318 931916,1869012 "/>
  <path class="fil2" d="M1033280 1836294c-2459,10510 -6862,18821 -13215,24917 -6350,6100 -14838,9148 -25464,9162 -9564,10 -17547,-2642 -23950,-7973 -6399,-5327 -11123,-12188 -14167,-20595 -3045,-8400 -4569,-17142 -4579,-26212 -11,-9373 1566,-18093 4727,-26169 3157,-8061 8029,-14548 14612,-19452 6576,-4900 14725,-7362 24440,-7366 6795,-7 12785,1401 17967,4219 5186,2826 9412,6756 12679,11808 3270,5038 5570,10806 6907,17293l-12350 2346c-4304,-16464 -12873,-24691 -25700,-24677 -10287,11 -17664,4361 -22133,13060 -4470,8693 -6703,18641 -6689,29835 7,10248 1651,19032 4921,26356 2279,4896 5447,8875 9493,11941 4047,3073 8647,4604 13808,4597 13667,-11 22670,-8654 27019,-25926l11674 2836z"/>
  <path class="fil2" d="M1142831 1796048c-7,-6985 -2420,-10474 -7239,-10467 -4819,233 -7229,3574 -7222,10026 78,2886 840,5437 2286,7655 1443,2216 2621,3782 3532,4692 1139,-680 2677,-2010 4610,-3989 1930,-1980 3278,-4615 4033,-7917zm-11413 29154c-1594,920 -3612,2825 -6057,5729 -2445,2907 -3764,6826 -3944,11761 4,4555 1372,8273 4106,11152 2734,2885 6118,4378 10143,4494 5768,-7 10121,-906 13060,-2692 2938,-1788 4409,-3079 4409,-3877 -952,-949 -2554,-2635 -4815,-5062 -2261,-2424 -4780,-5404 -7553,-8932 -5510,-6901 -8629,-11092 -9349,-12573zm51792 43561l-16052 17 -5873 -7002c-985,1337 -3468,2988 -7451,4967 -3987,1972 -10037,2967 -18158,2981 -6261,-226 -11856,-1965 -16771,-5225 -4921,-3259 -8124,-7789 -9609,-13596 -607,-2547 -914,-5129 -918,-7747 -7,-5387 1186,-10170 3571,-14344 2388,-4180 4988,-7528 7792,-10065 2805,-2522 4435,-3785 4893,-3785 -1030,-1136 -2423,-3041 -4191,-5718 -1767,-2667 -3016,-5737 -3739,-9187 -459,-1859 -688,-3665 -688,-5408 -7,-4480 1242,-8484 3747,-12022 2501,-3525 5743,-5811 9726,-6834 1781,-501 3736,-751 5859,-751 3302,109 6414,744 9314,1901 2903,1154 5344,3076 7323,5768 1976,2699 3041,6283 3196,10753 11,6417 -1876,11642 -5648,15663 -3771,4032 -6928,6749 -9472,8153 74,113 1112,1474 3108,4067 1997,2597 4153,5440 6467,8506 2589,3263 4886,6054 6900,8364 2014,2314 3284,3719 3821,4209 0,-39 141,-353 423,-939 282,-585 522,-1277 713,-2056 183,-773 356,-2039 504,-3786l-3 -6487 12125 -14c306,1707 458,3097 462,4156 3,2885 -469,6071 -1415,9574 -490,2349 -1224,4388 -2187,6117 -967,1725 -1619,2875 -1958,3443l14189 16327z"/>
  <path class="fil2" d="M1291197 1857437c7515,-7 13110,-1471 16789,-4396 4360,-2886 6541,-7560 6534,-14012 -11,-6833 -2502,-12270 -7479,-16334 -3454,-2462 -9377,-3690 -17763,-3683l-23798 21 39 38429 25678 -25zm-5175 -48726c9186,-10 15558,-1323 19124,-3940 1937,-1489 3500,-3503 4689,-6043 1196,-2548 1795,-5130 1792,-7747 -7,-6107 -2579,-10700 -7701,-13769 -3119,-1860 -8015,-2784 -14694,-2777l-23798 25 39 34269 20549 -18zm-33528 59979l-102 -104693 39620 -36c4974,-7 8996,258 12069,808 3076,547 6209,1905 9398,4061 7331,4893 10999,11719 11010,20482 7,5962 -1619,11024 -4882,15180 -3257,4159 -7776,6964 -13540,8417l0 222c6526,1355 11779,4460 15748,9296 3976,4833 5965,10591 5969,17272 11,9642 -3327,17025 -9998,22158 -3679,2844 -7450,4692 -11324,5528 -3870,840 -8650,1263 -14344,1270l-39624 35z"/>
  <path class="fil2" d="M1376909 1777882l-16231 50115 32392 -35 -16161 -50080zm29468 90656l-10506 -30557 -38714 39 -9532 30582 -10933 3 33941 -104725 14919 -18 34371 104666 -13546 10z"/>
  <path class="fil2" d="M1470709 1812510c4216,0 7677,-374 10386,-1112 2716,-751 5228,-2317 7542,-4713 3563,-3566 5341,-8163 5338,-13783 -7,-6530 -2420,-11416 -7243,-14675 -3344,-2166 -8167,-3242 -14467,-3235l-26360 24 39 37518 24765 -24zm23795 55939l-19403 -45236 -29146 24 46 45262 -13039 18 -102 -104694 39394 -43c10248,-14 18105,2068 23576,6234 7483,5574 11229,13275 11236,23100 11,6265 -1714,11871 -5161,16806 -3446,4935 -8170,8287 -14167,10030l20545 48485 -13779 14z"/>
  <path class="fil1" d="M1268068 577135c1785,-1038 3648,-1983 5578,-2798 35337,-14894 81989,15720 104193,68393 9341,22158 12862,44690 11179,64477 -342,-17776 -5895,-40686 -13903,-59679 -23149,-54921 -68432,-86671 -107047,-70393zm118054 170395c-3711,3207 -10591,10657 -14076,24010 2836,-16115 10552,-25097 15032,-29090 42,85 88,183 134,271 921,1870 434,3497 -1090,4809zm128556 354182c-1923,-10435 -11208,-27916 -11208,-27916 0,0 2709,2918 8354,13515 6664,12538 10392,32244 211,51361 5020,-17970 4579,-28102 2643,-36960zm-197870 -326997c-1845,162 -3221,-540 -3852,-2328 -367,-1034 -836,-2396 -1411,-4040 -24236,-10054 -47502,-34135 -61239,-66728 18888,36897 38149,49950 62304,60417 554,1651 998,3023 1351,4068 603,1806 1972,2533 3821,2391 20955,5214 30734,12369 37609,22765 -16531,-16499 -32293,-17120 -38583,-16545zm72259 -34985c10333,-26134 9127,-62209 -5715,-97413 -23890,-56680 -74093,-89640 -112133,-73607 -38026,16031 -49492,74990 -25602,131668 14775,35045 39610,61023 65402,71952 610,1775 1125,3228 1520,4346 671,1923 2138,2685 4089,2512 6678,-571 23414,187 41056,17981 18818,18094 94912,251690 113627,310399 4656,14587 18492,32187 42463,36876l4 -4c13377,-20429 10432,-42622 3238,-56137 -28959,-54395 -143058,-271967 -142878,-298069 -423,-25055 10724,-37564 15790,-41946 1489,-1277 1972,-2861 1069,-4685 -504,-1009 -1150,-2307 -1930,-3873z"/>
  <path class="fil1" d="M1054528 818832c2445,-7313 3059,-14633 5503,-21950 3059,-9144 7948,-17067 11007,-26211 1834,-6706 0,-14026 2445,-20733 1838,-6096 8565,-9754 10400,-15850 1220,-4265 0,-9144 1831,-13413 6731,-21339 6117,-24387 10396,-45113 614,-3662 -610,-18291 6117,-17071 2205,1097 4350,2650 6107,3845 635,198 1383,572 1845,1034 0,607 1224,3048 1224,3655 0,29263 6113,40241 14675,67063 1224,4269 1835,8537 3669,12802 3673,9148 12231,9148 12231,21340 0,33531 25075,49385 25075,66453 0,4878 -3668,10974 -8561,10974 -17735,0 -35469,-3048 -53206,-3048 -7342,0 -14069,1221 -21403,1221 -6728,0 -14066,-1831 -21407,-1831 -4889,0 -7948,5486 -12231,5486 -3669,0 -6117,-3655 -6117,-6703 0,-6099 7952,-15854 10400,-21950zm-385868 -31704c0,15244 12841,15854 21403,24391 6727,6703 9782,16457 16513,23164 5504,5489 12841,7926 17734,13412 4890,6096 3669,14023 9173,20123 10396,12192 28744,19508 39140,31700 11621,13413 18348,29873 28745,43896 5503,7924 14065,12803 20178,20119 6728,7313 7338,18288 14680,24995 20789,18291 60543,24387 86839,24387 579,0 1087,-28 1613,-53 63,4 130,53 197,53 924,0 1824,-130 2720,-303 1415,-215 2568,-554 3556,-988 3164,-1115 6283,-2607 9627,-2978 4279,-610 8559,0 13452,-610 10400,-1217 20182,-5486 31189,-5486 9176,0 17734,4879 27520,4879 6727,0 12845,-1831 19569,-1831 6731,0 10399,5486 14068,5486 3059,0 6118,-4265 6118,-7313 0,-18291 -44034,-10365 -44034,-25605 0,-3048 1834,-5489 1834,-8537 0,-19508 4893,-36579 11621,-55481 3058,-8534 11006,-15240 11006,-24384 0,-4879 -1224,-9754 -1224,-14023 0,-5489 2449,-9148 7952,-9148 5507,0 9786,2442 15289,3052 8562,607 17124,607 25686,607 10393,0 20179,1831 29965,1831 7341,0 14676,-4265 22631,-4265 8558,0 17120,606 25682,-611 4893,-614 9786,-5489 13455,-5489l4283 1221c5503,1827 3668,15240 5503,20119 1831,6096 6114,12192 8558,18288 2449,7320 4283,15243 6731,23170 2445,8534 1221,17067 3055,25605 1224,6706 4893,12802 4893,19508 0,7317 -13455,26215 -20792,26215 -4280,0 -6728,-4268 -9783,-4268 -3058,0 -7952,6099 -7952,8537 0,9754 15900,10971 22628,10971 6727,0 13451,0 20182,-607 11007,-1217 20793,-8537 32410,-8537 20182,0 43423,9754 59933,9754 6114,0 17124,-8533 17124,-15240 0,-2437 -3059,-4878 -5503,-4878 -4280,0 -7342,1830 -11011,1830 -14065,0 -28740,-11585 -37302,-21339 -6728,-7317 -17124,-32311 -20793,-42069 -4893,-12188 -6117,-25604 -10396,-37796l-9176 -24384c-3665,-9148 -9783,-16465 -12841,-25609 -1835,-5485 -1835,-11581 -3673,-17070 -3055,-7317 -9782,-12196 -12227,-19509 -3058,-7927 -2448,-16461 -4893,-24388 -4279,-10971 -8562,-22556 -12845,-33531 -3055,-7317 -7948,-14023 -9782,-21336 -4893,-14633 -1224,-28046 -8562,-46948 -2445,-5485 -7948,-9754 -9786,-15240 -4890,-11585 -3669,-23777 -7338,-35359 -4283,-11585 -14065,-4272 -14065,-33535 0,-10971 -1224,-9754 -11007,-16460 -10400,610 -25685,30487 -25685,40241 0,18288 -5504,18288 -10397,34138 -2448,6100 -1224,12192 -2448,18288 -2445,7320 -4279,15244 -6728,22560 -2444,6707 -9172,10975 -11620,17682 -1831,4879 -1221,10975 -3055,15850 -2448,5489 -9786,18898 -9786,23777 0,10365 -7338,18902 -10397,28656 -4282,11582 -15289,31094 -15289,42672 0,36583 -11617,22560 -18958,45121 -3055,8533 -1835,18288 -4890,26821 -5507,13413 -26299,39021 -26299,52434 0,16460 -6114,14019 -14066,24994 -3058,4269 -4282,9147 -7951,12195 -2995,2488 -14468,6957 -20938,8534 -2155,-3 -4332,-25 -6508,-88 -1824,-723 -3574,-1739 -5574,-1739 -1020,0 -1888,494 -2607,1206 -12280,-1178 -24120,-4621 -32844,-14619 -4279,-4879 -2445,-11585 -6113,-16464 -9176,-11582 -22017,-21336 -30579,-34138 -7338,-10365 -12231,-22560 -19569,-33532 -4893,-6706 -6117,-15850 -11010,-22556 -6114,-7927 -15289,-14027 -22017,-21340 -6114,-6706 -15286,-9144 -22013,-15850 -7952,-7931 -12231,-18902 -20793,-26219 -5507,-4875 -11620,-9754 -18348,-13412 -7952,-4265 -28741,-7317 -28741,-18292 0,-7313 17734,-9754 22627,-14019 7949,-6707 13452,-16461 20790,-23777 7341,-6707 14679,-13413 22017,-20119 7951,-6707 18958,-7927 26299,-14634 7948,-7316 14065,-15850 21403,-23166 7341,-7314 10396,-17068 17734,-24388 6117,-6096 12231,-11582 18959,-17067 7951,-6100 17737,-8538 25685,-14027 9786,-6706 3059,-10971 19569,-10971 7341,0 14069,1831 21406,1217 3055,-1828 6114,-5482 6114,-9144 0,-6706 -10396,-14023 -16510,-14023 -9786,0 -15289,9147 -26296,9147 -4893,0 -9786,-1830 -14679,-1830 -17734,0 -36082,-1828 -53816,-3659 -6117,-607 -11011,-4875 -17124,-4875 -5503,0 -7948,6706 -7948,10971 0,6100 3665,9755 9782,9755 15290,0 23238,610 23238,19508 -5504,4883 -8559,12806 -13452,18902 -11620,13416 -26910,22560 -39140,35362 -20793,21336 -37303,48165 -58710,68281 -9782,9147 -42195,18291 -42195,33531z"/>
  <path class="fil1" d="M583039 990150c-7335,0 -14676,-3048 -19569,-3048 -4893,0 -7338,6096 -7338,9754 0,3655 1835,7313 3669,9755l611 -611c4282,5486 11620,6707 17734,6707 16513,0 15293,-9148 28744,-9148 7338,0 14065,1831 20796,1831 6728,0 14062,-1221 20789,-1221 12842,0 22017,9144 35472,9144 6724,0 19569,-1827 19569,-10971 0,-17681 -51982,-7927 -51982,-50603 0,-9144 4279,-17070 4279,-26214 0,-12806 -6724,-26215 -6724,-39021 0,-9754 7952,-17068 7952,-26822 0,-7320 -4893,-12802 -4893,-20122 0,-6707 4279,-13413 4279,-20116 0,-6706 -6117,-10978 -6117,-17681 0,-6706 3058,-12195 3058,-18902 0,-6706 -610,-13412 -610,-20115 0,-4883 3669,-9754 3669,-14637 0,-7923 -5503,-14019 -5503,-21946 0,-6707 3058,-13413 3058,-20119 0,-11582 -3058,-23167 -3058,-35359 0,-21340 8562,-60360 36082,-60360 4893,0 7948,5489 12231,5489 3669,0 6113,-6096 6113,-9144 0,-4879 -3669,-9754 -9172,-9754 -13455,0 -28134,4875 -42196,4875 -8562,0 -15289,-4875 -23241,-4875 -6113,0 -11620,4875 -17734,4875 -9172,0 -18958,-3658 -28134,-4875 -6113,-611 -12231,-7317 -15900,-7317 -5503,0 -10396,16461 -10396,21340 0,3044 1835,6096 4893,6096 5503,0 9172,-4269 14676,-4269 28134,0 31189,43896 31189,63405 0,8537 -6114,15240 -6114,23167 0,14633 7952,34752 7952,45116 0,4879 -3673,9755 -3673,14634 0,13412 -2441,26821 -2441,40234 0,7316 4276,13416 4276,20729 0,7317 -2445,14023 -2445,21340l0 21949c0,6096 -3055,11579 -3055,17678 0,6706 1834,13413 1834,20119 0,10365 -1834,20729 -1834,31094 0,5486 4279,9754 4279,15240 0,14023 -6117,42679 -25075,42679z"/>
  <path class="fil1" d="M1108956 662758c-180,-120 -427,-289 -621,-423 -208,-64 -452,-187 -603,-187l1224 610z"/>
  <path class="fil1" d="M1337041 1134141c-184,-120 -427,-293 -621,-423 -208,-64 -452,-187 -603,-187l1224 610z"/>
  <path class="fil1" d="M1386576 1317045c-17734,0 -35472,-3055 -53206,-3055 -7338,0 -14062,1224 -21407,1224 -6724,0 -14061,-1827 -21399,-1827 -4893,0 -7955,5486 -12235,5486 -3668,0 -6113,-3659 -6113,-6707 0,-6096 7951,-15850 10393,-21946 2451,-7320 3062,-14637 5507,-21950 3058,-9147 7951,-17074 11006,-26218 1835,-6707 0,-14023 2448,-20730 1835,-6096 8562,-9754 10393,-15850 1228,-4269 0,-9144 1838,-13413 6728,-21336 6117,-24387 10397,-45116 610,-3659 -614,-18288 6113,-17068 2205,1097 4350,2646 6110,3842 632,201 1380,575 1842,1034 0,610 1224,3048 1224,3658 0,29263 6114,40238 14676,67063 1224,4269 1834,8534 3668,12802 3673,9148 12231,9148 12231,21340 0,33528 25076,49382 25076,66456 0,4872 -3669,10975 -8562,10975zm155335 146322c-4279,0 -7338,1824 -11007,1824 -14069,0 -28744,-11582 -37306,-21336 -6727,-7317 -17124,-32318 -20793,-42073 -4893,-12192 -6113,-25604 -10396,-37796l-9176 -24384c-3665,-9148 -9782,-16461 -12841,-25612 -1834,-5482 -1834,-11578 -3669,-17064 -3058,-7320 -9782,-12199 -12234,-19512 -3055,-7927 -2441,-16464 -4890,-24387 -4279,-10975 -8562,-22557 -12841,-33532 -3058,-7317 -7951,-14023 -9786,-21340 -4893,-14629 -1220,-28042 -8562,-46944 -2444,-5485 -7951,-9754 -9782,-15240 -4893,-11585 -3673,-23777 -7342,-35362 -4279,-11582 -14065,-4269 -14065,-33532 0,-10975 -1224,-9754 -11010,-16460 -10396,610 -25682,30483 -25682,40238 0,18288 -5504,18288 -10397,34141 -2448,6096 -1224,12192 -2448,18288 -2445,7317 -4279,15244 -6727,22557 -2445,6706 -9173,10978 -11621,17685 -1834,4875 -1220,10971 -3055,15850 -2448,5486 -9786,18898 -9786,23774 0,10368 -7338,18902 -10396,28659 -4280,11579 -15286,31091 -15286,42672 0,36584 -11621,22564 -18958,45121 -3063,8533 -1838,18288 -4893,26821 -5504,13413 -26300,39018 -26300,52434 0,16460 -6117,14023 -14065,24998 -3059,4265 -4280,9144 -7948,12192 -3673,3048 -20183,9144 -24466,9144 -2166,0 -4032,-1203 -6018,-1916 -1125,-1390 -2519,-2353 -4329,-2353 -4279,0 -7951,3658 -12844,3658 -31186,0 -34858,-56695 -34858,-78648 0,-7310 610,-14019 610,-20726 0,-7316 4893,-14023 4893,-21339 0,-10972 -1831,-22557 -1831,-34138 0,-6707 -4282,-12192 -4282,-18296 0,-21339 7337,-40848 7337,-62184 0,-6099 -6727,-5485 -6727,-12192 0,-7316 2448,-15243 2448,-22560 0,-14019 -2448,-27432 -2448,-40234 0,-23781 3062,-44510 22017,-61577 8562,-7317 29354,-5490 29354,-18292 0,-4875 -2444,-10971 -7948,-10971 -6727,0 -12844,4265 -20182,4265l-54427 606c-13455,0 -25685,-4871 -39140,-4871 -7342,0 -17128,6702 -17128,14626 0,1831 2452,5489 4893,5489 1835,0 2449,-3658 5507,-3658 7952,0 25072,3051 25072,14023 0,30483 12231,16464 12231,38410 0,20119 614,39628 614,59746 0,9144 -7342,17071 -7342,26215 0,6707 7342,11586 7342,18292 0,9754 -5504,23167 -5504,29873 0,20119 -1838,40242 -1838,59750 0,6706 3673,13413 3673,20119 0,6096 -1224,12802 -1224,18898 0,11582 -1835,23171 -1835,34752 0,13413 1224,26215 1224,39628 0,9754 -9786,17678 -18961,17678 -6724,0 -12231,-4265 -18345,-4265 -13455,0 -28744,3048 -43420,3048 -14065,0 -28130,-3048 -42196,-3048 -9786,0 -23851,8533 -43423,8533 -6114,0 -14065,-2437 -14065,-9144 0,-3658 1834,-6706 1834,-10364 0,-12803 1224,-25605 1224,-38407 0,-6707 3669,-12192 3669,-18899 0,-7930 -610,-15853 -610,-23780 0,-6096 3055,-12192 3055,-18288 0,-6707 -5503,-11585 -5503,-18292 0,-10368 3669,-20725 3669,-31090 0,-7320 -1221,-15244 -1221,-22564 0,-12802 2445,-24994 2445,-37796 0,-7927 -4279,-14634 -4279,-22561 0,-5485 2444,-10971 2444,-16460 0,-6706 -3058,-12802 -3058,-19509 0,-6706 1224,-12802 1224,-19508 0,-9144 -2448,-17682 -2448,-26826 0,-14022 7951,-9754 11620,-19508 6114,-14023 8566,-20729 25686,-20729 7341,0 15289,3658 15289,-9144 0,-5486 -3055,-11586 -9172,-11586 -5503,0 -10396,2442 -15903,2442 -10397,0 -20179,-2442 -30575,-2442 -12842,0 -24462,3048 -37307,3048 -11620,0 -23241,-4265 -34858,-4265 -6117,0 -10396,6707 -10396,12803 0,3048 2445,9144 5503,9144 614,-1221 1835,-1828 2449,-1828 14061,0 22013,10361 26906,21947 3669,7316 9782,12195 9782,20729 0,8533 -5503,15240 -5503,23777 0,9754 7341,18291 7341,28046 0,18288 -4893,24994 -4893,33528 0,7927 3669,14633 3669,22560 0,10365 611,20726 611,31094 0,6706 -4280,13416 -4280,20122 0,6096 1225,12192 1225,18288 0,7920 -3673,15851 -3673,23777 0,6096 2448,12192 2448,18288l0 18288c0,4879 -2448,8541 -2448,13413 0,6706 6117,12192 6117,18898 0,7931 -4279,15858 -4279,23781 0,5486 4890,4879 4890,17681 0,15851 -9173,20116 -23852,20116 -10393,0 -19568,-7313 -29965,-7313 -14065,0 -28130,610 -42806,610 -7951,0 -14679,6096 -22630,6096 -6724,0 -12842,-3048 -19569,-3658 -7952,-611 -16510,-1221 -25072,-1221 -3059,0 -6117,1831 -9176,1831 -6113,0 -9172,-6100 -9172,-11585 0,-7924 3059,-15240 3059,-23167 0,-7924 -611,-15854 -611,-23774 0,-7317 3666,-14026 3666,-21343 0,-6096 -5504,-7317 -5504,-13413 0,-9144 6731,-20725 6731,-35358 0,-8534 -4893,-16465 -4893,-24995 0,-9754 -613,-20122 -613,-29880 0,-20726 1834,-40845 1834,-61574 0,-4879 -2445,-9144 -2445,-14023 0,-6096 3055,-10971 3055,-17067 0,-10365 -5503,-18902 -5503,-29267 0,-10364 9786,-17681 9786,-28042 0,-4879 -4893,-8537 -4893,-12802 0,-7927 11007,-24998 19569,-24998 13458,0 29965,6096 29965,-13416 0,-4876 -2445,-11582 -8559,-11582 -14065,0 -26910,6706 -40975,8534 -6727,614 -12231,6096 -19569,6096 -15899,0 -36696,-4265 -53206,-6096 -4893,-611 -9786,-2434 -15289,-2434 -6114,0 -9176,6096 -9176,11578 0,3051 2449,9758 6731,9758 4280,0 7338,-3048 11617,-3048 6117,0 12845,4875 17738,8533 12841,9755 9172,17682 11007,31704 1834,11582 6727,22557 6727,34749 0,5489 -1834,10368 -1834,15850 0,7320 3058,14637 3058,21950 0,6096 -7951,8537 -7951,15244 0,8533 4893,15850 4893,24387 0,5486 -4280,9755 -4280,15240 0,13413 4890,26825 4890,40238 0,6710 -4890,12192 -4890,18898 0,6096 6114,9758 6114,15854 0,6096 -3669,10975 -3669,17071 0,17071 -1224,34145 -1224,50606 0,4262 1835,7310 1835,11582 0,12802 -4283,56702 -22628,56702l-11620 0c-4893,0 -9172,-3055 -14676,-3055 -6117,0 -7951,9147 -7951,13412 0,7317 2448,14023 10396,14023 8565,0 15900,-4268 23851,-4268 12231,0 23852,-4262 35469,-4262 3672,0 6117,1824 9786,1824 4282,0 6727,-3658 12230,-3658l24462 0c3673,0 7952,610 11621,610 4893,0 9175,-2438 14068,-2438 5504,0 11004,2438 16507,2438 5507,0 11010,-610 16513,-610 10400,0 7952,5492 12841,5492 11011,0 22021,-1834 33028,-1834 17734,0 34858,1224 52595,1224l31186 0c10396,0 20182,-4272 30582,-4272 9169,0 17120,4882 25682,4882 7948,0 15290,-3055 22627,-3055 5507,0 10400,3055 15900,3055 7341,0 23241,-9754 26300,-9754 8558,0 17734,4872 26296,4872 9172,0 18348,-2438 28130,-2438 15900,0 31193,5486 42200,5486 5503,0 9172,-4269 14675,-4269 13455,0 42196,10975 53816,10975 3828,0 6135,-1675 7490,-4124 949,621 1912,1076 2861,1076 5503,0 10396,-3658 15900,-4268 4282,-611 8561,0 13454,-611 10397,-1217 20183,-5485 31186,-5485 9176,0 17738,4882 27524,4882 6724,0 12841,-1834 19568,-1834 6728,0 10397,5492 14066,5492 3055,0 6117,-4272 6117,-7320 0,-18291 -44034,-10364 -44034,-25604 0,-3048 1834,-5490 1834,-8538 0,-19508 4894,-36576 11621,-55481 3055,-8534 11010,-15240 11010,-24384 0,-4879 -1227,-9754 -1227,-14023 0,-5486 2448,-9144 7951,-9144 5507,0 9783,2438 15290,3048 8561,610 17123,610 25685,610 10400,0 20183,1828 29969,1828 7334,0 14675,-4265 22627,-4265 8558,0 17124,607 25682,-611 4893,-610 9786,-5489 13455,-5489l4279 1221c5507,1831 3673,15240 5507,20119 1835,6096 6114,12192 8562,18288 2445,7316 4279,15247 6728,23167 2444,8540 1224,17074 3055,25608 1224,6706 4893,12802 4893,19508 0,7317 -13452,26215 -20793,26215 -4279,0 -6728,-4261 -9783,-4261 -3062,0 -7951,6092 -7951,8530 0,9754 15899,10978 22627,10978 6724,0 13455,0 20182,-610 11007,-1224 20790,-8541 32410,-8541 20186,0 43423,9755 59933,9755 6118,0 17124,-8534 17124,-15240 0,-2438 -3055,-4872 -5503,-4872z"/>
 </g>
</svg>
