<?xml version="1.0" encoding="UTF-8"?>
<!DOCTYPE svg PUBLIC "-//W3C//DTD SVG 1.1//EN" "http://www.w3.org/Graphics/SVG/1.1/DTD/svg11.dtd">
<!-- Creator: CorelDRAW X7 -->
<svg xmlns="http://www.w3.org/2000/svg" xml:space="preserve" width="100%" height="100%" version="1.1" style="shape-rendering:geometricPrecision; text-rendering:geometricPrecision; image-rendering:optimizeQuality; fill-rule:evenodd; clip-rule:evenodd"
viewBox="0 0 2100000 2100000"
 xmlns:xlink="http://www.w3.org/1999/xlink">
 <defs>
  <style type="text/css">
   <![CDATA[
    .str0 {stroke:#00A0E3;stroke-width:2759}
    .fil1 {fill:none}
    .fil0 {fill:#FFED00}
    .fil2 {fill:#00A0E3}
    .fil3 {fill:#00A0E3;fill-rule:nonzero}
   ]]>
  </style>
 </defs>
 <g id="Слой_x0020_1">
  <metadata id="CorelCorpID_0Corel-Layer"/>
  <path class="fil0" d="M1351022 1091890l60582 -70968 -10817 70968 -49765 0zm-80490 101261l51929 -64048 72701 0 -10386 64480 496779 0 2593 -17309 -444415 0 25098 -225024 -39810 0 -192569 225024 -601500 0 -8656 17309 648236 -432z"/>
  <path class="fil1 str0" d="M1351022 1091890l60582 -70968 -10817 70968 -49765 0zm-80490 101261l51929 -64048 72701 0 -10386 64480 496779 0 2593 -17309 -444415 0 25098 -225024 -39810 0 -192569 225024 -601500 0 -8656 17309 648236 -432z"/>
  <polygon class="fil2" points="736693,1050979 834889,970069 890111,970069 772947,1060583 804158,1158060 751340,1158060 729011,1066343 728531,1066343 684595,1158060 639935,1158060 731649,970069 774387,970069 "/>
  <polygon class="fil2" points="896592,1091794 1027679,970069 1075459,970069 985185,1158059 940529,1158059 1001031,1035132 868503,1158059 820723,1158059 911956,970069 957095,970069 "/>
  <polygon class="fil2" points="1088903,1091794 1219993,970069 1266571,970069 1176057,1158059 1130921,1158059 1191421,1035132 1058892,1158059 1011835,1158059 1102828,970069 1147487,970069 "/>
  <polygon class="fil2" points="1219993,951102 1146285,1019766 1181337,951102 "/>
  <path class="fil2" d="M1538828 1081072l-21638 46734 44498 0 559 0c30960,0 56769,-46734 22273,-46734l-45692 0zm36350 -73566l-19473 40676c15000,0 30003,3 45006,0 24336,0 41859,-40676 19614,-40676l-45147 0zm-24231 -37646l93901 0c61016,0 34620,80486 -16011,96066 29427,15146 17743,91739 -78325,91739l-90441 0 90876 -187805z"/>
  <polygon class="fil2" points="1726340,970069 1770277,970069 1680003,1158060 1634627,1158060 "/>
  <path class="fil2" d="M1805825 1091457l45869 0 14281 -71403 -60150 71403zm60150 -121599l43708 0 -25533 187808 -43273 0 4761 -35918 -64045 0 -29427 35918 -47600 0 161409 -187808z"/>
  <path class="fil2" d="M1313015 969147l5248 0c2743,0 4580,-423 5514,-1267 934,-846 1487,-1794 1662,-2845 56,-174 85,-377 85,-612l0 -613c0,-1515 -389,-2785 -1180,-3804 -785,-1021 -2523,-1532 -5204,-1532l-6125 0 0 10673zm-6124 -15573l0 37971 6124 0 0 -17499 1663 0 11549 17499 7174 0 -11986 -17673 875 0c409,0 829,-29 1269,-88 438,-59 890,-174 1356,-347 1808,-527 3454,-1591 4941,-3198 1487,-1602 2232,-3745 2232,-6429 0,-2799 -612,-4899 -1837,-6296 -1224,-1403 -2565,-2393 -4024,-2977 -994,-407 -1942,-669 -2845,-785 -903,-118 -1617,-178 -2143,-178l-14348 0zm-15572 18985c0,7406 2684,13838 8048,19291 5368,5455 11840,8181 19423,8181 7465,0 13911,-2656 19335,-7961 5422,-5309 8134,-11812 8134,-19511 0,-7698 -2712,-14201 -8134,-19507 -5424,-5308 -11870,-7962 -19335,-7962 -7583,0 -14055,2710 -19423,8137 -5364,5422 -8048,11867 -8048,19332zm-4897 0c0,-9039 3206,-16693 9621,-22964 6418,-6268 13998,-9404 22747,-9404 8749,0 16333,3136 22747,9404 6415,6271 9621,13925 9621,22964 0,9040 -3206,16679 -9621,22923 -6414,6240 -13998,9361 -22747,9361 -8749,0 -16329,-3121 -22747,-9361 -6415,-6244 -9621,-13883 -9621,-22923z"/>
  <path class="fil0" d="M383861 1241622c100702,0 182837,-82135 182837,-182837 0,-100703 -82135,-182838 -182837,-182838 -100703,0 -182838,82135 -182838,182838 0,100702 82135,182837 182838,182837z"/>
  <path class="fil2" d="M383860 888072c-93904,0 -170498,76592 -170498,170496 0,94338 76594,170930 170498,170930 93470,0 170065,-76592 170065,-170930 0,-93904 -76595,-170496 -170065,-170496zm0 -20340c104722,0 190404,85683 190404,190836 0,105588 -85682,191270 -190404,191270 -104722,0 -190404,-85682 -190404,-191270 0,-105153 85682,-190836 190404,-190836z"/>
  <path class="fil2" d="M255701 1151582l7682 -7786c10197,-13648 13928,-21506 27373,-33748 12722,-14647 37928,-10888 55934,-14250 7481,-1134 16329,-2492 23336,-5344 -16326,-14100 -77436,-30887 -88155,-65640 -3233,-10482 -307,-37076 -10631,-45960l11831 5145c8884,3841 22321,7990 31934,10807 29413,5139 37058,66976 59385,86184 6962,-32652 2316,-102032 28487,-113557 11523,-5760 33613,-17287 50899,-31211l-100598 223043 -13925 0 26015 -57367c-8165,1921 -20483,18787 -26015,28688 -15367,21606 -30370,32209 -50817,25456 -6643,-2196 -26252,-4460 -31533,-4460l-1202 0z"/>
  <path class="fil2" d="M401602 1126941l27263 0 -14713 -27695 -12550 27695zm-38947 32456l90311 -200246 8354 23255c3463,18610 -2165,35052 -12982,52796l-29860 52792c25965,-17740 40677,-36782 67940,-50628 23800,-7789 37234,-3914 48486,-8244l4306 -2144 -102988 72700 29424 60150 -23800 0 -6059 -14712 -43705 0 -7357 14281 -22070 0z"/>
  <polygon class="fil3" points="1066008,1316738 1049328,1264058 1062875,1264058 1072747,1298585 1081823,1264058 1095269,1264058 1104057,1298585 1114132,1264058 1127865,1264058 1110949,1316738 1097555,1316738 1088479,1282854 1079555,1316738 "/>
  <polygon class="fil3" points="1145035,1316738 1128356,1264058 1141903,1264058 1151775,1298585 1160851,1264058 1174296,1264058 1183085,1298585 1193160,1264058 1206893,1264058 1189977,1316738 1176583,1316738 1167507,1282854 1158583,1316738 "/>
  <polygon class="fil3" points="1224063,1316738 1207384,1264058 1220931,1264058 1230803,1298585 1239879,1264058 1253324,1264058 1262113,1298585 1272188,1264058 1285921,1264058 1269005,1316738 1255611,1316738 1246534,1282854 1237611,1316738 "/>
  <polygon class="fil3" points="1289495,1302803 1303431,1302803 1303431,1316739 1289495,1316739 "/>
  <polygon class="fil3" points="1317214,1316738 1317214,1244009 1331167,1244009 1331167,1282600 1347474,1264058 1364644,1264058 1346644,1283294 1365931,1316738 1350911,1316738 1337653,1293082 1331167,1299872 1331167,1316738 "/>
  <path class="fil3" d="M1374229 1264057l13936 0 0 52679 -13936 0 0 -52679zm0 -20047l13936 0 0 12904 -13936 0 0 -12904z"/>
  <path class="fil3" d="M1395852 1264058l14834 0 12598 37405 12311 -37405 14428 0 -18593 50698 -3336 9178c-1219,3065 -2388,5419 -3489,7044 -1118,1626 -2387,2930 -3826,3946 -1440,999 -3201,1794 -5300,2354 -2100,558 -4471,846 -7130,846 -2675,0 -5300,-288 -7890,-846l-1236 -10923c2184,441 4148,644 5909,644 3235,0 5639,-949 7197,-2845 1541,-1896 2743,-4318 3573,-7264l-20050 -52832z"/>
  <path class="fil3" d="M1488020 1291439c-1777,593 -4605,1304 -8483,2134 -3861,829 -6384,1642 -7586,2421 -1812,1304 -2727,2930 -2727,4911 0,1965 728,3641 2185,5063 1456,1422 3302,2134 5554,2134 2523,0 4911,-830 7196,-2472 1694,-1254 2795,-2795 3320,-4624 372,-1184 541,-3454 541,-6790l0 -2777zm-18643 -11311l-12650 -2286c1423,-5097 3861,-8856 7332,-11312 3489,-2438 8636,-3674 15478,-3674 6231,0 10854,745 13902,2218 3031,1473 5182,3336 6418,5605 1236,2269 1862,6418 1862,12480l-152 16273c0,4622 220,8043 677,10245 441,2184 1287,4554 2507,7061l-13801 0c-355,-932 -813,-2304 -1338,-4115 -220,-830 -389,-1372 -491,-1643 -2387,2320 -4927,4047 -7637,5216 -2709,1151 -5605,1727 -8687,1727 -5418,0 -9702,-1473 -12818,-4403 -3133,-2946 -4691,-6671 -4691,-11176 0,-2963 711,-5622 2134,-7958 1422,-2337 3421,-4115 5977,-5352 2557,-1236 6266,-2319 11092,-3251 6502,-1219 11024,-2370 13529,-3420l0 -1389c0,-2692 -660,-4588 -1981,-5740 -1320,-1135 -3810,-1710 -7484,-1710 -2489,0 -4420,491 -5808,1473 -1389,965 -2507,2676 -3370,5131z"/>
  <path class="fil3" d="M1529948 1316738l-21235 -52680 14631 0 9922 26890 2879 8975c762,-2286 1253,-3793 1439,-4521 474,-1491 965,-2980 1490,-4454l10025 -26890 14342 0 -20946 52680 -12547 0z"/>
  <path class="fil3" d="M1571976 1264057l13936 0 0 52679 -13936 0 0 -52679zm0 -20047l13936 0 0 12904 -13936 0 0 -12904z"/>
  <path class="fil3" d="M1629261 1291439c-1777,593 -4605,1304 -8483,2134 -3861,829 -6384,1642 -7586,2421 -1812,1304 -2727,2930 -2727,4911 0,1965 729,3641 2185,5063 1456,1422 3302,2134 5554,2134 2523,0 4911,-830 7196,-2472 1694,-1254 2795,-2795 3320,-4624 372,-1184 541,-3454 541,-6790l0 -2777zm-18643 -11311l-12650 -2286c1423,-5097 3861,-8856 7333,-11312 3488,-2438 8636,-3674 15477,-3674 6231,0 10854,745 13902,2218 3032,1473 5182,3336 6418,5605 1236,2269 1862,6418 1862,12480l-152 16273c0,4622 220,8043 677,10245 441,2184 1287,4554 2507,7061l-13801 0c-355,-932 -813,-2304 -1338,-4115 -220,-830 -389,-1372 -491,-1643 -2387,2320 -4927,4047 -7637,5216 -2709,1151 -5605,1727 -8686,1727 -5419,0 -9703,-1473 -12819,-4403 -3132,-2946 -4691,-6671 -4691,-11176 0,-2963 711,-5622 2134,-7958 1422,-2337 3421,-4115 5977,-5352 2557,-1236 6266,-2319 11092,-3251 6502,-1219 11024,-2370 13529,-3420l0 -1389c0,-2692 -660,-4588 -1981,-5740 -1320,-1135 -3810,-1710 -7484,-1710 -2489,0 -4420,491 -5808,1473 -1389,965 -2507,2676 -3370,5131z"/>
  <polygon class="fil3" points="1656711,1302803 1670647,1302803 1670647,1316739 1656711,1316739 "/>
  <path class="fil3" d="M1730879 1279637l-13751 2473c-456,-2744 -1507,-4810 -3149,-6198 -1643,-1389 -3759,-2083 -6367,-2083 -3488,0 -6248,1202 -8314,3589 -2066,2405 -3099,6419 -3099,12040 0,6248 1050,10668 3149,13242 2100,2574 4912,3861 8450,3861 2659,0 4810,-745 6502,-2252 1694,-1507 2880,-4098 3574,-7755l13698 2320c-1422,6281 -4165,11040 -8195,14240 -4030,3217 -9432,4809 -16222,4809 -7705,0 -13851,-2421 -18423,-7281 -4589,-4860 -6876,-11600 -6876,-20201 0,-8687 2304,-15461 6892,-20303 4606,-4860 10820,-7282 18661,-7282 6418,0 11515,1389 15307,4149 3776,2760 6503,6977 8163,12632z"/>
  <path class="fil3" d="M1752502 1290390c0,5232 1237,9228 3726,12005 2472,2778 5537,4166 9177,4166 3641,0 6689,-1388 9144,-4166 2473,-2777 3709,-6807 3709,-12107 0,-5148 -1236,-9127 -3709,-11904 -2455,-2777 -5503,-4166 -9144,-4166 -3640,0 -6705,1389 -9177,4166 -2489,2777 -3726,6790 -3726,12006zm-14291 -745c0,-4623 1151,-9111 3420,-13446 2286,-4317 5521,-7637 9703,-9905 4182,-2287 8856,-3438 14021,-3438 7958,0 14495,2591 19592,7773 5097,5181 7637,11717 7637,19625 0,7959 -2574,14563 -7705,19812 -5148,5249 -11616,7857 -19423,7857 -4843,0 -9432,-1084 -13817,-3268 -4386,-2185 -7722,-5385 -10008,-9601 -2269,-4216 -3420,-9348 -3420,-15409z"/>
  <path class="fil3" d="M1802456 1264058l12852 0 0 7180c4589,-5588 10076,-8383 16426,-8383 3370,0 6299,695 8771,2083 2489,1389 4521,3488 6113,6300 2303,-2812 4809,-4911 7485,-6300 2675,-1388 5537,-2083 8585,-2083 3860,0 7146,796 9821,2371 2675,1558 4674,3878 5995,6909 964,2252 1439,5893 1439,10922l0 33681 -13936 0 0 -30108c0,-5232 -475,-8602 -1439,-10126 -1288,-1982 -3268,-2981 -5944,-2981 -1964,0 -3793,593 -5520,1795 -1711,1186 -2947,2930 -3709,5233 -762,2303 -1151,5927 -1151,10888l0 25299 -13936 0 0 -28872c0,-5131 -255,-8432 -745,-9923 -491,-1490 -1271,-2591 -2303,-3319 -1050,-728 -2456,-1101 -4251,-1101 -2150,0 -4081,576 -5791,1745 -1727,1151 -2963,2827 -3708,5012 -746,2184 -1118,5791 -1118,10854l0 25604 -13936 0 0 -52680z"/>
 </g>
</svg>
