<?xml version="1.0" encoding="UTF-8"?>
<!DOCTYPE svg PUBLIC "-//W3C//DTD SVG 1.1//EN" "http://www.w3.org/Graphics/SVG/1.1/DTD/svg11.dtd">
<!-- Creator: CorelDRAW X7 -->
<svg xmlns="http://www.w3.org/2000/svg" xml:space="preserve" width="100%" height="100%" version="1.1" style="shape-rendering:geometricPrecision; text-rendering:geometricPrecision; image-rendering:optimizeQuality; fill-rule:evenodd; clip-rule:evenodd"
viewBox="0 0 2100000 2100000"
 xmlns:xlink="http://www.w3.org/1999/xlink">
 <defs>
  <style type="text/css">
   <![CDATA[
    .fil0 {fill:#C5C6C6}
    .fil1 {fill:#C5C6C6;fill-rule:nonzero}
   ]]>
  </style>
 </defs>
 <g id="Слой_x0020_1">
  <metadata id="CorelCorpID_0Corel-Layer"/>
  <g id="_624697664">
   <g>
    <polygon class="fil0" points="279608,328026 611338,328026 611338,783798 279608,783798 "/>
    <path class="fil0" d="M942290 328026l290835 0 206854 0c35947,0 352245,29542 364791,383062l0 72710 -266306 0c-7785,782 -13992,834 -18223,0l-1568 0 -4738 0 0 -4852c-862,-29196 -18000,-180681 -280810,-180681l0 185533 -290835 0 0 -455772z"/>
    <path class="fil0" d="M942290 1335993l290835 0 41392 0 165462 0c35947,0 352245,-29542 364791,-383061l0 -72710 -266306 0c-7785,-782 -13992,-834 -18223,0l-1568 0 -4738 0 0 4851c-862,29196 -18000,180681 -280810,180681l0 -185532 -290835 0 0 185650 -330952 0 0 -185674 -331730 0 0 310351c13632,107398 82428,133300 149964,145420 60590,0 121176,0 181766,0l0 24 330952 0zm-355533 -189740l85484 0 0 122048 -24719 0 0 -101423 -36644 0 0 52104c0,14916 -512,25339 -1507,31224 -995,5908 -3411,10537 -7272,13835 -3867,3293 -9889,4942 -18100,4942 -2895,0 -8121,-284 -15735,-825l0 -19118 5510 86c5141,0 8638,-683 10396,-2075 1791,-1393 2672,-4800 2672,-10230l-85 -20966 0 -69602zm109970 122048l0 -122048 24718 0 0 122048 -24718 0zm48209 0l0 -122048 90345 0 0 20625 -65626 0 0 27102 61021 0 0 20629 -61021 0 0 33067 68010 0 0 20625 -92729 0zm114036 -122048l23012 0 0 81253 49432 -81253 24548 0 0 122048 -23013 0 0 -79945 -49432 79945 -24547 0 0 -122048zm63068 -35284l11423 0c-654,7529 -3326,13466 -7955,17758 -4634,4288 -10628,6449 -17986,6449 -7386,0 -13380,-2161 -18009,-6449 -4629,-4292 -7301,-10229 -7955,-17758l11418 0c398,3923 1763,6903 4151,8922 2383,2018 5852,3009 10395,3009 4520,0 7984,-991 10372,-3009 2388,-2019 3748,-4999 4146,-8922zm56226 124777l0 -23354 46021 0 0 23354 -46021 0zm69545 -89493l84205 0 0 101423 10736 0 0 47215 -20625 0 0 -26590 -76533 0 0 26590 -20625 0 0 -47215 10400 0c5055,-10429 8405,-22529 10026,-36279 1620,-13779 2416,-31196 2416,-52247l0 -12897zm23524 20625c0,36933 -3411,63864 -10229,80798l46191 0 0 -80798 -35962 0zm88010 101423l0 -122048 90345 0 0 20625 -65627 0 0 27102 61021 0 0 20629 -61021 0 0 33067 68010 0 0 20625 -92728 0zm113694 0l0 -122048 24718 0 0 48068 48068 0 0 -48068 24718 0 0 122048 -24718 0 0 -53351 -48068 0 0 53351 -24718 0zm150542 0l0 -101423 -36138 0 0 -20625 96822 0 0 20625 -35966 0 0 101423 -24718 0z"/>
   </g>
   <path class="fil1" d="M351527 1538630l23401 7187c-3596,13177 -9585,22951 -17943,29362 -8358,6377 -18942,9580 -31787,9580 -15906,0 -28973,-5429 -39222,-16294 -10224,-10864 -15351,-25713 -15351,-44575 0,-19919 5155,-35408 15432,-46438 10281,-11030 23823,-16550 40591,-16550 14654,0 26547,4350 35687,13011 5458,5126 9528,12480 12257,22093l-23904 5681c-1421,-6183 -4373,-11087 -8860,-14678 -4510,-3596 -9969,-5378 -16379,-5378 -8884,0 -16100,3175 -21615,9557 -5544,6349 -8306,16659 -8306,30920 0,15100 2734,25879 8164,32285 5463,6439 12537,9642 21255,9642 6439,0 11982,-2033 16606,-6131 4625,-4094 7965,-10499 9974,-19274zm66915 44125l0 -99451 -35435 0 0 -20227 94941 0 0 20227 -35270 0 0 99451 -24236 0zm66025 -59116c0,-12201 1838,-22454 5487,-30755 2705,-6098 6434,-11589 11144,-16436 4709,-4847 9864,-8439 15460,-10808 7467,-3151 16076,-4738 25827,-4738 17659,0 31759,5492 42372,16436 10585,10978 15877,26216 15877,45746 0,19360 -5264,34517 -15768,45433 -10499,10950 -24571,16413 -42149,16413 -17801,0 -31982,-5435 -42482,-16327 -10504,-10865 -15768,-25851 -15768,-44964zm24903 -806c0,13565 3151,23847 9419,30868 6269,6989 14234,10500 23875,10500 9666,0 17579,-3483 23790,-10419 6183,-6965 9277,-17384 9277,-31285 0,-13731 -3008,-23984 -9054,-30727 -6017,-6770 -14015,-10139 -24013,-10139 -9973,0 -18028,3426 -24126,10253 -6102,6851 -9168,17157 -9168,30949zm109790 59922l0 -119678 36298 0 21449 81622 21203 -81622 36384 0 0 119678 -22402 0 -80 -94216 -23596 94216 -23292 0 -23482 -94216 -85 94216 -22397 0zm247383 0l-26107 0 -10333 -27244 -48001 0 -9946 27244 -25628 0 46466 -119678 25605 0 47944 119678zm-44296 -47470l-16631 -44296 -16156 44296 32787 0zm75776 47470l0 -99451 -35436 0 0 -20227 94941 0 0 20227 -35270 0 0 99451 -24235 0zm66024 -59116c0,-12201 1839,-22454 5487,-30755 2705,-6098 6434,-11589 11144,-16436 4709,-4847 9864,-8439 15460,-10808 7467,-3151 16076,-4738 25827,-4738 17659,0 31759,5492 42372,16436 10585,10978 15878,26216 15878,45746 0,19360 -5264,34517 -15769,45433 -10499,10950 -24571,16413 -42149,16413 -17801,0 -31982,-5435 -42482,-16327 -10504,-10865 -15768,-25851 -15768,-44964zm24903 -806c0,13565 3151,23847 9420,30868 6268,6989 14233,10500 23875,10500 9665,0 17578,-3483 23789,-10419 6183,-6965 9277,-17384 9277,-31285 0,-13731 -3008,-23984 -9054,-30727 -6017,-6770 -14015,-10139 -24012,-10139 -9974,0 -18029,3426 -24127,10253 -6102,6851 -9168,17157 -9168,30949zm114580 -59756l83826 0 0 119678 -24235 0 0 -99451 -35938 0 0 51090c0,14626 -502,24851 -1479,30617 -971,5795 -3340,10334 -7130,13565 -3791,3232 -9694,4847 -17744,4847 -2843,0 -7970,-279 -15437,-805l0 -18749 5406 81c5042,0 8472,-668 10197,-2033 1753,-1364 2620,-4709 2620,-10030l-86 -20559 0 -68251zm103659 60562c0,-12201 1839,-22454 5487,-30755 2705,-6098 6434,-11589 11144,-16436 4709,-4847 9864,-8439 15460,-10808 7467,-3151 16076,-4738 25827,-4738 17659,0 31759,5492 42373,16436 10584,10978 15877,26216 15877,45746 0,19360 -5264,34517 -15769,45433 -10499,10950 -24571,16413 -42149,16413 -17801,0 -31982,-5435 -42481,-16327 -10505,-10865 -15769,-25851 -15769,-44964zm24903 -806c0,13565 3151,23847 9420,30868 6268,6989 14233,10500 23875,10500 9665,0 17578,-3483 23789,-10419 6184,-6965 9278,-17384 9278,-31285 0,-13731 -3009,-23984 -9055,-30727 -6017,-6770 -14015,-10139 -24012,-10139 -9974,0 -18029,3426 -24126,10253 -6103,6851 -9169,17157 -9169,30949zm111292 -59756l81068 0 0 20227 -56828 0 0 99451 -24240 0 0 -119678zm92743 119678l0 -119678 24235 0 0 119678 -24235 0zm45267 -119678l24235 0 0 28556c0,9249 337,15375 1033,18384 668,3037 2701,5657 6074,7884 3341,2231 8301,3345 14821,3345 5150,0 9746,-559 13788,-1673 4013,-1113 7495,-2757 10419,-4932l0 -51564 24235 0 0 119678 -24235 0 0 -48224c-4904,2175 -9723,3819 -14461,4933 -4733,1113 -9386,1672 -13953,1672 -11926,0 -21900,-2814 -29921,-8443 -8022,-5624 -12035,-15375 -12035,-29248l0 -40368zm119456 119678l0 -119678 24240 0 0 47134 47134 0 0 -47134 24235 0 0 119678 -24235 0 0 -52317 -47134 0 0 52317 -24240 0zm228525 0l-26107 0 -10333 -27244 -48001 0 -9946 27244 -25628 0 46466 -119678 25605 0 47944 119678zm-44296 -47470l-16630 -44296 -16157 44296 32787 0z"/>
   <path class="fil1" d="M286625 1651627l24235 0 0 50982c5378,-559 9026,-1924 10922,-4179 1895,-2232 4847,-8443 8803,-18640 4984,-12954 10030,-21032 15072,-24178 5012,-3151 13062,-4738 24206,-4738 559,0 1730,-28 3511,-81l0 17882 -3425 -81c-4961,0 -8581,611 -10865,1839 -2283,1222 -4122,3089 -5543,5600 -1422,2506 -3511,7657 -6269,15460 -1478,4151 -3065,7605 -4790,10391 -1701,2786 -4738,5406 -9083,7855 5378,1502 9803,4596 13314,9221 3511,4624 7358,11144 11533,19587l16298 32759 -28414 0 -14346 -30812c-223,-445 -697,-1279 -1393,-2535 -280,-417 -1284,-2312 -3009,-5629 -3066,-5903 -5572,-9580 -7524,-11058 -1976,-1478 -4956,-2227 -8998,-2284l0 52318 -24235 0 0 -119679zm259351 0l83826 0 0 119679 -24235 0 0 -99452 -35938 0 0 51090c0,14627 -503,24851 -1479,30618 -971,5794 -3340,10333 -7130,13565 -3791,3231 -9694,4847 -17744,4847 -2843,0 -7970,-280 -15437,-806l0 -18748 5406 80c5042,0 8472,-668 10197,-2032 1753,-1365 2620,-4710 2620,-10031l-86 -20558 0 -68252zm256902 119679l0 -119679 24235 0 0 119679 -24235 0zm196335 0l0 -119679 24240 0 0 47134 47134 0 0 -47134 24235 0 0 119679 -24235 0 0 -52318 -47134 0 0 52318 -24240 0zm268941 0l0 -119679 24235 0 0 119679 -24235 0zm196671 -119679l24235 0 0 50982c5378,-559 9026,-1924 10921,-4179 1896,-2232 4848,-8443 8804,-18640 4984,-12954 10030,-21032 15071,-24178 5013,-3151 13063,-4738 24207,-4738 559,0 1730,-28 3511,-81l0 17882 -3426 -81c-4960,0 -8580,611 -10864,1839 -2284,1222 -4122,3089 -5543,5600 -1422,2506 -3511,7657 -6269,15460 -1478,4151 -3065,7605 -4790,10391 -1701,2786 -4738,5406 -9083,7855 5378,1502 9803,4596 13314,9221 3511,4624 7358,11144 11532,19587l16299 32759 -28414 0 -14346 -30812c-223,-445 -697,-1279 -1393,-2535 -280,-417 -1284,-2312 -3009,-5629 -3066,-5903 -5572,-9580 -7524,-11058 -1976,-1478 -4956,-2227 -8998,-2284l0 52318 -24235 0 0 -119679zm358556 119679l-26106 0 -10334 -27244 -48001 0 -9945 27244 -25628 0 46466 -119679 25604 0 47944 119679zm-44296 -47471l-16630 -44296 -16157 44296 32787 0z"/>
  </g>
 </g>
</svg>
