<?xml version="1.0" encoding="UTF-8"?>
<!DOCTYPE svg PUBLIC "-//W3C//DTD SVG 1.1//EN" "http://www.w3.org/Graphics/SVG/1.1/DTD/svg11.dtd">
<!-- Creator: CorelDRAW X7 -->
<svg xmlns="http://www.w3.org/2000/svg" xml:space="preserve" width="100%" height="100%" version="1.1" style="shape-rendering:geometricPrecision; text-rendering:geometricPrecision; image-rendering:optimizeQuality; fill-rule:evenodd; clip-rule:evenodd"
viewBox="0 0 800000 800000"
 xmlns:xlink="http://www.w3.org/1999/xlink">
 <defs>
  <style type="text/css">
   <![CDATA[
    .fil1 {fill:#FEFEFE;fill-rule:nonzero}
    .fil0 {fill:#6EB961;fill-rule:nonzero}
    .fil2 {fill:#007A41;fill-rule:nonzero}
   ]]>
  </style>
 </defs>
 <g id="Слой_x0020_1">
  <metadata id="CorelCorpID_0Corel-Layer"/>
  <path class="fil0" d="M554168 347944c-1460,-1944 -2428,-3076 -2428,-3076 0,0 882,1176 2180,3332 86,-88 166,-174 248,-256z"/>
  <path class="fil0" d="M530706 369744c-474,-180 -836,-276 -1246,-402 -58,160 -96,316 -154,476 336,168 694,370 1066,584 110,-220 222,-440 334,-658z"/>
  <path class="fil0" d="M550128 349842c0,0 -350,1260 -712,3340 138,-158 286,-332 422,-486 120,-1752 290,-2854 290,-2854z"/>
  <path class="fil0" d="M532734 365998c-428,-722 -790,-1302 -1096,-1780 -48,100 -102,196 -146,296 234,578 512,1358 810,2262 144,-260 286,-520 432,-778z"/>
  <path class="fil0" d="M560142 352570c258,-164 502,-318 756,-476 232,-882 464,-1758 682,-2502 236,510 466,1094 700,1632 344,-216 642,-396 966,-594 -440,-732 -892,-1514 -1316,-2198 482,-1582 840,-2640 840,-2640 0,0 -396,870 -1006,2386 -3244,-5188 -5848,-8684 -5848,-8684 0,0 2698,3798 5464,9680 -372,956 -796,2124 -1238,3396z"/>
  <path class="fil0" d="M528934 373332c-218,-152 -428,-302 -620,-430 -64,212 -136,426 -194,640 150,146 332,342 494,504 108,-236 210,-476 320,-714z"/>
  <path class="fil0" d="M558214 353814c-1384,-2152 -2662,-3996 -3720,-5424 -86,124 -164,232 -252,364 892,1510 1934,3406 3016,5694 320,-210 648,-432 956,-634z"/>
  <path class="fil0" d="M549878 359572c-100,-1250 -146,-2436 -146,-3528 -282,482 -544,924 -842,1444 -70,802 -156,1546 -196,2450 -350,-174 -628,-282 -942,-424 -152,270 -308,550 -466,832 246,182 500,384 756,588 614,-458 1232,-924 1836,-1362z"/>
  <path class="fil0" d="M545034 358458c-696,-210 -1120,-292 -1120,-292 0,0 388,212 926,530 68,-86 126,-156 194,-238z"/>
  <path class="fil0" d="M537364 368700c-104,-22 -206,-48 -308,-64 -72,240 -180,488 -248,728 22,6 44,14 64,22 170,-242 324,-446 492,-686z"/>
  <path class="fil0" d="M540164 364814c-482,-744 -856,-1306 -1192,-1798 -42,108 -66,216 -112,324 254,520 566,1222 916,2014 126,-174 262,-370 388,-540z"/>
  <polygon class="fil0" points="526896,406300 400194,364116 400194,392336 526896,419254 "/>
  <polygon class="fil0" points="400194,443480 526896,443948 526896,428630 400194,415256 "/>
  <path class="fil0" d="M226750 446094l35842 68 0 4658 -35842 0 0 -4726zm-69992 -50592c70,72 142,72 214,72 492,566 986,1058 1478,1624 2190,2396 3176,4726 3740,6842 -1692,-3034 -3526,-5924 -5432,-8538zm13406 -6984c-352,-1270 -564,-2540 -778,-3668 426,634 918,1270 1344,2044 280,494 492,990 774,1484l0 706c-494,-212 -918,-426 -1340,-566zm5926 -2256c706,2116 1200,4302 1482,6350 0,-72 -72,-72 -140,-142 -1270,-1976 -2612,-3740 -4024,-5362l0 -214c-352,-3242 -422,-5996 -352,-8182 916,1904 1976,4374 3034,7550zm-2892 -10444c1552,2118 3528,5012 5574,8680 0,1058 0,2116 72,3174 -1976,-3740 -4094,-7196 -5788,-9666 0,-848 70,-1554 142,-2188zm7478 -6914c706,1976 1764,5222 2470,9666 -846,-916 -1624,-1834 -2470,-2680 -140,-2470 -140,-4870 0,-6986zm140 -2824c72,72 212,142 284,214 1480,2894 3036,6350 4374,10512 778,2260 1270,4444 1624,6562 -426,-634 -918,-1128 -1342,-1692 -1620,-6350 -3880,-11008 -5080,-13266 0,-846 72,-1552 140,-2330zm8538 9386c2046,4304 3036,8114 3388,11148 -72,-140 -72,-352 -140,-494 -2612,-6914 -6210,-13264 -9456,-18204 2328,1906 4658,4446 6208,7550zm13618 -11714c1340,1270 2682,2822 3810,4730 636,1126 1198,2186 1622,3174 -70,846 -212,1692 -280,2470 -72,846 -144,1552 -144,2326 -1058,-1764 -2186,-3736 -3244,-6350 -846,-2044 -1410,-4232 -1764,-6350zm9100 1764c72,-1552 214,-3032 426,-4442 140,562 352,986 492,1552 1132,3314 1764,6630 2190,9736 -990,-1202 -1976,-2328 -3108,-3458 0,-1128 -68,-2186 0,-3388zm2118 -14320c1058,2610 2116,5572 3174,8888 1200,4022 1764,7760 1976,11148 -1692,-5152 -4020,-9806 -6420,-13758 424,-2470 848,-4586 1270,-6278zm-33230 28222c280,422 562,846 846,1340 706,1130 1270,2256 1834,3456 70,1342 70,2680 -70,3952 -424,-706 -918,-1340 -1342,-1976 -562,-2118 -988,-4374 -1268,-6772zm-10514 10230c284,210 636,494 990,706 0,846 0,1620 68,2470 -422,-1058 -774,-2118 -1058,-3176zm92146 37816l0 8398 -35842 -4446 0 -11854 35842 7902zm4868 -78810c140,140 352,354 492,566 5576,6210 8468,12416 10022,17708 -352,-706 -638,-1412 -990,-2046 -2962,-5926 -6278,-11360 -9524,-16228zm23566 -15662c-424,-1694 -776,-3388 -1130,-5012 494,706 918,1344 1412,2118 778,1270 1482,2542 2188,3880 0,0 0,0 0,72 -918,-424 -1696,-706 -2470,-1058zm5502 -20040c1908,3952 4164,9244 6422,16088 1340,3880 2044,7760 2398,11430 0,0 -70,-70 -142,-70 -2470,-3528 -5220,-6986 -8042,-10302 -492,-5008 -706,-9526 -706,-13334 0,-1342 0,-2610 70,-3812zm144 -3736c3030,3736 6770,9028 10722,16014 0,1200 70,2398 142,3668 -3810,-7054 -7902,-13404 -10936,-17850 0,-706 72,-1270 72,-1832zm19402 4374c-1624,-1836 -3248,-3600 -4870,-5292 -354,-4800 -422,-9104 -354,-12842 1696,3950 3882,10020 5224,18134zm-4798 -26038c2962,5436 6138,12492 8888,21026 1622,4728 2682,9384 3386,13900 -1058,-1340 -2044,-2610 -3102,-3880 -3176,-11784 -7056,-19756 -9598,-24130 142,-2538 214,-4940 426,-6916zm16792 20108c6066,9670 7762,18488 7972,24980 -564,-1624 -1200,-3248 -1834,-4870 -5364,-14180 -11926,-26034 -17780,-35136 3596,3810 7762,8820 11642,15026zm26246 -23070c2610,2540 5152,5504 7268,9104 1268,2116 2326,4090 3176,5924 -214,1692 -426,3388 -566,5080 -140,1552 -140,3106 -284,4586 -2044,-3316 -4090,-7336 -6206,-12348 -1624,-4020 -2682,-8254 -3388,-12346zm17920 -6066c494,1268 990,2470 1484,3880 2328,6560 3668,13052 4444,19118 -1976,-2396 -4092,-4798 -6350,-7124 -142,-2116 -284,-4164 -212,-6422 140,-3314 354,-6490 634,-9452zm3316 -19122c1908,4586 3952,9950 5856,16156 2542,8044 3740,15806 4234,22862 -3808,-9598 -8468,-18344 -12700,-25540 778,-5576 1764,-10232 2610,-13478zm-63782 55386c566,846 1130,1624 1694,2610 1410,2258 2612,4518 3670,6702 140,3106 0,5998 -284,8820 -634,-1058 -1340,-1976 -1976,-2962 -1340,-4728 -2398,-9806 -3104,-15170zm-19896 21238c494,422 988,774 1552,1200l0 3526c-564,-1550 -1130,-3174 -1552,-4726zm246816 42700c2096,3658 2784,6648 2852,8966 -276,-428 -548,-856 -838,-1290 -542,-2828 -1328,-5462 -2194,-7946 56,100 124,172 180,270zm15326 -11148c676,1142 1198,2172 1676,3162 -108,846 -250,1680 -326,2530 -68,784 -102,1528 -146,2286 -1064,-1724 -2140,-3704 -3216,-6310 -862,-2086 -1406,-4268 -1756,-6384 1334,1310 2668,2858 3768,4716zm5324 -8310c320,808 640,1602 946,2466 1200,3402 1896,6748 2288,9884 -1116,-1354 -2316,-2720 -3644,-4052 -80,-1246 -142,-2504 -90,-3834 54,-1408 252,-2932 500,-4464zm14672 91552l0 -5644 65070 234 0 -6808 -65070 -8048 0 -11878 65070 14372 0 -6820 -65070 -22174 0 -29242 -4 4c-590,-2090 -1254,-4270 -2078,-6562 -2170,-6046 -5388,-12092 -8384,-17128 -324,244 -644,478 -990,740 830,1948 1644,4004 2346,6272 1458,4716 1960,9184 2040,13196 -82,-236 -150,-460 -234,-696 -1918,-5342 -4424,-10194 -6838,-14228 218,-1038 458,-2030 698,-3004 -314,248 -642,512 -968,774 -132,398 -254,734 -388,1156 -128,-204 -238,-356 -362,-554 -358,292 -686,542 -1052,848 260,574 524,1132 782,1748 -732,2458 -1416,5158 -2004,8014 -1924,-1690 -3654,-2908 -5250,-3910 -866,834 -1720,1676 -2588,2570 60,2580 236,5328 772,8390 212,1224 466,2384 728,3526 -1398,-1202 -2876,-2398 -4432,-3478 -582,-406 -1116,-698 -1670,-1030 -262,-478 -490,-846 -746,-1296 -516,664 -1080,1330 -1540,1992 296,220 568,374 872,622 228,642 454,1248 696,1952 932,2692 1496,5322 1912,7872 -202,-318 -378,-618 -588,-940 -1642,-2520 -3362,-4476 -5068,-6096 -102,170 -232,344 -328,514 -1454,3526 -2546,6976 -3474,10358l1034 598 0 63784 -136728 0 0 -143160 68 0c-1126,-4020 -2468,-8254 -4022,-12628 -5150,-14324 -13264,-28574 -19754,-38946 212,-636 352,-1198 424,-1552 -140,354 -284,774 -494,1412 -4516,-7128 -8256,-12420 -9876,-14536 1410,2258 4866,8186 8746,17426 -986,2894 -2396,6844 -3808,11574 -4518,-7340 -8326,-12560 -9950,-14748 1412,2258 4798,7902 8960,18132 -1410,4798 -2822,10162 -3948,15666 -4800,-4166 -9104,-7200 -12772,-9244 -1060,-10302 72,-19050 280,-20532 -352,1128 -2468,7904 -2822,19192 -4796,-2328 -8042,-3106 -8888,-3246 846,492 4586,2468 8820,6068 -72,6066 352,13194 1764,21376 564,3034 1126,5928 1832,8680 -2046,-2752 -4234,-5432 -6560,-7974 -2754,-3032 -5434,-5432 -7972,-7478 -7622,-13124 -14252,-20038 -15382,-21096 1058,1270 5504,6986 10302,17216 -6494,-4304 -11360,-5716 -12632,-5996 1552,846 8186,4444 14818,11076 1342,3034 2610,6278 3812,10018 1692,5152 2890,10162 3668,15028 -354,-564 -706,-1058 -1058,-1692 -10162,-15028 -22156,-25824 -29634,-31820 -918,-1340 -1764,-2542 -2542,-3742 354,-3034 778,-5290 1058,-6490 -352,1130 -846,3176 -1478,5926 -3954,-5572 -7056,-9312 -8468,-10864 1268,1692 4374,5856 8042,12488 -1552,-1128 -2750,-1906 -3388,-2330 638,566 1836,1556 3388,2894 -352,1624 -706,3528 -1058,5574 -352,-634 -706,-1058 -986,-1412 280,354 562,990 986,1764 -634,3600 -1198,7692 -1624,12278 -7266,-7196 -13616,-12346 -16648,-14676 3032,2682 9382,8680 16368,18344 -212,3458 -426,7196 -426,11078 -4020,-5080 -7688,-8960 -10510,-11854 212,-2610 492,-4444 564,-5220 -212,704 -564,2468 -990,4866 -2822,-2822 -4866,-4514 -5712,-5220 706,778 2750,2822 5572,6210 -140,422 -212,918 -280,1480 -1836,-2610 -3248,-4514 -3880,-5292 562,918 1904,3106 3668,6562 -706,4094 -1412,9314 -1836,15030 -1692,-1836 -3316,-3528 -5008,-5220 -566,-5436 -424,-9172 -424,-9172 0,0 -566,2890 -706,8042 -7196,-7196 -13334,-12276 -14816,-13406 1482,1340 7620,7268 14816,17920 0,2188 212,4658 492,7408 -5856,-2044 -9524,-2398 -9524,-2398 0,0 4306,918 9738,4162 564,4306 1410,9104 2750,14396 -562,-918 -1128,-1836 -1764,-2754 -11146,-16368 -29208,-31466 -32384,-34076 1976,1764 9950,9240 18344,22998 1976,3318 3600,6636 4940,9810 -12982,-10302 -23990,-15946 -27658,-17638 3528,2116 13828,8394 23776,19542 2964,3316 5222,6632 6986,9806 -2964,-2398 -5786,-4302 -8468,-5924 -7760,-9526 -14532,-15806 -16790,-17712 1764,1764 6138,6422 11358,14184 -2610,-1976 -5150,-3812 -7478,-5364 -7054,-9384 -13404,-16086 -16440,-18910 2330,2614 6492,7762 11150,15524 -6350,-3950 -10656,-5998 -10656,-5998 0,0 5152,2612 11854,8044 706,1272 1412,2540 2186,3950 -2326,-562 -3738,-634 -3738,-634 0,0 1692,494 4234,1624 846,1622 1620,3244 2470,5008 2326,5082 4020,10160 5360,15028 -8042,-14464 -16582,-24976 -20674,-29562 3034,3882 8468,11712 13196,23496 916,2398 1692,4796 2326,7196 -12840,-18132 -24340,-29212 -27726,-32244 1552,1480 4796,4868 8676,10160l72 0c1270,1692 2610,3528 3952,5572 1904,2822 3882,5928 5786,9456 -846,-636 -1696,-1342 -2470,-1904l0 -72c-212,-70 -352,-212 -494,-352 -1764,-1272 -3458,-2470 -5010,-3600 -140,-68 -280,-210 -352,-280 -1764,-1200 -3388,-2258 -4868,-3248 -212,-208 -496,-352 -636,-422 -4094,-2680 -7196,-4444 -8748,-5290 1552,918 4586,2890 8394,5924 212,142 426,284 638,494 1338,1058 2822,2328 4374,3740 140,72 280,212 422,352 1906,1696 3880,3670 5856,5786 352,352 636,706 918,1058 564,496 986,1058 1482,1624 210,140 354,352 494,564 212,212 422,494 634,706 1976,2328 3598,4658 4938,6916 284,420 494,774 706,1198 72,72 72,140 140,212 850,2186 1624,4374 2188,6490 212,426 282,846 426,1272 208,774 420,1550 562,2256 424,1484 776,2962 1130,4446l-2258 1340 0 29212 -35842 -12208 0 -29280c-566,-2048 -1272,-4234 -2046,-6562 -2612,-7128 -6634,-14392 -10020,-19828 212,-774 424,-1410 496,-1832 -212,352 -354,918 -638,1624 -2470,-4024 -4586,-6916 -5432,-8114 778,1338 2682,4654 4798,9664 -492,1552 -1130,3316 -1836,5432 -2890,-4656 -5712,-8042 -6982,-9524 1126,1552 3808,5432 6350,11714 -778,2538 -1484,5292 -2048,8042 -2538,-2188 -4796,-3740 -6702,-4800 -636,-5856 210,-10794 210,-10794 0,0 -1338,3670 -1550,10090 -2894,-1412 -4728,-1764 -4728,-1764 0,0 2186,1130 4728,3246 -72,3104 140,6772 918,11076 280,1552 564,3036 918,4446 -1060,-1410 -2190,-2822 -3388,-4092 -1484,-1624 -2894,-2962 -4306,-4022 -2890,-4870 -5644,-8326 -6984,-9808 988,1342 2682,4024 4514,7972 -3174,-2184 -5644,-2962 -6418,-3174 986,566 4302,2470 7550,5716 704,1624 1338,3316 1976,5220 986,2964 1552,5786 1972,8538 -280,-492 -562,-1058 -846,-1622 -4092,-8114 -10298,-13054 -14884,-15948 -496,-704 -990,-1338 -1412,-1972 210,-2048 422,-3528 494,-4166 -142,566 -354,1976 -706,3812 -1272,-1764 -2400,-3246 -3316,-4376 846,1270 1974,3034 3104,5292 0,142 0,212 -72,352 -1200,-634 -2186,-1126 -2892,-1410 706,424 1692,988 2892,1764 -142,496 -210,1128 -282,1694 -70,-72 -140,-212 -212,-284 72,144 142,284 212,424 -352,1976 -634,4306 -918,6776 -4726,-4730 -8818,-7694 -9736,-8328 918,776 5010,4094 9596,10444 -140,1620 -280,3316 -280,5008 -2190,-2682 -4094,-4798 -5646,-6420 0,-352 70,-636 70,-918 -70,214 -142,494 -212,776 -2258,-2326 -3738,-3528 -3738,-3528 0,0 1480,1342 3668,4092 -72,566 -212,1130 -352,1836 -636,-846 -1130,-1552 -1552,-2116 422,632 916,1480 1480,2610 -280,1976 -634,4444 -846,7126 -918,-1058 -1764,-1976 -2682,-2822 -212,-2542 -212,-4304 -212,-4304 0,0 -210,1338 -352,3740 -3104,-3106 -5854,-5224 -7056,-6070 1202,1058 3952,3600 7056,7902 0,1270 70,2754 284,4446 -2190,-706 -3740,-988 -4446,-988 778,142 2540,634 4514,1764 284,2330 706,5080 1482,8114 -280,-564 -564,-1058 -918,-1550 -5502,-8752 -13120,-14960 -15874,-17006 1764,1552 5292,5080 8892,10936 1126,1904 2044,3880 2750,5716 -6138,-4870 -11922,-8046 -14392,-9244 2116,1270 7124,4514 11922,9878 990,1130 1836,2256 2542,3316 -1412,-918 -2822,-1692 -4094,-2330 -3598,-4302 -6774,-7196 -7900,-8112 916,848 2962,3032 5432,6632 -1692,-1198 -3248,-2328 -4728,-3314 -2610,-3388 -5010,-5998 -6280,-7340 848,1130 2328,3034 4024,5856 -1058,-634 -1908,-1198 -2542,-1482 706,564 1764,1342 3104,2400 496,918 1058,1834 1554,2892 -1342,-210 -2116,-210 -2116,-210 0,0 914,140 2326,562 496,990 988,2048 1554,3176 986,2260 1764,4444 2398,6632 -3952,-6774 -8892,-12772 -10724,-14956 1338,1692 4302,5926 6984,12768 352,846 564,1624 846,2470 -5644,-7830 -11146,-13194 -13194,-15028 1696,1834 5576,6350 9032,12418 -5080,-3880 -9878,-6702 -11502,-7548 1764,1058 7128,4726 11996,10442 990,1126 1836,2258 2540,3316 1272,2962 2046,5784 2610,8466l-1058 706 0 33514 -90804 0 0 6490 670626 0 0 -6490 -161300 0z"/>
  <polygon class="fil1" points="226750,404958 226750,419562 161132,432544 161132,426406 "/>
  <polygon class="fil1" points="226750,431486 226750,446094 161132,446302 161132,439390 "/>
  <polygon class="fil1" points="536904,435184 536904,445308 574016,445176 574016,430596 "/>
  <polygon class="fil1" points="536904,416760 536904,426908 574016,418676 574016,404058 "/>
  <polygon class="fil1" points="400194,443480 273492,443948 273492,428630 400194,415256 "/>
  <path class="fil2" d="M226750 450820l35842 0 0 -4658 -35842 -68 0 4726zm29704 -74790c706,-918 1412,-1764 2118,-2540 -1764,2962 -3600,6208 -5224,9666 424,-2326 1342,-4728 3106,-7126zm-10796 2822c-72,-846 -72,-1622 -72,-2468 0,-990 -140,-1764 -210,-2682 424,-918 916,-1904 1554,-2962 1126,-1836 2396,-3388 3736,-4660 -352,2050 -846,4234 -1692,6350 -1130,2682 -2256,4660 -3316,6422zm-3598 -8112c-1270,1270 -2398,2538 -3456,3808 352,-3034 986,-6278 2116,-9594 280,-990 634,-1764 918,-2682 280,1480 494,2964 494,4656 68,1270 0,2540 -72,3812zm-5926 -9386c634,-2822 1624,-5504 2750,-7902 778,1552 1624,3598 2258,6210 -2258,3738 -4586,8324 -6492,13334 142,-3598 566,-7480 1484,-11642zm24906 26884c-352,914 -636,1764 -918,2610 70,-2894 846,-6704 3036,-10936 -144,-426 -214,-846 -426,-1272 -140,-352 -280,-776 -424,-1198 -2186,2328 -4374,4798 -6138,7268 -68,68 -68,140 -140,210 352,-1764 846,-3670 1482,-5502 916,-2894 1906,-5364 2892,-7480 -212,-424 -422,-778 -706,-1198 -1832,1270 -3740,2890 -5856,5150 -1200,1340 -2326,2750 -3384,4162 352,-1482 704,-2962 986,-4514 706,-4234 918,-7834 846,-10936 706,-566 1270,-990 1836,-1484 -140,-212 -284,-424 -494,-564 -424,140 -848,284 -1342,564 0,-846 -68,-1410 -140,-2188 -282,-352 -566,-706 -918,-1058 -70,1202 -142,2540 -282,3952 -1764,986 -3880,2398 -6210,4446 -564,-3248 -1270,-6070 -2116,-8398 918,-2258 1904,-4162 2752,-5786 -142,-140 -282,-280 -422,-352 -918,1342 -1906,2822 -3036,4586 -986,-2328 -1976,-4092 -2822,-5360 494,-1058 988,-2048 1484,-2966 -212,-210 -426,-352 -638,-494 -564,706 -1058,1412 -1622,2330 -562,-778 -1058,-1272 -1268,-1412 210,212 562,778 1058,1692 -3106,4730 -6774,11080 -9596,18698 -634,1694 -1130,3386 -1624,4940l-140 -70 0 29280 35842 12208 0 -29212 2258 -1340c-354,-1484 -706,-2962 -1130,-4446 -916,1904 -1834,3952 -2680,6070zm-34290 43178l35842 4446 0 -8398 -35842 -7902 0 11854zm17638 -87700l-72 0c-562,634 -2044,2470 -4020,5150 140,70 424,214 636,422 1620,-2890 2962,-4866 3456,-5572zm6774 12772c142,140 282,210 494,352l0 -72c-352,-1692 -636,-2894 -778,-3388 0,494 142,1554 284,3036l0 72zm-2822 -7200c-636,706 -1482,1764 -2540,3248 72,70 212,212 352,280 918,-1552 1624,-2750 2188,-3528zm389406 57192c-190,372 -352,722 -530,1088 812,-2714 2308,-5940 5172,-9164 120,-132 234,-242 354,-374 -1708,2558 -3416,5352 -4996,8450zm-8418 -12648c58,-880 128,-1788 142,-2610 304,-234 600,-438 902,-652 -288,1080 -634,2162 -1044,3262zm1940 -7482c-140,898 -316,1836 -542,2816 -416,180 -826,350 -1278,562 0,-196 -6,-380 -14,-572 608,-984 1222,-1922 1834,-2806zm-3526 1650c-14,78 -30,146 -36,220 -1234,1412 -2420,2886 -3528,4400 -296,182 -592,400 -888,596 344,-1792 810,-3622 1558,-5480 1010,-2476 2102,-4630 3098,-6398 92,1806 70,3986 -204,6662zm-5818 2026c72,-1298 76,-2544 90,-3796 2030,-3626 3998,-6406 5564,-8360 128,710 240,1548 318,2574 -1792,2458 -4008,5828 -5992,9820 6,-84 14,-158 20,-238zm-1792 -12290c-842,866 -1698,1784 -2548,2716 688,-4386 1860,-7698 2766,-9770 46,2000 -8,4366 -218,7054zm-2044 11326c-264,378 -532,772 -800,1162 -158,-1568 -204,-3216 -140,-4946 330,-604 584,-1188 958,-1798 538,-866 1106,-1698 1676,-2524 -374,2868 -962,5592 -1694,8106zm-4432 -4072c402,-2418 940,-4906 1846,-7476 1280,-3622 2838,-6968 4320,-9804 120,-102 258,-222 374,-316 68,836 116,1816 148,2874 -1286,2298 -3304,6550 -4966,12700 -578,672 -1164,1332 -1722,2022zm-580 10796l-2 -12 2 -6c0,4 0,10 0,18zm-5750 -5724c60,-3368 916,-8004 4152,-13030 1918,-2984 4126,-5416 6082,-7294 -3236,5074 -6828,11356 -9264,17642 -356,916 -656,1794 -970,2682zm12836 -23008c4,30 6,52 10,84 -28,18 -62,42 -88,62 26,-52 52,-94 78,-146zm-27180 10768c-38,-766 -72,-1522 -134,-2320 -110,-1346 -296,-2524 -456,-3766 254,-492 430,-928 732,-1456 1616,-2850 3358,-4824 4988,-6268 -328,2464 -892,5042 -1902,7508 -1078,2610 -2162,4582 -3228,6302zm-3682 -7950c-1260,1426 -2432,2854 -3528,4248 370,-3180 1044,-6598 2196,-10070 324,-972 660,-1844 992,-2732 224,1484 404,3032 456,4702 40,1334 -28,2600 -116,3852zm-8238 4544c8,-4206 552,-8960 2332,-13936 1034,-2890 2208,-5452 3360,-7700 600,1572 1224,3512 1728,5810 -2414,4022 -4940,8892 -6894,14294 -190,522 -346,1018 -526,1532zm68982 28112c4726,-7966 9482,-12654 9482,-12654 0,0 -7238,6008 -14796,16864 346,-1156 734,-2324 1256,-3510 3436,-7860 7620,-12458 7620,-12458 0,0 -5714,5356 -11408,15456 656,-2466 1482,-5010 2666,-7588 452,-974 912,-1854 1362,-2730 1264,-468 2090,-686 2090,-686 0,0 -706,18 -1856,212 366,-688 720,-1308 1072,-1932 3436,-2798 6074,-4124 6074,-4124 0,0 -2158,922 -5220,2634 3514,-5798 6470,-8532 6470,-8532 0,0 -4036,3642 -8826,9920 -1180,720 -2414,1532 -3712,2444 3118,-4458 5496,-6590 5496,-6590 0,0 -3696,2960 -8340,8524 -1248,604 -2618,1410 -4036,2338 720,-1096 1568,-2208 2568,-3324 6336,-7110 12912,-10390 12912,-10390 0,0 -7746,3638 -15338,9652 712,-1824 1552,-3686 2688,-5560 4960,-8172 9962,-11768 9962,-11768 0,0 -9722,6458 -16912,17736 -324,518 -620,1016 -932,1524 812,-3172 1300,-6008 1560,-8464 2688,-1658 4876,-2410 4876,-2410 0,0 -1842,340 -4762,1486 112,-1330 162,-2500 168,-3566 4016,-5454 7720,-8662 7720,-8662 0,0 -3542,2874 -7734,7048 -78,-2630 -366,-4140 -366,-4140 0,0 28,1954 -268,4764 -742,750 -1490,1550 -2252,2370 -176,-2364 -486,-4384 -838,-6016 1530,-2602 2716,-4144 2716,-4144 0,0 -1192,1342 -2858,3574 -198,-848 -396,-1572 -578,-2184 1890,-2328 3168,-3464 3168,-3464 0,0 -1284,1122 -3260,3170 -416,-1282 -748,-2026 -748,-2026 0,0 296,744 586,2192 -1510,1564 -3394,3656 -5484,6258 -28,-1970 -114,-3830 -238,-5608 4754,-6286 9566,-10766 9566,-10766 0,0 -4458,3606 -9718,8828 -222,-2510 -496,-4726 -788,-6628 442,-896 754,-1414 754,-1414 0,0 -318,460 -784,1234 -124,-802 -244,-1574 -364,-2242 1324,-1062 2200,-1638 2200,-1638 0,0 -870,510 -2242,1428 -16,-102 -36,-184 -52,-282 2444,-4524 4532,-7484 4532,-7484 0,0 -2018,2598 -4710,6546 -344,-1742 -606,-2810 -606,-2810 0,0 244,1078 468,3016 -524,768 -1034,1516 -1598,2382 -4206,3048 -10658,8448 -15034,15518 -214,342 -396,656 -596,990 414,-2556 980,-5190 1918,-7894 666,-1926 1394,-3684 2128,-5340 3844,-3740 7656,-5560 7656,-5560 0,0 -2800,708 -6516,3092 2704,-5540 5220,-8948 5220,-8948 0,0 -3542,4162 -7460,10526 -1504,1154 -3086,2560 -4652,4300 -1214,1352 -2340,2780 -3400,4198 356,-1446 684,-2954 960,-4542 798,-4612 974,-8548 892,-11848 2642,-1910 4676,-2318 4676,-2318 0,0 -1866,174 -4686,1454 -250,-6216 -1488,-9736 -1488,-9736 0,0 744,4682 196,10394 -1930,1014 -4160,2522 -6526,4756 -572,-3080 -1246,-5820 -1974,-8114 3312,-8020 6706,-11982 6706,-11982 0,0 -3432,3946 -7314,10222 -742,-2084 -1490,-3870 -2150,-5204 2764,-5272 5316,-8478 5316,-8478 0,0 -2622,2924 -5896,7392 -932,-1716 -1610,-2652 -1610,-2652 0,0 630,1048 1420,2908 -3726,5114 -8252,12194 -10900,19582 -472,1312 -874,2578 -1240,3816l-88 -54 0 29242 65070 22174 0 6820 -65070 -14372 0 11878 65070 8048 0 6808 -65070 -234 0 5644 70812 0 0 -34886 -444 -260c444,-1654 988,-3348 1672,-5084 826,-1512 1792,-3054 3118,-4634 6132,-7304 12596,-10790 12596,-10790 0,0 -5412,2564 -11720,7362zm-143536 -56706c68,-1390 112,-2778 126,-4168 620,-524 1222,-968 1836,-1428 -556,1858 -1216,3732 -1962,5596zm1362 -12788c1022,-1534 2064,-2982 3106,-4388 -362,2516 -872,5280 -1578,8146 -886,348 -1824,764 -2788,1196 -22,-928 -52,-1846 -94,-2764 444,-730 868,-1460 1354,-2190zm-4312 -364c-3112,3458 -6148,7170 -8860,11046 536,-3396 1308,-6920 2428,-10502 2188,-6988 4628,-12476 6700,-16532 284,4242 340,9640 -268,15988zm-10522 -3266c3848,-6850 7566,-12096 10542,-15820 58,562 102,1194 154,1816 -3068,4566 -7158,11172 -10878,18810 82,-1624 146,-3228 182,-4806zm-3842 -16072c-1540,1586 -3098,3240 -4656,4940 1382,-7304 3416,-13834 4982,-18274 110,3918 26,8380 -326,13334zm-3646 21234c-714,1014 -1428,2042 -2148,3108 -276,-3032 -352,-6230 -148,-9576 1124,-2170 2334,-4342 3740,-6506 554,-850 1116,-1608 1672,-2430 -658,5442 -1760,10612 -3116,15404zm-8814 -7258c754,-4654 1882,-9500 3574,-14452 2956,-8638 6060,-15478 8770,-20676 188,1984 320,4300 410,6796 -2276,5076 -5842,13674 -8826,23644 -1330,1538 -2644,3098 -3928,4688zm-11780 8476c414,-6300 2172,-14598 7568,-23852 4504,-7722 9452,-13412 13456,-17344 -6260,9434 -14024,22656 -19602,37326 -496,1304 -966,2594 -1422,3870zm-28388 -21660c14,-1684 30,-3362 30,-5126 0,-2140 -128,-4294 -310,-6450 770,-1628 1518,-3240 2544,-5060 2390,-4242 5140,-7422 7826,-9928 -650,4520 -1760,9238 -3610,13734 -2160,5236 -4346,9440 -6480,12830zm-6788 -16096c-2494,2500 -4750,5066 -6854,7608 786,-5896 2150,-12186 4432,-18568 598,-1668 1218,-3206 1836,-4766 368,3022 670,6152 774,9484 68,2172 -74,4198 -188,6242zm-15294 6866c192,-7568 1274,-16062 4024,-24904 1998,-6410 4342,-12092 6652,-17050 1074,3540 2310,8322 3276,13988 -4846,8062 -9902,17510 -13598,27026 -124,316 -232,626 -354,940zm147804 46320c-4266,2642 -9992,6408 -16096,11098 394,-720 728,-1304 1094,-1966 84,-146 162,-292 246,-438 462,-826 934,-1678 1358,-2420 298,-520 560,-962 842,-1444l0 2c1904,-3274 3394,-5650 4510,-7292 88,-132 166,-240 252,-364 1388,-2018 2204,-2960 2552,-3308 -494,450 -3170,2982 -7208,7614l0 0c-136,154 -284,328 -422,486l0 0c-1380,1596 -2884,3390 -4546,5478 -12,12 -20,24 -30,36 -1468,1842 -3030,3886 -4676,6118l0 0c-112,154 -234,326 -346,482 -802,1094 -1616,2218 -2454,3404 -168,240 -322,444 -492,686 -48,66 -88,122 -136,188 578,-2048 1304,-4136 2124,-6234l0 0c26,-64 46,-126 64,-186 82,-210 128,-410 212,-620 5778,-14124 15518,-26196 15518,-26196 0,0 -12590,13192 -21920,29660 -82,144 -162,290 -242,436 -612,1094 -1210,2194 -1786,3310 -102,192 -196,388 -294,582 -508,994 -1004,1994 -1478,3006 -110,238 -212,478 -320,714 -374,820 -760,1638 -1108,2462 -124,300 -226,578 -350,874 546,-2498 1260,-5028 2150,-7564 16,-44 30,-86 44,-128 612,-1728 1334,-3454 2142,-5176 44,-100 98,-196 146,-296 466,-978 926,-1956 1460,-2928 3548,-6432 7376,-10820 7376,-10820 0,0 -11020,9936 -18748,22184 1404,-5558 4292,-12506 10466,-19436 500,-562 980,-1028 1474,-1560 5626,-3208 9950,-4598 9950,-4598 0,0 -2930,398 -7442,1950 8994,-8952 16082,-12406 16082,-12406 0,0 -9786,4816 -20616,12798 6114,-8816 11038,-13864 11038,-13864 0,0 -7976,7086 -17260,18402 -2754,1578 -5672,3532 -8664,5884 1762,-3162 4028,-6448 6976,-9748 11808,-13200 24944,-20050 24944,-20050 0,0 -15054,7638 -30112,19494 1436,-3786 3280,-7704 5692,-11598 8970,-14474 19224,-22710 19224,-22710 0,0 -19292,14814 -32632,34230 -622,908 -1160,1782 -1742,2674 1328,-5232 2180,-9940 2698,-14166 5368,-3246 9668,-4204 9668,-4204 0,0 -3534,100 -9404,2068 362,-3540 512,-6618 516,-9258 7650,-9812 14924,-15878 14924,-15878 0,0 -6782,5016 -14958,12778 -172,-4600 -696,-7168 -696,-7168 0,0 82,3286 -390,8212 -1730,1670 -3504,3454 -5288,5336 -454,-5380 -1162,-10264 -1838,-14158 2384,-4526 4154,-6942 4154,-6942 0,0 -1754,2238 -4314,6008 -96,-544 -190,-1036 -284,-1536 3696,-4570 6196,-6788 6196,-6788 0,0 -2458,2078 -6334,6052 -684,-3538 -1218,-5680 -1218,-5680 0,0 516,2200 946,5960 -2856,2942 -6442,6880 -10404,11796 -28,-3846 -180,-7516 -422,-10994 9546,-12728 18258,-20224 18258,-20224 0,0 -8458,6788 -18524,16772 -442,-5004 -1046,-9484 -1684,-13344 646,-1682 1068,-2658 1068,-2658 0,0 -420,830 -1122,2332 -322,-1924 -646,-3706 -960,-5280 2470,-2100 4066,-3142 4066,-3142 0,0 -1436,876 -3804,2554 3782,-6978 6594,-10532 6594,-10532 0,0 -2952,3568 -7174,9580 -996,-4720 -1804,-7458 -1804,-7458 0,0 722,2994 1308,8168 -470,674 -938,1352 -1434,2082 -7744,5792 -21004,17110 -30466,32690 -618,1018 -1166,1966 -1748,2948 844,-5236 2178,-10716 4284,-16248 1490,-3918 3020,-7452 4530,-10754 7276,-6950 14348,-10316 14348,-10316 0,0 -4942,960 -12092,5552 5220,-10578 9598,-16838 9598,-16838 0,0 -6492,7812 -13938,19906 -2958,2280 -6146,5112 -9446,8716 -2326,2542 -4474,5240 -6494,7930 662,-2740 1276,-5596 1794,-8590 1498,-8652 1854,-16056 1734,-22320 4936,-3772 9016,-5048 9016,-5048 0,0 -3488,580 -9038,3332 -438,-12304 -2884,-19304 -2884,-19304 0,0 1552,9334 374,20638 -3468,1936 -7520,4666 -11988,8496 -1008,-5510 -2388,-10832 -3882,-15634 6176,-14274 12396,-23050 12396,-23050 0,0 -6286,8118 -13468,19736 -1622,-4840 -3248,-8974 -4556,-12068 5258,-11114 10216,-17976 10216,-17976 0,0 -5048,6054 -11396,15246 -894,-1994 -1466,-3160 -1466,-3160 0,0 526,1294 1262,3454 -7110,10326 -15786,24534 -20908,38778 -1132,3146 -2074,6216 -2910,9206l-114 -66 0 56458 126694 42182 0 12954 -126694 -26916 0 22920 126694 13372 0 15318 -126694 -468 0 7340 136702 0 0 -63784 -1034 -598c928,-3382 2020,-6832 3474,-10358 1566,-2726 3484,-5518 5938,-8324 1136,-1296 2296,-2506 3454,-3704l0 0c866,-892 1718,-1730 2580,-2562l8 -8c2222,-2144 4420,-4140 6472,-5852l4 -2c798,-664 1524,-1236 2274,-1830 164,-130 332,-266 492,-392 934,-736 1794,-1398 2624,-2012 114,-88 240,-180 354,-268 3596,-2654 6048,-4178 6048,-4178 0,0 -2484,1328 -6350,3686 -320,194 -616,374 -954,580z"/>
  <polygon class="fil1" points="400194,392336 273492,419254 273492,406300 400194,364116 "/>
  <path class="fil2" d="M702988 544436l-3196 0 0 -19610 3676 0c2730,0 5554,1034 7634,2728 2166,1792 3296,4340 3296,7166 0,5196 -4898,9716 -11410,9716zm-3196 -48562l3112 96c2258,82 9524,1310 9524,8102 0,4906 -4536,8392 -9524,8682l-3112 194 0 -17074zm29690 26498c-1594,-1598 -3386,-3114 -7824,-5098l1792 -1130c5292,-3294 8114,-8488 8114,-14056 0,-6036 -2646,-10846 -8114,-14042 -4714,-2742 -9616,-4342 -20370,-4342l-25272 0c1700,4618 2546,9054 2546,13960l0 46110c0,5856 -1418,10570 -2546,13684l27354 0c13398,0 18950,-2454 23014,-5664 4714,-3776 7162,-9054 7162,-15654 0,-5374 -1982,-9992 -5856,-13768zm-104302 3550l7168 -20932 7346 20932 -14514 0zm17914 -36218c-754,-1692 -1418,-3772 -1694,-6032l-16220 0c-480,2356 -1228,4340 -1792,5664l-25092 59310c-1130,2646 -2824,5566 -5002,8778l22642 0c0,-3682 660,-5858 1694,-8684l3582 -9892 22722 0 3308 8200c2166,5472 2922,8116 2922,10376l23114 0c-1792,-2260 -2922,-4436 -5376,-10186l-24808 -57534zm-75570 26730l0 -19802 2260 0c4906,0 10474,3016 10474,9424 0,3018 -1420,5940 -3872,7924 -2068,1600 -4906,2454 -8862,2454zm23482 6876c5568,-3954 8392,-9990 8392,-17350 0,-9714 -5098,-16688 -13202,-19802 -5098,-1984 -9810,-2454 -17542,-2454l-22724 0c2164,5004 2536,12542 2536,18480l0 38764c0,8214 -662,11410 -2536,16510l24516 0c-2080,-7262 -2550,-13120 -2550,-18672l0 -9440c10378,0 17736,-2260 23110,-6036zm-118928 -23662c7070,-1612 14718,-2548 21980,-3016l0 41670c0,6230 -482,12266 -2550,19156l24612 0c-2356,-6504 -2646,-13490 -2646,-18672l0 -42154c4534,0 10764,1032 17172,3016l4906 -15944 -58664 0 -4810 15944zm-86378 44222l-4630 0c-10086,0 -25080,-7358 -25080,-25838 0,-6972 1984,-14332 6974,-20174 2452,-386 4532,-578 6034,-578 14814,0 24708,11892 24708,26224 0,7730 -1970,14524 -8006,20366zm-10184 -61294c-14344,0 -40458,7440 -40458,38668 0,23756 19140,37344 40266,37344 15752,0 29614,-7732 36022,-22076 2274,-5086 3306,-10460 3306,-16220 0,-21594 -15556,-37716 -39136,-37716zm-104330 17072c7066,-1612 14714,-2548 21980,-3016l0 41670c0,6230 -484,12266 -2550,19156l24612 0c-2356,-6504 -2646,-13490 -2646,-18672l0 -42154c4530,0 10762,1032 17170,3016l4906 -15944 -58666 0 -4806 15944zm-49150 20368c0,-13766 7648,-22736 19816,-22736 5940,0 11976,1708 19610,7358l0 -19432c-7538,-1790 -13960,-2630 -19044,-2630 -12168,0 -21884,3582 -29436,10556 -7908,7454 -11878,16880 -11878,28290 0,12458 5374,24240 15476,31034 6036,4050 13670,6132 22062,6132 8116,0 14994,-1324 23950,-5098l758 -19514c-7360,6600 -14620,9894 -21594,9894 -13202,0 -19720,-11120 -19720,-23854zm-30510 -36312l-24514 0c1694,5844 2534,9248 2534,16978l0 41122c0,5084 -660,9990 -2534,15654l24514 0c-1598,-3872 -2548,-8778 -2548,-15944l0 -42622c0,-6988 854,-10570 2548,-15188zm-58194 5280l-19816 24142 -18480 -23192c-1130,-1420 -1888,-3680 -1888,-6230l-28484 0 9618 11880 0 39618c0,12072 -468,17446 -2452,22256l24528 0c-1984,-5002 -2644,-14524 -2644,-22256l0 -21318 19236 24902 19238 -24902 0 21318c0,11590 -744,16400 -2438,22256l24514 0c-2176,-6422 -2646,-13022 -2646,-21690l0 -29712c0,-8860 1516,-13862 4630,-20270l1034 -2082 -21882 0c0,1792 -758,3584 -2068,5280z"/>
 </g>
</svg>
