<?xml version="1.0" encoding="UTF-8"?>
<!DOCTYPE svg PUBLIC "-//W3C//DTD SVG 1.1//EN" "http://www.w3.org/Graphics/SVG/1.1/DTD/svg11.dtd">
<!-- Creator: CorelDRAW X7 -->
<svg xmlns="http://www.w3.org/2000/svg" xml:space="preserve" width="100%" height="100%" version="1.1" style="shape-rendering:geometricPrecision; text-rendering:geometricPrecision; image-rendering:optimizeQuality; fill-rule:evenodd; clip-rule:evenodd"
viewBox="0 0 2100000 2100000"
 xmlns:xlink="http://www.w3.org/1999/xlink">
 <defs>
  <style type="text/css">
   <![CDATA[
    .fil3 {fill:#2D5E46;fill-rule:nonzero}
    .fil2 {fill:#362545;fill-rule:nonzero}
    .fil0 {fill:#525354;fill-rule:nonzero}
    .fil4 {fill:#538157;fill-rule:nonzero}
    .fil1 {fill:#824D6B;fill-rule:nonzero}
   ]]>
  </style>
 </defs>
 <g id="Слой_x0020_1">
  <metadata id="CorelCorpID_0Corel-Layer"/>
  <polygon class="fil0" points="220935,2002691 381079,2005306 381079,2000083 "/>
  <polygon class="fil0" points="1724149,2005309 1879063,2002694 1724149,2000080 "/>
  <polygon class="fil0" points="474257,1979539 497382,1979539 497382,1984057 478870,1984057 478870,1998522 497382,1998522 497382,2003040 478870,2003040 478870,2025688 474257,2025688 "/>
  <path class="fil0" d="M575088 1989345l-7906 16701 15776 0 -7870 -16701zm580 -9806l21525 46149 -4984 0 -7259 -15186 -19882 0 -7189 15186 -5141 0 21800 -46149 1130 0z"/>
  <path class="fil0" d="M650978 2017092l3921 -2354c2761,5083 5951,7626 9570,7626 1543,0 2997,-362 4361,-1084 1355,-722 2395,-1688 3101,-2902 717,-1213 1067,-2500 1067,-3859 0,-1548 -523,-3064 -1564,-4549 -1442,-2046 -4078,-4518 -7907,-7400 -3848,-2908 -6243,-5010 -7184,-6307 -1633,-2175 -2448,-4529 -2448,-7059 0,-2009 482,-3840 1444,-5491 962,-1653 2315,-2954 4063,-3907 1746,-952 3645,-1428 5695,-1428 2175,0 4204,540 6101,1616 1893,1078 3892,3060 6010,5941l-3771 2861c-1736,-2302 -3211,-3818 -4434,-4549 -1229,-732 -2557,-1099 -4001,-1099 -1861,0 -3382,565 -4565,1695 -1182,1129 -1773,2520 -1773,4172 0,1004 209,1976 628,2913 418,946 1176,1966 2291,3075 606,591 2588,2128 5956,4617 4000,2950 6740,5575 8221,7876 1485,2296 2232,4607 2232,6928 0,3347 -1276,6256 -3813,8724 -2540,2468 -5637,3701 -9270,3701 -2809,0 -5345,-747 -7625,-2243 -2280,-1495 -4382,-4001 -6306,-7514z"/>
  <polygon class="fil0" points="739088,1979539 743699,1979539 743699,1998898 767196,1998898 767196,1979539 771807,1979539 771807,2025688 767196,2025688 767196,2003410 743699,2003410 743699,2025688 739088,2025688 "/>
  <polygon class="fil0" points="833782,1979537 838394,1979537 838394,2025685 833782,2025685 "/>
  <path class="fil0" d="M922550 1982864c-3413,0 -6651,889 -9710,2671 -3060,1779 -5443,4174 -7164,7191 -1716,3012 -2578,6369 -2578,10077 0,5486 1903,10114 5705,13895 3801,3776 8387,5668 13747,5668 3583,0 6898,-874 9947,-2610 3049,-1736 5422,-4110 7133,-7127 1705,-3012 2563,-6359 2563,-10046 0,-3666 -858,-6976 -2563,-9936 -1711,-2964 -4111,-5333 -7212,-7112 -3101,-1782 -6390,-2671 -9868,-2671zm-203 -4487c6991,0 12843,2331 17550,6996 4706,4665 7059,10406 7059,17227 0,6756 -2348,12487 -7044,17193 -4701,4701 -10427,7059 -17188,7059 -6846,0 -12619,-2348 -17330,-7032 -4707,-4681 -7060,-10350 -7060,-17001 0,-4435 1071,-8546 3216,-12332 2144,-3785 5067,-6750 8774,-8894 3703,-2145 7714,-3216 12023,-3216z"/>
  <polygon class="fil0" points="1007648,2025690 1007648,1979540 1008652,1979540 1039369,2014916 1039369,1979540 1043914,1979540 1043914,2025690 1042883,2025690 1012417,1990741 1012417,2025690 "/>
  <path class="fil0" d="M1180162 2021327l5334 0c6375,0 10804,-397 13273,-1191 3471,-1124 6196,-3159 8183,-6097 1987,-2934 2981,-6527 2981,-10768 0,-4450 -1077,-8252 -3231,-11411 -2155,-3153 -5151,-5317 -9001,-6484 -2886,-879 -7644,-1317 -14276,-1317l-3263 0 0 37268zm-4423 4363l0 -46150 9564 0c6908,0 11918,555 15029,1664 4481,1568 7980,4282 10495,8157 2526,3864 3782,8477 3782,13832 0,4627 -999,8690 -2992,12205 -1998,3515 -4592,6107 -7786,7781 -3186,1673 -7657,2511 -13408,2511l-14684 0z"/>
  <polygon class="fil0" points="1274986,1979539 1301435,1979539 1301435,1984057 1279597,1984057 1279597,1998522 1301242,1998522 1301242,2003040 1279597,2003040 1279597,2021170 1301242,2021170 1301242,2025688 1274986,2025688 "/>
  <path class="fil0" d="M1356035 2017092l3922 -2354c2756,5083 5951,7626 9570,7626 1548,0 2996,-362 4356,-1084 1365,-722 2395,-1688 3111,-2902 711,-1213 1067,-2500 1067,-3859 0,-1548 -527,-3064 -1574,-4549 -1438,-2046 -4073,-4518 -7907,-7400 -3843,-2908 -6239,-5010 -7185,-6307 -1626,-2175 -2443,-4529 -2443,-7059 0,-2009 476,-3840 1444,-5491 962,-1653 2311,-2954 4059,-3907 1746,-952 3649,-1428 5694,-1428 2176,0 4215,540 6102,1616 1899,1078 3896,3060 6014,5941l-3765 2861c-1736,-2302 -3215,-3818 -4444,-4549 -1219,-732 -2553,-1099 -3996,-1099 -1867,0 -3389,565 -4565,1695 -1182,1129 -1772,2520 -1772,4172 0,1004 209,1976 627,2913 418,946 1177,1966 2285,3075 611,591 2593,2128 5967,4617 3995,2950 6730,5575 8215,7876 1485,2296 2228,4607 2228,6928 0,3347 -1266,6256 -3807,8724 -2546,2468 -5637,3701 -9272,3701 -2803,0 -5344,-747 -7625,-2243 -2280,-1495 -4382,-4001 -6306,-7514z"/>
  <polygon class="fil0" points="1443549,1979537 1448162,1979537 1448162,2025685 1443549,2025685 "/>
  <path class="fil0" d="M1554653 1987289l-3577 3388c-2573,-2530 -5391,-4450 -8456,-5757 -3064,-1308 -6050,-1961 -8958,-1961 -3613,0 -7059,889 -10334,2666 -3273,1779 -5813,4189 -7607,7233 -1799,3043 -2699,6260 -2699,9648 0,3472 931,6771 2792,9893 1862,3128 4436,5592 7719,7375 3283,1788 6877,2681 10788,2681 4754,0 8764,-1338 12049,-4009 3283,-2683 5230,-6156 5836,-10423l-14711 0 0 -4450 19887 0c-41,7132 -2160,12796 -6347,16985 -4200,4199 -9806,6291 -16834,6291 -8535,0 -15291,-2908 -20269,-8723 -3827,-4471 -5741,-9647 -5741,-15526 0,-4372 1097,-8439 3294,-12204 2196,-3766 5209,-6711 9036,-8834 3827,-2122 8153,-3184 12990,-3184 3906,0 7588,706 11039,2117 3456,1413 6818,3676 10103,6794z"/>
  <polygon class="fil0" points="1617599,2025690 1617599,1979540 1618598,1979540 1649315,2014916 1649315,1979540 1653870,1979540 1653870,2025690 1652830,2025690 1622368,1990741 1622368,2025690 "/>
  <path class="fil1" d="M843684 877532c1837,-7394 48163,-1266 77353,12241 1946,927 6568,6245 7917,-6244 1407,-12482 -5987,-37886 -11744,-48872 -6976,-13205 -31936,-64201 -80464,-58632 -48571,5564 -50658,15970 -61780,38855 -11082,22882 -11082,24964 -27051,30512 -15966,5534 -49161,19066 -42291,62423 4164,26376 10391,22209 18006,36773 7640,14563 -4162,54102 29854,58981 33990,4832 70476,-34095 91106,-47420 22208,-14322 60226,-30403 64974,-34439 15981,-13654 -68211,-34939 -65880,-44178z"/>
  <path class="fil1" d="M767817 371413c0,0 -4303,23050 -19579,29750 -15269,6689 -71018,17773 -92601,20305 -16618,1924 -61283,18449 -83873,-36453 -22596,-54899 26256,-83555 43948,-95065 17727,-11536 11974,-76019 39424,-93825 18172,-11792 51874,-23757 84726,-8126 29566,14051 45223,48403 53951,64634 13434,24976 20766,54568 21204,60577 1690,22779 -7838,32118 -26345,32542 -18553,440 -66072,-32552 -68463,-22282 -3153,13691 45516,32349 47608,47943z"/>
  <path class="fil1" d="M865639 339602c-10908,3875 -28212,3180 -37180,-13936 -15687,-29932 -2557,-77958 6128,-98782 6668,-16060 25797,-58496 62246,-51682 16137,3043 46724,14397 64593,42290 17779,27909 20901,35078 30345,37641 9456,2530 42279,13339 50856,28913 8571,15598 8382,48334 -12431,67474 -27328,25216 -96899,49830 -123945,47660 -27083,-2160 -32767,-29106 -27548,-39685 5313,-10783 37928,-49052 33551,-53967 -9574,-10882 -36459,30450 -46615,34074z"/>
  <path class="fil1" d="M890123 419389c8686,-13586 16990,-6244 52691,-14178 38086,-8459 69075,-25890 84208,-27955 15191,-2044 25044,23553 24103,43659 -2406,48880 -37107,50045 -40533,60044 -3436,10004 8058,20782 4717,38613 -8633,46081 -32407,34300 -66930,54098 -18565,10684 -14759,45167 -79267,32307 -64452,-12832 -55206,-125728 -52434,-138939 5354,-26114 40951,-24128 63436,-7466 14208,10542 22471,29498 27763,24378 10805,-10453 -33624,-39784 -17754,-64561z"/>
  <path class="fil1" d="M600675 481187c2474,-24510 7681,-27926 52466,-42850 44794,-14903 95179,-32918 106569,-26428 30022,17141 -21937,60388 -14909,67871 8796,9438 34806,-61926 69278,-28761 -21314,6191 -35,118706 -31805,140528 -12116,8325 -35705,-126 -51330,1961 -15605,2081 -62141,12477 -77113,-20729 -14977,-33201 -55812,-64954 -53156,-91592z"/>
  <path class="fil2" d="M826836 412856c5265,-178 9250,6495 9428,11715 163,5255 -3911,9636 -9151,9799 -5256,168 -9642,-3959 -9799,-9172 -147,-5240 4340,-12158 9522,-12342z"/>
  <path class="fil2" d="M849544 388337c507,-5224 7625,-8304 12859,-7792 5193,518 8989,5140 8498,10375 -508,5183 -5171,9010 -10370,8497 -5187,-517 -11498,-5871 -10987,-11080z"/>
  <path class="fil2" d="M841992 376763c-4702,-2317 -5073,-10067 -2804,-14769 2328,-4717 7975,-6651 12676,-4367 4727,2313 6626,7991 4367,12698 -2301,4696 -9508,8738 -14239,6438z"/>
  <path class="fil2" d="M822153 373429c-5062,1192 -10291,-4560 -11500,-9669 -1160,-5104 1999,-10187 7107,-11385 5058,-1208 10192,1945 11343,7075 1197,5089 -1815,12766 -6950,13979z"/>
  <path class="fil2" d="M807074 382637c-2719,4518 -10470,4330 -14941,1669 -4555,-2652 -6014,-8492 -3351,-12995 2656,-4508 8461,-6014 12937,-3352 4550,2662 8001,10187 5355,14678z"/>
  <path class="fil2" d="M801494 394933c2404,4638 -1816,11155 -6506,13581 -4623,2442 -10317,648 -12791,-3996 -2406,-4638 -637,-10344 3995,-12785 4628,-2437 12839,-1428 15302,3200z"/>
  <path class="fil2" d="M810825 410217c4032,3389 2526,10998 -904,14999 -3357,4015 -9309,4512 -13277,1113 -4016,-3362 -4539,-9330 -1156,-13340 3415,-4001 11380,-6166 15337,-2772z"/>
  <path class="fil2" d="M842125 408621c2714,-4450 10486,-4131 14961,-1413 4462,2741 5836,8577 3122,13058 -2771,4450 -8602,5852 -13052,3111 -4450,-2718 -7812,-10296 -5031,-14756z"/>
  <path class="fil2" d="M816255 364590c0,0 -3550,8142 -7927,12184 -4293,4016 -7190,13805 -5940,19904 1092,5250 2317,8519 3519,12147 1177,3613 7510,7797 14370,5894 6773,-1899 5925,2802 12687,449 6819,-2364 17131,-5287 16174,-12164 -1010,-6870 6762,-14756 -308,-22564 -7071,-7834 -4467,-11678 -18204,-9727 -8748,1245 -10668,-5950 -14371,-6123z"/>
  <path class="fil2" d="M1417978 501917c2488,4565 -1643,11133 -6223,13679 -4597,2485 -10371,832 -12839,-3775 -2546,-4576 -836,-10359 3724,-12849 4632,-2536 12775,-1668 15338,2945z"/>
  <path class="fil2" d="M1452486 508142c4890,-1883 10894,3085 12771,7954 1940,4884 -476,10359 -5402,12284 -4874,1887 -10365,-519 -12226,-5407 -1945,-4891 10,-12912 4857,-14831z"/>
  <path class="fil2" d="M1422472 471134c-3028,4262 -10751,3414 -15034,370 -4263,-3022 -5230,-8947 -2217,-13192 3012,-4274 8937,-5277 13240,-2259 4247,3026 7039,10813 4011,15081z"/>
  <path class="fil2" d="M1413049 486396c-1188,5114 -8676,7237 -13743,6003 -5083,-1187 -8252,-6322 -7034,-11400 1186,-5098 6265,-8246 11410,-7044 5083,1214 10627,7348 9367,12441z"/>
  <path class="fil2" d="M1428627 513567c5188,424 8446,7483 8043,12707 -486,5213 -5025,9131 -10270,8691 -5172,-418 -9047,-5009 -8655,-10212 428,-5219 5658,-11583 10882,-11186z"/>
  <path class="fil2" d="M1430751 467950c-5652,-1794 -5600,235 -10495,4131 -4183,3341 -5474,6574 -8168,9272 -2677,2698 -3535,10265 1229,15485 4764,5213 199,6578 5354,11541 5188,4978 12446,12889 18137,8925 5693,-3999 26407,5271 20952,-3755 -7911,-13083 -21052,-43706 -27009,-45599z"/>
  <path class="fil2" d="M984995 938465c5265,213 8780,7185 8540,12392 -231,5250 -4655,9303 -9847,9100 -5251,-231 -9283,-4665 -9105,-9884 257,-5230 5224,-11786 10412,-11608z"/>
  <path class="fil2" d="M1009466 915702c889,-5182 8231,-7714 13392,-6814 5141,889 8592,5778 7698,10971 -883,5136 -5815,8607 -10956,7708 -5192,-905 -11096,-6720 -10134,-11865z"/>
  <path class="fil2" d="M1002785 903612c-4518,-2652 -4378,-10407 -1680,-14946 2605,-4544 8414,-6056 12932,-3414 4503,2656 6055,8449 3436,12984 -2656,4518 -10197,8022 -14688,5376z"/>
  <path class="fil2" d="M983253 898805c-5146,794 -9931,-5307 -10773,-10501 -815,-5155 2724,-9982 7933,-10814 5141,-821 10030,2709 10799,7870 815,5193 -2761,12630 -7959,13445z"/>
  <path class="fil2" d="M967468 906891c-2985,4314 -10704,3544 -14971,553 -4341,-2980 -5375,-8904 -2380,-13219 2992,-4283 8865,-5375 13158,-2374 4278,2980 7180,10746 4193,15040z"/>
  <path class="fil2" d="M960996 918739c2113,4796 -2567,10987 -7416,13052 -4820,2093 -10395,-124 -12471,-4936 -2108,-4785 120,-10354 4926,-12460 4795,-2071 12922,-455 14961,4344z"/>
  <path class="fil2" d="M969232 934680c3765,3656 1709,11133 -1998,14883 -3629,3734 -9632,3802 -13383,104 -3732,-3629 -3775,-9616 -124,-13371 3660,-3728 11813,-5302 15505,-1616z"/>
  <path class="fil2" d="M1000569 935383c3032,-4231 10747,-3341 14982,-298 4230,3043 5229,8968 2190,13257 -3105,4230 -9025,5182 -13250,2139 -4257,-3039 -7028,-10851 -3922,-15098z"/>
  <path class="fil2" d="M978022 889552c0,0 -4147,7865 -8806,11573 -4638,3686 -8232,13236 -7400,19417 717,5302 1700,8660 2621,12377 908,3677 6907,8321 13873,6918 6902,-1396 5716,3248 12623,1403 6987,-1883 17471,-4007 17016,-10930 -470,-6950 7849,-14218 1376,-22544 -6459,-8319 -3582,-11954 -17477,-11044 -8764,607 -10155,-6719 -13826,-7170z"/>
  <path class="fil3" d="M861603 718126c1077,3373 -16693,-29629 -64897,-23433 -37279,4790 -59541,25531 -85061,35786 -36950,14845 -109046,27961 -156890,-5329 -59886,-41642 -17565,-118598 -70298,-131776 0,0 26351,-7639 39561,-3471 0,0 -23245,-32678 4805,-96607 12483,-28447 -8748,-77452 -8748,-77452 0,0 49720,38090 53876,99148 1407,20254 14361,86138 47044,114130 55055,47143 111741,9765 154146,9765 46003,0 65969,15013 86462,79239z"/>
  <path class="fil3" d="M837841 146467c-7102,1986 83209,-96968 195797,-68002 68149,17529 68995,21226 115422,13267 0,0 -26263,38471 -62083,40459 0,0 53731,1328 80929,57052 18418,37734 33698,40355 33698,44089 0,5548 -26749,20100 -46797,14757 -554,-162 7431,11572 3786,41290 -2207,17990 -3561,20389 -4471,66063 -147,7222 6881,34168 25148,42917 11310,5413 -62309,13126 -102506,-139461 -17194,-65263 -108070,-149136 -238923,-112431z"/>
  <path class="fil4" d="M612159 887763c0,0 11159,-13126 13246,-14365 476,-277 -15474,-53403 17607,-71465 34180,-18663 75841,3875 113314,-30131 3744,-3399 6198,-25823 -454,-16060 -22476,32998 -90907,13419 -125254,34043 -12503,7505 -22413,22926 -26883,38901 -12614,45024 8424,59077 8424,59077z"/>
  <path class="fil4" d="M618244 816073c57126,10 49767,77760 35487,95556 -6161,7677 -15156,9418 -18387,10558 0,0 9282,19620 4921,25252 -2646,3409 -8074,184 -12315,2536 -6061,3326 -11490,-3749 -17336,-925 -5904,2849 -14794,1113 -19333,62 -3142,-716 2443,-16190 2892,-23970 -7650,-1920 -16111,-8451 -21711,-17697 -12069,-19694 -10187,-91382 45782,-91372z"/>
  <path class="fil1" d="M946367 869302c-15965,-7191 -11494,-36962 -29645,-64400 -17779,-26811 -33828,-75627 32359,-78602 57790,-2588 40220,9193 77640,1433 37406,-7755 56216,3911 67616,28165 11359,24258 16818,15944 35121,23128 25942,10162 44475,79943 -20311,72129 -37997,-4580 -59661,43614 -71679,38431 -9820,-4261 -24411,-14444 -25671,-25158 -2813,-24008 18664,-54652 8555,-55415 -12361,-927 -22637,54290 -43388,60941 -5417,1742 -17810,5151 -30597,-652z"/>
  <path class="fil1" d="M793676 1048653c-5349,19901 -6270,54060 61753,59656 50641,4162 43059,37453 82582,42300 39524,4878 67971,-24254 86023,-24976 18046,-679 45109,-2452 52006,-13162 13884,-21524 -8273,-133541 -69383,-143598 -50604,-8324 -43001,63139 -52702,63819 -18213,1291 3703,-75627 -23344,-83941 -27045,-8325 -116055,22648 -136935,99902z"/>
  <path class="fil1" d="M1065636 936942c-9810,1084 -23103,-3027 -23700,27006 -402,20257 19428,4810 66032,98017 9632,19266 46452,28982 84621,-151 38179,-29122 31203,-42283 26372,-61047 -3289,-12786 8993,-17325 17319,-21488 8319,-4162 13878,-69613 -26345,-91110 -41371,-22115 -121928,-39763 -142208,-471 -21482,41642 70716,34686 70042,63819 -104,5925 -39518,-18015 -72133,-14575z"/>
  <path class="fil1" d="M1481227 293525c-9339,2018 -7665,16325 -11457,40852 -3749,24535 -42566,30173 -54600,42205 -12005,12054 -14196,25818 -10981,52388 3185,26549 35611,12785 42457,30215 46249,117461 105157,76138 125540,85238 20327,9115 27701,30335 36172,28396 8403,-2004 15019,-55473 -13873,-114832 -11521,-23646 -14763,-38452 -12630,-48564 9200,-43473 -80913,-120207 -100628,-115898z"/>
  <path class="fil1" d="M1453997 557753c0,0 20116,-10580 24237,-5905 18581,21091 10863,70021 11490,91112 637,21100 6693,7870 6693,7870 0,0 2302,-92622 14847,-93140 16514,-690 38079,3734 49313,-2228 4235,-2248 19891,25514 25032,68211 5124,42714 7923,89564 -11087,99567 -15284,8027 -47926,1920 -69706,-3148 -21828,-5067 -21530,-10892 -44094,-6233 -22549,4654 -66125,18585 -67365,-15938 -1301,-34499 26905,-100483 60640,-140168z"/>
  <path class="fil1" d="M1315526 550378c-2582,14694 55631,-35388 73076,-24055 18470,12021 28081,27489 31454,31449 6735,7855 -11980,39193 -17126,52335 -5140,13157 -49329,97976 -96654,41092 -47289,-56880 -11767,-78042 -21027,-82713 -9183,-4665 -40973,14250 -47587,-43361 -2255,-19585 -2809,-63202 57412,-83000 60149,-19767 88789,1809 88789,1809 0,0 -9485,17486 -4560,41959 4854,24432 -60984,48748 -63777,64485z"/>
  <path class="fil1" d="M1454068 331491c0,0 -14773,-106894 -67193,-101659 -45678,4533 -52648,34252 -58296,43622 -5569,9320 -9042,36706 -21754,43049 -12728,6343 -59359,18726 -72500,53051 -3843,9983 -1527,51222 28280,59176 29860,7959 99321,-14878 116458,-587 17095,14303 8335,-33723 8335,-33723 0,0 -50295,-55018 -39105,-53893 7280,731 47577,46770 49439,39267 4884,-19731 58674,-35555 56336,-48303z"/>
  <path class="fil3" d="M1303398 1013794c0,0 68959,-60238 82764,-123643 22068,-101375 -22899,-137851 -56936,-165001 -15019,-11981 -107714,-48885 -99892,-120683 0,0 -4884,-4905 -9638,1334 -4758,6269 -18093,70464 14293,108692 0,0 -16341,2745 -37254,-15176 -9632,-8257 -2396,28176 0,35779 8022,25462 23956,53115 61475,70648 -29263,0 -50923,31654 -50923,31654 0,0 34921,-5962 53680,3676 54270,27872 62386,79366 42431,172720z"/>
  <path class="fil4" d="M1477394 907859c0,0 -29697,-3556 -39331,-36360 -3424,-11645 -4210,-35686 -1009,-46218 5005,-16414 18198,-20907 18198,-20907l-7514 -17235c0,0 4508,-1574 9314,-1307 4831,324 5532,-5219 7739,-5083 2212,157 6871,2661 11384,1804 4492,-815 3828,-8279 9821,-3112 5993,5214 6374,4868 8591,4984 2191,141 -2865,16498 -2865,16498 0,0 11018,-455 18805,9639 2845,3691 9632,13308 12388,33948 4696,35241 -8498,55054 -27856,63678 0,0 -19647,61455 -79241,109303 -59614,47838 -103604,61084 -123873,65389l0 -10596c0,0 69446,-20227 120176,-68300 57805,-54772 65273,-96125 65273,-96125z"/>
  <path class="fil4" d="M1031778 632437c0,0 -670,-5265 8256,-11436 3848,-2677 4899,-4555 4194,-6082 -753,-1537 -19014,-41139 7154,-86954 26152,-45751 70527,-45840 81248,-38671 0,0 7368,-1076 6787,-6353 -554,-5282 -1829,-12086 -1829,-12086 0,0 3796,-5904 9328,-3848 5596,2055 8468,5371 19056,10228 10538,4874 9104,9732 19475,14188 10385,4487 7232,3639 10532,10887 3325,7264 -17351,15003 -15255,19579 2098,4597 2317,136 7133,19333 6934,27725 -4251,55002 -28332,77414 -27067,25107 -81672,25394 -81672,25394 0,0 -11782,15077 -14465,16275 -2677,1264 -8115,1684 -11400,-2992 -753,-1040 -48601,31371 -117539,19317 -11171,-1955 -1282,-15129 -1282,-15129 0,0 66826,11307 101633,-18992 1825,-1559 -4555,-8169 -3022,-10072z"/>
  <path class="fil4" d="M1243030 113324c-1140,581 -14455,-21691 -19720,-21691 -5230,-11 -5480,4126 -7807,7007 -2328,2829 -6841,-559 -12212,5595 -5350,6155 3860,6753 -2112,11569 -5961,4826 -7353,9239 -7353,9239l20129 12048c0,0 -25263,20222 2301,54636 17230,21525 49751,30158 60006,27649 13879,-3395 -14841,73974 -71506,95272 0,0 -1188,10454 2809,10062 25340,-2494 97196,-52759 89614,-122712 0,0 16587,-32243 701,-60629 -12760,-22742 -33102,-39575 -54850,-28045z"/>
  <path class="fil0" d="M1298535 1379990c1051,0 1850,821 2134,1365l237083 380137c1851,3211 4015,4795 5606,4795 1845,0 3215,-2405 3215,-6913l0 -360726c0,-8257 -4806,-14631 -39989,-14631l-10652 0 0 -4027 101209 0 0 4027 -5318 0c-35146,0 -39937,6374 -39937,14631l0 386281 -5595 0c-821,0 -1882,-271 -2422,-1297l-248550 -398303 -2379 0c2379,9628 3215,14684 3215,29587l0 351371c0,7713 3431,14678 39910,14678l9357 0 0 3964 -105246 0 0 -3964 10667 0c36490,0 39978,-6965 39978,-14678l0 -351648c0,-28222 -18155,-30622 -50107,-30622l-3200 0 0 -4027 61021 0z"/>
  <path class="fil0" d="M754472 1651734l-85777 -239756c-4806,-13329 -5340,-16529 -5596,-17836l-6159 0 -92194 257592 189726 0zm-271460 129227l1301 0c22879,0 30655,-5317 35742,-19730l135849 -379336c548,-1360 1574,-1904 2410,-1904l7186 0c1840,0 2651,1637 2651,2683 0,5323 1338,13036 6678,27732l124886 348419c6156,16819 13869,22136 34927,22136l10674 0 0 3970 -103896 0 0 -3970 26653 0c21534,0 28218,-1845 28218,-9082 0,-2934 -1088,-6903 -2933,-11960l-37035 -102851 -193422 0 -38086 105789c-806,2663 -1338,4785 -1338,6631 0,9628 11738,11473 39178,11473l10913 0 0 3970 -90556 0 0 -3970z"/>
  <path class="fil0" d="M333724 1379990l0 4027 10673 0c35136,0 39915,6374 39915,14631l0 360726c0,4508 -1297,6913 -3147,6913 -1632,0 -3771,-1584 -5637,-4795l-237068 -380137c-272,-544 -1083,-1365 -2171,-1365l-60999 0 0 4027 3227 0c31929,0 50054,2400 50054,30622l0 312381c1464,-1814 3289,-3253 5314,-4387l0 -307717c0,-14903 -780,-19959 -3148,-29587l2368 0 248546 398303c528,1026 1631,1297 2390,1297l5610 0 0 -386281c0,-8257 4781,-14631 39969,-14631l5318 0 0 -4027 -101214 0z"/>
  <path class="fil0" d="M1825160 1394140l6128 0c235,1308 784,4512 5575,17837l85797 239756 -189694 0 92194 -257593zm-94045 262926l193417 0 34090 94786c1961,-819 4079,-1322 6123,-1944l-121733 -339505c-5350,-14695 -6704,-22407 -6704,-27732 0,-1040 -753,-2681 -2600,-2681l-7236 0c-816,0 -1852,542 -2396,1903l-135879 379337c-5051,14411 -12765,19735 -35691,19735l-1343 0 0 3969 90624 0 0 -3969 -10933 0c-27471,0 -39180,-1851 -39180,-11479 0,-1845 555,-3969 1324,-6630l38117 -105790z"/>
  <path class="fil0" d="M929302 1379990l0 4027 -20232 0c-28772,0 -39153,549 -39153,9581 0,2389 534,5050 1852,8538l130519 376169 130545 -376169c1359,-3488 1914,-6149 1914,-8538 0,-9032 -10423,-9581 -39162,-9581l-21602 0 0 -4027 104973 0 0 4027 -1360 0c-22067,0 -34906,5062 -39947,19699l-132407 382040 -7180 0 -132390 -382040c-5068,-14637 -17890,-19699 -39985,-19699l-1067 0 0 -4027 104682 0z"/>
  <path class="fil0" d="M128574 1727020c0,0 5313,-39147 5313,-35994 0,46317 3080,80789 -19296,91054 -24421,11144 -41611,-7122 -41611,-7122l5570 -9041c0,0 15259,16769 32071,9862 8633,-3472 15369,-15818 16645,-27041 1266,-11264 1308,-21718 1308,-21718z"/>
  <path class="fil0" d="M1957013 1728386c0,0 -16101,-25593 -15087,-22622 15212,43791 23605,77363 48094,79711 26774,2567 36998,-20384 36998,-20384l-8178 -6667c0,0 -6616,19729 -24746,19839 -12038,42 -20719,-9779 -25582,-19982 -4920,-10217 -11499,-29895 -11499,-29895z"/>
 </g>
</svg>
