<?xml version="1.0" encoding="UTF-8"?>
<!DOCTYPE svg PUBLIC "-//W3C//DTD SVG 1.1//EN" "http://www.w3.org/Graphics/SVG/1.1/DTD/svg11.dtd">
<!-- Creator: CorelDRAW X7 -->
<svg xmlns="http://www.w3.org/2000/svg" xml:space="preserve" width="100%" height="100%" version="1.1" style="shape-rendering:geometricPrecision; text-rendering:geometricPrecision; image-rendering:optimizeQuality; fill-rule:evenodd; clip-rule:evenodd"
viewBox="0 0 2100000 2100000"
 xmlns:xlink="http://www.w3.org/1999/xlink">
 <defs>
  <style type="text/css">
   <![CDATA[
    .str0 {stroke:#2B2A29;stroke-width:2000}
    .fil0 {fill:#FEFEFE}
    .fil1 {fill:#2B2A29}
   ]]>
  </style>
 </defs>
 <g id="Слой_x0020_1">
  <metadata id="CorelCorpID_0Corel-Layer"/>
  <rect class="fil0 str0" width="2099998" height="2100000"/>
  <polygon class="fil1" points="957546,686473 957546,629403 978570,629403 978570,634292 963321,634292 963321,651009 972548,648904 972548,653878 963321,656149 963321,681578 978570,681578 978570,686473 "/>
  <path class="fil1" d="M983337 672702l5294 0c0,1674 70,3047 241,4122 155,1075 385,1957 671,2647 270,526 583,946 952,1252 371,306 795,534 1282,698 471,157 1026,263 1650,320 625,50 1325,79 2120,79 798,0 1508,-22 2137,-64 625,-36 1165,-121 1652,-257 481,-134 910,-306 1294,-519 385,-214 752,-506 1095,-875 683,-713 1152,-1730 1393,-3047 229,-1310 360,-3096 360,-5352 0,-1402 -45,-2568 -131,-3501 -68,-954 -270,-1836 -584,-2648 -327,-804 -654,-1451 -993,-1928 -301,-505 -854,-1032 -1683,-1595 -796,-584 -1548,-1046 -2264,-1387 -767,-428 -1822,-948 -3145,-1559 -3472,-1666 -5605,-2740 -6402,-3217 -1838,-1253 -3076,-2854 -3701,-4818 -555,-1780 -842,-4455 -842,-8043 0,-1487 45,-2804 114,-3957 86,-1152 212,-2191 401,-3103 184,-918 441,-1715 781,-2391 326,-676 738,-1281 1209,-1808 486,-562 1024,-1011 1637,-1358 614,-343 1312,-620 2108,-833 798,-214 1692,-357 2705,-434 1010,-86 2149,-122 3428,-122 1295,0 2451,36 3472,122 1027,77 1937,220 2733,434 798,212 1496,491 2096,833 582,347 1124,783 1606,1316 471,533 870,1131 1197,1793 316,661 556,1437 727,2328 185,889 299,1893 385,3024 86,1124 114,2406 114,3836l-5295 -1c0,-1935 -103,-3465 -331,-4589 -224,-1132 -654,-2000 -1295,-2612 -326,-314 -654,-570 -997,-755 -338,-185 -740,-326 -1181,-419 -424,-93 -923,-158 -1479,-199 -567,-36 -1196,-58 -1920,-58 -657,0 -1241,22 -1724,58 -497,41 -939,106 -1340,199 -395,91 -752,242 -1066,441 -326,199 -641,455 -968,775 -625,633 -1066,1602 -1307,2882 -245,1289 -356,3018 -356,5197 0,611 0,1159 12,1651 17,490 45,924 74,1295 69,740 252,1452 551,2127 286,677 584,1217 870,1616 143,185 344,384 625,590 270,215 601,457 968,720 373,242 740,455 1112,655 385,199 755,390 1123,584 373,184 813,391 1353,632 527,242 1140,520 1822,833 372,192 711,341 997,463 299,122 540,228 755,335 569,270 1050,505 1479,719 426,213 785,398 1066,555 328,163 671,348 1027,561 355,206 711,435 1065,677 361,235 699,491 997,754 302,264 572,519 784,755 401,476 814,1095 1267,1850 454,754 785,1602 997,2526 213,904 385,1986 540,3246 143,1259 228,2697 257,4320 -29,1693 -98,3210 -200,4534 -115,1330 -270,2519 -498,3565 -225,1046 -511,1972 -883,2761 -355,797 -769,1487 -1251,2072 -1024,1117 -2364,1879 -3971,2291 -1626,412 -3701,606 -6250,577 -1307,0 -2463,-43 -3460,-121 -1010,-80 -1920,-221 -2717,-420 -797,-199 -1496,-470 -2109,-812 -608,-349 -1164,-783 -1663,-1317 -514,-527 -926,-1138 -1254,-1828 -338,-691 -597,-1501 -796,-2428 -200,-932 -344,-1992 -425,-3188 -73,-1188 -114,-2541 -114,-4057z"/>
  <polygon class="fil1" points="1013199,634292 1013199,629403 1041013,629403 1041013,634292 1030066,634292 1030066,686473 1024304,686473 1024304,634292 "/>
  <path class="fil1" d="M1048443 685841c-738,-747 -1112,-1652 -1112,-2711 1,-1061 372,-1966 1112,-2706 739,-740 1650,-1117 2704,-1117 1067,0 1965,377 2717,1117 740,740 1112,1645 1112,2706 0,1059 -373,1964 -1112,2711 -752,740 -1650,1110 -2717,1110 -1053,0 -1965,-370 -2704,-1110z"/>
  <path class="fil1" d="M1061468 686473l0 -12141c0,-2227 97,-4092 298,-5586 201,-1502 481,-2790 866,-3866 384,-1074 984,-2005 1793,-2803 814,-797 1679,-1473 2606,-2028 941,-563 2190,-1181 3787,-1873 1297,-554 2276,-989 2947,-1294 655,-306 1421,-684 2262,-1132 856,-456 1450,-839 1794,-1153 340,-320 752,-754 1209,-1295 471,-549 768,-1075 923,-1595 145,-519 303,-1195 471,-2028 173,-840 273,-1701 302,-2590 30,-883 40,-1993 40,-3324 2,-1538 -27,-2804 -85,-3801 -40,-989 -183,-1871 -396,-2640 -201,-776 -442,-1360 -715,-1758 -252,-392 -666,-711 -1209,-953 -540,-235 -1124,-392 -1737,-457 -612,-63 -1421,-99 -2463,-99 -1295,0 -2263,65 -2889,200 -623,135 -1209,498 -1765,1096 -554,597 -923,1488 -1095,2683 -169,1195 -257,2854 -257,4974l-6292 0c30,-3046 241,-5480 642,-7280 401,-1807 1111,-3217 2149,-4242 1026,-1018 2263,-1687 3701,-2007 1422,-321 3388,-477 5879,-477 1836,0 3387,79 4641,235 1267,164 2391,469 3388,919 998,448 1776,1018 2361,1693 586,676 1065,1608 1453,2805 387,1195 655,2540 781,4034 132,1501 200,3353 200,5559 1,1964 -56,3672 -184,5132 -113,1458 -273,2732 -457,3821 -182,1089 -498,2042 -952,2861 -455,826 -883,1502 -1266,2036 -401,527 -1013,1045 -1823,1550 -812,506 -1540,919 -2206,1253 -669,335 -1610,762 -2819,1296 -240,107 -428,186 -572,235 -1208,533 -2161,947 -2814,1238 -668,291 -1398,641 -2166,1053 -783,412 -1365,741 -1724,997 -354,249 -739,591 -1164,1010 -427,427 -711,819 -855,1174 -158,364 -313,826 -485,1396 -167,569 -270,1160 -299,1772 -26,611 -40,1337 -40,2185l0 8320 18987 0 0 4895 -24751 0z"/>
  <path class="fil1" d="M1115997 657857c0,-3843 -29,-7003 -99,-9473 -74,-2469 -245,-4641 -515,-6526 -281,-1887 -584,-3296 -894,-4242 -326,-940 -842,-1702 -1541,-2285 -692,-584 -1422,-939 -2149,-1074 -723,-135 -1749,-200 -3043,-200 -1294,0 -2321,65 -3048,200 -725,135 -1439,491 -2149,1074 -698,583 -1210,1345 -1524,2285 -325,946 -609,2355 -882,4242 -270,1885 -425,4057 -499,6505 -68,2455 -99,5622 -99,9494 1,3878 29,7052 99,9530 75,2483 229,4668 499,6547 274,1886 556,3309 882,4263 316,953 825,1729 1524,2327 711,598 1421,961 2177,1097 740,127 1753,199 3020,199 1280,0 2275,-72 3030,-199 741,-136 1468,-499 2162,-1097 700,-598 1226,-1374 1552,-2327 329,-954 630,-2377 883,-4263 242,-1879 413,-4063 486,-6547 86,-2478 126,-5652 128,-9530zm-22733 -235c0,-3985 115,-7452 343,-10413 227,-2954 499,-5465 797,-7522 299,-2057 826,-3758 1553,-5110 725,-1353 1405,-2406 2034,-3146 613,-741 1553,-1295 2803,-1651 1239,-364 2333,-577 3272,-654 958,-86 2292,-122 4045,-122 1279,0 2276,22 2990,57 714,43 1565,149 2562,321 998,170 1765,434 2305,796 555,356 1180,862 1891,1509 728,655 1270,1467 1638,2449 372,982 768,2192 1197,3622 425,1430 724,3104 911,5018 185,1906 339,4114 482,6626 133,2504 200,5323 200,8455 1,3558 -69,6704 -200,9451 -140,2747 -383,5131 -752,7145 -385,2014 -743,3736 -1099,5154 -353,1422 -923,2590 -1691,3501 -767,918 -1454,1629 -2039,2135 -578,505 -1463,874 -2647,1110 -1178,242 -2177,384 -3003,441 -825,50 -2018,79 -3571,79 -1593,0 -2806,-36 -3631,-100 -825,-65 -1835,-278 -3016,-640 -1194,-356 -2092,-905 -2675,-1652 -583,-740 -1238,-1808 -1965,-3202 -728,-1395 -1255,-3131 -1581,-5210 -309,-2086 -585,-4662 -810,-7722 -228,-3068 -343,-6640 -343,-10725z"/>
  <polygon class="fil1" points="1128294,634292 1128294,629403 1141835,629403 1141835,686473 1136011,686473 1136011,634292 "/>
  <path class="fil1" d="M1155483 668958c0,1965 40,3574 154,4819 103,1246 327,2427 654,3545 331,1109 813,1971 1438,2562 614,598 1426,1074 2423,1416 993,341 2234,520 3726,520 1399,0 2578,-158 3517,-463 940,-299 1724,-754 2333,-1352 614,-599 1083,-1459 1410,-2584 327,-1131 556,-2391 669,-3787 127,-1387 184,-3145 184,-5265 0,-2577 -86,-4733 -253,-6471 -172,-1736 -429,-3195 -784,-4362 -343,-1167 -842,-2049 -1496,-2661 -640,-613 -1380,-1046 -2218,-1295 -841,-250 -1879,-378 -3134,-378 -2304,0 -4057,442 -5250,1331 -1195,889 -2051,2448 -2578,4675 -538,2228 -796,5481 -795,9750zm-6292 -1152l0 -26226c0,-4619 1094,-7865 3300,-9750 2208,-1887 5724,-2826 10549,-2826 4555,0 7828,876 9793,2627 1967,1750 3015,4810 3174,9195l-6118 0c-30,-1147 -116,-2050 -246,-2726 -127,-684 -425,-1360 -867,-2050 -457,-690 -1181,-1195 -2178,-1516 -995,-321 -2292,-477 -3873,-477 -2816,0 -4727,584 -5736,1751 -1008,1167 -1507,3195 -1507,6093l1 13087c229,-1452 640,-2654 1209,-3600 569,-941 1306,-1638 2217,-2086 928,-455 1839,-754 2734,-918 899,-157 1994,-236 3260,-236 1868,0 3444,150 4756,457 1323,305 2549,875 3701,1708 1166,840 2075,1985 2746,3444 682,1459 1209,3360 1592,5694 386,2334 585,5146 585,8434 1,3238 -184,5978 -556,8220 -367,2242 -911,4070 -1593,5473 -697,1408 -1651,2505 -2889,3288 -1238,782 -2561,1309 -3998,1586 -1438,278 -3220,421 -5369,421 -1805,0 -3359,-100 -4666,-299 -1294,-199 -2538,-548 -3702,-1054 -1168,-505 -2120,-1209 -2863,-2114 -738,-896 -1377,-2056 -1933,-3480 -542,-1416 -927,-3117 -1168,-5095 -241,-1972 -355,-4320 -355,-7025z"/>
  <path class="fil1" d="M689253 617615c5371,-2841 8064,-4236 13473,-6971 1945,3849 3746,6910 5397,9182 1650,2272 3252,4106 4768,5243 1210,906 2552,1461 3835,1702 1275,244 2595,256 3972,40 1373,-218 2863,-642 4478,-1273 1618,-629 3423,-1422 5413,-2367 1994,-947 3750,-1830 5270,-2653 1520,-823 2814,-1662 3873,-2525 1058,-864 1960,-1763 2709,-2704 740,-938 1348,-2055 1837,-3309 970,-2458 1117,-5391 353,-8758 -757,-3370 -2305,-7719 -4654,-13045 -1466,-3318 -2786,-6028 -3963,-8130 -1209,-2157 -2655,-4010 -4347,-5540 -1694,-1531 -3375,-2621 -4686,-3361 -1286,-726 -3423,-1376 -6169,-1722 -2712,-342 -5343,-492 -7591,-461 -2463,34 -5936,112 -10152,365 -11116,666 -18283,1123 -20909,1040 -6218,-196 -11661,-2305 -15701,-5889 -3640,-3230 -7636,-8975 -11950,-17152 -1789,-3388 -3269,-6461 -4433,-9210 -1164,-2752 -2030,-5315 -2602,-7683 -571,-2368 -789,-4576 -646,-6615 140,-2041 617,-4044 1332,-5956 731,-1956 1753,-3829 3117,-5522 1366,-1692 3085,-3367 5156,-5018 2076,-1648 4540,-3291 7399,-4913 2864,-1622 6164,-3329 9911,-5101 3820,-1807 7289,-3300 10390,-4496 3097,-1195 5944,-2064 8523,-2614 2573,-549 4931,-799 7050,-756 2125,42 4160,390 6112,1040 1954,649 3734,1562 5336,2740 1611,1176 3113,2715 4510,4614 1398,1900 2774,4146 4135,6727 1357,2582 2754,5581 4184,8990 -6071,2556 -9103,3864 -15141,6537 -2023,-4572 -3947,-8044 -5778,-10413 -1834,-2369 -4024,-3843 -6491,-4468 -1254,-317 -2496,-489 -3693,-472 -1205,22 -2492,214 -3865,580 -1372,366 -2892,879 -4552,1537 -1662,658 -3533,1478 -5608,2461 -1920,910 -3575,1758 -4948,2533 -1373,777 -2582,1553 -3624,2326 -1040,773 -1908,1617 -2598,2529 -690,912 -1312,1962 -1859,3152 -1095,2377 -1230,5225 -421,8530 809,3305 2480,7469 5005,12483 706,1404 1361,2665 1969,3779 609,1109 1157,2103 1666,2895 1034,1594 2415,2983 4000,4140 1590,1160 3019,1995 4265,2521 577,244 1369,429 2378,546 1006,112 2195,258 3489,343 1254,81 2549,68 3792,34 1242,-32 2476,-72 3701,-127 1222,-57 2693,-154 4409,-286 1715,-131 3725,-300 5927,-402 1202,-55 2297,-103 3224,-193 924,-88 1740,-135 2434,-158 1791,-61 3408,-127 4793,-153 1381,-25 2577,-13 3526,-11 1026,1 2156,15 3362,80 1202,65 2411,168 3636,300 1230,136 2394,338 3498,603 1107,266 2087,551 2888,874 1561,628 3354,1632 5343,2906 1991,1273 3731,2913 5234,4863 1467,1901 3040,4274 4690,7108 1647,2836 3404,6205 4993,9992 1664,3970 2949,7745 4000,11016 1050,3269 1805,6277 2279,9009 475,2736 654,5242 552,7518 -106,2278 -425,4442 -1071,6264 -1306,3689 -3996,7010 -7582,9777 -3591,2767 -8580,5542 -14835,8469 -3194,1495 -6079,2796 -8641,3818 -2561,1026 -4926,1800 -7105,2316 -2180,514 -4220,757 -6111,728 -1894,-30 -3775,-333 -5642,-909 -1867,-575 -3624,-1436 -5262,-2586 -1642,-1147 -3268,-2652 -4883,-4512 -1605,-1859 -3231,-4099 -4873,-6715 -1639,-2620 -3375,-5651 -5200,-9101z"/>
  <path class="fil1" d="M729543 489844c-1878,-4689 -2819,-7034 -4698,-11725 33337,-13374 50279,-19214 84487,-29197 1415,4850 2120,7276 3538,12126 -13273,3873 -19884,5940 -33035,10331 14210,42568 28423,85135 42632,127702 -5903,1972 -8849,2988 -14720,5082 -15067,-42272 -30134,-84544 -45202,-126815 -13273,4732 -19875,7231 -33002,12496z"/>
  <path class="fil1" d="M864278 586428c-12878,-47368 -25764,-94734 -38640,-142102 25943,-7055 39019,-10098 65305,-15218 965,4959 1451,7439 2415,12398 -18805,3662 -28173,5746 -46808,10413 4194,16735 6289,25104 10480,41839 10222,-4804 15382,-7127 25800,-11611 1087,5018 1634,7528 2721,12546 -10226,4609 -15284,6993 -25302,11915 6379,25462 9568,38193 15946,63653 16122,-4038 24227,-5839 40499,-9008 970,4958 1450,7439 2415,12398 -22065,4299 -33047,6855 -54831,12777z"/>
  <path class="fil1" d="M944072 521923c15270,-5719 23017,-8399 38692,-13381 -6752,-31272 -10303,-46880 -17731,-78037 -9415,1060 -14119,1653 -23512,2962 602,35415 1116,53111 2551,88456zm-12620 49429c-3228,-49346 -5427,-98758 -6575,-148195 21514,-3359 32317,-4716 53953,-6792 11175,48176 21335,96587 30453,145193 -6049,451 -9073,706 -15116,1275 -3419,-16842 -5180,-25254 -8804,-42066 -16624,5299 -24823,8165 -40986,14304 821,13504 1255,20254 2178,33749 -6050,951 -9069,1459 -15103,2532z"/>
  <path class="fil1" d="M1019967 560838c-2963,-48999 -5932,-97995 -8894,-146993 8268,-500 12407,-704 20684,-1016 13925,20682 20513,31163 32934,52334 12420,-21223 19013,-31731 32957,-52466 8179,276 12269,461 20439,920 -2756,49009 -5510,98020 -8272,147029 -6182,-348 -9274,-490 -15464,-714 1475,-40708 2941,-81417 4412,-122125 -14456,21880 -21260,32975 -34012,55389 -12896,-22360 -19773,-33424 -34379,-55238 1653,40701 3305,81403 4952,122104 -6145,249 -9217,404 -15357,776z"/>
  <path class="fil1" d="M1123470 561534c3627,-48952 7249,-97906 10874,-146858 26611,1967 39894,3437 66340,7341 -739,4998 -1107,7497 -1847,12496 -18914,-2792 -28406,-3938 -47420,-5727 -1618,17176 -2427,25765 -4044,42942 11175,-1136 16786,-1613 28067,-2381 -645,5092 -968,7640 -1614,12734 -11137,952 -16677,1521 -27696,2835 -2458,26132 -3689,39199 -6148,65330 16449,1548 24660,2540 41030,4956 -738,4998 -1108,7497 -1846,12495 -22203,-3277 -33358,-4509 -55696,-6163z"/>
  <path class="fil1" d="M1219907 527211c16330,-311 24548,-259 41079,279 4016,-31740 5858,-47642 9204,-79499 -9276,-2141 -13927,-3149 -23243,-5043 -11221,33597 -16631,50453 -27040,84263zm-28355 42418c13369,-47611 27737,-94940 43102,-141943 21434,3989 32108,6306 53324,11579 -5458,49157 -11955,98198 -19496,147080 -5902,-1603 -8857,-2373 -14781,-3857 2371,-17021 3501,-25542 5670,-42603 -17529,-556 -26244,-585 -43551,-173 -3720,13008 -5556,19519 -9175,32551 -6031,-1115 -9050,-1640 -15093,-2634z"/>
  <path class="fil1" d="M1287594 554783c5725,1632 8583,2475 14282,4215 -1256,4125 -2083,7578 -2471,10360 -387,2781 -511,5208 -213,7076 235,1486 805,2814 1549,3869 741,1054 1667,1973 2790,2760 1124,787 2472,1509 4054,2163 1582,658 3410,1327 5474,2012 2071,686 3929,1259 5576,1710 1652,452 3154,738 4503,841 1350,104 2615,79 3795,-90 1176,-166 2377,-556 3596,-1124 2385,-1113 4509,-3131 6282,-6091 1783,-2959 3669,-7172 5655,-12644 1238,-3410 2157,-6281 2761,-8612 623,-2394 863,-4729 703,-7005 -157,-2276 -609,-4221 -1038,-5661 -420,-1410 -1503,-3355 -3227,-5496 -1703,-2117 -3477,-4041 -5098,-5563 -1781,-1674 -4315,-4010 -7485,-6729 -8361,-7170 -13744,-11768 -15545,-13634 -4265,-4419 -6660,-9685 -7060,-15059 -357,-4844 752,-11751 3296,-20638 1059,-3683 2113,-6926 3171,-9716 1065,-2796 2202,-5246 3415,-7354 1219,-2109 2575,-3855 4070,-5236 1492,-1380 3199,-2504 5013,-3397 1857,-913 3857,-1566 5981,-1852 2126,-290 4485,-318 7088,-87 2599,232 5470,740 8616,1535 3147,795 6664,1832 10548,3131 3966,1322 7465,2632 10505,3903 3037,1271 5667,2605 7893,3984 2220,1381 4081,2823 5572,4318 1497,1494 2717,3152 3669,4968 958,1817 1605,3710 1945,5665 344,1959 363,4114 56,6450 -303,2334 -865,4911 -1670,7715 -803,2803 -1871,5935 -3195,9390 -6132,-2350 -9209,-3494 -15377,-5726 1701,-4701 2716,-8539 3036,-11516 319,-2976 -238,-5555 -1570,-7706 -677,-1093 -1451,-2075 -2316,-2887 -878,-817 -1929,-1565 -3163,-2244 -1231,-681 -2667,-1358 -4305,-2026 -1637,-668 -3535,-1363 -5688,-2081 -1993,-665 -3750,-1188 -5257,-1573 -1512,-385 -2905,-653 -4175,-810 -1271,-158 -2465,-145 -3580,41 -1115,186 -2276,519 -3477,1003 -2408,967 -4457,2931 -6148,5884 -1691,2951 -3358,7116 -5005,12481 -460,1503 -862,2866 -1193,4092 -330,1221 -625,2316 -805,3242 -362,1865 -334,3822 -3,5749 331,1932 772,3521 1290,4757 247,574 679,1254 1315,2032 635,772 1377,1698 2240,2648 838,923 1765,1807 2667,2635 908,835 1815,1654 2722,2455 907,802 2022,1744 3333,2829 1313,1089 2860,2349 4502,3794 897,787 1709,1506 2431,2080 721,573 1337,1103 1847,1562 1321,1191 2517,2256 3530,3193 1005,939 1851,1766 2533,2424 732,705 1532,1499 2349,2374 818,876 1614,1786 2403,2727 785,945 1478,1895 2086,2847 615,958 1120,1840 1476,2628 687,1530 1282,3495 1834,5788 553,2294 670,4681 404,7128 -255,2388 -764,5190 -1532,8376 -771,3184 -1834,6837 -3305,10669 -1544,4018 -3219,7636 -4727,10725 -1502,3089 -3034,5784 -4579,8085 -1546,2304 -3146,4240 -4792,5814 -1650,1574 -3372,2918 -5091,3790 -3485,1764 -7702,2310 -12174,1837 -4476,-475 -9957,-1907 -16421,-4095 -3299,-1119 -6242,-2161 -8763,-3185 -2520,-1020 -4731,-2088 -6627,-3212 -1893,-1126 -3505,-2349 -4824,-3676 -1318,-1322 -2439,-2838 -3362,-4537 -923,-1699 -1574,-3530 -1946,-5491 -374,-1962 -489,-4167 -355,-6623 140,-2451 519,-5195 1152,-8215 636,-3019 1484,-6410 2554,-10163z"/>
  <path class="fil1" d="M1404881 476786c7359,2918 11022,4418 18326,7499 -359,31991 -1017,47901 -3284,79470 22580,-22200 34288,-33012 58520,-53987 7094,3561 10622,5382 17657,9106 -31988,25175 -47313,38345 -76557,65676 -9278,19603 -13919,29404 -23201,49005 -5610,-2657 -8429,-3956 -14079,-6494 8887,-19786 13326,-29677 22208,-49462 1794,-39996 1880,-60193 410,-100813z"/>
  <polygon class="fil1" points="621233,591117 634021,599605 648263,593883 644140,608668 653986,620445 638651,621093 630491,634094 625136,619710 610252,615969 622275,606430 "/>
  <polygon class="fil1" points="1463829,587030 1476618,595519 1490859,589797 1486736,604582 1496580,616359 1481247,617008 1473088,630008 1467732,615625 1452845,611883 1464872,602344 "/>
  <path class="fil1" d="M542576 1062577l91155 0 0 -228206 -91155 0 0 228206zm0 278985l-81195 0 0 -586747 253545 0 0 387319 -172350 0 0 199428z"/>
  <path class="fil1" d="M1175719 1448888l0 111843 23145 -5131c4770,-1103 8581,-2166 11330,-3174 2264,-826 4867,-2394 7787,-4650 2562,-1985 4470,-4424 5805,-7459 1567,-3543 2947,-8675 4127,-15256 1197,-6712 1794,-14978 1794,-24541 1,-11424 -781,-20959 -2305,-28342 -1380,-6667 -3431,-11692 -6119,-14936 -2617,-3174 -5466,-5275 -8654,-6422 -3615,-1279 -8342,-1932 -14009,-1932l-22901 0zm98186 238415l-42216 0 -10762 -56665c-3231,-17441 -7174,-30731 -11729,-39613l-33479 7689 0 88589 -40938 0 0 -275360 60212 0c6660,0 11712,61 15157,192 3775,126 8628,731 14834,1834 6735,1189 11970,2896 16011,5217 3804,2194 7872,5344 12456,9650 4912,4633 8669,10287 11174,16783 2263,5907 4258,13445 5908,22389 1650,9004 2489,19324 2489,30697 1,15493 -1492,28782 -4442,39491 -3088,11181 -6946,19586 -11782,25693 -3504,4405 -7861,8613 -12984,12547 4458,9731 9094,24533 14078,44931l16013 65936z"/>
  <path class="fil1" d="M1045535 1448888l-13949 138988 48197 -11170 -12868 -127818 -21380 0zm86273 238415l-40695 0 -7646 -73980 -56079 12956 -5210 61024 -40995 0 29580 -275360 91294 0 29751 275360z"/>
  <path class="fil1" d="M878928 1650363l22899 0c12172,0 20027,-3228 24043,-9851 4670,-7721 7043,-21351 7043,-40511 0,-30719 -4935,-43690 -9065,-49164 -5323,-7012 -13609,-8923 -25751,-6272l-19169 4192 0 101606zm0 -201475l0 59717 11611 -1496c4585,-654 8755,-1544 12330,-2639 3457,-1066 6275,-2193 8367,-3338 1822,-988 3317,-2168 4584,-3615 1810,-2043 2733,-3444 3190,-4265 356,-646 883,-1884 1295,-4090 398,-2121 639,-3788 711,-4996 42,-1316 70,-3224 70,-5651 0,-5626 -86,-9936 -252,-12934 -160,-2631 -602,-5344 -1329,-8138 -711,-2742 -1422,-3469 -1422,-3477 -511,-470 -1777,-1422 -4670,-2668 -2246,-960 -5049,-1602 -8326,-1891 -3896,-352 -8796,-519 -14716,-519l-11443 0zm22899 238415l-63851 0 0 -275360 56025 0c23172,0 40068,4228 51655,12918 12068,9037 18189,23605 18189,43289 1,17024 -3800,30449 -11301,39899 -2990,3779 -6475,7161 -10434,10116 8601,3529 15443,9375 20684,17515 8797,13697 13066,34080 13066,62323 1,17179 -1552,31724 -4613,43241 -3231,12199 -8428,21812 -15443,28570 -6887,6618 -14818,11263 -23556,13833 -8257,2426 -18492,3656 -30421,3656z"/>
  <path class="fil1" d="M1467837 1098688l74851 0 -14904 -264317 -45041 0 -14906 264317zm170782 242874l-80446 0 -9848 -163317 -86125 0 -9848 163317 -80446 0 39400 -586747 187913 0 387 5718 39013 581029z"/>
  <path class="fil1" d="M1149061 1046165l91977 0 0 -211794 -91977 0 0 211794zm187800 295397l-86772 0 -69757 -215844 -31271 0 0 215844 -81196 0 0 -586747 254366 0 0 370903 -55947 0 70577 215844z"/>
  <path class="fil1" d="M847405 1098688l74849 0 -14907 -264317 -45039 0 -14903 264317zm170776 242874l-80442 0 -9846 -163317 -86125 0 -9847 163317 -80446 0 39400 -586747 187910 0 385 5718 39011 581029z"/>
 </g>
</svg>
