<?xml version="1.0" encoding="utf-8"?>
<!-- Generator: Adobe Illustrator 19.2.0, SVG Export Plug-In . SVG Version: 6.00 Build 0)  -->
<svg version="1.1" id="svg" xmlns="http://www.w3.org/2000/svg" xmlns:xlink="http://www.w3.org/1999/xlink" x="0px" y="0px"
	 viewBox="0 0 1476.2 322.6" style="enable-background:new 0 0 1476.2 322.6;" xml:space="preserve">
<style type="text/css">
	.st0{fill:#303030;}
	.st1{fill:#FFFFFF;}
</style>
<path class="st0" d="M489.7,56.4h-2.1c-0.3,0-0.6-0.1-0.8-0.2c-0.2-0.1-0.4-0.4-0.6-0.7L475.3,42c-0.2-0.3-0.4-0.5-0.6-0.7
	s-0.4-0.4-0.7-0.5c-0.3-0.1-0.6-0.2-0.9-0.3s-0.7-0.1-1.2-0.1h-4.3v16h-2.4V23.2h2.4v15.3h3.8c0.4,0,0.7,0,1.1-0.1
	c0.3,0,0.6-0.1,0.9-0.2c0.3-0.1,0.6-0.3,0.8-0.5c0.3-0.2,0.5-0.5,0.8-0.8L485.4,24c0.2-0.2,0.3-0.4,0.6-0.5c0.2-0.1,0.5-0.2,0.8-0.2
	h1.9l-11.3,14.1c-0.4,0.5-0.8,1-1.3,1.3s-1,0.6-1.6,0.7c0.7,0.2,1.3,0.4,1.8,0.8s0.9,0.9,1.4,1.5L489.7,56.4z"/>
<path class="st0" d="M518.6,56.4h-2.4V25.1h-13.4c-0.2,4.4-0.5,8.2-0.8,11.5s-0.8,6.1-1.2,8.4c-0.5,2.3-1,4.3-1.6,5.8
	s-1.3,2.7-2,3.6c-0.7,0.9-1.5,1.5-2.4,1.8s-1.7,0.5-2.7,0.5c-0.5,0-0.9,0-1.3-0.1s-0.6-0.2-0.6-0.4v-1.5h1.4c0.7,0,1.4-0.2,2.1-0.5
	s1.3-0.9,1.9-1.8c0.6-0.9,1.2-2,1.7-3.5s1-3.4,1.4-5.7s0.8-5.1,1.1-8.4c0.3-3.3,0.6-7.1,0.7-11.6h18L518.6,56.4L518.6,56.4z"/>
<path class="st0" d="M530.8,56.4h-2.4V23.2h2.4V56.4z"/>
<path class="st0" d="M566.3,23.2v33.2h-2.4V40.5h-20.8v15.9h-2.4V23.2h2.4v15.5h20.8V23.2H566.3z"/>
<path class="st0" d="M578.5,56.4h-2.4V23.2h2.4V56.4z"/>
<path class="st0" d="M612.8,56.4h-2.1c-0.3,0-0.6-0.1-0.8-0.2c-0.2-0.1-0.4-0.4-0.6-0.7L598.4,42c-0.2-0.3-0.4-0.5-0.6-0.7
	c-0.2-0.2-0.4-0.4-0.7-0.5s-0.6-0.2-0.9-0.3c-0.3-0.1-0.7-0.1-1.2-0.1h-4.3v16h-2.4V23.2h2.4v15.3h3.8c0.4,0,0.7,0,1.1-0.1
	c0.3,0,0.6-0.1,0.9-0.2c0.3-0.1,0.6-0.3,0.8-0.5c0.3-0.2,0.5-0.5,0.8-0.8L608.5,24c0.2-0.2,0.3-0.4,0.6-0.5c0.2-0.1,0.5-0.2,0.8-0.2
	h1.9l-11.3,14.1c-0.4,0.5-0.8,1-1.3,1.3s-1,0.6-1.6,0.7c0.7,0.2,1.3,0.4,1.8,0.8s0.9,0.9,1.4,1.5L612.8,56.4z"/>
<path class="st0" d="M643.6,56.4h-1.9c-0.2,0-0.4-0.1-0.5-0.2s-0.3-0.3-0.3-0.5l-3.9-9.6h-16.3l-3.9,9.6c-0.1,0.2-0.2,0.3-0.3,0.4
	s-0.3,0.2-0.6,0.2H614l13.6-33.2h2.4L643.6,56.4z M636.2,44.3l-6.8-16.8c-0.2-0.5-0.5-1.2-0.7-2c-0.1,0.4-0.2,0.7-0.3,1.1
	c-0.1,0.3-0.2,0.6-0.4,0.9l-6.8,16.8H636.2z"/>
<path class="st0" d="M681.8,54.4v2h-19.9V23.2h19.9v2h-17.5v13.4h14.6v1.9h-14.6v13.8h17.5V54.4z"/>
<path class="st0" d="M712.2,50.8c0.2,0,0.3,0.1,0.4,0.2l0.9,1c-0.7,0.7-1.4,1.4-2.2,2s-1.7,1.1-2.7,1.5s-2,0.7-3.2,1
	c-1.1,0.2-2.4,0.3-3.8,0.3c-2.3,0-4.4-0.4-6.3-1.2c-1.9-0.8-3.6-1.9-4.9-3.4c-1.4-1.5-2.4-3.3-3.2-5.4c-0.8-2.1-1.1-4.4-1.1-7
	c0-2.5,0.4-4.8,1.2-6.9s1.9-3.9,3.3-5.4s3.1-2.7,5.1-3.5s4.1-1.2,6.5-1.2c2.3,0,4.3,0.4,6,1.1c1.8,0.7,3.3,1.7,4.8,3l-0.7,1.1
	c-0.1,0.2-0.3,0.3-0.6,0.3c-0.2,0-0.5-0.2-0.9-0.5s-1-0.7-1.8-1.1s-1.7-0.8-2.8-1.1c-1.1-0.3-2.5-0.5-4-0.5c-2,0-3.8,0.3-5.5,1
	s-3.1,1.7-4.3,3s-2.1,2.8-2.8,4.7c-0.7,1.8-1,3.9-1,6.2s0.3,4.4,1,6.3c0.7,1.8,1.6,3.4,2.8,4.7s2.6,2.3,4.2,2.9c1.6,0.7,3.4,1,5.2,1
	c1.2,0,2.2-0.1,3.2-0.2c0.9-0.2,1.8-0.4,2.6-0.7s1.5-0.7,2.2-1.1c0.7-0.5,1.3-1,2-1.6c0.1-0.1,0.2-0.1,0.2-0.2
	C712.1,50.8,712.2,50.8,712.2,50.8z"/>
<path class="st0" d="M741.6,25.2h-11.7v31.2h-2.4V25.2h-11.7v-2h25.8L741.6,25.2L741.6,25.2z"/>
<path class="st0" d="M767.1,54.4v2h-19.9V23.2h19.9v2h-17.5v13.4h14.6v1.9h-14.6v13.8h17.5V54.4z"/>
<path class="st0" d="M796,25.2h-11.7v31.2h-2.4V25.2h-11.7v-2H796V25.2z"/>
<path class="st0" d="M827.2,23.2v33.2h-2.4V29.1c0-0.5,0-1,0-1.5s0.1-1.1,0.1-1.6c-0.2,0.5-0.4,0.9-0.7,1.3
	c-0.2,0.4-0.4,0.8-0.7,1.1l-19.2,27.2c-0.1,0.2-0.3,0.4-0.5,0.5s-0.4,0.2-0.6,0.2h-1.8V23.2h2.4v27.3c0,0.5,0,1,0,1.5
	s-0.1,1-0.1,1.6c0.2-0.5,0.4-0.9,0.6-1.3c0.2-0.4,0.4-0.8,0.7-1.1L824.2,24c0.1-0.2,0.3-0.4,0.5-0.5c0.2-0.2,0.4-0.2,0.6-0.2
	L827.2,23.2L827.2,23.2z"/>
<path class="st0" d="M857.4,23.2v33.2H855V40.6c-1.8,0.5-3.5,0.9-5.2,1.3s-3.3,0.5-4.8,0.6s-2.9,0-4.2-0.3s-2.4-0.7-3.3-1.4
	c-0.9-0.7-1.6-1.6-2.2-2.7c-0.5-1.1-0.8-2.5-0.8-4.2V23.2h2.4v10.7c0,1.9,0.4,3.3,1.3,4.4c0.8,1,2,1.7,3.6,2.1
	c1.6,0.3,3.4,0.4,5.6,0.1c2.2-0.3,4.7-0.8,7.4-1.6V23.2H857.4z"/>
<path class="st0" d="M892.9,23.2v33.2h-2.4V40.5h-20.8v15.9h-2.4V23.2h2.4v15.5h20.8V23.2H892.9z"/>
<path class="st0" d="M932.2,39.8c0,2.6-0.4,4.9-1.1,7c-0.8,2.1-1.8,3.9-3.2,5.3s-3.1,2.6-5,3.4c-1.9,0.8-4.1,1.2-6.4,1.2
	c-2.3,0-4.5-0.4-6.4-1.2s-3.6-1.9-5-3.4s-2.5-3.3-3.2-5.3c-0.8-2.1-1.1-4.4-1.1-7s0.4-4.9,1.1-7s1.8-3.9,3.2-5.4s3.1-2.6,5-3.4
	s4.1-1.2,6.4-1.2c2.3,0,4.5,0.4,6.4,1.2c1.9,0.8,3.6,2,5,3.4s2.5,3.3,3.2,5.4S932.2,37.2,932.2,39.8z M929.7,39.8
	c0-2.3-0.3-4.4-1-6.2c-0.6-1.8-1.5-3.4-2.7-4.7c-1.2-1.3-2.6-2.3-4.2-2.9c-1.6-0.7-3.5-1-5.4-1c-2,0-3.8,0.3-5.4,1
	c-1.6,0.7-3.1,1.7-4.2,2.9c-1.2,1.3-2.1,2.8-2.7,4.7c-0.6,1.8-1,3.9-1,6.2s0.3,4.4,1,6.3c0.6,1.8,1.6,3.4,2.7,4.7
	c1.2,1.3,2.6,2.3,4.2,2.9c1.6,0.7,3.5,1,5.4,1c2,0,3.8-0.3,5.4-1c1.6-0.7,3.1-1.7,4.2-2.9c1.2-1.3,2.1-2.8,2.7-4.7
	C929.4,44.2,929.7,42.1,929.7,39.8z"/>
<path class="st0" d="M938.4,17.3c0,0.3-0.1,0.5-0.2,0.7c-0.1,0.2-0.3,0.4-0.4,0.6c-0.2,0.2-0.4,0.3-0.6,0.4s-0.5,0.2-0.7,0.2
	s-0.5-0.1-0.7-0.2s-0.4-0.2-0.6-0.4s-0.3-0.4-0.4-0.6s-0.2-0.5-0.2-0.7c0-0.3,0.1-0.5,0.2-0.7s0.2-0.4,0.4-0.6
	c0.2-0.2,0.4-0.3,0.6-0.4s0.5-0.2,0.7-0.2s0.5,0.1,0.7,0.2s0.4,0.2,0.6,0.4c0.2,0.2,0.3,0.4,0.4,0.6
	C938.3,16.8,938.4,17.1,938.4,17.3z M942.2,56.4h-2.4V23.2h2.4V56.4z M947.6,17.3c0,0.3-0.1,0.5-0.2,0.7s-0.2,0.4-0.4,0.6
	s-0.4,0.3-0.6,0.4c-0.2,0.1-0.5,0.2-0.7,0.2c-0.3,0-0.5-0.1-0.7-0.2s-0.4-0.2-0.6-0.4c-0.2-0.2-0.3-0.4-0.4-0.6s-0.2-0.5-0.2-0.7
	c0-0.5,0.2-1,0.6-1.3c0.4-0.4,0.8-0.6,1.3-0.6c0.3,0,0.5,0.1,0.7,0.2c0.2,0.1,0.4,0.2,0.6,0.4c0.2,0.2,0.3,0.4,0.4,0.6
	S947.6,17.1,947.6,17.3z"/>
<path class="st0" d="M988.7,50.8c0.2,0,0.3,0.1,0.4,0.2l0.9,1c-0.7,0.7-1.4,1.4-2.2,2s-1.7,1.1-2.7,1.5s-2,0.7-3.2,1
	c-1.1,0.2-2.4,0.3-3.8,0.3c-2.3,0-4.4-0.4-6.3-1.2c-1.9-0.8-3.6-1.9-4.9-3.4c-1.4-1.5-2.4-3.3-3.2-5.4c-0.8-2.1-1.1-4.4-1.1-7
	c0-2.5,0.4-4.8,1.2-6.9s1.9-3.9,3.3-5.4s3.1-2.7,5.1-3.5s4.1-1.2,6.5-1.2c2.3,0,4.3,0.4,6,1.1c1.8,0.7,3.3,1.7,4.8,3l-0.7,1.1
	c-0.1,0.2-0.3,0.3-0.6,0.3c-0.2,0-0.5-0.2-0.9-0.5s-1-0.7-1.8-1.1s-1.7-0.8-2.8-1.1c-1.1-0.3-2.5-0.5-4-0.5c-2,0-3.8,0.3-5.5,1
	s-3.1,1.7-4.3,3s-2.1,2.8-2.8,4.7c-0.7,1.8-1,3.9-1,6.2s0.3,4.4,1,6.3c0.7,1.8,1.6,3.4,2.8,4.7s2.6,2.3,4.2,2.9c1.6,0.7,3.4,1,5.2,1
	c1.2,0,2.2-0.1,3.2-0.2c0.9-0.2,1.8-0.4,2.6-0.7s1.5-0.7,2.2-1.1c0.7-0.5,1.3-1,2-1.6c0.1-0.1,0.2-0.1,0.2-0.2
	C988.6,50.8,988.7,50.8,988.7,50.8z"/>
<path class="st0" d="M1018.1,25.2h-11.7v31.2h-2.4V25.2h-11.7v-2h25.8L1018.1,25.2L1018.1,25.2z"/>
<path class="st0" d="M1051.2,39.8c0,2.6-0.4,4.9-1.1,7c-0.8,2.1-1.8,3.9-3.2,5.3s-3.1,2.6-5,3.4c-1.9,0.8-4.1,1.2-6.4,1.2
	s-4.5-0.4-6.4-1.2s-3.6-1.9-5-3.4s-2.5-3.3-3.2-5.3c-0.8-2.1-1.1-4.4-1.1-7s0.4-4.9,1.1-7s1.8-3.9,3.2-5.4s3.1-2.6,5-3.4
	s4.1-1.2,6.4-1.2s4.5,0.4,6.4,1.2c1.9,0.8,3.6,2,5,3.4s2.5,3.3,3.2,5.4S1051.2,37.2,1051.2,39.8z M1048.8,39.8c0-2.3-0.3-4.4-1-6.2
	c-0.6-1.8-1.5-3.4-2.7-4.7c-1.2-1.3-2.6-2.3-4.2-2.9c-1.6-0.7-3.5-1-5.4-1c-2,0-3.8,0.3-5.4,1s-3.1,1.7-4.2,2.9
	c-1.2,1.3-2.1,2.8-2.7,4.7c-0.6,1.8-1,3.9-1,6.2s0.3,4.4,1,6.3c0.6,1.8,1.6,3.4,2.7,4.7c1.2,1.3,2.6,2.3,4.2,2.9
	c1.6,0.7,3.5,1,5.4,1c2,0,3.8-0.3,5.4-1s3.1-1.7,4.2-2.9c1.2-1.3,2.1-2.8,2.7-4.7C1048.4,44.2,1048.8,42.1,1048.8,39.8z"/>
<path class="st0" d="M1091.7,23.2v33.2h-2.1V28.1c0-0.4,0-0.8,0.1-1.3L1076.6,50c-0.2,0.4-0.5,0.6-0.9,0.6h-0.4
	c-0.4,0-0.7-0.2-0.9-0.6L1061,26.7c0,0.5,0.1,0.9,0.1,1.3v28.3h-2.1V23.2h1.7c0.2,0,0.4,0,0.5,0.1c0.1,0,0.3,0.2,0.4,0.4l13.4,23.1
	c0.2,0.4,0.4,0.9,0.6,1.4c0.1-0.3,0.2-0.5,0.3-0.7s0.2-0.5,0.4-0.7l13-23.1c0.1-0.2,0.3-0.3,0.4-0.4s0.3-0.1,0.5-0.1
	C1090.2,23.2,1091.7,23.2,1091.7,23.2z"/>
<path class="st0" d="M1126.7,56.4h-1.9c-0.2,0-0.4-0.1-0.5-0.2s-0.3-0.3-0.3-0.5l-3.9-9.6h-16.3l-3.9,9.6c-0.1,0.2-0.2,0.3-0.3,0.4
	s-0.3,0.2-0.6,0.2h-1.8l13.6-33.2h2.4L1126.7,56.4z M1119.4,44.3l-6.8-16.8c-0.2-0.5-0.5-1.2-0.7-2c-0.1,0.4-0.2,0.7-0.3,1.1
	c-0.1,0.3-0.2,0.6-0.4,0.9l-6.8,16.8H1119.4z"/>
<path class="st0" d="M1150.6,25.2h-11.7v31.2h-2.4V25.2h-11.7v-2h25.8L1150.6,25.2L1150.6,25.2z"/>
<path class="st0" d="M1183.7,39.8c0,2.6-0.4,4.9-1.1,7c-0.8,2.1-1.8,3.9-3.2,5.3s-3.1,2.6-5,3.4c-1.9,0.8-4.1,1.2-6.4,1.2
	s-4.5-0.4-6.4-1.2s-3.6-1.9-5-3.4s-2.5-3.3-3.2-5.3c-0.8-2.1-1.1-4.4-1.1-7s0.4-4.9,1.1-7s1.8-3.9,3.2-5.4s3.1-2.6,5-3.4
	s4.1-1.2,6.4-1.2s4.5,0.4,6.4,1.2c1.9,0.8,3.6,2,5,3.4s2.5,3.3,3.2,5.4S1183.7,37.2,1183.7,39.8z M1181.2,39.8c0-2.3-0.3-4.4-1-6.2
	c-0.6-1.8-1.5-3.4-2.7-4.7c-1.2-1.3-2.6-2.3-4.2-2.9c-1.6-0.7-3.5-1-5.4-1c-2,0-3.8,0.3-5.4,1s-3.1,1.7-4.2,2.9
	c-1.2,1.3-2.1,2.8-2.7,4.7c-0.6,1.8-1,3.9-1,6.2s0.3,4.4,1,6.3c0.6,1.8,1.6,3.4,2.7,4.7c1.2,1.3,2.6,2.3,4.2,2.9
	c1.6,0.7,3.5,1,5.4,1c2,0,3.8-0.3,5.4-1s3.1-1.7,4.2-2.9c1.2-1.3,2.1-2.8,2.7-4.7C1180.9,44.2,1181.2,42.1,1181.2,39.8z"/>
<path class="st0" d="M1213.5,56.4h-2.4V25.1h-13.4c-0.2,4.4-0.5,8.2-0.8,11.5s-0.8,6.1-1.2,8.4c-0.5,2.3-1,4.3-1.6,5.8
	s-1.3,2.7-2,3.6c-0.7,0.9-1.5,1.5-2.4,1.8s-1.7,0.5-2.7,0.5c-0.5,0-0.9,0-1.3-0.1s-0.6-0.2-0.6-0.4v-1.5h1.4c0.7,0,1.4-0.2,2.1-0.5
	s1.3-0.9,1.9-1.8c0.6-0.9,1.2-2,1.7-3.5s1-3.4,1.4-5.7s0.8-5.1,1.1-8.4c0.3-3.3,0.6-7.1,0.7-11.6h18v33.2
	C1213.4,56.4,1213.5,56.4,1213.5,56.4z"/>
<path class="st0" d="M1252.8,39.8c0,2.6-0.4,4.9-1.1,7c-0.8,2.1-1.8,3.9-3.2,5.3s-3.1,2.6-5,3.4c-1.9,0.8-4.1,1.2-6.4,1.2
	s-4.5-0.4-6.4-1.2s-3.6-1.9-5-3.4s-2.5-3.3-3.2-5.3c-0.8-2.1-1.1-4.4-1.1-7s0.4-4.9,1.1-7s1.8-3.9,3.2-5.4s3.1-2.6,5-3.4
	s4.1-1.2,6.4-1.2s4.5,0.4,6.4,1.2c1.9,0.8,3.6,2,5,3.4s2.5,3.3,3.2,5.4S1252.8,37.2,1252.8,39.8z M1250.3,39.8c0-2.3-0.3-4.4-1-6.2
	c-0.6-1.8-1.5-3.4-2.7-4.7c-1.2-1.3-2.6-2.3-4.2-2.9c-1.6-0.7-3.5-1-5.4-1c-2,0-3.8,0.3-5.4,1s-3.1,1.7-4.2,2.9
	c-1.2,1.3-2.1,2.8-2.7,4.7c-0.6,1.8-1,3.9-1,6.2s0.3,4.4,1,6.3c0.6,1.8,1.6,3.4,2.7,4.7c1.2,1.3,2.6,2.3,4.2,2.9
	c1.6,0.7,3.5,1,5.4,1c2,0,3.8-0.3,5.4-1s3.1-1.7,4.2-2.9c1.2-1.3,2.1-2.8,2.7-4.7C1250,44.2,1250.3,42.1,1250.3,39.8z"/>
<path class="st0" d="M1279.9,25.1h-17v31.3h-2.4V23.2h19.4V25.1z"/>
<path class="st0" d="M1287.9,56.4h-2.4V23.2h2.4V56.4z"/>
<path class="st0" d="M1296.3,17.3c0,0.3-0.1,0.5-0.2,0.7s-0.3,0.4-0.4,0.6c-0.2,0.2-0.4,0.3-0.6,0.4s-0.5,0.2-0.7,0.2
	s-0.5-0.1-0.7-0.2s-0.4-0.2-0.6-0.4s-0.3-0.4-0.4-0.6s-0.2-0.5-0.2-0.7c0-0.3,0.1-0.5,0.2-0.7s0.2-0.4,0.4-0.6
	c0.2-0.2,0.4-0.3,0.6-0.4s0.5-0.2,0.7-0.2s0.5,0.1,0.7,0.2s0.4,0.2,0.6,0.4c0.2,0.2,0.3,0.4,0.4,0.6
	C1296.2,16.8,1296.3,17.1,1296.3,17.3z M1300.1,56.4h-2.4V23.2h2.4V56.4z M1305.4,17.3c0,0.3-0.1,0.5-0.2,0.7s-0.2,0.4-0.4,0.6
	c-0.2,0.2-0.4,0.3-0.6,0.4s-0.5,0.2-0.7,0.2c-0.3,0-0.5-0.1-0.7-0.2s-0.4-0.2-0.6-0.4c-0.2-0.2-0.3-0.4-0.4-0.6s-0.2-0.5-0.2-0.7
	c0-0.5,0.2-1,0.6-1.3c0.4-0.4,0.8-0.6,1.3-0.6c0.3,0,0.5,0.1,0.7,0.2c0.2,0.1,0.4,0.2,0.6,0.4c0.2,0.2,0.3,0.4,0.4,0.6
	S1305.4,17.1,1305.4,17.3z"/>
<path class="st0" d="M526.9,80.9l-7.3,59.3H516l6.2-50.7c0.1-0.7,0.2-1.4,0.4-2.2l-26.4,41.5c-0.4,0.7-1,1-1.7,1h-0.7
	c-0.8,0-1.2-0.3-1.5-1l-16.8-41.6c0,0.8,0,1.6-0.1,2.3l-6.2,50.7h-3.6l7.3-59.3h2.8c0.4,0,0.7,0,0.9,0.1s0.4,0.3,0.6,0.7l16.9,41.7
	c0.1,0.3,0.2,0.6,0.3,0.9c0.1,0.3,0.2,0.7,0.3,1c0.3-0.6,0.6-1.3,1-1.9l26.7-41.7c0.3-0.3,0.5-0.6,0.7-0.7s0.5-0.1,0.9-0.1
	L526.9,80.9L526.9,80.9z"/>
<path class="st0" d="M569.1,98.5l-5,41.7h-1.8c-0.5,0-0.9-0.1-1.2-0.4s-0.4-0.7-0.4-1.1l1.3-11.9c-1.1,2.2-2.4,4.2-3.8,5.9
	c-1.4,1.7-2.8,3.2-4.3,4.4s-3.1,2.1-4.7,2.7c-1.6,0.6-3.3,0.9-4.9,0.9c-3.6,0-6.1-1.4-7.7-4.1s-2-6.6-1.4-11.6l3.1-26.5h3.9
	l-3.1,26.5c-0.5,4-0.2,7.1,0.8,9.2s2.9,3.2,5.7,3.2c1.5,0,3.1-0.4,4.7-1.2c1.6-0.8,3.1-1.9,4.6-3.4s2.9-3.2,4.2-5.3
	c1.3-2.1,2.5-4.4,3.5-6.9l2.6-22.2h3.9L569.1,98.5L569.1,98.5z"/>
<path class="st0" d="M584,113c1.1-2.3,2.3-4.3,3.7-6.2c1.4-1.9,2.8-3.4,4.3-4.8c1.5-1.3,3.1-2.4,4.7-3.1s3.3-1.1,5-1.1
	c1.8,0,3.4,0.3,4.8,1c1.4,0.7,2.5,1.7,3.4,3s1.6,2.8,2.1,4.6c0.5,1.8,0.7,3.8,0.7,6.1c0,2.2-0.2,4.3-0.7,6.6
	c-0.4,2.2-1.1,4.4-1.9,6.5c-0.8,2.1-1.8,4-3,5.9s-2.5,3.5-4,4.8s-3.2,2.5-5,3.2c-1.8,0.8-3.7,1.2-5.7,1.2c-2.3,0-4.4-0.5-6.3-1.5
	c-1.9-1-3.5-2.5-4.7-4.4L579,155h-3.9l6.9-56.6h1.8c1,0,1.5,0.5,1.5,1.5L584,113z M581.9,131.6c1.2,2.2,2.7,3.8,4.5,4.7
	s3.6,1.3,5.6,1.3c1.8,0,3.4-0.4,4.9-1.1c1.5-0.7,2.9-1.7,4.1-2.9c1.2-1.2,2.3-2.7,3.3-4.3s1.8-3.4,2.4-5.2c0.7-1.8,1.2-3.7,1.5-5.6
	s0.5-3.8,0.5-5.6c0-3.7-0.7-6.7-2.1-8.7c-1.4-2.1-3.5-3.1-6.2-3.1c-1.6,0-3.2,0.4-4.8,1.3s-3.2,2.2-4.6,3.8
	c-1.5,1.6-2.9,3.6-4.2,5.8s-2.5,4.8-3.5,7.6L581.9,131.6z"/>
<path class="st0" d="M635,140.8c-2.2,0-4.3-0.4-6.1-1.2s-3.4-1.9-4.7-3.4s-2.3-3.3-3-5.4c-0.7-2.1-1.1-4.5-1.1-7.2
	c0-3.4,0.5-6.6,1.5-9.7s2.4-5.8,4.3-8.2c1.8-2.4,4-4.3,6.5-5.7c2.5-1.4,5.3-2.1,8.3-2.1c2.2,0,4.3,0.4,6.1,1.2
	c1.8,0.8,3.4,1.9,4.7,3.4s2.3,3.3,3,5.4s1.1,4.5,1.1,7.1c0,3.4-0.5,6.6-1.5,9.7s-2.4,5.8-4.3,8.2c-1.8,2.4-4,4.3-6.5,5.7
	C640.7,140.1,638,140.8,635,140.8z M635.3,137.6c2.4,0,4.6-0.6,6.6-1.9c2-1.3,3.7-3,5.1-5.1c1.4-2.1,2.5-4.5,3.3-7.3
	s1.2-5.5,1.2-8.4c0-4.5-1-7.9-3-10.3s-4.7-3.6-8.3-3.6c-2.4,0-4.6,0.6-6.6,1.9s-3.7,2.9-5.1,5c-1.4,2.1-2.5,4.5-3.3,7.2
	s-1.2,5.5-1.2,8.5c0,4.4,1,7.9,3,10.3C629,136.4,631.7,137.6,635.3,137.6z"/>
<path class="st0" d="M689.2,136.7c-1.3,1.1-2.6,1.9-3.9,2.5c-1.3,0.6-2.6,1-3.9,1.3c-1.3,0.2-2.7,0.3-4.2,0.3
	c-2.4,0-4.5-0.4-6.3-1.2s-3.2-2-4.4-3.5s-2.1-3.2-2.6-5.3c-0.6-2-0.9-4.3-0.9-6.7c0-2.2,0.2-4.4,0.7-6.6s1.1-4.2,2-6.2
	s1.9-3.8,3.1-5.4c1.2-1.6,2.6-3.1,4.1-4.3c1.5-1.2,3.2-2.1,5-2.8c1.8-0.7,3.7-1,5.8-1c1.4,0,2.6,0.1,3.7,0.4s2.1,0.6,3,1.1
	s1.8,1.1,2.5,1.8c0.8,0.7,1.5,1.5,2.1,2.3l-1.2,1.4c-0.3,0.3-0.5,0.5-0.9,0.5c-0.3,0-0.6-0.2-1-0.7c-0.4-0.4-1-0.9-1.6-1.4
	c-0.7-0.5-1.6-1-2.7-1.4s-2.5-0.7-4.1-0.7c-2.3,0-4.5,0.6-6.6,1.9s-3.8,2.9-5.3,5.1c-1.5,2.1-2.7,4.6-3.5,7.4
	c-0.9,2.8-1.3,5.7-1.3,8.7c0,1.9,0.2,3.7,0.7,5.4c0.4,1.6,1.1,3.1,2,4.3s2,2.1,3.4,2.8s3,1,4.9,1c1.5,0,2.8-0.2,4-0.5
	s2.2-0.7,3.1-1.2c0.9-0.5,1.7-1,2.4-1.6s1.3-1.1,1.8-1.6s1-0.9,1.4-1.2s0.7-0.5,1-0.5s0.6,0.1,0.9,0.4l0.9,1.1
	C691.9,134.2,690.5,135.6,689.2,136.7z"/>
<path class="st0" d="M709.3,118.3c0.9-3.6,2-6.6,3.2-9.1s2.7-4.6,4.4-6.1s3.8-2.7,6.2-3.4c2.4-0.7,5.2-1.1,8.5-1.1h5.1l-5.1,41.7
	h-3.8l4.7-38.6h-1.6c-2.6,0-4.8,0.3-6.6,0.9c-1.9,0.6-3.5,1.6-4.8,2.9c-1.4,1.3-2.5,3.1-3.5,5.2s-1.9,4.8-2.7,7.9
	c-1.1,4.2-2.1,7.7-3.2,10.5c-1,2.8-2.2,5.1-3.3,6.9c-1.2,1.7-2.4,3-3.8,3.7s-2.9,1.1-4.5,1.1c-0.8,0-1.4-0.1-1.8-0.2
	c-0.3-0.2-0.5-0.4-0.5-0.7l0.3-2.2h1.4c1.4,0,2.6-0.4,3.6-1.1c1-0.7,2-1.8,2.9-3.4c0.9-1.6,1.7-3.5,2.5-6
	C707.5,124.7,708.4,121.8,709.3,118.3z"/>
<path class="st0" d="M771.6,125.7c-1.1,2.2-2.2,4.3-3.5,6.1c-1.3,1.9-2.6,3.4-4.1,4.8c-1.5,1.3-3,2.3-4.6,3.1s-3.2,1.1-4.9,1.1
	s-3.3-0.3-4.6-1s-2.4-1.7-3.3-2.9c-0.9-1.3-1.5-2.8-2-4.6c-0.4-1.8-0.7-3.8-0.7-6c0-2.4,0.3-4.8,0.9-7.1c0.6-2.3,1.5-4.5,2.6-6.6
	s2.5-4,4-5.8c1.6-1.8,3.3-3.3,5.2-4.6s3.9-2.3,6.1-3s4.4-1.1,6.7-1.1c1.6,0,3.2,0.1,4.7,0.4s2.9,0.8,4.3,1.5l-4.9,40.3h-1.9
	c-0.6,0-0.9-0.2-1.1-0.5c-0.2-0.3-0.3-0.7-0.3-1L771.6,125.7z M774.3,101.8c-0.8-0.3-1.7-0.5-2.6-0.7c-0.9-0.1-1.8-0.2-2.7-0.2
	c-2.8,0-5.5,0.7-8,2.1s-4.8,3.2-6.7,5.5s-3.5,4.9-4.6,7.9s-1.7,6-1.7,9.2c0,3.7,0.6,6.7,1.9,8.7c1.3,2.1,3.2,3.1,5.9,3.1
	c1.6,0,3.2-0.4,4.7-1.3c1.5-0.9,3-2.2,4.4-3.8s2.7-3.6,4-5.8c1.2-2.3,2.3-4.8,3.3-7.6L774.3,101.8z"/>
<path class="st0" d="M805.9,117.1c3.5-0.1,6.2,0.7,8.1,2.3c1.9,1.6,2.8,3.9,2.8,6.8c0,1.9-0.4,3.8-1.3,5.5c-0.9,1.8-2.1,3.3-3.6,4.7
	c-1.5,1.3-3.3,2.4-5.3,3.2s-4.2,1.2-6.6,1.2c-2.3,0-4.3-0.4-6.1-1.2s-3.2-1.9-4.4-3.2s-2.1-3-2.7-4.9c-0.6-1.9-0.9-3.9-0.9-6.1
	s0.2-4.5,0.7-6.7s1.1-4.3,2-6.4s2-3.9,3.2-5.7s2.7-3.3,4.3-4.5s3.3-2.3,5.2-3s3.9-1.1,6.1-1.1c1.8,0,3.3,0.2,4.5,0.7
	s2.3,1.1,3.1,1.9s1.4,1.6,1.7,2.6c0.4,1,0.5,1.9,0.5,2.9c0,1.1-0.2,2.2-0.6,3.2c-0.4,1.1-1,2.1-1.9,3c-0.9,1-2.1,1.9-3.5,2.7
	C809.8,115.8,808,116.5,805.9,117.1z M790.1,121.2c-0.2,1.3-0.3,2.5-0.3,3.7c0,1.8,0.2,3.6,0.6,5.1c0.4,1.6,1.1,2.9,2,4.1
	c0.9,1.1,2,2,3.3,2.7c1.3,0.6,2.8,1,4.6,1c1.7,0,3.3-0.3,4.9-1c1.5-0.6,2.9-1.4,4-2.5c1.2-1,2.1-2.3,2.8-3.6s1-2.8,1-4.4
	c0-1.2-0.2-2.4-0.7-3.4c-0.4-1.1-1.2-1.9-2.2-2.6s-2.3-1.1-4-1.3c-1.7-0.2-3.7-0.1-6.1,0.4L790.1,121.2z M799.1,116.8
	c3.2-0.6,5.8-1.3,7.7-2.1c1.9-0.8,3.4-1.6,4.5-2.6s1.7-1.8,2.1-2.8c0.3-0.9,0.5-1.9,0.5-2.8c0-0.6-0.1-1.3-0.3-2s-0.6-1.3-1.2-1.9
	c-0.5-0.6-1.3-1-2.2-1.4s-2-0.5-3.4-0.5c-2.1,0-4.1,0.5-5.9,1.4c-1.8,1-3.4,2.3-4.8,3.9c-1.4,1.6-2.6,3.5-3.6,5.7
	c-1,2.1-1.7,4.4-2.2,6.8L799.1,116.8z"/>
<path class="st0" d="M860.9,98.5l-5,41.7H854c-0.5,0-0.9-0.1-1.2-0.4s-0.4-0.7-0.4-1.1l1.3-11.9c-1.1,2.2-2.4,4.2-3.8,5.9
	c-1.4,1.7-2.8,3.2-4.3,4.4s-3.1,2.1-4.7,2.7c-1.6,0.6-3.3,0.9-4.9,0.9c-3.6,0-6.1-1.4-7.7-4.1s-2-6.6-1.4-11.6l3.1-26.5h3.9
	l-3.1,26.5c-0.5,4-0.2,7.1,0.8,9.2s2.9,3.2,5.7,3.2c1.5,0,3.1-0.4,4.7-1.2c1.6-0.8,3.1-1.9,4.6-3.4s2.9-3.2,4.2-5.3
	c1.3-2.1,2.5-4.4,3.5-6.9l2.6-22.2h4L860.9,98.5L860.9,98.5z"/>
<path class="st0" d="M938.7,153.8c-0.1,0.4-0.2,0.7-0.5,1s-0.6,0.4-1,0.4h-2.4l1.8-14.9H888l-1.7,13.5c0,0.4-0.2,0.7-0.5,1
	s-0.6,0.4-1.1,0.4h-2.4l2.3-18.2h5.1c1-0.4,2-1.1,3-2.1s2-2.4,3-4.3c1-1.8,2.1-4.2,3.1-7s2.1-6.2,3.1-10.2s2.1-8.7,3.2-14
	c1.1-5.3,2.2-11.5,3.2-18.4h29.8l-6.9,55.9h9.5L938.7,153.8z M927.1,136.9l6.5-52.6h-21.7c-0.9,5.5-1.8,10.5-2.7,15
	s-1.8,8.5-2.8,12.1c-0.9,3.6-1.9,6.8-2.8,9.5c-0.9,2.8-1.9,5.2-2.8,7.2c-1,2.1-1.9,3.8-2.9,5.2s-1.9,2.6-2.9,3.6H927.1z"/>
<path class="st0" d="M955,113c1.1-2.3,2.3-4.3,3.7-6.2c1.4-1.9,2.8-3.4,4.3-4.8c1.5-1.3,3.1-2.4,4.7-3.1s3.3-1.1,5-1.1
	c1.8,0,3.4,0.3,4.8,1c1.4,0.7,2.5,1.7,3.4,3s1.6,2.8,2.1,4.6c0.5,1.8,0.7,3.8,0.7,6.1c0,2.2-0.2,4.3-0.7,6.6
	c-0.4,2.2-1.1,4.4-1.9,6.5c-0.8,2.1-1.8,4-3,5.9s-2.5,3.5-4,4.8s-3.2,2.5-5,3.2c-1.8,0.8-3.7,1.2-5.7,1.2c-2.3,0-4.4-0.5-6.3-1.5
	c-1.9-1-3.5-2.5-4.7-4.4L950,155h-3.9l6.9-56.6h1.8c1,0,1.5,0.5,1.5,1.5L955,113z M952.8,131.6c1.2,2.2,2.7,3.8,4.5,4.7
	s3.6,1.3,5.6,1.3c1.8,0,3.4-0.4,4.9-1.1c1.5-0.7,2.9-1.7,4.1-2.9c1.2-1.2,2.3-2.7,3.3-4.3s1.8-3.4,2.4-5.2c0.7-1.8,1.2-3.7,1.5-5.6
	s0.5-3.8,0.5-5.6c0-3.7-0.7-6.7-2.1-8.7c-1.4-2.1-3.5-3.1-6.2-3.1c-1.6,0-3.2,0.4-4.8,1.3s-3.2,2.2-4.6,3.8
	c-1.5,1.6-2.9,3.6-4.2,5.8s-2.5,4.8-3.5,7.6L952.8,131.6z"/>
<path class="st0" d="M1005.9,140.8c-2.2,0-4.3-0.4-6.1-1.2s-3.4-1.9-4.7-3.4s-2.3-3.3-3-5.4c-0.7-2.1-1.1-4.5-1.1-7.2
	c0-3.4,0.5-6.6,1.5-9.7s2.4-5.8,4.3-8.2c1.8-2.4,4-4.3,6.5-5.7c2.5-1.4,5.3-2.1,8.3-2.1c2.2,0,4.3,0.4,6.1,1.2
	c1.8,0.8,3.4,1.9,4.7,3.4s2.3,3.3,3,5.4s1.1,4.5,1.1,7.1c0,3.4-0.5,6.6-1.5,9.7s-2.4,5.8-4.3,8.2c-1.8,2.4-4,4.3-6.5,5.7
	C1011.7,140.1,1008.9,140.8,1005.9,140.8z M1006.3,137.6c2.4,0,4.6-0.6,6.6-1.9c2-1.3,3.7-3,5.1-5.1c1.4-2.1,2.5-4.5,3.3-7.3
	s1.2-5.5,1.2-8.4c0-4.5-1-7.9-3-10.3s-4.7-3.6-8.3-3.6c-2.4,0-4.6,0.6-6.6,1.9s-3.7,2.9-5.1,5c-1.4,2.1-2.5,4.5-3.3,7.2
	s-1.2,5.5-1.2,8.5c0,4.4,1,7.9,3,10.3C1000,136.4,1002.7,137.6,1006.3,137.6z"/>
<path class="st0" d="M1050,97.9c1.5,0,2.8,0.2,4.1,0.5c1.3,0.4,2.4,0.9,3.4,1.6s1.8,1.5,2.3,2.5s0.9,2.2,0.9,3.5
	c0,1.4-0.3,2.7-1,3.9c-0.7,1.2-1.6,2.4-2.8,3.5c-1.1,1.1-2.5,2.1-3.9,3.1c-1.5,1-3,1.9-4.5,2.9c-1.5,0.9-3,1.9-4.5,2.8
	s-2.8,1.9-3.9,2.8s-2.1,2-2.8,3c-0.7,1-1,2.2-1,3.3c0,0.9,0.2,1.7,0.6,2.5s1,1.4,1.8,2c0.8,0.5,1.7,1,2.8,1.3s2.3,0.5,3.6,0.5
	c1.6,0,3.1-0.2,4.4-0.6c1.4-0.4,2.6-0.9,3.6-1.4c1.1-0.5,1.9-1,2.7-1.4c0.7-0.4,1.2-0.6,1.5-0.6c0.5,0,0.9,0.2,1.1,0.7l0.8,1.2
	c-2.1,1.7-4.4,3-7,3.9s-5.2,1.4-7.8,1.4c-1.9,0-3.6-0.2-5.1-0.7s-2.8-1.1-3.8-1.9s-1.9-1.8-2.4-2.9c-0.6-1.1-0.8-2.3-0.8-3.5
	c0-1.4,0.3-2.8,1-4c0.7-1.3,1.6-2.4,2.8-3.6s2.5-2.2,3.9-3.2s3-2,4.5-2.9s3-1.9,4.5-2.8s2.8-1.9,3.9-2.8c1.2-1,2.1-1.9,2.8-2.9
	c0.7-1,1-2.1,1-3.2c0-1.5-0.7-2.8-2-3.8s-3.1-1.5-5.4-1.5c-1.5,0-2.8,0.2-4.1,0.6c-1.2,0.4-2.3,0.8-3.3,1.3s-1.8,0.9-2.4,1.3
	s-1.1,0.6-1.4,0.6c-0.1,0-0.3,0-0.4-0.1c-0.2-0.1-0.3-0.2-0.4-0.4l-0.8-1.6c0.9-0.8,1.8-1.4,2.9-2s2.2-1.1,3.4-1.5
	c1.2-0.4,2.4-0.7,3.6-1C1047.7,98,1048.8,97.9,1050,97.9z"/>
<path class="st0" d="M1082.5,140.8c-2.2,0-4.3-0.4-6.1-1.2c-1.8-0.8-3.4-1.9-4.7-3.4c-1.3-1.5-2.3-3.3-3-5.4
	c-0.7-2.1-1.1-4.5-1.1-7.2c0-3.4,0.5-6.6,1.5-9.7s2.4-5.8,4.3-8.2c1.8-2.4,4-4.3,6.5-5.7c2.5-1.4,5.3-2.1,8.3-2.1
	c2.2,0,4.3,0.4,6.1,1.2c1.8,0.8,3.4,1.9,4.7,3.4c1.3,1.5,2.3,3.3,3,5.4s1.1,4.5,1.1,7.1c0,3.4-0.5,6.6-1.5,9.7s-2.4,5.8-4.3,8.2
	c-1.8,2.4-4,4.3-6.5,5.7C1088.3,140.1,1085.5,140.8,1082.5,140.8z M1082.8,137.6c2.4,0,4.6-0.6,6.6-1.9c2-1.3,3.7-3,5.1-5.1
	s2.5-4.5,3.3-7.3s1.2-5.5,1.2-8.4c0-4.5-1-7.9-3-10.3s-4.7-3.6-8.3-3.6c-2.4,0-4.6,0.6-6.6,1.9s-3.7,2.9-5.1,5s-2.5,4.5-3.3,7.2
	s-1.2,5.5-1.2,8.5c0,4.4,1,7.9,3,10.3C1076.5,136.4,1079.3,137.6,1082.8,137.6z"/>
<path class="st0" d="M1159.6,98.3l-5.2,41.9h-3.6l4.2-34.2c0.1-0.7,0.2-1.5,0.5-2.3l-21,34.1c-0.2,0.3-0.4,0.5-0.6,0.6
	c-0.2,0.2-0.5,0.3-0.7,0.3h-0.6c-0.3,0-0.5-0.1-0.6-0.3c-0.2-0.2-0.3-0.4-0.4-0.6l-11.1-34.2c-0.1,0.4-0.1,0.9-0.2,1.4
	s-0.1,0.9-0.2,1.3c-1,5.8-2.2,11.4-3.4,16.8c-1.2,5.4-2.7,10.7-4.4,15.9c-0.1,0.4-0.4,0.7-0.7,1s-0.7,0.4-1.2,0.4h-2.2
	c1.1-3.5,2.2-6.9,3.1-10.2s1.9-6.6,2.7-10c0.8-3.4,1.6-6.8,2.3-10.4c0.7-3.5,1.4-7.3,2.1-11.3h2.9c0.3,0,0.5,0,0.8,0.1
	s0.4,0.3,0.6,0.7l10.8,32.1c0.2,0.7,0.4,1.4,0.5,2.1c0.2-0.5,0.5-1,0.8-1.6l20.1-32.6c0.2-0.4,0.5-0.6,0.7-0.7s0.5-0.2,0.8-0.2
	L1159.6,98.3L1159.6,98.3z"/>
<path class="st0" d="M1202.7,98.5l-5,41.7h-1.8c-0.5,0-0.9-0.1-1.2-0.4s-0.4-0.7-0.4-1.1l1.3-11.9c-1.1,2.2-2.4,4.2-3.8,5.9
	s-2.8,3.2-4.3,4.4s-3.1,2.1-4.7,2.7c-1.6,0.6-3.3,0.9-4.9,0.9c-3.6,0-6.1-1.4-7.7-4.1s-2-6.6-1.4-11.6l3.1-26.5h3.9l-3.1,26.5
	c-0.5,4-0.2,7.1,0.8,9.2s2.9,3.2,5.7,3.2c1.5,0,3.1-0.4,4.7-1.2s3.1-1.9,4.6-3.4s2.9-3.2,4.2-5.3c1.3-2.1,2.5-4.4,3.5-6.9l2.6-22.2
	h3.9L1202.7,98.5L1202.7,98.5z"/>
<path class="st0" d="M1217.7,113c1.1-2.3,2.3-4.3,3.7-6.2c1.4-1.9,2.8-3.4,4.3-4.8c1.5-1.3,3.1-2.4,4.7-3.1s3.3-1.1,5-1.1
	c1.8,0,3.4,0.3,4.8,1s2.5,1.7,3.4,3s1.6,2.8,2.1,4.6c0.5,1.8,0.7,3.8,0.7,6.1c0,2.2-0.2,4.3-0.7,6.6c-0.4,2.2-1.1,4.4-1.9,6.5
	s-1.8,4-3,5.9s-2.5,3.5-4,4.8s-3.2,2.5-5,3.2c-1.8,0.8-3.7,1.2-5.7,1.2c-2.3,0-4.4-0.5-6.3-1.5s-3.5-2.5-4.7-4.4l-2.5,20.2h-3.9
	l6.9-56.6h1.8c1,0,1.5,0.5,1.5,1.5L1217.7,113z M1215.5,131.6c1.2,2.2,2.7,3.8,4.5,4.7s3.6,1.3,5.6,1.3c1.8,0,3.4-0.4,4.9-1.1
	c1.5-0.7,2.9-1.7,4.1-2.9s2.3-2.7,3.3-4.3s1.8-3.4,2.4-5.2c0.7-1.8,1.2-3.7,1.5-5.6s0.5-3.8,0.5-5.6c0-3.7-0.7-6.7-2.1-8.7
	c-1.4-2.1-3.5-3.1-6.2-3.1c-1.6,0-3.2,0.4-4.8,1.3c-1.6,0.9-3.2,2.2-4.6,3.8c-1.5,1.6-2.9,3.6-4.2,5.8s-2.5,4.8-3.5,7.6
	L1215.5,131.6z"/>
<path class="st0" d="M1284.7,132.5c-1.4,1.5-2.7,2.7-4,3.8c-1.3,1-2.6,1.9-3.9,2.6c-1.3,0.7-2.7,1.2-4.1,1.5s-2.9,0.5-4.6,0.5
	c-2.3,0-4.4-0.4-6.2-1.2c-1.8-0.8-3.3-1.9-4.5-3.3c-1.2-1.4-2.2-3.1-2.8-5.2c-0.6-2-1-4.3-1-6.8c0-2.1,0.2-4.2,0.6-6.3
	c0.4-2.1,1-4.2,1.9-6.1c0.8-2,1.8-3.8,3.1-5.5c1.2-1.7,2.6-3.2,4.2-4.4c1.6-1.3,3.3-2.2,5.2-3s4-1.1,6.2-1.1c2,0,3.8,0.3,5.2,0.9
	c1.4,0.6,2.6,1.3,3.4,2.1s1.5,1.8,1.9,2.8s0.6,1.9,0.6,2.8c0,1.1-0.2,2.2-0.5,3.3s-0.9,2-1.6,2.9s-1.8,1.8-3.2,2.6s-3.1,1.6-5.1,2.2
	c-2.1,0.7-4.6,1.3-7.5,1.9s-6.3,1-10.2,1.5c-0.1,0.6-0.1,1.1-0.1,1.7s-0.1,1.2-0.1,1.7c0,4.2,0.9,7.4,2.8,9.8
	c1.9,2.3,4.7,3.5,8.5,3.5c1.5,0,2.8-0.2,4-0.5s2.2-0.7,3.2-1.2c0.9-0.5,1.8-1,2.5-1.6s1.3-1.1,1.9-1.6s1-0.9,1.4-1.2
	s0.8-0.5,1.1-0.5s0.6,0.1,0.9,0.4L1284.7,132.5z M1274.5,100.9c-2.2,0-4.3,0.5-6.1,1.4c-1.8,0.9-3.4,2.2-4.8,3.8
	c-1.4,1.6-2.5,3.4-3.5,5.5c-0.9,2.1-1.6,4.3-2.1,6.5c3.5-0.4,6.6-0.8,9.2-1.4c2.6-0.5,4.7-1.1,6.5-1.6c1.8-0.6,3.2-1.2,4.4-1.9
	c1.1-0.7,2-1.4,2.6-2.1s1-1.4,1.2-2.2c0.2-0.8,0.3-1.5,0.3-2.3c0-0.6-0.1-1.2-0.4-1.9c-0.3-0.7-0.7-1.3-1.3-1.9
	c-0.6-0.6-1.4-1-2.4-1.4C1277.2,101.1,1275.9,100.9,1274.5,100.9z"/>
<path class="st0" d="M1330.8,137.3l-3.9,16.6c-0.1,0.4-0.2,0.7-0.4,1c-0.2,0.2-0.6,0.3-0.9,0.3h-2.2l3.7-14.9h-5.4
	c-0.5,0-0.9-0.1-1.2-0.4s-0.4-0.7-0.4-1.1l1.3-11.9c-1.1,2.2-2.4,4.2-3.8,5.9s-2.8,3.2-4.3,4.4s-3.1,2.1-4.7,2.7
	c-1.6,0.6-3.3,0.9-4.9,0.9c-3.6,0-6.1-1.4-7.7-4.1s-2-6.6-1.4-11.6l3.1-26.5h3.9l-3.1,26.5c-0.5,4-0.2,7.1,0.8,9.2s2.9,3.2,5.7,3.2
	c1.5,0,3.1-0.4,4.7-1.2s3.1-1.9,4.6-3.4s2.9-3.2,4.2-5.3c1.3-2.1,2.5-4.4,3.5-6.9l2.6-22.2h3.9l-4.7,38.7h7L1330.8,137.3
	L1330.8,137.3z"/>
<path class="st0" d="M1343.8,122c0.8-1.3,1.8-2.5,2.9-3.7s2.3-2.2,3.6-3c1.3-0.9,2.6-1.5,4-2s2.8-0.8,4.1-0.8c1.5,0,2.9,0.3,4,0.8
	c1.2,0.5,2.1,1.2,2.9,2.1s1.4,2,1.8,3.2s0.6,2.6,0.6,4c0,2.4-0.5,4.7-1.6,6.9c-1,2.2-2.4,4.1-4.2,5.8s-3.7,3-6,4s-4.6,1.5-7.1,1.5
	c-1.8,0-3.4-0.2-4.7-0.7s-2.4-1.1-3.3-1.9c-0.9-0.8-1.5-1.8-1.8-2.9c-0.4-1.1-0.4-2.4-0.3-3.7l4-33h3.9L1343.8,122z M1342.7,131.8
	c-0.1,0.9,0,1.7,0.3,2.4s0.7,1.4,1.3,1.9s1.4,1,2.3,1.3s2.1,0.5,3.3,0.5c1.8,0,3.5-0.4,5.2-1.3s3.2-1.9,4.5-3.3
	c1.3-1.4,2.3-3,3.1-4.7c0.8-1.8,1.2-3.6,1.2-5.5c0-1-0.1-2-0.4-2.9c-0.2-0.9-0.6-1.7-1.2-2.5c-0.5-0.7-1.2-1.3-2.1-1.7
	c-0.9-0.4-1.9-0.6-3.1-0.6c-1.6,0-3.2,0.4-4.8,1.2s-3.1,1.9-4.4,3.2c-1.3,1.3-2.5,2.8-3.4,4.4c-1,1.6-1.5,3.3-1.7,5L1342.7,131.8z"
	/>
<path class="st0" d="M1399.8,103.5c1.2-1.6,2.3-2.9,3.5-3.8c1.1-0.9,2.5-1.3,4.2-1.3h1.8l-0.4,2c-0.1,0.4-0.3,0.6-0.7,0.8
	c-0.4,0.1-0.8,0.3-1.3,0.4c-0.5,0.2-1.1,0.4-1.7,0.7c-0.6,0.3-1.2,0.9-1.8,1.7l-8.1,10.4c-0.4,0.5-0.8,1-1.1,1.4s-0.8,0.8-1.2,1.1
	c-0.4,0.3-0.9,0.6-1.4,0.8c-0.5,0.2-1,0.4-1.7,0.5c1.4,0.3,2.6,0.8,3.5,1.6c0.9,0.8,1.7,1.9,2.4,3.2l9.1,17.1h-2.3
	c-0.7,0-1.2-0.1-1.6-0.4c-0.4-0.2-0.7-0.6-0.9-1l-8.1-14.8c-0.6-1.2-1.4-2.1-2.3-2.9c-1-0.8-2.1-1.2-3.4-1.2l-5.2,0.9l-2.3,19.4
	h-3.8l5-41.7h3.8l-2.3,19.6l5-0.9c1.2-0.2,2.1-0.6,2.9-1c0.8-0.5,1.5-1.2,2.2-2.1L1399.8,103.5z"/>
<path class="st0" d="M1426.1,140.8c-2.2,0-4.3-0.4-6.1-1.2c-1.8-0.8-3.4-1.9-4.7-3.4c-1.3-1.5-2.3-3.3-3-5.4
	c-0.7-2.1-1.1-4.5-1.1-7.2c0-3.4,0.5-6.6,1.5-9.7s2.4-5.8,4.3-8.2c1.8-2.4,4-4.3,6.5-5.7c2.5-1.4,5.3-2.1,8.3-2.1
	c2.2,0,4.3,0.4,6.1,1.2c1.8,0.8,3.4,1.9,4.7,3.4c1.3,1.5,2.3,3.3,3,5.4s1.1,4.5,1.1,7.1c0,3.4-0.5,6.6-1.5,9.7s-2.4,5.8-4.3,8.2
	c-1.8,2.4-4,4.3-6.5,5.7C1431.9,140.1,1429.1,140.8,1426.1,140.8z M1426.4,137.6c2.4,0,4.6-0.6,6.6-1.9c2-1.3,3.7-3,5.1-5.1
	s2.5-4.5,3.3-7.3s1.2-5.5,1.2-8.4c0-4.5-1-7.9-3-10.3s-4.7-3.6-8.3-3.6c-2.4,0-4.6,0.6-6.6,1.9s-3.7,2.9-5.1,5s-2.5,4.5-3.3,7.2
	s-1.2,5.5-1.2,8.5c0,4.4,1,7.9,3,10.3C1420.1,136.4,1422.9,137.6,1426.4,137.6z"/>
<path class="st0" d="M1461.5,86.4c0,0.4-0.1,0.9-0.3,1.3c-0.2,0.4-0.5,0.8-0.8,1.1c-0.3,0.3-0.7,0.6-1.1,0.7s-0.9,0.3-1.3,0.3
	c-0.5,0-0.9-0.1-1.3-0.3c-0.4-0.2-0.8-0.4-1.1-0.7c-0.3-0.3-0.6-0.7-0.8-1.1c-0.2-0.4-0.3-0.8-0.3-1.3s0.1-0.9,0.3-1.3
	c0.2-0.4,0.4-0.8,0.8-1.1c0.3-0.3,0.7-0.6,1.1-0.8c0.4-0.2,0.8-0.3,1.3-0.3c0.4,0,0.9,0.1,1.3,0.3c0.4,0.2,0.8,0.4,1.1,0.8
	c0.3,0.3,0.6,0.7,0.8,1.1S1461.5,85.9,1461.5,86.4z M1463.8,98.5l-5.1,41.7h-3.9l5.1-41.7H1463.8z M1472.3,86.4
	c0,0.4-0.1,0.9-0.3,1.3c-0.2,0.4-0.4,0.8-0.8,1.1c-0.3,0.3-0.7,0.6-1.1,0.7s-0.9,0.3-1.3,0.3c-0.5,0-0.9-0.1-1.3-0.3
	c-0.4-0.2-0.8-0.4-1.1-0.7c-0.3-0.3-0.6-0.7-0.7-1.1c-0.2-0.4-0.3-0.8-0.3-1.3c0-0.9,0.3-1.8,1-2.5s1.5-1,2.4-1
	c0.4,0,0.9,0.1,1.3,0.3c0.4,0.2,0.8,0.4,1.1,0.8c0.3,0.3,0.6,0.7,0.8,1.1C1472.2,85.5,1472.3,85.9,1472.3,86.4z"/>
<path id="XMLID_33_" class="st0" d="M30.7,138.2c1.6,0,2.9,0.6,4,1.7c1.1,1.1,1.7,2.4,1.7,4s-0.6,2.9-1.7,4c-1.1,1.1-2.4,1.7-4,1.7
	H7.2v6.5c0,0.9-0.7,1.6-1.6,1.6l0,0c-0.9,0-1.6-0.7-1.6-1.6v-16.2c0-0.9,0.7-1.6,1.6-1.6L30.7,138.2L30.7,138.2z M30.7,146.3
	c0.7,0,1.2-0.2,1.7-0.7s0.7-1.1,0.7-1.7c0-0.7-0.2-1.2-0.7-1.7s-1.1-0.7-1.7-0.7H7.2v4.9h23.5V146.3z"/>
<path id="XMLID_31_" class="st0" d="M72.9,139.8L72.9,139.8c0,0.9-0.7,1.6-1.6,1.6H43.7v4.9h27.6c0.9,0,1.6,0.7,1.6,1.6l0,0
	c0,0.9-0.7,1.6-1.6,1.6H43.7v4.9h27.6c0.9,0,1.6,0.7,1.6,1.6l0,0c0,0.9-0.7,1.6-1.6,1.6H42.1c-0.9,0-1.6-0.7-1.6-1.6v-16.2
	c0-0.9,0.7-1.6,1.6-1.6h29.2C72.1,138.2,72.9,138.9,72.9,139.8z"/>
<path id="XMLID_25_" class="st0" d="M106.3,148.9c2.1,1.9,3.1,4.3,3.1,7.1l0,0c0,0.9-0.7,1.6-1.6,1.6l0,0c-0.9,0-1.6-0.7-1.6-1.6
	l0,0c0-1.8-0.6-3.3-1.9-4.6s-2.8-1.9-4.6-1.9H80.2v6.5c0,0.9-0.7,1.6-1.6,1.6l0,0c-0.9,0-1.6-0.7-1.6-1.6v-16.2
	c0-0.9,0.7-1.6,1.6-1.6h25.1c1.6,0,2.9,0.6,4,1.7c1.1,1.1,1.7,2.4,1.7,4c0,1.1-0.3,2.1-0.9,3C108,147.8,107.2,148.4,106.3,148.9z
	 M103.7,146.3c0.7,0,1.2-0.2,1.7-0.7s0.7-1.1,0.7-1.7c0-0.7-0.2-1.2-0.7-1.7s-1.1-0.7-1.7-0.7H80.2v4.9h23.5V146.3z"/>
<path id="XMLID_23_" class="st0" d="M145.9,139.8L145.9,139.8c0,0.9-0.7,1.6-1.6,1.6h-27.6v4.9h27.6c0.9,0,1.6,0.7,1.6,1.6l0,0
	c0,0.9-0.7,1.6-1.6,1.6h-27.6v6.5c0,0.9-0.7,1.6-1.6,1.6l0,0c-0.9,0-1.6-0.7-1.6-1.6v-16.2c0-0.9,0.7-1.6,1.6-1.6h29.2
	C145.2,138.2,145.9,138.9,145.9,139.8z"/>
<path id="XMLID_21_" class="st0" d="M182.4,139.8L182.4,139.8c0,0.9-0.7,1.6-1.6,1.6h-27.6v4.9h27.6c0.9,0,1.6,0.7,1.6,1.6l0,0
	c0,0.9-0.7,1.6-1.6,1.6h-27.6v4.9h27.6c0.9,0,1.6,0.7,1.6,1.6l0,0c0,0.9-0.7,1.6-1.6,1.6h-29.2c-0.9,0-1.6-0.7-1.6-1.6v-16.2
	c0-0.9,0.7-1.6,1.6-1.6h29.2C181.7,138.2,182.4,138.9,182.4,139.8z"/>
<path id="XMLID_19_" class="st0" d="M218.9,156c0,0.9-0.7,1.6-1.6,1.6h-21.1c-2.7,0-5-1-6.9-2.9s-2.9-4.2-2.9-6.9s1-5,2.9-6.9
	s4.2-2.9,6.9-2.9h21.1c0.9,0,1.6,0.7,1.6,1.6l0,0c0,0.9-0.7,1.6-1.6,1.6h-21.1c-1.8,0-3.3,0.6-4.6,1.9c-1.3,1.3-1.9,2.8-1.9,4.6
	s0.6,3.3,1.9,4.6c1.3,1.3,2.8,1.9,4.6,1.9h21.1C218.2,154.4,218.9,155.1,218.9,156L218.9,156z"/>
<path id="XMLID_17_" class="st0" d="M255.4,139.8L255.4,139.8c0,0.9-0.7,1.6-1.6,1.6h-13V156c0,0.9-0.7,1.6-1.6,1.6l0,0
	c-0.9,0-1.6-0.7-1.6-1.6v-14.6h-13c-0.9,0-1.6-0.7-1.6-1.6l0,0c0-0.9,0.7-1.6,1.6-1.6h29.2C254.7,138.2,255.4,138.9,255.4,139.8z"/>
<path id="XMLID_14_" class="st0" d="M282.2,138.2c2.7,0,5,1,6.9,2.9s2.9,4.2,2.9,6.9s-1,5-2.9,6.9s-4.2,2.9-6.9,2.9h-21.1
	c-0.9,0-1.6-0.7-1.6-1.6V140c0-0.9,0.7-1.6,1.6-1.6h21.1V138.2z M282.2,154.4c1.8,0,3.3-0.6,4.6-1.9c1.3-1.3,1.9-2.8,1.9-4.6
	s-0.6-3.3-1.9-4.6s-2.8-1.9-4.6-1.9h-19.5v13H282.2z"/>
<path id="XMLID_12_" class="st0" d="M328.4,139.8L328.4,139.8c0,0.9-0.7,1.6-1.6,1.6h-27.6v4.9h27.6c0.9,0,1.6,0.7,1.6,1.6l0,0
	c0,0.9-0.7,1.6-1.6,1.6h-27.6v4.9h27.6c0.9,0,1.6,0.7,1.6,1.6l0,0c0,0.9-0.7,1.6-1.6,1.6h-29.2c-0.9,0-1.6-0.7-1.6-1.6v-16.2
	c0-0.9,0.7-1.6,1.6-1.6h29.2C327.7,138.2,328.4,138.9,328.4,139.8z"/>
<path id="XMLID_10_" class="st0" d="M365,139.8V156c0,0.9-0.7,1.6-1.6,1.6H361c-0.3,0-0.6-0.1-0.9-0.3l-24.2-16.2V156
	c0,0.9-0.7,1.6-1.6,1.6l0,0c-0.9,0-1.6-0.7-1.6-1.6v-16.2c0-0.9,0.7-1.6,1.6-1.6h2.4c0.3,0,0.6,0.1,0.9,0.3l24.2,16.2v-14.8
	c0-0.9,0.7-1.6,1.6-1.6l0,0C364.2,138.2,365,138.9,365,139.8z"/>
<path id="XMLID_8_" class="st0" d="M401.5,139.8L401.5,139.8c0,0.9-0.7,1.6-1.6,1.6h-13V156c0,0.9-0.7,1.6-1.6,1.6l0,0
	c-0.9,0-1.6-0.7-1.6-1.6v-14.6h-13c-0.9,0-1.6-0.7-1.6-1.6l0,0c0-0.9,0.7-1.6,1.6-1.6h29.2C400.7,138.2,401.5,138.9,401.5,139.8z"/>
<path id="XMLID_5_" class="st0" d="M345.6,3.7c15.5,0,28.7,5.5,39.6,16.4c11,11,16.4,24.2,16.4,39.6s-5.5,28.6-16.4,39.5
	c-11,11-24.2,16.4-39.6,16.4H224.2c-5.1,0-9.3-4.2-9.3-9.3V13c0-5.1,4.2-9.3,9.3-9.3C224.2,3.7,345.6,3.7,345.6,3.7z M345.6,97.1
	c10.3,0,19.1-3.7,26.4-11s11-16.1,11-26.4s-3.7-19.2-11-26.5s-16.1-10.9-26.4-10.9H233.5V97L345.6,97.1L345.6,97.1z"/>
<path id="XMLID_1_" class="st0" d="M158.6,3.7c9,0,16.7,3.2,23.1,9.6c6.4,6.4,9.6,14,9.6,23s-3.2,16.7-9.6,23.1
	c-6.4,6.4-14.1,9.6-23.1,9.6H23.2v37.4c0,5.1-4.2,9.3-9.3,9.3l0,0c-5.1,0-9.3-4.2-9.3-9.3V13c0-5.1,4.2-9.3,9.3-9.3
	C13.9,3.7,158.6,3.7,158.6,3.7z M158.6,50.4c3.9,0,7.2-1.4,9.9-4.1c2.7-2.8,4.1-6.1,4.1-9.9c0-3.8-1.4-7.1-4.1-9.9
	c-2.8-2.7-6.1-4.1-9.9-4.1H23.2v28H158.6z"/>
<g>
	<path class="st1" d="M489.7,217.6h-2.1c-0.3,0-0.6-0.1-0.8-0.2c-0.2-0.1-0.4-0.4-0.6-0.7l-10.9-13.5c-0.2-0.3-0.4-0.5-0.6-0.7
		s-0.4-0.4-0.7-0.5c-0.3-0.1-0.6-0.2-0.9-0.3s-0.7-0.1-1.2-0.1h-4.3v16h-2.4v-33.2h2.4v15.3h3.8c0.4,0,0.7,0,1.1-0.1
		c0.3,0,0.6-0.1,0.9-0.2c0.3-0.1,0.6-0.3,0.8-0.5c0.3-0.2,0.5-0.5,0.8-0.8l10.4-12.9c0.2-0.2,0.3-0.4,0.6-0.5
		c0.2-0.1,0.5-0.2,0.8-0.2h1.9l-11.3,14.1c-0.4,0.5-0.8,1-1.3,1.3s-1,0.6-1.6,0.7c0.7,0.2,1.3,0.4,1.8,0.8c0.5,0.4,0.9,0.9,1.4,1.5
		L489.7,217.6z"/>
	<path class="st1" d="M518.6,217.6h-2.4v-31.3h-13.4c-0.2,4.4-0.5,8.2-0.8,11.5s-0.8,6.1-1.2,8.4c-0.5,2.3-1,4.3-1.6,5.8
		s-1.3,2.7-2,3.6c-0.7,0.9-1.5,1.5-2.4,1.8s-1.7,0.5-2.7,0.5c-0.5,0-0.9,0-1.3-0.1s-0.6-0.2-0.6-0.4v-1.5h1.4c0.7,0,1.4-0.2,2.1-0.5
		s1.3-0.9,1.9-1.8c0.6-0.9,1.2-2,1.7-3.5s1-3.4,1.4-5.7s0.8-5.1,1.1-8.4c0.3-3.3,0.6-7.1,0.7-11.6h18L518.6,217.6L518.6,217.6z"/>
	<path class="st1" d="M530.8,217.6h-2.4v-33.2h2.4V217.6z"/>
	<path class="st1" d="M566.3,184.4v33.2h-2.4v-15.9h-20.8v15.9h-2.4v-33.2h2.4v15.5h20.8v-15.5H566.3z"/>
	<path class="st1" d="M578.5,217.6h-2.4v-33.2h2.4V217.6z"/>
	<path class="st1" d="M612.8,217.6h-2.1c-0.3,0-0.6-0.1-0.8-0.2c-0.2-0.1-0.4-0.4-0.6-0.7l-10.9-13.5c-0.2-0.3-0.4-0.5-0.6-0.7
		s-0.4-0.4-0.7-0.5c-0.3-0.1-0.6-0.2-0.9-0.3s-0.7-0.1-1.2-0.1h-4.3v16h-2.4v-33.2h2.4v15.3h3.8c0.4,0,0.7,0,1.1-0.1
		c0.3,0,0.6-0.1,0.9-0.2c0.3-0.1,0.6-0.3,0.8-0.5c0.3-0.2,0.5-0.5,0.8-0.8l10.4-12.9c0.2-0.2,0.3-0.4,0.6-0.5
		c0.2-0.1,0.5-0.2,0.8-0.2h1.9l-11.3,14.1c-0.4,0.5-0.8,1-1.3,1.3s-1,0.6-1.6,0.7c0.7,0.2,1.3,0.4,1.8,0.8c0.5,0.4,0.9,0.9,1.4,1.5
		L612.8,217.6z"/>
	<path class="st1" d="M643.6,217.6h-1.9c-0.2,0-0.4-0.1-0.5-0.2c-0.1-0.1-0.3-0.3-0.3-0.5l-3.9-9.6h-16.3l-3.9,9.6
		c-0.1,0.2-0.2,0.3-0.3,0.4c-0.1,0.1-0.3,0.2-0.6,0.2h-1.9l13.6-33.2h2.4L643.6,217.6z M636.2,205.5l-6.8-16.8
		c-0.2-0.5-0.5-1.2-0.7-2c-0.1,0.4-0.2,0.7-0.3,1.1c-0.1,0.3-0.2,0.6-0.4,0.9l-6.8,16.8H636.2z"/>
	<path class="st1" d="M681.8,215.6v2h-19.9v-33.2h19.9v2h-17.5v13.4h14.6v1.9h-14.6v13.8L681.8,215.6L681.8,215.6z"/>
	<path class="st1" d="M712.2,212c0.2,0,0.3,0.1,0.4,0.2l0.9,1c-0.7,0.7-1.4,1.4-2.2,2s-1.7,1.1-2.7,1.5s-2,0.7-3.2,1
		c-1.1,0.2-2.4,0.3-3.8,0.3c-2.3,0-4.4-0.4-6.3-1.2s-3.6-1.9-4.9-3.4c-1.4-1.5-2.4-3.3-3.2-5.4c-0.8-2.1-1.1-4.4-1.1-7
		c0-2.5,0.4-4.8,1.2-6.9c0.8-2.1,1.9-3.9,3.3-5.4s3.1-2.7,5.1-3.5s4.1-1.2,6.5-1.2c2.3,0,4.3,0.4,6,1.1c1.8,0.7,3.3,1.7,4.8,3
		l-0.7,1.1c-0.1,0.2-0.3,0.3-0.6,0.3c-0.2,0-0.5-0.2-0.9-0.5s-1-0.7-1.8-1.1c-0.8-0.4-1.7-0.8-2.8-1.1c-1.1-0.3-2.5-0.5-4-0.5
		c-2,0-3.8,0.3-5.5,1s-3.1,1.7-4.3,3c-1.2,1.3-2.1,2.8-2.8,4.7c-0.7,1.8-1,3.9-1,6.2s0.3,4.4,1,6.3c0.7,1.8,1.6,3.4,2.8,4.7
		s2.6,2.3,4.2,2.9c1.6,0.7,3.4,1,5.2,1c1.2,0,2.2-0.1,3.2-0.2c0.9-0.2,1.8-0.4,2.6-0.7c0.8-0.3,1.5-0.7,2.2-1.1c0.7-0.5,1.3-1,2-1.6
		c0.1-0.1,0.2-0.1,0.2-0.2C712.1,212,712.2,212,712.2,212z"/>
	<path class="st1" d="M741.6,186.4h-11.7v31.2h-2.4v-31.2h-11.7v-2h25.8L741.6,186.4L741.6,186.4z"/>
	<path class="st1" d="M767.1,215.6v2h-19.9v-33.2h19.9v2h-17.5v13.4h14.6v1.9h-14.6v13.8L767.1,215.6L767.1,215.6z"/>
	<path class="st1" d="M796,186.4h-11.7v31.2h-2.4v-31.2h-11.7v-2H796L796,186.4L796,186.4z"/>
	<path class="st1" d="M827.2,184.4v33.2h-2.4v-27.3c0-0.5,0-1,0-1.5s0.1-1.1,0.1-1.6c-0.2,0.5-0.4,0.9-0.7,1.3
		c-0.2,0.4-0.4,0.8-0.7,1.1l-19.2,27.2c-0.1,0.2-0.3,0.4-0.5,0.5s-0.4,0.2-0.6,0.2h-1.8v-33.1h2.4v27.3c0,0.5,0,1,0,1.5
		s-0.1,1-0.1,1.6c0.2-0.5,0.4-0.9,0.6-1.3c0.2-0.4,0.4-0.8,0.7-1.1l19.2-27.2c0.1-0.2,0.3-0.4,0.5-0.5c0.2-0.2,0.4-0.2,0.6-0.2
		L827.2,184.4L827.2,184.4z"/>
	<path class="st1" d="M857.4,184.4v33.2H855v-15.8c-1.8,0.5-3.5,0.9-5.2,1.3c-1.7,0.4-3.3,0.5-4.8,0.6s-2.9,0-4.2-0.3
		c-1.3-0.3-2.4-0.7-3.3-1.4s-1.6-1.6-2.2-2.7c-0.5-1.1-0.8-2.5-0.8-4.2v-10.7h2.4v10.7c0,1.9,0.4,3.3,1.3,4.4c0.8,1,2,1.7,3.6,2.1
		c1.6,0.3,3.4,0.4,5.6,0.1c2.2-0.3,4.7-0.8,7.4-1.6v-15.7H857.4z"/>
	<path class="st1" d="M892.9,184.4v33.2h-2.4v-15.9h-20.8v15.9h-2.4v-33.2h2.4v15.5h20.8v-15.5H892.9z"/>
	<path class="st1" d="M932.2,201c0,2.6-0.4,4.9-1.1,7c-0.8,2.1-1.8,3.9-3.2,5.3c-1.4,1.4-3.1,2.6-5,3.4s-4.1,1.2-6.4,1.2
		s-4.5-0.4-6.4-1.2s-3.6-1.9-5-3.4s-2.5-3.3-3.2-5.3c-0.8-2.1-1.1-4.4-1.1-7s0.4-4.9,1.1-7s1.8-3.9,3.2-5.4s3.1-2.6,5-3.4
		s4.1-1.2,6.4-1.2s4.5,0.4,6.4,1.2s3.6,2,5,3.4s2.5,3.3,3.2,5.4C931.8,196.1,932.2,198.4,932.2,201z M929.7,201c0-2.3-0.3-4.4-1-6.2
		c-0.6-1.8-1.5-3.4-2.7-4.7s-2.6-2.3-4.2-2.9c-1.6-0.7-3.5-1-5.4-1c-2,0-3.8,0.3-5.4,1s-3.1,1.7-4.2,2.9c-1.2,1.3-2.1,2.8-2.7,4.7
		c-0.6,1.8-1,3.9-1,6.2s0.3,4.4,1,6.3c0.6,1.8,1.6,3.4,2.7,4.7c1.2,1.3,2.6,2.3,4.2,2.9c1.6,0.7,3.5,1,5.4,1c2,0,3.8-0.3,5.4-1
		s3.1-1.7,4.2-2.9c1.2-1.3,2.1-2.8,2.7-4.7C929.4,205.4,929.7,203.3,929.7,201z"/>
	<path class="st1" d="M938.4,178.5c0,0.3-0.1,0.5-0.2,0.7s-0.3,0.4-0.4,0.6c-0.2,0.2-0.4,0.3-0.6,0.4s-0.5,0.2-0.7,0.2
		s-0.5-0.1-0.7-0.2c-0.2-0.1-0.4-0.2-0.6-0.4s-0.3-0.4-0.4-0.6c-0.1-0.2-0.2-0.5-0.2-0.7c0-0.3,0.1-0.5,0.2-0.7s0.2-0.4,0.4-0.6
		c0.2-0.2,0.4-0.3,0.6-0.4c0.2-0.1,0.5-0.2,0.7-0.2s0.5,0.1,0.7,0.2c0.2,0.1,0.4,0.2,0.6,0.4s0.3,0.4,0.4,0.6
		C938.3,178,938.4,178.3,938.4,178.5z M942.2,217.6h-2.4v-33.2h2.4V217.6z M947.6,178.5c0,0.3-0.1,0.5-0.2,0.7s-0.2,0.4-0.4,0.6
		c-0.2,0.2-0.4,0.3-0.6,0.4s-0.5,0.2-0.7,0.2c-0.3,0-0.5-0.1-0.7-0.2c-0.2-0.1-0.4-0.2-0.6-0.4s-0.3-0.4-0.4-0.6
		c-0.1-0.2-0.2-0.5-0.2-0.7c0-0.5,0.2-1,0.6-1.3c0.4-0.4,0.8-0.6,1.3-0.6c0.3,0,0.5,0.1,0.7,0.2c0.2,0.1,0.4,0.2,0.6,0.4
		s0.3,0.4,0.4,0.6C947.5,178,947.6,178.3,947.6,178.5z"/>
	<path class="st1" d="M988.7,212c0.2,0,0.3,0.1,0.4,0.2l0.9,1c-0.7,0.7-1.4,1.4-2.2,2s-1.7,1.1-2.7,1.5s-2,0.7-3.2,1
		c-1.1,0.2-2.4,0.3-3.8,0.3c-2.3,0-4.4-0.4-6.3-1.2s-3.6-1.9-4.9-3.4c-1.4-1.5-2.4-3.3-3.2-5.4c-0.8-2.1-1.1-4.4-1.1-7
		c0-2.5,0.4-4.8,1.2-6.9c0.8-2.1,1.9-3.9,3.3-5.4s3.1-2.7,5.1-3.5s4.1-1.2,6.5-1.2c2.3,0,4.3,0.4,6,1.1c1.8,0.7,3.3,1.7,4.8,3
		l-0.7,1.1c-0.1,0.2-0.3,0.3-0.6,0.3c-0.2,0-0.5-0.2-0.9-0.5s-1-0.7-1.8-1.1c-0.8-0.4-1.7-0.8-2.8-1.1c-1.1-0.3-2.5-0.5-4-0.5
		c-2,0-3.8,0.3-5.5,1s-3.1,1.7-4.3,3c-1.2,1.3-2.1,2.8-2.8,4.7c-0.7,1.8-1,3.9-1,6.2s0.3,4.4,1,6.3c0.7,1.8,1.6,3.4,2.8,4.7
		s2.6,2.3,4.2,2.9c1.6,0.7,3.4,1,5.2,1c1.2,0,2.2-0.1,3.2-0.2c0.9-0.2,1.8-0.4,2.6-0.7c0.8-0.3,1.5-0.7,2.2-1.1c0.7-0.5,1.3-1,2-1.6
		c0.1-0.1,0.2-0.1,0.2-0.2C988.6,212,988.7,212,988.7,212z"/>
	<path class="st1" d="M1018.1,186.4h-11.7v31.2h-2.4v-31.2h-11.7v-2h25.8L1018.1,186.4L1018.1,186.4z"/>
	<path class="st1" d="M1051.2,201c0,2.6-0.4,4.9-1.1,7c-0.8,2.1-1.8,3.9-3.2,5.3c-1.4,1.4-3.1,2.6-5,3.4s-4.1,1.2-6.4,1.2
		s-4.5-0.4-6.4-1.2s-3.6-1.9-5-3.4s-2.5-3.3-3.2-5.3c-0.8-2.1-1.1-4.4-1.1-7s0.4-4.9,1.1-7s1.8-3.9,3.2-5.4s3.1-2.6,5-3.4
		s4.1-1.2,6.4-1.2s4.5,0.4,6.4,1.2s3.6,2,5,3.4s2.5,3.3,3.2,5.4C1050.8,196.1,1051.2,198.4,1051.2,201z M1048.8,201
		c0-2.3-0.3-4.4-1-6.2c-0.6-1.8-1.5-3.4-2.7-4.7s-2.6-2.3-4.2-2.9c-1.6-0.7-3.5-1-5.4-1c-2,0-3.8,0.3-5.4,1s-3.1,1.7-4.2,2.9
		c-1.2,1.3-2.1,2.8-2.7,4.7c-0.6,1.8-1,3.9-1,6.2s0.3,4.4,1,6.3c0.6,1.8,1.6,3.4,2.7,4.7c1.2,1.3,2.6,2.3,4.2,2.9
		c1.6,0.7,3.5,1,5.4,1c2,0,3.8-0.3,5.4-1s3.1-1.7,4.2-2.9c1.2-1.3,2.1-2.8,2.7-4.7C1048.4,205.4,1048.8,203.3,1048.8,201z"/>
	<path class="st1" d="M1091.7,184.4v33.2h-2.1v-28.3c0-0.4,0-0.8,0.1-1.3l-13.1,23.2c-0.2,0.4-0.5,0.6-0.9,0.6h-0.4
		c-0.4,0-0.7-0.2-0.9-0.6l-13.4-23.3c0,0.5,0.1,0.9,0.1,1.3v28.3h-2.1v-33.1h1.7c0.2,0,0.4,0,0.5,0.1c0.1,0,0.3,0.2,0.4,0.4
		L1075,208c0.2,0.4,0.4,0.9,0.6,1.4c0.1-0.3,0.2-0.5,0.3-0.7s0.2-0.5,0.4-0.7l13-23.1c0.1-0.2,0.3-0.3,0.4-0.4
		c0.1-0.1,0.3-0.1,0.5-0.1H1091.7z"/>
	<path class="st1" d="M1126.7,217.6h-1.9c-0.2,0-0.4-0.1-0.5-0.2c-0.1-0.1-0.3-0.3-0.3-0.5l-3.9-9.6h-16.3l-3.9,9.6
		c-0.1,0.2-0.2,0.3-0.3,0.4c-0.1,0.1-0.3,0.2-0.6,0.2h-1.8l13.6-33.2h2.4L1126.7,217.6z M1119.4,205.5l-6.8-16.8
		c-0.2-0.5-0.5-1.2-0.7-2c-0.1,0.4-0.2,0.7-0.3,1.1c-0.1,0.3-0.2,0.6-0.4,0.9l-6.8,16.8H1119.4z"/>
	<path class="st1" d="M1150.6,186.4h-11.7v31.2h-2.4v-31.2h-11.7v-2h25.8V186.4L1150.6,186.4z"/>
	<path class="st1" d="M1183.7,201c0,2.6-0.4,4.9-1.1,7c-0.8,2.1-1.8,3.9-3.2,5.3c-1.4,1.4-3.1,2.6-5,3.4s-4.1,1.2-6.4,1.2
		s-4.5-0.4-6.4-1.2s-3.6-1.9-5-3.4s-2.5-3.3-3.2-5.3c-0.8-2.1-1.1-4.4-1.1-7s0.4-4.9,1.1-7s1.8-3.9,3.2-5.4s3.1-2.6,5-3.4
		s4.1-1.2,6.4-1.2s4.5,0.4,6.4,1.2s3.6,2,5,3.4s2.5,3.3,3.2,5.4C1183.3,196.1,1183.7,198.4,1183.7,201z M1181.2,201
		c0-2.3-0.3-4.4-1-6.2c-0.6-1.8-1.5-3.4-2.7-4.7c-1.2-1.3-2.6-2.3-4.2-2.9c-1.6-0.7-3.5-1-5.4-1c-2,0-3.8,0.3-5.4,1
		c-1.6,0.7-3.1,1.7-4.2,2.9c-1.2,1.3-2.1,2.8-2.7,4.7c-0.6,1.8-1,3.9-1,6.2s0.3,4.4,1,6.3c0.6,1.8,1.6,3.4,2.7,4.7
		c1.2,1.3,2.6,2.3,4.2,2.9c1.6,0.7,3.5,1,5.4,1c2,0,3.8-0.3,5.4-1c1.6-0.7,3.1-1.7,4.2-2.9c1.2-1.3,2.1-2.8,2.7-4.7
		C1180.9,205.4,1181.2,203.3,1181.2,201z"/>
	<path class="st1" d="M1213.5,217.6h-2.4v-31.3h-13.4c-0.2,4.4-0.5,8.2-0.8,11.5c-0.3,3.3-0.8,6.1-1.2,8.4c-0.5,2.3-1,4.3-1.6,5.8
		s-1.3,2.7-2,3.6c-0.7,0.9-1.5,1.5-2.4,1.8s-1.7,0.5-2.7,0.5c-0.5,0-0.9,0-1.3-0.1s-0.6-0.2-0.6-0.4v-1.5h1.4c0.7,0,1.4-0.2,2.1-0.5
		s1.3-0.9,1.9-1.8c0.6-0.9,1.2-2,1.7-3.5s1-3.4,1.4-5.7s0.8-5.1,1.1-8.4c0.3-3.3,0.6-7.1,0.7-11.6h18L1213.5,217.6L1213.5,217.6z"/>
	<path class="st1" d="M1252.8,201c0,2.6-0.4,4.9-1.1,7c-0.8,2.1-1.8,3.9-3.2,5.3c-1.4,1.4-3.1,2.6-5,3.4s-4.1,1.2-6.4,1.2
		s-4.5-0.4-6.4-1.2s-3.6-1.9-5-3.4s-2.5-3.3-3.2-5.3c-0.8-2.1-1.1-4.4-1.1-7s0.4-4.9,1.1-7s1.8-3.9,3.2-5.4s3.1-2.6,5-3.4
		s4.1-1.2,6.4-1.2s4.5,0.4,6.4,1.2s3.6,2,5,3.4s2.5,3.3,3.2,5.4C1252.4,196.1,1252.8,198.4,1252.8,201z M1250.3,201
		c0-2.3-0.3-4.4-1-6.2c-0.6-1.8-1.5-3.4-2.7-4.7c-1.2-1.3-2.6-2.3-4.2-2.9c-1.6-0.7-3.5-1-5.4-1c-2,0-3.8,0.3-5.4,1
		c-1.6,0.7-3.1,1.7-4.2,2.9c-1.2,1.3-2.1,2.8-2.7,4.7c-0.6,1.8-1,3.9-1,6.2s0.3,4.4,1,6.3c0.6,1.8,1.6,3.4,2.7,4.7
		c1.2,1.3,2.6,2.3,4.2,2.9c1.6,0.7,3.5,1,5.4,1c2,0,3.8-0.3,5.4-1c1.6-0.7,3.1-1.7,4.2-2.9c1.2-1.3,2.1-2.8,2.7-4.7
		C1250,205.4,1250.3,203.3,1250.3,201z"/>
	<path class="st1" d="M1279.9,186.3h-17v31.3h-2.4v-33.2h19.4V186.3z"/>
	<path class="st1" d="M1287.9,217.6h-2.4v-33.2h2.4V217.6z"/>
	<path class="st1" d="M1296.3,178.5c0,0.3-0.1,0.5-0.2,0.7c-0.1,0.2-0.3,0.4-0.4,0.6c-0.2,0.2-0.4,0.3-0.6,0.4s-0.5,0.2-0.7,0.2
		c-0.2,0-0.5-0.1-0.7-0.2c-0.2-0.1-0.4-0.2-0.6-0.4s-0.3-0.4-0.4-0.6c-0.1-0.2-0.2-0.5-0.2-0.7c0-0.3,0.1-0.5,0.2-0.7
		s0.2-0.4,0.4-0.6c0.2-0.2,0.4-0.3,0.6-0.4c0.2-0.1,0.5-0.2,0.7-0.2c0.2,0,0.5,0.1,0.7,0.2c0.2,0.1,0.4,0.2,0.6,0.4s0.3,0.4,0.4,0.6
		C1296.2,178,1296.3,178.3,1296.3,178.5z M1300.1,217.6h-2.4v-33.2h2.4V217.6z M1305.4,178.5c0,0.3-0.1,0.5-0.2,0.7
		c-0.1,0.2-0.2,0.4-0.4,0.6c-0.2,0.2-0.4,0.3-0.6,0.4s-0.5,0.2-0.7,0.2c-0.3,0-0.5-0.1-0.7-0.2c-0.2-0.1-0.4-0.2-0.6-0.4
		c-0.2-0.2-0.3-0.4-0.4-0.6c-0.1-0.2-0.2-0.5-0.2-0.7c0-0.5,0.2-1,0.6-1.3c0.4-0.4,0.8-0.6,1.3-0.6c0.3,0,0.5,0.1,0.7,0.2
		c0.2,0.1,0.4,0.2,0.6,0.4s0.3,0.4,0.4,0.6C1305.3,178,1305.4,178.3,1305.4,178.5z"/>
	<path class="st1" d="M526.9,242.1l-7.3,59.3H516l6.2-50.7c0.1-0.7,0.2-1.4,0.4-2.2L496.2,290c-0.4,0.7-1,1-1.7,1h-0.7
		c-0.8,0-1.2-0.3-1.5-1l-16.8-41.6c0,0.8,0,1.6-0.1,2.3l-6.2,50.7h-3.6l7.3-59.3h2.8c0.4,0,0.7,0,0.9,0.1c0.2,0.1,0.4,0.3,0.6,0.7
		l16.9,41.7c0.1,0.3,0.2,0.6,0.3,0.9c0.1,0.3,0.2,0.7,0.3,1c0.3-0.6,0.6-1.3,1-1.9l26.7-41.7c0.3-0.3,0.5-0.6,0.7-0.7
		c0.2-0.1,0.5-0.1,0.9-0.1H526.9L526.9,242.1z"/>
	<path class="st1" d="M569.1,259.7l-5,41.7h-1.8c-0.5,0-0.9-0.1-1.2-0.4s-0.4-0.7-0.4-1.1L562,288c-1.1,2.2-2.4,4.2-3.8,5.9
		s-2.8,3.2-4.3,4.4s-3.1,2.1-4.7,2.7c-1.6,0.6-3.3,0.9-4.9,0.9c-3.6,0-6.1-1.4-7.7-4.1c-1.6-2.7-2-6.6-1.4-11.6l3.1-26.5h3.9
		l-3.1,26.5c-0.5,4-0.2,7.1,0.8,9.2c1,2.1,2.9,3.2,5.7,3.2c1.5,0,3.1-0.4,4.7-1.2s3.1-1.9,4.6-3.4s2.9-3.2,4.2-5.3
		c1.3-2.1,2.5-4.4,3.5-6.9l2.6-22.2L569.1,259.7L569.1,259.7L569.1,259.7z"/>
	<path class="st1" d="M584,274.2c1.1-2.3,2.3-4.3,3.7-6.2c1.4-1.9,2.8-3.4,4.3-4.8c1.5-1.3,3.1-2.4,4.7-3.1c1.6-0.7,3.3-1.1,5-1.1
		c1.8,0,3.4,0.3,4.8,1s2.5,1.7,3.4,3s1.6,2.8,2.1,4.6s0.7,3.8,0.7,6.1c0,2.2-0.2,4.3-0.7,6.6c-0.4,2.2-1.1,4.4-1.9,6.5s-1.8,4-3,5.9
		s-2.5,3.5-4,4.8s-3.2,2.5-5,3.2c-1.8,0.8-3.7,1.2-5.7,1.2c-2.3,0-4.4-0.5-6.3-1.5s-3.5-2.5-4.7-4.4l-2.4,20.2h-3.9l6.9-56.6h1.8
		c1,0,1.5,0.5,1.5,1.5L584,274.2z M581.9,292.8c1.2,2.2,2.7,3.8,4.5,4.7s3.6,1.3,5.6,1.3c1.8,0,3.4-0.4,4.9-1.1s2.9-1.7,4.1-2.9
		s2.3-2.7,3.3-4.3s1.8-3.4,2.4-5.2c0.7-1.8,1.2-3.7,1.5-5.6c0.3-1.9,0.5-3.8,0.5-5.6c0-3.7-0.7-6.7-2.1-8.7
		c-1.4-2.1-3.5-3.1-6.2-3.1c-1.6,0-3.2,0.4-4.8,1.3c-1.6,0.9-3.2,2.2-4.6,3.8c-1.5,1.6-2.9,3.6-4.2,5.8c-1.3,2.2-2.5,4.8-3.5,7.6
		L581.9,292.8z"/>
	<path class="st1" d="M635,302c-2.2,0-4.3-0.4-6.1-1.2c-1.8-0.8-3.4-1.9-4.7-3.4c-1.3-1.5-2.3-3.3-3-5.4c-0.7-2.1-1.1-4.5-1.1-7.2
		c0-3.4,0.5-6.6,1.5-9.7s2.4-5.8,4.3-8.2c1.8-2.4,4-4.3,6.5-5.7s5.3-2.1,8.3-2.1c2.2,0,4.3,0.4,6.1,1.2c1.8,0.8,3.4,1.9,4.7,3.4
		s2.3,3.3,3,5.4c0.7,2.1,1.1,4.5,1.1,7.1c0,3.4-0.5,6.6-1.5,9.7c-1,3.1-2.4,5.8-4.3,8.2c-1.8,2.4-4,4.3-6.5,5.7
		C640.7,301.3,638,302,635,302z M635.3,298.8c2.4,0,4.6-0.6,6.6-1.9s3.7-3,5.1-5.1s2.5-4.5,3.3-7.3s1.2-5.5,1.2-8.4
		c0-4.5-1-7.9-3-10.3c-2-2.4-4.7-3.6-8.3-3.6c-2.4,0-4.6,0.6-6.6,1.9c-2,1.3-3.7,2.9-5.1,5s-2.5,4.5-3.3,7.2s-1.2,5.5-1.2,8.5
		c0,4.4,1,7.9,3,10.3C629,297.6,631.7,298.8,635.3,298.8z"/>
	<path class="st1" d="M689.2,297.9c-1.3,1.1-2.6,1.9-3.9,2.5s-2.6,1-3.9,1.3c-1.3,0.2-2.7,0.3-4.2,0.3c-2.4,0-4.5-0.4-6.3-1.2
		s-3.2-2-4.4-3.5c-1.2-1.5-2.1-3.2-2.6-5.3c-0.6-2-0.9-4.3-0.9-6.7c0-2.2,0.2-4.4,0.7-6.6s1.1-4.2,2-6.2s1.9-3.8,3.1-5.4
		c1.2-1.6,2.6-3.1,4.1-4.3s3.2-2.1,5-2.8s3.7-1,5.8-1c1.4,0,2.6,0.1,3.7,0.4s2.1,0.6,3,1.1s1.8,1.1,2.5,1.8c0.8,0.7,1.5,1.5,2.1,2.3
		l-1.2,1.4c-0.3,0.3-0.5,0.5-0.9,0.5c-0.3,0-0.6-0.2-1-0.7c-0.4-0.4-1-0.9-1.6-1.4c-0.7-0.5-1.6-1-2.7-1.4s-2.5-0.7-4.1-0.7
		c-2.3,0-4.5,0.6-6.6,1.9c-2.1,1.3-3.8,2.9-5.3,5.1c-1.5,2.1-2.7,4.6-3.5,7.4c-0.9,2.8-1.3,5.7-1.3,8.7c0,1.9,0.2,3.7,0.7,5.4
		c0.4,1.6,1.1,3.1,2,4.3s2,2.1,3.4,2.8s3,1,4.9,1c1.5,0,2.8-0.2,4-0.5s2.2-0.7,3.1-1.2s1.7-1,2.4-1.6c0.7-0.6,1.3-1.1,1.8-1.6
		s1-0.9,1.4-1.2s0.7-0.5,1-0.5s0.6,0.1,0.9,0.4l0.9,1.1C691.9,295.4,690.5,296.8,689.2,297.9z"/>
	<path class="st1" d="M709.3,279.5c0.9-3.6,2-6.6,3.2-9.1s2.7-4.6,4.4-6.1s3.8-2.7,6.2-3.4c2.4-0.7,5.2-1.1,8.5-1.1h5.1l-5.1,41.7
		h-3.8l4.7-38.6h-1.6c-2.6,0-4.8,0.3-6.6,0.9c-1.9,0.6-3.5,1.6-4.8,2.9c-1.4,1.3-2.5,3.1-3.5,5.2s-1.9,4.8-2.7,7.9
		c-1.1,4.2-2.1,7.7-3.2,10.5c-1,2.8-2.2,5.1-3.3,6.9c-1.2,1.7-2.4,3-3.8,3.7s-2.9,1.1-4.5,1.1c-0.8,0-1.4-0.1-1.8-0.2
		c-0.3-0.2-0.5-0.4-0.5-0.7l0.3-2.2h1.4c1.4,0,2.6-0.4,3.6-1.1s2-1.8,2.9-3.4s1.7-3.5,2.5-6C707.5,285.9,708.4,283,709.3,279.5z"/>
	<path class="st1" d="M771.6,286.9c-1.1,2.2-2.2,4.3-3.5,6.1c-1.3,1.9-2.6,3.4-4.1,4.8c-1.5,1.3-3,2.3-4.6,3.1s-3.2,1.1-4.9,1.1
		s-3.3-0.3-4.6-1c-1.3-0.7-2.4-1.7-3.3-2.9c-0.9-1.3-1.5-2.8-2-4.6c-0.4-1.8-0.7-3.8-0.7-6c0-2.4,0.3-4.8,0.9-7.1s1.5-4.5,2.6-6.6
		s2.5-4,4-5.8c1.6-1.8,3.3-3.3,5.2-4.6c1.9-1.3,3.9-2.3,6.1-3s4.4-1.1,6.7-1.1c1.6,0,3.2,0.1,4.7,0.4c1.5,0.3,2.9,0.8,4.3,1.5
		l-4.9,40.3h-1.9c-0.6,0-0.9-0.2-1.1-0.5s-0.3-0.7-0.3-1L771.6,286.9z M774.3,263c-0.8-0.3-1.7-0.5-2.6-0.7
		c-0.9-0.1-1.8-0.2-2.7-0.2c-2.8,0-5.5,0.7-8,2.1c-2.5,1.4-4.8,3.2-6.7,5.5c-1.9,2.3-3.5,4.9-4.6,7.9s-1.7,6-1.7,9.2
		c0,3.7,0.6,6.7,1.9,8.7c1.3,2.1,3.2,3.1,5.9,3.1c1.6,0,3.2-0.4,4.7-1.3c1.5-0.9,3-2.2,4.4-3.8s2.7-3.6,4-5.8
		c1.2-2.3,2.3-4.8,3.3-7.6L774.3,263z"/>
	<path class="st1" d="M805.9,278.3c3.5-0.1,6.2,0.7,8.1,2.3s2.8,3.9,2.8,6.8c0,1.9-0.4,3.8-1.3,5.5c-0.9,1.8-2.1,3.3-3.6,4.7
		c-1.5,1.3-3.3,2.4-5.3,3.2s-4.2,1.2-6.6,1.2c-2.3,0-4.3-0.4-6.1-1.2c-1.8-0.8-3.2-1.9-4.4-3.2c-1.2-1.3-2.1-3-2.7-4.9
		s-0.9-3.9-0.9-6.1s0.2-4.5,0.7-6.7s1.1-4.3,2-6.4c0.9-2.1,2-3.9,3.2-5.7s2.7-3.3,4.3-4.5c1.6-1.2,3.3-2.3,5.2-3s3.9-1.1,6.1-1.1
		c1.8,0,3.3,0.2,4.5,0.7s2.3,1.1,3.1,1.9s1.4,1.6,1.7,2.6c0.4,1,0.5,1.9,0.5,2.9c0,1.1-0.2,2.2-0.6,3.2c-0.4,1.1-1,2.1-1.9,3
		c-0.9,1-2.1,1.9-3.5,2.7C809.8,277,808,277.7,805.9,278.3z M790.1,282.4c-0.2,1.3-0.3,2.5-0.3,3.7c0,1.8,0.2,3.6,0.6,5.1
		c0.4,1.6,1.1,2.9,2,4.1c0.9,1.1,2,2,3.3,2.7c1.3,0.6,2.8,1,4.6,1c1.7,0,3.3-0.3,4.9-1c1.5-0.6,2.9-1.4,4-2.5c1.2-1,2.1-2.3,2.8-3.6
		c0.7-1.3,1-2.8,1-4.4c0-1.2-0.2-2.4-0.7-3.4c-0.4-1.1-1.2-1.9-2.2-2.6s-2.3-1.1-4-1.3s-3.7-0.1-6.1,0.4L790.1,282.4z M799.1,278
		c3.2-0.6,5.8-1.3,7.7-2.1c1.9-0.8,3.4-1.6,4.5-2.6s1.7-1.8,2.1-2.8c0.3-0.9,0.5-1.9,0.5-2.8c0-0.6-0.1-1.3-0.3-2s-0.6-1.3-1.2-1.9
		c-0.5-0.6-1.3-1-2.2-1.4c-0.9-0.4-2-0.5-3.4-0.5c-2.1,0-4.1,0.5-5.9,1.4c-1.8,1-3.4,2.3-4.8,3.9c-1.4,1.6-2.6,3.5-3.6,5.7
		c-1,2.1-1.7,4.4-2.2,6.8L799.1,278z"/>
	<path class="st1" d="M860.9,259.7l-5,41.7H854c-0.5,0-0.9-0.1-1.2-0.4c-0.3-0.3-0.4-0.7-0.4-1.1l1.3-11.9c-1.1,2.2-2.4,4.2-3.8,5.9
		s-2.8,3.2-4.3,4.4s-3.1,2.1-4.7,2.7c-1.6,0.6-3.3,0.9-4.9,0.9c-3.6,0-6.1-1.4-7.7-4.1s-2-6.6-1.4-11.6l3.1-26.5h3.9l-3.1,26.5
		c-0.5,4-0.2,7.1,0.8,9.2c1,2.1,2.9,3.2,5.7,3.2c1.5,0,3.1-0.4,4.7-1.2s3.1-1.9,4.6-3.4s2.9-3.2,4.2-5.3c1.3-2.1,2.5-4.4,3.5-6.9
		l2.6-22.2L860.9,259.7L860.9,259.7L860.9,259.7z"/>
	<path class="st1" d="M938.7,315c-0.1,0.4-0.2,0.7-0.5,1s-0.6,0.4-1,0.4h-2.4l1.8-14.9H888l-1.7,13.5c0,0.4-0.2,0.7-0.5,1
		s-0.6,0.4-1.1,0.4h-2.4l2.3-18.2h5.1c1-0.4,2-1.1,3-2.1s2-2.4,3-4.3c1-1.8,2.1-4.2,3.1-7s2.1-6.2,3.1-10.2s2.1-8.7,3.2-14
		s2.2-11.5,3.2-18.4h29.8l-6.9,55.9h9.5L938.7,315z M927.1,298.1l6.5-52.6h-21.7c-0.9,5.5-1.8,10.5-2.7,15s-1.8,8.5-2.8,12.1
		c-0.9,3.6-1.9,6.8-2.8,9.5c-0.9,2.8-1.9,5.2-2.8,7.2c-1,2.1-1.9,3.8-2.9,5.2s-1.9,2.6-2.9,3.6H927.1z"/>
	<path class="st1" d="M955,274.2c1.1-2.3,2.3-4.3,3.7-6.2c1.4-1.9,2.8-3.4,4.3-4.8c1.5-1.3,3.1-2.4,4.7-3.1c1.6-0.7,3.3-1.1,5-1.1
		c1.8,0,3.4,0.3,4.8,1s2.5,1.7,3.4,3s1.6,2.8,2.1,4.6s0.7,3.8,0.7,6.1c0,2.2-0.2,4.3-0.7,6.6c-0.4,2.2-1.1,4.4-1.9,6.5s-1.8,4-3,5.9
		s-2.5,3.5-4,4.8s-3.2,2.5-5,3.2c-1.8,0.8-3.7,1.2-5.7,1.2c-2.3,0-4.4-0.5-6.3-1.5s-3.5-2.5-4.7-4.4l-2.4,20.2h-3.9l6.9-56.6h1.8
		c1,0,1.5,0.5,1.5,1.5L955,274.2z M952.8,292.8c1.2,2.2,2.7,3.8,4.5,4.7s3.6,1.3,5.6,1.3c1.8,0,3.4-0.4,4.9-1.1s2.9-1.7,4.1-2.9
		s2.3-2.7,3.3-4.3s1.8-3.4,2.4-5.2c0.7-1.8,1.2-3.7,1.5-5.6c0.3-1.9,0.5-3.8,0.5-5.6c0-3.7-0.7-6.7-2.1-8.7
		c-1.4-2.1-3.5-3.1-6.2-3.1c-1.6,0-3.2,0.4-4.8,1.3s-3.2,2.2-4.6,3.8c-1.5,1.6-2.9,3.6-4.2,5.8c-1.3,2.2-2.5,4.8-3.5,7.6
		L952.8,292.8z"/>
	<path class="st1" d="M1005.9,302c-2.2,0-4.3-0.4-6.1-1.2c-1.8-0.8-3.4-1.9-4.7-3.4c-1.3-1.5-2.3-3.3-3-5.4
		c-0.7-2.1-1.1-4.5-1.1-7.2c0-3.4,0.5-6.6,1.5-9.7s2.4-5.8,4.3-8.2c1.8-2.4,4-4.3,6.5-5.7s5.3-2.1,8.3-2.1c2.2,0,4.3,0.4,6.1,1.2
		c1.8,0.8,3.4,1.9,4.7,3.4s2.3,3.3,3,5.4c0.7,2.1,1.1,4.5,1.1,7.1c0,3.4-0.5,6.6-1.5,9.7c-1,3.1-2.4,5.8-4.3,8.2
		c-1.8,2.4-4,4.3-6.5,5.7C1011.7,301.3,1008.9,302,1005.9,302z M1006.3,298.8c2.4,0,4.6-0.6,6.6-1.9s3.7-3,5.1-5.1s2.5-4.5,3.3-7.3
		s1.2-5.5,1.2-8.4c0-4.5-1-7.9-3-10.3c-2-2.4-4.7-3.6-8.3-3.6c-2.4,0-4.6,0.6-6.6,1.9c-2,1.3-3.7,2.9-5.1,5s-2.5,4.5-3.3,7.2
		s-1.2,5.5-1.2,8.5c0,4.4,1,7.9,3,10.3C1000,297.6,1002.7,298.8,1006.3,298.8z"/>
	<path class="st1" d="M1050,259.1c1.5,0,2.8,0.2,4.1,0.5c1.3,0.4,2.4,0.9,3.4,1.6s1.8,1.5,2.3,2.5s0.9,2.2,0.9,3.5
		c0,1.4-0.3,2.7-1,3.9s-1.6,2.4-2.8,3.5c-1.1,1.1-2.5,2.1-3.9,3.1c-1.5,1-3,1.9-4.5,2.9c-1.5,0.9-3,1.9-4.5,2.8s-2.8,1.9-3.9,2.8
		c-1.1,0.9-2.1,2-2.8,3c-0.7,1-1,2.2-1,3.3c0,0.9,0.2,1.7,0.6,2.5s1,1.4,1.8,2c0.8,0.5,1.7,1,2.8,1.3c1.1,0.3,2.3,0.5,3.6,0.5
		c1.6,0,3.1-0.2,4.4-0.6c1.4-0.4,2.6-0.9,3.6-1.4c1.1-0.5,1.9-1,2.7-1.4c0.7-0.4,1.2-0.6,1.5-0.6c0.5,0,0.9,0.2,1.1,0.7l0.8,1.2
		c-2.1,1.7-4.4,3-7,3.9s-5.2,1.4-7.8,1.4c-1.9,0-3.6-0.2-5.1-0.7s-2.8-1.1-3.8-1.9s-1.9-1.8-2.4-2.9c-0.6-1.1-0.8-2.3-0.8-3.5
		c0-1.4,0.3-2.8,1-4c0.7-1.3,1.6-2.4,2.8-3.6s2.5-2.2,3.9-3.2s3-2,4.5-2.9s3-1.9,4.5-2.8c1.5-0.9,2.8-1.9,3.9-2.8
		c1.2-1,2.1-1.9,2.8-2.9c0.7-1,1-2.1,1-3.2c0-1.5-0.7-2.8-2-3.8s-3.1-1.5-5.4-1.5c-1.5,0-2.8,0.2-4.1,0.6c-1.2,0.4-2.3,0.8-3.3,1.3
		s-1.8,0.9-2.4,1.3c-0.6,0.4-1.1,0.6-1.4,0.6c-0.1,0-0.3,0-0.4-0.1c-0.2-0.1-0.3-0.2-0.4-0.4l-0.8-1.6c0.9-0.8,1.8-1.4,2.9-2
		s2.2-1.1,3.4-1.5c1.2-0.4,2.4-0.7,3.6-1C1047.7,259.2,1048.8,259.1,1050,259.1z"/>
	<path class="st1" d="M1082.5,302c-2.2,0-4.3-0.4-6.1-1.2c-1.8-0.8-3.4-1.9-4.7-3.4c-1.3-1.5-2.3-3.3-3-5.4
		c-0.7-2.1-1.1-4.5-1.1-7.2c0-3.4,0.5-6.6,1.5-9.7s2.4-5.8,4.3-8.2c1.8-2.4,4-4.3,6.5-5.7s5.3-2.1,8.3-2.1c2.2,0,4.3,0.4,6.1,1.2
		c1.8,0.8,3.4,1.9,4.7,3.4c1.3,1.5,2.3,3.3,3,5.4c0.7,2.1,1.1,4.5,1.1,7.1c0,3.4-0.5,6.6-1.5,9.7c-1,3.1-2.4,5.8-4.3,8.2
		c-1.8,2.4-4,4.3-6.5,5.7C1088.3,301.3,1085.5,302,1082.5,302z M1082.8,298.8c2.4,0,4.6-0.6,6.6-1.9s3.7-3,5.1-5.1s2.5-4.5,3.3-7.3
		c0.8-2.8,1.2-5.5,1.2-8.4c0-4.5-1-7.9-3-10.3c-2-2.4-4.7-3.6-8.3-3.6c-2.4,0-4.6,0.6-6.6,1.9c-2,1.3-3.7,2.9-5.1,5
		s-2.5,4.5-3.3,7.2c-0.8,2.7-1.2,5.5-1.2,8.5c0,4.4,1,7.9,3,10.3C1076.5,297.6,1079.3,298.8,1082.8,298.8z"/>
	<path class="st1" d="M1159.6,259.5l-5.2,41.9h-3.6l4.2-34.2c0.1-0.7,0.2-1.5,0.5-2.3l-21,34.1c-0.2,0.3-0.4,0.5-0.6,0.6
		c-0.2,0.2-0.5,0.3-0.7,0.3h-0.6c-0.3,0-0.5-0.1-0.6-0.3c-0.2-0.2-0.3-0.4-0.4-0.6l-11.1-34.2c-0.1,0.4-0.1,0.9-0.2,1.4
		c-0.1,0.5-0.1,0.9-0.2,1.3c-1,5.8-2.2,11.4-3.4,16.8c-1.2,5.4-2.7,10.7-4.4,15.9c-0.1,0.4-0.4,0.7-0.7,1c-0.3,0.3-0.7,0.4-1.2,0.4
		h-2.2c1.1-3.5,2.2-6.9,3.1-10.2c0.9-3.3,1.9-6.6,2.7-10c0.8-3.4,1.6-6.8,2.3-10.4c0.7-3.5,1.4-7.3,2.1-11.3h2.9
		c0.3,0,0.5,0,0.8,0.1c0.3,0.1,0.4,0.3,0.6,0.7l10.8,32.1c0.2,0.7,0.4,1.4,0.5,2.1c0.2-0.5,0.5-1,0.8-1.6l20.1-32.6
		c0.2-0.4,0.5-0.6,0.7-0.7c0.2-0.1,0.5-0.2,0.8-0.2L1159.6,259.5L1159.6,259.5L1159.6,259.5z"/>
	<path class="st1" d="M1202.7,259.7l-5,41.7h-1.8c-0.5,0-0.9-0.1-1.2-0.4c-0.3-0.3-0.4-0.7-0.4-1.1l1.3-11.9
		c-1.1,2.2-2.4,4.2-3.8,5.9c-1.4,1.7-2.8,3.2-4.3,4.4s-3.1,2.1-4.7,2.7c-1.6,0.6-3.3,0.9-4.9,0.9c-3.6,0-6.1-1.4-7.7-4.1
		c-1.6-2.7-2-6.6-1.4-11.6l3.1-26.5h3.9l-3.1,26.5c-0.5,4-0.2,7.1,0.8,9.2c1,2.1,2.9,3.2,5.7,3.2c1.5,0,3.1-0.4,4.7-1.2
		c1.6-0.8,3.1-1.9,4.6-3.4s2.9-3.2,4.2-5.3c1.3-2.1,2.5-4.4,3.5-6.9l2.6-22.2L1202.7,259.7L1202.7,259.7L1202.7,259.7z"/>
	<path class="st1" d="M1217.7,274.2c1.1-2.3,2.3-4.3,3.7-6.2s2.8-3.4,4.3-4.8c1.5-1.3,3.1-2.4,4.7-3.1c1.6-0.7,3.3-1.1,5-1.1
		c1.8,0,3.4,0.3,4.8,1s2.5,1.7,3.4,3s1.6,2.8,2.1,4.6s0.7,3.8,0.7,6.1c0,2.2-0.2,4.3-0.7,6.6c-0.4,2.2-1.1,4.4-1.9,6.5s-1.8,4-3,5.9
		c-1.2,1.9-2.5,3.5-4,4.8s-3.2,2.5-5,3.2c-1.8,0.8-3.7,1.2-5.7,1.2c-2.3,0-4.4-0.5-6.3-1.5c-1.9-1-3.5-2.5-4.7-4.4l-2.5,20.2h-3.9
		l6.9-56.6h1.8c1,0,1.5,0.5,1.5,1.5L1217.7,274.2z M1215.5,292.8c1.2,2.2,2.7,3.8,4.5,4.7c1.8,0.9,3.6,1.3,5.6,1.3
		c1.8,0,3.4-0.4,4.9-1.1s2.9-1.7,4.1-2.9c1.2-1.2,2.3-2.7,3.3-4.3s1.8-3.4,2.4-5.2c0.7-1.8,1.2-3.7,1.5-5.6c0.3-1.9,0.5-3.8,0.5-5.6
		c0-3.7-0.7-6.7-2.1-8.7c-1.4-2.1-3.5-3.1-6.2-3.1c-1.6,0-3.2,0.4-4.8,1.3c-1.6,0.9-3.2,2.2-4.6,3.8c-1.5,1.6-2.9,3.6-4.2,5.8
		c-1.3,2.2-2.5,4.8-3.5,7.6L1215.5,292.8z"/>
	<path class="st1" d="M1284.7,293.7c-1.4,1.5-2.7,2.7-4,3.8c-1.3,1-2.6,1.9-3.9,2.6s-2.7,1.2-4.1,1.5c-1.4,0.3-2.9,0.5-4.6,0.5
		c-2.3,0-4.4-0.4-6.2-1.2c-1.8-0.8-3.3-1.9-4.5-3.3c-1.2-1.4-2.2-3.1-2.8-5.2c-0.6-2-1-4.3-1-6.8c0-2.1,0.2-4.2,0.6-6.3
		s1-4.2,1.9-6.1c0.8-2,1.8-3.8,3.1-5.5c1.2-1.7,2.6-3.2,4.2-4.4c1.6-1.3,3.3-2.2,5.2-3s4-1.1,6.2-1.1c2,0,3.8,0.3,5.2,0.9
		c1.4,0.6,2.6,1.3,3.4,2.1s1.5,1.8,1.9,2.8s0.6,1.9,0.6,2.8c0,1.1-0.2,2.2-0.5,3.3c-0.3,1.1-0.9,2-1.6,2.9c-0.7,0.9-1.8,1.8-3.2,2.6
		s-3.1,1.6-5.1,2.2c-2.1,0.7-4.6,1.3-7.5,1.9c-2.9,0.6-6.3,1-10.2,1.5c-0.1,0.6-0.1,1.1-0.1,1.7s-0.1,1.2-0.1,1.7
		c0,4.2,0.9,7.4,2.8,9.8c1.9,2.3,4.7,3.5,8.5,3.5c1.5,0,2.8-0.2,4-0.5c1.2-0.3,2.2-0.7,3.2-1.2c0.9-0.5,1.8-1,2.5-1.6
		c0.7-0.6,1.3-1.1,1.9-1.6c0.6-0.5,1-0.9,1.4-1.2s0.8-0.5,1.1-0.5c0.3,0,0.6,0.1,0.9,0.4L1284.7,293.7z M1274.5,262.1
		c-2.2,0-4.3,0.5-6.1,1.4c-1.8,0.9-3.4,2.2-4.8,3.8c-1.4,1.6-2.5,3.4-3.5,5.5c-0.9,2.1-1.6,4.3-2.1,6.5c3.5-0.4,6.6-0.8,9.2-1.4
		c2.6-0.5,4.7-1.1,6.5-1.6c1.8-0.6,3.2-1.2,4.4-1.9c1.1-0.7,2-1.4,2.6-2.1c0.6-0.7,1-1.4,1.2-2.2c0.2-0.8,0.3-1.5,0.3-2.3
		c0-0.6-0.1-1.2-0.4-1.9s-0.7-1.3-1.3-1.9c-0.6-0.6-1.4-1-2.4-1.4C1277.2,262.3,1275.9,262.1,1274.5,262.1z"/>
	<path class="st1" d="M1330.8,298.5l-3.9,16.6c-0.1,0.4-0.2,0.7-0.4,1c-0.2,0.2-0.6,0.3-0.9,0.3h-2.2l3.7-14.9h-5.4
		c-0.5,0-0.9-0.1-1.2-0.4c-0.3-0.3-0.4-0.7-0.4-1.1l1.3-11.9c-1.1,2.2-2.4,4.2-3.8,5.9s-2.8,3.2-4.3,4.4s-3.1,2.1-4.7,2.7
		c-1.6,0.6-3.3,0.9-4.9,0.9c-3.6,0-6.1-1.4-7.7-4.1c-1.6-2.7-2-6.6-1.4-11.6l3.1-26.5h3.9l-3.1,26.5c-0.5,4-0.2,7.1,0.8,9.2
		c1,2.1,2.9,3.2,5.7,3.2c1.5,0,3.1-0.4,4.7-1.2s3.1-1.9,4.6-3.4s2.9-3.2,4.2-5.3c1.3-2.1,2.5-4.4,3.5-6.9l2.6-22.2h3.9l-4.7,38.7
		L1330.8,298.5L1330.8,298.5z"/>
	<path class="st1" d="M1343.8,283.2c0.8-1.3,1.8-2.5,2.9-3.7c1.1-1.2,2.3-2.2,3.6-3c1.3-0.9,2.6-1.5,4-2s2.8-0.8,4.1-0.8
		c1.5,0,2.9,0.3,4,0.8c1.2,0.5,2.1,1.2,2.9,2.1c0.8,0.9,1.4,2,1.8,3.2c0.4,1.2,0.6,2.6,0.6,4c0,2.4-0.5,4.7-1.6,6.9
		c-1,2.2-2.4,4.1-4.2,5.8c-1.8,1.7-3.7,3-6,4c-2.3,1-4.6,1.5-7.1,1.5c-1.8,0-3.4-0.2-4.7-0.7c-1.3-0.5-2.4-1.1-3.3-1.9
		c-0.9-0.8-1.5-1.8-1.8-2.9c-0.4-1.1-0.4-2.4-0.3-3.7l4-33h3.9L1343.8,283.2z M1342.7,293c-0.1,0.9,0,1.7,0.3,2.4
		c0.3,0.7,0.7,1.4,1.3,1.9s1.4,1,2.3,1.3c0.9,0.3,2.1,0.5,3.3,0.5c1.8,0,3.5-0.4,5.2-1.3c1.7-0.9,3.2-1.9,4.5-3.3
		c1.3-1.4,2.3-3,3.1-4.7c0.8-1.8,1.2-3.6,1.2-5.5c0-1-0.1-2-0.4-2.9c-0.2-0.9-0.6-1.7-1.2-2.5c-0.5-0.7-1.2-1.3-2.1-1.7
		s-1.9-0.6-3.1-0.6c-1.6,0-3.2,0.4-4.8,1.2s-3.1,1.9-4.4,3.2s-2.5,2.8-3.4,4.4c-1,1.6-1.5,3.3-1.7,5L1342.7,293z"/>
	<path class="st1" d="M1399.8,264.7c1.2-1.6,2.3-2.9,3.5-3.8c1.1-0.9,2.5-1.3,4.2-1.3h1.8l-0.4,2c-0.1,0.4-0.3,0.6-0.7,0.8
		c-0.4,0.1-0.8,0.3-1.3,0.4c-0.5,0.2-1.1,0.4-1.7,0.7c-0.6,0.3-1.2,0.9-1.8,1.7l-8.1,10.4c-0.4,0.5-0.8,1-1.1,1.4
		c-0.3,0.4-0.8,0.8-1.2,1.1s-0.9,0.6-1.4,0.8s-1,0.4-1.7,0.5c1.4,0.3,2.6,0.8,3.5,1.6s1.7,1.9,2.4,3.2l9.1,17.1h-2.3
		c-0.7,0-1.2-0.1-1.6-0.4c-0.4-0.2-0.7-0.6-0.9-1l-8.1-14.8c-0.6-1.2-1.4-2.1-2.3-2.9c-1-0.8-2.1-1.2-3.4-1.2l-5.2,0.9l-2.3,19.4
		h-3.8l5-41.7h3.8l-2.3,19.6l5-0.9c1.2-0.2,2.1-0.6,2.9-1c0.8-0.5,1.5-1.2,2.2-2.1L1399.8,264.7z"/>
	<path class="st1" d="M1426.1,302c-2.2,0-4.3-0.4-6.1-1.2c-1.8-0.8-3.4-1.9-4.7-3.4c-1.3-1.5-2.3-3.3-3-5.4
		c-0.7-2.1-1.1-4.5-1.1-7.2c0-3.4,0.5-6.6,1.5-9.7s2.4-5.8,4.3-8.2c1.8-2.4,4-4.3,6.5-5.7s5.3-2.1,8.3-2.1c2.2,0,4.3,0.4,6.1,1.2
		c1.8,0.8,3.4,1.9,4.7,3.4c1.3,1.5,2.3,3.3,3,5.4c0.7,2.1,1.1,4.5,1.1,7.1c0,3.4-0.5,6.6-1.5,9.7c-1,3.1-2.4,5.8-4.3,8.2
		c-1.8,2.4-4,4.3-6.5,5.7C1431.9,301.3,1429.1,302,1426.1,302z M1426.4,298.8c2.4,0,4.6-0.6,6.6-1.9s3.7-3,5.1-5.1
		c1.4-2.1,2.5-4.5,3.3-7.3c0.8-2.8,1.2-5.5,1.2-8.4c0-4.5-1-7.9-3-10.3c-2-2.4-4.7-3.6-8.3-3.6c-2.4,0-4.6,0.6-6.6,1.9
		c-2,1.3-3.7,2.9-5.1,5c-1.4,2.1-2.5,4.5-3.3,7.2c-0.8,2.7-1.2,5.5-1.2,8.5c0,4.4,1,7.9,3,10.3
		C1420.1,297.6,1422.9,298.8,1426.4,298.8z"/>
	<path class="st1" d="M1461.5,247.6c0,0.4-0.1,0.9-0.3,1.3c-0.2,0.4-0.5,0.8-0.8,1.1c-0.3,0.3-0.7,0.6-1.1,0.7
		c-0.4,0.1-0.9,0.3-1.3,0.3c-0.5,0-0.9-0.1-1.3-0.3c-0.4-0.2-0.8-0.4-1.1-0.7c-0.3-0.3-0.6-0.7-0.8-1.1c-0.2-0.4-0.3-0.8-0.3-1.3
		s0.1-0.9,0.3-1.3c0.2-0.4,0.4-0.8,0.8-1.1c0.3-0.3,0.7-0.6,1.1-0.8c0.4-0.2,0.8-0.3,1.3-0.3c0.4,0,0.9,0.1,1.3,0.3
		c0.4,0.2,0.8,0.4,1.1,0.8c0.3,0.3,0.6,0.7,0.8,1.1C1461.4,246.7,1461.5,247.1,1461.5,247.6z M1463.8,259.7l-5.1,41.7h-3.9l5.1-41.7
		H1463.8z M1472.3,247.6c0,0.4-0.1,0.9-0.3,1.3c-0.2,0.4-0.4,0.8-0.8,1.1c-0.3,0.3-0.7,0.6-1.1,0.7c-0.4,0.1-0.9,0.3-1.3,0.3
		c-0.5,0-0.9-0.1-1.3-0.3c-0.4-0.2-0.8-0.4-1.1-0.7c-0.3-0.3-0.6-0.7-0.7-1.1c-0.2-0.4-0.3-0.8-0.3-1.3c0-0.9,0.3-1.8,1-2.5
		c0.7-0.7,1.5-1,2.4-1c0.4,0,0.9,0.1,1.3,0.3c0.4,0.2,0.8,0.4,1.1,0.8c0.3,0.3,0.6,0.7,0.8,1.1
		C1472.2,246.7,1472.3,247.1,1472.3,247.6z"/>
	<path id="XMLID_22_" class="st1" d="M30.7,299.4c1.6,0,2.9,0.6,4,1.7c1.1,1.1,1.7,2.4,1.7,4s-0.6,2.9-1.7,4c-1.1,1.1-2.4,1.7-4,1.7
		H7.2v6.5c0,0.9-0.7,1.6-1.6,1.6l0,0c-0.9,0-1.6-0.7-1.6-1.6v-16.2c0-0.9,0.7-1.6,1.6-1.6L30.7,299.4L30.7,299.4z M30.7,307.5
		c0.7,0,1.2-0.2,1.7-0.7s0.7-1.1,0.7-1.7c0-0.7-0.2-1.2-0.7-1.7s-1.1-0.7-1.7-0.7H7.2v4.9L30.7,307.5L30.7,307.5z"/>
	<path id="XMLID_20_" class="st1" d="M72.9,301L72.9,301c0,0.9-0.7,1.6-1.6,1.6H43.7v4.9h27.6c0.9,0,1.6,0.7,1.6,1.6l0,0
		c0,0.9-0.7,1.6-1.6,1.6H43.7v4.9h27.6c0.9,0,1.6,0.7,1.6,1.6l0,0c0,0.9-0.7,1.6-1.6,1.6H42c-0.9,0-1.6-0.7-1.6-1.6V301
		c0-0.9,0.7-1.6,1.6-1.6h29.2C72.1,299.4,72.9,300.1,72.9,301z"/>
	<path id="XMLID_18_" class="st1" d="M106.3,310.1c2.1,1.9,3.1,4.3,3.1,7.1l0,0c0,0.9-0.7,1.6-1.6,1.6l0,0c-0.9,0-1.6-0.7-1.6-1.6
		l0,0c0-1.8-0.6-3.3-1.9-4.6s-2.8-1.9-4.6-1.9H80.2v6.5c0,0.9-0.7,1.6-1.6,1.6l0,0c-0.9,0-1.6-0.7-1.6-1.6V301
		c0-0.9,0.7-1.6,1.6-1.6h25.1c1.6,0,2.9,0.6,4,1.7c1.1,1.1,1.7,2.4,1.7,4c0,1.1-0.3,2.1-0.9,3C108,309,107.2,309.6,106.3,310.1z
		 M103.7,307.5c0.7,0,1.2-0.2,1.7-0.7s0.7-1.1,0.7-1.7c0-0.7-0.2-1.2-0.7-1.7s-1.1-0.7-1.7-0.7H80.2v4.9L103.7,307.5L103.7,307.5z"
		/>
	<path id="XMLID_16_" class="st1" d="M145.9,301L145.9,301c0,0.9-0.7,1.6-1.6,1.6h-27.6v4.9h27.6c0.9,0,1.6,0.7,1.6,1.6l0,0
		c0,0.9-0.7,1.6-1.6,1.6h-27.6v6.5c0,0.9-0.7,1.6-1.6,1.6l0,0c-0.9,0-1.6-0.7-1.6-1.6V301c0-0.9,0.7-1.6,1.6-1.6h29.2
		C145.2,299.4,145.9,300.1,145.9,301z"/>
	<path id="XMLID_15_" class="st1" d="M182.4,301L182.4,301c0,0.9-0.7,1.6-1.6,1.6h-27.6v4.9h27.6c0.9,0,1.6,0.7,1.6,1.6l0,0
		c0,0.9-0.7,1.6-1.6,1.6h-27.6v4.9h27.6c0.9,0,1.6,0.7,1.6,1.6l0,0c0,0.9-0.7,1.6-1.6,1.6h-29.2c-0.9,0-1.6-0.7-1.6-1.6V301
		c0-0.9,0.7-1.6,1.6-1.6h29.2C181.7,299.4,182.4,300.1,182.4,301z"/>
	<path id="XMLID_13_" class="st1" d="M218.9,317.2c0,0.9-0.7,1.6-1.6,1.6h-21.1c-2.7,0-5-1-6.9-2.9s-2.9-4.2-2.9-6.9s1-5,2.9-6.9
		s4.2-2.9,6.9-2.9h21.1c0.9,0,1.6,0.7,1.6,1.6l0,0c0,0.9-0.7,1.6-1.6,1.6h-21.1c-1.8,0-3.3,0.6-4.6,1.9s-1.9,2.8-1.9,4.6
		s0.6,3.3,1.9,4.6s2.8,1.9,4.6,1.9h21.1C218.2,315.6,218.9,316.3,218.9,317.2L218.9,317.2z"/>
	<path id="XMLID_11_" class="st1" d="M255.4,301L255.4,301c0,0.9-0.7,1.6-1.6,1.6h-13v14.6c0,0.9-0.7,1.6-1.6,1.6l0,0
		c-0.9,0-1.6-0.7-1.6-1.6v-14.6h-13c-0.9,0-1.6-0.7-1.6-1.6l0,0c0-0.9,0.7-1.6,1.6-1.6h29.2C254.7,299.4,255.4,300.1,255.4,301z"/>
	<path id="XMLID_9_" class="st1" d="M282.2,299.4c2.7,0,5,1,6.9,2.9s2.9,4.2,2.9,6.9s-1,5-2.9,6.9s-4.2,2.9-6.9,2.9h-21.1
		c-0.9,0-1.6-0.7-1.6-1.6v-16.2c0-0.9,0.7-1.6,1.6-1.6h21.1V299.4z M282.2,315.6c1.8,0,3.3-0.6,4.6-1.9c1.3-1.3,1.9-2.8,1.9-4.6
		s-0.6-3.3-1.9-4.6s-2.8-1.9-4.6-1.9h-19.5v13H282.2z"/>
	<path id="XMLID_7_" class="st1" d="M328.4,301L328.4,301c0,0.9-0.7,1.6-1.6,1.6h-27.6v4.9h27.6c0.9,0,1.6,0.7,1.6,1.6l0,0
		c0,0.9-0.7,1.6-1.6,1.6h-27.6v4.9h27.6c0.9,0,1.6,0.7,1.6,1.6l0,0c0,0.9-0.7,1.6-1.6,1.6h-29.2c-0.9,0-1.6-0.7-1.6-1.6V301
		c0-0.9,0.7-1.6,1.6-1.6h29.2C327.7,299.4,328.4,300.1,328.4,301z"/>
	<path id="XMLID_6_" class="st1" d="M365,301v16.2c0,0.9-0.7,1.6-1.6,1.6H361c-0.3,0-0.6-0.1-0.9-0.3l-24.2-16.2v14.9
		c0,0.9-0.7,1.6-1.6,1.6l0,0c-0.9,0-1.6-0.7-1.6-1.6V301c0-0.9,0.7-1.6,1.6-1.6h2.4c0.3,0,0.6,0.1,0.9,0.3l24.2,16.2v-14.8
		c0-0.9,0.7-1.6,1.6-1.6l0,0C364.2,299.4,365,300.1,365,301z"/>
	<path id="XMLID_4_" class="st1" d="M401.5,301L401.5,301c0,0.9-0.7,1.6-1.6,1.6h-13v14.6c0,0.9-0.7,1.6-1.6,1.6l0,0
		c-0.9,0-1.6-0.7-1.6-1.6v-14.6h-13c-0.9,0-1.6-0.7-1.6-1.6l0,0c0-0.9,0.7-1.6,1.6-1.6h29.2C400.7,299.4,401.5,300.1,401.5,301z"/>
	<path id="XMLID_3_" class="st1" d="M345.6,164.9c15.5,0,28.7,5.5,39.6,16.4c11,11,16.4,24.2,16.4,39.6c0,15.4-5.5,28.6-16.4,39.5
		c-11,11-24.2,16.4-39.6,16.4H224.2c-5.1,0-9.3-4.2-9.3-9.3v-93.3c0-5.1,4.2-9.3,9.3-9.3C224.2,164.9,345.6,164.9,345.6,164.9z
		 M345.6,258.3c10.3,0,19.1-3.7,26.4-11s11-16.1,11-26.4s-3.7-19.2-11-26.5s-16.1-10.9-26.4-10.9H233.5v74.7L345.6,258.3
		L345.6,258.3z"/>
	<path id="XMLID_2_" class="st1" d="M158.6,164.9c9,0,16.7,3.2,23.1,9.6c6.4,6.4,9.6,14,9.6,23s-3.2,16.7-9.6,23.1
		c-6.4,6.4-14.1,9.6-23.1,9.6H23.2v37.4c0,5.1-4.2,9.3-9.3,9.3l0,0c-5.1,0-9.3-4.2-9.3-9.3v-93.4c0-5.1,4.2-9.3,9.3-9.3
		C13.9,164.9,158.6,164.9,158.6,164.9z M158.6,211.6c3.9,0,7.2-1.4,9.9-4.1c2.7-2.8,4.1-6.1,4.1-9.9c0-3.8-1.4-7.1-4.1-9.9
		c-2.8-2.7-6.1-4.1-9.9-4.1H23.2v28H158.6z"/>
</g>
</svg>
