<?xml version="1.0" encoding="UTF-8"?>
<!DOCTYPE svg PUBLIC "-//W3C//DTD SVG 1.1//EN" "http://www.w3.org/Graphics/SVG/1.1/DTD/svg11.dtd">
<!-- Creator: CorelDRAW X7 -->
<svg xmlns="http://www.w3.org/2000/svg" xml:space="preserve" width="100%" height="100%" version="1.1" style="shape-rendering:geometricPrecision; text-rendering:geometricPrecision; image-rendering:optimizeQuality; fill-rule:evenodd; clip-rule:evenodd"
viewBox="0 0 2500000 2500000"
 xmlns:xlink="http://www.w3.org/1999/xlink">
 <defs>
  <style type="text/css">
   <![CDATA[
    .fil1 {fill:#6B6B6B;fill-rule:nonzero}
    .fil0 {fill:#2A3454;fill-rule:nonzero}
   ]]>
  </style>
 </defs>
 <g id="Слой_x0020_1">
  <metadata id="CorelCorpID_0Corel-Layer"/>
  <g id="_417901648">
   <path class="fil0" d="M1030867 1137380l-80250 240026 66287 0 22203 -69954 124666 0 0 69954 63014 0 0 -240026 -195920 0zm18636 137313l0 0 32365 -102028 81905 0 0 102028 -114270 0z"/>
   <polygon class="fil0" points="194087,1377406 257117,1377406 257117,1137380 194087,1137380 "/>
   <polygon class="fil0" points="684276,1172665 770664,1172665 770664,1377406 833685,1377406 833685,1172665 920048,1172665 920048,1137380 684276,1137380 "/>
   <polygon class="fil0" points="417355,1137380 337059,1377406 403404,1377406 468363,1172665 550245,1172665 550245,1377406 613288,1377406 613288,1137380 "/>
   <polygon class="fil1" points="1479991,1437430 1463850,1437430 1463850,1077355 1479991,1077355 "/>
   <g>
    <path class="fil1" d="M1838046 1166209l0 165171 -21745 0 0 -146342 -71599 0 0 55208c0,12222 -259,23660 -845,34328 -568,10674 -2342,20152 -5309,28461 -2976,8319 -7627,15205 -13942,20641 -6311,5458 -15168,9178 -26568,11114l0 -20277c5209,-1950 9463,-4629 12702,-8041 3273,-3437 5781,-8026 7579,-13818 1798,-5781 3014,-12939 3669,-21498 658,-8552 982,-18929 982,-31158l0 -73789 115076 0z"/>
    <path class="fil1" d="M1902004 1215324l0 39335 26631 0c16126,0 28667,2982 37610,8906 8971,5917 13460,15778 13460,29585 0,13806 -4489,23629 -13460,29459 -8943,5856 -21484,8771 -37610,8771l-46664 0 0 -116056 20033 0zm0 97239l0 0 27365 0c19871,0 29807,-6500 29807,-19538 0,-13024 -9936,-19536 -29807,-19536l-27365 0 0 39074z"/>
    <path class="fil1" d="M2058350 1215324c31929,0 47883,10768 47883,32246 0,3920 -572,7250 -1702,10028 -1140,2773 -2690,5130 -4651,7083 -1936,1960 -4144,3499 -6601,4639 -2428,1142 -4960,2048 -7579,2692 6029,980 11290,3623 15769,7951 4478,4305 6721,10446 6721,18433 0,11562 -4265,19947 -12826,25157 -8558,5236 -20888,7834 -37014,7834l-50326 0 0 -116063 50326 0zm-30293 48136l0 0 29811 0c9773,0 16808,-1136 21125,-3413 4327,-2280 6487,-6270 6487,-11981 0,-5705 -2160,-9644 -6487,-11846 -4317,-2208 -11352,-3293 -21125,-3293l-29811 0 0 30533zm0 50329l0 0 30531 0c10107,0 17487,-1337 22114,-4029 4664,-2680 6959,-6885 6959,-12592 0,-5855 -2295,-10083 -6959,-12690 -4627,-2616 -12007,-3901 -22114,-3901l-30531 0 0 33212z"/>
    <path class="fil1" d="M2163815 1188940l-20034 0 0 -24183 20034 0 0 24183zm0 142440l0 0 -20034 0 0 -116056 20034 0 0 116056z"/>
    <path class="fil1" d="M2255172 1215324c31918,0 47883,10768 47883,32246 0,3920 -586,7250 -1712,10028 -1141,2773 -2694,5130 -4651,7083 -1936,1960 -4145,3499 -6587,4639 -2446,1142 -4964,2048 -7579,2692 6015,980 11286,3623 15764,7951 4465,4305 6712,10446 6712,18433 0,11562 -4269,19947 -12827,25157 -8547,5236 -20891,7834 -37003,7834l-50337 0 0 -116063 50337 0zm-30290 48136l0 0 29807 0c9764,0 16809,-1136 21112,-3413 4330,-2280 6501,-6270 6501,-11981 0,-5705 -2171,-9644 -6501,-11846 -4303,-2208 -11348,-3293 -21112,-3293l-29807 0 0 30533zm0 50329l0 0 30527 0c10098,0 17477,-1337 22118,-4029 4651,-2680 6959,-6885 6959,-12592 0,-5855 -2308,-10083 -6959,-12690 -4641,-2616 -12020,-3901 -22118,-3901l-30527 0 0 33212z"/>
   </g>
  </g>
 </g>
</svg>
