<?xml version="1.0" encoding="UTF-8"?>
<!DOCTYPE svg PUBLIC "-//W3C//DTD SVG 1.1//EN" "http://www.w3.org/Graphics/SVG/1.1/DTD/svg11.dtd">
<!-- Creator: CorelDRAW X7 -->
<svg xmlns="http://www.w3.org/2000/svg" xml:space="preserve" width="100%" height="100%" version="1.1" style="shape-rendering:geometricPrecision; text-rendering:geometricPrecision; image-rendering:optimizeQuality; fill-rule:evenodd; clip-rule:evenodd"
viewBox="0 0 21000 29700"
 xmlns:xlink="http://www.w3.org/1999/xlink">
 <defs>
  <style type="text/css">
   <![CDATA[
    .fil1 {fill:#22211F}
    .fil0 {fill:#2B2A29;fill-rule:nonzero}
   ]]>
  </style>
 </defs>
 <g id="Слой_x0020_1">
  <metadata id="CorelCorpID_0Corel-Layer"/>
  <g id="_407209648">
   <g>
    <g>
     <polygon class="fil0" points="7658,16530 7658,16116 7731,16116 7872,16309 8007,16116 8076,16116 8076,16530 8004,16530 8004,16231 7873,16415 7862,16415 7731,16233 7731,16530 "/>
     <path class="fil0" d="M8137 16530l175 -415 63 0 175 415 -77 0 -43 -106 -177 0 -43 106 -73 0zm205 -321l0 0 -61 147 121 0 -60 -147z"/>
     <path class="fil0" d="M8612 16530l0 -414 8 0c7,0 26,0 55,0 29,-1 48,-1 59,-1 80,0 142,23 178,61 36,38 54,86 54,143 0,61 -21,112 -62,152 -41,40 -99,60 -175,60 -7,0 -24,0 -50,-1 -25,0 -45,0 -59,0l-8 0zm73 -346l0 0 0 278c13,0 29,1 46,1 49,0 88,-13 116,-39 28,-26 42,-61 42,-105 0,-84 -59,-136 -156,-136 -16,0 -32,0 -48,1z"/>
     <polygon class="fil0" points="9050,16530 9050,16116 9289,16116 9289,16184 9122,16184 9122,16287 9271,16287 9271,16355 9122,16355 9122,16462 9294,16462 9294,16530 "/>
    </g>
    <g>
     <polygon class="fil0" points="9672,16530 9672,16116 9744,16116 9744,16530 "/>
     <polygon class="fil0" points="10221,16530 10163,16530 9936,16243 9936,16530 9868,16530 9868,16116 9926,16116 10153,16404 10153,16116 10221,16116 "/>
    </g>
    <g>
     <path class="fil0" d="M10943 16116l0 242c0,60 -15,104 -46,134 -32,29 -71,44 -118,44 -53,0 -96,-15 -128,-46 -32,-32 -48,-77 -48,-136l0 -238 73 0 0 223c0,80 34,129 103,129 61,0 92,-41 92,-124l0 -228 72 0z"/>
     <path class="fil0" d="M10999 16530l175 -415 64 0 174 415 -77 0 -43 -106 -176 0 -44 106 -73 0zm205 -321l0 0 -61 147 121 0 -60 -147z"/>
    </g>
   </g>
   <path class="fil1" d="M1912 8922c24,-23 31,-52 37,-84 76,-438 457,-738 850,-766 37,-3 75,-5 112,-5 473,-1 946,-1 1420,0 385,0 732,117 1042,346 118,89 224,191 316,307 12,14 22,30 35,49 -16,24 -31,47 -47,69 -226,317 -373,666 -431,1051 -62,410 -25,812 119,1202 11,30 22,59 33,88 1,3 1,6 3,14 -15,33 -50,51 -79,73 -60,47 -59,141 -5,191 37,35 79,49 129,29 26,-11 51,-22 82,-35 45,67 85,133 131,196 48,66 98,130 150,192 51,60 105,116 159,175 -105,191 -254,328 -451,412 -187,79 -380,103 -579,55 -158,-37 -287,-121 -391,-245 -215,-257 -431,-513 -647,-770 -18,-21 -37,-41 -54,-61 -26,3 -24,22 -25,35 -4,53 -7,107 -10,160 -31,510 -439,862 -909,878 -443,15 -859,-312 -951,-777 -7,-33 0,-71 -39,-90 0,-896 0,-1792 0,-2689zm1902 667l0 0c0,175 0,353 0,529 137,101 335,81 444,-42 113,-128 107,-337 -11,-464 -99,-109 -295,-147 -433,-23z"/>
   <path class="fil1" d="M9415 5481c48,34 75,76 45,140 100,41 174,104 193,214 19,112 -38,192 -117,261 -5,89 -8,176 -3,262 42,12 73,5 101,-21 12,-11 24,-21 38,-28 62,-36 139,-20 186,37 43,53 43,138 0,191 -47,56 -125,72 -187,37 -16,-9 -30,-23 -45,-34 -20,-16 -44,-23 -75,-18 -2,13 -8,28 -6,42 6,46 11,93 22,139 40,156 154,250 316,262 67,5 132,-2 195,-22 75,-23 135,-66 180,-130 39,-57 69,-118 80,-190 -44,-17 -81,-18 -119,5 -16,10 -33,18 -51,22 -65,15 -126,-16 -155,-77 -28,-58 -12,-129 38,-170 52,-43 121,-44 173,-4 12,10 23,22 33,34 28,34 65,45 111,43 16,-70 17,-138 10,-206 -2,-26 -22,-50 -35,-75 -51,-95 -38,-205 39,-276 22,-20 50,-36 78,-49 22,-11 48,-14 77,-23 3,-18 4,-39 9,-59 12,-40 49,-59 89,-49 38,10 60,47 50,87 -4,15 -13,29 -22,48 14,13 30,27 45,42 105,106 101,253 -15,345 -39,31 -63,66 -76,113 -9,36 -20,72 -30,108 -2,9 0,19 0,28 24,23 52,20 79,10 17,-6 32,-19 49,-26 64,-28 136,-5 173,53 38,60 25,143 -30,187 -51,41 -133,40 -182,-4 -14,-13 -24,-30 -37,-42 -19,-18 -41,-30 -70,-17 -30,70 -21,141 9,208 75,169 206,265 389,284 108,11 197,-32 264,-117 53,-68 82,-146 98,-234 -38,-22 -72,-17 -107,0 -35,18 -71,22 -108,3 -46,-24 -69,-62 -67,-114 1,-49 24,-85 67,-105 46,-21 92,-17 132,18 11,10 20,24 30,35 18,18 38,32 71,25 11,-51 11,-104 5,-156 -3,-26 -24,-50 -36,-75 -50,-108 1,-228 113,-268 26,-9 54,-13 86,-21 2,-12 3,-27 7,-41 8,-29 30,-42 56,-38 30,6 47,31 39,63 -4,15 -12,28 -18,41 19,19 37,36 53,55 76,88 70,218 -27,281 -81,52 -90,126 -105,207 47,23 87,25 129,0 31,-18 64,-21 99,-5 47,22 74,57 76,109 1,53 -23,90 -69,114 -45,22 -102,12 -138,-25 -54,-54 -53,-55 -113,-67 -32,71 -14,144 -2,217 11,73 44,136 89,192 -5,177 -10,352 -15,531 -23,3 -41,6 -59,6 -50,1 -100,2 -150,1 -270,-6 -529,49 -779,148 -229,91 -441,211 -632,366 -120,96 -229,204 -316,333 -7,10 -16,19 -28,33 -646,-698 -1445,-999 -2387,-926 -22,-64 -29,-194 -26,-492 92,-115 112,-254 94,-402 -69,2 -71,0 -106,42 -31,37 -66,58 -114,53 -48,-4 -82,-30 -99,-74 -18,-48 -12,-95 25,-131 33,-33 74,-51 120,-31 47,21 93,39 147,9 3,-56 -21,-107 -42,-158 -5,-12 -22,-21 -34,-30 -134,-96 -140,-225 -17,-336 5,-4 10,-9 18,-17 -5,-11 -13,-24 -18,-37 -11,-33 1,-59 30,-68 25,-8 51,2 62,28 6,14 5,30 7,49 23,5 48,9 71,16 129,39 189,168 122,282 -44,76 -31,147 -21,224 34,2 53,-12 71,-30 15,-16 28,-35 46,-46 44,-29 110,-18 147,20 39,41 46,101 18,148 -30,48 -83,70 -137,53 -15,-5 -29,-13 -43,-18 -23,-8 -24,-7 -86,9 17,104 55,198 133,272 91,86 201,98 316,64 122,-36 217,-112 280,-223 45,-79 60,-163 33,-251 -28,-17 -51,-5 -70,11 -14,12 -24,30 -37,42 -45,41 -116,49 -166,19 -54,-31 -82,-94 -68,-152 15,-64 71,-111 134,-113 33,-1 61,12 87,29 32,21 64,23 98,4 1,-69 -25,-130 -47,-191 -5,-14 -16,-26 -27,-37 -11,-11 -26,-18 -38,-28 -104,-91 -111,-231 -16,-333 15,-16 32,-30 49,-46 -7,-21 -16,-41 -19,-62 -6,-38 17,-68 52,-78 36,-9 71,7 85,41 7,20 8,43 12,66 29,9 60,15 88,28 121,53 179,194 111,304 -51,84 -48,165 -39,252 2,15 6,30 10,47 46,1 83,-11 111,-44 8,-10 16,-20 25,-28 54,-47 125,-47 180,-2 54,44 68,118 34,179 -33,60 -104,87 -169,64 -12,-4 -23,-10 -34,-17 -34,-24 -70,-20 -110,-11 0,17 -4,33 0,45 13,36 27,71 44,104 53,100 135,161 247,185 97,21 192,19 285,-20 60,-26 108,-64 141,-119 54,-89 67,-187 73,-288 -45,-12 -74,2 -100,27 -31,30 -69,43 -112,40 -61,-4 -112,-44 -132,-104 -20,-61 0,-127 53,-167 50,-39 113,-42 167,-9 13,9 24,20 36,30 26,22 55,27 92,17 14,-87 -2,-174 -2,-264 -78,-68 -133,-149 -114,-261 18,-106 87,-169 184,-207 0,-29 -5,-58 2,-84 5,-22 24,-42 37,-62 19,0 38,0 56,0z"/>
   <path class="fil1" d="M1912 16219c6,-2 14,-2 17,-6 37,-53 90,-57 149,-57 1632,1 3264,1 4896,1 22,0 44,-1 66,1 43,5 74,28 77,69 4,62 4,125 0,187 -3,41 -35,65 -77,70 -21,2 -43,1 -65,1 -1632,0 -3264,0 -4896,0 -13,0 -25,-1 -38,0 -40,2 -73,-9 -97,-44 -6,-8 -21,-10 -32,-15 0,-69 0,-138 0,-207z"/>
   <path class="fil1" d="M14880 11566c-30,29 -52,51 -74,73 -158,165 -317,330 -475,495 -66,68 -135,131 -214,182 -530,342 -1278,75 -1424,-594 -12,-58 -18,-118 -18,-177 -1,-852 -3,-1705 0,-2557 1,-298 118,-549 354,-736 509,-402 1282,-165 1482,453 4,12 6,24 10,41 -14,21 -28,45 -44,68 -88,126 -176,252 -264,378 -13,18 -26,35 -37,54 -34,60 -21,126 32,168 51,42 109,41 163,-3 22,-18 41,-39 61,-58 328,-328 655,-656 984,-984 37,-37 76,-75 118,-107 559,-435 1318,-138 1485,497 77,295 13,565 -171,806 -30,40 -65,76 -100,112 -159,164 -319,328 -479,492 -21,22 -42,45 -66,71 24,26 44,49 66,71 188,188 376,376 564,565 113,113 195,244 240,398 179,607 -265,1116 -735,1188 -295,44 -552,-32 -778,-223 -28,-24 -54,-51 -81,-78 -175,-175 -350,-350 -525,-525 -22,-22 -45,-42 -74,-70z"/>
   <path class="fil1" d="M9465 8920c-269,407 -407,849 -408,1332 -2,484 140,925 406,1333 -13,21 -24,43 -39,62 -339,419 -770,697 -1298,805 -705,145 -1345,-9 -1905,-463 -444,-361 -707,-831 -795,-1395 -185,-1172 600,-2289 1744,-2540 834,-183 1710,126 2249,804 14,17 26,36 46,62zm-1476 1337l0 0c5,-149 -101,-329 -334,-332 -195,-4 -331,160 -328,338 2,181 158,340 324,337 187,-3 339,-154 338,-343z"/>
   <path class="fil1" d="M12806 8198c-10,13 -20,28 -32,41 -185,212 -277,459 -278,740 -2,298 -1,596 -1,893 0,56 -1,112 -2,170 -86,32 -170,27 -254,19 -119,-11 -233,-43 -348,-75 -75,-22 -151,-43 -227,-59 -71,-15 -143,-14 -213,12 -171,63 -269,252 -211,417 46,130 143,205 279,220 58,7 119,1 177,-11 92,-19 182,-47 272,-73 103,-29 207,-49 314,-57 69,-4 136,1 201,16 19,38 12,73 12,107 0,316 1,633 0,949 -1,120 10,238 46,353 45,149 118,283 220,401 18,20 36,42 56,66 -14,11 -23,19 -33,25 -121,63 -249,103 -386,109 -40,2 -81,3 -122,3 -279,0 -558,-4 -837,1 -1021,20 -1901,-730 -2136,-1683 -290,-1171 409,-2338 1579,-2648 189,-50 381,-75 577,-75 288,0 576,0 865,0 149,0 291,34 427,97 14,7 27,15 41,23 4,3 7,10 14,19z"/>
   <path class="fil1" d="M13067 14721c-18,16 -39,33 -58,52 -140,139 -280,279 -419,419 -88,89 -191,151 -316,172 -170,30 -406,-53 -511,-230 -1,-3 0,-6 -1,-11 59,-71 121,-141 178,-215 60,-76 107,-162 146,-251 38,-86 67,-176 87,-268 19,-92 28,-185 28,-280 0,-94 -8,-188 -27,-280 -20,-95 -50,-188 -89,-276 -39,-87 -83,-170 -141,-244 -57,-75 -119,-145 -180,-218 62,-150 278,-262 476,-245 218,19 407,181 455,395 -51,80 -105,165 -159,249 -13,21 -27,43 -36,66 -14,38 4,74 42,93 21,10 43,11 62,-4 22,-17 42,-36 62,-56 183,-181 365,-363 547,-543 25,-25 49,-49 76,-71 280,-223 667,-108 807,180 24,49 29,91 -6,139 -48,65 -89,136 -133,205 -10,16 -21,31 -30,48 -19,34 -15,62 10,85 31,28 70,31 102,6 19,-16 36,-35 54,-52 192,-190 384,-379 575,-569 80,-80 173,-132 285,-152 294,-53 582,162 611,458 18,182 -33,340 -164,471 -466,465 -931,930 -1396,1396 -102,101 -222,160 -367,167 -296,15 -495,-221 -535,-414 -10,-49 -12,-99 -17,-149 -2,-22 -3,-44 -5,-65 0,-2 -4,-3 -13,-8z"/>
   <path class="fil1" d="M10016 15095c8,-31 17,-64 25,-97 36,-147 29,-292 -29,-433 -76,-185 -212,-306 -407,-357 -21,-5 -42,-11 -60,-17 -62,-388 169,-1044 826,-1287 596,-221 1264,32 1571,594 305,557 153,1248 -359,1630 -527,393 -1209,292 -1567,-33zm810 -1175l0 0c-107,-6 -192,72 -197,180 -4,105 78,198 178,201 103,3 195,-79 199,-183 5,-118 -82,-195 -180,-198z"/>
   <path class="fil1" d="M5079 14723c125,-95 215,-216 254,-372 38,-154 17,-302 -57,-443 324,-282 325,-679 78,-967 1,-23 21,-28 37,-35 72,-33 149,-49 228,-49 317,-1 633,-5 949,1 221,3 385,111 473,313 88,200 62,392 -75,565 -81,101 -190,151 -315,170 -40,6 -81,8 -121,15 -33,6 -51,27 -55,57 -5,32 10,66 39,78 22,9 48,15 72,17 154,9 299,-19 431,-103 13,-8 27,-15 42,-23 7,10 16,17 17,25 36,196 4,374 -146,519 -72,69 -162,105 -258,128 -33,8 -67,12 -101,19 -39,9 -61,37 -61,72 0,36 24,64 62,72 15,4 31,5 47,5 150,4 293,-21 419,-111 10,-7 21,-11 37,-20 31,69 28,137 23,204 -9,112 -47,214 -115,304 -88,116 -205,182 -351,193 -41,3 -81,4 -122,4 -282,1 -564,1 -846,0 -31,0 -63,0 -94,-2 -268,-20 -473,-224 -494,-492 -1,-25 -1,-50 -1,-75 1,-22 2,-44 4,-69z"/>
   <path class="fil1" d="M5222 14052c31,96 32,186 10,275 -58,234 -272,403 -514,407 -57,1 -113,0 -170,0 -21,1 -42,3 -66,5 -16,39 -11,77 -10,113 6,178 -112,413 -364,498 -278,94 -589,-71 -671,-356 -14,-47 -21,-98 -21,-148 -2,-488 -2,-977 0,-1466 0,-62 7,-126 23,-186 43,-175 158,-281 333,-319 52,-11 106,-18 158,-18 320,-2 640,-4 959,0 207,3 369,96 471,278 176,315 -16,666 -299,759 -41,13 -86,14 -130,21 -21,3 -44,3 -65,8 -35,9 -58,41 -57,76 1,32 21,57 57,66 18,5 37,7 55,8 75,3 151,6 225,-11 21,-5 43,-6 76,-10z"/>
   <path class="fil1" d="M8199 14211c0,-36 0,-64 0,-92 0,-228 -1,-457 1,-685 0,-59 4,-120 17,-177 60,-254 313,-430 571,-401 265,30 473,246 477,509 4,254 -2,507 -3,761 0,50 0,99 0,154 25,5 45,10 65,11 63,4 126,1 188,8 179,19 310,111 387,273 80,168 80,340 1,508 -79,167 -213,258 -396,277 -31,3 -63,4 -94,4 -213,1 -426,0 -638,1 -92,0 -182,-11 -266,-51 -13,-6 -25,-15 -43,-27 148,-182 204,-385 153,-609 -51,-227 -187,-385 -420,-464z"/>
   <path class="fil1" d="M7016 12943c114,-74 227,-100 348,-86 226,25 410,187 461,409 11,48 13,99 13,149 0,253 -2,507 -4,760 0,35 0,69 0,107 27,4 48,8 69,10 62,3 125,1 187,7 168,18 296,101 374,250 96,185 96,374 -2,559 -79,149 -207,230 -375,248 -37,4 -75,5 -112,6 -207,0 -413,0 -620,0 -94,0 -187,-9 -274,-51 -17,-8 -31,-18 -51,-30 197,-263 236,-535 72,-831 58,-104 96,-222 94,-351 -3,-127 -32,-247 -107,-354 78,-125 118,-262 103,-410 -15,-147 -74,-276 -176,-392z"/>
   <path class="fil1" d="M14483 16485c-815,0 -1630,0 -2444,0 -31,0 -63,1 -94,-1 -47,-4 -78,-30 -81,-77 -4,-59 -3,-119 1,-178 4,-42 34,-66 76,-70 25,-3 50,-2 75,-2 1648,0 3296,0 4944,0 25,0 50,-1 75,2 44,4 71,28 74,71 4,59 4,119 1,178 -3,47 -32,72 -80,76 -31,2 -63,1 -94,1 -818,0 -1636,0 -2453,0z"/>
   <path class="fil1" d="M12234 10245c-158,29 -308,70 -458,114 -54,16 -109,28 -165,37 -27,5 -56,4 -83,-1 -77,-16 -124,-73 -121,-144 2,-73 58,-136 132,-148 22,-3 44,-4 66,0 55,10 110,22 164,36 118,29 236,60 354,88 36,9 74,12 111,18z"/>
   <path class="fil1" d="M12480 10258c-20,-2 -41,-4 -61,-6 0,-2 0,-5 0,-8 20,-1 41,-3 61,-4 0,6 0,12 0,18z"/>
   <path class="fil1" d="M3995 9992c-2,-100 -5,-193 2,-283 22,-22 44,-16 64,-8 92,36 127,165 68,245 -28,38 -54,48 -134,46z"/>
   <path class="fil1" d="M7510 10256c1,-86 63,-151 146,-150 87,2 156,70 155,154 -2,82 -76,158 -155,160 -75,3 -147,-78 -146,-164z"/>
   <path class="fil1" d="M10900 14116c-1,47 -44,90 -89,89 -44,-2 -82,-49 -79,-97 3,-46 41,-80 87,-77 47,3 81,39 81,85z"/>
  </g>
 </g>
</svg>
