<?xml version="1.0" encoding="UTF-8"?>
<!DOCTYPE svg PUBLIC "-//W3C//DTD SVG 1.1//EN" "http://www.w3.org/Graphics/SVG/1.1/DTD/svg11.dtd">
<!-- Creator: CorelDRAW X7 -->
<svg xmlns="http://www.w3.org/2000/svg" xml:space="preserve" width="100%" height="100%" version="1.1" style="shape-rendering:geometricPrecision; text-rendering:geometricPrecision; image-rendering:optimizeQuality; fill-rule:evenodd; clip-rule:evenodd"
viewBox="0 0 2100000 2100000"
 xmlns:xlink="http://www.w3.org/1999/xlink">
 <defs>
  <style type="text/css">
   <![CDATA[
    .str1 {stroke:#269CD1;stroke-width:3528}
    .str0 {stroke:#00AFEF;stroke-width:3528}
    .fil5 {fill:#FEFEFE;fill-rule:nonzero}
    .fil3 {fill:#8AD5F1;fill-rule:nonzero}
    .fil2 {fill:#8AD5F0;fill-rule:nonzero}
    .fil4 {fill:#67BD50;fill-rule:nonzero}
    .fil0 {fill:#317ABE;fill-rule:nonzero}
    .fil1 {fill:white;fill-rule:nonzero}
   ]]>
  </style>
 </defs>
 <g id="Слой_x0020_1">
  <metadata id="CorelCorpID_0Corel-Layer"/>
  <g id="_443491320">
   <path class="fil0" d="M189076 1095321l-7897 -2288c-1359,-17437 -3470,-32368 -6328,-44791 8199,3103 18929,6484 32188,10143l49411 14425 1155 -16549c480,-7670 -1261,-16073 -5225,-25202 -3961,-9128 -11054,-17347 -21280,-24658 -10221,-7314 -21328,-11070 -33313,-11267 -11869,-196 -21339,3993 -28419,12568 -7077,8577 -10764,21794 -11059,39654 -337,20376 4297,40415 13904,60117 9608,19706 22050,34985 37325,45848 15279,10865 30438,16420 45478,16670 7404,122 13861,-1147 19371,-3820 5510,-2667 10968,-7498 16374,-14491 4327,-5809 8490,-8681 12484,-8615 2587,43 4744,1043 6473,3001 1732,1960 2574,4262 2531,6911 -117,7115 -4991,13904 -14619,20376 -9629,6471 -21726,9586 -36300,9344 -26674,-439 -50826,-11283 -72458,-32524 -28456,-27836 -42301,-64791 -41539,-110867 290,-17516 2762,-31846 7413,-42996 4653,-11142 10901,-19440 18749,-24893 7847,-5449 16297,-8102 25346,-7953 11517,192 22761,4297 33736,12310 10976,8014 19747,19701 26310,35059 6564,15357 9690,32364 9380,51011 -46,2872 -298,7354 -750,13446l54616 15377c9236,2550 18347,5398 27336,8540 2384,-9305 3631,-17430 3745,-24376 146,-8744 -1344,-18174 -4468,-28289l9836 2319c2313,9395 3416,17325 3308,23796 -102,6233 -901,15334 -2390,27295 -1336,9570 -2051,17351 -2151,23345 -191,11624 960,23572 3461,35842l-9306 -2315c-1790,-12501 -4526,-21062 -8213,-25680 -5181,-6558 -15728,-12007 -31643,-16352l-105137 -28889c-4916,-1282 -8372,-1940 -10370,-1971 -1878,-32 -3567,721 -5064,2253 -1494,1535 -2259,3381 -2295,5539 -14,838 85,2038 294,3597z"/>
   <path class="fil0" d="M243737 872465c2696,-11445 9398,-19914 20109,-25407 10713,-5492 24022,-6366 39922,-2621 25396,5983 46046,20462 61946,43435 15901,22978 21456,44631 16671,64956 -2944,12501 -9322,21629 -19130,27395 -9808,5767 -21635,7017 -35478,3758 -24025,-5658 -44567,-17893 -61630,-36705 -21129,-23588 -28600,-48528 -22410,-74811zm9363 17923l0 0c-2338,9931 2349,21175 14063,33735 11712,12560 29811,21719 54291,27486 14873,3502 27273,3401 37200,-302 7283,-2722 11748,-7588 13399,-14596 2310,-9814 -1532,-20149 -11535,-31013 -13022,-13911 -30972,-23565 -53854,-28955 -17161,-4039 -29958,-4557 -38394,-1552 -8434,3009 -13493,8075 -15170,15197z"/>
   <path class="fil0" d="M438363 707781c6754,17947 10538,33485 11353,46611 815,13128 224,21673 -1780,25639 -1411,2790 -4104,4860 -8083,6211 -3980,1352 -8277,860 -12899,-1475 -5566,-2813 -12270,-7677 -20111,-14596 4901,9609 8505,22303 10820,38076 2314,15771 1901,26769 -1241,32986 -4170,8254 -11297,9837 -21383,4740 -7247,-3662 -22918,-16618 -47009,-38875 -21691,-19964 -35056,-31223 -40098,-33772 -2942,-1485 -4954,-1156 -6035,985 -2435,4819 -964,15984 4413,33489l-9079 4286c-9068,-32876 -10702,-55055 -4898,-66541 2982,-5903 8310,-6918 15975,-3045 7167,3622 22975,16444 47422,38464 22095,19760 34912,30534 38455,32324 2205,1113 4460,1347 6764,701 2304,-642 3861,-1770 4669,-3369 1296,-2562 981,-8721 -949,-18476 -1930,-9752 -4495,-17850 -7702,-24295 -3207,-6445 -9385,-13789 -18538,-22033l-55755 -50157 11522 -22808 47362 42886c26448,24120 41986,37347 46607,39681 3573,1806 6195,1049 7875,-2274 1947,-3855 1684,-11552 -794,-23088 -2480,-11538 -5214,-20284 -8208,-26234 -2994,-5950 -8700,-12730 -17118,-20346l-55801 -50062 11571 -22900 47361 42884c27496,24919 43452,38491 47864,40719 4096,2070 6928,1553 8498,-1554 1949,-3857 -485,-16109 -7301,-36763l8501 -2360c2987,10250 8047,17172 15179,20777 2415,1220 5960,2275 10648,3162 4895,995 8447,2049 10651,3161 6922,3498 11208,10000 12859,19506 1647,9504 -774,20684 -7267,33537 -6006,11891 -12080,22736 -18220,32543 -5116,8036 -8130,12967 -9049,14786 -3303,6535 -2331,11126 2914,13775 3565,1802 6482,859 8745,-2841 2959,-4555 6329,-5878 10105,-3970 1783,901 3003,2460 3662,4672 658,2217 501,4289 -472,6217 -2005,3965 -5733,6582 -11183,7863 -5454,1277 -10852,564 -16204,-2139 -7763,-3922 -12394,-10393 -13890,-19418 -1499,-9026 -271,-17448 3681,-25267 2272,-4500 6491,-10768 12663,-18811 8263,-10883 14371,-20235 18321,-28054 3086,-6105 3991,-11159 2723,-15162 -1272,-4002 -3320,-6721 -6152,-8150 -1366,-689 -3205,-1348 -5519,-1981 -2840,-897 -5098,-1770 -6775,-2617 -3777,-1908 -7530,-5163 -11263,-9764l-473 -239c6688,19345 7816,33400 3388,42164 -1566,3099 -4324,5294 -8273,6590 -3951,1294 -8234,775 -12856,-1560 -5566,-2813 -12295,-7624 -20193,-14439z"/>
   <path class="fil0" d="M477443 486494l16776 -19379 35511 53120c20533,30952 32670,48042 36407,51276 1689,1464 3332,2171 4925,2122 1597,-48 2825,-568 3690,-1568 1334,-1543 2237,-3932 2714,-7174 548,-4764 301,-14895 -737,-30398l8821 -221c2785,34314 447,55780 -7015,64398 -2515,2906 -5743,4433 -9687,4592 -3943,157 -7915,-1496 -11913,-4958 -4621,-3998 -9947,-10326 -15976,-18985 2076,15916 1396,32776 -2039,50571 -2298,11814 -5959,20621 -10979,26421 -2747,3173 -5932,4780 -9546,4821 -3614,45 -7647,-1863 -12096,-5715 -3471,-3002 -6856,-6645 -10150,-10928 -4589,-6030 -13251,-18769 -25995,-38214 -16181,-24641 -26408,-38811 -30679,-42509 -2491,-2156 -4522,-2327 -6094,-513 -1412,1633 -2515,4569 -3307,8803 -789,4238 -974,12487 -557,24754l-9849 1950c-140,-21388 895,-36724 3099,-46004 2205,-9282 4994,-15873 8373,-19776 1885,-2177 4196,-3272 6931,-3284 2736,-12 5750,1407 9039,4254 6142,5314 18396,21637 36769,48967 16594,24525 26406,38098 29431,40715 1868,1617 3998,2394 6393,2325 2394,-66 4218,-828 5475,-2280 4392,-5073 6521,-15838 6384,-32291 -135,-16453 -4190,-30670 -12166,-42647l-41953 -62245z"/>
   <path class="fil0" d="M719213 437012c-4053,34164 -10653,54741 -19793,61736 -2665,2041 -6062,2784 -10185,2231 -4124,-552 -7759,-2885 -10909,-7002 -3652,-4772 -7425,-11671 -11310,-20701l-14549 -32944 -39750 30425 28598 64692 -21296 16299c-666,-1265 -2564,-5817 -5689,-13653 -2242,-5692 -7084,-17253 -14528,-34679l-25582 -59783c-1336,-3125 -2577,-5438 -3721,-6935 -2146,-2803 -4221,-3440 -6220,-1908 -4196,3212 -7675,13866 -10443,31968l-9932 54c6029,-33622 14145,-54339 24353,-62152 5243,-4013 10475,-2613 15690,4198 5005,6540 13193,23735 24560,51578l39817 -30475 -25148 -61563 20298 -15535 23959 59143c13805,34428 22209,53599 25208,57519 2787,3641 5559,4403 8325,2287 3430,-2626 6615,-14754 9549,-36391l8698 1591z"/>
   <path class="fil0" d="M814606 385506l8052 7348c-15280,32640 -31665,53476 -49146,62512 -9276,4796 -17692,5042 -25248,746 -7557,-4295 -13898,-11402 -19025,-21323 -8526,-16496 -12816,-35776 -12875,-57842 -57,-22064 3910,-41048 11899,-56954 6297,-12382 15735,-21825 28316,-28328 7889,-4077 14613,-5699 20176,-4872 5561,830 9424,3334 11581,7510 1673,3236 1968,6423 889,9561 -1081,3138 -3538,5699 -7376,7683 -3733,1930 -9394,2741 -16982,2427 -7910,-407 -13894,433 -17943,2526 -5225,2702 -9224,7707 -11994,15019 -2776,7312 -3058,18852 -850,34618 2205,15772 6786,30379 13735,43825 5121,9906 11052,16548 17798,19929 5034,2684 10163,2675 15387,-25 12471,-6446 23675,-21232 33606,-44360z"/>
   <path class="fil0" d="M874549 319119c4495,-6097 9450,-15729 14864,-28899 10108,-25001 18688,-41787 25739,-50360 7052,-8570 14754,-14175 23114,-16811 9728,-3069 15762,-905 18093,6491 2264,7175 -1008,12150 -9811,14929l-4853 1345c-2589,571 -4514,1054 -5767,1450 -6750,2129 -12846,6117 -18292,11963 -5445,5848 -11667,16223 -18660,31120 -6640,14418 -11772,24055 -15396,28908 17794,2260 30723,6125 38789,11590 8067,5470 22574,20671 43529,45607 15055,17805 27788,29653 38205,35549 10418,5894 21119,7111 32105,3644 4693,-1479 8657,-3964 11901,-7451 3240,-3489 4439,-6576 3589,-9266 -423,-1345 -1799,-3500 -4118,-6466 -2100,-2664 -3396,-4784 -3890,-6351 -780,-2467 -493,-5051 858,-7756 1344,-2708 3451,-4509 6311,-5412 3318,-1046 6495,-663 9520,1155 3029,1817 5195,4801 6504,8949 2652,8407 1077,16880 -4717,25427 -5799,8545 -14594,14680 -26382,18397 -17162,5414 -34740,3844 -52730,-4717 -17990,-8558 -40369,-30488 -67130,-65783 -7612,-10178 -14048,-17334 -19313,-21468 -5267,-4129 -12440,-7043 -21520,-8741l5582 78100 -25921 8178 -2249 -49018c-2291,-46352 -4321,-72332 -6089,-77938 -814,-2578 -2481,-3468 -4998,-2676 -4807,1517 -11690,11207 -20651,29068l-7180 -4206c7600,-15827 16097,-28213 25493,-37157 9396,-8940 16556,-14188 21480,-15742 4578,-1443 7417,-426 8511,3047 392,1234 850,5283 1379,12148l4101 49153z"/>
   <path class="fil0" d="M1098580 209278l11506 -3845 -8172 45878c-3279,18260 -5942,39166 -7988,62722 -1148,12801 -1505,21010 -1077,24626 426,3620 2131,5252 5113,4899 1903,-225 4798,-1810 8681,-4754 6875,-5191 13332,-11398 19369,-18622l6526 6152c-12152,13745 -19983,22127 -23490,25144 -7020,6039 -13845,10691 -20466,13958 -4337,2169 -8646,3509 -12936,4016 -3102,366 -5508,-59 -7220,-1277 -1716,-1217 -2730,-3166 -3048,-5853 -208,-1752 -16,-4198 580,-7348l4336 -24656c-8830,13236 -19823,25009 -32982,35322 -8066,6395 -15732,10025 -23003,10885 -6912,816 -12498,-950 -16756,-5297 -5763,-5825 -9261,-13933 -10488,-24322 -1465,-12370 275,-26543 5215,-42513 4936,-15966 12336,-30808 22197,-44520 9856,-13708 20700,-24221 32523,-31537 9128,-5577 21258,-9260 36396,-11050 3811,-451 7713,-674 11701,-674l3483 -7334zm-19001 29406l0 0c-6585,-521 -12086,-523 -16492,-2 -10727,1267 -19741,5264 -27044,11984 -7303,6721 -13492,17988 -18569,33794 -5081,15810 -6735,31184 -4972,46123 940,7939 2986,13494 6143,16671 3155,3177 6933,4506 11344,3985 8224,-972 16526,-6363 24914,-16171 8387,-9808 13821,-23141 16296,-40004l8380 -56380z"/>
   <path class="fil0" d="M1137754 325740c2205,11003 3940,17699 5210,20088 1269,2390 3400,3695 6393,3912 5622,409 12580,-5151 20878,-16687 8431,-11759 15556,-19606 21378,-23544 5818,-3934 15240,-7022 28274,-9255l168 -2286 -4666 -341c-15189,-1104 -26373,-4773 -33554,-11015 -7186,-6236 -10464,-13575 -9849,-22014 952,-13129 10029,-23369 27232,-30721 17198,-7347 39442,-10033 66729,-8047l32085 3042 -21335 60052c-12404,34875 -18785,54770 -19141,59683 -333,4567 1174,6970 4528,7216 4310,312 14739,-6587 31287,-20704l5449 6938c-25735,22759 -44289,33720 -55670,32892 -3949,-289 -7162,-2112 -9622,-5473 -2468,-3362 -3471,-8146 -3020,-14361 454,-6219 2189,-13633 5211,-22246l10424 -29821c-10045,-731 -18381,1462 -25003,6577 -6624,5116 -15525,15927 -26702,32437 -12776,18632 -26217,27435 -40329,26406 -5622,-407 -10507,-2650 -14655,-6722 -4153,-4073 -7781,-15295 -10892,-33670l9192 -2336zm129811 -83912l0 0c-7029,-2494 -14903,-4061 -23623,-4695 -10159,-738 -19573,1521 -28243,6783 -8670,5262 -13347,12582 -14030,21956 -1182,16296 9345,25252 31589,26870 3725,270 9226,260 16501,-37l17806 -50877z"/>
  </g>
  <path class="fil0" d="M1816239 1123766c0,376814 -305468,682283 -682284,682283 -376813,0 -682282,-305469 -682282,-682283 0,-376815 305469,-682284 682282,-682284 376816,0 682284,305469 682284,682284z"/>
  <path class="fil1 str0" d="M741788 1608561c94914,88339 517279,147211 602446,118549 -60422,18621 -124606,28662 -191139,28662 -156156,0 -299407,-55231 -411307,-147211z"/>
  <path class="fil2 str1" d="M1801279 1107590c0,-357983 -290202,-648185 -648184,-648185 -357980,0 -648182,290202 -648182,648185 0,120333 32830,232982 89964,329550 67507,-130770 250348,-214765 456938,-197108 226546,19362 398908,167163 384979,330122 -5279,61768 -39532,116048 -92560,156956 264683,-81567 457045,-328073 457045,-619520z"/>
  <g id="_443488176">
   <path class="fil3" d="M1436794 1570154c13929,-162959 -158433,-310760 -384979,-330122 -206590,-17657 -389431,66338 -456938,197108 38691,65397 88515,123422 146911,171421 -7659,-23117 -10800,-47246 -8700,-71803 10153,-118799 152266,-203659 317417,-189543 148636,12703 261723,109676 252584,216594 -8224,96225 -123335,164962 -257109,153528 -120394,-10289 -211993,-88837 -204592,-175439 6662,-77943 99902,-133622 208257,-124360 97521,8335 171717,71959 165721,142107 -5396,63134 -80920,108232 -168690,100731 -78990,-6751 -139088,-58287 -134231,-115107 4370,-51138 65545,-87668 136636,-81592 63983,5469 112663,47212 108730,93237 -3541,41421 -53092,71011 -110678,66089 -51825,-4429 -91255,-38242 -88069,-75522 2868,-33551 43004,-57518 89647,-53532 41980,3589 73918,30976 71338,61173 -2323,27176 -34834,46590 -72615,43361 -34003,-2906 -59874,-25090 -57782,-49550 -2092,24460 23779,46644 57782,49550 37781,3229 70292,-16185 72615,-43361 2580,-30197 -29358,-57584 -71338,-61173 -46643,-3986 -86779,19981 -89647,53532 -3186,37280 36244,71093 88069,75522 57586,4922 107137,-24668 110678,-66089 3933,-46025 -44747,-87768 -108730,-93237 -71091,-6076 -132266,30454 -136636,81592 -4857,56820 55241,108356 134231,115107 87770,7501 163294,-37597 168690,-100731 5996,-70148 -68200,-133772 -165721,-142107 -108355,-9262 -201595,46417 -208257,124360 -7401,86602 84198,165150 204592,175439 133774,11434 248885,-57303 257109,-153528 9139,-106918 -103948,-203891 -252584,-216594 -165151,-14116 -307264,70744 -317417,189543 -2100,24557 1041,48686 8700,71803 111900,91980 255151,147211 411307,147211 66533,0 130717,-10041 191139,-28662 53028,-40908 87281,-95188 92560,-156956z"/>
   <g>
    <path class="fil0" d="M1443638 1567677c12929,-173128 -161035,-286465 -310125,-319708 -166771,-37186 -372717,-4938 -495476,122584 -15121,15707 -28704,32860 -40086,51472 -2980,4869 -9812,12937 -9913,18248 -75,3946 8672,14260 10827,17650 4928,7756 10021,15406 15273,22945 34245,49154 75257,92999 121305,131258 2200,1828 14152,-3574 13183,-6698 -33739,-108728 37671,-199734 137803,-235610 103431,-37057 231050,-25634 322094,37666 71980,50043 120051,146735 61983,226096 -67610,92400 -215747,99886 -312686,56060 -41708,-18855 -80939,-49788 -99621,-92619 -18047,-41374 -11541,-87744 18613,-121582 73649,-82644 239341,-72001 307243,13261 28031,35196 34404,84129 5094,120710 -39338,49098 -115740,56978 -172868,40751 -42480,-12066 -89343,-42617 -96354,-89832 -9994,-67307 65030,-96919 120506,-93131 45871,3133 107412,30657 110636,83711 4379,72075 -96785,80125 -144165,55265 -21363,-11209 -40796,-31443 -40962,-56881 -249,-38214 41336,-53751 74180,-51792 25738,1537 55104,12957 67843,36931 19979,37599 -19876,63220 -55100,60312 -26015,-2147 -56817,-18897 -56370,-48288 49,-3221 -13633,1394 -13687,4954 -1014,66811 116714,64791 140523,14108 15155,-32265 -16513,-60970 -44488,-70293 -30489,-10162 -66466,-6183 -94094,10272 -24858,14806 -40468,41254 -28318,69877 14703,34631 56620,50291 91635,51774 52703,2230 137014,-33477 112928,-100212 -25669,-71123 -128586,-79533 -188459,-54743 -26503,10973 -52650,29790 -62924,57651 -11273,30566 833,63393 22409,86112 51287,54004 141146,60735 207463,34032 57927,-23325 103047,-79570 73574,-143036 -59325,-127747 -297282,-125544 -364698,-6330 -34282,60620 -1373,128684 49232,167833 65659,50794 156843,63571 236784,47513 60624,-12179 124583,-43235 157100,-98219 35040,-59248 17301,-130059 -26686,-179225 -102384,-114438 -298427,-123498 -427037,-51455 -55346,31002 -103664,82121 -111046,147554 -2376,21057 -890,42520 4196,63085 3224,13035 4284,14376 14495,22438 10043,7930 20319,15565 30812,22888 36952,25794 76586,47699 118076,65288 86966,36868 181948,54078 276313,50790 48192,-1679 96163,-8578 142846,-20674 14871,-3852 29270,-6458 41363,-16096 16568,-13206 31726,-28494 44706,-45239 24725,-31893 40070,-69252 44125,-109426 293,-2913 -13309,1209 -13687,4954 -3366,33344 -14236,65014 -32678,93088 -9859,15008 -21480,28868 -34387,41346 -14372,13895 -24866,19687 -44160,24675 -79703,20612 -163281,25453 -244891,14801 -71249,-9300 -140792,-30729 -204992,-62988 -30608,-15379 -59978,-33192 -87774,-53211 -15206,-10951 -30982,-20059 -36490,-38901 -5939,-20314 -6586,-43212 -3889,-64059 17319,-133883 175943,-183688 291564,-177330 108486,5967 254529,68699 264092,193831 11344,148458 -182420,190281 -293650,161476 -56018,-14507 -112953,-46998 -140458,-99895 -26243,-50473 -14259,-108294 29627,-144448 57559,-47418 147527,-51146 215154,-25651 51278,19332 105393,64181 101644,124424 -4624,74307 -90527,101578 -153356,97075 -56162,-4024 -129851,-37021 -135950,-101032 -8036,-84342 105689,-101591 165194,-79243 26621,9998 52793,28983 62766,56613 12326,34148 -7965,66802 -40522,79413 -34665,13426 -78633,8633 -109456,-12143 -24133,-16266 -42041,-48130 -24528,-75838 22522,-35633 81579,-33781 113545,-12734 33477,22043 37662,66987 -6550,81002 -31408,9956 -83898,-7824 -83311,-46446 49,-3221 -13633,1394 -13687,4954 -914,60185 88687,59749 123941,33273 20516,-15409 26744,-40823 11212,-62469 -18182,-25338 -52828,-34106 -82459,-32121 -43716,2928 -103706,38198 -77043,89520 28289,54452 110463,57384 159190,33087 20256,-10100 39648,-26487 45476,-49262 6963,-27206 -7066,-53971 -27372,-71484 -46603,-40193 -120598,-41715 -174003,-14831 -47497,23911 -73648,75277 -41943,123548 35781,54481 111494,70833 172246,62008 48649,-7068 104927,-32556 124311,-81170 22017,-55216 -16904,-109366 -62903,-137048 -58320,-35095 -133761,-40083 -198210,-20612 -48838,14754 -99924,46732 -116182,97852 -17395,54694 12490,109288 54375,143464 53795,43893 126431,60361 194671,56619 102227,-5603 238257,-70807 220911,-193264 -19165,-135303 -186540,-190550 -303696,-186311 -105888,3830 -239899,53437 -273127,165515 -10141,34208 -7744,70164 2746,103970 4394,-2233 8789,-4466 13183,-6698 -38627,-32095 -73673,-68175 -104110,-108148 -6948,-9126 -13656,-18436 -20114,-27917 -6303,-9253 -18537,-22380 -19296,-33757 -993,-14900 19341,-36849 28742,-48367 53419,-65451 131988,-106324 212722,-127265 166282,-43134 369570,-13540 496953,108800 55685,53482 92790,125712 86922,204289 -225,3011 13411,-1260 13687,-4954z"/>
   </g>
  </g>
  <path class="fil4" d="M1020495 1588429c-170041,-116321 -242004,-375188 -219779,-527189 22864,-156366 53530,-228116 161011,-346307 67524,-74253 176464,-135549 246034,-154923 139970,-38979 227804,-24085 351871,60568 205524,140234 177807,435241 28452,540903 -227347,128866 -430354,15490 -547074,113411 -100920,84665 -84750,192769 -20515,313537z"/>
  <path class="fil4" d="M1701280 699287c19181,7294 92356,23906 170470,3395 61906,-16255 116476,-47458 101574,-70025 -32273,-40702 -123211,61073 -272044,66630z"/>
  <path class="fil5" d="M986125 1050232c30105,-80233 109287,-177140 246049,-248056 132846,-68885 240918,-66494 333967,-58615 -92626,10975 -271117,59953 -336642,101407 -72408,45809 -179289,118806 -243374,205264z"/>
 </g>
</svg>
