<?xml version="1.0" encoding="UTF-8"?>
<!DOCTYPE svg PUBLIC "-//W3C//DTD SVG 1.1//EN" "http://www.w3.org/Graphics/SVG/1.1/DTD/svg11.dtd">
<!-- Creator: CorelDRAW X7 -->
<svg xmlns="http://www.w3.org/2000/svg" xml:space="preserve" width="100%" height="100%" version="1.1" style="shape-rendering:geometricPrecision; text-rendering:geometricPrecision; image-rendering:optimizeQuality; fill-rule:evenodd; clip-rule:evenodd"
viewBox="0 0 2100000 2100000"
 xmlns:xlink="http://www.w3.org/1999/xlink">
 <defs>
  <style type="text/css">
   <![CDATA[
    .fil0 {fill:#1D1C18}
   ]]>
  </style>
 </defs>
 <g id="Слой_x0020_1">
  <metadata id="CorelCorpID_0Corel-Layer"/>
  <g id="_592531008">
   <path class="fil0" d="M680213 1346560c-18642,0 -26254,5887 -26254,23796 0,23799 18894,21832 47606,26246 21829,3440 42683,12272 42683,50057 0,43675 -18891,62079 -64277,62079 -47105,0 -62079,-22822 -62079,-53247l34103 0c740,14473 7121,22326 28708,22326 20364,0 29690,-8583 29690,-29931 0,-22327 -26496,-22327 -46621,-25023 -21341,-2696 -43910,-13246 -43910,-52258 0,-35338 21584,-53731 60351,-53731 34103,0 56679,12506 59870,50291l-34104 0c-985,-15942 -9326,-20605 -25766,-20605z"/>
   <path class="fil0" d="M832366 1440292l-15703 -69936 -15704 69936 31407 0zm52995 66479l-34844 0 -9564 -33371 -48339 0 -9817 33371 -34833 0 52259 -188670 33609 0 51529 188670z"/>
   <polygon class="fil0" points="1017383,1506771 984517,1506771 929054,1387041 932003,1458681 932003,1506771 898386,1506771 898386,1318101 932003,1318101 987451,1442490 983766,1362751 983766,1318101 1017383,1318101 "/>
   <path class="fil0" d="M1170263 1448380c0,41460 -19617,58885 -64527,58885 -44895,0 -63050,-17425 -63050,-56423l0 -76798c0,-40001 17419,-56441 63050,-56441 45636,0 64527,16686 64527,58643l-33845 0c0,-18393 -4421,-28708 -30682,-28708 -24532,0 -29191,10315 -29191,28214l0 73358c0,17923 4659,28224 29191,28224 24547,0 30682,-10301 30682,-28954l33845 0z"/>
   <polygon class="fil0" points="1318735,1506771 1285133,1506771 1285133,1432189 1226248,1432189 1226248,1507020 1192151,1507020 1192151,1321042 1226248,1321042 1226248,1401265 1285133,1401265 1285133,1321042 1318735,1321042 "/>
   <path class="fil0" d="M1437774 1450347l0 -76552c0,-17180 -4421,-28224 -30671,-28224 -24543,0 -29206,11044 -29206,28224l0 76552c0,17909 4663,28210 29206,28210 24532,0 30671,-10301 30671,-28210zm-93722 1718l0 -79988c0,-39987 17419,-56437 63051,-56437 45635,-4 64526,16450 64526,56437l0 79988c0,39012 -19627,56427 -64526,56427 -44906,0 -63051,-17415 -63051,-56427z"/>
   <path class="fil0" d="M745482 2023204c107647,0 114653,-34388 116560,-108279 0,-56051 -8913,-106381 -116560,-106381l-81534 0 0 214660 81534 0zm-80900 -433143l-634 186644 58601 0c76436,-1273 100000,-35682 100000,-94272 0,-69438 -28662,-92372 -96175,-92372l-61792 0zm-31845 -28655l93637 0c87263,0 126755,36944 126755,121027 0,45863 -17200,85356 -52237,102550 71346,12106 93003,63698 93003,125479 0,105095 -31853,143960 -148413,143960l-113384 0 639 -493016z"/>
   <path class="fil0" d="M1050610 1607897l-71966 294291 142677 0 -70059 -294291 -652 0zm-110824 445249l-33126 0 126122 -491740 35029 0 126128 491740 -33760 0 -31853 -121027 -157325 0 -31215 121027z"/>
   <path class="fil0" d="M1457040 1693898c-2549,-77713 -24848,-108931 -111466,-108931 -107644,0 -110834,51603 -110834,135041l0 172619c0,75163 3190,131850 110834,131850 94907,0 113373,-41411 113373,-121017l0 -77081 -112745 0 0 -28659 141407 0 0 105740c0,101277 -25471,152866 -142035,152866 -116570,0 -142687,-51589 -142687,-163699l0 -171974c0,-115302 24206,-164345 142687,-164345 108275,0 137579,43960 140128,136948l-28662 642z"/>
   <path class="fil0" d="M936297 309567c30665,-28824 74898,-47494 134073,-47494 125729,0 170347,96014 170347,178218l-1171 40590 -82701 -47181c880,-56757 -28424,-88743 -86475,-88743 -31586,0 -105049,9393 -105049,96446l-25 6489c-129,50734 2030,74088 125150,138203 157231,81868 179526,123229 179526,231781 0,103567 -92136,184684 -209759,184684l-2934 0c-140055,0 -203855,-106347 -203855,-205170l0 -595506 82873 47816 0 59824 0 43zm0 271269l0 216554c0,118874 108588,122296 120982,122296l2934 0c71146,0 126889,-44720 126889,-101810 0,-77923 -17951,-93427 -132204,-156911 -55067,-30602 -92859,-56413 -118601,-80392l0 263z"/>
   <path class="fil0" d="M1049993 91400c-278668,0 -505375,226714 -505375,505379 0,278667 226707,505375 505375,505375 278671,0 505379,-226708 505379,-505375 0,-278665 -226708,-505379 -505379,-505379zm0 1058486c-304977,0 -553100,-248123 -553100,-553107 0,-304985 248123,-553104 553100,-553104 304991,0 553114,248119 553114,553104 0,304984 -248123,553107 -553114,553107z"/>
  </g>
 </g>
</svg>
