<?xml version="1.0" encoding="UTF-8"?>
<!DOCTYPE svg PUBLIC "-//W3C//DTD SVG 1.1//EN" "http://www.w3.org/Graphics/SVG/1.1/DTD/svg11.dtd">
<!-- Creator: CorelDRAW X7 -->
<svg xmlns="http://www.w3.org/2000/svg" xml:space="preserve" width="100%" height="100%" version="1.1" style="shape-rendering:geometricPrecision; text-rendering:geometricPrecision; image-rendering:optimizeQuality; fill-rule:evenodd; clip-rule:evenodd"
viewBox="0 0 2100000 2100000"
 xmlns:xlink="http://www.w3.org/1999/xlink">
 <defs>
  <style type="text/css">
   <![CDATA[
    .fil0 {fill:#1679BE;fill-rule:nonzero}
   ]]>
  </style>
 </defs>
 <g id="Слой_x0020_1">
  <metadata id="CorelCorpID_0Corel-Layer"/>
  <g id="_444864312">
   <g>
    <path class="fil0" d="M1384523 1474667l-650452 0c-6724,0 -15745,5271 -15745,11995l0 32880c0,38621 34875,69680 73492,69680l534958 0c38621,0 67432,-31059 67432,-69680l0 -32880c0,-6724 -2957,-11995 -9685,-11995z"/>
   </g>
   <g>
    <path class="fil0" d="M1733828 812497c-11789,-23880 -25190,-47784 -40969,-71452 -98271,-147436 -227867,-194937 -319282,-208828 -88387,-13423 -176040,-21440 -314276,-21440 -138236,0 -225893,8013 -314280,21436 -91415,13891 -221015,61388 -319282,208820 -14439,21664 -26920,43524 -37969,65383 -172112,43291 -299543,199056 -299543,384603 0,207306 159075,377431 361814,395043 15754,1369 29197,-11361 28895,-27177 -1344,-71037 -5600,-173671 5885,-259794 2145,-16085 -10187,-30623 -26413,-30623l-9196 0c-40720,0 -76922,-32150 -80614,-72704 -4318,-47410 32752,-87678 79083,-87678l106688 0c11912,0 22402,-5380 25667,-16840 5089,-17857 10913,-35419 14285,-45179 32573,-94401 70439,-195078 169167,-210077 72728,-11046 147390,-17545 268051,-17545 120666,0 242966,7242 315695,18288 98731,14994 136593,116053 169171,210454 3368,9760 9191,26144 14281,44017 3264,11457 13758,16882 25671,16882l94430 0c40720,0 76922,32403 80614,72957 4314,47414 -32752,86691 -79083,86691l0 618c-16231,0 -28558,14596 -26414,30685 11423,85679 7271,187604 5903,258599 -324,16683 13020,29114 29595,27190 197252,-22892 350370,-190458 350370,-393849 0,-177694 -116874,-328051 -277944,-378480z"/>
   </g>
   <g>
    <g>
     <path class="fil0" d="M1337839 1315546c0,39562 24128,63591 63018,63591 70979,0 151468,-63384 160560,-116999 942,-5550 -1987,-11095 -7159,-13310 -30296,-12958 -60210,-20221 -118351,-16944 -63135,3554 -98068,44772 -98068,83662z"/>
    </g>
    <g>
     <path class="fil0" d="M780759 1315546c0,39562 -24128,63591 -63018,63591 -70979,0 -151468,-63384 -160560,-116999 -942,-5550 1987,-11095 7159,-13310 30296,-12958 60206,-20221 118351,-16944 63131,3554 98068,44772 98068,83662z"/>
    </g>
   </g>
  </g>
 </g>
</svg>
