<?xml version="1.0" encoding="UTF-8"?>
<!DOCTYPE svg PUBLIC "-//W3C//DTD SVG 1.1//EN" "http://www.w3.org/Graphics/SVG/1.1/DTD/svg11.dtd">
<!-- Creator: CorelDRAW X7 -->
<svg xmlns="http://www.w3.org/2000/svg" xml:space="preserve" width="100%" height="100%" version="1.1" style="shape-rendering:geometricPrecision; text-rendering:geometricPrecision; image-rendering:optimizeQuality; fill-rule:evenodd; clip-rule:evenodd"
viewBox="0 0 2100000 2100000"
 xmlns:xlink="http://www.w3.org/1999/xlink">
 <defs>
  <style type="text/css">
   <![CDATA[
    .fil1 {fill:#4D4D4D}
    .fil2 {fill:#EB092F}
    .fil0 {fill:#4D4D4D;fill-rule:nonzero}
   ]]>
  </style>
 </defs>
 <g id="Слой_x0020_1">
  <metadata id="CorelCorpID_0Corel-Layer"/>
  <g id="_587178568">
   <path class="fil0" d="M612422 1499591c-1653,3281 -3376,7337 -5178,12150 -1116,2964 -1571,5217 -1341,6791 230,1574 1154,2779 2817,3618 2296,1159 4583,755 6875,-1196 2276,-1958 4830,-5748 7656,-11352 2232,-4427 3766,-7916 4583,-10516 827,-2577 1031,-4558 620,-5961 -405,-1378 -1438,-2487 -3099,-3322l-5256 -2652 1210 -2400 4911 2475c1797,905 3605,775 5426,-430 1889,-1300 4398,-5074 7552,-11330 1889,-3745 3154,-6479 3797,-8200 648,-1702 1001,-3269 1080,-4666 122,-2081 -713,-3584 -2509,-4489 -892,-448 -1861,-595 -2928,-471 -1037,140 -1925,547 -2658,1214 -2543,2187 -5594,6770 -9096,13717l-541 1072 -9064 -4571c2117,-3972 4283,-7141 6532,-9534 2877,-2924 5817,-4624 8832,-5148 3020,-507 6362,155 10018,2000 4741,2392 7569,5541 8457,9417 880,3891 -113,8717 -3017,14470 -1698,3371 -3478,5960 -5314,7762 -1830,1823 -3846,2892 -6042,3225 -2181,342 -4607,4 -7284,-1003 2153,1446 3714,2709 4701,3754 988,1010 1718,2155 2206,3444 1501,3635 735,8463 -2283,14443 -6787,13462 -15705,17394 -26764,11818 -4937,-2492 -7848,-5705 -8749,-9626 -509,-1734 -534,-3791 -108,-6174 490,-2140 998,-3966 1516,-5448 543,-1491 1627,-4014 3243,-7520l9199 4639zm60053 -28070l22360 8459c3624,1370 6263,3095 7916,5182 1665,2096 2455,4747 2364,7950 -69,3193 -991,7115 -2739,11733 -1693,4480 -3759,8218 -6193,11206 -2141,2552 -4500,4104 -7120,4670 -2603,567 -5740,162 -9381,-1216l-7214 -2732 -10273 27154 6267 2372 -611 1614 -21237 -8035 611 -1614 5001 1891 24640 -65128 -5002 -1891 611 -1615zm677 42581l4462 1689c3122,1071 5514,1112 7177,111 722,-524 1365,-1220 1940,-2072 1495,-2473 3211,-6236 5126,-11300 2268,-5997 3659,-10681 4160,-14056 157,-1566 99,-2748 -218,-3536 -321,-826 -1035,-1565 -2138,-2236 -1108,-658 -2950,-1480 -5514,-2449 -221,-81 -560,-194 -999,-322 -440,-134 -762,-238 -952,-308l-13044 34479zm41352 13124c2111,-7540 3887,-13124 5303,-16735 1461,-3645 3229,-7016 5286,-10095 4258,-6362 10323,-8440 18192,-6236 5946,1665 9609,4834 11006,9509 756,2447 1121,5028 1120,7731 -2,2705 -393,6040 -1143,9975 -790,3889 -2053,8964 -3800,15206 -1844,6581 -3382,11507 -4629,14759 -1227,3259 -2677,6176 -4334,8766 -4560,6998 -10911,9349 -19072,7064 -5441,-1525 -9011,-4402 -10733,-8665 -876,-2266 -1361,-4737 -1470,-7420 -98,-2665 185,-5870 841,-9588 682,-3761 1821,-8519 3433,-14271zm10972 1476l-3746 14130c-1623,6168 -2600,10410 -2934,12725 -309,2302 -233,4289 221,5929 575,1900 2025,3186 4338,3833 2068,578 3810,258 5224,-962 835,-786 1532,-1642 2098,-2541 861,-1373 1640,-2966 2319,-4760 639,-1842 1785,-5492 3414,-10938l3333 -11522 4330 -16584c1308,-4994 2145,-8484 2524,-10467 602,-2892 630,-5379 83,-7445 -626,-2090 -1972,-3433 -4040,-4013 -1908,-534 -3548,-326 -4903,629 -799,534 -1540,1360 -2187,2479 -1067,1426 -1930,3132 -2632,5134 -595,1745 -1602,4960 -2993,9612l-4449 14761zm38424 48209l375 -1682 5218 1167 15200 -67939 -5218 -1167 381 -1702 33549 7507 -3486 15585 -2675 -600c588,-3024 852,-5668 822,-7948 -4,-901 -100,-1789 -322,-2654 -236,-1197 -653,-2053 -1231,-2564 -581,-494 -1631,-918 -3134,-1255l-8800 -1970 -5963 26651 3286 733c3865,863 6751,1840 8668,2945 3022,1681 5011,4415 6005,8189 950,3733 831,8300 -374,13683 -1621,7248 -4081,12350 -7378,15305 -3312,2951 -7535,3844 -12684,2693l-22239 -4977zm15926 718l2081 466c2309,520 4098,744 5384,650 1267,-79 2338,-603 3229,-1565 862,-988 1637,-2509 2287,-4568 668,-2053 1472,-5182 2417,-9409 1732,-7742 2519,-12802 2341,-15185 -118,-1949 -784,-3397 -2030,-4336 -1246,-939 -3554,-1783 -6939,-2539l-577 -128 -8193 36614zm98399 -52983l-296 1713 -5318 -914 -11822 68623 5320 918 -284 1648 -21030 -3586 290 -1684 5302 913 11652 -67641 -11204 -1930 -7495 43516c-1358,7870 -2984,14233 -4898,19053 -1823,4611 -4754,6580 -8774,5886 -1849,-319 -3242,-1107 -4194,-2353 -933,-1259 -1461,-3084 -1574,-5507 -104,-2401 190,-5597 874,-9565l498 -2884 2583 445 -260 1517c-894,5186 360,8061 3746,8644 4268,737 7203,-3546 8809,-12869l8154 -47331 -5270 -909 296 -1717 34895 6014zm48265 78784l-37738 -3803 172 -1702 5318 539 6985 -69286 -5320 -534 175 -1736 36612 3691 -1600 15871 -2711 -273c205,-3056 152,-5714 -147,-7972 -121,-996 -338,-1869 -639,-2598 -377,-1160 -875,-1955 -1510,-2394 -638,-423 -1714,-721 -3228,-871l-11126 -1124 -3056 30303 6246 627c1346,136 2354,87 3006,-137 655,-240 1194,-715 1641,-1435 1014,-1291 1902,-4364 2665,-9237l2609 264 -2509 24897 -2711 -273c181,-2464 196,-4470 11,-6019 -201,-1874 -646,-3194 -1334,-3944 -690,-751 -1902,-1210 -3654,-1388l-6243 -629 -3452 34237 11326 1140c4950,500 7989,-3834 9119,-13006l2758 279 -1665 16513zm65265 2831l5388 300 -96 1721 -21367 -1186 97 -1723 5438 300 1965 -35370 -14595 -809 -1965 35370 5390 298 -96 1723 -21371 -1186 96 -1723 5339 296 3861 -69526 -5339 -296 96 -1723 21369 1188 -94 1721 -5390 -300 -1744 31419 14595 813 1744 -31421 -5440 -303 96 -1724 21368 1188 -96 1721 -5390 -298 -3859 69530zm29336 -32272c87,-7832 354,-13683 788,-17535 466,-3906 1303,-7616 2490,-11124 2466,-7249 7784,-10825 15955,-10734 6174,67 10534,2179 13094,6332 1363,2166 2385,4562 3084,7179 700,2613 1186,5932 1480,9929 245,3961 340,9190 268,15670 -75,6832 -285,11992 -645,15457 -341,3466 -986,6656 -1915,9590 -2592,7938 -8118,11854 -16592,11761 -5650,-64 -9844,-1921 -12610,-5589 -1434,-1961 -2543,-4223 -3344,-6787 -784,-2545 -1340,-5716 -1670,-9475 -315,-3810 -447,-8702 -383,-14674zm10981 -1416l42 14616c30,6379 186,10730 463,13049 298,2304 887,4206 1750,5673 1048,1685 2781,2548 5182,2577 2148,24 3748,-739 4796,-2281 605,-977 1056,-1986 1369,-2998 477,-1550 816,-3291 1007,-5199 139,-1946 301,-5767 463,-11449l234 -11994 -115 -17142c-28,-5158 -124,-8745 -271,-10762 -170,-2945 -786,-5356 -1850,-7209 -1146,-1859 -2794,-2805 -4941,-2832 -1979,-22 -3510,603 -4573,1878 -634,722 -1135,1713 -1471,2963 -661,1652 -1054,3524 -1212,5639 -122,1840 -260,5207 -400,10059l-473 15412zm81426 12878c203,3668 735,8044 1576,13111 510,3128 1242,5303 2228,6553 984,1252 2387,1834 4247,1733 2568,-146 4348,-1633 5360,-4470 993,-2830 1318,-7390 969,-13659 -275,-4946 -688,-8735 -1276,-11399 -572,-2645 -1384,-4463 -2438,-5473 -1039,-992 -2488,-1437 -4345,-1335l-5878 328 -149 -2688 5489 -305c2012,-112 3512,-1128 4489,-3079 986,-2072 1276,-6592 888,-13585 -232,-4190 -500,-7190 -803,-9003 -287,-1801 -764,-3330 -1391,-4583 -932,-1865 -2406,-2747 -4416,-2636 -997,53 -1907,411 -2771,1052 -829,639 -1395,1433 -1698,2381 -1113,3160 -1467,8655 -1035,16424l66 1201 -10137 562c-147,-4500 147,-8327 903,-11519 1033,-3974 2734,-6915 5082,-8875 2366,-1942 5592,-3037 9681,-3265 5303,-295 9324,1025 12029,3940 2704,2935 4251,7610 4610,14044 209,3771 -44,6902 -734,9379 -675,2494 -1891,4425 -3625,5808 -1721,1386 -3991,2308 -6811,2768 2584,179 4568,492 5946,909 1359,378 2564,1006 3629,1883 3116,2402 4860,6964 5231,13654 835,15052 -4930,22909 -17295,23595 -5521,306 -9646,-1021 -12385,-3970 -1307,-1252 -2355,-3022 -3175,-5299 -643,-2098 -1116,-3936 -1406,-5477 -274,-1562 -592,-4287 -941,-8134l10286 -571zm111019 10189l4920 -613 2255 18170 -2704 332 -7358 -14769 -29716 3687 -3591 16130 -2753 341 -2252 -18167c2878,-562 5201,-1887 6965,-4016 1797,-2151 2987,-5076 3548,-8777 621,-3674 617,-7952 12,-12840l-5475 -44121 -5358 663 -213 -1727 38413 -4765 215 1727 -5356 663 8448 68082zm-34535 4285l23957 -2973 -8325 -67092 -14403 1789 5522 44508c759,6113 307,11556 -1329,16344 -590,1712 -1226,3050 -1938,4042 -711,992 -1886,2110 -3484,3382zm83160 -81318l-3120 61209c-270,5316 -951,8936 -2061,10862 -1125,1838 -3022,2990 -5690,3450 -2049,353 -3734,145 -5054,-641 -1316,-765 -2432,-2258 -3308,-4458 -881,-2215 -1678,-5360 -2374,-9394l2585 -445c62,158 147,454 253,865 99,379 209,718 324,992 494,2268 1231,3753 2226,4458 1031,698 2604,856 4755,489 2667,-462 4317,-1641 4973,-3520 320,-830 543,-2617 639,-5348l-24025 -53370 -5318 914 -292 -1699 21138 -3640 243 1706 -5269 909 14837 36584 1755 -39440 -5269 905 -343 -1689 13420 -2314 293 1701 -5318 914zm94815 49981l5236 -1313 416 1656 -63880 16041 -416 -1655 5186 -1301 -16965 -67558 -5186 1304 -421 -1672 20036 -5031 421 1670 -4513 1135 16714 66551 11222 -2818 -16712 -66551 -4513 1133 -421 -1675 19380 -4867 421 1674 -4530 1139 16714 66551 11222 -2819 -16714 -66551 -4528 1137 -421 -1672 20102 -5049 421 1674 -5235 1314 16964 67553zm63765 -18251l-35873 12320 -556 -1618 5058 -1734 -22613 -65863 -5058 1736 -566 -1646 34803 -11950 5180 15087 -2575 886c-1091,-2865 -2251,-5254 -3467,-7180 -528,-856 -1089,-1561 -1666,-2095 -828,-895 -1612,-1414 -2374,-1544 -756,-119 -1857,62 -3297,558l-10576 3629 9890 28806 5934 -2040c1281,-441 2176,-909 2676,-1384 492,-492 786,-1144 889,-1987 383,-1596 -96,-4762 -1438,-9507l2481 -850 8125 23665 -2577 886c-865,-2315 -1691,-4142 -2504,-5473 -969,-1617 -1924,-2631 -2861,-3024 -941,-394 -2234,-305 -3901,266l-5934 2040 11173 32546 10768 -3701c4706,-1615 5654,-6822 2847,-15624l2622 -901 5390 15696zm22034 -48129l14760 32207 4905 -2248 720 1567 -19457 8915 -720 -1566 4862 -2231 -29010 -63304 -4860 2230 -718 -1571 19457 -8917 718 1571 -4907 2247 13110 28608 7920 -3629 -845 -1846c-3567,-7784 -5684,-14799 -6380,-21067 -473,-3633 144,-6875 1839,-9716 1692,-2841 4360,-5107 7989,-6772 5629,-2577 10487,-2534 14606,117 3141,2062 5986,5022 8563,8900 2571,3867 5820,10101 9752,18684 2847,6214 4858,10968 6012,14254 1167,3280 1936,6464 2309,9509 1150,8276 -2202,14205 -10044,17798 -5077,2327 -9650,2415 -13726,260 -1993,-1095 -3842,-2539 -5561,-4336 -1725,-1813 -3447,-4190 -5209,-7143 -1746,-2957 -3788,-6841 -6104,-11661l-2059 -4491 -7922 3631zm18066 -7646l6365 13164c1992,4183 3495,7218 4530,9107 1033,1889 1951,3367 2763,4408 828,1035 1723,1853 2696,2471 1665,1079 3573,1135 5741,140 1923,-881 3012,-2238 3263,-4042 156,-633 171,-1738 47,-3354 -205,-1544 -628,-3195 -1272,-4928 -645,-1732 -2174,-5312 -4540,-10721l-4815 -10990 -7492 -15416c-2122,-4388 -3717,-7584 -4803,-9633 -1427,-2624 -3020,-4517 -4796,-5712 -1846,-1184 -3725,-1346 -5616,-479 -1738,796 -2886,2028 -3427,3691 -174,881 -211,1976 -68,3303 269,2095 714,3953 1370,5592 677,1719 1980,4805 3908,9260l6146 14139z"/>
   <path class="fil0" d="M781564 1411788l-32620 0 0 -1468 4596 0 0 -59883 -4596 0 0 -1501 31645 0 0 13719 -2343 0c-87,-2630 -364,-4902 -815,-6808 -190,-844 -450,-1572 -771,-2168 -422,-959 -916,-1599 -1498,-1919 -583,-305 -1529,-466 -2837,-466l-9617 0 0 26189 5397 0c1164,0 2023,-133 2561,-378 539,-263 959,-715 1280,-1367 757,-1195 1251,-3901 1483,-8137l2257 0 0 21522 -2343 0c-59,-2127 -219,-3842 -509,-5153 -334,-1585 -830,-2677 -1484,-3259 -654,-583 -1733,-871 -3245,-871l-5397 0 0 29592 9792 0c4277,0 6502,-3970 6677,-11916l2387 0 0 14272zm6749 -22128l9166 0 0 2211 0 4640c0,3274 45,5676 132,7205 58,1540 175,2690 363,3459 189,760 494,1488 917,2170 771,1280 2066,1919 3913,1919 1936,0 3275,-669 4016,-2006 1106,-1847 1659,-5880 1659,-12106 0,-2212 -117,-3927 -334,-5151 -292,-1308 -728,-2386 -1325,-3242 -858,-1471 -2721,-3535 -5586,-6184l-5239 -4818c-2532,-2298 -4364,-4594 -5484,-6896 -1122,-2313 -1689,-4858 -1689,-7682 0,-3256 567,-6067 1689,-8395 1120,-2327 2749,-4102 4888,-5324 2125,-1222 4685,-1834 7667,-1834 5151,0 8759,1804 10825,5414 888,1482 1527,3201 1921,5164 524,2545 815,5906 901,10055l-8743 0 0 -2564 -87 -3489c-58,-3465 -132,-5822 -219,-7072 -73,-1251 -277,-2254 -597,-2984 -538,-1789 -1876,-2690 -4001,-2690 -1906,0 -3302,916 -4175,2766 -888,1817 -1324,4784 -1324,8875 0,2298 189,4187 581,5688 379,1482 1063,2880 2038,4147 990,1280 2501,2866 4539,4743 3303,2953 5777,5352 7449,7200 1659,1847 2939,3636 3812,5369 1280,2590 1921,5280 1921,8091 0,1817 -219,3725 -655,5688 -450,1977 -1004,3580 -1687,4801 -2226,4059 -6504,6097 -12832,6097 -5893,0 -9850,-1949 -11903,-5835 -1614,-3157 -2429,-7770 -2429,-13850l-88 -3580zm33304 -40724l31935 0 0 17227 -2357 0 -73 -2123 -728 -6447c-262,-2547 -712,-4248 -1367,-5107 -684,-801 -1936,-1192 -3768,-1192l-3158 0 0 59013 4685 0 0 1481 -18492 0 0 -1481 4641 0 0 -59013 -3142 0c-1789,0 -3013,408 -3667,1235 -684,799 -1178,2490 -1484,5064l-684 6447 -87 2123 -2254 0 0 -17227zm36009 58460c0,-1512 554,-2794 1644,-3884 1091,-1076 2371,-1617 3857,-1617 1425,0 2677,541 3766,1617 1092,1090 1644,2313 1644,3709 0,1442 -552,2722 -1644,3840 -1089,1119 -2341,1687 -3766,1687 -1427,0 -2692,-551 -3814,-1644 -1120,-1092 -1687,-2326 -1687,-3708z"/>
   <path class="fil0" d="M1231876 1411788c59,-4799 321,-8323 772,-10561 407,-1966 901,-3711 1498,-5252 843,-2447 1789,-4526 2807,-6259 1048,-1758 2664,-3955 4817,-6558 2328,-2869 3972,-5022 4947,-6461 959,-1440 1702,-2865 2211,-4277 858,-2228 1280,-5224 1280,-8994 0,-4770 -349,-8103 -1061,-9979 -715,-1908 -1936,-2854 -3667,-2854 -1600,0 -2735,728 -3420,2170 -567,1250 -888,2502 -944,3753 -132,1369 -249,3741 -336,7160 -58,1759 -86,3330 -86,4728l0 1484 -8555 0c58,-3695 188,-6329 377,-7914 203,-1602 625,-3361 1282,-5284 1657,-5222 5789,-7843 12410,-7843 8715,0 13079,5750 13079,17227 0,2634 -335,4787 -1018,6431 -801,2083 -2300,4032 -4481,5849 -656,568 -3099,2432 -7333,5573 -2357,1789 -4206,3476 -5545,5035 -1338,1541 -2545,3464 -3621,5805 -1048,2155 -1746,4511 -2081,7069l21097 0 0 -5834 2298 0 -43 15786 -26684 0zm32737 -31237c87,-6879 262,-11928 552,-15174 306,-3230 830,-6010 1527,-8308 555,-1731 1339,-3199 2402,-4421 1048,-1225 2328,-2155 3855,-2779 1514,-626 3216,-933 5092,-933 4481,0 7784,1514 9879,4553 1063,1602 1849,3404 2386,5412 539,2025 916,4775 1135,8252 219,3478 321,8336 321,14593 0,6474 -117,11158 -364,14054 -232,2894 -728,5558 -1469,8001 -1936,6083 -5865,9124 -11799,9124 -4074,0 -7160,-1384 -9255,-4134 -1672,-2238 -2822,-5090 -3433,-8540 -610,-3446 -918,-8832 -918,-16120 0,-436 15,-1049 46,-1835 28,-769 43,-1349 43,-1745zm9166 5748l175 12481c0,4921 57,7800 173,8616 74,743 364,1483 845,2226 684,1016 1731,1527 3158,1527 1440,0 2486,-511 3142,-1527 421,-684 713,-1674 858,-2967 130,-1297 204,-3712 204,-7275l175 -13168 0 -10404 -89 -11332c0,-4774 -71,-8016 -203,-9719 -59,-541 -290,-1268 -684,-2169 -800,-1280 -1935,-1920 -3403,-1920 -1456,0 -2532,609 -3247,1835 -478,769 -771,1757 -872,2980 -102,1224 -146,4280 -146,9166l-86 11159 0 10491zm34220 -24108l-10795 0 0 -1703c3652,-320 6387,-1076 8161,-2298 1397,-976 2532,-2168 3420,-3578 697,-1253 1280,-3144 1746,-5676l6109 0 0 61371 5239 0 0 1481 -19031 0 0 -1481 5151 0 0 -48116zm21853 29548l8512 0 0 1616c0,2562 188,6198 552,10911 351,4613 1791,6912 4351,6912 2094,0 3433,-1484 4000,-4438 249,-1367 438,-3115 555,-5235 275,-5343 420,-9096 420,-11264 0,-6851 -466,-12118 -1410,-15813 -641,-2447 -1863,-3669 -3652,-3669 -3012,0 -4641,3989 -4903,11977l-8003 0 1324 -32663 22479 0 0 15884 -2255 0 0 -5932 -18477 0 -976 19217c1470,-3753 3099,-6387 4875,-7929 1774,-1527 4102,-2300 6998,-2300 8656,0 12992,6942 12992,20805 0,5283 -524,9634 -1557,13036 -1033,3420 -2603,5952 -4700,7598 -2109,1644 -4786,2473 -8059,2473 -4030,0 -7099,-1340 -9239,-4000 -1048,-1341 -1848,-2826 -2387,-4440 -567,-1964 -944,-3740 -1120,-5326 -188,-1598 -290,-4073 -320,-7420z"/>
   <path class="fil1" d="M1574686 1443725c34667,-23408 46702,24497 4996,26046 -12444,462 -27988,-6653 -29649,-16062 -1353,-7657 4391,-18831 11702,-24860 17996,-14836 42848,-15715 65084,-15189 25488,605 48900,3480 68254,-3979 41412,-15962 26087,-45471 -853,-39052 -35892,8551 -1570,37872 11099,14614 -12098,27433 -52857,-6302 -11029,-17427 30184,-8027 48691,26876 4472,43995 -19344,7492 -46591,5612 -72082,5007 -83396,-1983 -92748,50672 -47564,49000 11660,-432 26299,-5840 24351,-17713 -1387,-8463 -12666,-15259 -28781,-4380z"/>
   <path class="fil1" d="M531491 1443725c-34667,-23408 -46704,24497 -4998,26046 12444,462 27988,-6653 29649,-16062 1353,-7657 -4391,-18831 -11702,-24860 -17994,-14836 -42846,-15715 -65084,-15189 -25488,605 -48898,3480 -68254,-3979 -41412,-15962 -26087,-45471 852,-39052 35893,8551 1573,37872 -11098,14614 12098,27433 52857,-6302 11029,-17427 -30184,-8027 -48691,26876 -4472,43995 19344,7492 46593,5612 72082,5007 83396,-1983 92748,50672 47566,49000 -11662,-432 -26301,-5840 -24353,-17713 1387,-8463 12666,-15259 28783,-4380z"/>
   <path class="fil0" d="M285903 890743c31447,0 55817,11321 73111,33962 0,-11010 159,-17613 472,-19813 1887,-7230 6289,-10846 13207,-10846 9749,0 14622,5186 14622,15564 0,6287 -471,15644 -1414,28067 -944,12420 -1416,21776 -1416,28063 0,5661 472,14150 1416,25471 943,11320 1414,19811 1414,25471 0,14152 -5188,21225 -15566,21225 -8804,0 -13994,-5816 -15564,-17451 -315,-941 -472,-9982 -472,-27121 0,-17140 -6603,-33175 -19811,-48113 -13208,-14937 -28302,-22406 -45282,-22406 -30188,0 -52831,15723 -67924,47171 -11321,23899 -16980,52827 -16980,86789 0,35219 5345,64621 16037,88208 14466,31760 37107,47637 67924,47637 26099,0 44966,-9117 56601,-27356 5346,-8804 10693,-25471 16039,-49999 3773,-18237 9432,-27356 16980,-27356 11321,0 16982,8174 16982,24525 0,33963 -9120,61321 -27358,82075 -19184,21384 -45597,32073 -79244,32073 -43397,0 -76100,-17922 -98113,-53769 -18237,-29562 -27358,-67453 -27358,-113680 0,-44965 8964,-82543 26887,-112732 21383,-37108 52987,-55659 94810,-55659z"/>
   <path class="fil0" d="M618061 1101282l42847 -112950c1287,-3527 1898,-7729 1898,-12678 0,-1900 -541,-3797 -1627,-5697 -2441,-810 -5016,-1220 -7729,-1220 -1899,0 -4610,274 -8135,817 -3525,539 -6238,812 -8136,812 -9492,0 -14237,-4880 -14237,-14646 0,-10845 5152,-16271 15458,-16271 4338,0 10780,681 19322,2036 8541,1354 14983,2032 19321,2032 6238,0 15459,-678 27661,-2032 12205,-1355 21424,-2036 27662,-2036 4340,0 8272,1493 11796,4476 3527,2982 5289,6643 5289,10983 0,3796 -1287,7320 -3864,10578 -2577,3251 -5763,4880 -9560,4880 -1627,0 -4136,-273 -7526,-812 -3389,-543 -5897,-817 -7524,-817 -10577,0 -18578,6782 -24000,20340l-71187 178577c-7593,19121 -15323,32612 -23188,40545 -10576,10913 -24543,16406 -41898,16406 -16271,0 -29424,-6507 -39457,-19594 -9221,-12271 -13832,-26646 -13832,-43256 0,-12269 2713,-23322 8137,-33085 6507,-11998 15456,-17966 26847,-17966 19255,0 28883,10035 28883,30105 0,11118 -5154,16678 -15459,16678 -8136,0 -13289,-4204 -15457,-12614 -3255,2441 -4882,6987 -4882,13562 0,8203 2034,15998 6100,23324 4883,8474 11119,12744 18713,12744 10306,0 19119,-5967 26441,-17968 6780,-10574 10169,-21288 10169,-32201 0,-8406 -1491,-15730 -4473,-21968l-63460 -133289c-3523,-7320 -6372,-12201 -8542,-14642 -3795,-3797 -8949,-5698 -15456,-5698 -1627,0 -4136,274 -7526,817 -3390,539 -5899,812 -7526,812 -3797,0 -6983,-1629 -9560,-4880 -2577,-3258 -3864,-6782 -3864,-10578 0,-4340 1762,-8001 5290,-10983 3523,-2983 7456,-4476 11795,-4476 6238,0 15457,681 27662,2036 12203,1354 21423,2032 27661,2032 4068,0 10237,-678 18507,-2032 8272,-1355 14441,-2036 18509,-2036 11662,0 17493,5426 17493,16271 0,9766 -4883,14646 -14644,14646 -1899,0 -4612,-273 -8137,-812 -3525,-543 -6236,-817 -8136,-817 -2983,0 -5558,410 -7728,1220 -1086,1900 -1627,4070 -1627,6510 0,4679 1424,10238 4338,16748l50578 108067z"/>
   <path class="fil0" d="M894023 936197c27117,0 48135,9762 63051,29289 0,-9494 135,-15188 407,-17088 1627,-6236 5423,-9356 11388,-9356 8408,0 12610,4475 12610,13426 0,5424 -405,13491 -1219,24202 -813,10712 -1222,18779 -1222,24204 0,4881 409,12203 1222,21965 814,9765 1219,17085 1219,21968 0,12203 -4473,18307 -13422,18307 -7594,0 -12069,-5018 -13425,-15051 -271,-817 -405,-8614 -405,-23392 0,-14780 -5695,-28610 -17087,-41491 -11389,-12882 -24406,-19323 -39050,-19323 -26035,0 -45560,13558 -58577,40678 -9762,20611 -14644,45560 -14644,74848 0,30373 4609,55729 13831,76068 12475,27392 32000,41086 58577,41086 22507,0 38780,-7865 48813,-23595 4610,-7594 9219,-21963 13830,-43118 3254,-15729 8137,-23592 14644,-23592 9764,0 14645,7049 14645,21150 0,29289 -7865,52884 -23594,70780 -16542,18443 -39321,27663 -68338,27663 -37425,0 -65629,-15456 -84611,-46374 -15730,-25491 -23595,-58169 -23595,-98035 0,-38779 7731,-71187 23188,-97220 18441,-32001 45695,-47999 81764,-47999z"/>
   <path class="fil0" d="M1117108 1169690l0 -178174c0,-16269 -5288,-24405 -15866,-24405 -2440,0 -5965,339 -10576,1018 -4611,676 -7999,1018 -10171,1018 -9490,0 -14237,-4813 -14237,-14443 0,-10442 5155,-15662 15459,-15662 5967,0 14916,611 26849,1830 11931,1222 20880,1835 26847,1835 5695,0 14237,-613 25627,-1835 11389,-1219 19931,-1830 25626,-1830 10578,0 15866,5220 15866,15662 0,9630 -4883,14443 -14645,14443 -2169,0 -5559,-342 -10170,-1018 -4610,-679 -8135,-1018 -10576,-1018 -10576,0 -15864,8136 -15864,24405l0 178174c0,16269 5288,24406 15864,24406 2441,0 5966,-338 10576,-1019 4611,-676 8001,-1016 10170,-1016 9762,0 14645,4813 14645,14443 0,10440 -5288,15660 -15866,15660 -5695,0 -14237,-611 -25626,-1830 -11390,-1222 -19932,-1833 -25627,-1833 -5967,0 -14916,611 -26847,1833 -11933,1219 -20882,1830 -26849,1830 -10304,0 -15459,-5220 -15459,-15660 0,-9630 4747,-14443 14237,-14443 2172,0 5560,340 10171,1016 4611,681 8136,1019 10576,1019 10578,0 15866,-8137 15866,-24406z"/>
   <path class="fil0" d="M1338439 1098910l0 -107394c0,-15726 -6781,-23589 -20339,-23589 -2170,0 -5424,269 -9762,810 -4340,545 -7595,817 -9763,817 -9492,0 -14239,-4885 -14239,-14646 0,-7865 5833,-12882 17493,-15050 3796,-545 13017,-816 27661,-816 10033,0 25084,611 45152,1830 20068,1222 35120,1835 45153,1835 8406,0 21018,-613 37830,-1835 16814,-1219 29424,-1830 37832,-1830 15458,0 25763,407 30915,1223 14644,2168 21966,7049 21966,14643 0,9761 -4880,14646 -14644,14646 -2170,0 -5356,-272 -9558,-817 -4204,-541 -7392,-810 -9561,-810 -11932,0 -17898,7863 -17898,23589l0 177765c0,16001 5423,24000 16271,24000 2441,0 5898,-337 10374,-1016 4473,-677 7931,-1016 10372,-1016 14102,0 21152,7049 21152,21150 0,2986 -405,7460 -1220,13426 -812,5965 -1219,10442 -1219,13423 0,4341 407,10781 1219,19323 815,8542 1220,14982 1220,19323 0,11389 -4272,17084 -12814,17084 -4677,0 -8473,-1829 -11524,-5492 -3052,-3663 -4543,-7795 -4543,-12408 0,-2980 407,-7594 1220,-13830 814,-6238 1221,-10845 1221,-13831 0,-13830 -3525,-22506 -10576,-26033 -4339,-2170 -14239,-3256 -29695,-3256 -8137,0 -20272,341 -36407,1018 -16136,681 -28272,1018 -36407,1018 -8408,0 -21018,-337 -37832,-1018 -16812,-677 -29422,-1018 -37830,-1018 -15457,0 -26171,1222 -32135,3663 -10305,4134 -15459,12540 -15459,25356 0,3052 272,7659 814,13898 543,6304 813,10917 813,13965 0,4611 -1423,8746 -4270,12476 -2847,3663 -6577,5492 -11187,5492 -8408,0 -12610,-5695 -12610,-17152 0,-4341 340,-10849 1016,-19391 679,-8609 1018,-15049 1018,-19391 0,-2980 -339,-7526 -1018,-13490 -676,-5965 -1016,-10510 -1016,-13491 0,-13901 5695,-20814 17084,-20814 2170,0 5424,339 9763,1016 4338,679 7594,1016 9764,1016 24136,0 36203,-31458 36203,-94371zm20747 82983c0,7591 10033,11388 30100,11388l34577 0c14644,0 24000,-812 28068,-2441 7864,-3252 11796,-10981 11796,-23186l0 -175729c0,-8136 -812,-13829 -2439,-17085 -2442,-4609 -7322,-6913 -14644,-6913 -3797,0 -9628,269 -17493,810 -7865,545 -13694,817 -17491,817 -2711,0 -6779,-272 -12203,-817 -5426,-541 -9492,-810 -12205,-810 -7050,0 -11795,2304 -14237,6913 -1627,3256 -2441,8813 -2441,16676 0,8410 271,23326 814,44749 541,18982 813,33898 813,44745 -272,16543 -1356,31458 -3254,44745 -541,3528 -2441,12882 -5695,28069 -2711,12205 -4066,21559 -4066,28069z"/>
   <path class="fil0" d="M1669762 1161493l0 -206600c0,-18240 -6289,-27358 -18867,-27358 -2830,0 -6919,235 -12263,707 -5347,471 -9277,707 -11794,707 -11006,0 -16509,-5581 -16509,-16745 0,-12105 6289,-18158 18867,-18158 5976,0 14939,707 26887,2121 11950,1416 20912,2123 26887,2123 6289,0 15645,-707 28064,-2123 12422,-1414 21778,-2121 28065,-2121 15410,0 23115,5737 23115,17216 0,11792 -5347,17687 -16038,17687 -2201,0 -5346,-236 -9435,-707 -4087,-472 -7232,-707 -9432,-707 -12892,0 -19340,8645 -19340,25944l0 115089c0,12580 1101,20128 3301,22641 3774,-1257 8491,-4560 14152,-9903l94809 -89622c11320,-10691 16981,-22799 16981,-36320 0,-9434 -944,-16039 -2831,-19814 -2830,-5344 -8333,-8015 -16509,-8015 -2200,0 -5423,235 -9669,707 -4245,471 -7469,707 -9671,707 -10376,0 -15564,-5895 -15564,-17687 0,-11479 7546,-17216 22641,-17216 6289,0 15802,707 28536,2121 12737,1416 22249,2123 28538,2123 5974,0 15016,-707 27123,-2123 12106,-1414 21148,-2121 27122,-2121 12578,0 18867,6053 18867,18158 0,11164 -5818,16745 -17453,16745 -2515,0 -6210,-236 -11083,-707 -4875,-472 -8570,-707 -11087,-707 -13521,0 -20281,8645 -20281,25944l0 207539c0,18556 6289,27833 18867,27833 2515,0 6447,-236 11792,-707 5346,-475 9277,-711 11792,-711 11635,0 17453,5426 17453,16277 0,12418 -6289,18629 -18867,18629 -5974,0 -15016,-786 -27122,-2358 -12107,-1572 -21149,-2358 -27123,-2358 -6289,0 -15722,786 -28302,2358 -12576,1572 -22012,2358 -28301,2358 -15409,0 -23112,-5895 -23112,-17686 0,-11479 5188,-17220 15564,-17220 2202,0 5505,236 9907,711 4402,471 7705,707 9905,707 8176,0 13680,-2832 16508,-8491 1574,-3772 2360,-10376 2360,-19813l0 -126412c0,-6919 -314,-11475 -944,-13679 -6289,2204 -24055,17451 -53300,45755 -17925,17608 -35849,35220 -53773,52827 -8177,7864 -13521,13996 -16038,18398 -3457,6291 -5188,14309 -5188,24057 0,9119 943,15564 2830,19336 2830,5347 8332,8022 16510,8022 2200,0 5345,-236 9432,-707 4089,-475 7234,-711 9435,-711 10691,0 16038,5899 16038,17691 0,11477 -7705,17215 -23115,17215 -6287,0 -15643,-786 -28065,-2358 -12419,-1572 -21775,-2358 -28064,-2358 -5975,0 -14937,786 -26887,2358 -11948,1572 -20911,2358 -26887,2358 -12578,0 -18867,-6053 -18867,-18161 0,-11163 5503,-16745 16509,-16745 2517,0 6447,236 11794,711 5344,471 9433,707 12263,707 12578,0 18867,-9121 18867,-27358z"/>
   <path class="fil1" d="M1095877 843442c7572,-1096 71379,-1028 76014,622 3000,16401 -752,32248 -16322,44884 -19440,15772 -2305,37307 20345,17963 15365,-13116 21780,-30461 22442,-45388 1406,-31653 -36,-103624 -98,-138030l528 -67871c-498,-10250 -9053,-17280 -17218,-13625 -11824,5290 -9037,25869 -9132,44604l-90 91636c13,8119 134,14482 258,22620 162,10761 -8074,18311 -17057,14742 -13087,-5199 -8919,-34272 -8996,-43321l-17 -91642c-57,-6637 4775,-43885 -14763,-39564 -12162,2688 -11178,14220 -11100,20535l34 114237c-23,8114 5075,43709 -15097,40338 -10966,-1833 -11409,-12991 -11420,-18903 -14,-8038 -61,-14605 94,-22585 305,-15758 209,-30587 30,-46468l4 -67767c164,-6568 -1105,-18825 -12446,-19417 -17225,-900 -13398,23086 -13319,40814 164,36771 -1784,159929 375,183217 1403,15123 9667,32591 26112,44882 18904,14135 35451,-5891 16795,-20865 -15464,-12408 -20469,-30122 -15956,-45648z"/>
   <path class="fil2" d="M1272780 639547l7880 -5177c14299,-15161 31473,-31743 36965,-57233 7422,-34467 -5288,-57640 -31210,-65486 -52075,-15767 -62696,40494 -135570,55101 -4004,594 -9556,1131 -13424,1849 -918,172 -3392,586 -4217,830 -5829,1723 -4399,1821 -6125,2792 -40257,-3746 -50599,2899 -91003,-11408 -26764,-9478 -57440,-21966 -82151,-2049 -51130,41207 10957,113229 53887,118903 5369,792 795,-899 7182,1335 4653,1629 4101,2371 6106,3836 21757,6459 45581,8593 69705,8719l36140 -2254 0 0c6788,-1122 16318,-1167 27390,-3090 47567,-9360 77679,-14805 118445,-46668zm-272880 -75020c6730,641 24743,15549 38365,13521 10463,-1561 31317,1572 33421,14028 213,1255 10926,12868 -7530,4556 -12078,-5439 -6984,-4585 -21902,-4585 -12122,0 -17372,-3114 -27578,-6440 -24977,-8140 -10987,4800 -27464,8163 -14307,2917 -39989,-34261 12688,-29243zm-91287 19621c3814,3281 -2123,1541 4945,3003 5531,1147 4347,338 9015,-141l1913 -12043c2357,-14713 10397,-19800 19127,-27229 -5031,-11836 -7525,-13662 -16488,-15250 -5636,5941 -2735,996 -6257,9705 -19136,1582 -22251,1482 -18188,19629 -10391,3052 -5912,281 -11707,7663 2986,11036 6909,13253 17640,14663zm394441 -82622c31518,21783 8197,-341 28732,29173 14252,-1661 25795,-6941 27415,-21018 -6329,-5985 -2374,-4324 -13248,-5872l-601 -14701c-8095,-1419 -12422,-567 -16024,-1263 -13410,-2575 -16437,-19930 -26274,13681z"/>
   <path class="fil1" d="M1198265 726458l-9 -2967 530 -67869c-498,-10250 -9053,-17282 -17218,-13625 -11824,5290 -9036,25869 -9132,44604l-39 39857 25868 0z"/>
   <path class="fil2" d="M982663 1363870c996,1196 8465,1537 10538,1757l8346 195 3248 -2 6152 -240c1244,-1493 1747,-2021 2988,-3082l2897 -2769c1237,839 3267,2758 3957,3759 975,1416 343,1142 1693,2373 462,423 1469,1050 2004,1556 2270,2154 5405,6954 7072,8262 3210,2515 1236,724 3834,3833l9411 9969c74,79 177,186 253,262l1430 1440c-650,960 -635,781 -1291,1559 -73,87 -170,198 -241,281l-17180 15540c-2449,1159 -7452,5748 -10110,7718l-7616 6213c-1002,651 -1790,798 -2628,1414 -1075,790 -1147,1346 -2291,2325 -880,752 -1570,933 -2758,1838l-9980 7889c-1539,1412 -3565,2259 -4960,3692 -3953,4056 -1853,16 -6817,7001 -6146,8644 5599,22781 15777,19880 4042,-1156 8161,-4627 9952,-7954 2202,-4093 7754,-9226 9765,-12699l17601 -22715c3171,-3191 4337,-7352 7899,-10016 1894,-1417 2105,-2693 4049,-4633l8587 -8914c2979,2300 15259,15993 17054,18560 510,732 1313,2113 1826,2758 406,513 726,798 1231,1354 4157,4579 11142,15345 14362,18795 967,1039 1331,1103 2121,2483l13582 17583c2183,2655 3871,4398 7899,5392 6310,1563 9979,-2153 12722,-4664 3644,-3331 5273,-6945 3836,-12999 -1033,-4345 -4721,-6977 -8261,-9541 -1112,-801 -4179,-2976 -5226,-3968l-14840 -11711c-2356,-1847 -8689,-5832 -10282,-7599l-10035 -7839c-2667,-1315 -2726,-2627 -5003,-4170 -1329,-903 -1457,-788 -2473,-2152 -2824,-3788 -8985,-7275 -10567,-10701l12786 -14111c4773,-4432 8524,-9052 12796,-13756l3863 -3827c121,49 271,140 343,179 72,42 251,132 339,185l1874 1209c7028,4339 13363,6264 21476,3048 4225,-1676 11417,-5620 14479,-8994 1246,-1373 663,-902 2156,-1906 1098,-741 1062,-590 2065,-1525 752,-700 1010,-1111 1943,-2131l20264 -21095c2055,-3082 5313,-6557 6248,-9963 -2174,2200 -13070,8542 -18045,14001 -3937,4321 -8721,8504 -13883,12120 -2049,1436 -1723,1825 -3885,2815 -6244,2858 -13266,7337 -20703,4581l-6005 -3709c-818,-757 -1067,-863 -1670,-1400 -7179,-6404 -6121,-20609 53,-28340 965,-1209 1662,-2962 2573,-4072l8985 -10424c2703,-3312 6813,-6539 9234,-10153 897,-1339 1804,-2180 2786,-3333 1436,-1693 978,-2493 2483,-4169 1329,-1479 1849,-2064 2624,-3760l-17902 13509c-1516,1265 -2030,2600 -3603,4049 -2971,2745 -9245,8229 -11616,11364l-7188 8642 -5369 9952c-4187,14480 2081,18313 4648,23305 -531,1568 -6552,7033 -7946,8151l-6383 5825c-939,1045 -709,928 -1780,1825 -1711,1437 -2567,2589 -4109,4063l-6054 5674c-1694,1987 -4177,3465 -5955,5243l-4296 -3865c-1776,-1587 -886,-1885 -3773,-3866l-23647 -22474c5557,-5487 4824,-4202 4605,-12389 -156,-5812 -507,-11658 -696,-17491 -488,-15093 -1001,-9034 -6566,-15834 -3738,-4569 -10872,-10905 -15296,-15336 -477,-478 -618,-682 -1252,-1300l-4881 -4817c-2835,-2898 -4034,-5247 -8911,-5906 -2396,-325 -5375,81 -7411,1101l-11335 10596c-905,875 -1228,1655 -2044,2536l-8990 8917c-2385,2948 -11364,10551 -13308,13217 -7333,10057 1005,15240 3243,17781l4364 4302c1236,1220 695,1308 2002,2637 1419,1444 1346,655 2618,1927 1282,1284 589,1399 1872,2739 1128,1179 1058,528 2398,1695 359,313 783,809 1190,1356 1719,2313 -583,573 2115,2497 2860,2040 2722,3154 5531,5173 4221,3034 3793,6761 11019,6419zm-4820 -23338c986,1212 7827,7590 8330,9069 949,2798 -921,5004 -2562,5658 -3423,1361 -4707,-1148 -6273,-2485l-24357 -24159c-700,-578 -1444,-1125 -1765,-2437 -622,-2555 617,-4513 3296,-5411 3129,-1050 3908,483 5553,2274l17778 17491zm3780 -4819c-935,-973 -1363,-1099 -2219,-1834 -1182,-1011 -296,-164 -1228,-1339 -537,-680 -267,-433 -906,-1148 -783,-876 -1197,-1142 -2149,-1917l-12854 -13217c-1218,-2918 364,-4956 2317,-5855 4291,-1974 8308,4009 10599,6232l17332 17387c1608,1620 8585,7058 2176,10269 -2994,1499 -5173,-373 -6546,-1817 -861,-904 -1293,-1543 -2166,-2410 -1425,-1421 -1689,-1050 -2986,-2630l-1370 -1721zm23140 -1732c-4211,906 -6225,-2336 -7671,-4004l-2895 -2730c-696,-713 -1295,-1535 -2172,-2440l-6515 -6236c-717,-601 -1469,-1385 -2244,-2347 -1960,-2441 -9623,-8717 -10378,-11113 -838,-2660 560,-4949 2749,-5611 4144,-1253 6438,3258 10354,6337 1787,1406 1928,3003 4098,4571l6685 6604c3082,4230 9343,8108 10329,11128 829,2542 109,5313 -2340,5841zm-12485 -42609c3906,3796 25109,24466 25706,26462 677,2255 -563,5092 -2641,5769 -3725,1219 -7260,-3373 -10574,-6936l-2294 -2285c-905,-805 -1412,-1382 -2046,-2075l-15113 -15487c-1478,-1365 -1433,-332 -2027,-2221 -944,-3007 945,-5077 3041,-5799 2897,-995 4588,1250 5948,2572z"/>
  </g>
 </g>
</svg>
