<?xml version="1.0" encoding="UTF-8"?>
<!DOCTYPE svg PUBLIC "-//W3C//DTD SVG 1.1//EN" "http://www.w3.org/Graphics/SVG/1.1/DTD/svg11.dtd">
<!-- Creator: CorelDRAW X7 -->
<svg xmlns="http://www.w3.org/2000/svg" xml:space="preserve" width="100%" height="100%" version="1.1" style="shape-rendering:geometricPrecision; text-rendering:geometricPrecision; image-rendering:optimizeQuality; fill-rule:evenodd; clip-rule:evenodd"
viewBox="0 0 210 210"
 xmlns:xlink="http://www.w3.org/1999/xlink">
 <defs>
  <style type="text/css">
   <![CDATA[
    .fil0 {fill:#2B2A29}
   ]]>
  </style>
 </defs>
 <g id="Слой_x0020_1">
  <metadata id="CorelCorpID_0Corel-Layer"/>
  <path class="fil0" d="M83 109l8 8 0 12 -4 5 5 5 0 14 -8 7 -16 0 0 -27 6 -6 0 4 7 0 3 -4 0 -8 -2 -2 -2 -8 3 0zm127 -59l0 0 -6 0 -4 46 -1 0 -6 -41 -7 0 -6 41 -1 0 -3 -46 -10 0 0 6 6 0 0 1 -2 1 4 44 11 0 2 -12 2 -23 1 0 2 24 2 11 11 0 5 -52zm-129 87l-7 0 0 17 8 0 4 -4 0 -8 -5 -5zm-53 -67l39 10 11 38 -28 29 -39 -10 -11 -38 28 -29zm114 -20l10 0 8 7 0 37 -8 8 -10 0 -7 -8 0 -37 7 -7zm12 10l-4 -4 -5 0 -4 4 0 31 4 5 4 0 5 -5 0 -31zm-35 1l-4 -4 -7 0 0 21 7 0 4 -4 0 -13zm-2 -11l8 8 0 18 -5 6 9 20 -7 0 -8 -18 -6 0 0 18 -6 0 0 -43 3 -2 0 0 -7 0 0 -7 19 0zm24 66l0 -1 -7 0 0 -6 19 0 8 8 0 18 -6 6 9 19 -6 0 -8 -17 -6 0 0 17 -6 0 0 -43 3 -1zm9 -1l-6 0 0 22 6 0 5 -5 0 -13 -5 -4zm-35 0l-1 0 -4 26 9 0 -4 -26zm7 45l-2 -13 -11 0 -2 13 -6 0 6 -43 3 -1 0 -1 -5 0 0 -6 16 0 7 51 -6 0zm-38 -92l0 -7 -4 -4 -6 0 0 16 7 0 3 -5zm7 -10l0 13 -4 4 5 5 0 14 -8 8 -6 0 -2 -7 6 0 4 -4 0 -8 -5 -4 -7 0 0 10 -2 -9 -4 -1 0 -20 3 -2 0 0 -7 0 0 -7 19 0 8 8zm-38 49c1,-1 1,-1 2,-1 0,0 1,0 1,0 1,0 1,0 1,0 1,0 1,0 1,1 1,0 1,0 1,1 0,0 0,1 0,1l0 2 -1 0 -7 0c1,-1 1,-2 1,-3 1,0 1,-1 1,-1zm2 -2c-1,0 -1,0 -2,1 -1,0 -2,1 -2,1 -1,1 -1,2 -2,3 0,1 0,2 0,3 0,1 0,2 0,3 1,1 1,1 2,2 0,0 1,1 2,1 0,0 1,0 1,0 1,0 2,0 3,0 1,0 1,-1 2,-1l0 -2 0 0 0 1 -1 0 -1 1c-1,0 -1,0 -2,0l-1 0c-1,0 -1,-1 -2,-1 0,0 0,-1 -1,-1 0,-1 0,-1 0,-2l0 -2 10 0 0 -1 0 -1c0,-1 0,-2 0,-2 0,-1 -1,-2 -1,-2 -1,0 -1,-1 -2,-1 -1,0 -1,0 -2,0l-1 0zm-37 -5l-1 1 7 -1 -3 14 -1 5 2 0 1 -5 3 -14 5 1 1 -1 0 -1 -7 0 -7 0 0 1zm20 -3l-1 1 -1 -1 -5 22 3 0 1 -9c0,-1 1,-1 1,-2 1,0 1,-1 2,-1 0,0 0,0 1,-1l1 0c0,0 1,0 1,1 0,0 1,0 1,0 0,0 0,1 0,1 0,0 0,1 0,1l0 1 -2 9 3 0 2 -10 0 -1c0,0 0,0 -1,-1 0,0 0,0 0,-1 -1,0 -1,0 -1,-1 -1,0 -2,0 -2,0l-1 0 -2 0 -1 1c0,1 -1,1 -1,1l0 0 2 -10z"/>
 </g>
</svg>
