<?xml version="1.0" encoding="UTF-8"?>
<!DOCTYPE svg PUBLIC "-//W3C//DTD SVG 1.1//EN" "http://www.w3.org/Graphics/SVG/1.1/DTD/svg11.dtd">
<!-- Creator: CorelDRAW X7 -->
<svg xmlns="http://www.w3.org/2000/svg" xml:space="preserve" width="100%" height="100%" version="1.1" style="shape-rendering:geometricPrecision; text-rendering:geometricPrecision; image-rendering:optimizeQuality; fill-rule:evenodd; clip-rule:evenodd"
viewBox="0 0 2100000 2100000"
 xmlns:xlink="http://www.w3.org/1999/xlink">
 <defs>
  <style type="text/css">
   <![CDATA[
    .fil1 {fill:#B8282A;fill-rule:nonzero}
    .fil0 {fill:#0A8F3E;fill-rule:nonzero}
   ]]>
  </style>
 </defs>
 <g id="Слой_x0020_1">
  <metadata id="CorelCorpID_0Corel-Layer"/>
  <path class="fil0" d="M938816 1356336c-2588,-564 -5169,-1169 -7763,-1691 -20157,-4052 -26133,-16450 -23968,-35187 464,-4017 2772,-7828 4298,-11708 303,-774 848,-1468 1350,-2147 14014,-18960 6455,-34730 -8587,-46515 -13256,-10381 -29131,-15085 -45240,-18975 -18036,-4359 -36426,-6203 -54891,-6637 -27962,-655 -55957,-1360 -83907,-705 -22545,525 -45148,2170 -67535,4865 -31159,3752 -62248,8334 -93164,13724 -25328,4416 -50437,10181 -75497,15982 -31354,7257 -62754,14444 -93745,23065 -17269,4808 -33726,12521 -50598,18789 -3269,1219 -6739,2047 -10189,2575 -1188,180 -2598,-1084 -3910,-1690 790,-1028 1365,-2549 2407,-3010 10416,-4569 20710,-9545 31416,-13321 54167,-19086 109404,-34489 165737,-45615 30625,-6052 61523,-10810 92394,-15525 21725,-3324 43564,-6069 65437,-8207 21625,-2116 43334,-3757 65039,-4486 21862,-739 43822,-1024 65642,200 19504,1092 38932,4125 58283,7023 18091,2706 35947,6716 52934,13823 9920,4151 18661,9784 24836,18938 5501,8157 6690,16510 2351,25520 -2627,5455 -5372,10878 -7518,16521 -1522,4010 -2779,8331 -3013,12578 -464,8476 3580,13138 11872,14759 10039,1970 19980,525 29832,-1349 34160,-6502 66676,-18336 98728,-31408 38042,-15514 75653,-32110 113816,-47313 39794,-15855 80824,-27907 123127,-35031 29806,-5018 59906,-8885 90140,-6562 26667,2051 53197,5988 79729,9533 31212,4168 62424,8101 94012,6820 23300,-946 46312,-4178 68988,-9560 13812,-3274 27470,-7199 41245,-10646 3239,-813 4423,-2691 5041,-5708 10200,-49992 27777,-96914 59456,-137507 11612,-14877 25018,-28352 37439,-42613 3963,-4554 7793,-9327 10940,-14456 3217,-5244 928,-9254 -5309,-9231 -10569,46 -21135,713 -31696,1239 -13562,675 -27090,1023 -40282,-3029 -6259,-1924 -11990,-4811 -16358,-9040 6024,771 12513,2845 18685,2143 13939,-1586 27701,-4654 41570,-6908 10815,-1756 21644,-4132 32535,-4557 17167,-672 22656,9304 21533,24595 -150,2070 -2035,4217 -3558,5938 -17492,19785 -35467,39152 -52545,59285 -31078,36640 -51802,78663 -63123,125336 -781,3231 -1483,6478 -2364,10335 17200,-6035 33171,-13050 46864,-24132 15437,-12505 28432,-27432 39661,-43790 6383,-9296 9833,-19907 11592,-31028 188,-1189 23,-2434 23,-4160 -30794,16788 -56851,37944 -74568,68378 -583,-372 -1170,-739 -1752,-1115 2933,-6985 5367,-14237 8890,-20916 11741,-22264 30288,-37553 52058,-49306 16676,-9005 34394,-15138 53316,-19271 -3132,12474 -7950,23775 -13839,34635 -16656,30726 -40420,54770 -69470,73865 -16427,10795 -33692,19971 -52017,27090 -2549,989 -3906,2439 -4266,5038 -3450,24814 -7238,49589 -10250,74461 -2170,17910 -3305,35943 -5149,53902 -836,-43073 1479,-85957 8786,-128946 -8357,2312 -16039,4987 -23948,6520 -18638,3620 -37392,6652 -56088,10002 -36532,6544 -73437,5367 -110257,4884 -26394,-348 -52776,-1963 -79166,-3010 -22150,-881 -44346,-3059 -66439,-2280 -22325,790 -44621,3964 -66797,7065 -30833,4309 -60914,12110 -90532,21690 -29142,9426 -57004,21927 -84643,34984 -34249,16178 -68355,32685 -102887,48233 -16158,7272 -33378,11857 -51254,13203 -636,45 -1245,494 -1870,755l-22050 0z"/>
  <path class="fil1" d="M1889997 796019c12079,-20332 17290,-25185 46052,-42686 -29153,6908 -47611,24692 -46052,42686zm-1464059 107368c-12754,35 -22848,13035 -20191,26038 2020,9916 10519,14697 20083,11369 8787,-3047 15127,-12435 15089,-22318 -69,-9174 -5912,-15089 -14981,-15089zm1528316 -46864c-2196,-9565 -3469,-19413 -4355,-29187 -919,-10489 -605,-21042 5241,-31635 -8077,6590 -13035,14525 -12857,23204 214,9066 1701,18132 2940,27134 1276,9134 4603,18243 -142,27236 -3224,6130 -6238,12364 -10025,18103 -9883,14950 -22246,27739 -35846,39284 -19770,16791 -40598,31846 -66493,38470 4677,-606 9424,-852 13958,-1879 19022,-4389 35529,-14096 51150,-25362 20229,-14559 38224,-31347 50442,-53416 5493,-9921 8682,-20194 5987,-31952zm13003 -112256c-6310,-993 -12930,-567 -19378,-68 -4961,349 -6379,3929 -3752,8111 988,1557 2123,3078 3503,4247 4818,4110 9638,8220 14736,12011 5382,3967 11051,7578 17289,11796 -2377,387 -3864,670 -5352,851 -10238,1204 -20470,2088 -30675,3542 -20260,2867 -39922,8038 -58557,16790 -30745,14414 -50724,37653 -58552,70985 -6233,26462 -5168,53209 -3435,79985 284,-2055 211,-4143 284,-6198 602,-18776 2622,-37369 7686,-55543 9955,-35741 29721,-64188 62344,-82888 23380,-13425 48918,-19731 75520,-22353 8042,-813 16119,-1384 25047,-2162 -3009,-1699 -5385,-2868 -7548,-4359 -8997,-6019 -18029,-12041 -26776,-18382 -1561,-1096 -3048,-4075 -2622,-5666 425,-1490 3365,-3262 5205,-3262 10699,-176 21398,-211 32059,357 8499,459 16967,1806 25436,2764 68,-356 138,-744 211,-1135 -17570,-3190 -35069,-6663 -52673,-9423zm-1547732 380795c-10094,8004 -19624,15729 -29435,23097 -1805,1346 -6022,2303 -7084,1272 -1844,-1697 -2978,-5240 -2729,-7827 675,-6694 1840,-13426 3611,-19903 7936,-29158 16223,-58205 24232,-87354 2760,-10029 5386,-20087 7402,-30289 1203,-6129 -2338,-10664 -8503,-11408 -4354,-529 -9066,-563 -13317,498 -24903,6161 -42329,23132 -59331,41268 3294,2583 6268,4922 9243,7265 5669,-5317 10910,-10700 16721,-15415 4179,-3431 8851,-6445 13778,-8710 4359,-2020 7192,740 6375,5490 -460,2764 -1170,5489 -1910,8180 -8717,31562 -17748,63053 -25968,94721 -2725,10558 -3967,21610 -4677,32520 -670,10626 7653,17676 17961,16189 3688,-568 7372,-1772 10875,-3190 13072,-5279 23380,-14593 33831,-23664 5597,-4853 10945,-9989 15798,-14413 -2730,-3297 -5029,-6061 -6873,-8327zm1031298 -124477c-7683,-5735 -16684,-7226 -25927,-7647 -15973,-713 -30817,2617 -43394,13175 -15055,12647 -21641,28552 -17712,48141 2800,13992 10772,25186 19800,35812 6947,8182 14174,16189 20264,24971 9247,13284 5348,30604 -8077,39781 -8468,5776 -17956,6942 -27877,6551 -9211,-387 -19519,-7402 -17886,-18631 421,-2902 317,-5949 103,-8889 -142,-1741 -705,-3616 -1629,-5069 -3401,-5385 -9883,-7758 -16258,-6267 -5950,1414 -10983,6977 -11761,13069 -1840,14490 6413,27983 21007,34079 8855,3719 18206,4673 26958,4393 25361,0 42010,-6946 56355,-23449 7652,-8821 11692,-19060 11868,-30891 173,-11653 -3546,-22103 -10200,-31174 -7510,-10200 -16154,-19554 -24335,-29222 -6275,-7367 -11868,-15020 -13605,-24902 -1844,-10377 2836,-20582 11937,-25397 8537,-4462 16614,-2763 24692,5558 3718,3826 6796,8327 10553,12119 7544,7613 20652,4143 23841,-6097 2128,-6730 -1277,-14451 -8717,-20014zm-833496 4785c-957,-8043 -5879,-14525 -11726,-15373 -10591,-1526 -18136,7330 -14912,17956 1488,4961 4355,9496 5881,14418 1521,5030 3044,10342 3009,15514 -69,13286 -5382,25186 -11336,36771 -10519,20651 -25362,37936 -42471,53346 -9530,8572 -19481,16684 -29897,25578 -602,-1917 -993,-2695 -1131,-3474 -1913,-11086 -4110,-22138 -5704,-33293 -1914,-13321 -1947,-26677 249,-40033 3116,-19233 10910,-36591 20402,-53348 3259,-5772 6198,-11721 13248,-13919 994,-318 1840,-1276 2691,-2054 3083,-2902 3899,-6660 2124,-9917 -1947,-3616 -6126,-5704 -9986,-4535 -4178,1203 -8185,2939 -12328,4320 -1557,533 -3224,1062 -4854,1135 -8326,352 -16649,317 -24971,954 -14986,1100 -29687,3792 -43039,11091 -12681,6942 -19378,17745 -19128,32408 103,5424 1840,10308 6447,13639 3646,2656 8855,2764 12363,426 3753,-2515 4854,-5988 3435,-11229 -533,-2020 -1242,-4040 -2020,-5987 -3719,-9457 -2090,-14238 6835,-19165 2587,-1413 5317,-2871 8150,-3473 9173,-1909 18454,-3718 27735,-5029 5704,-812 11546,-636 18243,-958 -2127,1917 -3330,3086 -4642,4186 -28586,24688 -39991,55931 -34747,93088 2477,17569 6023,34962 9174,52392 1238,7046 2691,14028 4037,21112 923,-181 1487,-181 1986,-391 919,-354 1767,-848 2653,-1311 29440,-14522 55366,-33685 77363,-58093 14456,-15974 27245,-33121 35957,-52990 8925,-20333 13567,-41413 10910,-63762zm639383 129364c-5881,9457 -12895,17956 -23771,21996 -11619,4356 -22212,710 -29153,-9598 -5701,-8503 -8573,-18102 -9562,-28092 -2303,-22529 -713,-44810 6797,-66311 5249,-15020 13391,-28445 26570,-37868 15338,-11051 31741,-6198 39603,11017 5916,12927 6234,26747 6767,39355 -322,25324 -4324,48567 -17251,69501zm49981 -104041c-5102,-18772 -15978,-32872 -36062,-36732 -13776,-2691 -27489,-211 -40523,5068 -21434,8640 -36663,24370 -48850,43357 -17853,27877 -26140,58306 -21713,91321 2515,18880 13072,32588 31634,38718 13566,4458 27275,3116 40627,-1561 17960,-6236 32060,-17994 44564,-31913 21287,-23806 33332,-51257 34007,-83704 -1169,-8223 -1556,-16615 -3684,-24554zm-568858 15093c-5029,18136 -9492,36414 -15372,54266 -5876,17926 -16894,32520 -33758,41766 -4677,2584 -10204,4286 -15479,4888 -8323,920 -14594,-4178 -16825,-12293 -2695,-9708 -2127,-19590 -744,-29365 3186,-22848 11474,-43783 24795,-62559 13567,-19125 32485,-25466 55152,-22242 2622,352 5244,813 8679,1346 -2265,8498 -4285,16365 -6448,24193zm49736 78889c-9956,6943 -19447,13705 -29153,20191 -3009,1982 -7334,4213 -10094,1165 -1917,-2123 -2236,-6624 -1737,-9809 1982,-12471 4002,-25044 7119,-37266 7793,-30607 16154,-61071 24369,-91605 1806,-6728 3934,-13352 6130,-20900 -1629,426 -2161,572 -2691,675 -6345,1062 -12931,1594 -15587,9139 -210,675 -2089,1134 -3189,1134 -5773,-106 -11547,-708 -17320,-532 -17745,532 -34820,4217 -49486,14771 -41517,29862 -67197,69535 -72902,121003 -1169,10451 920,20762 6341,30113 3615,6198 8679,10200 15870,11545 7829,1418 15162,-352 22173,-3400 12049,-5206 22530,-12822 32378,-21325 6874,-5985 13322,-12433 20509,-19198 -916,3224 -1699,5881 -2442,8575 -2196,8111 -4784,16185 -6413,24438 -1453,7192 2480,11693 9779,11301 5665,-318 11546,-1169 16859,-3008 22284,-7691 38470,-24091 55543,-39712 -2303,-2764 -4496,-5416 -6056,-7295zm769207 -15058c-5670,13567 -15660,24124 -28410,31599 -3933,2301 -8430,3969 -12858,5030 -10910,2622 -19201,-3082 -21218,-14242 -2020,-11545 -1277,-23096 1062,-34466 4355,-21395 12646,-41160 26213,-58446 9673,-12328 22668,-18879 38290,-19450 7372,-245 14808,709 23100,1207l-26179 88768zm68650 14169c-2550,2234 -4500,4324 -6805,5953 -7827,5490 -15475,11336 -23802,16008 -6942,3899 -11124,710 -9952,-7191 1875,-12363 3646,-24794 6694,-36908 7789,-30960 16185,-61743 24442,-92560 1982,-7368 4321,-14663 6659,-22564 -1703,387 -2622,710 -3542,816 -6095,775 -12010,1733 -14526,8676 -279,748 -2020,1418 -3081,1383 -6057,-72 -12149,-781 -18171,-497 -15337,708 -30181,3473 -43675,11477 -13003,7721 -24442,17216 -34397,28552 -23343,26532 -39497,56532 -43572,92133 -1415,12432 141,24516 7230,35318 3259,5064 7755,8323 13777,9672 7192,1663 14100,494 20651,-2196 18455,-7618 33620,-20016 47647,-33904 2476,-2477 4815,-5132 7578,-8038 0,992 39,1276 -34,1526 -2905,10270 -6096,20470 -8679,30851 -1879,7579 2304,12892 10025,12397 6233,-425 12643,-1525 18454,-3683 14349,-5279 26531,-14204 37725,-24512 5244,-4818 10592,-9565 16013,-14491 -2377,-2940 -4428,-5416 -6659,-8218zm-1257547 -229786c-781,-4428 -2763,-8895 -5171,-12754 -4003,-6411 -12148,-8358 -18634,-5207 -6659,3187 -9457,9634 -7437,17359 567,2299 1311,4604 2123,6835 3048,8077 5244,16330 4927,25078 -499,15303 -6376,28767 -14101,41516 -15939,26249 -36662,48671 -57563,70882 -21961,23311 -44349,46262 -66557,69397 -6198,6479 -12363,13034 -19163,20222 -567,-4247 -1311,-7544 -1419,-10838 -781,-23238 -1805,-46511 -1981,-69784 -142,-17355 1770,-34609 5807,-51538 5382,-22705 16756,-42616 28905,-62170 3150,-5096 6482,-10094 10059,-15692 -5451,529 -10201,925 -14913,1454 -17499,1951 -35172,3012 -52460,6164 -29580,5382 -55257,18420 -73607,43253 -11796,15974 -18562,33508 -15411,53734 1169,7651 3791,14839 10769,19306 4075,2622 8536,2940 12754,107 3718,-2519 5385,-7158 3791,-12041 -1419,-4397 -3439,-8611 -5459,-12759 -3079,-6340 -4923,-12749 -3681,-19976 2443,-14167 9810,-25469 20579,-34466 17887,-14985 38718,-23875 61600,-27985 4819,-885 9814,-851 15621,-1310 -4143,6163 -7613,11124 -10910,16188 -14559,22242 -23556,46512 -24442,73185 -529,15763 38,31595 1027,47359 1844,30147 4325,60255 6591,90363 424,5566 1026,11090 1628,17431 1027,-1135 1488,-1629 1913,-2093 24938,-26957 49736,-54018 74884,-80730 20793,-22104 42260,-43602 63018,-65740 19057,-20303 37120,-41444 51576,-65391 12930,-21326 19765,-44209 15337,-69359zm838391 291033c-6203,-2089 -12686,602 -15557,6728 -1380,3048 -2441,6272 -3435,9496 -3219,10449 -9495,17284 -20861,18914 -8327,1170 -15940,-529 -23308,-4179 -11125,-5489 -18987,-14524 -25788,-24510 -14100,-20651 -23380,-43645 -31883,-66987 -7510,-20616 -15161,-41160 -22916,-61634 -1702,-4463 -4113,-8645 -6306,-13215 2055,-495 3649,-920 5278,-1238 25719,-5206 48034,-16119 64008,-37798 10166,-13743 14915,-29081 12431,-46117 -2583,-17534 -13638,-28590 -29080,-35851 -24619,-11580 -50725,-12681 -77041,-9637 -26889,3155 -51614,12754 -73929,28130 -32451,22387 -51012,52707 -52143,92770 -464,15691 2442,30572 11051,43963 3508,5455 7756,10094 14101,12286 6551,2304 12324,851 15479,-3895 3224,-4853 2442,-10588 -2481,-15725 -2690,-2871 -5738,-5420 -8679,-8077 -9920,-9031 -15302,-20118 -14950,-33651 602,-22387 9105,-41623 23806,-58203 13566,-15299 30465,-25926 49164,-33684 23380,-9635 47539,-13993 72726,-8963 26247,5205 41125,28199 35317,54305 -5777,25822 -27064,45622 -53523,48953 -8291,1062 -16825,1062 -25224,-1982 7225,-28198 14383,-56110 21394,-83493 -14061,2090 -27769,4393 -41550,6057 -8749,1027 -8817,602 -10837,9139 -70,391 106,817 176,1488 1380,103 2798,176 4178,283 6521,460 9035,3719 7798,10132 -534,2764 -959,5558 -1634,8288 -9243,37407 -18312,74849 -27839,112148 -3296,12931 -7264,25681 -11726,38220 -2764,7759 -8322,13854 -16331,16864 -6693,2515 -13567,4535 -20332,6942 -1132,391 -2550,1346 -2903,2373 -1031,2975 -1598,6130 -2376,9457 993,0 1522,35 2093,-35 812,-103 1663,-244 2476,-425 18385,-3864 36840,-4711 55543,-2514 14418,1664 28943,2906 43323,-534 1594,-352 3719,-1310 4251,-2583 1062,-2446 1169,-5313 1664,-8039 -6801,847 -13034,1982 -19341,2227 -6271,288 -12538,-387 -19090,-671 246,-1345 318,-1878 460,-2411 8748,-34781 17534,-69532 26175,-104317 783,-3154 1629,-4994 5420,-4710 3578,244 6556,-250 7867,4637 3577,13287 7790,26390 11792,39566 7724,25189 15798,50234 29084,73220 11159,19378 24051,37372 42471,50479 21855,15514 45979,20758 71733,11864 13708,-4745 24158,-13988 27558,-29115 1453,-6340 -2055,-12784 -7754,-14736z"/>
  <path class="fil1" d="M2029491 813544c-1268,6432 -2299,12918 -3845,19281 -6459,26628 -19275,50146 -36154,71453 -24841,31346 -54883,56314 -91628,72694 -13294,5923 -27109,10170 -41730,11355 -637,54 -1250,387 -1338,414 2810,3116 5761,6126 8414,9384 5015,6160 5888,13383 5570,21112 -456,10960 -1338,22057 -176,32894 1066,9918 4604,19566 6946,28913 -5712,-6502 -10101,-14571 -12133,-23599 -1778,-7927 -2388,-16120 -3512,-24197 -927,-6682 -1280,-13509 -2913,-20015 -2384,-9503 -8875,-16162 -17163,-21122 -1325,-798 -2625,-1637 -3929,-2465 -80,-50 -84,-215 -214,-599 9760,-4205 19581,-8341 29322,-12654 31929,-14134 62700,-30326 90194,-52093 29146,-23073 52035,-50763 62716,-87142 5819,-19823 7782,-40052 5889,-60642 -369,-4040 -610,-8092 -910,-12141 349,-73 702,-146 1051,-214 1545,7364 3086,14728 4647,22088 253,1192 594,2366 896,3546l0 23749z"/>
  <path class="fil1" d="M1056210 1049654c2208,4582 4612,8749 6295,13191 7767,20506 15430,41053 22940,61655 8515,23338 17772,46312 31864,66971 6819,9994 14675,19025 25799,24527 7349,3637 15000,5339 23308,4163 11354,-1615 17634,-8461 20866,-18907 992,-3217 2039,-6456 3450,-9504 2840,-6130 9337,-8817 15537,-6700 5693,1939 9192,8364 7755,14724 -3409,15123 -13843,24357 -27559,29107 -25746,8917 -49878,3638 -71713,-11876 -18431,-13088 -31343,-31101 -42506,-50456 -13264,-22986 -21333,-48038 -29054,-73223 -4032,-13165 -8226,-26294 -11806,-39585 -1315,-4868 -4302,-4381 -7871,-4639 -3772,-268 -4623,1584 -5402,4723 -8655,34789 -17454,69547 -26209,104317 -130,526 -191,1073 -429,2431 6532,268 12827,923 19083,670 6290,-253 12543,-1410 19336,-2234 -495,2713 -602,5581 -1652,8042 -534,1258 -2672,2204 -4255,2580 -14388,3427 -28913,2201 -43338,514 -18696,-2190 -37162,-1322 -55539,2526 -821,172 -1652,333 -2489,433 -536,65 -1088,12 -2088,12 797,-3327 1345,-6468 2373,-9446 352,-1020 1774,-1970 2913,-2373 6755,-2388 13639,-4412 20340,-6935 8012,-3016 13567,-9105 16335,-16851 4474,-12544 8429,-25317 11723,-38220 9518,-37327 18608,-74764 27831,-112164 674,-2734 1115,-5517 1640,-8284 1227,-6433 -1268,-9668 -7801,-10140 -1391,-100 -2783,-191 -4178,-284 -85,-652 -264,-1092 -173,-1472 2029,-8549 2085,-8115 10834,-9166 13793,-1652 27505,-3963 41562,-6041 -7015,27379 -14164,55286 -21395,83504 8392,3048 16926,3029 25198,1982 26478,-3347 47754,-23130 53527,-48969 5827,-26094 -9063,-49095 -35310,-54312 -25198,-5010 -49333,-675 -72703,8986 -18726,7739 -35620,18370 -49175,33658 -14706,16579 -23200,35831 -23806,58211 -368,13552 5025,24626 14951,33654 2921,2661 5960,5213 8682,8073 4911,5152 5696,10868 2469,15729 -3147,4734 -8913,6202 -15491,3911 -6337,-2209 -10572,-6855 -14072,-12287 -8642,-13402 -11524,-28287 -11076,-43982 1147,-40044 19720,-70359 52166,-92747 22304,-15391 47033,-25006 73898,-28126 26329,-3060 52439,-1978 77069,9614 15445,7269 26501,18329 29057,35866 2481,17029 -2238,32351 -12405,46117 -16004,21656 -38303,32593 -64019,37775 -1625,326 -3232,767 -5287,1257z"/>
  <path class="fil1" d="M161138 1177327c-594,-6356 -1199,-11895 -1613,-17450 -2266,-30120 -4742,-60231 -6606,-90374 -969,-15749 -1552,-31592 -1027,-47352 886,-26673 9902,-50927 24447,-73184 3304,-5060 6762,-10024 10928,-16178 -5830,461 -10814,434 -15633,1300 -22878,4106 -43724,12996 -61615,27977 -10749,9000 -18109,20306 -20551,34498 -1242,7210 590,13615 3676,19960 2024,4156 4033,8372 5463,12755 1591,4871 -85,9545 -3814,12047 -4213,2833 -8652,2496 -12739,-106 -6981,-4455 -9595,-11643 -10784,-19310 -3128,-20225 3646,-37771 15414,-53719 18359,-24864 44028,-37889 73631,-43279 17288,-3147 34961,-4190 52465,-6150 4710,-524 9434,-923 14912,-1452 -3608,5597 -6928,10600 -10090,15694 -12133,19547 -23503,39462 -28897,62145 -4029,16952 -5942,34213 -5800,51567 191,23267 1211,46527 1986,69782 110,3300 835,6574 1407,10833 6815,-7192 12965,-13743 19178,-20222 22193,-23131 44580,-46078 66558,-69409 20907,-22196 41620,-44621 57548,-70865 7736,-12758 13608,-26236 14115,-41514 291,-8762 -1882,-17000 -4923,-25101 -839,-2231 -1556,-4520 -2154,-6828 -1997,-7704 801,-14152 7463,-17365 6476,-3124 14614,-1188 18631,5233 2401,3837 4374,8307 5156,12734 4436,25156 -2407,48030 -15314,69371 -14464,23921 -32524,45101 -51580,65395 -20774,22128 -42237,43614 -63038,65718 -25151,26723 -49923,53802 -74856,80725 -445,484 -890,971 -1944,2124z"/>
  <path class="fil1" d="M1556774 1109618c-5666,13566 -15655,24124 -28406,31599 -3933,2301 -8434,3964 -12861,5026 -10911,2622 -19199,-3079 -21219,-14237 -2020,-11547 -1276,-23097 1066,-34467 4355,-21395 12643,-41160 26209,-58446 9672,-12328 22672,-18884 38293,-19451 7368,-245 14809,710 23097,1204l-26179 88772zm68651 14168c-2550,2232 -4501,4325 -6802,5950 -7827,5494 -15479,11340 -23805,16013 -6940,3898 -11121,709 -9952,-7192 1878,-12363 3646,-24795 6693,-36909 7793,-30959 16189,-61742 24442,-92560 1986,-7367 4325,-14666 6663,-22563 -1702,387 -2622,709 -3542,813 -6095,778 -12011,1736 -14525,8679 -284,743 -2020,1418 -3086,1380 -6053,-69 -12148,-779 -18170,-495 -15335,709 -30182,3474 -43675,11478 -13000,7721 -24444,17216 -34395,28551 -23346,26532 -39496,56533 -43571,92134 -1415,12433 142,24515 7227,35319 3257,5063 7758,8321 13776,9671 7192,1660 14101,494 20655,-2201 18455,-7613 33616,-20014 47643,-33899 2480,-2480 4819,-5133 7582,-8039 0,993 35,1277 -38,1526 -2905,10270 -6092,20471 -8675,30848 -1878,7582 2300,12896 10021,12397 6237,-421 12646,-1521 18454,-3679 14348,-5279 26535,-14207 37726,-24512 5247,-4819 10591,-9568 16012,-14490 -2373,-2941 -4428,-5417 -6658,-8220z"/>
  <path class="fil1" d="M737833 1045787c-5029,18136 -9492,36414 -15372,54267 -5876,17925 -16894,32519 -33758,41765 -4677,2584 -10204,4283 -15479,4888 -8323,920 -14594,-4178 -16825,-12294 -2695,-9706 -2127,-19590 -744,-29364 3186,-22848 11474,-43783 24795,-62559 13567,-19125 32485,-25466 55152,-22242 2622,353 5244,812 8679,1341 -2265,8503 -4285,16370 -6448,24198zm49736 78885c-9956,6942 -19447,13709 -29153,20191 -3009,1985 -7334,4217 -10094,1169 -1917,-2123 -2236,-6624 -1737,-9810 1982,-12470 4002,-25044 7119,-37265 7793,-30607 16154,-61071 24369,-91605 1806,-6727 3934,-13356 6130,-20900 -1629,425 -2161,568 -2691,675 -6345,1062 -12931,1594 -15587,9139 -210,675 -2089,1131 -3189,1131 -5773,-104 -11547,-706 -17320,-529 -17745,529 -34820,4213 -49486,14770 -41517,29863 -67197,69536 -72902,121004 -1169,10450 920,20762 6341,30112 3615,6199 8679,10201 15870,11546 7829,1418 15162,-353 22173,-3400 12049,-5210 22530,-12823 32378,-21325 6874,-5985 13322,-12433 20509,-19198 -916,3223 -1699,5880 -2442,8571 -2196,8111 -4784,16189 -6413,24442 -1453,7192 2480,11688 9779,11297 5665,-318 11546,-1165 16859,-3009 22281,-7686 38470,-24085 55543,-39707 -2303,-2764 -4496,-5420 -6056,-7299z"/>
  <path class="fil1" d="M1256709 1134733c-5881,9457 -12896,17959 -23768,21999 -11619,4356 -22211,707 -29153,-9602 -5705,-8499 -8576,-18102 -9565,-28088 -2303,-22529 -709,-44813 6801,-66311 5244,-15020 13390,-28449 26566,-37868 15341,-11051 31741,-6202 39603,11014 5915,12930 6233,26746 6767,39355 -319,25327 -4325,48566 -17251,69501zm49981 -104037c-5099,-18772 -15974,-32872 -36062,-36733 -13778,-2695 -27486,-210 -40523,5064 -21429,8644 -36664,24374 -48847,43361 -17852,27873 -26145,58303 -21716,91317 2518,18880 13072,32589 31633,38719 13567,4462 27275,3116 40631,-1561 17961,-6233 32060,-17995 44561,-31914 21291,-23805 33336,-51257 34007,-83704 -1170,-8218 -1556,-16614 -3684,-24549z"/>
  <path class="fil1" d="M515878 1153568c10424,-8878 20384,-16978 29909,-25557 17102,-15399 31918,-32704 42476,-53347 5926,-11596 11236,-23511 11308,-36782 31,-5172 -1480,-10474 -3017,-15495 -1506,-4945 -4374,-9477 -5865,-14430 -3209,-10634 4324,-19474 14924,-17959 5842,836 10757,7325 11719,15372 2660,22342 -2005,43434 -10925,63774 -8710,19865 -21506,36985 -35932,52990 -22004,24403 -47941,43571 -77363,58096 -881,437 -1744,928 -2653,1300 -502,206 -1085,214 -2001,379 -1361,-7065 -2779,-14061 -4045,-21092 -3132,-17454 -6705,-34850 -9173,-52399 -5228,-37170 6172,-68416 34769,-93092 1281,-1108 2508,-2270 4624,-4187 -6701,315 -12536,138 -18229,948 -9307,1318 -18558,3131 -27765,5059 -2829,591 -5552,2044 -8124,3458 -8916,4903 -10556,9714 -6846,19164 774,1963 1472,3960 2028,5992 1415,5225 307,8697 -3439,11212 -3504,2354 -8702,2235 -12355,-414 -4623,-3346 -6364,-8215 -6455,-13631 -238,-14656 6432,-25493 19136,-32428 13360,-7291 28054,-9986 43035,-11094 8303,-617 16653,-575 24971,-951 1637,-72 3293,-586 4865,-1119 4121,-1403 8142,-3113 12313,-4343 3864,-1147 8039,951 9982,4546 1764,3263 981,7031 -2135,9937 -824,766 -1679,1709 -2691,2031 -7020,2205 -9979,8169 -13238,13915 -9498,16757 -17276,34127 -20412,53348 -2178,13374 -2131,26723 -231,40044 1588,11140 3769,22199 5716,33286 142,805 499,1564 1119,3469z"/>
  <path class="fil1" d="M1368422 1174062c-8722,266 -18076,-670 -26954,-4393 -14575,-6103 -22851,-19608 -20988,-34083 785,-6092 5788,-11662 11738,-13065 6395,-1506 12877,875 16261,6253 924,1468 1484,3342 1626,5079 238,2945 341,5976 -85,8882 -1651,11224 8676,18259 17883,18620 9914,390 19410,-775 27867,-6541 13432,-9161 17326,-26507 8080,-39787 -6103,-8771 -13314,-16790 -20252,-24948 -9043,-10631 -17020,-21832 -19815,-35824 -3907,-19601 2668,-35502 17730,-48153 12563,-10553 27402,-13881 43387,-13163 9246,414 18224,1916 25929,7655 7430,5536 10819,13287 8718,20007 -3205,10254 -16300,13697 -23848,6084 -3764,-3792 -6839,-8262 -10561,-12107 -8062,-8333 -16158,-10039 -24669,-5550 -9105,4803 -13789,15019 -11960,25396 1740,9871 7344,17516 13597,24888 8204,9663 16821,19040 24331,29222 6685,9063 10411,19524 10225,31181 -193,11827 -4221,22066 -11866,30876 -14348,16533 -30989,23471 -56374,23471z"/>
  <path class="fil1" d="M343616 1041662c-2982,-2334 -5960,-4668 -9261,-7252 17009,-18141 34460,-35111 59346,-41268 4244,-1050 8959,-1027 13332,-490 6142,743 9680,5290 8476,11404 -2000,10190 -4638,20275 -7390,30296 -8004,29134 -16300,58193 -24243,87350 -1764,6489 -2914,13214 -3588,19903 -264,2592 893,6115 2710,7824 1078,1016 5271,77 7088,-1283 9814,-7339 19325,-15082 29422,-23067 1863,2246 4171,5029 6889,8308 -4853,4439 -10213,9568 -15809,14425 -10435,9066 -20743,18385 -33811,23657 -3497,1410 -7181,2633 -10895,3174 -10285,1509 -18631,-5544 -17945,-16178 705,-10906 1955,-21966 4689,-32512 8200,-31687 17250,-63160 25940,-94717 748,-2707 1450,-5440 1925,-8200 817,-4742 -2032,-7503 -6387,-5490 -4902,2270 -9587,5302 -13785,8721 -5784,4712 -11021,10102 -16703,15395z"/>
  <path class="fil1" d="M425952 903395c9036,-20 14912,5911 14955,15096 42,9886 -6276,19244 -15058,22307 -9588,3339 -18071,-1457 -20103,-11367 -2668,-13010 7422,-26009 20206,-26036z"/>
  <path class="fil1" d="M2019727 754833c-8480,-954 -16936,-2312 -25443,-2765 -10665,-567 -21368,-552 -32052,-375 -1859,26 -4799,1772 -5217,3285 -436,1572 1058,4543 2611,5663 8774,6344 17799,12348 26792,18393 2173,1460 4547,2633 7551,4354 -8931,759 -16997,1342 -25043,2135 -26604,2627 -52143,8944 -75539,22373 -32600,18707 -52376,47129 -62332,82884 -5061,18162 -7089,36755 -7686,55539 -65,2067 -8,4137 -276,6191 -1752,-26784 -2795,-53530 3419,-79978 7824,-33336 27805,-56578 58548,-70993 18635,-8728 38297,-13899 58580,-16779 10182,-1441 20437,-2357 30657,-3533 1506,-173 2998,-487 5339,-878 -6202,-4210 -11883,-7798 -17270,-11789 -5090,-3771 -9920,-7896 -14750,-12002 -1373,-1166 -2508,-2699 -3474,-4240 -2633,-4198 -1211,-7770 3750,-8134 6429,-472 13048,-909 19359,76 17619,2752 35114,6245 52660,9446 -61,376 -123,751 -184,1127z"/>
  <path class="fil1" d="M1832728 969130c25880,-6628 46695,-21678 66469,-38450 13612,-11554 25983,-24358 35866,-39305 3791,-5726 6792,-11983 10001,-18082 4753,-9024 1429,-18121 172,-27241 -1250,-9016 -2760,-18074 -2940,-27140 -176,-8672 4777,-16626 12846,-23224 -5846,10611 -6180,21146 -5240,31638 877,9798 2151,19642 4354,29207 2703,11746 -509,22020 -5987,31926 -12225,22099 -30228,38875 -50434,53434 -15621,11251 -32128,20954 -51158,25351 -4554,1047 -9296,1276 -13949,1886z"/>
  <path class="fil1" d="M1936051 753317c-28778,17511 -33983,22364 -46070,42689 -1557,-17997 16920,-35746 46070,-42689z"/>
  <path class="fil1" d="M754620 855821l0 367 184 185 -553 919c-1352,6993 -2825,12513 -4416,16561 -1721,4416 -3403,7848 -5059,10305 -1656,2454 -3221,4110 -4692,4968 -1473,858 -2760,1472 -3864,1840 -1596,859 -6138,-122 -13617,-2944 -2331,-858 -4233,-1533 -5704,-2024 -1473,-491 -3312,-307 -5520,552 -2209,614 -4080,1866 -5613,3772 -1538,1902 -2886,3742 -4048,5521 -1166,1774 -2208,3159 -3128,4140 -921,981 -1814,858 -2668,-369 0,-858 613,-2330 1840,-4416 1222,-2085 2695,-4263 4416,-6532 1717,-2270 3588,-4416 5612,-6440 2024,-2025 3891,-3470 5612,-4324 1714,-614 3922,-705 6624,-276 2695,429 5640,1130 8833,2116 3186,1472 6072,1748 8648,828 2577,-921 4815,-2638 6717,-5152 1900,-2515 3526,-5490 4876,-8925 491,-1472 978,-2944 1472,-4416 -368,368 -802,858 -1289,1472 -4783,5034 -9449,7544 -13984,7544 -1840,0 -3496,-736 -4968,-2208 -1840,-1591 -2760,-3741 -2760,-6440 0,-2453 1039,-6624 3128,-12512 -10922,13984 -19076,20976 -24473,20976 -5521,0 -8281,-2698 -8281,-8096 0,-2821 2512,-9752 7545,-20792 1591,-3435 3155,-6809 4692,-10122 1533,-3312 3094,-6624 4692,-9936 613,-1348 119,-2023 -1472,-2023 -2703,0 -4048,-921 -4048,-2760 0,-1841 1104,-2700 3312,-2577 5394,369 10366,123 14905,-735 855,-123 1591,65 2208,552 487,612 487,1352 0,2208l-5520 11040c-1840,3679 -3681,7425 -5521,11224 -6873,14353 -10304,22449 -10304,24289 0,1104 609,1656 1841,1656 3062,0 12079,-10120 27049,-30361 1345,-2821 2694,-5643 4047,-8464l4417 -8649c981,-2085 2085,-3128 3312,-3128 491,0 1498,-61 3036,-184 1530,-118 2545,-183 3036,-183 2454,0 3189,858 2208,2575 -13617,25761 -20425,41586 -20425,47474 0,1967 613,2945 1840,2945 1841,0 4416,-1776 7728,-5337 855,-855 1533,-1564 2025,-2116 486,-552 885,-1013 1196,-1380 302,-368 552,-705 736,-1013 183,-306 394,-766 644,-1380 367,-121 736,-244 1104,-367 119,-119 241,-119 367,0l185 0c854,0 1406,246 1656,736l184 -184z"/>
  <path class="fil1" d="M823618 768418c0,-1962 -796,-2944 -2392,-2944 -1962,0 -4753,2515 -8372,7544 -3619,5030 -7145,11348 -10580,18953 -1841,3803 -4114,8771 -6809,14905 6870,-4049 12759,-9507 17665,-16377 6992,-9691 10488,-17051 10488,-22081zm-18032 54650c0,-2453 -981,-3680 -2945,-3680 -1839,0 -4845,1963 -9016,5888 -4539,4294 -8464,9139 -11776,14537 -4661,12267 -6992,19872 -6992,22817 0,3189 1472,4784 4416,4784 4903,0 10550,-5639 16929,-16928 6256,-10918 9384,-20058 9384,-27418zm25025 -55386c0,2699 -1104,6379 -3312,11041 -2699,5643 -6379,11101 -11041,16376 -5888,6502 -13923,13065 -24105,19689 -1594,3680 -3193,7360 -4784,11040 7360,-7851 13678,-11776 18953,-11776 6870,0 10305,3680 10305,11041 0,9449 -4110,19381 -12330,29809 -8586,10795 -17112,16192 -25576,16192 -4048,0 -7176,-1042 -9385,-3128 -2208,-2086 -3312,-4661 -3312,-7729 0,-7850 3374,-19933 10120,-36248 6744,-16315 14292,-30423 22633,-42322 9569,-13736 17727,-20609 24474,-20609 4906,0 7360,2208 7360,6624z"/>
  <path class="fil1" d="M860420 821044c0,-2330 -859,-3496 -2575,-3496 -2577,0 -6257,3435 -11041,10305 -4416,6133 -8219,12819 -11409,20056 5521,-245 11068,-3435 16653,-9568 5581,-6134 8372,-11899 8372,-17297zm7545 1104c0,7974 -4600,15150 -13801,21529 -7360,4907 -14107,7667 -20241,8280 -1471,3926 -2208,6932 -2208,9017 0,4293 2270,6440 6809,6440 3679,0 7847,-1657 12512,-4969 3680,-2698 6502,-5397 8465,-8095 1590,-859 2575,-307 2943,1656 -2089,2944 -4968,5826 -8648,8647 -5765,4172 -11408,6257 -16928,6257 -9447,0 -14169,-4661 -14169,-13985 0,-9445 4110,-18983 12328,-28613 8219,-9630 15948,-14444 23185,-14444 6502,0 9753,2760 9753,8280z"/>
  <path class="fil1" d="M955735 816260c0,-368 -859,1165 -2576,4600 -2576,5152 -6011,12574 -10304,22265 -5402,12144 -8097,19137 -8097,20976 0,1841 1104,2761 3312,2761 4416,0 8894,-3925 13433,-11777 2209,-735 3373,-368 3496,1104 -1721,3067 -4048,6012 -6992,8833 -4171,4048 -8161,6072 -11960,6072 -6993,0 -10489,-2760 -10489,-8280 0,-3925 1902,-10305 5704,-19137 2577,-6133 4908,-10976 6993,-14537l-552 -920c-3067,1718 -9017,8280 -17850,19689 -4537,6012 -8770,12574 -12696,19689 -736,1594 -3679,2698 -8832,3312 -1717,246 -2576,-62 -2576,-920 0,-613 2821,-6808 8464,-18585 6134,-12631 9568,-19934 10305,-21896l-737 -921c-2943,1596 -8893,8158 -17848,19690 -5766,7359 -10427,13554 -13984,18584 -369,736 -1473,1564 -3312,2484 -1841,920 -3497,1380 -4969,1380 -1472,0 -2208,-736 -2208,-2208 0,-859 3373,-8096 10120,-21713 6012,-12263 9016,-19933 9016,-23001 0,-2330 -858,-3496 -2575,-3496 -250,0 -2393,675 -6441,2025 -490,0 -889,-399 -1196,-1197 -306,-797 -341,-1380 -91,-1748 4416,-3312 9261,-4968 14536,-4968 4907,0 7360,2147 7360,6440 0,3926 -3190,12267 -9568,25025l735 184c3558,-4903 8466,-10550 14721,-16929 6256,-6378 10734,-10396 13433,-12052 2694,-1656 5704,-2484 9017,-2484 1717,0 2575,490 2575,1472 0,-122 -858,1537 -2575,4968l-10489 21161c10549,-13125 19015,-21590 25393,-25393 2698,-1718 5398,-2576 8096,-2576 1472,0 2208,675 2208,2024z"/>
  <path class="fil1" d="M1007440 828404c0,-4167 -858,-6256 -2575,-6256 -2208,0 -3312,3435 -3312,10305 0,4416 797,7608 2391,9568 2327,-5398 3496,-9937 3496,-13617zm9384 16560c-2088,2087 -4416,3129 -6991,3129 -368,0 -920,-61 -1656,-184 -3558,6502 -8097,11991 -13617,16468 -5520,4479 -10611,6717 -15273,6717 -9450,0 -14168,-4723 -14168,-14169 0,-10182 4048,-19965 12145,-29349 8095,-9385 17173,-14077 27232,-14077 1718,0 2577,369 2577,1104 0,1227 -859,1841 -2577,1841 -6873,0 -13800,6010 -20793,18032 -6378,11040 -9568,20303 -9568,27786 0,3925 1840,5887 5520,5887 3313,0 7146,-2269 11500,-6808 4356,-4539 8067,-9871 11133,-16008 -3929,-2944 -5888,-7054 -5888,-12328 0,-4662 1043,-8281 3128,-10857 1840,-2208 3864,-3312 6072,-3312 5275,0 7912,3495 7912,10488 0,4907 -1287,10059 -3864,15457 855,122 1350,183 1473,183 1472,0 3005,-670 4599,-2023 1224,246 1596,919 1104,2023z"/>
  <path class="fil1" d="M1056935 855637c-1718,2944 -4048,5888 -6988,8833 -4543,4293 -8837,6439 -12885,6439 -2699,0 -4998,-858 -6897,-2575 -1905,-1718 -2855,-3926 -2855,-6624 0,-3190 3431,-10857 10304,-23002 5643,-9936 8464,-15456 8464,-16560 0,-1594 -735,-2392 -2203,-2392 -1722,0 -3497,1350 -5340,4048 -3309,4665 -5460,7483 -6438,8464 -130,123 -309,185 -555,185 -614,0 -1257,-276 -1932,-828 -675,-552 -951,-1135 -828,-1749 3435,-4416 5393,-7237 5889,-8464 -1841,-3680 -2760,-6931 -2760,-9753 0,-6010 2208,-9016 6624,-9016 4051,0 6072,2147 6072,6440 0,3068 -368,5214 -1104,6441l552 552c3925,-1473 6562,-2208 7912,-2208 3066,0 4600,2208 4600,6624 0,2699 -1104,6195 -3312,10488 -123,369 -2392,4539 -6805,12513 -2339,4048 -4607,8070 -6811,12052 -2208,3987 -3312,6840 -3312,8556 0,1840 735,2761 2208,2761 2330,0 5520,-1960 9568,-5889 2695,-2453 5091,-5090 7176,-7912 1472,368 2028,1227 1656,2576z"/>
  <path class="fil1" d="M1111768 816627c1349,-855 2883,-1472 4600,-1840 1718,-369 3251,-552 4600,-552 1350,0 2024,675 2024,2024 -122,0 -705,1077 -1744,3220 -1047,2147 -2369,4876 -3960,8188 -1598,3312 -3282,6932 -5061,10857 -1777,3929 -3430,7667 -4968,11224 -1533,3562 -2790,6656 -3772,9293 -981,2637 -1468,4324 -1468,5059 0,1841 1100,2760 3308,2760 4421,0 8898,-3921 13433,-11776 982,-245 1656,-368 2028,-368 974,0 1468,491 1468,1472 -2208,4171 -5148,7702 -8832,10581 -3676,2886 -7054,4324 -10117,4324 -3564,0 -6010,-670 -7360,-2024 -1353,-1346 -2028,-3431 -2028,-6256 0,-2695 613,-6073 1840,-10120 859,-2945 1844,-5950 2944,-9017l-367 0c-2457,0 -5091,65 -7913,184 -2086,0 -4044,65 -5888,184 -245,491 -491,986 -737,1472l-9751 22081c-982,1349 -2208,2181 -3681,2484 -1472,307 -3066,460 -4784,460 -1472,0 -2204,-736 -2204,-2208 0,-369 3370,-7663 10117,-21897 5892,-12635 8832,-20118 8832,-22448 0,-2331 -858,-3497 -2576,-3497 -364,0 -2761,679 -7177,2024 -981,-368 -1468,-981 -1468,-1840 0,-1104 645,-2024 1928,-2760 1289,-736 2792,-1380 4508,-1932 1718,-552 3435,-951 5152,-1196 1718,-241 2945,-369 3685,-369 1714,0 3278,584 4688,1749 1410,1169 2116,2790 2116,4876 0,3312 -2330,9878 -6992,19689l5152 0c2328,123 5152,183 8468,183 119,-244 238,-490 369,-735 1839,-4416 3799,-8706 5884,-12880 2088,-4168 3987,-7729 5704,-10673z"/>
  <path class="fil1" d="M1166968 841284c-368,-3434 -1411,-5029 -3124,-4784 -1108,0 -2369,798 -3777,2392 -1410,1595 -2053,3619 -1932,6072 246,1596 951,2976 2117,4140 1165,1170 2422,1872 3769,2116 1230,-2085 2031,-3925 2395,-5520 368,-1594 552,-3062 552,-4416zm27233 -24656c1350,-856 2879,-1473 4600,-1841 1718,-367 3247,-552 4604,-552 1346,0 2021,675 2021,2024 -123,0 -706,1074 -1749,3220 -1042,2147 -2361,4877 -3955,8189 -1596,3312 -3286,6931 -5061,10856 -1779,3929 -3435,7667 -4964,11225 -1537,3561 -2795,6655 -3776,9292 -985,2637 -1472,4324 -1472,5060 0,1840 1108,2761 3316,2761 4412,0 8890,-3927 13432,-11778 982,-244 1652,-367 2020,-367 982,0 1476,490 1476,1471 -2208,4172 -5156,7698 -8835,10581 -3681,2883 -7054,4324 -10122,4324 -3556,0 -6010,-670 -7359,-2023 -1350,-1350 -2025,-3432 -2025,-6257 0,-2330 368,-4969 1104,-7912 -1717,858 -3312,1287 -4783,1287 -618,0 -1166,-60 -1656,-183 -1468,2453 -3282,4631 -5429,6532 -2146,1906 -4508,3562 -7084,4968 -2577,1411 -5214,2454 -7912,3128 -2699,675 -5337,947 -7913,828 -6379,246 -9633,-2576 -9752,-8464 0,-1840 1223,-6041 3680,-12605 2453,-6559 6134,-15977 11040,-28244 120,-246 188,-552 188,-921 0,-486 -310,-797 -919,-920 -622,-118 -1266,-244 -1932,-367 -680,-123 -1289,-338 -1844,-645 -552,-303 -828,-889 -828,-1748 -369,-1717 367,-2575 2208,-2575l5520 0c1836,-123 3618,-338 5335,-645 1718,-303 3435,-517 5153,-644 1350,0 2028,614 2028,1841 0,248 57,432 180,552 123,122 123,306 0,552 -2576,5643 -5121,11289 -7637,16928 -2514,5643 -4722,10764 -6620,15365 -1905,4600 -3407,8464 -4511,11592 -1104,3128 -1656,4999 -1656,5612 0,1595 670,2393 2027,2393 1465,0 3090,-430 4873,-1289 1774,-859 3496,-1993 5152,-3404 1656,-1407 3219,-2975 4696,-4692 1468,-1718 2633,-3497 3496,-5336 -1844,-982 -3470,-2178 -4880,-3588 -1411,-1411 -2243,-3094 -2480,-5061 -127,-2821 575,-5335 2108,-7544 1538,-2208 3714,-3374 6540,-3496 2572,-368 4627,-27 6160,1012 1534,1042 2607,2484 3221,4324 613,1840 831,3987 643,6441 -184,2453 -643,4845 -1380,7176 617,123 1104,184 1472,184 740,0 1442,-154 2116,-460 675,-306 1442,-705 2301,-1196 858,-2944 1959,-6007 3316,-9201 1345,-3189 2725,-6317 4136,-9384 1410,-3063 2852,-6011 4324,-8833 1476,-2821 2822,-5335 4048,-7543z"/>
  <path class="fil1" d="M1248115 782402c491,246 1165,1012 2024,2301 854,1287 2081,3036 3676,5244 1844,2331 3925,3496 6261,3496 3676,0 7360,-2944 11036,-8833 2208,-368 3497,307 3864,2025 -981,1353 -2051,2730 -3220,4140 -1162,1410 -2607,2791 -4320,4140 -3930,3435 -8162,5152 -12697,5152 -3558,0 -6409,-705 -8559,-2116 -2144,-1410 -3528,-3066 -4137,-4968 -618,-1902 -430,-3864 552,-5889 978,-2024 2821,-3588 5520,-4692zm21529 34042c-13620,25760 -20425,41585 -20425,47474 0,1962 613,2944 1840,2944 1836,0 4443,-1810 7820,-5428 3373,-3619 5548,-6594 6536,-8925 1833,-736 3064,-490 3677,736 -1350,3067 -3865,6502 -7548,10304 -4785,5031 -9447,7545 -13981,7545 -1840,0 -3496,-737 -4968,-2208 -1844,-1591 -2760,-3741 -2760,-6441 0,-2698 1038,-6869 3124,-12512 -10795,13985 -18949,20976 -24470,20976 -5520,0 -8280,-2698 -8280,-8095 0,-3067 2511,-9999 7541,-20793 3070,-6747 6194,-13433 9388,-20057 487,-1349 0,-2024 -1472,-2024 -2703,0 -4048,-921 -4048,-2760 0,-1840 1104,-2699 3312,-2577 5152,369 10120,123 14905,-735 981,-246 1716,-61 2208,552 491,491 491,1226 0,2208 -3681,7360 -7365,14781 -11041,22264 -6873,14108 -10305,22204 -10305,24289 0,1104 610,1656 1837,1656 3071,0 12083,-10120 27053,-30361 2695,-5520 5516,-11224 8461,-17113 981,-2085 2089,-3127 3315,-3127 487,0 1499,-62 3033,-185 1533,-118 2545,-183 3040,-183 2326,0 3063,858 2208,2576z"/>
  <path class="fil1" d="M1377469 855821l0 367 180 185 -556 919c-1345,6993 -2822,12513 -4408,16561 -1722,4416 -3408,7848 -5061,10305 -1656,2454 -3220,4110 -4695,4968 -1468,858 -2757,1472 -3864,1840 -1596,859 -6130,-122 -13622,-2944 -2326,-858 -4228,-1533 -5696,-2024 -1476,-491 -3315,-307 -5523,552 -2208,614 -4083,1866 -5609,3772 -1537,1902 -2883,3742 -4052,5521 -1166,1774 -2208,3159 -3128,4140 -921,981 -1814,858 -2668,-369 0,-858 617,-2330 1844,-4416 1218,-2085 2695,-4263 4408,-6532 1725,-2270 3596,-4416 5616,-6440 2024,-2025 3895,-3470 5616,-4324 1714,-614 3922,-705 6620,-276 2703,429 5643,1130 8833,2116 3189,1472 6072,1748 8648,828 2577,-921 4815,-2638 6717,-5152 1900,-2515 3526,-5490 4876,-8925 494,-1472 978,-2944 1472,-4416 -364,368 -802,858 -1289,1472 -4783,5034 -9445,7544 -13984,7544 -1840,0 -3496,-736 -4964,-2208 -1840,-1591 -2764,-3741 -2764,-6440 0,-2453 1043,-6624 3132,-12512 -10926,13984 -19080,20976 -24477,20976 -5516,0 -8281,-2698 -8281,-8096 0,-2821 2516,-9752 7549,-20792 1595,-3435 3151,-6809 4693,-10122 1528,-3312 3092,-6624 4687,-9936 613,-1348 119,-2023 -1468,-2023 -2702,0 -4052,-921 -4052,-2760 0,-1841 1104,-2700 3312,-2577 5398,369 10370,123 14905,-735 855,-123 1595,65 2212,552 483,612 483,1352 0,2208l-5520 11040c-1841,3679 -3685,7425 -5524,11224 -6866,14353 -10305,22449 -10305,24289 0,1104 614,1656 1844,1656 3059,0 12076,-10120 27049,-30361 1350,-2821 2695,-5643 4044,-8464l4417 -8649c981,-2085 2082,-3128 3312,-3128 494,0 1503,-61 3040,-184 1533,-118 2545,-183 3032,-183 2454,0 3189,858 2208,2575 -13613,25761 -20425,41586 -20425,47474 0,1967 613,2945 1840,2945 1844,0 4416,-1776 7728,-5337 860,-855 1534,-1564 2029,-2116 487,-552 881,-1013 1192,-1380 307,-368 552,-705 740,-1013 179,-306 395,-766 643,-1380 369,-121 733,-244 1101,-367 119,-119 245,-119 367,0l188 0c851,0 1408,246 1653,736l188 -184z"/>
  <path class="fil1" d="M1426413 821044c0,-2330 -862,-3496 -2576,-3496 -2577,0 -6260,3435 -11044,10305 -4416,6133 -8219,12819 -11409,20056 5524,-245 11071,-3435 16657,-9568 5577,-6134 8372,-11899 8372,-17297zm7541 1104c0,7974 -4597,15150 -13801,21529 -7360,4907 -14104,7667 -20237,8280 -1475,3926 -2208,6932 -2208,9017 0,4293 2269,6440 6805,6440 3684,0 7854,-1657 12512,-4969 3683,-2698 6505,-5397 8468,-8095 1595,-859 2576,-307 2940,1656 -2089,2944 -4965,5826 -8648,8647 -5762,4172 -11408,6257 -16928,6257 -9446,0 -14166,-4661 -14166,-13985 0,-9445 4102,-18983 12325,-28613 8223,-9630 15948,-14444 23189,-14444 6497,0 9749,2760 9749,8280z"/>
  <path class="fil1" d="M1485660 816627c1350,-855 2883,-1472 4604,-1840 1714,-369 3243,-552 4597,-552 1348,0 2023,675 2023,2024 -123,0 -705,1077 -1744,3220 -1050,2147 -2369,4876 -3964,8188 -1594,3312 -3278,6932 -5052,10857 -1783,3929 -3435,7667 -4973,11224 -1533,3562 -2790,6656 -3771,9293 -982,2637 -1468,4324 -1468,5059 0,1841 1099,2760 3307,2760 4421,0 8898,-3921 13434,-11776 981,-245 1656,-368 2023,-368 978,0 1472,491 1472,1472 -2208,4171 -5148,7702 -8832,10581 -3676,2886 -7053,4324 -10117,4324 -3565,0 -6010,-670 -7360,-2024 -1353,-1346 -2027,-3431 -2027,-6256 0,-2695 613,-6073 1839,-10120 856,-2945 1844,-5950 2944,-9017l-367 0c-2458,0 -5091,65 -7913,184 -2081,0 -4045,65 -5888,184 -245,491 -491,986 -732,1472l-9756 22081c-981,1349 -2208,2181 -3677,2484 -1476,307 -3070,460 -4784,460 -1475,0 -2208,-736 -2208,-2208 0,-369 3370,-7663 10117,-21897 5892,-12635 8832,-20118 8832,-22448 0,-2331 -859,-3497 -2576,-3497 -364,0 -2760,679 -7181,2024 -977,-368 -1464,-981 -1464,-1840 0,-1104 644,-2024 1928,-2760 1289,-736 2787,-1380 4509,-1932 1717,-552 3438,-951 5152,-1196 1713,-241 2944,-369 3683,-369 1714,0 3279,584 4689,1749 1415,1169 2116,2790 2116,4876 0,3312 -2327,9878 -6992,19689l5152 0c2327,123 5152,183 8469,183 118,-244 237,-490 367,-735 1841,-4416 3803,-8706 5885,-12880 2089,-4168 3990,-7729 5704,-10673z"/>
  <path class="fil1" d="M1587411 816260c0,-368 -862,1165 -2575,4600 -2577,5152 -6012,12574 -10301,22265 -5401,12144 -8104,19137 -8104,20976 0,1841 1107,2761 3320,2761 4416,0 8885,-3925 13429,-11777 2211,-735 3369,-368 3500,1104 -1726,3067 -4052,6012 -6997,8833 -4171,4048 -8161,6072 -11964,6072 -6984,0 -10481,-2760 -10481,-8280 0,-3925 1894,-10305 5697,-19137 2583,-6133 4911,-10976 6992,-14537l-545 -920c-3069,1718 -9023,8280 -17848,19689 -4546,6012 -8775,12574 -12701,19689 -731,1594 -3683,2698 -8835,3312 -1714,246 -2572,-62 -2572,-920 0,-613 2821,-6808 8468,-18585 6130,-12631 9568,-19934 10300,-21896l-732 -921c-2944,1596 -8898,8158 -17853,19690 -5766,7359 -10426,13554 -13984,18584 -368,736 -1476,1564 -3309,2484 -1844,920 -3496,1380 -4971,1380 -1468,0 -2208,-736 -2208,-2208 0,-859 3373,-8096 10120,-21713 6007,-12263 9016,-19933 9016,-23001 0,-2330 -862,-3496 -2576,-3496 -250,0 -2388,675 -6440,2025 -495,0 -889,-399 -1197,-1197 -306,-797 -337,-1380 -91,-1748 4419,-3312 9262,-4968 14533,-4968 4914,0 7360,2147 7360,6440 0,3926 -3189,12267 -9568,25025l743 184c3553,-4903 8461,-10550 14717,-16929 6252,-6378 10729,-10396 13432,-12052 2695,-1656 5708,-2484 9017,-2484 1714,0 2575,490 2575,1472 0,-122 -861,1537 -2575,4968l-10493 21161c10551,-13125 19019,-21590 25398,-25393 2698,-1718 5400,-2576 8095,-2576 1477,0 2208,675 2208,2024z"/>
  <path class="fil1" d="M1639119 821779c0,-2085 -556,-3127 -1656,-3127 -1840,0 -5950,4231 -12329,12697 -5647,7605 -10856,15394 -15644,23368 -1465,3435 -2941,6808 -4416,10120 1721,1595 3683,2393 5892,2393 5884,0 12206,-6134 18952,-18402 6130,-11158 9201,-20179 9201,-27049zm10304 1473c0,8464 -3806,18339 -11404,29625 -8223,12145 -16262,18217 -24110,18217 -4170,0 -7608,-1104 -10303,-3312 -5149,11163 -11716,24656 -19690,40481 -368,736 -1287,1503 -2755,2301 -1477,797 -2822,1195 -4052,1195 -1960,0 -2941,-736 -2941,-2208 0,-490 119,-1104 364,-1840l35513 -81699c369,-858 556,-1656 556,-2392 0,-1962 -743,-2945 -2212,-2945 -494,0 -1958,1044 -4416,3129 -1840,736 -3009,62 -3496,-2025 3558,-5151 8092,-7728 13620,-7728 4290,0 6437,2577 6437,7728 0,4417 -1165,8956 -3496,13617 9204,-14229 16864,-21345 23001,-21345 6253,0 9384,3068 9384,9201z"/>
 </g>
</svg>
