<?xml version="1.0" encoding="UTF-8"?>
<!DOCTYPE svg PUBLIC "-//W3C//DTD SVG 1.1//EN" "http://www.w3.org/Graphics/SVG/1.1/DTD/svg11.dtd">
<!-- Creator: CorelDRAW X7 -->
<svg xmlns="http://www.w3.org/2000/svg" xml:space="preserve" width="100%" height="100%" version="1.1" style="shape-rendering:geometricPrecision; text-rendering:geometricPrecision; image-rendering:optimizeQuality; fill-rule:evenodd; clip-rule:evenodd"
viewBox="0 0 8000 8000"
 xmlns:xlink="http://www.w3.org/1999/xlink">
 <defs>
  <style type="text/css">
   <![CDATA[
    .fil1 {fill:#4E2718;fill-rule:nonzero}
    .fil0 {fill:#C4B57E;fill-rule:nonzero}
   ]]>
  </style>
 </defs>
 <g id="Слой_x0020_1">
  <metadata id="CorelCorpID_0Corel-Layer"/>
  <path class="fil0" d="M3033 1943l-56 709 46 -510 49 521 -38 -720 -1 0zm-993 1700c-3,4 -3,10 -5,15 1,-1 2,-2 3,-3 -1,14 -3,28 -5,41 -15,15 -7,59 -7,67 -23,110 -38,213 -61,316l-31 -8c0,12 -94,403 -114,412 -34,-97 4,-22 -46,-22 -17,-8 -38,-21 -59,-37l-1 -1 -1 0c-36,-27 -71,-60 -83,-83l7 1 -7 -4 -2 -2c4,-8 62,-65 -8,-65 -3,-7 -4,-15 -5,-22l3 1 -3 -3c-2,-39 23,-79 -19,-100l-8 -15 -7 -3c20,-53 -192,-78 -221,-99l2 -5 9 2 31 -4 28 8 31 -3 29 11 32 0 32 11 -10 -14c0,0 0,0 0,0 18,-28 18,-67 -6,-89l-6 -9 -20 -16 -5 -2c1,-6 3,-12 7,-17 8,15 22,8 30,15 0,-29 -38,-29 -46,-51l8 -8c-46,8 -162,-8 -200,-16 2,-3 4,-5 7,-8l3 1 27 -6 20 4 28 -3 21 6 29 0 21 9 29 2 23 9 -6 -16 -8 -6c11,1 21,2 29,2 7,-37 -31,-22 -46,-44 0,-7 8,-7 15,-15l8 8c30,7 8,-30 30,-37 -53,-44 -12,-153 -97,-168 -7,-7 0,-7 8,-15l51 14c8,7 8,0 16,-8 -2,-6 -2,-13 -2,-20l3 1 -2 -7c2,-25 8,-51 -15,-62l8 -14c8,-67 -15,-74 -61,-103l8 -15c5,3 12,2 19,2 11,-1 22,-1 26,13 8,-30 -15,-52 -23,-59 -15,-25 -47,-23 -71,-22 -13,1 -22,2 -28,-1 -23,-7 -8,-29 -15,-51 0,-7 101,11 116,18 -31,-14 -70,-83 -93,-98 -38,37 -130,168 -115,220 -61,110 0,271 -45,389l0 0 0 0c0,0 0,0 0,1 29,29 -29,58 5,80l-10 13 6 -2c-17,28 -28,60 -32,92l-4 7 4 -2c-3,29 1,57 13,85l-9 13c-34,24 -2,54 -19,59 -13,12 -17,8 -25,35l-4 4 4 -1c-2,6 -4,13 -6,21 24,21 30,38 27,52l-13 12 -19 18 20 -8c-23,29 -65,53 -26,98l-3 2 3 -1c1,1 2,3 3,3 -6,17 -17,13 -27,10 -18,-6 -36,-12 -34,67l-3 0 -10 12c-4,-1 -6,-4 -10,-7 -38,37 -24,89 6,128l-6 4 7 -2c20,26 45,45 66,51 -100,-13 -100,-140 -165,76 -7,23 -17,84 -23,114l115 11c-121,7 -150,99 -167,196l-7 1c1,8 2,14 3,19 -15,87 -25,174 -92,200 -277,109 -328,252 -179,253 3248,8 6518,50 6898,-51 24,-7 -2031,4 -3881,15 -1515,9 -2892,18 -2872,18 4072,-114 5962,-84 6576,-142 178,-17 264,-82 264,-125l0 0c-1,-24 -28,-41 -83,-39 -163,8 -659,31 -1256,30 12,-2 24,-4 36,-6l-348 2c-471,-8 -976,-35 -1415,-97 -188,-27 -446,-392 -610,-414 -38,-4 -86,-3 -133,-1 -105,4 -212,8 -237,-58 -29,-76 -74,-126 -42,-136 51,-16 52,-33 14,-110 -8,-13 -36,-49 -46,-66 -16,-27 -223,-58 -246,6 -87,256 -20,944 -62,925 -52,-23 15,-618 -14,-885 -21,-192 -211,-85 -205,-1 35,439 -942,1175 -1259,1024 323,95 1143,-529 1162,-789 -103,104 -376,388 -708,600 -24,16 -44,29 -60,39 179,-122 652,-464 663,-633 20,-12 38,-46 14,-88l-157 -69c-106,22 0,168 -91,213l-23 -15c8,15 -8,15 -15,29 -62,-29 -24,-80 -31,-117 15,-15 7,-37 7,-52 -7,0 -15,8 -23,8 0,0 -7,-8 -7,-15 -23,-7 -38,0 -54,7 -45,-58 8,-132 -7,-184l-31 8c-8,-8 -11,-12 -12,-14 -1,2 -5,6 -26,6 -23,-44 -5,-290 -53,-198 -54,-74 -23,-184 -61,-265 0,-7 -39,-29 -8,-44l-15 -7 -6 -129c1,1 2,1 3,2 -1,-4 -2,-7 -4,-10l-48 -1183c-9,399 -17,783 -61,1178zm-1109 1252l29 2 -2 4 -27 -6zm-33 148c4,2 1,1 -18,6l18 -6zm2081 -2302c21,-18 39,-25 57,-24 18,1 37,10 60,24 -8,-33 -36,-54 -59,-55 -1,0 -2,0 -3,0 -23,0 -48,17 -55,55zm-22 105c28,-18 54,-25 80,-24 26,1 54,10 84,24 -8,-33 -48,-53 -83,-55 -2,0 -3,0 -5,0 -33,0 -69,17 -76,55zm-22 107c36,-18 69,-25 103,-24 33,1 70,10 108,24 -7,-33 -59,-53 -107,-55 -2,0 -4,0 -6,0 -45,0 -91,17 -98,55zm-21 97c43,-19 84,-25 125,-24 41,0 84,10 130,24 -7,-34 -70,-54 -128,-55 -3,0 -5,0 -8,0 -55,0 -111,16 -119,55zm-21 104c50,-18 98,-24 147,-23 49,1 100,10 154,23 -8,-33 -82,-53 -151,-55 -4,0 -7,0 -10,0 -66,0 -133,17 -140,55zm-22 105c57,-18 114,-24 170,-24 56,2 115,11 178,24 -8,-33 -94,-53 -175,-55 -3,0 -7,0 -10,0 -78,0 -155,17 -163,55zm-20 94c65,-18 128,-25 191,-24 64,2 130,10 199,24 -8,-33 -104,-53 -195,-55 -5,0 -9,0 -13,0 -87,0 -174,17 -182,55zm-20 97c71,-19 141,-25 212,-25 70,1 144,10 221,25 -8,-34 -115,-54 -218,-56 -4,0 -9,0 -13,0 -97,0 -194,17 -202,56zm-20 96c78,-19 155,-25 233,-24 78,0 158,10 243,24 -8,-34 -126,-54 -239,-56 -5,0 -10,0 -14,0 -108,0 -215,17 -223,56zm-20 98c85,-18 169,-25 254,-24 85,1 173,10 265,24 -8,-34 -137,-54 -260,-55 -6,0 -12,0 -17,0 -118,0 -235,17 -242,55zm-21 100c92,-18 183,-25 276,-24 92,1 188,10 288,24 -8,-33 -148,-53 -283,-55 -6,0 -12,0 -19,0 -128,0 -254,17 -262,55zm-21 103c99,-18 198,-25 297,-24 101,1 204,10 312,24 -8,-33 -159,-53 -306,-55 -6,0 -13,0 -19,0 -140,0 -276,17 -284,55zm-9 29c-77,51 23,132 -8,199l53 -22c0,7 8,7 8,22 12,0 23,-9 31,-3 10,-32 53,-6 53,-42 0,8 8,15 8,23 0,-37 -8,-81 8,-111 7,22 30,37 23,59 15,15 28,11 42,7 13,-3 26,-7 42,8l0 -15c7,-7 15,-22 30,-15 8,0 8,15 8,30l23 0c-8,-22 -31,-37 -15,-52 15,-14 45,-14 60,0 0,15 8,37 -7,52 7,-8 15,0 23,7l61 -59c15,15 8,37 8,59 6,-3 13,-2 19,-1 7,1 14,2 19,-6 8,0 15,7 23,7l0 -29c22,-22 28,-6 36,10 6,11 12,22 25,19l0 -29c0,-15 15,-22 30,-22 16,14 8,44 8,58 8,-14 -8,-36 15,-44 5,5 12,10 16,16 2,-29 9,-48 22,-67 -198,-67 -465,-51 -672,-8l-8 -14c-7,-8 0,-15 8,-15l8 7c0,-14 0,-21 15,-29l-15 0zm642 140c2,-6 2,-10 0,-14 0,4 0,9 0,14zm-514 60c-13,6 -25,11 -37,4 0,1 0,1 1,2 -47,15 -92,52 -138,37l30 -30c-45,8 -76,22 -114,30 -16,44 30,59 38,88 15,59 -99,44 -61,117 84,-51 217,-91 316,-40l0 -14c-22,-1 -46,-16 -26,-34 -15,-22 31,-36 0,-58l31 -37c115,-30 236,7 352,7l15 -7c24,-3 54,3 84,8 63,11 129,22 160,-38 -198,-14 -405,-14 -596,-36l-7 7c-9,-9 -16,-13 -24,-13 -8,0 -16,4 -24,7zm-44 -1c2,2 4,4 7,5 -2,-5 -5,-7 -7,-8 0,1 0,1 0,3zm-505 218c0,-1 0,-2 -1,-2 0,0 0,1 1,2zm574 244c1,-1 3,-2 4,-2 0,-1 0,-1 0,-1 -1,0 -2,1 -4,3zm-7 6c3,-2 5,-4 7,-6 -3,2 -5,4 -7,6zm-32 33c8,-8 14,-15 20,-21 -2,1 -4,2 -7,2l-16 -15c3,10 4,22 3,34zm20 -21c5,-2 8,-7 12,-12 -3,3 -7,7 -12,12z"/>
  <path class="fil1" d="M6127 5170l-49 30 -48 33 -52 35 -53 36c0,-192 -22,-348 -64,-466 -13,-35 -34,-52 -63,-52 -55,0 -151,88 -287,266 -54,70 -100,154 -139,252l-36 -14 8 -82 0 -473c1,-51 1,-90 0,-115l0 -41 -10 -149c-1,-18 -3,-48 -4,-91 -14,-77 -36,-114 -66,-114 -28,0 -47,0 -79,17l-73 69c-26,26 -74,41 -142,48 -18,1 -43,2 -77,3l-96 0 -5 189c-2,69 0,167 5,297 3,94 9,186 17,276 -91,53 -181,114 -268,183l8 -94 0 -854c-46,0 -115,-4 -209,-13 -93,-8 -163,-13 -208,-13 23,-21 52,-47 86,-78 32,-27 64,-50 96,-71l25 -16 24 -17 172 11c11,1 132,-2 362,-6 147,-4 277,-3 379,-3l142 -91 39 -19c6,-3 13,-4 20,-4 45,0 67,36 67,107 0,36 0,76 1,120 0,10 1,28 2,54 2,26 3,45 3,59l0 518 176 -206c106,-123 187,-184 244,-184 39,0 71,57 95,170 14,65 24,131 30,198l10 102 4 67 3 60 10 66zm982 -3l-191 132c-10,-31 -29,-75 -55,-131 -44,-90 -99,-150 -167,-181 -50,-21 -96,-35 -137,-41 -17,-2 -33,-3 -48,-3 -72,0 -108,23 -108,67 0,33 22,62 65,88 41,22 78,33 114,33l21 0c43,0 81,-8 113,-24l19 22 -3 3 -74 69c-71,66 -133,98 -190,98l-21 0c-7,0 -12,-1 -14,-1 -138,-16 -207,-69 -207,-159 0,-82 61,-158 181,-231 37,-22 82,-41 136,-55l20 -3 32 -8 55 -12 -19 -32c-52,-88 -107,-132 -165,-132 -20,0 -39,5 -55,16l-13 -17 107 -91c61,-51 105,-76 134,-76 43,0 117,77 224,233 51,75 97,150 135,223 15,31 45,89 90,176l21 37zm379 -856l-134 106c-15,12 -35,17 -59,17 -45,0 -83,-23 -112,-71l-9 -20c23,-22 68,-57 133,-106l51 -31 22 23c10,12 29,31 55,57 13,11 31,19 53,25zm-22 839c-74,43 -146,93 -217,149 0,-141 -1,-229 -3,-263l-15 -228c-4,-83 -26,-125 -64,-125 -15,0 -29,4 -44,10l-14 6 -22 -31 87 -49c4,-2 38,-27 103,-73 54,-37 87,-56 98,-56 30,0 50,11 62,36 6,13 10,44 12,94l11 247 6 283z"/>
  <path class="fil1" d="M2470 4065c-62,109 -130,233 -203,370 -73,138 -138,265 -193,382 -23,47 -40,85 -50,113l-4 6 -20 52 -21 56 -2 6c-2,12 -4,26 -4,41 0,10 0,18 2,24l-25 18 -27 16c-34,25 -83,57 -148,98l-7 -10 -2 -3 -62 -166c-35,-96 -89,-211 -158,-345l-64 -119c-10,-17 -29,-49 -57,-98l-28 49 -107 205 -51 102c-60,122 -90,204 -90,245 0,6 1,16 3,31l-66 38 -136 75 -20 -56 -61 -159 -24 -49 -22 -57c-34,-86 -105,-230 -214,-433l-65 -120 -34 -55c-21,-37 -44,-56 -69,-56 -4,0 -10,2 -19,4l-3 -39 188 -130c10,-6 17,-9 23,-9 29,0 82,73 161,220l66 123 95 188c43,85 87,177 132,277l51 -104c37,-77 73,-163 109,-260 25,-69 41,-124 46,-164l4 -20 5 -36 5 -56 220 -130 60 107c80,144 155,291 225,443l19 41 74 173 58 -118c97,-196 149,-357 157,-483l2 -51 351 -177zm860 1051l-191 133c-10,-32 -29,-75 -55,-132 -43,-90 -99,-150 -167,-181 -50,-21 -95,-35 -137,-40 -17,-3 -32,-4 -47,-4 -73,0 -109,23 -109,66 0,34 22,64 66,89 40,22 78,33 114,33l20 0c44,0 82,-8 113,-24l20 22 -4 3 -74 69c-70,65 -133,99 -189,99l-22 0c-6,-1 -11,-2 -14,-2 -138,-16 -206,-69 -206,-158 0,-82 60,-159 181,-232 36,-22 81,-40 135,-55l21 -3 31 -8 55 -13 -19 -31c-52,-88 -107,-132 -165,-132 -20,0 -38,5 -55,16l-13 -18 107 -90c61,-51 106,-77 134,-77 43,0 118,78 224,234 52,75 97,150 136,223 14,31 44,89 89,175l21 38zm380 -856l-136 106c-15,12 -34,17 -58,17 -45,0 -82,-23 -112,-71l-9 -20c23,-22 68,-57 134,-106l50 -31 23 24c10,11 28,30 55,56 13,11 31,19 53,25zm-22 839c-75,43 -147,93 -217,150 0,-142 -2,-230 -4,-264l-14 -228c-5,-83 -27,-125 -65,-125 -14,0 -29,4 -44,10l-14 6 -22 -31 87 -49c4,-3 39,-26 104,-73 53,-38 86,-56 97,-56 30,0 50,11 63,36 5,12 10,44 12,94l11 248 6 282z"/>
  <path class="fil1" d="M7001 5819l-72 -1 36 10c15,3 23,-3 36,-9z"/>
  <polygon class="fil1" points="6863,5816 6849,5816 6839,5818 "/>
  <path class="fil1" d="M6738 5824l63 -2c-18,-2 -39,-2 -63,2z"/>
  <path class="fil1" d="M6837 5831c-8,-5 -11,-9 1,-13l1 0 -38 4 36 9z"/>
  <path class="fil1" d="M6837 5831c8,4 19,8 24,10l-24 -10z"/>
  <path class="fil1" d="M6806 5934c-13,4 -10,-25 -35,-19 -58,8 -109,21 -163,21 -25,7 -64,-25 -89,-19 -58,8 -208,48 -120,46 133,-4 219,-12 338,-18 96,-12 189,-25 288,-36 28,-1 53,1 80,3 -34,-5 -69,-9 -107,-14 -52,-8 -113,30 -192,36z"/>
  <path class="fil1" d="M7529 5837c-13,3 -37,10 -37,10 -56,-22 -115,-13 -173,-5l25 15c34,-2 38,-10 8,-17 68,18 133,21 198,18 -4,-8 -3,-17 -21,-21z"/>
  <polygon class="fil1" points="7589,5855 7550,5858 7552,5861 7590,5856 "/>
  <path class="fil1" d="M6473 5850c-166,1 -322,0 -475,-3 -12,6 -20,13 -36,9l-36 -11 -66 -1 -24 2 0 1c-13,3 -9,7 -1,12l23 10c-4,-2 -15,-6 -23,-10l-36 -8 -64 1c25,-4 46,-4 64,-1l37 -5 11 -2 -152 -4 -31 2c-37,4 -74,8 -97,-7l-27 0 5 2 -10 -3 -115 -3 -76 16c0,0 -17,-9 -26,-14 -10,7 -25,12 -43,14l57 25c26,15 59,-29 89,-2 -30,-27 -63,17 -89,2l-57 -25c-36,6 -83,0 -121,-14 47,-12 87,0 121,14 18,-2 33,-7 43,-14 9,5 26,14 26,14l76 -16 -228 -8c-500,-18 -960,-15 -1477,-29 -280,-9 -550,-21 -814,-39 -527,-34 -1008,6 -1540,-68 -204,-27 -584,-13 -781,-9 -263,48 -127,175 -114,182 162,108 289,48 620,111 -226,-36 166,-69 378,4 308,113 746,23 1126,52 95,7 196,2 309,4 589,38 1135,-9 1753,-1 164,0 308,-27 446,-42 101,-5 208,9 290,9 129,0 240,-11 346,-23 -119,5 -205,13 -338,17 -88,2 62,-37 121,-46 24,-6 64,27 88,20 55,0 105,-13 164,-22 25,-7 21,23 34,20 80,-7 141,-45 192,-37 39,5 73,10 107,14l66 2 43 -8c-11,-9 -16,-20 -20,-31 22,2 51,8 72,10 -21,-2 -50,-8 -72,-10 4,11 9,22 20,31 105,-17 226,-33 339,-45l-2 -3c-66,3 -130,1 -198,-17 29,6 25,14 -8,16l-25 -15c57,-8 116,-16 172,5 0,0 25,-7 37,-10 18,4 18,13 22,21l38 -2c-27,-15 -113,-34 -113,-34z"/>
  <path class="fil1" d="M5798 5849l31 -2 -127 -4c22,15 59,11 96,6z"/>
 </g>
</svg>
